%TF.GenerationSoftware,KiCad,Pcbnew,(5.99.0-10506-gb986797469)*%
%TF.CreationDate,2021-05-05T16:41:54+02:00*%
%TF.ProjectId,ESP31,45535033-312e-46b6-9963-61645f706362,rev?*%
%TF.SameCoordinates,Original*%
%TF.FileFunction,Legend,Bot*%
%TF.FilePolarity,Positive*%
%FSLAX46Y46*%
G04 Gerber Fmt 4.6, Leading zero omitted, Abs format (unit mm)*
G04 Created by KiCad (PCBNEW (5.99.0-10506-gb986797469)) date 2021-05-05 16:41:54*
%MOMM*%
%LPD*%
G01*
G04 APERTURE LIST*
%ADD10C,0.200000*%
%ADD11C,0.300000*%
%ADD12C,0.120000*%
G04 APERTURE END LIST*
D10*
X107029196Y-103452380D02*
X106820863Y-104452380D01*
X106362529Y-103452380D01*
X105630386Y-104452380D02*
X106201815Y-104452380D01*
X105916101Y-104452380D02*
X105791101Y-103452380D01*
X105904196Y-103595238D01*
X106011339Y-103690476D01*
X106112529Y-103738095D01*
D11*
X115844107Y-105107142D02*
X115177440Y-105107142D01*
X115022678Y-106154761D02*
X115975059Y-106154761D01*
X115725059Y-104154761D01*
X114772678Y-104154761D01*
X114248869Y-106059523D02*
X113975059Y-106154761D01*
X113498869Y-106154761D01*
X113296488Y-106059523D01*
X113189345Y-105964285D01*
X113070297Y-105773809D01*
X113046488Y-105583333D01*
X113117916Y-105392857D01*
X113201250Y-105297619D01*
X113379821Y-105202380D01*
X113748869Y-105107142D01*
X113927440Y-105011904D01*
X114010773Y-104916666D01*
X114082202Y-104726190D01*
X114058392Y-104535714D01*
X113939345Y-104345238D01*
X113832202Y-104250000D01*
X113629821Y-104154761D01*
X113153630Y-104154761D01*
X112879821Y-104250000D01*
X112260773Y-106154761D02*
X112010773Y-104154761D01*
X111248869Y-104154761D01*
X111070297Y-104250000D01*
X110986964Y-104345238D01*
X110915535Y-104535714D01*
X110951250Y-104821428D01*
X111070297Y-105011904D01*
X111177440Y-105107142D01*
X111379821Y-105202380D01*
X112141726Y-105202380D01*
X110201250Y-104154761D02*
X108963154Y-104154761D01*
X109725059Y-104916666D01*
X109439345Y-104916666D01*
X109260773Y-105011904D01*
X109177440Y-105107142D01*
X109106011Y-105297619D01*
X109165535Y-105773809D01*
X109284583Y-105964285D01*
X109391726Y-106059523D01*
X109594107Y-106154761D01*
X110165535Y-106154761D01*
X110344107Y-106059523D01*
X110427440Y-105964285D01*
X107308392Y-106154761D02*
X108451250Y-106154761D01*
X107879821Y-106154761D02*
X107629821Y-104154761D01*
X107856011Y-104440476D01*
X108070297Y-104630952D01*
X108272678Y-104726190D01*
D12*
%TO.C,J1*%
X116410000Y-109395000D02*
X116410000Y-114595000D01*
X108730000Y-109395000D02*
X116410000Y-109395000D01*
X106130000Y-114595000D02*
X116410000Y-114595000D01*
X108730000Y-109395000D02*
X108730000Y-111995000D01*
X108730000Y-111995000D02*
X106130000Y-111995000D01*
X106130000Y-111995000D02*
X106130000Y-114595000D01*
X107460000Y-109395000D02*
X106130000Y-109395000D01*
X106130000Y-109395000D02*
X106130000Y-110725000D01*
%TD*%
M02*
