%TF.GenerationSoftware,KiCad,Pcbnew,(5.99.0-10506-gb986797469)*%
%TF.CreationDate,2021-05-05T16:41:54+02:00*%
%TF.ProjectId,ESP31,45535033-312e-46b6-9963-61645f706362,rev?*%
%TF.SameCoordinates,Original*%
%TF.FileFunction,Soldermask,Top*%
%TF.FilePolarity,Negative*%
%FSLAX46Y46*%
G04 Gerber Fmt 4.6, Leading zero omitted, Abs format (unit mm)*
G04 Created by KiCad (PCBNEW (5.99.0-10506-gb986797469)) date 2021-05-05 16:41:54*
%MOMM*%
%LPD*%
G01*
G04 APERTURE LIST*
G04 Aperture macros list*
%AMRoundRect*
0 Rectangle with rounded corners*
0 $1 Rounding radius*
0 $2 $3 $4 $5 $6 $7 $8 $9 X,Y pos of 4 corners*
0 Add a 4 corners polygon primitive as box body*
4,1,4,$2,$3,$4,$5,$6,$7,$8,$9,$2,$3,0*
0 Add four circle primitives for the rounded corners*
1,1,$1+$1,$2,$3*
1,1,$1+$1,$4,$5*
1,1,$1+$1,$6,$7*
1,1,$1+$1,$8,$9*
0 Add four rect primitives between the rounded corners*
20,1,$1+$1,$2,$3,$4,$5,0*
20,1,$1+$1,$4,$5,$6,$7,0*
20,1,$1+$1,$6,$7,$8,$9,0*
20,1,$1+$1,$8,$9,$2,$3,0*%
%AMOutline5P*
0 Free polygon, 5 corners , with rotation*
0 The origin of the aperture is its center*
0 number of corners: always 8*
0 $1 to $10 corner X, Y*
0 $11 Rotation angle, in degrees counterclockwise*
0 create outline with 8 corners*
4,1,5,$1,$2,$3,$4,$5,$6,$7,$8,$9,$10,$1,$2,$11*%
%AMOutline6P*
0 Free polygon, 6 corners , with rotation*
0 The origin of the aperture is its center*
0 number of corners: always 6*
0 $1 to $12 corner X, Y*
0 $13 Rotation angle, in degrees counterclockwise*
0 create outline with 6 corners*
4,1,6,$1,$2,$3,$4,$5,$6,$7,$8,$9,$10,$11,$12,$1,$2,$13*%
%AMOutline7P*
0 Free polygon, 7 corners , with rotation*
0 The origin of the aperture is its center*
0 number of corners: always 7*
0 $1 to $14 corner X, Y*
0 $15 Rotation angle, in degrees counterclockwise*
0 create outline with 7 corners*
4,1,7,$1,$2,$3,$4,$5,$6,$7,$8,$9,$10,$11,$12,$13,$14,$1,$2,$15*%
%AMOutline8P*
0 Free polygon, 8 corners , with rotation*
0 The origin of the aperture is its center*
0 number of corners: always 8*
0 $1 to $16 corner X, Y*
0 $17 Rotation angle, in degrees counterclockwise*
0 create outline with 8 corners*
4,1,8,$1,$2,$3,$4,$5,$6,$7,$8,$9,$10,$11,$12,$13,$14,$15,$16,$1,$2,$17*%
G04 Aperture macros list end*
%ADD10C,0.800000*%
%ADD11Outline6P,0.200000X-0.400000X-0.400000X-0.400000X-0.400000X0.400000X0.200000X0.400000X0.400000X0.200000X0.400000X-0.200000X180.000000*%
%ADD12Outline6P,0.200000X-0.400000X-0.400000X-0.400000X-0.400000X0.400000X0.200000X0.400000X0.400000X0.200000X0.400000X-0.200000X0.000000*%
%ADD13RoundRect,0.225000X-0.225000X-0.250000X0.225000X-0.250000X0.225000X0.250000X-0.225000X0.250000X0*%
%ADD14RoundRect,0.225000X-0.250000X0.225000X-0.250000X-0.225000X0.250000X-0.225000X0.250000X0.225000X0*%
%ADD15RoundRect,0.062500X-0.062500X0.337500X-0.062500X-0.337500X0.062500X-0.337500X0.062500X0.337500X0*%
%ADD16RoundRect,0.062500X-0.337500X0.062500X-0.337500X-0.062500X0.337500X-0.062500X0.337500X0.062500X0*%
%ADD17R,5.300000X5.300000*%
%ADD18RoundRect,0.200000X0.200000X0.275000X-0.200000X0.275000X-0.200000X-0.275000X0.200000X-0.275000X0*%
%ADD19R,1.700000X1.700000*%
%ADD20O,1.700000X1.700000*%
G04 APERTURE END LIST*
D10*
%TO.C,J8*%
X119000000Y-104500000D03*
D11*
X118500000Y-104500000D03*
%TD*%
D10*
%TO.C,J10*%
X119000000Y-102500000D03*
D11*
X118500000Y-102500000D03*
%TD*%
D10*
%TO.C,J15*%
X119000000Y-97500000D03*
D11*
X118500000Y-97500000D03*
%TD*%
D10*
%TO.C,J12*%
X119000000Y-105500000D03*
D11*
X118500000Y-105500000D03*
%TD*%
D10*
%TO.C,J23*%
X104000000Y-101500000D03*
D12*
X104500000Y-101500000D03*
%TD*%
D10*
%TO.C,J14*%
X119000000Y-99500000D03*
D11*
X118500000Y-99500000D03*
%TD*%
D13*
%TO.C,C1*%
X107725000Y-96500000D03*
X109275000Y-96500000D03*
%TD*%
D10*
%TO.C,J11*%
X119000000Y-106500000D03*
D11*
X118500000Y-106500000D03*
%TD*%
D10*
%TO.C,J17*%
X119000000Y-100500000D03*
D11*
X118500000Y-100500000D03*
%TD*%
D10*
%TO.C,J24*%
X104000000Y-99500000D03*
D12*
X104500000Y-99500000D03*
%TD*%
D10*
%TO.C,J18*%
X104000000Y-105500000D03*
D12*
X104500000Y-105500000D03*
%TD*%
D14*
%TO.C,C2*%
X111000000Y-96225000D03*
X111000000Y-97775000D03*
%TD*%
%TO.C,C3*%
X112500000Y-96225000D03*
X112500000Y-97775000D03*
%TD*%
D10*
%TO.C,J20*%
X104000000Y-107500000D03*
D12*
X104500000Y-107500000D03*
%TD*%
D10*
%TO.C,J22*%
X104000000Y-104500000D03*
D12*
X104500000Y-104500000D03*
%TD*%
D10*
%TO.C,J19*%
X104000000Y-106500000D03*
D12*
X104500000Y-106500000D03*
%TD*%
D10*
%TO.C,J13*%
X119000000Y-101500000D03*
D11*
X118500000Y-101500000D03*
%TD*%
D15*
%TO.C,U1*%
X114250000Y-99550000D03*
X113750000Y-99550000D03*
X113250000Y-99550000D03*
X112750000Y-99550000D03*
X112250000Y-99550000D03*
X111750000Y-99550000D03*
X111250000Y-99550000D03*
X110750000Y-99550000D03*
X110250000Y-99550000D03*
X109750000Y-99550000D03*
X109250000Y-99550000D03*
X108750000Y-99550000D03*
D16*
X108050000Y-100250000D03*
X108050000Y-100750000D03*
X108050000Y-101250000D03*
X108050000Y-101750000D03*
X108050000Y-102250000D03*
X108050000Y-102750000D03*
X108050000Y-103250000D03*
X108050000Y-103750000D03*
X108050000Y-104250000D03*
X108050000Y-104750000D03*
X108050000Y-105250000D03*
X108050000Y-105750000D03*
D15*
X108750000Y-106450000D03*
X109250000Y-106450000D03*
X109750000Y-106450000D03*
X110250000Y-106450000D03*
X110750000Y-106450000D03*
X111250000Y-106450000D03*
X111750000Y-106450000D03*
X112250000Y-106450000D03*
X112750000Y-106450000D03*
X113250000Y-106450000D03*
X113750000Y-106450000D03*
X114250000Y-106450000D03*
D16*
X114950000Y-105750000D03*
X114950000Y-105250000D03*
X114950000Y-104750000D03*
X114950000Y-104250000D03*
X114950000Y-103750000D03*
X114950000Y-103250000D03*
X114950000Y-102750000D03*
X114950000Y-102250000D03*
X114950000Y-101750000D03*
X114950000Y-101250000D03*
X114950000Y-100750000D03*
X114950000Y-100250000D03*
D17*
X111500000Y-103000000D03*
%TD*%
D10*
%TO.C,J5*%
X104000000Y-103500000D03*
D12*
X104500000Y-103500000D03*
%TD*%
D10*
%TO.C,J6*%
X104000000Y-102500000D03*
D12*
X104500000Y-102500000D03*
%TD*%
D10*
%TO.C,J16*%
X119000000Y-98500000D03*
D11*
X118500000Y-98500000D03*
%TD*%
D18*
%TO.C,R1*%
X109325000Y-98000000D03*
X107675000Y-98000000D03*
%TD*%
D19*
%TO.C,J2*%
X107460000Y-108185000D03*
D20*
X110000000Y-108185000D03*
X112540000Y-108185000D03*
X115080000Y-108185000D03*
%TD*%
D10*
%TO.C,J9*%
X119000000Y-103500000D03*
D11*
X118500000Y-103500000D03*
%TD*%
D10*
%TO.C,J3*%
X104000000Y-97500000D03*
D12*
X104500000Y-97500000D03*
%TD*%
D10*
%TO.C,J21*%
X104000000Y-100500000D03*
D12*
X104500000Y-100500000D03*
%TD*%
D10*
%TO.C,J4*%
X104000000Y-98500000D03*
D12*
X104500000Y-98500000D03*
%TD*%
D10*
%TO.C,J7*%
X119000000Y-107500000D03*
D11*
X118500000Y-107500000D03*
%TD*%
D19*
%TO.C,J1*%
X107460000Y-110725000D03*
D20*
X107460000Y-113265000D03*
X110000000Y-110725000D03*
X110000000Y-113265000D03*
X112540000Y-110725000D03*
X112540000Y-113265000D03*
X115080000Y-110725000D03*
X115080000Y-113265000D03*
%TD*%
M02*
