%TF.GenerationSoftware,KiCad,Pcbnew,(5.99.0-10506-gb986797469)*%
%TF.CreationDate,2021-05-05T16:41:54+02:00*%
%TF.ProjectId,ESP31,45535033-312e-46b6-9963-61645f706362,rev?*%
%TF.SameCoordinates,Original*%
%TF.FileFunction,Copper,L4,Bot*%
%TF.FilePolarity,Positive*%
%FSLAX46Y46*%
G04 Gerber Fmt 4.6, Leading zero omitted, Abs format (unit mm)*
G04 Created by KiCad (PCBNEW (5.99.0-10506-gb986797469)) date 2021-05-05 16:41:54*
%MOMM*%
%LPD*%
G01*
G04 APERTURE LIST*
G04 Aperture macros list*
%AMOutline5P*
0 Free polygon, 5 corners , with rotation*
0 The origin of the aperture is its center*
0 number of corners: always 8*
0 $1 to $10 corner X, Y*
0 $11 Rotation angle, in degrees counterclockwise*
0 create outline with 8 corners*
4,1,5,$1,$2,$3,$4,$5,$6,$7,$8,$9,$10,$1,$2,$11*%
%AMOutline6P*
0 Free polygon, 6 corners , with rotation*
0 The origin of the aperture is its center*
0 number of corners: always 6*
0 $1 to $12 corner X, Y*
0 $13 Rotation angle, in degrees counterclockwise*
0 create outline with 6 corners*
4,1,6,$1,$2,$3,$4,$5,$6,$7,$8,$9,$10,$11,$12,$1,$2,$13*%
%AMOutline7P*
0 Free polygon, 7 corners , with rotation*
0 The origin of the aperture is its center*
0 number of corners: always 7*
0 $1 to $14 corner X, Y*
0 $15 Rotation angle, in degrees counterclockwise*
0 create outline with 7 corners*
4,1,7,$1,$2,$3,$4,$5,$6,$7,$8,$9,$10,$11,$12,$13,$14,$1,$2,$15*%
%AMOutline8P*
0 Free polygon, 8 corners , with rotation*
0 The origin of the aperture is its center*
0 number of corners: always 8*
0 $1 to $16 corner X, Y*
0 $17 Rotation angle, in degrees counterclockwise*
0 create outline with 8 corners*
4,1,8,$1,$2,$3,$4,$5,$6,$7,$8,$9,$10,$11,$12,$13,$14,$15,$16,$1,$2,$17*%
G04 Aperture macros list end*
%TA.AperFunction,ComponentPad*%
%ADD10C,0.800000*%
%TD*%
%TA.AperFunction,ComponentPad*%
%ADD11Outline6P,0.200000X-0.400000X-0.400000X-0.400000X-0.400000X0.400000X0.200000X0.400000X0.400000X0.200000X0.400000X-0.200000X180.000000*%
%TD*%
%TA.AperFunction,ComponentPad*%
%ADD12Outline6P,0.200000X-0.400000X-0.400000X-0.400000X-0.400000X0.400000X0.200000X0.400000X0.400000X0.200000X0.400000X-0.200000X0.000000*%
%TD*%
%TA.AperFunction,ComponentPad*%
%ADD13R,0.900000X0.500000*%
%TD*%
%TA.AperFunction,ComponentPad*%
%ADD14R,1.700000X1.700000*%
%TD*%
%TA.AperFunction,ComponentPad*%
%ADD15O,1.700000X1.700000*%
%TD*%
%TA.AperFunction,ViaPad*%
%ADD16C,0.400000*%
%TD*%
%TA.AperFunction,Conductor*%
%ADD17C,0.200000*%
%TD*%
%TA.AperFunction,Conductor*%
%ADD18C,0.250000*%
%TD*%
G04 APERTURE END LIST*
D10*
%TO.P,J8,1,Pin_1*%
%TO.N,/SD0*%
X119000000Y-104500000D03*
D11*
X118500000Y-104500000D03*
%TD*%
D10*
%TO.P,J10,1,Pin_1*%
%TO.N,/IO5*%
X119000000Y-102500000D03*
D11*
X118500000Y-102500000D03*
%TD*%
D10*
%TO.P,J15,1,Pin_1*%
%TO.N,/IO21*%
X119000000Y-97500000D03*
D11*
X118500000Y-97500000D03*
%TD*%
D10*
%TO.P,J12,1,Pin_1*%
%TO.N,/IO10*%
X119000000Y-105500000D03*
D11*
X118500000Y-105500000D03*
%TD*%
D10*
%TO.P,J23,1,Pin_1*%
%TO.N,/IO34*%
X104000000Y-101500000D03*
D12*
X104500000Y-101500000D03*
%TD*%
D10*
%TO.P,J14,1,Pin_1*%
%TO.N,/IO19*%
X119000000Y-99500000D03*
D11*
X118500000Y-99500000D03*
%TD*%
D10*
%TO.P,J11,1,Pin_1*%
%TO.N,/IO9*%
X119000000Y-106500000D03*
D11*
X118500000Y-106500000D03*
%TD*%
D10*
%TO.P,J17,1,Pin_1*%
%TO.N,/IO23*%
X119000000Y-100500000D03*
D11*
X118500000Y-100500000D03*
%TD*%
D10*
%TO.P,J24,1,Pin_1*%
%TO.N,/IO35*%
X104000000Y-99500000D03*
D12*
X104500000Y-99500000D03*
%TD*%
D10*
%TO.P,J18,1,Pin_1*%
%TO.N,/IO25*%
X104000000Y-105500000D03*
D12*
X104500000Y-105500000D03*
%TD*%
D10*
%TO.P,J20,1,Pin_1*%
%TO.N,/IO27*%
X104000000Y-107500000D03*
D12*
X104500000Y-107500000D03*
%TD*%
D10*
%TO.P,J22,1,Pin_1*%
%TO.N,/IO33*%
X104000000Y-104500000D03*
D12*
X104500000Y-104500000D03*
%TD*%
D10*
%TO.P,J19,1,Pin_1*%
%TO.N,/IO26*%
X104000000Y-106500000D03*
D12*
X104500000Y-106500000D03*
%TD*%
D10*
%TO.P,J13,1,Pin_1*%
%TO.N,/IO18*%
X119000000Y-101500000D03*
D11*
X118500000Y-101500000D03*
%TD*%
D13*
%TO.P,AE1,2,Shield*%
%TO.N,GND*%
X118150000Y-95625000D03*
%TD*%
D10*
%TO.P,J5,1,Pin_1*%
%TO.N,/CAPN*%
X104000000Y-103500000D03*
D12*
X104500000Y-103500000D03*
%TD*%
D10*
%TO.P,J6,1,Pin_1*%
%TO.N,/SENS_VN*%
X104000000Y-102500000D03*
D12*
X104500000Y-102500000D03*
%TD*%
D10*
%TO.P,J16,1,Pin_1*%
%TO.N,/IO22*%
X119000000Y-98500000D03*
D11*
X118500000Y-98500000D03*
%TD*%
D14*
%TO.P,J2,1,Pin_1*%
%TO.N,/MTDO*%
X107460000Y-108185000D03*
D15*
%TO.P,J2,2,Pin_2*%
%TO.N,/MTCK*%
X110000000Y-108185000D03*
%TO.P,J2,3,Pin_3*%
%TO.N,/MTDI*%
X112540000Y-108185000D03*
%TO.P,J2,4,Pin_4*%
%TO.N,/MTMS*%
X115080000Y-108185000D03*
%TD*%
D10*
%TO.P,J9,1,Pin_1*%
%TO.N,/SD1*%
X119000000Y-103500000D03*
D11*
X118500000Y-103500000D03*
%TD*%
D10*
%TO.P,J3,1,Pin_1*%
%TO.N,/SENS_VP*%
X104000000Y-97500000D03*
D12*
X104500000Y-97500000D03*
%TD*%
D10*
%TO.P,J21,1,Pin_1*%
%TO.N,/IO32*%
X104000000Y-100500000D03*
D12*
X104500000Y-100500000D03*
%TD*%
D10*
%TO.P,J4,1,Pin_1*%
%TO.N,/CAPP*%
X104000000Y-98500000D03*
D12*
X104500000Y-98500000D03*
%TD*%
D10*
%TO.P,J7,1,Pin_1*%
%TO.N,/IO17*%
X119000000Y-107500000D03*
D11*
X118500000Y-107500000D03*
%TD*%
D14*
%TO.P,J1,1,Pin_1*%
%TO.N,GND*%
X107460000Y-110725000D03*
D15*
%TO.P,J1,2,Pin_2*%
%TO.N,/IO1*%
X107460000Y-113265000D03*
%TO.P,J1,3,Pin_3*%
%TO.N,/IO2*%
X110000000Y-110725000D03*
%TO.P,J1,4,Pin_4*%
%TO.N,/IO4*%
X110000000Y-113265000D03*
%TO.P,J1,5,Pin_5*%
%TO.N,/IO0*%
X112540000Y-110725000D03*
%TO.P,J1,6,Pin_6*%
%TO.N,/EN*%
X112540000Y-113265000D03*
%TO.P,J1,7,Pin_7*%
%TO.N,/IO3*%
X115080000Y-110725000D03*
%TO.P,J1,8,Pin_8*%
%TO.N,+3V3*%
X115080000Y-113265000D03*
%TD*%
D16*
%TO.N,GND*%
X111250000Y-112750000D03*
X111250000Y-109750000D03*
X116500000Y-111000000D03*
X117072200Y-95427800D03*
X114822200Y-95427800D03*
X112496600Y-95427800D03*
X111072200Y-95427800D03*
X109270800Y-95427800D03*
X107822200Y-95427800D03*
X106822200Y-95427800D03*
X104500000Y-96000000D03*
X105572200Y-95427800D03*
X104500000Y-108500000D03*
X104500000Y-111500000D03*
X104500000Y-114500000D03*
X116750000Y-114500000D03*
X118500000Y-114500000D03*
X118500000Y-112750000D03*
%TO.N,/SD0*%
X117700500Y-110741379D03*
%TO.N,/IO5*%
X113744776Y-107649459D03*
%TO.N,/IO10*%
X117675498Y-107500000D03*
X117178605Y-110379611D03*
%TO.N,/CAPP*%
X112018504Y-98585338D03*
%TO.N,/SD0*%
X117273183Y-108471823D03*
%TO.N,/SENS_VP*%
X112668472Y-98685228D03*
%TO.N,/SD0*%
X111691359Y-107249500D03*
%TO.N,/IO17*%
X118100500Y-109600000D03*
%TO.N,/IO35*%
X108637107Y-98751298D03*
%TO.N,/IO5*%
X116200000Y-108900000D03*
%TO.N,/IO34*%
X109721076Y-98846187D03*
%TO.N,/IO32*%
X108153200Y-99314000D03*
%TO.N,/CAPN*%
X111388365Y-98615321D03*
%TO.N,/IO5*%
X115877458Y-107200000D03*
%TO.N,GND*%
X116027200Y-97586800D03*
X112600000Y-100900000D03*
X113868200Y-97231200D03*
X114579400Y-98094800D03*
X116484400Y-96926400D03*
X116586000Y-96164400D03*
X108508800Y-97256600D03*
X111500000Y-103000000D03*
X113600000Y-100900000D03*
X110500000Y-100900000D03*
X109600000Y-101800000D03*
X106500000Y-99000000D03*
X115519200Y-96164400D03*
X114000000Y-96000000D03*
X115214400Y-96799400D03*
X110000000Y-103100000D03*
X113100000Y-104600000D03*
X118500000Y-96500000D03*
X112800000Y-102400000D03*
X114503200Y-96926400D03*
X113474133Y-97657041D03*
X110200000Y-104600000D03*
X115316000Y-97917000D03*
X114300000Y-98729800D03*
%TO.N,/EN*%
X110133953Y-98374420D03*
X107725000Y-97227600D03*
%TO.N,+3V3*%
X110124000Y-97775000D03*
X113010360Y-97022906D03*
X106922571Y-103200000D03*
X115600000Y-105749500D03*
X115639885Y-102618660D03*
X115639885Y-101118660D03*
X115000000Y-99500000D03*
%TO.N,/IO1*%
X117000000Y-106600000D03*
X115653618Y-103660511D03*
%TO.N,/IO2*%
X107300000Y-104749500D03*
%TO.N,/IO0*%
X106922571Y-105215278D03*
%TO.N,/IO3*%
X115902665Y-104205835D03*
%TO.N,/MTDO*%
X106922571Y-104210679D03*
%TO.N,/MTCK*%
X107305606Y-103749500D03*
%TO.N,/MTDI*%
X107359644Y-102749500D03*
%TO.N,/MTMS*%
X107000000Y-102260453D03*
%TO.N,/SENS_VN*%
X110788082Y-98625893D03*
%TD*%
D17*
%TO.N,/CAPN*%
X107887449Y-100612551D02*
X109540701Y-100612551D01*
%TO.N,/SD0*%
X117775489Y-106624511D02*
X117775489Y-104835391D01*
X111300000Y-107640859D02*
X111691359Y-107249500D01*
X111300000Y-108800000D02*
X111300000Y-107640859D01*
%TO.N,/IO34*%
X106686489Y-99813511D02*
X108753752Y-99813511D01*
X104500000Y-101500000D02*
X105000000Y-101500000D01*
%TO.N,/IO5*%
X113744776Y-108944776D02*
X114300000Y-109500000D01*
%TO.N,/CAPN*%
X104500000Y-103500000D02*
X105000000Y-103500000D01*
%TO.N,/SD0*%
X117700500Y-110741379D02*
X116441879Y-112000000D01*
%TO.N,/IO32*%
X107436019Y-98126631D02*
X108000000Y-98690612D01*
%TO.N,/IO5*%
X115600000Y-109500000D02*
X116200000Y-108900000D01*
%TO.N,/IO34*%
X108753752Y-99813511D02*
X109721076Y-98846187D01*
%TO.N,/SD0*%
X117273183Y-108471823D02*
X117175987Y-108374627D01*
X117175987Y-108374627D02*
X117175987Y-107224013D01*
%TO.N,/IO35*%
X107601505Y-97727111D02*
X106272889Y-97727111D01*
%TO.N,/SD0*%
X113400000Y-109500000D02*
X112000000Y-109500000D01*
%TO.N,/IO32*%
X105624031Y-98940975D02*
X106438375Y-98126631D01*
X105000000Y-100500000D02*
X105624031Y-99875969D01*
%TO.N,/SD0*%
X117175987Y-107224013D02*
X117775489Y-106624511D01*
%TO.N,/IO32*%
X108000000Y-99160800D02*
X108153200Y-99314000D01*
%TO.N,/SD0*%
X113800000Y-109900000D02*
X113400000Y-109500000D01*
X117775489Y-104835391D02*
X118110880Y-104500000D01*
X112000000Y-109500000D02*
X111300000Y-108800000D01*
X114653723Y-112000000D02*
X113800000Y-111146277D01*
%TO.N,/IO32*%
X106438375Y-98126631D02*
X107436019Y-98126631D01*
%TO.N,/CAPN*%
X111388365Y-98764887D02*
X111388365Y-98615321D01*
%TO.N,/IO32*%
X105624031Y-99875969D02*
X105624031Y-99375969D01*
%TO.N,/IO5*%
X117875000Y-102500000D02*
X118500000Y-102500000D01*
%TO.N,/IO35*%
X105000000Y-99500000D02*
X104500000Y-99500000D01*
%TO.N,/IO5*%
X114300000Y-109500000D02*
X115600000Y-109500000D01*
%TO.N,/CAPP*%
X105164609Y-98224511D02*
X104950089Y-98224511D01*
%TO.N,/IO32*%
X108000000Y-98690612D02*
X108000000Y-99160800D01*
%TO.N,/IO5*%
X115413852Y-103161000D02*
X117214000Y-103161000D01*
%TO.N,/IO35*%
X105224511Y-98775489D02*
X105224511Y-99275489D01*
%TO.N,/IO10*%
X117675498Y-108064618D02*
X117800000Y-108189120D01*
%TO.N,/IO17*%
X118100500Y-109600000D02*
X118500000Y-109200500D01*
%TO.N,/IO5*%
X113744776Y-107649459D02*
X113744776Y-108944776D01*
%TO.N,/CAPP*%
X104674600Y-98500000D02*
X104500000Y-98500000D01*
X105232200Y-98156920D02*
X105164609Y-98224511D01*
%TO.N,/SENS_VP*%
X110399243Y-96189800D02*
X105810200Y-96189800D01*
%TO.N,/CAPP*%
X112018504Y-98585338D02*
X112018504Y-98506183D01*
%TO.N,/IO35*%
X106272889Y-97727111D02*
X105224511Y-98775489D01*
%TO.N,/CAPP*%
X112018504Y-98506183D02*
X112014000Y-98501679D01*
%TO.N,/IO32*%
X104500000Y-100500000D02*
X105000000Y-100500000D01*
%TO.N,/SD0*%
X116441879Y-112000000D02*
X114653723Y-112000000D01*
%TO.N,/CAPP*%
X110223401Y-96614320D02*
X105986042Y-96614320D01*
%TO.N,/SENS_VP*%
X105810200Y-96189800D02*
X104500000Y-97500000D01*
%TO.N,/IO10*%
X117675498Y-107500000D02*
X117675498Y-108064618D01*
%TO.N,/IO5*%
X115000000Y-103574852D02*
X115413852Y-103161000D01*
X117214000Y-103161000D02*
X117875000Y-102500000D01*
%TO.N,/SD0*%
X118110880Y-104500000D02*
X118500000Y-104500000D01*
%TO.N,/IO5*%
X115877458Y-107200000D02*
X115000000Y-106322542D01*
%TO.N,/IO32*%
X105624031Y-99875969D02*
X105624031Y-98940975D01*
%TO.N,/IO10*%
X117800000Y-109161223D02*
X117178605Y-109782618D01*
%TO.N,/CAPP*%
X112014000Y-98501679D02*
X112014000Y-98404919D01*
%TO.N,/IO35*%
X108625692Y-98751298D02*
X107601505Y-97727111D01*
%TO.N,/CAPP*%
X105986042Y-96614320D02*
X105232200Y-97368162D01*
X112014000Y-98404919D02*
X110223401Y-96614320D01*
%TO.N,/SENS_VP*%
X112668472Y-98685228D02*
X112668472Y-98459029D01*
%TO.N,/IO10*%
X117800000Y-108189120D02*
X117800000Y-109161223D01*
%TO.N,/SENS_VP*%
X112668472Y-98459029D02*
X110399243Y-96189800D01*
%TO.N,/IO10*%
X117178605Y-109782618D02*
X117178605Y-110379611D01*
%TO.N,/CAPN*%
X109540701Y-100612551D02*
X111388365Y-98764887D01*
X105000000Y-103500000D02*
X107887449Y-100612551D01*
%TO.N,/SD0*%
X113800000Y-111146277D02*
X113800000Y-109900000D01*
%TO.N,/IO35*%
X105224511Y-99275489D02*
X105000000Y-99500000D01*
X108637107Y-98751298D02*
X108625692Y-98751298D01*
%TO.N,/CAPP*%
X105232200Y-97368162D02*
X105232200Y-98156920D01*
X104950089Y-98224511D02*
X104674600Y-98500000D01*
%TO.N,/IO5*%
X115000000Y-106322542D02*
X115000000Y-103574852D01*
%TO.N,/IO17*%
X118500000Y-109200500D02*
X118500000Y-107500000D01*
%TO.N,/IO34*%
X105000000Y-101500000D02*
X106686489Y-99813511D01*
%TO.N,/EN*%
X110133953Y-98374420D02*
X109984143Y-98374420D01*
X108253511Y-97756111D02*
X107725000Y-97227600D01*
X109365834Y-97756111D02*
X108253511Y-97756111D01*
X109984143Y-98374420D02*
X109365834Y-97756111D01*
D18*
%TO.N,+3V3*%
X112949622Y-97083644D02*
X112949622Y-98139817D01*
D17*
X115639885Y-102618660D02*
X115639885Y-101118660D01*
X115639885Y-100139885D02*
X115000000Y-99500000D01*
D18*
X113500000Y-99000000D02*
X114000000Y-99500000D01*
X113500000Y-98690195D02*
X113500000Y-99000000D01*
D17*
X115639885Y-101118660D02*
X115639885Y-100139885D01*
D18*
X112949622Y-98139817D02*
X113500000Y-98690195D01*
X114000000Y-99500000D02*
X115000000Y-99500000D01*
X113010360Y-97022906D02*
X112949622Y-97083644D01*
D17*
%TO.N,/IO1*%
X116900000Y-104463893D02*
X116096618Y-103660511D01*
X116096618Y-103660511D02*
X115653618Y-103660511D01*
X117000000Y-106600000D02*
X116900000Y-106500000D01*
X116900000Y-106500000D02*
X116900000Y-104463893D01*
%TO.N,/IO2*%
X106310489Y-106689511D02*
X106310489Y-109274609D01*
X107300000Y-104749500D02*
X107422082Y-104871582D01*
X107422082Y-104871582D02*
X107422082Y-105577918D01*
X108675000Y-109400000D02*
X110000000Y-110725000D01*
X106435880Y-109400000D02*
X108675000Y-109400000D01*
X107422082Y-105577918D02*
X106310489Y-106689511D01*
X106310489Y-109274609D02*
X106435880Y-109400000D01*
%TO.N,/IO0*%
X105800000Y-111304120D02*
X106370391Y-111874511D01*
X106370391Y-111874511D02*
X111390489Y-111874511D01*
X105800000Y-106337849D02*
X105800000Y-111304120D01*
X111390489Y-111874511D02*
X112540000Y-110725000D01*
X106922571Y-105215278D02*
X105800000Y-106337849D01*
%TO.N,/IO3*%
X116376969Y-108337692D02*
X116376969Y-104680139D01*
X116699511Y-108660234D02*
X116376969Y-108337692D01*
X115114277Y-110725000D02*
X116699511Y-109139766D01*
X116376969Y-104680139D02*
X115902665Y-104205835D01*
X115080000Y-110725000D02*
X115114277Y-110725000D01*
X116699511Y-109139766D02*
X116699511Y-108660234D01*
%TO.N,/MTDO*%
X107539766Y-104249989D02*
X108500000Y-105210223D01*
X108500000Y-105210223D02*
X108500000Y-107022212D01*
X108500000Y-107022212D02*
X107460000Y-108062212D01*
X107460000Y-108062212D02*
X107460000Y-108185000D01*
X107060234Y-104249989D02*
X107539766Y-104249989D01*
X106922571Y-104210679D02*
X106961881Y-104249989D01*
%TO.N,/MTCK*%
X110000000Y-107571870D02*
X110000000Y-108185000D01*
X107794638Y-103749500D02*
X108900480Y-104855342D01*
X107305606Y-103749500D02*
X107794638Y-103749500D01*
X108900480Y-106472350D02*
X110000000Y-107571870D01*
X108900480Y-104855342D02*
X108900480Y-106472350D01*
%TO.N,/MTDI*%
X112157081Y-106600000D02*
X112540000Y-106982919D01*
X109300000Y-106200000D02*
X109700000Y-106600000D01*
X109300000Y-104689856D02*
X109300000Y-106200000D01*
X109700000Y-106600000D02*
X112157081Y-106600000D01*
X112540000Y-106982919D02*
X112540000Y-108185000D01*
X107359644Y-102749500D02*
X109300000Y-104689856D01*
%TO.N,/MTMS*%
X112995000Y-106100000D02*
X110000000Y-106100000D01*
X110000000Y-106100000D02*
X109699520Y-105799520D01*
X109699520Y-104350099D02*
X107599410Y-102249989D01*
X109699520Y-105799520D02*
X109699520Y-104350099D01*
X107599410Y-102249989D02*
X107010464Y-102249989D01*
X107010464Y-102249989D02*
X107000000Y-102260453D01*
X115080000Y-108185000D02*
X112995000Y-106100000D01*
%TO.N,/SENS_VN*%
X109200944Y-100213031D02*
X110788082Y-98625893D01*
X105000000Y-102500000D02*
X107286969Y-100213031D01*
X107286969Y-100213031D02*
X109200944Y-100213031D01*
X104500000Y-102500000D02*
X105000000Y-102500000D01*
%TD*%
%TA.AperFunction,Conductor*%
%TO.N,GND*%
G36*
X106607583Y-102414131D02*
G01*
X106650848Y-102457397D01*
X106671944Y-102498800D01*
X106761653Y-102588509D01*
X106768590Y-102592044D01*
X106768592Y-102592045D01*
X106836743Y-102626769D01*
X106880008Y-102670034D01*
X106889579Y-102730466D01*
X106861802Y-102784982D01*
X106812215Y-102810248D01*
X106812369Y-102810721D01*
X106809382Y-102811691D01*
X106807285Y-102812760D01*
X106804960Y-102813128D01*
X106804959Y-102813128D01*
X106797265Y-102814347D01*
X106790325Y-102817883D01*
X106691163Y-102868408D01*
X106691161Y-102868409D01*
X106684224Y-102871944D01*
X106594515Y-102961653D01*
X106536918Y-103074694D01*
X106517071Y-103200000D01*
X106536918Y-103325306D01*
X106540454Y-103332246D01*
X106586331Y-103422284D01*
X106594515Y-103438347D01*
X106684224Y-103528056D01*
X106691161Y-103531591D01*
X106691163Y-103531592D01*
X106764554Y-103568986D01*
X106797265Y-103585653D01*
X106821407Y-103589477D01*
X106825126Y-103590066D01*
X106879642Y-103617845D01*
X106907418Y-103672362D01*
X106907418Y-103703335D01*
X106901734Y-103739220D01*
X106873956Y-103793736D01*
X106819443Y-103821513D01*
X106804960Y-103823807D01*
X106804959Y-103823807D01*
X106797265Y-103825026D01*
X106790324Y-103828563D01*
X106790323Y-103828563D01*
X106691163Y-103879087D01*
X106691161Y-103879088D01*
X106684224Y-103882623D01*
X106594515Y-103972332D01*
X106590980Y-103979269D01*
X106590979Y-103979271D01*
X106563373Y-104033451D01*
X106536918Y-104085373D01*
X106535699Y-104093067D01*
X106535699Y-104093068D01*
X106523487Y-104170170D01*
X106517071Y-104210679D01*
X106518290Y-104218375D01*
X106533768Y-104316095D01*
X106536918Y-104335985D01*
X106540454Y-104342925D01*
X106590736Y-104441609D01*
X106594515Y-104449026D01*
X106684224Y-104538735D01*
X106691161Y-104542270D01*
X106691163Y-104542271D01*
X106790325Y-104592796D01*
X106797265Y-104596332D01*
X106804957Y-104597550D01*
X106804959Y-104597551D01*
X106815378Y-104599201D01*
X106818006Y-104599617D01*
X106872522Y-104627395D01*
X106900299Y-104681911D01*
X106900299Y-104712884D01*
X106895237Y-104744847D01*
X106867461Y-104799364D01*
X106812942Y-104827142D01*
X106804960Y-104828406D01*
X106804959Y-104828406D01*
X106797265Y-104829625D01*
X106790325Y-104833161D01*
X106691163Y-104883686D01*
X106691161Y-104883687D01*
X106684224Y-104887222D01*
X106594515Y-104976931D01*
X106590980Y-104983868D01*
X106590979Y-104983870D01*
X106563097Y-105038592D01*
X106536918Y-105089972D01*
X106535699Y-105097668D01*
X106525767Y-105160371D01*
X106497990Y-105214887D01*
X105624356Y-106088521D01*
X105621982Y-106090570D01*
X105617853Y-106092588D01*
X105611636Y-106099290D01*
X105587900Y-106124878D01*
X105585323Y-106127554D01*
X105568531Y-106144346D01*
X105565952Y-106148105D01*
X105564223Y-106150186D01*
X105560660Y-106154243D01*
X105547990Y-106167901D01*
X105547988Y-106167904D01*
X105541773Y-106174604D01*
X105537512Y-106185285D01*
X105527197Y-106204602D01*
X105520696Y-106214078D01*
X105514549Y-106239980D01*
X105510183Y-106253783D01*
X105500318Y-106278510D01*
X105499500Y-106286853D01*
X105499500Y-106291803D01*
X105497029Y-106312922D01*
X105496975Y-106314032D01*
X105494864Y-106322926D01*
X105496097Y-106331983D01*
X105498596Y-106350349D01*
X105499500Y-106363699D01*
X105499500Y-111252012D01*
X105499270Y-111255144D01*
X105497777Y-111259492D01*
X105498120Y-111268628D01*
X105499430Y-111303521D01*
X105499500Y-111307235D01*
X105499500Y-111330966D01*
X105500335Y-111335450D01*
X105500582Y-111338124D01*
X105500931Y-111343509D01*
X105501631Y-111362149D01*
X105501974Y-111371282D01*
X105505580Y-111379677D01*
X105505581Y-111379679D01*
X105506514Y-111381850D01*
X105512877Y-111402794D01*
X105514983Y-111414099D01*
X105519780Y-111421881D01*
X105519781Y-111421884D01*
X105528948Y-111436756D01*
X105535630Y-111449619D01*
X105546134Y-111474068D01*
X105551455Y-111480546D01*
X105554957Y-111484048D01*
X105568140Y-111500725D01*
X105568887Y-111501549D01*
X105573684Y-111509331D01*
X105580959Y-111514863D01*
X105580960Y-111514864D01*
X105595705Y-111526076D01*
X105605785Y-111534876D01*
X106121059Y-112050150D01*
X106123111Y-112052528D01*
X106125130Y-112056658D01*
X106131830Y-112062873D01*
X106157433Y-112086623D01*
X106160109Y-112089200D01*
X106176889Y-112105980D01*
X106180646Y-112108558D01*
X106182731Y-112110290D01*
X106186785Y-112113851D01*
X106200443Y-112126521D01*
X106200446Y-112126523D01*
X106207146Y-112132738D01*
X106215637Y-112136126D01*
X106215638Y-112136126D01*
X106217830Y-112137001D01*
X106237141Y-112147313D01*
X106239080Y-112148643D01*
X106246621Y-112153816D01*
X106255515Y-112155927D01*
X106255516Y-112155927D01*
X106272511Y-112159960D01*
X106286340Y-112164334D01*
X106304562Y-112171604D01*
X106304564Y-112171604D01*
X106311052Y-112174193D01*
X106319395Y-112175011D01*
X106324345Y-112175011D01*
X106345464Y-112177482D01*
X106346574Y-112177536D01*
X106355468Y-112179647D01*
X106376872Y-112176734D01*
X106382891Y-112175915D01*
X106396241Y-112175011D01*
X106874533Y-112175011D01*
X106932724Y-112193918D01*
X106968688Y-112243418D01*
X106968688Y-112304604D01*
X106932724Y-112354104D01*
X106920399Y-112361745D01*
X106886344Y-112379548D01*
X106886340Y-112379551D01*
X106882047Y-112381795D01*
X106878271Y-112384831D01*
X106878268Y-112384833D01*
X106871903Y-112389951D01*
X106721505Y-112510874D01*
X106709643Y-112525011D01*
X106592202Y-112664971D01*
X106592199Y-112664975D01*
X106589093Y-112668677D01*
X106489853Y-112849194D01*
X106427565Y-113045549D01*
X106404603Y-113250263D01*
X106421840Y-113455538D01*
X106478621Y-113653555D01*
X106572782Y-113836773D01*
X106700737Y-113998212D01*
X106857612Y-114131723D01*
X106861835Y-114134083D01*
X106861839Y-114134086D01*
X106978453Y-114199259D01*
X107037432Y-114232221D01*
X107042030Y-114233715D01*
X107228742Y-114294382D01*
X107228745Y-114294383D01*
X107233347Y-114295878D01*
X107437895Y-114320269D01*
X107442717Y-114319898D01*
X107442720Y-114319898D01*
X107638458Y-114304837D01*
X107638463Y-114304836D01*
X107643286Y-114304465D01*
X107841695Y-114249068D01*
X107872089Y-114233715D01*
X108021244Y-114158371D01*
X108021246Y-114158370D01*
X108025565Y-114156188D01*
X108187893Y-114029363D01*
X108191055Y-114025700D01*
X108191060Y-114025695D01*
X108319332Y-113877089D01*
X108322496Y-113873424D01*
X108345766Y-113832463D01*
X108421858Y-113698517D01*
X108421859Y-113698514D01*
X108424247Y-113694311D01*
X108439355Y-113648897D01*
X108487743Y-113503435D01*
X108487743Y-113503433D01*
X108489270Y-113498844D01*
X108494154Y-113460187D01*
X108514740Y-113297225D01*
X108515088Y-113294471D01*
X108515500Y-113265000D01*
X108495398Y-113059986D01*
X108492493Y-113050362D01*
X108437256Y-112867412D01*
X108435858Y-112862780D01*
X108339148Y-112680895D01*
X108208952Y-112521259D01*
X108050228Y-112389951D01*
X107996862Y-112361096D01*
X107954668Y-112316787D01*
X107946575Y-112256139D01*
X107975677Y-112202318D01*
X108030856Y-112175881D01*
X108043949Y-112175011D01*
X109414533Y-112175011D01*
X109472724Y-112193918D01*
X109508688Y-112243418D01*
X109508688Y-112304604D01*
X109472724Y-112354104D01*
X109460399Y-112361745D01*
X109426344Y-112379548D01*
X109426340Y-112379551D01*
X109422047Y-112381795D01*
X109418271Y-112384831D01*
X109418268Y-112384833D01*
X109411903Y-112389951D01*
X109261505Y-112510874D01*
X109249643Y-112525011D01*
X109132202Y-112664971D01*
X109132199Y-112664975D01*
X109129093Y-112668677D01*
X109029853Y-112849194D01*
X108967565Y-113045549D01*
X108944603Y-113250263D01*
X108961840Y-113455538D01*
X109018621Y-113653555D01*
X109112782Y-113836773D01*
X109240737Y-113998212D01*
X109397612Y-114131723D01*
X109401835Y-114134083D01*
X109401839Y-114134086D01*
X109518453Y-114199259D01*
X109577432Y-114232221D01*
X109582030Y-114233715D01*
X109768742Y-114294382D01*
X109768745Y-114294383D01*
X109773347Y-114295878D01*
X109977895Y-114320269D01*
X109982717Y-114319898D01*
X109982720Y-114319898D01*
X110178458Y-114304837D01*
X110178463Y-114304836D01*
X110183286Y-114304465D01*
X110381695Y-114249068D01*
X110412089Y-114233715D01*
X110561244Y-114158371D01*
X110561246Y-114158370D01*
X110565565Y-114156188D01*
X110727893Y-114029363D01*
X110731055Y-114025700D01*
X110731060Y-114025695D01*
X110859332Y-113877089D01*
X110862496Y-113873424D01*
X110885766Y-113832463D01*
X110961858Y-113698517D01*
X110961859Y-113698514D01*
X110964247Y-113694311D01*
X110979355Y-113648897D01*
X111027743Y-113503435D01*
X111027743Y-113503433D01*
X111029270Y-113498844D01*
X111034154Y-113460187D01*
X111054740Y-113297225D01*
X111055088Y-113294471D01*
X111055500Y-113265000D01*
X111054055Y-113250263D01*
X111484603Y-113250263D01*
X111501840Y-113455538D01*
X111558621Y-113653555D01*
X111652782Y-113836773D01*
X111780737Y-113998212D01*
X111937612Y-114131723D01*
X111941835Y-114134083D01*
X111941839Y-114134086D01*
X112058453Y-114199259D01*
X112117432Y-114232221D01*
X112122030Y-114233715D01*
X112308742Y-114294382D01*
X112308745Y-114294383D01*
X112313347Y-114295878D01*
X112517895Y-114320269D01*
X112522717Y-114319898D01*
X112522720Y-114319898D01*
X112718458Y-114304837D01*
X112718463Y-114304836D01*
X112723286Y-114304465D01*
X112921695Y-114249068D01*
X112952089Y-114233715D01*
X113101244Y-114158371D01*
X113101246Y-114158370D01*
X113105565Y-114156188D01*
X113267893Y-114029363D01*
X113271055Y-114025700D01*
X113271060Y-114025695D01*
X113399332Y-113877089D01*
X113402496Y-113873424D01*
X113425766Y-113832463D01*
X113501858Y-113698517D01*
X113501859Y-113698514D01*
X113504247Y-113694311D01*
X113519355Y-113648897D01*
X113567743Y-113503435D01*
X113567743Y-113503433D01*
X113569270Y-113498844D01*
X113574154Y-113460187D01*
X113594740Y-113297225D01*
X113595088Y-113294471D01*
X113595500Y-113265000D01*
X113575398Y-113059986D01*
X113572493Y-113050362D01*
X113517256Y-112867412D01*
X113515858Y-112862780D01*
X113419148Y-112680895D01*
X113288952Y-112521259D01*
X113130228Y-112389951D01*
X112972944Y-112304907D01*
X112953277Y-112294273D01*
X112953276Y-112294272D01*
X112949023Y-112291973D01*
X112881438Y-112271052D01*
X112756859Y-112232488D01*
X112756855Y-112232487D01*
X112752238Y-112231058D01*
X112747431Y-112230553D01*
X112747427Y-112230552D01*
X112552185Y-112210032D01*
X112552183Y-112210032D01*
X112547369Y-112209526D01*
X112490637Y-112214689D01*
X112347039Y-112227757D01*
X112347036Y-112227758D01*
X112342219Y-112228196D01*
X112337577Y-112229562D01*
X112337573Y-112229563D01*
X112149250Y-112284989D01*
X112149247Y-112284990D01*
X112144603Y-112286357D01*
X112129461Y-112294273D01*
X111966344Y-112379548D01*
X111966340Y-112379551D01*
X111962047Y-112381795D01*
X111958271Y-112384831D01*
X111958268Y-112384833D01*
X111951903Y-112389951D01*
X111801505Y-112510874D01*
X111789643Y-112525011D01*
X111672202Y-112664971D01*
X111672199Y-112664975D01*
X111669093Y-112668677D01*
X111569853Y-112849194D01*
X111507565Y-113045549D01*
X111484603Y-113250263D01*
X111054055Y-113250263D01*
X111035398Y-113059986D01*
X111032493Y-113050362D01*
X110977256Y-112867412D01*
X110975858Y-112862780D01*
X110879148Y-112680895D01*
X110748952Y-112521259D01*
X110590228Y-112389951D01*
X110536862Y-112361096D01*
X110494668Y-112316787D01*
X110486575Y-112256139D01*
X110515677Y-112202318D01*
X110570856Y-112175881D01*
X110583949Y-112175011D01*
X111338381Y-112175011D01*
X111341513Y-112175241D01*
X111345861Y-112176734D01*
X111354997Y-112176391D01*
X111389890Y-112175081D01*
X111393604Y-112175011D01*
X111417335Y-112175011D01*
X111421819Y-112174176D01*
X111424493Y-112173929D01*
X111429878Y-112173580D01*
X111448518Y-112172880D01*
X111448519Y-112172880D01*
X111457651Y-112172537D01*
X111466046Y-112168931D01*
X111466048Y-112168930D01*
X111468219Y-112167997D01*
X111489163Y-112161634D01*
X111490657Y-112161355D01*
X111491481Y-112161202D01*
X111491482Y-112161202D01*
X111500468Y-112159528D01*
X111508250Y-112154731D01*
X111508253Y-112154730D01*
X111523125Y-112145563D01*
X111535988Y-112138881D01*
X111560437Y-112128377D01*
X111566915Y-112123056D01*
X111570418Y-112119553D01*
X111587093Y-112106372D01*
X111587918Y-112105624D01*
X111595700Y-112100827D01*
X111612446Y-112078805D01*
X111621245Y-112068726D01*
X111987714Y-111702257D01*
X112042231Y-111674480D01*
X112106012Y-111685840D01*
X112113201Y-111689857D01*
X112113206Y-111689859D01*
X112117432Y-111692221D01*
X112223543Y-111726699D01*
X112308742Y-111754382D01*
X112308745Y-111754383D01*
X112313347Y-111755878D01*
X112517895Y-111780269D01*
X112522717Y-111779898D01*
X112522720Y-111779898D01*
X112718458Y-111764837D01*
X112718463Y-111764836D01*
X112723286Y-111764465D01*
X112921695Y-111709068D01*
X112926013Y-111706887D01*
X113101244Y-111618371D01*
X113101246Y-111618370D01*
X113105565Y-111616188D01*
X113267893Y-111489363D01*
X113271055Y-111485700D01*
X113271060Y-111485695D01*
X113399332Y-111337090D01*
X113399334Y-111337087D01*
X113402496Y-111333424D01*
X113402841Y-111333722D01*
X113449435Y-111298865D01*
X113510614Y-111298010D01*
X113550612Y-111323546D01*
X113551455Y-111322703D01*
X113554958Y-111326206D01*
X113568139Y-111342881D01*
X113568887Y-111343706D01*
X113573684Y-111351488D01*
X113580959Y-111357020D01*
X113580960Y-111357021D01*
X113595705Y-111368233D01*
X113605785Y-111377033D01*
X114404391Y-112175639D01*
X114406443Y-112178017D01*
X114408462Y-112182147D01*
X114415162Y-112188362D01*
X114440765Y-112212112D01*
X114443441Y-112214689D01*
X114460221Y-112231469D01*
X114463978Y-112234047D01*
X114466063Y-112235779D01*
X114470100Y-112239324D01*
X114483197Y-112251473D01*
X114513000Y-112304907D01*
X114505704Y-112365655D01*
X114477903Y-112401207D01*
X114341505Y-112510874D01*
X114329643Y-112525011D01*
X114212202Y-112664971D01*
X114212199Y-112664975D01*
X114209093Y-112668677D01*
X114109853Y-112849194D01*
X114047565Y-113045549D01*
X114024603Y-113250263D01*
X114041840Y-113455538D01*
X114098621Y-113653555D01*
X114192782Y-113836773D01*
X114320737Y-113998212D01*
X114477612Y-114131723D01*
X114481835Y-114134083D01*
X114481839Y-114134086D01*
X114598453Y-114199259D01*
X114657432Y-114232221D01*
X114662030Y-114233715D01*
X114848742Y-114294382D01*
X114848745Y-114294383D01*
X114853347Y-114295878D01*
X115057895Y-114320269D01*
X115062717Y-114319898D01*
X115062720Y-114319898D01*
X115258458Y-114304837D01*
X115258463Y-114304836D01*
X115263286Y-114304465D01*
X115461695Y-114249068D01*
X115492089Y-114233715D01*
X115641244Y-114158371D01*
X115641246Y-114158370D01*
X115645565Y-114156188D01*
X115807893Y-114029363D01*
X115811055Y-114025700D01*
X115811060Y-114025695D01*
X115939332Y-113877089D01*
X115942496Y-113873424D01*
X115965766Y-113832463D01*
X116041858Y-113698517D01*
X116041859Y-113698514D01*
X116044247Y-113694311D01*
X116059355Y-113648897D01*
X116107743Y-113503435D01*
X116107743Y-113503433D01*
X116109270Y-113498844D01*
X116114154Y-113460187D01*
X116134740Y-113297225D01*
X116135088Y-113294471D01*
X116135500Y-113265000D01*
X116115398Y-113059986D01*
X116112493Y-113050362D01*
X116057256Y-112867412D01*
X116055858Y-112862780D01*
X115959148Y-112680895D01*
X115828952Y-112521259D01*
X115773979Y-112475781D01*
X115741194Y-112424120D01*
X115745036Y-112363055D01*
X115784037Y-112315911D01*
X115837084Y-112300500D01*
X116389771Y-112300500D01*
X116392903Y-112300730D01*
X116397251Y-112302223D01*
X116406387Y-112301880D01*
X116441280Y-112300570D01*
X116444994Y-112300500D01*
X116468725Y-112300500D01*
X116473209Y-112299665D01*
X116475883Y-112299418D01*
X116481268Y-112299069D01*
X116499908Y-112298369D01*
X116499909Y-112298369D01*
X116509041Y-112298026D01*
X116517436Y-112294420D01*
X116517438Y-112294419D01*
X116519609Y-112293486D01*
X116540553Y-112287123D01*
X116542047Y-112286844D01*
X116542871Y-112286691D01*
X116542872Y-112286691D01*
X116551858Y-112285017D01*
X116559640Y-112280220D01*
X116559643Y-112280219D01*
X116574515Y-112271052D01*
X116587378Y-112264370D01*
X116611827Y-112253866D01*
X116618305Y-112248545D01*
X116621808Y-112245042D01*
X116638483Y-112231861D01*
X116639308Y-112231113D01*
X116647090Y-112226316D01*
X116663836Y-112204294D01*
X116672635Y-112194215D01*
X117700891Y-111165959D01*
X117755408Y-111138182D01*
X117818111Y-111128251D01*
X117818112Y-111128251D01*
X117825806Y-111127032D01*
X117832746Y-111123496D01*
X117931908Y-111072971D01*
X117931910Y-111072970D01*
X117938847Y-111069435D01*
X118028556Y-110979726D01*
X118055333Y-110927174D01*
X118082617Y-110873625D01*
X118086153Y-110866685D01*
X118106000Y-110741379D01*
X118086153Y-110616073D01*
X118082617Y-110609133D01*
X118032092Y-110509971D01*
X118032091Y-110509969D01*
X118028556Y-110503032D01*
X117938847Y-110413323D01*
X117931910Y-110409788D01*
X117931908Y-110409787D01*
X117832746Y-110359262D01*
X117825806Y-110355726D01*
X117818112Y-110354507D01*
X117818111Y-110354507D01*
X117708196Y-110337098D01*
X117700500Y-110335879D01*
X117692804Y-110337098D01*
X117692801Y-110337098D01*
X117677976Y-110339446D01*
X117617544Y-110329874D01*
X117574280Y-110286610D01*
X117568614Y-110269172D01*
X117567884Y-110269409D01*
X117565477Y-110261999D01*
X117564258Y-110254305D01*
X117549692Y-110225717D01*
X117510197Y-110148203D01*
X117510196Y-110148201D01*
X117506661Y-110141264D01*
X117501155Y-110135758D01*
X117498012Y-110131432D01*
X117479105Y-110073242D01*
X117479105Y-109948097D01*
X117498012Y-109889906D01*
X117508101Y-109878093D01*
X117600282Y-109785912D01*
X117654799Y-109758135D01*
X117715231Y-109767706D01*
X117758496Y-109810972D01*
X117772444Y-109838347D01*
X117862153Y-109928056D01*
X117869090Y-109931591D01*
X117869092Y-109931592D01*
X117966570Y-109981259D01*
X117975194Y-109985653D01*
X117982888Y-109986872D01*
X117982889Y-109986872D01*
X118092804Y-110004281D01*
X118100500Y-110005500D01*
X118108196Y-110004281D01*
X118218111Y-109986872D01*
X118218112Y-109986872D01*
X118225806Y-109985653D01*
X118234430Y-109981259D01*
X118331908Y-109931592D01*
X118331910Y-109931591D01*
X118338847Y-109928056D01*
X118428556Y-109838347D01*
X118441576Y-109812795D01*
X118482616Y-109732248D01*
X118482616Y-109732247D01*
X118486153Y-109725306D01*
X118491658Y-109690552D01*
X118497304Y-109654906D01*
X118525081Y-109600390D01*
X118630996Y-109494475D01*
X118685513Y-109466698D01*
X118745945Y-109476269D01*
X118789210Y-109519534D01*
X118800000Y-109564479D01*
X118800000Y-114701000D01*
X118781093Y-114759191D01*
X118731593Y-114795155D01*
X118701000Y-114800000D01*
X104299000Y-114800000D01*
X104240809Y-114781093D01*
X104204845Y-114731593D01*
X104200000Y-114701000D01*
X104200000Y-108199500D01*
X104218907Y-108141309D01*
X104268407Y-108105345D01*
X104299000Y-108100500D01*
X104783050Y-108100500D01*
X105100500Y-107783050D01*
X105100500Y-107216950D01*
X104953554Y-107070004D01*
X104925777Y-107015487D01*
X104935348Y-106955055D01*
X104953554Y-106929996D01*
X105100500Y-106783050D01*
X105100500Y-106216950D01*
X104953554Y-106070004D01*
X104925777Y-106015487D01*
X104935348Y-105955055D01*
X104953554Y-105929996D01*
X105100500Y-105783050D01*
X105100500Y-105216950D01*
X104953554Y-105070004D01*
X104925777Y-105015487D01*
X104935348Y-104955055D01*
X104953554Y-104929996D01*
X105100500Y-104783050D01*
X105100500Y-104216950D01*
X104953554Y-104070004D01*
X104925777Y-104015487D01*
X104935348Y-103955055D01*
X104953554Y-103929996D01*
X105079447Y-103804103D01*
X105108301Y-103785330D01*
X105109979Y-103785017D01*
X105117761Y-103780220D01*
X105117764Y-103780219D01*
X105132636Y-103771052D01*
X105145499Y-103764370D01*
X105169948Y-103753866D01*
X105176426Y-103748545D01*
X105179929Y-103745042D01*
X105196604Y-103731861D01*
X105197429Y-103731113D01*
X105205211Y-103726316D01*
X105221957Y-103704294D01*
X105230756Y-103694215D01*
X106492634Y-102432337D01*
X106547151Y-102404560D01*
X106607583Y-102414131D01*
G37*
%TD.AperFunction*%
%TA.AperFunction,Conductor*%
G36*
X116885157Y-109475834D02*
G01*
X116928422Y-109519099D01*
X116937993Y-109579531D01*
X116924757Y-109614652D01*
X116920378Y-109619373D01*
X116916117Y-109630054D01*
X116905802Y-109649371D01*
X116899301Y-109658847D01*
X116893154Y-109684749D01*
X116888788Y-109698552D01*
X116878923Y-109723279D01*
X116878105Y-109731622D01*
X116878105Y-109736572D01*
X116875634Y-109757691D01*
X116875580Y-109758801D01*
X116873469Y-109767695D01*
X116876381Y-109789093D01*
X116877201Y-109795118D01*
X116878105Y-109808468D01*
X116878105Y-110073242D01*
X116859198Y-110131432D01*
X116856055Y-110135758D01*
X116850549Y-110141264D01*
X116847014Y-110148201D01*
X116847013Y-110148203D01*
X116807518Y-110225717D01*
X116792952Y-110254305D01*
X116791733Y-110261999D01*
X116791733Y-110262000D01*
X116782106Y-110322780D01*
X116773105Y-110379611D01*
X116792952Y-110504917D01*
X116850549Y-110617958D01*
X116940258Y-110707667D01*
X116947195Y-110711202D01*
X116947197Y-110711203D01*
X116999136Y-110737667D01*
X117053299Y-110765264D01*
X117053450Y-110765288D01*
X117099822Y-110798980D01*
X117118729Y-110857170D01*
X117099822Y-110915361D01*
X117089733Y-110927174D01*
X116346403Y-111670504D01*
X116291886Y-111698281D01*
X116276399Y-111699500D01*
X115826447Y-111699500D01*
X115768256Y-111680593D01*
X115732292Y-111631093D01*
X115732292Y-111569907D01*
X115765497Y-111522487D01*
X115804071Y-111492350D01*
X115804076Y-111492345D01*
X115807893Y-111489363D01*
X115811055Y-111485700D01*
X115811060Y-111485695D01*
X115904854Y-111377033D01*
X115942496Y-111333424D01*
X115946597Y-111326206D01*
X116041858Y-111158517D01*
X116041859Y-111158514D01*
X116044247Y-111154311D01*
X116047939Y-111143214D01*
X116107743Y-110963435D01*
X116107743Y-110963433D01*
X116109270Y-110958844D01*
X116114154Y-110920187D01*
X116132482Y-110775100D01*
X116135088Y-110754471D01*
X116135164Y-110749075D01*
X116135461Y-110727776D01*
X116135500Y-110725000D01*
X116134055Y-110710263D01*
X116115870Y-110524796D01*
X116115869Y-110524792D01*
X116115398Y-110519986D01*
X116112493Y-110510362D01*
X116084857Y-110418829D01*
X116055858Y-110322780D01*
X116053587Y-110318508D01*
X116053586Y-110318506D01*
X116050543Y-110312784D01*
X116039916Y-110252528D01*
X116067949Y-110196299D01*
X116770208Y-109494040D01*
X116824725Y-109466263D01*
X116885157Y-109475834D01*
G37*
%TD.AperFunction*%
%TA.AperFunction,Conductor*%
G36*
X108937631Y-106946775D02*
G01*
X108972476Y-106969318D01*
X109279119Y-107275962D01*
X109306896Y-107330478D01*
X109297325Y-107390910D01*
X109271149Y-107423119D01*
X109265277Y-107427840D01*
X109265270Y-107427847D01*
X109261505Y-107430874D01*
X109232880Y-107464988D01*
X109132202Y-107584971D01*
X109132199Y-107584975D01*
X109129093Y-107588677D01*
X109029853Y-107769194D01*
X109028389Y-107773808D01*
X109028388Y-107773811D01*
X109021941Y-107794136D01*
X108967565Y-107965549D01*
X108967025Y-107970361D01*
X108967025Y-107970362D01*
X108947851Y-108141309D01*
X108944603Y-108170263D01*
X108961840Y-108375538D01*
X108963173Y-108380186D01*
X108963173Y-108380187D01*
X109001509Y-108513878D01*
X109018621Y-108573555D01*
X109112782Y-108756773D01*
X109240737Y-108918212D01*
X109244417Y-108921344D01*
X109244419Y-108921346D01*
X109349462Y-109010744D01*
X109397612Y-109051723D01*
X109401835Y-109054083D01*
X109401839Y-109054086D01*
X109486210Y-109101239D01*
X109577432Y-109152221D01*
X109582030Y-109153715D01*
X109768742Y-109214382D01*
X109768745Y-109214383D01*
X109773347Y-109215878D01*
X109977895Y-109240269D01*
X109982717Y-109239898D01*
X109982720Y-109239898D01*
X110178458Y-109224837D01*
X110178463Y-109224836D01*
X110183286Y-109224465D01*
X110381695Y-109169068D01*
X110386013Y-109166887D01*
X110561244Y-109078371D01*
X110561246Y-109078370D01*
X110565565Y-109076188D01*
X110727893Y-108949363D01*
X110832942Y-108827663D01*
X110885276Y-108795968D01*
X110946247Y-108801087D01*
X110992564Y-108841067D01*
X111001860Y-108864133D01*
X111001974Y-108867162D01*
X111005582Y-108875559D01*
X111005582Y-108875561D01*
X111006514Y-108877730D01*
X111012877Y-108898674D01*
X111014983Y-108909979D01*
X111019780Y-108917761D01*
X111019781Y-108917764D01*
X111028948Y-108932636D01*
X111035630Y-108945499D01*
X111046134Y-108969948D01*
X111051455Y-108976426D01*
X111054958Y-108979929D01*
X111068139Y-108996604D01*
X111068887Y-108997429D01*
X111073684Y-109005211D01*
X111080959Y-109010743D01*
X111080960Y-109010744D01*
X111095705Y-109021956D01*
X111105785Y-109030756D01*
X111750668Y-109675639D01*
X111752720Y-109678017D01*
X111754739Y-109682147D01*
X111761439Y-109688362D01*
X111787042Y-109712112D01*
X111789718Y-109714689D01*
X111806497Y-109731468D01*
X111810246Y-109734039D01*
X111812321Y-109735763D01*
X111816382Y-109739328D01*
X111836755Y-109758227D01*
X111845239Y-109761612D01*
X111849364Y-109764220D01*
X111888446Y-109811297D01*
X111892393Y-109872355D01*
X111858496Y-109925052D01*
X111801505Y-109970874D01*
X111756532Y-110024471D01*
X111672202Y-110124971D01*
X111672199Y-110124975D01*
X111669093Y-110128677D01*
X111569853Y-110309194D01*
X111568389Y-110313808D01*
X111568388Y-110313811D01*
X111537943Y-110409787D01*
X111507565Y-110505549D01*
X111507025Y-110510361D01*
X111507025Y-110510362D01*
X111485512Y-110702161D01*
X111484603Y-110710263D01*
X111490047Y-110775100D01*
X111498321Y-110873625D01*
X111501840Y-110915538D01*
X111558621Y-111113555D01*
X111582603Y-111160220D01*
X111592384Y-111220616D01*
X111564554Y-111275474D01*
X111295013Y-111545015D01*
X111240496Y-111572792D01*
X111225009Y-111574011D01*
X110871061Y-111574011D01*
X110812870Y-111555104D01*
X110776906Y-111505604D01*
X110776906Y-111444418D01*
X110796119Y-111410322D01*
X110862496Y-111333424D01*
X110866597Y-111326206D01*
X110961858Y-111158517D01*
X110961859Y-111158514D01*
X110964247Y-111154311D01*
X110967939Y-111143214D01*
X111027743Y-110963435D01*
X111027743Y-110963433D01*
X111029270Y-110958844D01*
X111034154Y-110920187D01*
X111052482Y-110775100D01*
X111055088Y-110754471D01*
X111055164Y-110749075D01*
X111055461Y-110727776D01*
X111055500Y-110725000D01*
X111054055Y-110710263D01*
X111035870Y-110524796D01*
X111035869Y-110524792D01*
X111035398Y-110519986D01*
X111032493Y-110510362D01*
X111004857Y-110418829D01*
X110975858Y-110322780D01*
X110879148Y-110140895D01*
X110748952Y-109981259D01*
X110740877Y-109974579D01*
X110593955Y-109853034D01*
X110593953Y-109853033D01*
X110590228Y-109849951D01*
X110455690Y-109777206D01*
X110413277Y-109754273D01*
X110413276Y-109754272D01*
X110409023Y-109751973D01*
X110322876Y-109725306D01*
X110216859Y-109692488D01*
X110216855Y-109692487D01*
X110212238Y-109691058D01*
X110207431Y-109690553D01*
X110207427Y-109690552D01*
X110012185Y-109670032D01*
X110012183Y-109670032D01*
X110007369Y-109669526D01*
X109958406Y-109673982D01*
X109807039Y-109687757D01*
X109807036Y-109687758D01*
X109802219Y-109688196D01*
X109797577Y-109689562D01*
X109797573Y-109689563D01*
X109609250Y-109744989D01*
X109609247Y-109744990D01*
X109604603Y-109746357D01*
X109565112Y-109767003D01*
X109504787Y-109777206D01*
X109449244Y-109749272D01*
X108924328Y-109224356D01*
X108922279Y-109221982D01*
X108920261Y-109217853D01*
X108887971Y-109187900D01*
X108885295Y-109185323D01*
X108868503Y-109168531D01*
X108864744Y-109165952D01*
X108862663Y-109164223D01*
X108858606Y-109160660D01*
X108844948Y-109147990D01*
X108844945Y-109147988D01*
X108838245Y-109141773D01*
X108827564Y-109137512D01*
X108808247Y-109127197D01*
X108798771Y-109120696D01*
X108772869Y-109114549D01*
X108759066Y-109110183D01*
X108734339Y-109100318D01*
X108725996Y-109099500D01*
X108721046Y-109099500D01*
X108699927Y-109097029D01*
X108698817Y-109096975D01*
X108689923Y-109094864D01*
X108668525Y-109097776D01*
X108662500Y-109098596D01*
X108649150Y-109099500D01*
X108614500Y-109099500D01*
X108556309Y-109080593D01*
X108520345Y-109031093D01*
X108515500Y-109000500D01*
X108515500Y-107472692D01*
X108534407Y-107414501D01*
X108544496Y-107402688D01*
X108675644Y-107271540D01*
X108678018Y-107269491D01*
X108682147Y-107267473D01*
X108698483Y-107249863D01*
X108712100Y-107235183D01*
X108714677Y-107232507D01*
X108731469Y-107215715D01*
X108734048Y-107211956D01*
X108735777Y-107209875D01*
X108739340Y-107205818D01*
X108752010Y-107192160D01*
X108752012Y-107192157D01*
X108758227Y-107185457D01*
X108762488Y-107174776D01*
X108772805Y-107155456D01*
X108774134Y-107153519D01*
X108779304Y-107145983D01*
X108785451Y-107120083D01*
X108789819Y-107106272D01*
X108797094Y-107088038D01*
X108797094Y-107088037D01*
X108799682Y-107081551D01*
X108800500Y-107073208D01*
X108800500Y-107068256D01*
X108802970Y-107047149D01*
X108803025Y-107046032D01*
X108805136Y-107037136D01*
X108804462Y-107032185D01*
X108825320Y-106977284D01*
X108876519Y-106943783D01*
X108937631Y-106946775D01*
G37*
%TD.AperFunction*%
%TA.AperFunction,Conductor*%
G36*
X113155591Y-98923042D02*
G01*
X113174500Y-98981235D01*
X113174500Y-98981715D01*
X113174123Y-98990344D01*
X113170758Y-99028805D01*
X113172999Y-99037168D01*
X113180816Y-99066342D01*
X113182685Y-99074774D01*
X113189432Y-99113038D01*
X113193763Y-99120539D01*
X113195757Y-99126017D01*
X113198223Y-99131306D01*
X113200465Y-99139675D01*
X113205433Y-99146771D01*
X113205434Y-99146772D01*
X113222758Y-99171514D01*
X113227396Y-99178795D01*
X113246822Y-99212441D01*
X113274566Y-99235721D01*
X113276405Y-99237264D01*
X113282772Y-99243099D01*
X113756895Y-99717221D01*
X113762731Y-99723589D01*
X113781991Y-99746543D01*
X113781993Y-99746545D01*
X113787559Y-99753178D01*
X113811915Y-99767240D01*
X113821214Y-99772609D01*
X113828495Y-99777248D01*
X113860325Y-99799535D01*
X113868693Y-99801777D01*
X113873982Y-99804244D01*
X113879464Y-99806239D01*
X113886962Y-99810568D01*
X113895487Y-99812071D01*
X113895489Y-99812072D01*
X113918373Y-99816107D01*
X113925218Y-99817314D01*
X113933648Y-99819183D01*
X113962828Y-99827002D01*
X113962833Y-99827002D01*
X113971195Y-99829243D01*
X114009665Y-99825877D01*
X114018293Y-99825500D01*
X114732868Y-99825500D01*
X114777813Y-99836290D01*
X114874694Y-99885653D01*
X114882390Y-99886872D01*
X114945093Y-99896804D01*
X114999609Y-99924581D01*
X115310389Y-100235361D01*
X115338166Y-100289878D01*
X115339385Y-100305365D01*
X115339385Y-100812291D01*
X115320478Y-100870481D01*
X115317335Y-100874807D01*
X115311829Y-100880313D01*
X115308294Y-100887250D01*
X115308293Y-100887252D01*
X115294607Y-100914113D01*
X115254232Y-100993354D01*
X115253013Y-101001048D01*
X115253013Y-101001049D01*
X115241800Y-101071847D01*
X115234385Y-101118660D01*
X115254232Y-101243966D01*
X115311829Y-101357007D01*
X115317335Y-101362513D01*
X115320478Y-101366839D01*
X115339385Y-101425029D01*
X115339385Y-102312291D01*
X115320478Y-102370481D01*
X115317335Y-102374807D01*
X115311829Y-102380313D01*
X115308294Y-102387250D01*
X115308293Y-102387252D01*
X115272553Y-102457397D01*
X115254232Y-102493354D01*
X115234385Y-102618660D01*
X115254232Y-102743966D01*
X115257768Y-102750906D01*
X115257769Y-102750909D01*
X115274019Y-102782802D01*
X115283590Y-102843234D01*
X115255812Y-102897750D01*
X115243891Y-102907119D01*
X115243904Y-102907134D01*
X115237426Y-102912455D01*
X115233923Y-102915958D01*
X115217247Y-102929139D01*
X115216420Y-102929889D01*
X115208641Y-102934684D01*
X115203110Y-102941958D01*
X115191893Y-102956709D01*
X115183092Y-102966789D01*
X114824358Y-103325523D01*
X114821983Y-103327573D01*
X114817853Y-103329591D01*
X114811635Y-103336294D01*
X114787900Y-103361881D01*
X114785323Y-103364557D01*
X114768531Y-103381349D01*
X114765952Y-103385108D01*
X114764223Y-103387189D01*
X114760660Y-103391246D01*
X114747990Y-103404904D01*
X114747988Y-103404907D01*
X114741773Y-103411607D01*
X114737512Y-103422288D01*
X114727197Y-103441605D01*
X114720696Y-103451081D01*
X114714549Y-103476983D01*
X114710183Y-103490786D01*
X114700318Y-103515513D01*
X114699500Y-103523856D01*
X114699500Y-103528806D01*
X114697029Y-103549925D01*
X114696975Y-103551035D01*
X114694864Y-103559929D01*
X114697776Y-103581327D01*
X114698596Y-103587352D01*
X114699500Y-103600702D01*
X114699500Y-106270434D01*
X114699270Y-106273566D01*
X114697777Y-106277914D01*
X114698120Y-106287050D01*
X114699430Y-106321943D01*
X114699500Y-106325657D01*
X114699500Y-106349388D01*
X114700335Y-106353872D01*
X114700582Y-106356546D01*
X114700931Y-106361931D01*
X114700999Y-106363733D01*
X114701974Y-106389704D01*
X114705580Y-106398099D01*
X114705581Y-106398101D01*
X114706514Y-106400272D01*
X114712877Y-106421216D01*
X114714983Y-106432521D01*
X114719780Y-106440303D01*
X114719781Y-106440306D01*
X114728948Y-106455178D01*
X114735630Y-106468041D01*
X114746134Y-106492490D01*
X114751455Y-106498968D01*
X114754958Y-106502471D01*
X114768139Y-106519146D01*
X114768887Y-106519971D01*
X114773684Y-106527753D01*
X114780959Y-106533285D01*
X114780960Y-106533286D01*
X114795705Y-106544498D01*
X114805785Y-106553298D01*
X115218934Y-106966447D01*
X115246711Y-107020964D01*
X115237140Y-107081396D01*
X115193875Y-107124661D01*
X115138583Y-107134909D01*
X115094591Y-107130285D01*
X115092184Y-107130032D01*
X115092183Y-107130032D01*
X115087369Y-107129526D01*
X115019372Y-107135714D01*
X114887039Y-107147757D01*
X114887036Y-107147758D01*
X114882219Y-107148196D01*
X114877577Y-107149562D01*
X114877573Y-107149563D01*
X114689250Y-107204989D01*
X114689247Y-107204990D01*
X114684603Y-107206357D01*
X114645112Y-107227003D01*
X114584787Y-107237206D01*
X114529244Y-107209272D01*
X113244328Y-105924356D01*
X113242279Y-105921982D01*
X113240261Y-105917853D01*
X113207971Y-105887900D01*
X113205295Y-105885323D01*
X113188503Y-105868531D01*
X113184744Y-105865952D01*
X113182663Y-105864223D01*
X113178606Y-105860660D01*
X113164948Y-105847990D01*
X113164945Y-105847988D01*
X113158245Y-105841773D01*
X113147564Y-105837512D01*
X113128247Y-105827197D01*
X113118771Y-105820696D01*
X113092869Y-105814549D01*
X113079066Y-105810183D01*
X113054339Y-105800318D01*
X113045996Y-105799500D01*
X113041046Y-105799500D01*
X113019927Y-105797029D01*
X113018817Y-105796975D01*
X113009923Y-105794864D01*
X112988525Y-105797776D01*
X112982500Y-105798596D01*
X112969150Y-105799500D01*
X110165478Y-105799500D01*
X110107287Y-105780593D01*
X110095474Y-105770503D01*
X110029016Y-105704044D01*
X110001239Y-105649527D01*
X110000020Y-105634041D01*
X110000020Y-104402207D01*
X110000250Y-104399075D01*
X110001743Y-104394727D01*
X110000090Y-104350698D01*
X110000020Y-104346984D01*
X110000020Y-104323253D01*
X109999185Y-104318769D01*
X109998938Y-104316095D01*
X109998589Y-104310710D01*
X109997889Y-104292070D01*
X109997889Y-104292069D01*
X109997546Y-104282937D01*
X109993006Y-104272369D01*
X109986642Y-104251423D01*
X109986211Y-104249107D01*
X109986211Y-104249106D01*
X109984537Y-104240120D01*
X109979740Y-104232338D01*
X109979739Y-104232335D01*
X109970572Y-104217463D01*
X109963888Y-104204596D01*
X109957452Y-104189616D01*
X109953386Y-104180151D01*
X109948065Y-104173673D01*
X109944562Y-104170170D01*
X109931381Y-104153495D01*
X109930633Y-104152670D01*
X109925836Y-104144888D01*
X109903814Y-104128142D01*
X109893735Y-104119343D01*
X107848738Y-102074345D01*
X107846689Y-102071971D01*
X107844671Y-102067842D01*
X107812381Y-102037889D01*
X107809705Y-102035312D01*
X107792913Y-102018520D01*
X107789154Y-102015941D01*
X107787073Y-102014212D01*
X107783016Y-102010649D01*
X107769358Y-101997979D01*
X107769355Y-101997977D01*
X107762655Y-101991762D01*
X107751974Y-101987501D01*
X107732657Y-101977186D01*
X107723181Y-101970685D01*
X107697279Y-101964538D01*
X107683476Y-101960172D01*
X107658749Y-101950307D01*
X107650406Y-101949489D01*
X107645456Y-101949489D01*
X107624337Y-101947018D01*
X107623227Y-101946964D01*
X107614333Y-101944853D01*
X107592935Y-101947765D01*
X107586910Y-101948585D01*
X107573560Y-101949489D01*
X107291966Y-101949489D01*
X107238492Y-101932115D01*
X107238348Y-101932397D01*
X107236565Y-101931488D01*
X107236559Y-101931486D01*
X107231404Y-101928859D01*
X107231402Y-101928858D01*
X107196944Y-101911301D01*
X107153679Y-101868037D01*
X107144107Y-101807605D01*
X107171884Y-101753087D01*
X107982924Y-100942047D01*
X108037441Y-100914270D01*
X108052928Y-100913051D01*
X109488593Y-100913051D01*
X109491725Y-100913281D01*
X109496073Y-100914774D01*
X109505209Y-100914431D01*
X109540102Y-100913121D01*
X109543816Y-100913051D01*
X109567547Y-100913051D01*
X109572031Y-100912216D01*
X109574705Y-100911969D01*
X109580090Y-100911620D01*
X109598730Y-100910920D01*
X109598731Y-100910920D01*
X109607863Y-100910577D01*
X109616258Y-100906971D01*
X109616260Y-100906970D01*
X109618431Y-100906037D01*
X109639375Y-100899674D01*
X109640869Y-100899395D01*
X109641693Y-100899242D01*
X109641694Y-100899242D01*
X109650680Y-100897568D01*
X109658462Y-100892771D01*
X109658465Y-100892770D01*
X109673337Y-100883603D01*
X109686200Y-100876921D01*
X109710649Y-100866417D01*
X109717127Y-100861096D01*
X109720630Y-100857593D01*
X109737305Y-100844412D01*
X109738130Y-100843664D01*
X109745912Y-100838867D01*
X109762658Y-100816845D01*
X109771457Y-100806766D01*
X111564004Y-99014219D01*
X111566382Y-99012167D01*
X111570512Y-99010148D01*
X111600477Y-98977845D01*
X111603054Y-98975169D01*
X111619833Y-98958390D01*
X111622406Y-98954638D01*
X111624128Y-98952566D01*
X111627693Y-98948505D01*
X111646592Y-98928132D01*
X111648537Y-98929936D01*
X111684953Y-98899701D01*
X111746010Y-98895752D01*
X111777120Y-98910357D01*
X111780157Y-98913394D01*
X111802423Y-98924739D01*
X111857834Y-98952972D01*
X111893198Y-98970991D01*
X111900892Y-98972210D01*
X111900893Y-98972210D01*
X112010808Y-98989619D01*
X112018504Y-98990838D01*
X112026200Y-98989619D01*
X112136115Y-98972210D01*
X112136116Y-98972210D01*
X112143810Y-98970991D01*
X112150750Y-98967455D01*
X112150753Y-98967454D01*
X112241378Y-98921279D01*
X112301810Y-98911708D01*
X112356326Y-98939485D01*
X112430125Y-99013284D01*
X112437062Y-99016819D01*
X112437064Y-99016820D01*
X112536226Y-99067345D01*
X112543166Y-99070881D01*
X112550860Y-99072100D01*
X112550861Y-99072100D01*
X112660776Y-99089509D01*
X112668472Y-99090728D01*
X112676168Y-99089509D01*
X112786083Y-99072100D01*
X112786084Y-99072100D01*
X112793778Y-99070881D01*
X112800718Y-99067345D01*
X112899880Y-99016820D01*
X112899882Y-99016819D01*
X112906819Y-99013284D01*
X112996528Y-98923575D01*
X112997616Y-98921441D01*
X113044905Y-98887081D01*
X113106090Y-98887080D01*
X113155591Y-98923042D01*
G37*
%TD.AperFunction*%
%TA.AperFunction,Conductor*%
G36*
X118759191Y-95319707D02*
G01*
X118795155Y-95369207D01*
X118800000Y-95399800D01*
X118800000Y-96800500D01*
X118781093Y-96858691D01*
X118731593Y-96894655D01*
X118701000Y-96899500D01*
X118216950Y-96899500D01*
X117899500Y-97216950D01*
X117899500Y-97783050D01*
X118046446Y-97929996D01*
X118074223Y-97984513D01*
X118064652Y-98044945D01*
X118046446Y-98070004D01*
X117899500Y-98216950D01*
X117899500Y-98783050D01*
X118046446Y-98929996D01*
X118074223Y-98984513D01*
X118064652Y-99044945D01*
X118046446Y-99070004D01*
X117899500Y-99216950D01*
X117899500Y-99783050D01*
X118046446Y-99929996D01*
X118074223Y-99984513D01*
X118064652Y-100044945D01*
X118046446Y-100070004D01*
X117899500Y-100216950D01*
X117899500Y-100783050D01*
X118046446Y-100929996D01*
X118074223Y-100984513D01*
X118064652Y-101044945D01*
X118046446Y-101070004D01*
X117899500Y-101216950D01*
X117899500Y-101783050D01*
X118046446Y-101929996D01*
X118074223Y-101984513D01*
X118064652Y-102044945D01*
X118046446Y-102070004D01*
X117946104Y-102170346D01*
X117891587Y-102198123D01*
X117879824Y-102199271D01*
X117875554Y-102199432D01*
X117871883Y-102199500D01*
X117848154Y-102199500D01*
X117843664Y-102200336D01*
X117840994Y-102200583D01*
X117835613Y-102200931D01*
X117823872Y-102201372D01*
X117816970Y-102201631D01*
X117816969Y-102201631D01*
X117807837Y-102201974D01*
X117799442Y-102205580D01*
X117799440Y-102205581D01*
X117797269Y-102206514D01*
X117776324Y-102212878D01*
X117765021Y-102214983D01*
X117757243Y-102219778D01*
X117757239Y-102219779D01*
X117742364Y-102228948D01*
X117729501Y-102235630D01*
X117705052Y-102246134D01*
X117698574Y-102251455D01*
X117695071Y-102254958D01*
X117678396Y-102268139D01*
X117677571Y-102268887D01*
X117669789Y-102273684D01*
X117664256Y-102280960D01*
X117653044Y-102295704D01*
X117644245Y-102305783D01*
X117118524Y-102831504D01*
X117064007Y-102859281D01*
X117048520Y-102860500D01*
X116122654Y-102860500D01*
X116064463Y-102841593D01*
X116028499Y-102792093D01*
X116028498Y-102744435D01*
X116025538Y-102743966D01*
X116044166Y-102626356D01*
X116045385Y-102618660D01*
X116025538Y-102493354D01*
X116007217Y-102457397D01*
X115971477Y-102387252D01*
X115971476Y-102387250D01*
X115967941Y-102380313D01*
X115962435Y-102374807D01*
X115959292Y-102370481D01*
X115940385Y-102312291D01*
X115940385Y-101425029D01*
X115959292Y-101366839D01*
X115962435Y-101362513D01*
X115967941Y-101357007D01*
X116025538Y-101243966D01*
X116045385Y-101118660D01*
X116037970Y-101071847D01*
X116026757Y-101001049D01*
X116026757Y-101001048D01*
X116025538Y-100993354D01*
X115985163Y-100914113D01*
X115971477Y-100887252D01*
X115971476Y-100887250D01*
X115967941Y-100880313D01*
X115962435Y-100874807D01*
X115959292Y-100870481D01*
X115940385Y-100812291D01*
X115940385Y-100191993D01*
X115940615Y-100188861D01*
X115942108Y-100184513D01*
X115940455Y-100140484D01*
X115940385Y-100136770D01*
X115940385Y-100113039D01*
X115939550Y-100108555D01*
X115939303Y-100105881D01*
X115938954Y-100100496D01*
X115938254Y-100081856D01*
X115938254Y-100081855D01*
X115937911Y-100072723D01*
X115934186Y-100064051D01*
X115933371Y-100062155D01*
X115927007Y-100041209D01*
X115926576Y-100038893D01*
X115926576Y-100038892D01*
X115924902Y-100029906D01*
X115920105Y-100022124D01*
X115920104Y-100022121D01*
X115910937Y-100007249D01*
X115904253Y-99994382D01*
X115900013Y-99984513D01*
X115893751Y-99969937D01*
X115888430Y-99963459D01*
X115884927Y-99959956D01*
X115871746Y-99943281D01*
X115870998Y-99942456D01*
X115866201Y-99934674D01*
X115856064Y-99926965D01*
X115844177Y-99917926D01*
X115834099Y-99909127D01*
X115642193Y-99717221D01*
X115424581Y-99499610D01*
X115396803Y-99445093D01*
X115386872Y-99382389D01*
X115386872Y-99382388D01*
X115385653Y-99374694D01*
X115376566Y-99356860D01*
X115331592Y-99268592D01*
X115331591Y-99268590D01*
X115328056Y-99261653D01*
X115238347Y-99171944D01*
X115231410Y-99168409D01*
X115231408Y-99168408D01*
X115132246Y-99117883D01*
X115125306Y-99114347D01*
X115117612Y-99113128D01*
X115117611Y-99113128D01*
X115007696Y-99095719D01*
X115000000Y-99094500D01*
X114992304Y-99095719D01*
X114882389Y-99113128D01*
X114882388Y-99113128D01*
X114874694Y-99114347D01*
X114867754Y-99117883D01*
X114777813Y-99163710D01*
X114732868Y-99174500D01*
X114175833Y-99174500D01*
X114117642Y-99155593D01*
X114105829Y-99145503D01*
X113854496Y-98894169D01*
X113826719Y-98839653D01*
X113825500Y-98824166D01*
X113825500Y-98708480D01*
X113825877Y-98699851D01*
X113828487Y-98670017D01*
X113829242Y-98661390D01*
X113819184Y-98623853D01*
X113817315Y-98615421D01*
X113812072Y-98585686D01*
X113812072Y-98585685D01*
X113810568Y-98577157D01*
X113806237Y-98569656D01*
X113804243Y-98564178D01*
X113801777Y-98558889D01*
X113799535Y-98550520D01*
X113780712Y-98523637D01*
X113777242Y-98518681D01*
X113772603Y-98511399D01*
X113757508Y-98485254D01*
X113753178Y-98477754D01*
X113723601Y-98452936D01*
X113717234Y-98447102D01*
X113304118Y-98033986D01*
X113276341Y-97979469D01*
X113275122Y-97963982D01*
X113275122Y-97365555D01*
X113294029Y-97307364D01*
X113304118Y-97295551D01*
X113338416Y-97261253D01*
X113351643Y-97235295D01*
X113392477Y-97155152D01*
X113396013Y-97148212D01*
X113404386Y-97095352D01*
X113414641Y-97030602D01*
X113415860Y-97022906D01*
X113398934Y-96916039D01*
X113397232Y-96905295D01*
X113397232Y-96905294D01*
X113396013Y-96897600D01*
X113362126Y-96831093D01*
X113341952Y-96791498D01*
X113341951Y-96791496D01*
X113338416Y-96784559D01*
X113248707Y-96694850D01*
X113241770Y-96691315D01*
X113241768Y-96691314D01*
X113142606Y-96640789D01*
X113135666Y-96637253D01*
X113127972Y-96636034D01*
X113127971Y-96636034D01*
X113018056Y-96618625D01*
X113010360Y-96617406D01*
X113002664Y-96618625D01*
X112892749Y-96636034D01*
X112892748Y-96636034D01*
X112885054Y-96637253D01*
X112878114Y-96640789D01*
X112778952Y-96691314D01*
X112778950Y-96691315D01*
X112772013Y-96694850D01*
X112682304Y-96784559D01*
X112678769Y-96791496D01*
X112678768Y-96791498D01*
X112658594Y-96831093D01*
X112624707Y-96897600D01*
X112623488Y-96905294D01*
X112623488Y-96905295D01*
X112621786Y-96916039D01*
X112604860Y-97022906D01*
X112606079Y-97030602D01*
X112622903Y-97136823D01*
X112624122Y-97152310D01*
X112624122Y-97750700D01*
X112605215Y-97808891D01*
X112555715Y-97844855D01*
X112494529Y-97844855D01*
X112455118Y-97820704D01*
X111632748Y-96998333D01*
X110648571Y-96014156D01*
X110646522Y-96011782D01*
X110644504Y-96007653D01*
X110612214Y-95977700D01*
X110609538Y-95975123D01*
X110592746Y-95958331D01*
X110588987Y-95955752D01*
X110586906Y-95954023D01*
X110582849Y-95950460D01*
X110569191Y-95937790D01*
X110569188Y-95937788D01*
X110562488Y-95931573D01*
X110551807Y-95927312D01*
X110532490Y-95916997D01*
X110523014Y-95910496D01*
X110497112Y-95904349D01*
X110483309Y-95899983D01*
X110458582Y-95890118D01*
X110450239Y-95889300D01*
X110445289Y-95889300D01*
X110424170Y-95886829D01*
X110423060Y-95886775D01*
X110414166Y-95884664D01*
X110392768Y-95887576D01*
X110386743Y-95888396D01*
X110373393Y-95889300D01*
X105862309Y-95889300D01*
X105859177Y-95889070D01*
X105854829Y-95887577D01*
X105845693Y-95887920D01*
X105810800Y-95889230D01*
X105807086Y-95889300D01*
X105783354Y-95889300D01*
X105778870Y-95890135D01*
X105776196Y-95890382D01*
X105770811Y-95890731D01*
X105752171Y-95891431D01*
X105752170Y-95891431D01*
X105743038Y-95891774D01*
X105734643Y-95895380D01*
X105734641Y-95895381D01*
X105732470Y-95896314D01*
X105711526Y-95902677D01*
X105710032Y-95902956D01*
X105709208Y-95903109D01*
X105709207Y-95903109D01*
X105700221Y-95904783D01*
X105692439Y-95909580D01*
X105692436Y-95909581D01*
X105677564Y-95918748D01*
X105664701Y-95925430D01*
X105640252Y-95935934D01*
X105633774Y-95941255D01*
X105630271Y-95944758D01*
X105613596Y-95957939D01*
X105612771Y-95958687D01*
X105604989Y-95963484D01*
X105599457Y-95970759D01*
X105599456Y-95970760D01*
X105588244Y-95985505D01*
X105579444Y-95995585D01*
X104704524Y-96870504D01*
X104650007Y-96898281D01*
X104634520Y-96899500D01*
X104299000Y-96899500D01*
X104240809Y-96880593D01*
X104204845Y-96831093D01*
X104200000Y-96800500D01*
X104200000Y-95399800D01*
X104218907Y-95341609D01*
X104268407Y-95305645D01*
X104299000Y-95300800D01*
X118701000Y-95300800D01*
X118759191Y-95319707D01*
G37*
%TD.AperFunction*%
%TA.AperFunction,Conductor*%
G36*
X107328731Y-98446038D02*
G01*
X107340544Y-98456127D01*
X107670504Y-98786087D01*
X107698281Y-98840604D01*
X107699500Y-98856091D01*
X107699500Y-99108692D01*
X107699270Y-99111824D01*
X107697777Y-99116172D01*
X107698120Y-99125308D01*
X107699430Y-99160201D01*
X107699500Y-99163915D01*
X107699500Y-99187646D01*
X107700335Y-99192130D01*
X107700582Y-99194804D01*
X107700931Y-99200189D01*
X107701600Y-99218007D01*
X107701974Y-99227962D01*
X107705580Y-99236357D01*
X107705581Y-99236359D01*
X107706514Y-99238530D01*
X107712877Y-99259474D01*
X107714983Y-99270779D01*
X107719780Y-99278561D01*
X107719781Y-99278564D01*
X107728948Y-99293436D01*
X107735630Y-99306299D01*
X107735796Y-99306684D01*
X107746134Y-99330747D01*
X107745068Y-99331205D01*
X107754489Y-99356860D01*
X107761088Y-99398524D01*
X107751517Y-99458956D01*
X107708252Y-99502221D01*
X107663307Y-99513011D01*
X106738598Y-99513011D01*
X106735466Y-99512781D01*
X106731118Y-99511288D01*
X106721982Y-99511631D01*
X106687089Y-99512941D01*
X106683375Y-99513011D01*
X106659643Y-99513011D01*
X106655159Y-99513846D01*
X106652485Y-99514093D01*
X106647100Y-99514442D01*
X106628460Y-99515142D01*
X106628459Y-99515142D01*
X106619327Y-99515485D01*
X106610932Y-99519091D01*
X106610930Y-99519092D01*
X106608759Y-99520025D01*
X106587815Y-99526388D01*
X106586321Y-99526667D01*
X106585497Y-99526820D01*
X106585496Y-99526820D01*
X106576510Y-99528494D01*
X106568728Y-99533291D01*
X106568725Y-99533292D01*
X106553853Y-99542459D01*
X106540990Y-99549141D01*
X106516541Y-99559645D01*
X106510063Y-99564966D01*
X106506560Y-99568469D01*
X106489885Y-99581650D01*
X106489060Y-99582398D01*
X106481278Y-99587195D01*
X106475746Y-99594470D01*
X106475745Y-99594471D01*
X106464533Y-99609216D01*
X106455732Y-99619296D01*
X106095711Y-99979316D01*
X106041195Y-100007093D01*
X105980763Y-99997522D01*
X105937498Y-99954257D01*
X105926826Y-99904472D01*
X105927055Y-99899792D01*
X105929167Y-99890893D01*
X105925435Y-99863473D01*
X105924531Y-99850122D01*
X105924531Y-99106454D01*
X105943438Y-99048263D01*
X105953527Y-99036450D01*
X106533850Y-98456127D01*
X106588367Y-98428350D01*
X106603854Y-98427131D01*
X107270540Y-98427131D01*
X107328731Y-98446038D01*
G37*
%TD.AperFunction*%
%TA.AperFunction,Conductor*%
G36*
X110116113Y-96933727D02*
G01*
X110127926Y-96943816D01*
X110468211Y-97284101D01*
X110495988Y-97338618D01*
X110486417Y-97399050D01*
X110443152Y-97442315D01*
X110382720Y-97451886D01*
X110353262Y-97442315D01*
X110256246Y-97392883D01*
X110249306Y-97389347D01*
X110241612Y-97388128D01*
X110241611Y-97388128D01*
X110131696Y-97370719D01*
X110124000Y-97369500D01*
X110116304Y-97370719D01*
X110006389Y-97388128D01*
X110006388Y-97388128D01*
X109998694Y-97389347D01*
X109991754Y-97392883D01*
X109892592Y-97443408D01*
X109892590Y-97443409D01*
X109885653Y-97446944D01*
X109795944Y-97536653D01*
X109792408Y-97543592D01*
X109792407Y-97543594D01*
X109781996Y-97564027D01*
X109738732Y-97607292D01*
X109678300Y-97616864D01*
X109623782Y-97589087D01*
X109615162Y-97580467D01*
X109613113Y-97578093D01*
X109611095Y-97573964D01*
X109578805Y-97544011D01*
X109576129Y-97541434D01*
X109559337Y-97524642D01*
X109555578Y-97522063D01*
X109553497Y-97520334D01*
X109549440Y-97516771D01*
X109535782Y-97504101D01*
X109535779Y-97504099D01*
X109529079Y-97497884D01*
X109518398Y-97493623D01*
X109499081Y-97483308D01*
X109497143Y-97481978D01*
X109489605Y-97476807D01*
X109463703Y-97470660D01*
X109449900Y-97466294D01*
X109425173Y-97456429D01*
X109416830Y-97455611D01*
X109411880Y-97455611D01*
X109390761Y-97453140D01*
X109389651Y-97453086D01*
X109380757Y-97450975D01*
X109359359Y-97453887D01*
X109353334Y-97454707D01*
X109339984Y-97455611D01*
X108418989Y-97455611D01*
X108360798Y-97436704D01*
X108348985Y-97426614D01*
X108149581Y-97227209D01*
X108121804Y-97172694D01*
X108111872Y-97109990D01*
X108111872Y-97109989D01*
X108110653Y-97102294D01*
X108088474Y-97058765D01*
X108078903Y-96998333D01*
X108106681Y-96943816D01*
X108161197Y-96916039D01*
X108176684Y-96914820D01*
X110057922Y-96914820D01*
X110116113Y-96933727D01*
G37*
%TD.AperFunction*%
%TD*%
M02*
