%TF.GenerationSoftware,KiCad,Pcbnew,(5.99.0-10506-gb986797469)*%
%TF.CreationDate,2021-05-05T16:41:54+02:00*%
%TF.ProjectId,ESP31,45535033-312e-46b6-9963-61645f706362,rev?*%
%TF.SameCoordinates,Original*%
%TF.FileFunction,Copper,L1,Top*%
%TF.FilePolarity,Positive*%
%FSLAX46Y46*%
G04 Gerber Fmt 4.6, Leading zero omitted, Abs format (unit mm)*
G04 Created by KiCad (PCBNEW (5.99.0-10506-gb986797469)) date 2021-05-05 16:41:54*
%MOMM*%
%LPD*%
G01*
G04 APERTURE LIST*
G04 Aperture macros list*
%AMRoundRect*
0 Rectangle with rounded corners*
0 $1 Rounding radius*
0 $2 $3 $4 $5 $6 $7 $8 $9 X,Y pos of 4 corners*
0 Add a 4 corners polygon primitive as box body*
4,1,4,$2,$3,$4,$5,$6,$7,$8,$9,$2,$3,0*
0 Add four circle primitives for the rounded corners*
1,1,$1+$1,$2,$3*
1,1,$1+$1,$4,$5*
1,1,$1+$1,$6,$7*
1,1,$1+$1,$8,$9*
0 Add four rect primitives between the rounded corners*
20,1,$1+$1,$2,$3,$4,$5,0*
20,1,$1+$1,$4,$5,$6,$7,0*
20,1,$1+$1,$6,$7,$8,$9,0*
20,1,$1+$1,$8,$9,$2,$3,0*%
%AMOutline5P*
0 Free polygon, 5 corners , with rotation*
0 The origin of the aperture is its center*
0 number of corners: always 8*
0 $1 to $10 corner X, Y*
0 $11 Rotation angle, in degrees counterclockwise*
0 create outline with 8 corners*
4,1,5,$1,$2,$3,$4,$5,$6,$7,$8,$9,$10,$1,$2,$11*%
%AMOutline6P*
0 Free polygon, 6 corners , with rotation*
0 The origin of the aperture is its center*
0 number of corners: always 6*
0 $1 to $12 corner X, Y*
0 $13 Rotation angle, in degrees counterclockwise*
0 create outline with 6 corners*
4,1,6,$1,$2,$3,$4,$5,$6,$7,$8,$9,$10,$11,$12,$1,$2,$13*%
%AMOutline7P*
0 Free polygon, 7 corners , with rotation*
0 The origin of the aperture is its center*
0 number of corners: always 7*
0 $1 to $14 corner X, Y*
0 $15 Rotation angle, in degrees counterclockwise*
0 create outline with 7 corners*
4,1,7,$1,$2,$3,$4,$5,$6,$7,$8,$9,$10,$11,$12,$13,$14,$1,$2,$15*%
%AMOutline8P*
0 Free polygon, 8 corners , with rotation*
0 The origin of the aperture is its center*
0 number of corners: always 8*
0 $1 to $16 corner X, Y*
0 $17 Rotation angle, in degrees counterclockwise*
0 create outline with 8 corners*
4,1,8,$1,$2,$3,$4,$5,$6,$7,$8,$9,$10,$11,$12,$13,$14,$15,$16,$1,$2,$17*%
G04 Aperture macros list end*
%TA.AperFunction,ComponentPad*%
%ADD10C,0.800000*%
%TD*%
%TA.AperFunction,ComponentPad*%
%ADD11Outline6P,0.200000X-0.400000X-0.400000X-0.400000X-0.400000X0.400000X0.200000X0.400000X0.400000X0.200000X0.400000X-0.200000X180.000000*%
%TD*%
%TA.AperFunction,ComponentPad*%
%ADD12Outline6P,0.200000X-0.400000X-0.400000X-0.400000X-0.400000X0.400000X0.200000X0.400000X0.400000X0.200000X0.400000X-0.200000X0.000000*%
%TD*%
%TA.AperFunction,SMDPad,CuDef*%
%ADD13RoundRect,0.225000X-0.225000X-0.250000X0.225000X-0.250000X0.225000X0.250000X-0.225000X0.250000X0*%
%TD*%
%TA.AperFunction,SMDPad,CuDef*%
%ADD14RoundRect,0.225000X-0.250000X0.225000X-0.250000X-0.225000X0.250000X-0.225000X0.250000X0.225000X0*%
%TD*%
%TA.AperFunction,SMDPad,CuDef*%
%ADD15RoundRect,0.062500X-0.062500X0.337500X-0.062500X-0.337500X0.062500X-0.337500X0.062500X0.337500X0*%
%TD*%
%TA.AperFunction,SMDPad,CuDef*%
%ADD16RoundRect,0.062500X-0.337500X0.062500X-0.337500X-0.062500X0.337500X-0.062500X0.337500X0.062500X0*%
%TD*%
%TA.AperFunction,SMDPad,CuDef*%
%ADD17R,5.300000X5.300000*%
%TD*%
%TA.AperFunction,ComponentPad*%
%ADD18R,0.900000X0.500000*%
%TD*%
%TA.AperFunction,ConnectorPad*%
%ADD19R,0.500000X0.500000*%
%TD*%
%TA.AperFunction,SMDPad,CuDef*%
%ADD20RoundRect,0.200000X0.200000X0.275000X-0.200000X0.275000X-0.200000X-0.275000X0.200000X-0.275000X0*%
%TD*%
%TA.AperFunction,ComponentPad*%
%ADD21R,1.700000X1.700000*%
%TD*%
%TA.AperFunction,ComponentPad*%
%ADD22O,1.700000X1.700000*%
%TD*%
%TA.AperFunction,ViaPad*%
%ADD23C,0.400000*%
%TD*%
%TA.AperFunction,Conductor*%
%ADD24C,0.250000*%
%TD*%
%TA.AperFunction,Conductor*%
%ADD25C,0.200000*%
%TD*%
G04 APERTURE END LIST*
%TO.C,AE1*%
G36*
X117700000Y-95875000D02*
G01*
X117700000Y-95616842D01*
X118001778Y-95616842D01*
X118008309Y-95666368D01*
X118028868Y-95711553D01*
X118062511Y-95746787D01*
X118081122Y-95757400D01*
X118126637Y-95770300D01*
X118175156Y-95771043D01*
X118217819Y-95758935D01*
X118225731Y-95754581D01*
X118263674Y-95721797D01*
X118287742Y-95679395D01*
X118297583Y-95631785D01*
X118292847Y-95583378D01*
X118273185Y-95538584D01*
X118238245Y-95501814D01*
X118205353Y-95484908D01*
X118157267Y-95477018D01*
X118107682Y-95483592D01*
X118062372Y-95503687D01*
X118027112Y-95536357D01*
X118010218Y-95568583D01*
X118001778Y-95616842D01*
X117700000Y-95616842D01*
X117700000Y-90975000D01*
X116300000Y-90975000D01*
X116300000Y-95875000D01*
X115800000Y-95875000D01*
X115800000Y-90975000D01*
X114100000Y-90975000D01*
X114100000Y-93615000D01*
X111100000Y-93615000D01*
X111100000Y-90975000D01*
X109400000Y-90975000D01*
X109400000Y-93615000D01*
X106400000Y-93615000D01*
X106400000Y-90975000D01*
X104700000Y-90975000D01*
X104700000Y-94915000D01*
X104200000Y-94915000D01*
X104200000Y-90475000D01*
X106900000Y-90475000D01*
X106900000Y-93115000D01*
X108900000Y-93115000D01*
X108900000Y-90475000D01*
X111600000Y-90475000D01*
X111600000Y-93115000D01*
X113600000Y-93115000D01*
X113600000Y-90475000D01*
X118600000Y-90475000D01*
X118600000Y-95875000D01*
X117700000Y-95875000D01*
G37*
%TD*%
D10*
%TO.P,J8,1,Pin_1*%
%TO.N,/SD0*%
X119000000Y-104500000D03*
D11*
X118500000Y-104500000D03*
%TD*%
D10*
%TO.P,J10,1,Pin_1*%
%TO.N,/IO5*%
X119000000Y-102500000D03*
D11*
X118500000Y-102500000D03*
%TD*%
D10*
%TO.P,J15,1,Pin_1*%
%TO.N,/IO21*%
X119000000Y-97500000D03*
D11*
X118500000Y-97500000D03*
%TD*%
D10*
%TO.P,J12,1,Pin_1*%
%TO.N,/IO10*%
X119000000Y-105500000D03*
D11*
X118500000Y-105500000D03*
%TD*%
D10*
%TO.P,J23,1,Pin_1*%
%TO.N,/IO34*%
X104000000Y-101500000D03*
D12*
X104500000Y-101500000D03*
%TD*%
D10*
%TO.P,J14,1,Pin_1*%
%TO.N,/IO19*%
X119000000Y-99500000D03*
D11*
X118500000Y-99500000D03*
%TD*%
D13*
%TO.P,C1,1*%
%TO.N,/EN*%
X107725000Y-96500000D03*
%TO.P,C1,2*%
%TO.N,GND*%
X109275000Y-96500000D03*
%TD*%
D10*
%TO.P,J11,1,Pin_1*%
%TO.N,/IO9*%
X119000000Y-106500000D03*
D11*
X118500000Y-106500000D03*
%TD*%
D10*
%TO.P,J17,1,Pin_1*%
%TO.N,/IO23*%
X119000000Y-100500000D03*
D11*
X118500000Y-100500000D03*
%TD*%
D10*
%TO.P,J24,1,Pin_1*%
%TO.N,/IO35*%
X104000000Y-99500000D03*
D12*
X104500000Y-99500000D03*
%TD*%
D10*
%TO.P,J18,1,Pin_1*%
%TO.N,/IO25*%
X104000000Y-105500000D03*
D12*
X104500000Y-105500000D03*
%TD*%
D14*
%TO.P,C2,1*%
%TO.N,GND*%
X111000000Y-96225000D03*
%TO.P,C2,2*%
%TO.N,+3V3*%
X111000000Y-97775000D03*
%TD*%
%TO.P,C3,1*%
%TO.N,GND*%
X112500000Y-96225000D03*
%TO.P,C3,2*%
%TO.N,+3V3*%
X112500000Y-97775000D03*
%TD*%
D10*
%TO.P,J20,1,Pin_1*%
%TO.N,/IO27*%
X104000000Y-107500000D03*
D12*
X104500000Y-107500000D03*
%TD*%
D10*
%TO.P,J22,1,Pin_1*%
%TO.N,/IO33*%
X104000000Y-104500000D03*
D12*
X104500000Y-104500000D03*
%TD*%
D10*
%TO.P,J19,1,Pin_1*%
%TO.N,/IO26*%
X104000000Y-106500000D03*
D12*
X104500000Y-106500000D03*
%TD*%
D10*
%TO.P,J13,1,Pin_1*%
%TO.N,/IO18*%
X119000000Y-101500000D03*
D11*
X118500000Y-101500000D03*
%TD*%
D15*
%TO.P,U1,1,VDDA*%
%TO.N,+3V3*%
X114250000Y-99550000D03*
%TO.P,U1,2,LNA_IN*%
%TO.N,Net-(AE1-Pad1)*%
X113750000Y-99550000D03*
%TO.P,U1,3,VDDA3P3*%
%TO.N,+3V3*%
X113250000Y-99550000D03*
%TO.P,U1,4,VDDA3P3*%
X112750000Y-99550000D03*
%TO.P,U1,5,SENSOR_VP*%
%TO.N,/SENS_VP*%
X112250000Y-99550000D03*
%TO.P,U1,6,SENSOR_CAPP*%
%TO.N,/CAPP*%
X111750000Y-99550000D03*
%TO.P,U1,7,SENSOR_CAPN*%
%TO.N,/CAPN*%
X111250000Y-99550000D03*
%TO.P,U1,8,SENSOR_VN*%
%TO.N,/SENS_VN*%
X110750000Y-99550000D03*
%TO.P,U1,9,EN*%
%TO.N,/EN*%
X110250000Y-99550000D03*
%TO.P,U1,10,IO34*%
%TO.N,/IO34*%
X109750000Y-99550000D03*
%TO.P,U1,11,IO35*%
%TO.N,/IO35*%
X109250000Y-99550000D03*
%TO.P,U1,12,IO32*%
%TO.N,/IO32*%
X108750000Y-99550000D03*
D16*
%TO.P,U1,13,IO33*%
%TO.N,/IO33*%
X108050000Y-100250000D03*
%TO.P,U1,14,IO25*%
%TO.N,/IO25*%
X108050000Y-100750000D03*
%TO.P,U1,15,IO26*%
%TO.N,/IO26*%
X108050000Y-101250000D03*
%TO.P,U1,16,IO27*%
%TO.N,/IO27*%
X108050000Y-101750000D03*
%TO.P,U1,17,IO14*%
%TO.N,/MTMS*%
X108050000Y-102250000D03*
%TO.P,U1,18,IO12*%
%TO.N,/MTDI*%
X108050000Y-102750000D03*
%TO.P,U1,19,VDD3P3_RTC*%
%TO.N,+3V3*%
X108050000Y-103250000D03*
%TO.P,U1,20,IO13*%
%TO.N,/MTCK*%
X108050000Y-103750000D03*
%TO.P,U1,21,IO15*%
%TO.N,/MTDO*%
X108050000Y-104250000D03*
%TO.P,U1,22,IO2*%
%TO.N,/IO2*%
X108050000Y-104750000D03*
%TO.P,U1,23,IO0*%
%TO.N,/IO0*%
X108050000Y-105250000D03*
%TO.P,U1,24,IO4*%
%TO.N,/IO4*%
X108050000Y-105750000D03*
D15*
%TO.P,U1,25,IO16*%
%TO.N,unconnected-(U1-Pad25)*%
X108750000Y-106450000D03*
%TO.P,U1,26,VDD_SDIO*%
%TO.N,unconnected-(U1-Pad26)*%
X109250000Y-106450000D03*
%TO.P,U1,27,IO17*%
%TO.N,/IO17*%
X109750000Y-106450000D03*
%TO.P,U1,28,SD2/IO9*%
%TO.N,/IO9*%
X110250000Y-106450000D03*
%TO.P,U1,29,SD3/IO10*%
%TO.N,/IO10*%
X110750000Y-106450000D03*
%TO.P,U1,30,CMD*%
%TO.N,unconnected-(U1-Pad30)*%
X111250000Y-106450000D03*
%TO.P,U1,31,CLK*%
%TO.N,unconnected-(U1-Pad31)*%
X111750000Y-106450000D03*
%TO.P,U1,32,SD0*%
%TO.N,/SD0*%
X112250000Y-106450000D03*
%TO.P,U1,33,SD1*%
%TO.N,/SD1*%
X112750000Y-106450000D03*
%TO.P,U1,34,IO5*%
%TO.N,/IO5*%
X113250000Y-106450000D03*
%TO.P,U1,35,IO18*%
%TO.N,/IO18*%
X113750000Y-106450000D03*
%TO.P,U1,36,IO23*%
%TO.N,/IO23*%
X114250000Y-106450000D03*
D16*
%TO.P,U1,37,VDD3P3_CPU*%
%TO.N,+3V3*%
X114950000Y-105750000D03*
%TO.P,U1,38,IO19*%
%TO.N,/IO19*%
X114950000Y-105250000D03*
%TO.P,U1,39,IO22*%
%TO.N,/IO22*%
X114950000Y-104750000D03*
%TO.P,U1,40,U0RXD/IO3*%
%TO.N,/IO3*%
X114950000Y-104250000D03*
%TO.P,U1,41,U0TXD/IO1*%
%TO.N,/IO1*%
X114950000Y-103750000D03*
%TO.P,U1,42,IO21*%
%TO.N,/IO21*%
X114950000Y-103250000D03*
%TO.P,U1,43,VDDA*%
%TO.N,+3V3*%
X114950000Y-102750000D03*
%TO.P,U1,44,XTAL_N_NC*%
%TO.N,unconnected-(U1-Pad44)*%
X114950000Y-102250000D03*
%TO.P,U1,45,XTAL_P_NC*%
%TO.N,unconnected-(U1-Pad45)*%
X114950000Y-101750000D03*
%TO.P,U1,46,VDDA*%
%TO.N,+3V3*%
X114950000Y-101250000D03*
%TO.P,U1,47,CAP2_NC*%
%TO.N,unconnected-(U1-Pad47)*%
X114950000Y-100750000D03*
%TO.P,U1,48,CAP1_NC*%
%TO.N,unconnected-(U1-Pad48)*%
X114950000Y-100250000D03*
D17*
%TO.P,U1,49,GND*%
%TO.N,GND*%
X111500000Y-103000000D03*
%TD*%
D18*
%TO.P,AE1,2,Shield*%
%TO.N,GND*%
X118150000Y-95625000D03*
D19*
%TO.P,AE1,1,A*%
%TO.N,Net-(AE1-Pad1)*%
X116050000Y-95625000D03*
%TD*%
D10*
%TO.P,J5,1,Pin_1*%
%TO.N,/CAPN*%
X104000000Y-103500000D03*
D12*
X104500000Y-103500000D03*
%TD*%
D10*
%TO.P,J6,1,Pin_1*%
%TO.N,/SENS_VN*%
X104000000Y-102500000D03*
D12*
X104500000Y-102500000D03*
%TD*%
D10*
%TO.P,J16,1,Pin_1*%
%TO.N,/IO22*%
X119000000Y-98500000D03*
D11*
X118500000Y-98500000D03*
%TD*%
D20*
%TO.P,R1,1*%
%TO.N,+3V3*%
X109325000Y-98000000D03*
%TO.P,R1,2*%
%TO.N,/EN*%
X107675000Y-98000000D03*
%TD*%
D21*
%TO.P,J2,1,Pin_1*%
%TO.N,/MTDO*%
X107460000Y-108185000D03*
D22*
%TO.P,J2,2,Pin_2*%
%TO.N,/MTCK*%
X110000000Y-108185000D03*
%TO.P,J2,3,Pin_3*%
%TO.N,/MTDI*%
X112540000Y-108185000D03*
%TO.P,J2,4,Pin_4*%
%TO.N,/MTMS*%
X115080000Y-108185000D03*
%TD*%
D10*
%TO.P,J9,1,Pin_1*%
%TO.N,/SD1*%
X119000000Y-103500000D03*
D11*
X118500000Y-103500000D03*
%TD*%
D10*
%TO.P,J3,1,Pin_1*%
%TO.N,/SENS_VP*%
X104000000Y-97500000D03*
D12*
X104500000Y-97500000D03*
%TD*%
D10*
%TO.P,J21,1,Pin_1*%
%TO.N,/IO32*%
X104000000Y-100500000D03*
D12*
X104500000Y-100500000D03*
%TD*%
D10*
%TO.P,J4,1,Pin_1*%
%TO.N,/CAPP*%
X104000000Y-98500000D03*
D12*
X104500000Y-98500000D03*
%TD*%
D10*
%TO.P,J7,1,Pin_1*%
%TO.N,/IO17*%
X119000000Y-107500000D03*
D11*
X118500000Y-107500000D03*
%TD*%
D21*
%TO.P,J1,1,Pin_1*%
%TO.N,GND*%
X107460000Y-110725000D03*
D22*
%TO.P,J1,2,Pin_2*%
%TO.N,/IO1*%
X107460000Y-113265000D03*
%TO.P,J1,3,Pin_3*%
%TO.N,/IO2*%
X110000000Y-110725000D03*
%TO.P,J1,4,Pin_4*%
%TO.N,/IO4*%
X110000000Y-113265000D03*
%TO.P,J1,5,Pin_5*%
%TO.N,/IO0*%
X112540000Y-110725000D03*
%TO.P,J1,6,Pin_6*%
%TO.N,/EN*%
X112540000Y-113265000D03*
%TO.P,J1,7,Pin_7*%
%TO.N,/IO3*%
X115080000Y-110725000D03*
%TO.P,J1,8,Pin_8*%
%TO.N,+3V3*%
X115080000Y-113265000D03*
%TD*%
D23*
%TO.N,GND*%
X111250000Y-112750000D03*
X111250000Y-109750000D03*
X116500000Y-111000000D03*
X117072200Y-95427800D03*
X114822200Y-95427800D03*
X112496600Y-95427800D03*
X111072200Y-95427800D03*
X109270800Y-95427800D03*
X107822200Y-95427800D03*
X106822200Y-95427800D03*
X104500000Y-96000000D03*
X105572200Y-95427800D03*
X104500000Y-108500000D03*
X104500000Y-111500000D03*
X104500000Y-114500000D03*
X116750000Y-114500000D03*
X118500000Y-114500000D03*
X118500000Y-112750000D03*
%TO.N,/SD0*%
X117700500Y-110741379D03*
%TO.N,/IO5*%
X113744776Y-107649459D03*
%TO.N,/IO10*%
X117675498Y-107500000D03*
X117178605Y-110379611D03*
%TO.N,/CAPP*%
X112018504Y-98585338D03*
%TO.N,/SD0*%
X117273183Y-108471823D03*
%TO.N,/SENS_VP*%
X112668472Y-98685228D03*
%TO.N,/SD0*%
X111691359Y-107249500D03*
%TO.N,/IO17*%
X118100500Y-109600000D03*
%TO.N,/IO35*%
X108637107Y-98751298D03*
%TO.N,/IO5*%
X116200000Y-108900000D03*
%TO.N,/IO34*%
X109721076Y-98846187D03*
%TO.N,/IO32*%
X108153200Y-99314000D03*
%TO.N,/CAPN*%
X111388365Y-98615321D03*
%TO.N,/IO5*%
X115877458Y-107200000D03*
%TO.N,GND*%
X116027200Y-97586800D03*
X112600000Y-100900000D03*
X113868200Y-97231200D03*
X114579400Y-98094800D03*
X116484400Y-96926400D03*
X116586000Y-96164400D03*
X108508800Y-97256600D03*
X111500000Y-103000000D03*
X113600000Y-100900000D03*
X110500000Y-100900000D03*
X109600000Y-101800000D03*
X106500000Y-99000000D03*
X115519200Y-96164400D03*
X114000000Y-96000000D03*
X115214400Y-96799400D03*
X110000000Y-103100000D03*
X113100000Y-104600000D03*
X118500000Y-96500000D03*
X112800000Y-102400000D03*
X114503200Y-96926400D03*
X113474133Y-97657041D03*
X110200000Y-104600000D03*
X115316000Y-97917000D03*
X114300000Y-98729800D03*
%TO.N,/EN*%
X110133953Y-98374420D03*
X107725000Y-97227600D03*
%TO.N,+3V3*%
X110124000Y-97775000D03*
X113010360Y-97022906D03*
X106922571Y-103200000D03*
X115600000Y-105749500D03*
X115639885Y-102618660D03*
X115639885Y-101118660D03*
X115000000Y-99500000D03*
%TO.N,/IO1*%
X117000000Y-106600000D03*
X115653618Y-103660511D03*
%TO.N,/IO2*%
X107300000Y-104749500D03*
%TO.N,/IO0*%
X106922571Y-105215278D03*
%TO.N,/IO3*%
X115902665Y-104205835D03*
%TO.N,/MTDO*%
X106922571Y-104210679D03*
%TO.N,/MTCK*%
X107305606Y-103749500D03*
%TO.N,/MTDI*%
X107359644Y-102749500D03*
%TO.N,/MTMS*%
X107000000Y-102260453D03*
%TO.N,/SENS_VN*%
X110788082Y-98625893D03*
%TD*%
D24*
%TO.N,GND*%
X117072200Y-95427800D02*
X116624511Y-95427800D01*
X114822200Y-95427800D02*
X115475489Y-95427800D01*
X111072200Y-95427800D02*
X112496600Y-95427800D01*
X107822200Y-95427800D02*
X106822200Y-95427800D01*
X106822200Y-95427800D02*
X105572200Y-95427800D01*
X105572200Y-95427800D02*
X104165400Y-95427800D01*
D25*
%TO.N,/IO22*%
X114950000Y-104750000D02*
X114994654Y-104705346D01*
%TO.N,/IO21*%
X115848302Y-103149520D02*
X116139396Y-102858426D01*
%TO.N,/IO10*%
X112000000Y-109500000D02*
X111300000Y-108800000D01*
%TO.N,/IO17*%
X109750000Y-106869046D02*
X109469526Y-107149520D01*
%TO.N,/IO27*%
X105000000Y-107500000D02*
X106423071Y-106076929D01*
%TO.N,/IO18*%
X116499030Y-106154753D02*
X115954263Y-106699520D01*
%TO.N,/IO5*%
X113250000Y-106450000D02*
X113250000Y-107154683D01*
%TO.N,/IO35*%
X109250000Y-99550000D02*
X109250000Y-99095598D01*
%TO.N,/IO18*%
X114919526Y-106699520D02*
X114369546Y-107249500D01*
%TO.N,/IO22*%
X116538916Y-98961084D02*
X117000000Y-98500000D01*
%TO.N,/IO25*%
X106250000Y-100750000D02*
X108050000Y-100750000D01*
%TO.N,/SD0*%
X111869546Y-107249500D02*
X111691359Y-107249500D01*
%TO.N,/IO25*%
X105624031Y-104875969D02*
X105624031Y-101375969D01*
%TO.N,/IO18*%
X113750000Y-106869046D02*
X113750000Y-106450000D01*
%TO.N,/IO33*%
X105750000Y-100250000D02*
X108050000Y-100250000D01*
%TO.N,/IO10*%
X116298994Y-109500000D02*
X112000000Y-109500000D01*
%TO.N,/IO21*%
X115369046Y-103250000D02*
X115469526Y-103149520D01*
%TO.N,/IO10*%
X117178605Y-110379611D02*
X116298994Y-109500000D01*
%TO.N,/CAPN*%
X111250000Y-98833400D02*
X111250000Y-99550000D01*
%TO.N,/IO19*%
X115369046Y-105250000D02*
X115514180Y-105104866D01*
%TO.N,/CAPN*%
X111350480Y-98678330D02*
X111350480Y-98732920D01*
%TO.N,/IO26*%
X106023550Y-105041456D02*
X105500000Y-105565006D01*
X105500000Y-106000000D02*
X105000000Y-106500000D01*
%TO.N,/SD0*%
X112250000Y-106450000D02*
X112250000Y-106869046D01*
%TO.N,/IO17*%
X108850489Y-107411000D02*
X108850489Y-111276766D01*
%TO.N,/SD0*%
X117273183Y-109620227D02*
X117700500Y-110047544D01*
%TO.N,/CAPN*%
X111350480Y-98732920D02*
X111250000Y-98833400D01*
%TO.N,/IO19*%
X116938436Y-100061564D02*
X117500000Y-99500000D01*
%TO.N,/IO23*%
X117337956Y-100962044D02*
X117337956Y-104639833D01*
%TO.N,/IO5*%
X113250000Y-107154683D02*
X113744776Y-107649459D01*
%TO.N,/IO10*%
X110750000Y-107233723D02*
X110750000Y-106450000D01*
%TO.N,/IO17*%
X118100500Y-109600000D02*
X118200000Y-109699500D01*
%TO.N,/IO23*%
X117800000Y-100500000D02*
X117337956Y-100962044D01*
%TO.N,/IO22*%
X114994654Y-104705346D02*
X116142431Y-104705346D01*
%TO.N,/IO18*%
X115954263Y-106699520D02*
X114919526Y-106699520D01*
%TO.N,/IO23*%
X117337956Y-104639833D02*
X116099511Y-105878278D01*
%TO.N,/IO10*%
X117775489Y-107400009D02*
X117775489Y-105599511D01*
%TO.N,/IO17*%
X117481272Y-112000000D02*
X116500000Y-112000000D01*
%TO.N,/IO21*%
X116139396Y-102858426D02*
X116139396Y-98360604D01*
%TO.N,/IO17*%
X109469526Y-107149520D02*
X109111969Y-107149520D01*
%TO.N,/IO10*%
X111300000Y-108800000D02*
X111300000Y-107783723D01*
%TO.N,/IO19*%
X114950000Y-105250000D02*
X115369046Y-105250000D01*
%TO.N,/IO5*%
X116229511Y-108870489D02*
X116200000Y-108900000D01*
%TO.N,/IO32*%
X108389200Y-99550000D02*
X108153200Y-99314000D01*
%TO.N,/IO17*%
X108850489Y-111276766D02*
X109573723Y-112000000D01*
%TO.N,/IO27*%
X106750000Y-101750000D02*
X108050000Y-101750000D01*
%TO.N,/CAPP*%
X112018504Y-98585338D02*
X112018504Y-98691376D01*
%TO.N,/IO35*%
X109250000Y-99095598D02*
X108979882Y-98825480D01*
%TO.N,/SENS_VP*%
X112660370Y-98685228D02*
X112250000Y-99095598D01*
D24*
%TO.N,/IO34*%
X109750000Y-99550000D02*
X109750000Y-98875111D01*
D25*
%TO.N,/IO10*%
X117775489Y-105599511D02*
X117875000Y-105500000D01*
%TO.N,/IO26*%
X105000000Y-106500000D02*
X104500000Y-106500000D01*
X105500000Y-105565006D02*
X105500000Y-106000000D01*
%TO.N,/IO23*%
X115788777Y-106300000D02*
X114400000Y-106300000D01*
%TO.N,/IO18*%
X114369546Y-107249500D02*
X114130454Y-107249500D01*
%TO.N,/SD0*%
X117273183Y-108471823D02*
X117273183Y-109620227D01*
%TO.N,/CAPP*%
X111750000Y-98959880D02*
X111750000Y-99550000D01*
%TO.N,/IO25*%
X105000000Y-105500000D02*
X105100000Y-105400000D01*
%TO.N,/IO19*%
X116801696Y-103326138D02*
X116938436Y-103189398D01*
%TO.N,/IO25*%
X104500000Y-105500000D02*
X105000000Y-105500000D01*
%TO.N,/SD0*%
X112250000Y-106869046D02*
X111869546Y-107249500D01*
%TO.N,/IO23*%
X118500000Y-100500000D02*
X117800000Y-100500000D01*
%TO.N,/IO10*%
X111300000Y-107783723D02*
X110750000Y-107233723D01*
%TO.N,/IO17*%
X116500000Y-112000000D02*
X116800000Y-112000000D01*
%TO.N,/IO22*%
X117000000Y-98500000D02*
X118500000Y-98500000D01*
%TO.N,/IO19*%
X116938436Y-103189398D02*
X116938436Y-100061564D01*
%TO.N,/IO17*%
X109573723Y-112000000D02*
X116500000Y-112000000D01*
%TO.N,/IO19*%
X115514180Y-105104866D02*
X116307918Y-105104865D01*
%TO.N,/IO18*%
X114130454Y-107249500D02*
X113750000Y-106869046D01*
D24*
%TO.N,/IO34*%
X109750000Y-98875111D02*
X109721076Y-98846187D01*
D25*
%TO.N,/CAPN*%
X111287471Y-98615321D02*
X111350480Y-98678330D01*
D24*
%TO.N,/SENS_VP*%
X112668472Y-98685228D02*
X112660370Y-98685228D01*
D25*
%TO.N,/IO21*%
X115469526Y-103149520D02*
X115848302Y-103149520D01*
%TO.N,/IO33*%
X104500000Y-104500000D02*
X104889120Y-104500000D01*
%TO.N,/IO18*%
X117737475Y-104805320D02*
X116499030Y-106043765D01*
%TO.N,/IO19*%
X117500000Y-99500000D02*
X118500000Y-99500000D01*
%TO.N,/IO18*%
X116499030Y-106043765D02*
X116499030Y-106154753D01*
%TO.N,/IO33*%
X105224511Y-104164609D02*
X105224511Y-100775489D01*
%TO.N,/IO23*%
X116099511Y-105878278D02*
X116099511Y-105989266D01*
%TO.N,/IO5*%
X115900000Y-107300000D02*
X116229511Y-107629511D01*
%TO.N,/IO17*%
X118200000Y-109699500D02*
X118200000Y-111281272D01*
%TO.N,/IO26*%
X106315006Y-101250000D02*
X106023550Y-101541456D01*
%TO.N,/IO35*%
X108979882Y-98825480D02*
X108711289Y-98825480D01*
%TO.N,/IO27*%
X106423071Y-106076929D02*
X106423071Y-102076929D01*
%TO.N,/SD0*%
X117700500Y-110047544D02*
X117700500Y-110741379D01*
%TO.N,/IO18*%
X118500000Y-101500000D02*
X118100000Y-101500000D01*
%TO.N,/IO17*%
X109111969Y-107149520D02*
X108850489Y-107411000D01*
%TO.N,/IO32*%
X108526800Y-99550000D02*
X108389200Y-99550000D01*
%TO.N,/IO18*%
X114130454Y-107249500D02*
X114191359Y-107249500D01*
%TO.N,/IO5*%
X115900000Y-107222542D02*
X115900000Y-107300000D01*
%TO.N,/IO26*%
X106023550Y-101541456D02*
X106023550Y-105041456D01*
%TO.N,/IO33*%
X104889120Y-104500000D02*
X105224511Y-104164609D01*
%TO.N,/IO35*%
X108711289Y-98825480D02*
X108637107Y-98751298D01*
%TO.N,/IO5*%
X115877458Y-107200000D02*
X115900000Y-107222542D01*
%TO.N,/IO22*%
X116538916Y-103023912D02*
X116538916Y-98961084D01*
%TO.N,/IO27*%
X104500000Y-107500000D02*
X105000000Y-107500000D01*
%TO.N,/IO25*%
X105624031Y-101375969D02*
X106250000Y-100750000D01*
%TO.N,/IO32*%
X108750000Y-99550000D02*
X108526800Y-99550000D01*
%TO.N,/IO22*%
X116402176Y-104445601D02*
X116402176Y-103160652D01*
%TO.N,/IO19*%
X116801696Y-104611087D02*
X116801696Y-103326138D01*
%TO.N,/CAPP*%
X112018504Y-98691376D02*
X111750000Y-98959880D01*
%TO.N,/SENS_VP*%
X112250000Y-99095598D02*
X112250000Y-99550000D01*
%TO.N,/IO21*%
X117000000Y-97500000D02*
X118500000Y-97500000D01*
%TO.N,/IO5*%
X116229511Y-107629511D02*
X116229511Y-108870489D01*
%TO.N,/IO17*%
X109750000Y-106450000D02*
X109750000Y-106869046D01*
%TO.N,/IO23*%
X114400000Y-106300000D02*
X114250000Y-106450000D01*
%TO.N,/IO22*%
X116402176Y-103160652D02*
X116538916Y-103023912D01*
%TO.N,/IO27*%
X106423071Y-102076929D02*
X106750000Y-101750000D01*
%TO.N,/IO10*%
X117875000Y-105500000D02*
X118500000Y-105500000D01*
%TO.N,/IO18*%
X117737476Y-101862524D02*
X117737475Y-104805320D01*
%TO.N,/IO19*%
X116307918Y-105104865D02*
X116801696Y-104611087D01*
%TO.N,/IO17*%
X118200000Y-111281272D02*
X117481272Y-112000000D01*
%TO.N,/IO21*%
X116139396Y-98360604D02*
X117000000Y-97500000D01*
%TO.N,/IO23*%
X116099511Y-105989266D02*
X115788777Y-106300000D01*
%TO.N,/IO33*%
X105224511Y-100775489D02*
X105750000Y-100250000D01*
%TO.N,/IO18*%
X118100000Y-101500000D02*
X117737476Y-101862524D01*
%TO.N,/IO22*%
X116142431Y-104705346D02*
X116402176Y-104445601D01*
%TO.N,/IO21*%
X114950000Y-103250000D02*
X115369046Y-103250000D01*
%TO.N,/IO26*%
X108050000Y-101250000D02*
X106315006Y-101250000D01*
%TO.N,/IO10*%
X117675498Y-107500000D02*
X117775489Y-107400009D01*
%TO.N,/IO25*%
X105000000Y-105500000D02*
X105624031Y-104875969D01*
D24*
%TO.N,GND*%
X118150000Y-96350000D02*
X118000000Y-96500000D01*
X118150000Y-95625000D02*
X118150000Y-96350000D01*
X118150000Y-95625000D02*
X118347200Y-95427800D01*
X118150000Y-95438600D02*
X118139200Y-95427800D01*
X112500000Y-95431200D02*
X112496600Y-95427800D01*
X108508800Y-95427800D02*
X107822200Y-95427800D01*
X118846600Y-95427800D02*
X118874980Y-95456180D01*
X118874980Y-96125020D02*
X118500000Y-96500000D01*
X118150000Y-95625000D02*
X118150000Y-95438600D01*
X109367000Y-96500000D02*
X109642000Y-96225000D01*
X118347200Y-95427800D02*
X118846600Y-95427800D01*
X109270800Y-95427800D02*
X110998000Y-95427800D01*
X118874980Y-95456180D02*
X118874980Y-96125020D01*
X109275000Y-96500000D02*
X109275000Y-95432000D01*
X109270800Y-95427800D02*
X108508800Y-95427800D01*
X109642000Y-96225000D02*
X111000000Y-96225000D01*
X108508800Y-95427800D02*
X108508800Y-97256600D01*
X111000000Y-96225000D02*
X111000000Y-95429800D01*
X109275000Y-95432000D02*
X109270800Y-95427800D01*
X112500000Y-96225000D02*
X112500000Y-95431200D01*
X111000000Y-95429800D02*
X110998000Y-95427800D01*
X109275000Y-96500000D02*
X109367000Y-96500000D01*
X110998000Y-95427800D02*
X111072200Y-95427800D01*
X108508800Y-97256600D02*
X108508800Y-98094800D01*
X118139200Y-95427800D02*
X117072200Y-95427800D01*
X112496600Y-95427800D02*
X114822200Y-95427800D01*
%TO.N,Net-(AE1-Pad1)*%
X114985800Y-97409000D02*
X115011948Y-97409000D01*
X116050000Y-96374625D02*
X116050000Y-95625000D01*
X114096800Y-97790000D02*
X114118589Y-97768211D01*
X113750000Y-99550000D02*
X113750000Y-98627249D01*
X115747800Y-97104200D02*
G75*
G02*
X115011948Y-97409000I-735848J735842D01*
G01*
X116049999Y-96374625D02*
G75*
G02*
X115747799Y-97104199I-1031767J-3D01*
G01*
X114985800Y-97409000D02*
G75*
G03*
X114118589Y-97768211I-1J-1226418D01*
G01*
X114096800Y-97790000D02*
G75*
G03*
X113750000Y-98627249I837249J-837249D01*
G01*
%TO.N,/EN*%
X107725000Y-97227600D02*
X107725000Y-97950000D01*
D25*
X110261400Y-98501867D02*
X110133953Y-98374420D01*
D24*
X107725000Y-97950000D02*
X107675000Y-98000000D01*
D25*
X110261400Y-99538600D02*
X110261400Y-98501867D01*
X110250000Y-99550000D02*
X110261400Y-99538600D01*
D24*
X107725000Y-96500000D02*
X107725000Y-97227600D01*
%TO.N,+3V3*%
X112500000Y-97775000D02*
X112500000Y-97533266D01*
X113250000Y-98525000D02*
X112500000Y-97775000D01*
X109325000Y-98000000D02*
X109467200Y-98000000D01*
D25*
X114950000Y-99550000D02*
X115000000Y-99500000D01*
D24*
X109467200Y-98000000D02*
X109692200Y-97775000D01*
D25*
X106972571Y-103250000D02*
X106922571Y-103200000D01*
X115599500Y-105750000D02*
X114950000Y-105750000D01*
D24*
X113250000Y-99550000D02*
X112750000Y-99550000D01*
D25*
X114950000Y-102750000D02*
X115508545Y-102750000D01*
X114250000Y-99550000D02*
X114950000Y-99550000D01*
X114950000Y-101250000D02*
X115508545Y-101250000D01*
X115508545Y-102750000D02*
X115639885Y-102618660D01*
X108050000Y-103250000D02*
X107120867Y-103250000D01*
X107120867Y-103250000D02*
X106972571Y-103250000D01*
D24*
X112500000Y-97533266D02*
X113010360Y-97022906D01*
X110124000Y-97775000D02*
X111000000Y-97775000D01*
X112750000Y-98025000D02*
X112500000Y-97775000D01*
D25*
X115508545Y-101250000D02*
X115639885Y-101118660D01*
D24*
X109692200Y-97775000D02*
X110124000Y-97775000D01*
X111000000Y-97775000D02*
X112500000Y-97775000D01*
X113250000Y-99550000D02*
X113250000Y-98525000D01*
D25*
X115600000Y-105749500D02*
X115599500Y-105750000D01*
%TO.N,/IO1*%
X117175987Y-106775987D02*
X117175987Y-107739766D01*
X117435732Y-107999511D02*
X117599511Y-107999511D01*
X117175987Y-107739766D02*
X117435732Y-107999511D01*
X107565000Y-113265000D02*
X107460000Y-113265000D01*
X115564129Y-103750000D02*
X114950000Y-103750000D01*
X118600000Y-109000000D02*
X118600000Y-111446278D01*
X117000000Y-106600000D02*
X117175987Y-106775987D01*
X118600000Y-111446278D02*
X115631766Y-114414511D01*
X115653618Y-103660511D02*
X115564129Y-103750000D01*
X118600000Y-111446278D02*
X117423139Y-112623139D01*
X117599511Y-107999511D02*
X118600000Y-109000000D01*
X115631766Y-114414511D02*
X108714511Y-114414511D01*
X108714511Y-114414511D02*
X107565000Y-113265000D01*
%TO.N,/IO2*%
X108050000Y-104750000D02*
X107300500Y-104750000D01*
X107300500Y-104750000D02*
X107300000Y-104749500D01*
%TO.N,/IO4*%
X106310489Y-111814609D02*
X106611369Y-112115489D01*
X107315006Y-105750000D02*
X106310489Y-106754517D01*
X106310489Y-106754517D02*
X106310489Y-111814609D01*
X106611369Y-112115489D02*
X108850489Y-112115489D01*
X108850489Y-112115489D02*
X110000000Y-113265000D01*
X108050000Y-105750000D02*
X107315006Y-105750000D01*
%TO.N,/IO0*%
X106957293Y-105250000D02*
X106922571Y-105215278D01*
X108050000Y-105250000D02*
X106957293Y-105250000D01*
%TO.N,/IO3*%
X115858500Y-104250000D02*
X114950000Y-104250000D01*
X115902665Y-104205835D02*
X115858500Y-104250000D01*
%TO.N,/MTDO*%
X108050000Y-104250000D02*
X106961892Y-104250000D01*
X106961892Y-104250000D02*
X106922571Y-104210679D01*
%TO.N,/MTCK*%
X108050000Y-103750000D02*
X107306106Y-103750000D01*
X107306106Y-103750000D02*
X107305606Y-103749500D01*
%TO.N,/MTDI*%
X107360144Y-102750000D02*
X108050000Y-102750000D01*
X107359644Y-102749500D02*
X107360144Y-102750000D01*
%TO.N,/MTMS*%
X107000000Y-102260453D02*
X107010453Y-102250000D01*
X107010453Y-102250000D02*
X108050000Y-102250000D01*
%TO.N,/SENS_VN*%
X110744000Y-98669975D02*
X110744000Y-99544000D01*
D24*
X110788082Y-98625893D02*
X110750000Y-98663975D01*
D25*
X110744000Y-99544000D02*
X110750000Y-99550000D01*
X110750000Y-98663975D02*
X110744000Y-98669975D01*
%TD*%
%TA.AperFunction,Conductor*%
%TO.N,GND*%
G36*
X105955934Y-107065780D02*
G01*
X105999199Y-107109045D01*
X106009989Y-107153990D01*
X106009989Y-111762501D01*
X106009759Y-111765633D01*
X106008266Y-111769981D01*
X106008609Y-111779117D01*
X106009919Y-111814010D01*
X106009989Y-111817724D01*
X106009989Y-111841455D01*
X106010824Y-111845939D01*
X106011071Y-111848613D01*
X106011420Y-111853998D01*
X106012463Y-111881771D01*
X106016069Y-111890166D01*
X106016070Y-111890168D01*
X106017003Y-111892339D01*
X106023366Y-111913283D01*
X106025472Y-111924588D01*
X106030269Y-111932370D01*
X106030270Y-111932373D01*
X106039437Y-111947245D01*
X106046119Y-111960108D01*
X106056623Y-111984557D01*
X106061944Y-111991035D01*
X106065447Y-111994538D01*
X106078628Y-112011213D01*
X106079376Y-112012038D01*
X106084173Y-112019820D01*
X106091448Y-112025352D01*
X106091449Y-112025353D01*
X106106194Y-112036565D01*
X106116274Y-112045365D01*
X106362037Y-112291128D01*
X106364089Y-112293506D01*
X106366108Y-112297636D01*
X106372808Y-112303851D01*
X106398411Y-112327601D01*
X106401087Y-112330178D01*
X106417867Y-112346958D01*
X106421624Y-112349536D01*
X106423709Y-112351268D01*
X106427763Y-112354829D01*
X106441421Y-112367499D01*
X106441424Y-112367501D01*
X106448124Y-112373716D01*
X106456615Y-112377104D01*
X106456616Y-112377104D01*
X106458808Y-112377979D01*
X106478119Y-112388291D01*
X106480058Y-112389621D01*
X106487599Y-112394794D01*
X106496493Y-112396905D01*
X106496494Y-112396905D01*
X106513489Y-112400938D01*
X106527318Y-112405312D01*
X106545540Y-112412582D01*
X106545542Y-112412582D01*
X106552030Y-112415171D01*
X106560373Y-112415989D01*
X106565323Y-112415989D01*
X106586440Y-112418460D01*
X106587552Y-112418514D01*
X106596446Y-112420625D01*
X106596502Y-112420617D01*
X106648668Y-112440433D01*
X106682171Y-112491630D01*
X106679183Y-112552742D01*
X106662474Y-112581224D01*
X106592202Y-112664971D01*
X106592199Y-112664975D01*
X106589093Y-112668677D01*
X106489853Y-112849194D01*
X106427565Y-113045549D01*
X106404603Y-113250263D01*
X106421840Y-113455538D01*
X106423173Y-113460186D01*
X106423173Y-113460187D01*
X106474740Y-113640019D01*
X106478621Y-113653555D01*
X106572782Y-113836773D01*
X106700737Y-113998212D01*
X106857612Y-114131723D01*
X106861835Y-114134083D01*
X106861839Y-114134086D01*
X106955808Y-114186603D01*
X107037432Y-114232221D01*
X107042030Y-114233715D01*
X107228742Y-114294382D01*
X107228745Y-114294383D01*
X107233347Y-114295878D01*
X107437895Y-114320269D01*
X107442717Y-114319898D01*
X107442720Y-114319898D01*
X107638458Y-114304837D01*
X107638463Y-114304836D01*
X107643286Y-114304465D01*
X107841695Y-114249068D01*
X107965354Y-114186603D01*
X108025819Y-114177242D01*
X108079995Y-114204966D01*
X108465180Y-114590152D01*
X108467232Y-114592530D01*
X108469250Y-114596658D01*
X108475949Y-114602872D01*
X108501540Y-114626611D01*
X108504216Y-114629188D01*
X108506024Y-114630996D01*
X108533801Y-114685513D01*
X108524230Y-114745945D01*
X108480965Y-114789210D01*
X108436020Y-114800000D01*
X104299000Y-114800000D01*
X104240809Y-114781093D01*
X104204845Y-114731593D01*
X104200000Y-114701000D01*
X104200000Y-108199500D01*
X104218907Y-108141309D01*
X104268407Y-108105345D01*
X104299000Y-108100500D01*
X104783050Y-108100500D01*
X105079447Y-107804103D01*
X105108301Y-107785330D01*
X105109979Y-107785017D01*
X105117761Y-107780220D01*
X105117764Y-107780219D01*
X105132636Y-107771052D01*
X105145499Y-107764370D01*
X105169948Y-107753866D01*
X105176426Y-107748545D01*
X105179929Y-107745042D01*
X105196604Y-107731861D01*
X105197429Y-107731113D01*
X105205211Y-107726316D01*
X105221957Y-107704294D01*
X105230756Y-107694215D01*
X105840985Y-107083986D01*
X105895502Y-107056209D01*
X105955934Y-107065780D01*
G37*
%TD.AperFunction*%
%TA.AperFunction,Conductor*%
G36*
X118745945Y-111822047D02*
G01*
X118789210Y-111865312D01*
X118800000Y-111910257D01*
X118800000Y-114701000D01*
X118781093Y-114759191D01*
X118731593Y-114795155D01*
X118701000Y-114800000D01*
X115915506Y-114800000D01*
X115857315Y-114781093D01*
X115821351Y-114731593D01*
X115821351Y-114670407D01*
X115839339Y-114642623D01*
X115836977Y-114640827D01*
X115853722Y-114618806D01*
X115862522Y-114608726D01*
X118630996Y-111840253D01*
X118685513Y-111812476D01*
X118745945Y-111822047D01*
G37*
%TD.AperFunction*%
%TA.AperFunction,Conductor*%
G36*
X111840223Y-112319407D02*
G01*
X111876187Y-112368907D01*
X111876187Y-112430093D01*
X111844066Y-112476654D01*
X111801505Y-112510874D01*
X111789643Y-112525011D01*
X111672202Y-112664971D01*
X111672199Y-112664975D01*
X111669093Y-112668677D01*
X111569853Y-112849194D01*
X111507565Y-113045549D01*
X111484603Y-113250263D01*
X111501840Y-113455538D01*
X111503173Y-113460186D01*
X111503173Y-113460187D01*
X111554740Y-113640019D01*
X111558621Y-113653555D01*
X111652782Y-113836773D01*
X111655790Y-113840568D01*
X111745312Y-113953517D01*
X111766639Y-114010865D01*
X111750185Y-114069797D01*
X111702235Y-114107802D01*
X111667726Y-114114011D01*
X110871061Y-114114011D01*
X110812870Y-114095104D01*
X110776906Y-114045604D01*
X110776906Y-113984418D01*
X110796119Y-113950322D01*
X110859332Y-113877089D01*
X110862496Y-113873424D01*
X110885766Y-113832463D01*
X110961858Y-113698517D01*
X110961859Y-113698514D01*
X110964247Y-113694311D01*
X110979355Y-113648897D01*
X111027743Y-113503435D01*
X111027743Y-113503433D01*
X111029270Y-113498844D01*
X111034154Y-113460187D01*
X111054740Y-113297225D01*
X111055088Y-113294471D01*
X111055500Y-113265000D01*
X111055230Y-113262244D01*
X111035870Y-113064796D01*
X111035869Y-113064792D01*
X111035398Y-113059986D01*
X111032493Y-113050362D01*
X110977256Y-112867412D01*
X110975858Y-112862780D01*
X110879148Y-112680895D01*
X110748952Y-112521259D01*
X110693979Y-112475781D01*
X110661194Y-112424120D01*
X110665036Y-112363055D01*
X110704037Y-112315911D01*
X110757084Y-112300500D01*
X111782032Y-112300500D01*
X111840223Y-112319407D01*
G37*
%TD.AperFunction*%
%TA.AperFunction,Conductor*%
G36*
X116191706Y-109819407D02*
G01*
X116203519Y-109829496D01*
X116754024Y-110380001D01*
X116781801Y-110434517D01*
X116792952Y-110504917D01*
X116850549Y-110617958D01*
X116940258Y-110707667D01*
X116947195Y-110711202D01*
X116947197Y-110711203D01*
X117046359Y-110761728D01*
X117053299Y-110765264D01*
X117060993Y-110766483D01*
X117060994Y-110766483D01*
X117170909Y-110783892D01*
X117178605Y-110785111D01*
X117186301Y-110783892D01*
X117186304Y-110783892D01*
X117201129Y-110781544D01*
X117261561Y-110791116D01*
X117304825Y-110834380D01*
X117310491Y-110851818D01*
X117311221Y-110851581D01*
X117313628Y-110858991D01*
X117314847Y-110866685D01*
X117318383Y-110873625D01*
X117342108Y-110920187D01*
X117372444Y-110979726D01*
X117462153Y-111069435D01*
X117469090Y-111072970D01*
X117469092Y-111072971D01*
X117568254Y-111123496D01*
X117575194Y-111127032D01*
X117582888Y-111128251D01*
X117582889Y-111128251D01*
X117615425Y-111133404D01*
X117688950Y-111145050D01*
X117743466Y-111172826D01*
X117771243Y-111227343D01*
X117761672Y-111287775D01*
X117743466Y-111312834D01*
X117385796Y-111670504D01*
X117331279Y-111698281D01*
X117315792Y-111699500D01*
X115826447Y-111699500D01*
X115768256Y-111680593D01*
X115732292Y-111631093D01*
X115732292Y-111569907D01*
X115765497Y-111522487D01*
X115804071Y-111492350D01*
X115804076Y-111492345D01*
X115807893Y-111489363D01*
X115811055Y-111485700D01*
X115811060Y-111485695D01*
X115896471Y-111386745D01*
X115942496Y-111333424D01*
X115955763Y-111310071D01*
X116041858Y-111158517D01*
X116041859Y-111158514D01*
X116044247Y-111154311D01*
X116046720Y-111146879D01*
X116107743Y-110963435D01*
X116107743Y-110963433D01*
X116109270Y-110958844D01*
X116114154Y-110920187D01*
X116131668Y-110781544D01*
X116135088Y-110754471D01*
X116135500Y-110725000D01*
X116134055Y-110710263D01*
X116115870Y-110524796D01*
X116115869Y-110524792D01*
X116115398Y-110519986D01*
X116112945Y-110511859D01*
X116057256Y-110327412D01*
X116055858Y-110322780D01*
X115959148Y-110140895D01*
X115828952Y-109981259D01*
X115822331Y-109975781D01*
X115789546Y-109924122D01*
X115793386Y-109863057D01*
X115832387Y-109815912D01*
X115885435Y-109800500D01*
X116133515Y-109800500D01*
X116191706Y-109819407D01*
G37*
%TD.AperFunction*%
%TA.AperFunction,Conductor*%
G36*
X110946247Y-108801087D02*
G01*
X110992564Y-108841067D01*
X111001860Y-108864133D01*
X111001974Y-108867162D01*
X111005582Y-108875559D01*
X111005582Y-108875561D01*
X111006514Y-108877730D01*
X111012877Y-108898674D01*
X111014983Y-108909979D01*
X111019780Y-108917761D01*
X111019781Y-108917764D01*
X111028948Y-108932636D01*
X111035630Y-108945499D01*
X111046134Y-108969948D01*
X111051455Y-108976426D01*
X111054958Y-108979929D01*
X111068139Y-108996604D01*
X111068887Y-108997429D01*
X111073684Y-109005211D01*
X111080959Y-109010743D01*
X111080960Y-109010744D01*
X111095705Y-109021956D01*
X111105785Y-109030756D01*
X111750668Y-109675639D01*
X111752720Y-109678017D01*
X111754739Y-109682147D01*
X111761439Y-109688362D01*
X111787042Y-109712112D01*
X111789718Y-109714689D01*
X111806497Y-109731468D01*
X111810249Y-109734041D01*
X111812321Y-109735763D01*
X111816382Y-109739328D01*
X111836755Y-109758227D01*
X111845239Y-109761612D01*
X111849364Y-109764220D01*
X111888446Y-109811297D01*
X111892393Y-109872355D01*
X111858496Y-109925052D01*
X111801505Y-109970874D01*
X111789643Y-109985011D01*
X111672202Y-110124971D01*
X111672199Y-110124975D01*
X111669093Y-110128677D01*
X111569853Y-110309194D01*
X111568389Y-110313808D01*
X111568388Y-110313811D01*
X111540176Y-110402746D01*
X111507565Y-110505549D01*
X111507025Y-110510361D01*
X111507025Y-110510362D01*
X111485512Y-110702161D01*
X111484603Y-110710263D01*
X111490786Y-110783892D01*
X111498321Y-110873625D01*
X111501840Y-110915538D01*
X111503173Y-110920186D01*
X111503173Y-110920187D01*
X111546984Y-111072971D01*
X111558621Y-111113555D01*
X111652782Y-111296773D01*
X111780737Y-111458212D01*
X111784417Y-111461344D01*
X111784419Y-111461346D01*
X111859340Y-111525108D01*
X111891400Y-111577221D01*
X111886706Y-111638226D01*
X111847051Y-111684821D01*
X111795176Y-111699500D01*
X110746447Y-111699500D01*
X110688256Y-111680593D01*
X110652292Y-111631093D01*
X110652292Y-111569907D01*
X110685497Y-111522487D01*
X110724071Y-111492350D01*
X110724076Y-111492345D01*
X110727893Y-111489363D01*
X110731055Y-111485700D01*
X110731060Y-111485695D01*
X110816471Y-111386745D01*
X110862496Y-111333424D01*
X110875763Y-111310071D01*
X110961858Y-111158517D01*
X110961859Y-111158514D01*
X110964247Y-111154311D01*
X110966720Y-111146879D01*
X111027743Y-110963435D01*
X111027743Y-110963433D01*
X111029270Y-110958844D01*
X111034154Y-110920187D01*
X111051668Y-110781544D01*
X111055088Y-110754471D01*
X111055500Y-110725000D01*
X111054055Y-110710263D01*
X111035870Y-110524796D01*
X111035869Y-110524792D01*
X111035398Y-110519986D01*
X111032945Y-110511859D01*
X110977256Y-110327412D01*
X110975858Y-110322780D01*
X110879148Y-110140895D01*
X110748952Y-109981259D01*
X110744741Y-109977775D01*
X110593955Y-109853034D01*
X110593953Y-109853033D01*
X110590228Y-109849951D01*
X110459570Y-109779304D01*
X110413277Y-109754273D01*
X110413276Y-109754272D01*
X110409023Y-109751973D01*
X110288578Y-109714689D01*
X110216859Y-109692488D01*
X110216855Y-109692487D01*
X110212238Y-109691058D01*
X110207431Y-109690553D01*
X110207427Y-109690552D01*
X110012185Y-109670032D01*
X110012183Y-109670032D01*
X110007369Y-109669526D01*
X109940198Y-109675639D01*
X109807039Y-109687757D01*
X109807036Y-109687758D01*
X109802219Y-109688196D01*
X109797577Y-109689562D01*
X109797573Y-109689563D01*
X109609250Y-109744989D01*
X109609247Y-109744990D01*
X109604603Y-109746357D01*
X109600309Y-109748602D01*
X109426344Y-109839548D01*
X109426340Y-109839551D01*
X109422047Y-109841795D01*
X109418271Y-109844831D01*
X109418268Y-109844833D01*
X109395602Y-109863057D01*
X109312022Y-109930257D01*
X109254825Y-109951985D01*
X109195780Y-109935943D01*
X109157441Y-109888259D01*
X109150989Y-109853103D01*
X109150989Y-109056086D01*
X109169896Y-108997895D01*
X109219396Y-108961931D01*
X109280582Y-108961931D01*
X109314153Y-108980694D01*
X109397612Y-109051723D01*
X109401835Y-109054083D01*
X109401839Y-109054086D01*
X109455717Y-109084197D01*
X109577432Y-109152221D01*
X109582030Y-109153715D01*
X109768742Y-109214382D01*
X109768745Y-109214383D01*
X109773347Y-109215878D01*
X109977895Y-109240269D01*
X109982717Y-109239898D01*
X109982720Y-109239898D01*
X110178458Y-109224837D01*
X110178463Y-109224836D01*
X110183286Y-109224465D01*
X110381695Y-109169068D01*
X110412089Y-109153715D01*
X110561244Y-109078371D01*
X110561246Y-109078370D01*
X110565565Y-109076188D01*
X110727893Y-108949363D01*
X110832942Y-108827663D01*
X110885276Y-108795968D01*
X110946247Y-108801087D01*
G37*
%TD.AperFunction*%
%TA.AperFunction,Conductor*%
G36*
X117459191Y-95319707D02*
G01*
X117495155Y-95369207D01*
X117500000Y-95399800D01*
X117500000Y-95896919D01*
X117500069Y-95897224D01*
X117500113Y-95898013D01*
X117500103Y-95909268D01*
X117500104Y-95909271D01*
X117500094Y-95920417D01*
X117504919Y-95930466D01*
X117505320Y-95931300D01*
X117512594Y-95952131D01*
X117515279Y-95963900D01*
X117522227Y-95972619D01*
X117522631Y-95973126D01*
X117534454Y-95991973D01*
X117539565Y-96002616D01*
X117548269Y-96009577D01*
X117548271Y-96009579D01*
X117548991Y-96010154D01*
X117564580Y-96025769D01*
X117572105Y-96035212D01*
X117582145Y-96040055D01*
X117582148Y-96040057D01*
X117582738Y-96040341D01*
X117601557Y-96052191D01*
X117610778Y-96059565D01*
X117621644Y-96062064D01*
X117621647Y-96062065D01*
X117622543Y-96062271D01*
X117643359Y-96069581D01*
X117644192Y-96069983D01*
X117644195Y-96069984D01*
X117654234Y-96074826D01*
X117676631Y-96074845D01*
X117677425Y-96074891D01*
X117677899Y-96075000D01*
X118621919Y-96075000D01*
X118622224Y-96074931D01*
X118623013Y-96074887D01*
X118634268Y-96074897D01*
X118634271Y-96074896D01*
X118645417Y-96074906D01*
X118656303Y-96069679D01*
X118677123Y-96062408D01*
X118678972Y-96061986D01*
X118739911Y-96067471D01*
X118785987Y-96107728D01*
X118800000Y-96158504D01*
X118800000Y-96800500D01*
X118781093Y-96858691D01*
X118731593Y-96894655D01*
X118701000Y-96899500D01*
X118216950Y-96899500D01*
X117945946Y-97170504D01*
X117891429Y-97198281D01*
X117875942Y-97199500D01*
X117052108Y-97199500D01*
X117048976Y-97199270D01*
X117044628Y-97197777D01*
X117035492Y-97198120D01*
X117000599Y-97199430D01*
X116996885Y-97199500D01*
X116973154Y-97199500D01*
X116968670Y-97200335D01*
X116965996Y-97200582D01*
X116960611Y-97200931D01*
X116941971Y-97201631D01*
X116941970Y-97201631D01*
X116932838Y-97201974D01*
X116924443Y-97205580D01*
X116924441Y-97205581D01*
X116922270Y-97206514D01*
X116901326Y-97212877D01*
X116899832Y-97213156D01*
X116899008Y-97213309D01*
X116899007Y-97213309D01*
X116890021Y-97214983D01*
X116882239Y-97219780D01*
X116882236Y-97219781D01*
X116867364Y-97228948D01*
X116854501Y-97235630D01*
X116830052Y-97246134D01*
X116823574Y-97251455D01*
X116820071Y-97254958D01*
X116803396Y-97268139D01*
X116802571Y-97268887D01*
X116794789Y-97273684D01*
X116789257Y-97280959D01*
X116789256Y-97280960D01*
X116778044Y-97295705D01*
X116769244Y-97305785D01*
X115963752Y-98111276D01*
X115961378Y-98113325D01*
X115957249Y-98115343D01*
X115951032Y-98122045D01*
X115927296Y-98147633D01*
X115924719Y-98150309D01*
X115907927Y-98167101D01*
X115905348Y-98170860D01*
X115903619Y-98172941D01*
X115900056Y-98176998D01*
X115887386Y-98190656D01*
X115887384Y-98190659D01*
X115881169Y-98197359D01*
X115876908Y-98208040D01*
X115866593Y-98227357D01*
X115860092Y-98236833D01*
X115853945Y-98262735D01*
X115849579Y-98276538D01*
X115839714Y-98301265D01*
X115838896Y-98309608D01*
X115838896Y-98314558D01*
X115836425Y-98335677D01*
X115836371Y-98336787D01*
X115834260Y-98345681D01*
X115835493Y-98354738D01*
X115837992Y-98373104D01*
X115838896Y-98386454D01*
X115838896Y-100628767D01*
X115819989Y-100686958D01*
X115770489Y-100722922D01*
X115724410Y-100726548D01*
X115639885Y-100713160D01*
X115638848Y-100713324D01*
X115583903Y-100695472D01*
X115547939Y-100645972D01*
X115544996Y-100634692D01*
X115537002Y-100594504D01*
X115535100Y-100584941D01*
X115515095Y-100555001D01*
X115498487Y-100496113D01*
X115515095Y-100444999D01*
X115529683Y-100423166D01*
X115535100Y-100415059D01*
X115550500Y-100337637D01*
X115550500Y-100162363D01*
X115535100Y-100084941D01*
X115488693Y-100015487D01*
X115482424Y-100006105D01*
X115477005Y-99997995D01*
X115390059Y-99939900D01*
X115380497Y-99937998D01*
X115351887Y-99932307D01*
X115298504Y-99902410D01*
X115272888Y-99846844D01*
X115284825Y-99786835D01*
X115301198Y-99765205D01*
X115328056Y-99738347D01*
X115347151Y-99700872D01*
X115382117Y-99632246D01*
X115385653Y-99625306D01*
X115390551Y-99594386D01*
X115404281Y-99507696D01*
X115405500Y-99500000D01*
X115385653Y-99374694D01*
X115382117Y-99367754D01*
X115331592Y-99268592D01*
X115331591Y-99268590D01*
X115328056Y-99261653D01*
X115238347Y-99171944D01*
X115231410Y-99168409D01*
X115231408Y-99168408D01*
X115132246Y-99117883D01*
X115125306Y-99114347D01*
X115117612Y-99113128D01*
X115117611Y-99113128D01*
X115007696Y-99095719D01*
X115000000Y-99094500D01*
X114992304Y-99095719D01*
X114882389Y-99113128D01*
X114882388Y-99113128D01*
X114874694Y-99114347D01*
X114867754Y-99117883D01*
X114768592Y-99168408D01*
X114768590Y-99168409D01*
X114761653Y-99171944D01*
X114734795Y-99198802D01*
X114680278Y-99226579D01*
X114619846Y-99217008D01*
X114576581Y-99173743D01*
X114567693Y-99148113D01*
X114562002Y-99119503D01*
X114560100Y-99109941D01*
X114502005Y-99022995D01*
X114490769Y-99015487D01*
X114441262Y-98982408D01*
X114415059Y-98964900D01*
X114337637Y-98949500D01*
X114174500Y-98949500D01*
X114116309Y-98930593D01*
X114080345Y-98881093D01*
X114075500Y-98850500D01*
X114075500Y-98694727D01*
X114077516Y-98674849D01*
X114078722Y-98668965D01*
X114079591Y-98664725D01*
X114079802Y-98657117D01*
X114082585Y-98556385D01*
X114084449Y-98539807D01*
X114114490Y-98388777D01*
X114120124Y-98370204D01*
X114176760Y-98233473D01*
X114185908Y-98216358D01*
X114231828Y-98147633D01*
X114271455Y-98088327D01*
X114281860Y-98075285D01*
X114339336Y-98014543D01*
X114343256Y-98010626D01*
X114406875Y-97950518D01*
X114419863Y-97940164D01*
X114554931Y-97849914D01*
X114572047Y-97840765D01*
X114716454Y-97780949D01*
X114735027Y-97775315D01*
X114894363Y-97743622D01*
X114910868Y-97741760D01*
X114984422Y-97739673D01*
X114989502Y-97739759D01*
X114991752Y-97740099D01*
X115065626Y-97738276D01*
X115146418Y-97736283D01*
X115146423Y-97736282D01*
X115150696Y-97736177D01*
X115150776Y-97736161D01*
X115150859Y-97736159D01*
X115155040Y-97735327D01*
X115155043Y-97735327D01*
X115324471Y-97701626D01*
X115326494Y-97701382D01*
X115329392Y-97701764D01*
X115336622Y-97700161D01*
X115336623Y-97700161D01*
X115377354Y-97691131D01*
X115379469Y-97690686D01*
X115380011Y-97690578D01*
X115407047Y-97685201D01*
X115410948Y-97683684D01*
X115410954Y-97683682D01*
X115415037Y-97682777D01*
X115441041Y-97672006D01*
X115442924Y-97671249D01*
X115488807Y-97653407D01*
X115491006Y-97651478D01*
X115492828Y-97650555D01*
X115578580Y-97615036D01*
X115580512Y-97614403D01*
X115583431Y-97614212D01*
X115598938Y-97607389D01*
X115628418Y-97594418D01*
X115630404Y-97593570D01*
X115652374Y-97584470D01*
X115652375Y-97584469D01*
X115656362Y-97582818D01*
X115659886Y-97580574D01*
X115659901Y-97580565D01*
X115663726Y-97578882D01*
X115667312Y-97576486D01*
X115687138Y-97563239D01*
X115688944Y-97562061D01*
X115690228Y-97561243D01*
X115730347Y-97535684D01*
X115732127Y-97533364D01*
X115733727Y-97532108D01*
X115809996Y-97481147D01*
X115877216Y-97436232D01*
X115877219Y-97436230D01*
X115880912Y-97433762D01*
X115880972Y-97433704D01*
X115881042Y-97433658D01*
X115891689Y-97423524D01*
X115923329Y-97393406D01*
X115956698Y-97361644D01*
X115960904Y-97358116D01*
X115960866Y-97358073D01*
X115964108Y-97355215D01*
X115967590Y-97352648D01*
X115970570Y-97349518D01*
X115970575Y-97349514D01*
X115979858Y-97339765D01*
X115983295Y-97336329D01*
X115993067Y-97327027D01*
X115993073Y-97327021D01*
X115996204Y-97324040D01*
X115998771Y-97320560D01*
X116001627Y-97317322D01*
X116001669Y-97317359D01*
X116005208Y-97313143D01*
X116056413Y-97259369D01*
X116076630Y-97238138D01*
X116076694Y-97238042D01*
X116076776Y-97237956D01*
X116082954Y-97228711D01*
X116140471Y-97142630D01*
X116174153Y-97092222D01*
X116175412Y-97090618D01*
X116177731Y-97088839D01*
X116181709Y-97082595D01*
X116181712Y-97082591D01*
X116204137Y-97047392D01*
X116205317Y-97045584D01*
X116218523Y-97025820D01*
X116218527Y-97025813D01*
X116220929Y-97022218D01*
X116222616Y-97018385D01*
X116224865Y-97014854D01*
X116235626Y-96988873D01*
X116236474Y-96986888D01*
X116253278Y-96948699D01*
X116253279Y-96948695D01*
X116256259Y-96941923D01*
X116256450Y-96939008D01*
X116257086Y-96937066D01*
X116291936Y-96852929D01*
X116292859Y-96851107D01*
X116294787Y-96848908D01*
X116312604Y-96803091D01*
X116313408Y-96801089D01*
X116322504Y-96779129D01*
X116324158Y-96775136D01*
X116325064Y-96771049D01*
X116326581Y-96767148D01*
X116332062Y-96739591D01*
X116332507Y-96737477D01*
X116341542Y-96696724D01*
X116341542Y-96696720D01*
X116343145Y-96689492D01*
X116342763Y-96686592D01*
X116343007Y-96684569D01*
X116364677Y-96575627D01*
X116377201Y-96512667D01*
X116377204Y-96512547D01*
X116377226Y-96512436D01*
X116381095Y-96354363D01*
X116376613Y-96324721D01*
X116375500Y-96309920D01*
X116375500Y-96121474D01*
X116394407Y-96063283D01*
X116412873Y-96043994D01*
X116417566Y-96040261D01*
X116427616Y-96035435D01*
X116430740Y-96031529D01*
X116431797Y-96031134D01*
X116433808Y-96029123D01*
X116433287Y-96028344D01*
X116437204Y-96025727D01*
X116437205Y-96025726D01*
X116445310Y-96020310D01*
X116453227Y-96008461D01*
X116453971Y-96008958D01*
X116454620Y-96008309D01*
X116455454Y-96006686D01*
X116460212Y-96002895D01*
X116465343Y-95992258D01*
X116477192Y-95973442D01*
X116484565Y-95964222D01*
X116485498Y-95960165D01*
X116489857Y-95953641D01*
X116491759Y-95944079D01*
X116492565Y-95942133D01*
X116492702Y-95941724D01*
X116492494Y-95941676D01*
X116494984Y-95930805D01*
X116499826Y-95920766D01*
X116499836Y-95909618D01*
X116500446Y-95906953D01*
X116501735Y-95893931D01*
X116504552Y-95879767D01*
X116504552Y-95879764D01*
X116505500Y-95875000D01*
X116505500Y-95399800D01*
X116524407Y-95341609D01*
X116573907Y-95305645D01*
X116604500Y-95300800D01*
X117401000Y-95300800D01*
X117459191Y-95319707D01*
G37*
%TD.AperFunction*%
%TA.AperFunction,Conductor*%
G36*
X110230671Y-95319707D02*
G01*
X110266635Y-95369207D01*
X110266635Y-95430393D01*
X110244352Y-95467884D01*
X110163012Y-95553749D01*
X110156174Y-95562889D01*
X110107000Y-95647550D01*
X110061424Y-95688372D01*
X110000557Y-95694609D01*
X109953309Y-95669698D01*
X109946251Y-95663012D01*
X109937110Y-95656174D01*
X109799251Y-95576099D01*
X109788772Y-95571543D01*
X109635551Y-95525137D01*
X109625627Y-95523212D01*
X109558218Y-95517196D01*
X109553817Y-95517000D01*
X109544680Y-95517000D01*
X109531995Y-95521122D01*
X109529000Y-95525243D01*
X109529000Y-96655000D01*
X109510093Y-96713191D01*
X109460593Y-96749155D01*
X109430000Y-96754000D01*
X109120000Y-96754000D01*
X109061809Y-96735093D01*
X109025845Y-96685593D01*
X109021000Y-96655000D01*
X109021000Y-95532680D01*
X109016878Y-95519995D01*
X109012757Y-95517000D01*
X109009980Y-95517000D01*
X109004268Y-95517332D01*
X108885940Y-95531128D01*
X108874812Y-95533758D01*
X108724962Y-95588151D01*
X108714741Y-95593269D01*
X108581423Y-95680677D01*
X108572653Y-95688009D01*
X108463012Y-95803750D01*
X108456174Y-95812889D01*
X108395156Y-95917941D01*
X108349579Y-95958763D01*
X108288713Y-95964999D01*
X108239545Y-95938221D01*
X108203042Y-95901718D01*
X108196105Y-95898183D01*
X108196103Y-95898182D01*
X108089972Y-95844106D01*
X108089971Y-95844106D01*
X108083032Y-95840570D01*
X108075338Y-95839351D01*
X108075337Y-95839351D01*
X107985415Y-95825109D01*
X107985413Y-95825109D01*
X107981569Y-95824500D01*
X107468431Y-95824500D01*
X107464587Y-95825109D01*
X107464585Y-95825109D01*
X107374663Y-95839351D01*
X107374662Y-95839351D01*
X107366968Y-95840570D01*
X107360029Y-95844106D01*
X107360028Y-95844106D01*
X107253897Y-95898182D01*
X107253895Y-95898183D01*
X107246958Y-95901718D01*
X107151718Y-95996958D01*
X107148183Y-96003895D01*
X107148182Y-96003897D01*
X107111954Y-96075000D01*
X107090570Y-96116968D01*
X107074500Y-96218431D01*
X107074500Y-96781569D01*
X107075109Y-96785413D01*
X107075109Y-96785415D01*
X107088289Y-96868628D01*
X107090570Y-96883032D01*
X107094106Y-96889971D01*
X107094106Y-96889972D01*
X107147846Y-96995442D01*
X107151718Y-97003042D01*
X107246958Y-97098282D01*
X107253895Y-97101817D01*
X107253897Y-97101818D01*
X107268947Y-97109486D01*
X107312212Y-97152751D01*
X107321783Y-97213181D01*
X107320719Y-97219900D01*
X107320719Y-97219904D01*
X107319500Y-97227600D01*
X107322436Y-97246134D01*
X107326880Y-97274195D01*
X107317309Y-97334627D01*
X107274045Y-97377891D01*
X107243595Y-97393406D01*
X107243591Y-97393409D01*
X107236653Y-97396944D01*
X107146944Y-97486653D01*
X107143409Y-97493590D01*
X107143408Y-97493592D01*
X107098838Y-97581067D01*
X107089347Y-97599694D01*
X107088128Y-97607388D01*
X107088128Y-97607389D01*
X107075948Y-97684289D01*
X107074500Y-97693432D01*
X107074500Y-98306568D01*
X107075109Y-98310412D01*
X107075109Y-98310414D01*
X107085039Y-98373104D01*
X107089347Y-98400306D01*
X107092883Y-98407246D01*
X107132539Y-98485075D01*
X107146944Y-98513347D01*
X107236653Y-98603056D01*
X107243590Y-98606591D01*
X107243592Y-98606592D01*
X107299606Y-98635132D01*
X107349694Y-98660653D01*
X107357388Y-98661872D01*
X107357389Y-98661872D01*
X107439586Y-98674891D01*
X107439588Y-98674891D01*
X107443432Y-98675500D01*
X107906568Y-98675500D01*
X107910412Y-98674891D01*
X107910414Y-98674891D01*
X107992611Y-98661872D01*
X107992612Y-98661872D01*
X108000306Y-98660653D01*
X108050394Y-98635132D01*
X108094408Y-98612706D01*
X108154840Y-98603135D01*
X108209357Y-98630913D01*
X108237134Y-98685429D01*
X108237134Y-98716403D01*
X108231607Y-98751298D01*
X108238566Y-98795233D01*
X108228995Y-98855663D01*
X108185731Y-98898928D01*
X108152931Y-98906803D01*
X108153200Y-98908500D01*
X108035589Y-98927128D01*
X108035588Y-98927128D01*
X108027894Y-98928347D01*
X108020954Y-98931883D01*
X107921792Y-98982408D01*
X107921790Y-98982409D01*
X107914853Y-98985944D01*
X107825144Y-99075653D01*
X107821609Y-99082590D01*
X107821608Y-99082592D01*
X107775165Y-99173743D01*
X107767547Y-99188694D01*
X107766328Y-99196388D01*
X107766328Y-99196389D01*
X107756863Y-99256147D01*
X107747700Y-99314000D01*
X107767547Y-99439306D01*
X107771083Y-99446246D01*
X107819643Y-99541550D01*
X107825144Y-99552347D01*
X107914853Y-99642056D01*
X107921790Y-99645591D01*
X107921792Y-99645592D01*
X108020952Y-99696116D01*
X108027894Y-99699653D01*
X108035590Y-99700872D01*
X108095837Y-99710415D01*
X108147675Y-99735614D01*
X108166330Y-99752918D01*
X108196135Y-99806353D01*
X108188839Y-99867102D01*
X108147229Y-99911960D01*
X108099004Y-99924500D01*
X107687363Y-99924500D01*
X107652144Y-99931505D01*
X107619501Y-99937998D01*
X107619499Y-99937999D01*
X107609941Y-99939900D01*
X107605548Y-99942835D01*
X107572042Y-99949500D01*
X105802109Y-99949500D01*
X105798977Y-99949270D01*
X105794629Y-99947777D01*
X105785493Y-99948120D01*
X105750600Y-99949430D01*
X105746886Y-99949500D01*
X105723154Y-99949500D01*
X105718670Y-99950335D01*
X105715996Y-99950582D01*
X105710611Y-99950931D01*
X105691971Y-99951631D01*
X105691970Y-99951631D01*
X105682838Y-99951974D01*
X105674443Y-99955580D01*
X105674441Y-99955581D01*
X105672270Y-99956514D01*
X105651326Y-99962877D01*
X105649832Y-99963156D01*
X105649008Y-99963309D01*
X105649007Y-99963309D01*
X105640021Y-99964983D01*
X105632239Y-99969780D01*
X105632236Y-99969781D01*
X105617364Y-99978948D01*
X105604501Y-99985630D01*
X105580052Y-99996134D01*
X105573574Y-100001455D01*
X105570071Y-100004958D01*
X105553395Y-100018139D01*
X105552568Y-100018889D01*
X105544789Y-100023684D01*
X105539258Y-100030958D01*
X105528038Y-100045713D01*
X105519236Y-100055793D01*
X105269503Y-100305525D01*
X105214987Y-100333302D01*
X105154555Y-100323731D01*
X105111290Y-100280466D01*
X105100500Y-100235521D01*
X105100500Y-100216950D01*
X104953554Y-100070004D01*
X104925777Y-100015487D01*
X104935348Y-99955055D01*
X104953554Y-99929996D01*
X105100500Y-99783050D01*
X105100500Y-99216950D01*
X104953554Y-99070004D01*
X104925777Y-99015487D01*
X104935348Y-98955055D01*
X104953554Y-98929996D01*
X105100500Y-98783050D01*
X105100500Y-98216950D01*
X104953554Y-98070004D01*
X104925777Y-98015487D01*
X104935348Y-97955055D01*
X104953554Y-97929996D01*
X105100500Y-97783050D01*
X105100500Y-97216950D01*
X104783050Y-96899500D01*
X104299000Y-96899500D01*
X104240809Y-96880593D01*
X104204845Y-96831093D01*
X104200000Y-96800500D01*
X104200000Y-95399800D01*
X104218907Y-95341609D01*
X104268407Y-95305645D01*
X104299000Y-95300800D01*
X110172480Y-95300800D01*
X110230671Y-95319707D01*
G37*
%TD.AperFunction*%
%TA.AperFunction,Conductor*%
G36*
X108352028Y-97046039D02*
G01*
X108387727Y-97082011D01*
X108390114Y-97080446D01*
X108480677Y-97218577D01*
X108488009Y-97227347D01*
X108603750Y-97336988D01*
X108612890Y-97343826D01*
X108730041Y-97411873D01*
X108770863Y-97457450D01*
X108777099Y-97518317D01*
X108768527Y-97542424D01*
X108739347Y-97599694D01*
X108738128Y-97607388D01*
X108738128Y-97607389D01*
X108725948Y-97684289D01*
X108724500Y-97693432D01*
X108724500Y-98248017D01*
X108705593Y-98306208D01*
X108656093Y-98342172D01*
X108637011Y-98345194D01*
X108637107Y-98345798D01*
X108519496Y-98364426D01*
X108519495Y-98364426D01*
X108511801Y-98365645D01*
X108504861Y-98369181D01*
X108417699Y-98413592D01*
X108357267Y-98423163D01*
X108302750Y-98395385D01*
X108274973Y-98340869D01*
X108274973Y-98314317D01*
X108274586Y-98314287D01*
X108274891Y-98310414D01*
X108275500Y-98306568D01*
X108275500Y-97693432D01*
X108274052Y-97684289D01*
X108261872Y-97607389D01*
X108261872Y-97607388D01*
X108260653Y-97599694D01*
X108251162Y-97581067D01*
X108206592Y-97493592D01*
X108206591Y-97493590D01*
X108203056Y-97486653D01*
X108140668Y-97424265D01*
X108112891Y-97369748D01*
X108112891Y-97338776D01*
X108130500Y-97227600D01*
X108129281Y-97219904D01*
X108129281Y-97219900D01*
X108128217Y-97213181D01*
X108137789Y-97152749D01*
X108181053Y-97109486D01*
X108196103Y-97101818D01*
X108196105Y-97101817D01*
X108203042Y-97098282D01*
X108237079Y-97064245D01*
X108291596Y-97036468D01*
X108352028Y-97046039D01*
G37*
%TD.AperFunction*%
%TA.AperFunction,Conductor*%
G36*
X115553691Y-95319707D02*
G01*
X115589655Y-95369207D01*
X115594500Y-95399800D01*
X115594500Y-95875000D01*
X115595447Y-95879763D01*
X115595448Y-95879769D01*
X115598198Y-95893595D01*
X115599456Y-95906417D01*
X115600104Y-95909268D01*
X115600094Y-95920417D01*
X115604919Y-95930466D01*
X115607389Y-95941338D01*
X115607225Y-95941375D01*
X115607658Y-95942672D01*
X115608241Y-95944079D01*
X115610143Y-95953641D01*
X115614388Y-95959994D01*
X115615279Y-95963900D01*
X115622227Y-95972619D01*
X115622632Y-95973127D01*
X115634451Y-95991967D01*
X115639565Y-96002616D01*
X115643470Y-96005739D01*
X115643865Y-96006795D01*
X115645877Y-96008808D01*
X115646656Y-96008287D01*
X115647904Y-96010154D01*
X115654690Y-96020310D01*
X115666539Y-96028227D01*
X115666042Y-96028971D01*
X115666690Y-96029619D01*
X115668313Y-96030453D01*
X115672105Y-96035212D01*
X115682145Y-96040055D01*
X115687266Y-96044143D01*
X115720946Y-96095224D01*
X115724500Y-96121512D01*
X115724500Y-96307448D01*
X115722546Y-96327019D01*
X115720293Y-96338191D01*
X115720187Y-96342518D01*
X115720187Y-96342519D01*
X115718024Y-96430922D01*
X115716152Y-96447811D01*
X115703227Y-96512790D01*
X115692067Y-96568894D01*
X115686433Y-96587464D01*
X115641219Y-96696621D01*
X115632071Y-96713736D01*
X115593085Y-96772082D01*
X115563484Y-96816383D01*
X115552864Y-96829651D01*
X115515749Y-96868628D01*
X115512310Y-96872067D01*
X115472622Y-96909844D01*
X115459368Y-96920450D01*
X115355243Y-96990025D01*
X115338126Y-96999174D01*
X115227366Y-97045052D01*
X115208794Y-97050686D01*
X115085966Y-97075117D01*
X115069095Y-97076989D01*
X115013332Y-97078365D01*
X115007768Y-97078270D01*
X115004771Y-97077829D01*
X114887020Y-97081170D01*
X114842536Y-97082432D01*
X114841887Y-97082448D01*
X114838847Y-97082514D01*
X114828680Y-97082736D01*
X114828158Y-97082840D01*
X114827625Y-97082855D01*
X114823699Y-97083663D01*
X114823697Y-97083663D01*
X114814629Y-97085529D01*
X114813991Y-97085658D01*
X114619350Y-97124374D01*
X114617328Y-97124618D01*
X114614428Y-97124236D01*
X114566461Y-97134870D01*
X114564387Y-97135307D01*
X114536774Y-97140799D01*
X114532876Y-97142315D01*
X114532864Y-97142318D01*
X114528784Y-97143223D01*
X114524789Y-97144878D01*
X114524779Y-97144881D01*
X114502794Y-97153988D01*
X114500802Y-97154789D01*
X114455015Y-97172594D01*
X114452817Y-97174522D01*
X114451002Y-97175441D01*
X114378240Y-97205581D01*
X114331607Y-97224897D01*
X114329665Y-97225533D01*
X114326746Y-97225724D01*
X114319958Y-97228711D01*
X114281766Y-97245516D01*
X114279778Y-97246365D01*
X114257819Y-97255461D01*
X114253814Y-97257120D01*
X114250284Y-97259369D01*
X114246452Y-97261055D01*
X114242865Y-97263452D01*
X114242859Y-97263455D01*
X114229447Y-97272417D01*
X114223047Y-97276693D01*
X114221306Y-97277829D01*
X114179829Y-97304254D01*
X114178050Y-97306572D01*
X114176443Y-97307834D01*
X114011399Y-97418113D01*
X114010941Y-97418416D01*
X114003187Y-97423524D01*
X114003183Y-97423528D01*
X113999815Y-97425746D01*
X113999428Y-97426112D01*
X113998986Y-97426407D01*
X113996082Y-97429187D01*
X113989411Y-97435573D01*
X113988941Y-97436020D01*
X113877550Y-97541264D01*
X113877341Y-97541043D01*
X113876611Y-97541961D01*
X113876226Y-97542247D01*
X113873830Y-97544779D01*
X113871002Y-97547451D01*
X113870982Y-97547430D01*
X113870896Y-97547480D01*
X113870033Y-97548246D01*
X113869881Y-97548075D01*
X113869335Y-97548395D01*
X113869901Y-97548931D01*
X113766182Y-97658544D01*
X113765786Y-97658959D01*
X113760568Y-97664410D01*
X113760564Y-97664415D01*
X113757787Y-97667316D01*
X113757559Y-97667657D01*
X113757280Y-97667952D01*
X113755081Y-97671285D01*
X113750969Y-97677517D01*
X113750652Y-97677994D01*
X113643826Y-97837872D01*
X113642568Y-97839474D01*
X113640250Y-97841253D01*
X113636275Y-97847492D01*
X113636273Y-97847495D01*
X113613858Y-97882681D01*
X113612677Y-97884490D01*
X113597051Y-97907876D01*
X113595365Y-97911708D01*
X113593116Y-97915238D01*
X113587003Y-97929996D01*
X113582364Y-97941195D01*
X113581517Y-97943177D01*
X113578287Y-97950518D01*
X113561720Y-97988171D01*
X113561529Y-97991086D01*
X113560893Y-97993028D01*
X113514619Y-98104744D01*
X113513696Y-98106566D01*
X113511768Y-98108765D01*
X113505810Y-98124086D01*
X113467099Y-98171468D01*
X113407931Y-98187047D01*
X113350905Y-98164872D01*
X113343537Y-98158210D01*
X113204496Y-98019169D01*
X113176719Y-97964652D01*
X113175500Y-97949165D01*
X113175500Y-97518431D01*
X113167675Y-97469025D01*
X113177246Y-97408593D01*
X113220512Y-97365328D01*
X113241766Y-97354499D01*
X113241768Y-97354498D01*
X113248707Y-97350962D01*
X113338416Y-97261253D01*
X113342544Y-97253153D01*
X113392477Y-97155152D01*
X113396013Y-97148212D01*
X113397321Y-97139957D01*
X113414641Y-97030602D01*
X113415860Y-97022906D01*
X113405542Y-96957761D01*
X113397232Y-96905295D01*
X113397232Y-96905294D01*
X113396013Y-96897600D01*
X113392477Y-96890660D01*
X113390068Y-96883246D01*
X113391756Y-96882698D01*
X113383686Y-96831769D01*
X113395861Y-96797525D01*
X113423901Y-96749251D01*
X113428457Y-96738772D01*
X113474863Y-96585551D01*
X113476788Y-96575627D01*
X113482804Y-96508218D01*
X113483000Y-96503817D01*
X113483000Y-96494680D01*
X113478878Y-96481995D01*
X113474757Y-96479000D01*
X110845000Y-96479000D01*
X110786809Y-96460093D01*
X110750845Y-96410593D01*
X110746000Y-96380000D01*
X110746000Y-96070000D01*
X110764907Y-96011809D01*
X110814407Y-95975845D01*
X110845000Y-95971000D01*
X113467320Y-95971000D01*
X113480005Y-95966878D01*
X113483000Y-95962757D01*
X113483000Y-95959980D01*
X113482668Y-95954268D01*
X113468872Y-95835940D01*
X113466242Y-95824812D01*
X113411849Y-95674962D01*
X113406731Y-95664741D01*
X113319323Y-95531423D01*
X113311991Y-95522653D01*
X113258174Y-95471672D01*
X113228932Y-95417926D01*
X113236865Y-95357258D01*
X113278943Y-95312838D01*
X113326258Y-95300800D01*
X115495500Y-95300800D01*
X115553691Y-95319707D01*
G37*
%TD.AperFunction*%
%TD*%
%TA.AperFunction,Conductor*%
%TO.N,GND*%
G36*
X105955934Y-107065780D02*
G01*
X105999199Y-107109045D01*
X106009989Y-107153990D01*
X106009989Y-111762501D01*
X106009759Y-111765633D01*
X106008266Y-111769981D01*
X106008609Y-111779117D01*
X106009919Y-111814010D01*
X106009989Y-111817724D01*
X106009989Y-111841455D01*
X106010824Y-111845939D01*
X106011071Y-111848613D01*
X106011420Y-111853998D01*
X106012463Y-111881771D01*
X106016069Y-111890166D01*
X106016070Y-111890168D01*
X106017003Y-111892339D01*
X106023366Y-111913283D01*
X106025472Y-111924588D01*
X106030269Y-111932370D01*
X106030270Y-111932373D01*
X106039437Y-111947245D01*
X106046119Y-111960108D01*
X106056623Y-111984557D01*
X106061944Y-111991035D01*
X106065447Y-111994538D01*
X106078628Y-112011213D01*
X106079376Y-112012038D01*
X106084173Y-112019820D01*
X106091448Y-112025352D01*
X106091449Y-112025353D01*
X106106194Y-112036565D01*
X106116274Y-112045365D01*
X106362037Y-112291128D01*
X106364089Y-112293506D01*
X106366108Y-112297636D01*
X106372808Y-112303851D01*
X106398411Y-112327601D01*
X106401087Y-112330178D01*
X106417867Y-112346958D01*
X106421624Y-112349536D01*
X106423709Y-112351268D01*
X106427763Y-112354829D01*
X106441421Y-112367499D01*
X106441424Y-112367501D01*
X106448124Y-112373716D01*
X106456615Y-112377104D01*
X106456616Y-112377104D01*
X106458808Y-112377979D01*
X106478119Y-112388291D01*
X106480058Y-112389621D01*
X106487599Y-112394794D01*
X106496493Y-112396905D01*
X106496494Y-112396905D01*
X106513489Y-112400938D01*
X106527318Y-112405312D01*
X106545540Y-112412582D01*
X106545542Y-112412582D01*
X106552030Y-112415171D01*
X106560373Y-112415989D01*
X106565323Y-112415989D01*
X106586440Y-112418460D01*
X106587552Y-112418514D01*
X106596446Y-112420625D01*
X106596502Y-112420617D01*
X106648668Y-112440433D01*
X106682171Y-112491630D01*
X106679183Y-112552742D01*
X106662474Y-112581224D01*
X106592202Y-112664971D01*
X106592199Y-112664975D01*
X106589093Y-112668677D01*
X106489853Y-112849194D01*
X106427565Y-113045549D01*
X106404603Y-113250263D01*
X106421840Y-113455538D01*
X106423173Y-113460186D01*
X106423173Y-113460187D01*
X106474740Y-113640019D01*
X106478621Y-113653555D01*
X106572782Y-113836773D01*
X106700737Y-113998212D01*
X106857612Y-114131723D01*
X106861835Y-114134083D01*
X106861839Y-114134086D01*
X106955808Y-114186603D01*
X107037432Y-114232221D01*
X107042030Y-114233715D01*
X107228742Y-114294382D01*
X107228745Y-114294383D01*
X107233347Y-114295878D01*
X107437895Y-114320269D01*
X107442717Y-114319898D01*
X107442720Y-114319898D01*
X107638458Y-114304837D01*
X107638463Y-114304836D01*
X107643286Y-114304465D01*
X107841695Y-114249068D01*
X107965354Y-114186603D01*
X108025819Y-114177242D01*
X108079995Y-114204966D01*
X108465180Y-114590152D01*
X108467232Y-114592530D01*
X108469250Y-114596658D01*
X108475949Y-114602872D01*
X108501540Y-114626611D01*
X108504216Y-114629188D01*
X108506024Y-114630996D01*
X108533801Y-114685513D01*
X108524230Y-114745945D01*
X108480965Y-114789210D01*
X108436020Y-114800000D01*
X104299000Y-114800000D01*
X104240809Y-114781093D01*
X104204845Y-114731593D01*
X104200000Y-114701000D01*
X104200000Y-108199500D01*
X104218907Y-108141309D01*
X104268407Y-108105345D01*
X104299000Y-108100500D01*
X104783050Y-108100500D01*
X105079447Y-107804103D01*
X105108301Y-107785330D01*
X105109979Y-107785017D01*
X105117761Y-107780220D01*
X105117764Y-107780219D01*
X105132636Y-107771052D01*
X105145499Y-107764370D01*
X105169948Y-107753866D01*
X105176426Y-107748545D01*
X105179929Y-107745042D01*
X105196604Y-107731861D01*
X105197429Y-107731113D01*
X105205211Y-107726316D01*
X105221957Y-107704294D01*
X105230756Y-107694215D01*
X105840985Y-107083986D01*
X105895502Y-107056209D01*
X105955934Y-107065780D01*
G37*
%TD.AperFunction*%
%TA.AperFunction,Conductor*%
G36*
X118745945Y-111822047D02*
G01*
X118789210Y-111865312D01*
X118800000Y-111910257D01*
X118800000Y-114701000D01*
X118781093Y-114759191D01*
X118731593Y-114795155D01*
X118701000Y-114800000D01*
X115915506Y-114800000D01*
X115857315Y-114781093D01*
X115821351Y-114731593D01*
X115821351Y-114670407D01*
X115839339Y-114642623D01*
X115836977Y-114640827D01*
X115853722Y-114618806D01*
X115862522Y-114608726D01*
X118630996Y-111840253D01*
X118685513Y-111812476D01*
X118745945Y-111822047D01*
G37*
%TD.AperFunction*%
%TA.AperFunction,Conductor*%
G36*
X111840223Y-112319407D02*
G01*
X111876187Y-112368907D01*
X111876187Y-112430093D01*
X111844066Y-112476654D01*
X111801505Y-112510874D01*
X111789643Y-112525011D01*
X111672202Y-112664971D01*
X111672199Y-112664975D01*
X111669093Y-112668677D01*
X111569853Y-112849194D01*
X111507565Y-113045549D01*
X111484603Y-113250263D01*
X111501840Y-113455538D01*
X111503173Y-113460186D01*
X111503173Y-113460187D01*
X111554740Y-113640019D01*
X111558621Y-113653555D01*
X111652782Y-113836773D01*
X111655790Y-113840568D01*
X111745312Y-113953517D01*
X111766639Y-114010865D01*
X111750185Y-114069797D01*
X111702235Y-114107802D01*
X111667726Y-114114011D01*
X110871061Y-114114011D01*
X110812870Y-114095104D01*
X110776906Y-114045604D01*
X110776906Y-113984418D01*
X110796119Y-113950322D01*
X110859332Y-113877089D01*
X110862496Y-113873424D01*
X110885766Y-113832463D01*
X110961858Y-113698517D01*
X110961859Y-113698514D01*
X110964247Y-113694311D01*
X110979355Y-113648897D01*
X111027743Y-113503435D01*
X111027743Y-113503433D01*
X111029270Y-113498844D01*
X111034154Y-113460187D01*
X111054740Y-113297225D01*
X111055088Y-113294471D01*
X111055500Y-113265000D01*
X111055230Y-113262244D01*
X111035870Y-113064796D01*
X111035869Y-113064792D01*
X111035398Y-113059986D01*
X111032493Y-113050362D01*
X110977256Y-112867412D01*
X110975858Y-112862780D01*
X110879148Y-112680895D01*
X110748952Y-112521259D01*
X110693979Y-112475781D01*
X110661194Y-112424120D01*
X110665036Y-112363055D01*
X110704037Y-112315911D01*
X110757084Y-112300500D01*
X111782032Y-112300500D01*
X111840223Y-112319407D01*
G37*
%TD.AperFunction*%
%TA.AperFunction,Conductor*%
G36*
X116191706Y-109819407D02*
G01*
X116203519Y-109829496D01*
X116754024Y-110380001D01*
X116781801Y-110434517D01*
X116792952Y-110504917D01*
X116850549Y-110617958D01*
X116940258Y-110707667D01*
X116947195Y-110711202D01*
X116947197Y-110711203D01*
X117046359Y-110761728D01*
X117053299Y-110765264D01*
X117060993Y-110766483D01*
X117060994Y-110766483D01*
X117170909Y-110783892D01*
X117178605Y-110785111D01*
X117186301Y-110783892D01*
X117186304Y-110783892D01*
X117201129Y-110781544D01*
X117261561Y-110791116D01*
X117304825Y-110834380D01*
X117310491Y-110851818D01*
X117311221Y-110851581D01*
X117313628Y-110858991D01*
X117314847Y-110866685D01*
X117318383Y-110873625D01*
X117342108Y-110920187D01*
X117372444Y-110979726D01*
X117462153Y-111069435D01*
X117469090Y-111072970D01*
X117469092Y-111072971D01*
X117568254Y-111123496D01*
X117575194Y-111127032D01*
X117582888Y-111128251D01*
X117582889Y-111128251D01*
X117615425Y-111133404D01*
X117688950Y-111145050D01*
X117743466Y-111172826D01*
X117771243Y-111227343D01*
X117761672Y-111287775D01*
X117743466Y-111312834D01*
X117385796Y-111670504D01*
X117331279Y-111698281D01*
X117315792Y-111699500D01*
X115826447Y-111699500D01*
X115768256Y-111680593D01*
X115732292Y-111631093D01*
X115732292Y-111569907D01*
X115765497Y-111522487D01*
X115804071Y-111492350D01*
X115804076Y-111492345D01*
X115807893Y-111489363D01*
X115811055Y-111485700D01*
X115811060Y-111485695D01*
X115896471Y-111386745D01*
X115942496Y-111333424D01*
X115955763Y-111310071D01*
X116041858Y-111158517D01*
X116041859Y-111158514D01*
X116044247Y-111154311D01*
X116046720Y-111146879D01*
X116107743Y-110963435D01*
X116107743Y-110963433D01*
X116109270Y-110958844D01*
X116114154Y-110920187D01*
X116131668Y-110781544D01*
X116135088Y-110754471D01*
X116135500Y-110725000D01*
X116134055Y-110710263D01*
X116115870Y-110524796D01*
X116115869Y-110524792D01*
X116115398Y-110519986D01*
X116112945Y-110511859D01*
X116057256Y-110327412D01*
X116055858Y-110322780D01*
X115959148Y-110140895D01*
X115828952Y-109981259D01*
X115822331Y-109975781D01*
X115789546Y-109924122D01*
X115793386Y-109863057D01*
X115832387Y-109815912D01*
X115885435Y-109800500D01*
X116133515Y-109800500D01*
X116191706Y-109819407D01*
G37*
%TD.AperFunction*%
%TA.AperFunction,Conductor*%
G36*
X110946247Y-108801087D02*
G01*
X110992564Y-108841067D01*
X111001860Y-108864133D01*
X111001974Y-108867162D01*
X111005582Y-108875559D01*
X111005582Y-108875561D01*
X111006514Y-108877730D01*
X111012877Y-108898674D01*
X111014983Y-108909979D01*
X111019780Y-108917761D01*
X111019781Y-108917764D01*
X111028948Y-108932636D01*
X111035630Y-108945499D01*
X111046134Y-108969948D01*
X111051455Y-108976426D01*
X111054958Y-108979929D01*
X111068139Y-108996604D01*
X111068887Y-108997429D01*
X111073684Y-109005211D01*
X111080959Y-109010743D01*
X111080960Y-109010744D01*
X111095705Y-109021956D01*
X111105785Y-109030756D01*
X111750668Y-109675639D01*
X111752720Y-109678017D01*
X111754739Y-109682147D01*
X111761439Y-109688362D01*
X111787042Y-109712112D01*
X111789718Y-109714689D01*
X111806497Y-109731468D01*
X111810249Y-109734041D01*
X111812321Y-109735763D01*
X111816382Y-109739328D01*
X111836755Y-109758227D01*
X111845239Y-109761612D01*
X111849364Y-109764220D01*
X111888446Y-109811297D01*
X111892393Y-109872355D01*
X111858496Y-109925052D01*
X111801505Y-109970874D01*
X111789643Y-109985011D01*
X111672202Y-110124971D01*
X111672199Y-110124975D01*
X111669093Y-110128677D01*
X111569853Y-110309194D01*
X111568389Y-110313808D01*
X111568388Y-110313811D01*
X111540176Y-110402746D01*
X111507565Y-110505549D01*
X111507025Y-110510361D01*
X111507025Y-110510362D01*
X111485512Y-110702161D01*
X111484603Y-110710263D01*
X111490786Y-110783892D01*
X111498321Y-110873625D01*
X111501840Y-110915538D01*
X111503173Y-110920186D01*
X111503173Y-110920187D01*
X111546984Y-111072971D01*
X111558621Y-111113555D01*
X111652782Y-111296773D01*
X111780737Y-111458212D01*
X111784417Y-111461344D01*
X111784419Y-111461346D01*
X111859340Y-111525108D01*
X111891400Y-111577221D01*
X111886706Y-111638226D01*
X111847051Y-111684821D01*
X111795176Y-111699500D01*
X110746447Y-111699500D01*
X110688256Y-111680593D01*
X110652292Y-111631093D01*
X110652292Y-111569907D01*
X110685497Y-111522487D01*
X110724071Y-111492350D01*
X110724076Y-111492345D01*
X110727893Y-111489363D01*
X110731055Y-111485700D01*
X110731060Y-111485695D01*
X110816471Y-111386745D01*
X110862496Y-111333424D01*
X110875763Y-111310071D01*
X110961858Y-111158517D01*
X110961859Y-111158514D01*
X110964247Y-111154311D01*
X110966720Y-111146879D01*
X111027743Y-110963435D01*
X111027743Y-110963433D01*
X111029270Y-110958844D01*
X111034154Y-110920187D01*
X111051668Y-110781544D01*
X111055088Y-110754471D01*
X111055500Y-110725000D01*
X111054055Y-110710263D01*
X111035870Y-110524796D01*
X111035869Y-110524792D01*
X111035398Y-110519986D01*
X111032945Y-110511859D01*
X110977256Y-110327412D01*
X110975858Y-110322780D01*
X110879148Y-110140895D01*
X110748952Y-109981259D01*
X110744741Y-109977775D01*
X110593955Y-109853034D01*
X110593953Y-109853033D01*
X110590228Y-109849951D01*
X110459570Y-109779304D01*
X110413277Y-109754273D01*
X110413276Y-109754272D01*
X110409023Y-109751973D01*
X110288578Y-109714689D01*
X110216859Y-109692488D01*
X110216855Y-109692487D01*
X110212238Y-109691058D01*
X110207431Y-109690553D01*
X110207427Y-109690552D01*
X110012185Y-109670032D01*
X110012183Y-109670032D01*
X110007369Y-109669526D01*
X109940198Y-109675639D01*
X109807039Y-109687757D01*
X109807036Y-109687758D01*
X109802219Y-109688196D01*
X109797577Y-109689562D01*
X109797573Y-109689563D01*
X109609250Y-109744989D01*
X109609247Y-109744990D01*
X109604603Y-109746357D01*
X109600309Y-109748602D01*
X109426344Y-109839548D01*
X109426340Y-109839551D01*
X109422047Y-109841795D01*
X109418271Y-109844831D01*
X109418268Y-109844833D01*
X109395602Y-109863057D01*
X109312022Y-109930257D01*
X109254825Y-109951985D01*
X109195780Y-109935943D01*
X109157441Y-109888259D01*
X109150989Y-109853103D01*
X109150989Y-109056086D01*
X109169896Y-108997895D01*
X109219396Y-108961931D01*
X109280582Y-108961931D01*
X109314153Y-108980694D01*
X109397612Y-109051723D01*
X109401835Y-109054083D01*
X109401839Y-109054086D01*
X109455717Y-109084197D01*
X109577432Y-109152221D01*
X109582030Y-109153715D01*
X109768742Y-109214382D01*
X109768745Y-109214383D01*
X109773347Y-109215878D01*
X109977895Y-109240269D01*
X109982717Y-109239898D01*
X109982720Y-109239898D01*
X110178458Y-109224837D01*
X110178463Y-109224836D01*
X110183286Y-109224465D01*
X110381695Y-109169068D01*
X110412089Y-109153715D01*
X110561244Y-109078371D01*
X110561246Y-109078370D01*
X110565565Y-109076188D01*
X110727893Y-108949363D01*
X110832942Y-108827663D01*
X110885276Y-108795968D01*
X110946247Y-108801087D01*
G37*
%TD.AperFunction*%
%TA.AperFunction,Conductor*%
G36*
X117459191Y-95319707D02*
G01*
X117495155Y-95369207D01*
X117500000Y-95399800D01*
X117500000Y-95896919D01*
X117500069Y-95897224D01*
X117500113Y-95898013D01*
X117500103Y-95909268D01*
X117500104Y-95909271D01*
X117500094Y-95920417D01*
X117504919Y-95930466D01*
X117505320Y-95931300D01*
X117512594Y-95952131D01*
X117515279Y-95963900D01*
X117522227Y-95972619D01*
X117522631Y-95973126D01*
X117534454Y-95991973D01*
X117539565Y-96002616D01*
X117548269Y-96009577D01*
X117548271Y-96009579D01*
X117548991Y-96010154D01*
X117564580Y-96025769D01*
X117572105Y-96035212D01*
X117582145Y-96040055D01*
X117582148Y-96040057D01*
X117582738Y-96040341D01*
X117601557Y-96052191D01*
X117610778Y-96059565D01*
X117621644Y-96062064D01*
X117621647Y-96062065D01*
X117622543Y-96062271D01*
X117643359Y-96069581D01*
X117644192Y-96069983D01*
X117644195Y-96069984D01*
X117654234Y-96074826D01*
X117676631Y-96074845D01*
X117677425Y-96074891D01*
X117677899Y-96075000D01*
X118621919Y-96075000D01*
X118622224Y-96074931D01*
X118623013Y-96074887D01*
X118634268Y-96074897D01*
X118634271Y-96074896D01*
X118645417Y-96074906D01*
X118656303Y-96069679D01*
X118677123Y-96062408D01*
X118678972Y-96061986D01*
X118739911Y-96067471D01*
X118785987Y-96107728D01*
X118800000Y-96158504D01*
X118800000Y-96800500D01*
X118781093Y-96858691D01*
X118731593Y-96894655D01*
X118701000Y-96899500D01*
X118216950Y-96899500D01*
X117945946Y-97170504D01*
X117891429Y-97198281D01*
X117875942Y-97199500D01*
X117052108Y-97199500D01*
X117048976Y-97199270D01*
X117044628Y-97197777D01*
X117035492Y-97198120D01*
X117000599Y-97199430D01*
X116996885Y-97199500D01*
X116973154Y-97199500D01*
X116968670Y-97200335D01*
X116965996Y-97200582D01*
X116960611Y-97200931D01*
X116941971Y-97201631D01*
X116941970Y-97201631D01*
X116932838Y-97201974D01*
X116924443Y-97205580D01*
X116924441Y-97205581D01*
X116922270Y-97206514D01*
X116901326Y-97212877D01*
X116899832Y-97213156D01*
X116899008Y-97213309D01*
X116899007Y-97213309D01*
X116890021Y-97214983D01*
X116882239Y-97219780D01*
X116882236Y-97219781D01*
X116867364Y-97228948D01*
X116854501Y-97235630D01*
X116830052Y-97246134D01*
X116823574Y-97251455D01*
X116820071Y-97254958D01*
X116803396Y-97268139D01*
X116802571Y-97268887D01*
X116794789Y-97273684D01*
X116789257Y-97280959D01*
X116789256Y-97280960D01*
X116778044Y-97295705D01*
X116769244Y-97305785D01*
X115963752Y-98111276D01*
X115961378Y-98113325D01*
X115957249Y-98115343D01*
X115951032Y-98122045D01*
X115927296Y-98147633D01*
X115924719Y-98150309D01*
X115907927Y-98167101D01*
X115905348Y-98170860D01*
X115903619Y-98172941D01*
X115900056Y-98176998D01*
X115887386Y-98190656D01*
X115887384Y-98190659D01*
X115881169Y-98197359D01*
X115876908Y-98208040D01*
X115866593Y-98227357D01*
X115860092Y-98236833D01*
X115853945Y-98262735D01*
X115849579Y-98276538D01*
X115839714Y-98301265D01*
X115838896Y-98309608D01*
X115838896Y-98314558D01*
X115836425Y-98335677D01*
X115836371Y-98336787D01*
X115834260Y-98345681D01*
X115835493Y-98354738D01*
X115837992Y-98373104D01*
X115838896Y-98386454D01*
X115838896Y-100628767D01*
X115819989Y-100686958D01*
X115770489Y-100722922D01*
X115724410Y-100726548D01*
X115639885Y-100713160D01*
X115638848Y-100713324D01*
X115583903Y-100695472D01*
X115547939Y-100645972D01*
X115544996Y-100634692D01*
X115537002Y-100594504D01*
X115535100Y-100584941D01*
X115515095Y-100555001D01*
X115498487Y-100496113D01*
X115515095Y-100444999D01*
X115529683Y-100423166D01*
X115535100Y-100415059D01*
X115550500Y-100337637D01*
X115550500Y-100162363D01*
X115535100Y-100084941D01*
X115488693Y-100015487D01*
X115482424Y-100006105D01*
X115477005Y-99997995D01*
X115390059Y-99939900D01*
X115380497Y-99937998D01*
X115351887Y-99932307D01*
X115298504Y-99902410D01*
X115272888Y-99846844D01*
X115284825Y-99786835D01*
X115301198Y-99765205D01*
X115328056Y-99738347D01*
X115347151Y-99700872D01*
X115382117Y-99632246D01*
X115385653Y-99625306D01*
X115390551Y-99594386D01*
X115404281Y-99507696D01*
X115405500Y-99500000D01*
X115385653Y-99374694D01*
X115382117Y-99367754D01*
X115331592Y-99268592D01*
X115331591Y-99268590D01*
X115328056Y-99261653D01*
X115238347Y-99171944D01*
X115231410Y-99168409D01*
X115231408Y-99168408D01*
X115132246Y-99117883D01*
X115125306Y-99114347D01*
X115117612Y-99113128D01*
X115117611Y-99113128D01*
X115007696Y-99095719D01*
X115000000Y-99094500D01*
X114992304Y-99095719D01*
X114882389Y-99113128D01*
X114882388Y-99113128D01*
X114874694Y-99114347D01*
X114867754Y-99117883D01*
X114768592Y-99168408D01*
X114768590Y-99168409D01*
X114761653Y-99171944D01*
X114734795Y-99198802D01*
X114680278Y-99226579D01*
X114619846Y-99217008D01*
X114576581Y-99173743D01*
X114567693Y-99148113D01*
X114562002Y-99119503D01*
X114560100Y-99109941D01*
X114502005Y-99022995D01*
X114490769Y-99015487D01*
X114441262Y-98982408D01*
X114415059Y-98964900D01*
X114337637Y-98949500D01*
X114174500Y-98949500D01*
X114116309Y-98930593D01*
X114080345Y-98881093D01*
X114075500Y-98850500D01*
X114075500Y-98694727D01*
X114077516Y-98674849D01*
X114078722Y-98668965D01*
X114079591Y-98664725D01*
X114079802Y-98657117D01*
X114082585Y-98556385D01*
X114084449Y-98539807D01*
X114114490Y-98388777D01*
X114120124Y-98370204D01*
X114176760Y-98233473D01*
X114185908Y-98216358D01*
X114231828Y-98147633D01*
X114271455Y-98088327D01*
X114281860Y-98075285D01*
X114339336Y-98014543D01*
X114343256Y-98010626D01*
X114406875Y-97950518D01*
X114419863Y-97940164D01*
X114554931Y-97849914D01*
X114572047Y-97840765D01*
X114716454Y-97780949D01*
X114735027Y-97775315D01*
X114894363Y-97743622D01*
X114910868Y-97741760D01*
X114984422Y-97739673D01*
X114989502Y-97739759D01*
X114991752Y-97740099D01*
X115065626Y-97738276D01*
X115146418Y-97736283D01*
X115146423Y-97736282D01*
X115150696Y-97736177D01*
X115150776Y-97736161D01*
X115150859Y-97736159D01*
X115155040Y-97735327D01*
X115155043Y-97735327D01*
X115324471Y-97701626D01*
X115326494Y-97701382D01*
X115329392Y-97701764D01*
X115336622Y-97700161D01*
X115336623Y-97700161D01*
X115377354Y-97691131D01*
X115379469Y-97690686D01*
X115380011Y-97690578D01*
X115407047Y-97685201D01*
X115410948Y-97683684D01*
X115410954Y-97683682D01*
X115415037Y-97682777D01*
X115441041Y-97672006D01*
X115442924Y-97671249D01*
X115488807Y-97653407D01*
X115491006Y-97651478D01*
X115492828Y-97650555D01*
X115578580Y-97615036D01*
X115580512Y-97614403D01*
X115583431Y-97614212D01*
X115598938Y-97607389D01*
X115628418Y-97594418D01*
X115630404Y-97593570D01*
X115652374Y-97584470D01*
X115652375Y-97584469D01*
X115656362Y-97582818D01*
X115659886Y-97580574D01*
X115659901Y-97580565D01*
X115663726Y-97578882D01*
X115667312Y-97576486D01*
X115687138Y-97563239D01*
X115688944Y-97562061D01*
X115690228Y-97561243D01*
X115730347Y-97535684D01*
X115732127Y-97533364D01*
X115733727Y-97532108D01*
X115809996Y-97481147D01*
X115877216Y-97436232D01*
X115877219Y-97436230D01*
X115880912Y-97433762D01*
X115880972Y-97433704D01*
X115881042Y-97433658D01*
X115891689Y-97423524D01*
X115923329Y-97393406D01*
X115956698Y-97361644D01*
X115960904Y-97358116D01*
X115960866Y-97358073D01*
X115964108Y-97355215D01*
X115967590Y-97352648D01*
X115970570Y-97349518D01*
X115970575Y-97349514D01*
X115979858Y-97339765D01*
X115983295Y-97336329D01*
X115993067Y-97327027D01*
X115993073Y-97327021D01*
X115996204Y-97324040D01*
X115998771Y-97320560D01*
X116001627Y-97317322D01*
X116001669Y-97317359D01*
X116005208Y-97313143D01*
X116056413Y-97259369D01*
X116076630Y-97238138D01*
X116076694Y-97238042D01*
X116076776Y-97237956D01*
X116082954Y-97228711D01*
X116140471Y-97142630D01*
X116174153Y-97092222D01*
X116175412Y-97090618D01*
X116177731Y-97088839D01*
X116181709Y-97082595D01*
X116181712Y-97082591D01*
X116204137Y-97047392D01*
X116205317Y-97045584D01*
X116218523Y-97025820D01*
X116218527Y-97025813D01*
X116220929Y-97022218D01*
X116222616Y-97018385D01*
X116224865Y-97014854D01*
X116235626Y-96988873D01*
X116236474Y-96986888D01*
X116253278Y-96948699D01*
X116253279Y-96948695D01*
X116256259Y-96941923D01*
X116256450Y-96939008D01*
X116257086Y-96937066D01*
X116291936Y-96852929D01*
X116292859Y-96851107D01*
X116294787Y-96848908D01*
X116312604Y-96803091D01*
X116313408Y-96801089D01*
X116322504Y-96779129D01*
X116324158Y-96775136D01*
X116325064Y-96771049D01*
X116326581Y-96767148D01*
X116332062Y-96739591D01*
X116332507Y-96737477D01*
X116341542Y-96696724D01*
X116341542Y-96696720D01*
X116343145Y-96689492D01*
X116342763Y-96686592D01*
X116343007Y-96684569D01*
X116364677Y-96575627D01*
X116377201Y-96512667D01*
X116377204Y-96512547D01*
X116377226Y-96512436D01*
X116381095Y-96354363D01*
X116376613Y-96324721D01*
X116375500Y-96309920D01*
X116375500Y-96121474D01*
X116394407Y-96063283D01*
X116412873Y-96043994D01*
X116417566Y-96040261D01*
X116427616Y-96035435D01*
X116430740Y-96031529D01*
X116431797Y-96031134D01*
X116433808Y-96029123D01*
X116433287Y-96028344D01*
X116437204Y-96025727D01*
X116437205Y-96025726D01*
X116445310Y-96020310D01*
X116453227Y-96008461D01*
X116453971Y-96008958D01*
X116454620Y-96008309D01*
X116455454Y-96006686D01*
X116460212Y-96002895D01*
X116465343Y-95992258D01*
X116477192Y-95973442D01*
X116484565Y-95964222D01*
X116485498Y-95960165D01*
X116489857Y-95953641D01*
X116491759Y-95944079D01*
X116492565Y-95942133D01*
X116492702Y-95941724D01*
X116492494Y-95941676D01*
X116494984Y-95930805D01*
X116499826Y-95920766D01*
X116499836Y-95909618D01*
X116500446Y-95906953D01*
X116501735Y-95893931D01*
X116504552Y-95879767D01*
X116504552Y-95879764D01*
X116505500Y-95875000D01*
X116505500Y-95399800D01*
X116524407Y-95341609D01*
X116573907Y-95305645D01*
X116604500Y-95300800D01*
X117401000Y-95300800D01*
X117459191Y-95319707D01*
G37*
%TD.AperFunction*%
%TA.AperFunction,Conductor*%
G36*
X110230671Y-95319707D02*
G01*
X110266635Y-95369207D01*
X110266635Y-95430393D01*
X110244352Y-95467884D01*
X110163012Y-95553749D01*
X110156174Y-95562889D01*
X110107000Y-95647550D01*
X110061424Y-95688372D01*
X110000557Y-95694609D01*
X109953309Y-95669698D01*
X109946251Y-95663012D01*
X109937110Y-95656174D01*
X109799251Y-95576099D01*
X109788772Y-95571543D01*
X109635551Y-95525137D01*
X109625627Y-95523212D01*
X109558218Y-95517196D01*
X109553817Y-95517000D01*
X109544680Y-95517000D01*
X109531995Y-95521122D01*
X109529000Y-95525243D01*
X109529000Y-96655000D01*
X109510093Y-96713191D01*
X109460593Y-96749155D01*
X109430000Y-96754000D01*
X109120000Y-96754000D01*
X109061809Y-96735093D01*
X109025845Y-96685593D01*
X109021000Y-96655000D01*
X109021000Y-95532680D01*
X109016878Y-95519995D01*
X109012757Y-95517000D01*
X109009980Y-95517000D01*
X109004268Y-95517332D01*
X108885940Y-95531128D01*
X108874812Y-95533758D01*
X108724962Y-95588151D01*
X108714741Y-95593269D01*
X108581423Y-95680677D01*
X108572653Y-95688009D01*
X108463012Y-95803750D01*
X108456174Y-95812889D01*
X108395156Y-95917941D01*
X108349579Y-95958763D01*
X108288713Y-95964999D01*
X108239545Y-95938221D01*
X108203042Y-95901718D01*
X108196105Y-95898183D01*
X108196103Y-95898182D01*
X108089972Y-95844106D01*
X108089971Y-95844106D01*
X108083032Y-95840570D01*
X108075338Y-95839351D01*
X108075337Y-95839351D01*
X107985415Y-95825109D01*
X107985413Y-95825109D01*
X107981569Y-95824500D01*
X107468431Y-95824500D01*
X107464587Y-95825109D01*
X107464585Y-95825109D01*
X107374663Y-95839351D01*
X107374662Y-95839351D01*
X107366968Y-95840570D01*
X107360029Y-95844106D01*
X107360028Y-95844106D01*
X107253897Y-95898182D01*
X107253895Y-95898183D01*
X107246958Y-95901718D01*
X107151718Y-95996958D01*
X107148183Y-96003895D01*
X107148182Y-96003897D01*
X107111954Y-96075000D01*
X107090570Y-96116968D01*
X107074500Y-96218431D01*
X107074500Y-96781569D01*
X107075109Y-96785413D01*
X107075109Y-96785415D01*
X107088289Y-96868628D01*
X107090570Y-96883032D01*
X107094106Y-96889971D01*
X107094106Y-96889972D01*
X107147846Y-96995442D01*
X107151718Y-97003042D01*
X107246958Y-97098282D01*
X107253895Y-97101817D01*
X107253897Y-97101818D01*
X107268947Y-97109486D01*
X107312212Y-97152751D01*
X107321783Y-97213181D01*
X107320719Y-97219900D01*
X107320719Y-97219904D01*
X107319500Y-97227600D01*
X107322436Y-97246134D01*
X107326880Y-97274195D01*
X107317309Y-97334627D01*
X107274045Y-97377891D01*
X107243595Y-97393406D01*
X107243591Y-97393409D01*
X107236653Y-97396944D01*
X107146944Y-97486653D01*
X107143409Y-97493590D01*
X107143408Y-97493592D01*
X107098838Y-97581067D01*
X107089347Y-97599694D01*
X107088128Y-97607388D01*
X107088128Y-97607389D01*
X107075948Y-97684289D01*
X107074500Y-97693432D01*
X107074500Y-98306568D01*
X107075109Y-98310412D01*
X107075109Y-98310414D01*
X107085039Y-98373104D01*
X107089347Y-98400306D01*
X107092883Y-98407246D01*
X107132539Y-98485075D01*
X107146944Y-98513347D01*
X107236653Y-98603056D01*
X107243590Y-98606591D01*
X107243592Y-98606592D01*
X107299606Y-98635132D01*
X107349694Y-98660653D01*
X107357388Y-98661872D01*
X107357389Y-98661872D01*
X107439586Y-98674891D01*
X107439588Y-98674891D01*
X107443432Y-98675500D01*
X107906568Y-98675500D01*
X107910412Y-98674891D01*
X107910414Y-98674891D01*
X107992611Y-98661872D01*
X107992612Y-98661872D01*
X108000306Y-98660653D01*
X108050394Y-98635132D01*
X108094408Y-98612706D01*
X108154840Y-98603135D01*
X108209357Y-98630913D01*
X108237134Y-98685429D01*
X108237134Y-98716403D01*
X108231607Y-98751298D01*
X108238566Y-98795233D01*
X108228995Y-98855663D01*
X108185731Y-98898928D01*
X108152931Y-98906803D01*
X108153200Y-98908500D01*
X108035589Y-98927128D01*
X108035588Y-98927128D01*
X108027894Y-98928347D01*
X108020954Y-98931883D01*
X107921792Y-98982408D01*
X107921790Y-98982409D01*
X107914853Y-98985944D01*
X107825144Y-99075653D01*
X107821609Y-99082590D01*
X107821608Y-99082592D01*
X107775165Y-99173743D01*
X107767547Y-99188694D01*
X107766328Y-99196388D01*
X107766328Y-99196389D01*
X107756863Y-99256147D01*
X107747700Y-99314000D01*
X107767547Y-99439306D01*
X107771083Y-99446246D01*
X107819643Y-99541550D01*
X107825144Y-99552347D01*
X107914853Y-99642056D01*
X107921790Y-99645591D01*
X107921792Y-99645592D01*
X108020952Y-99696116D01*
X108027894Y-99699653D01*
X108035590Y-99700872D01*
X108095837Y-99710415D01*
X108147675Y-99735614D01*
X108166330Y-99752918D01*
X108196135Y-99806353D01*
X108188839Y-99867102D01*
X108147229Y-99911960D01*
X108099004Y-99924500D01*
X107687363Y-99924500D01*
X107652144Y-99931505D01*
X107619501Y-99937998D01*
X107619499Y-99937999D01*
X107609941Y-99939900D01*
X107605548Y-99942835D01*
X107572042Y-99949500D01*
X105802109Y-99949500D01*
X105798977Y-99949270D01*
X105794629Y-99947777D01*
X105785493Y-99948120D01*
X105750600Y-99949430D01*
X105746886Y-99949500D01*
X105723154Y-99949500D01*
X105718670Y-99950335D01*
X105715996Y-99950582D01*
X105710611Y-99950931D01*
X105691971Y-99951631D01*
X105691970Y-99951631D01*
X105682838Y-99951974D01*
X105674443Y-99955580D01*
X105674441Y-99955581D01*
X105672270Y-99956514D01*
X105651326Y-99962877D01*
X105649832Y-99963156D01*
X105649008Y-99963309D01*
X105649007Y-99963309D01*
X105640021Y-99964983D01*
X105632239Y-99969780D01*
X105632236Y-99969781D01*
X105617364Y-99978948D01*
X105604501Y-99985630D01*
X105580052Y-99996134D01*
X105573574Y-100001455D01*
X105570071Y-100004958D01*
X105553395Y-100018139D01*
X105552568Y-100018889D01*
X105544789Y-100023684D01*
X105539258Y-100030958D01*
X105528038Y-100045713D01*
X105519236Y-100055793D01*
X105269503Y-100305525D01*
X105214987Y-100333302D01*
X105154555Y-100323731D01*
X105111290Y-100280466D01*
X105100500Y-100235521D01*
X105100500Y-100216950D01*
X104953554Y-100070004D01*
X104925777Y-100015487D01*
X104935348Y-99955055D01*
X104953554Y-99929996D01*
X105100500Y-99783050D01*
X105100500Y-99216950D01*
X104953554Y-99070004D01*
X104925777Y-99015487D01*
X104935348Y-98955055D01*
X104953554Y-98929996D01*
X105100500Y-98783050D01*
X105100500Y-98216950D01*
X104953554Y-98070004D01*
X104925777Y-98015487D01*
X104935348Y-97955055D01*
X104953554Y-97929996D01*
X105100500Y-97783050D01*
X105100500Y-97216950D01*
X104783050Y-96899500D01*
X104299000Y-96899500D01*
X104240809Y-96880593D01*
X104204845Y-96831093D01*
X104200000Y-96800500D01*
X104200000Y-95399800D01*
X104218907Y-95341609D01*
X104268407Y-95305645D01*
X104299000Y-95300800D01*
X110172480Y-95300800D01*
X110230671Y-95319707D01*
G37*
%TD.AperFunction*%
%TA.AperFunction,Conductor*%
G36*
X108352028Y-97046039D02*
G01*
X108387727Y-97082011D01*
X108390114Y-97080446D01*
X108480677Y-97218577D01*
X108488009Y-97227347D01*
X108603750Y-97336988D01*
X108612890Y-97343826D01*
X108730041Y-97411873D01*
X108770863Y-97457450D01*
X108777099Y-97518317D01*
X108768527Y-97542424D01*
X108739347Y-97599694D01*
X108738128Y-97607388D01*
X108738128Y-97607389D01*
X108725948Y-97684289D01*
X108724500Y-97693432D01*
X108724500Y-98248017D01*
X108705593Y-98306208D01*
X108656093Y-98342172D01*
X108637011Y-98345194D01*
X108637107Y-98345798D01*
X108519496Y-98364426D01*
X108519495Y-98364426D01*
X108511801Y-98365645D01*
X108504861Y-98369181D01*
X108417699Y-98413592D01*
X108357267Y-98423163D01*
X108302750Y-98395385D01*
X108274973Y-98340869D01*
X108274973Y-98314317D01*
X108274586Y-98314287D01*
X108274891Y-98310414D01*
X108275500Y-98306568D01*
X108275500Y-97693432D01*
X108274052Y-97684289D01*
X108261872Y-97607389D01*
X108261872Y-97607388D01*
X108260653Y-97599694D01*
X108251162Y-97581067D01*
X108206592Y-97493592D01*
X108206591Y-97493590D01*
X108203056Y-97486653D01*
X108140668Y-97424265D01*
X108112891Y-97369748D01*
X108112891Y-97338776D01*
X108130500Y-97227600D01*
X108129281Y-97219904D01*
X108129281Y-97219900D01*
X108128217Y-97213181D01*
X108137789Y-97152749D01*
X108181053Y-97109486D01*
X108196103Y-97101818D01*
X108196105Y-97101817D01*
X108203042Y-97098282D01*
X108237079Y-97064245D01*
X108291596Y-97036468D01*
X108352028Y-97046039D01*
G37*
%TD.AperFunction*%
%TA.AperFunction,Conductor*%
G36*
X115553691Y-95319707D02*
G01*
X115589655Y-95369207D01*
X115594500Y-95399800D01*
X115594500Y-95875000D01*
X115595447Y-95879763D01*
X115595448Y-95879769D01*
X115598198Y-95893595D01*
X115599456Y-95906417D01*
X115600104Y-95909268D01*
X115600094Y-95920417D01*
X115604919Y-95930466D01*
X115607389Y-95941338D01*
X115607225Y-95941375D01*
X115607658Y-95942672D01*
X115608241Y-95944079D01*
X115610143Y-95953641D01*
X115614388Y-95959994D01*
X115615279Y-95963900D01*
X115622227Y-95972619D01*
X115622632Y-95973127D01*
X115634451Y-95991967D01*
X115639565Y-96002616D01*
X115643470Y-96005739D01*
X115643865Y-96006795D01*
X115645877Y-96008808D01*
X115646656Y-96008287D01*
X115647904Y-96010154D01*
X115654690Y-96020310D01*
X115666539Y-96028227D01*
X115666042Y-96028971D01*
X115666690Y-96029619D01*
X115668313Y-96030453D01*
X115672105Y-96035212D01*
X115682145Y-96040055D01*
X115687266Y-96044143D01*
X115720946Y-96095224D01*
X115724500Y-96121512D01*
X115724500Y-96307448D01*
X115722546Y-96327019D01*
X115720293Y-96338191D01*
X115720187Y-96342518D01*
X115720187Y-96342519D01*
X115718024Y-96430922D01*
X115716152Y-96447811D01*
X115703227Y-96512790D01*
X115692067Y-96568894D01*
X115686433Y-96587464D01*
X115641219Y-96696621D01*
X115632071Y-96713736D01*
X115593085Y-96772082D01*
X115563484Y-96816383D01*
X115552864Y-96829651D01*
X115515749Y-96868628D01*
X115512310Y-96872067D01*
X115472622Y-96909844D01*
X115459368Y-96920450D01*
X115355243Y-96990025D01*
X115338126Y-96999174D01*
X115227366Y-97045052D01*
X115208794Y-97050686D01*
X115085966Y-97075117D01*
X115069095Y-97076989D01*
X115013332Y-97078365D01*
X115007768Y-97078270D01*
X115004771Y-97077829D01*
X114887020Y-97081170D01*
X114842536Y-97082432D01*
X114841887Y-97082448D01*
X114838847Y-97082514D01*
X114828680Y-97082736D01*
X114828158Y-97082840D01*
X114827625Y-97082855D01*
X114823699Y-97083663D01*
X114823697Y-97083663D01*
X114814629Y-97085529D01*
X114813991Y-97085658D01*
X114619350Y-97124374D01*
X114617328Y-97124618D01*
X114614428Y-97124236D01*
X114566461Y-97134870D01*
X114564387Y-97135307D01*
X114536774Y-97140799D01*
X114532876Y-97142315D01*
X114532864Y-97142318D01*
X114528784Y-97143223D01*
X114524789Y-97144878D01*
X114524779Y-97144881D01*
X114502794Y-97153988D01*
X114500802Y-97154789D01*
X114455015Y-97172594D01*
X114452817Y-97174522D01*
X114451002Y-97175441D01*
X114378240Y-97205581D01*
X114331607Y-97224897D01*
X114329665Y-97225533D01*
X114326746Y-97225724D01*
X114319958Y-97228711D01*
X114281766Y-97245516D01*
X114279778Y-97246365D01*
X114257819Y-97255461D01*
X114253814Y-97257120D01*
X114250284Y-97259369D01*
X114246452Y-97261055D01*
X114242865Y-97263452D01*
X114242859Y-97263455D01*
X114229447Y-97272417D01*
X114223047Y-97276693D01*
X114221306Y-97277829D01*
X114179829Y-97304254D01*
X114178050Y-97306572D01*
X114176443Y-97307834D01*
X114011399Y-97418113D01*
X114010941Y-97418416D01*
X114003187Y-97423524D01*
X114003183Y-97423528D01*
X113999815Y-97425746D01*
X113999428Y-97426112D01*
X113998986Y-97426407D01*
X113996082Y-97429187D01*
X113989411Y-97435573D01*
X113988941Y-97436020D01*
X113877550Y-97541264D01*
X113877341Y-97541043D01*
X113876611Y-97541961D01*
X113876226Y-97542247D01*
X113873830Y-97544779D01*
X113871002Y-97547451D01*
X113870982Y-97547430D01*
X113870896Y-97547480D01*
X113870033Y-97548246D01*
X113869881Y-97548075D01*
X113869335Y-97548395D01*
X113869901Y-97548931D01*
X113766182Y-97658544D01*
X113765786Y-97658959D01*
X113760568Y-97664410D01*
X113760564Y-97664415D01*
X113757787Y-97667316D01*
X113757559Y-97667657D01*
X113757280Y-97667952D01*
X113755081Y-97671285D01*
X113750969Y-97677517D01*
X113750652Y-97677994D01*
X113643826Y-97837872D01*
X113642568Y-97839474D01*
X113640250Y-97841253D01*
X113636275Y-97847492D01*
X113636273Y-97847495D01*
X113613858Y-97882681D01*
X113612677Y-97884490D01*
X113597051Y-97907876D01*
X113595365Y-97911708D01*
X113593116Y-97915238D01*
X113587003Y-97929996D01*
X113582364Y-97941195D01*
X113581517Y-97943177D01*
X113578287Y-97950518D01*
X113561720Y-97988171D01*
X113561529Y-97991086D01*
X113560893Y-97993028D01*
X113514619Y-98104744D01*
X113513696Y-98106566D01*
X113511768Y-98108765D01*
X113505810Y-98124086D01*
X113467099Y-98171468D01*
X113407931Y-98187047D01*
X113350905Y-98164872D01*
X113343537Y-98158210D01*
X113204496Y-98019169D01*
X113176719Y-97964652D01*
X113175500Y-97949165D01*
X113175500Y-97518431D01*
X113167675Y-97469025D01*
X113177246Y-97408593D01*
X113220512Y-97365328D01*
X113241766Y-97354499D01*
X113241768Y-97354498D01*
X113248707Y-97350962D01*
X113338416Y-97261253D01*
X113342544Y-97253153D01*
X113392477Y-97155152D01*
X113396013Y-97148212D01*
X113397321Y-97139957D01*
X113414641Y-97030602D01*
X113415860Y-97022906D01*
X113405542Y-96957761D01*
X113397232Y-96905295D01*
X113397232Y-96905294D01*
X113396013Y-96897600D01*
X113392477Y-96890660D01*
X113390068Y-96883246D01*
X113391756Y-96882698D01*
X113383686Y-96831769D01*
X113395861Y-96797525D01*
X113423901Y-96749251D01*
X113428457Y-96738772D01*
X113474863Y-96585551D01*
X113476788Y-96575627D01*
X113482804Y-96508218D01*
X113483000Y-96503817D01*
X113483000Y-96494680D01*
X113478878Y-96481995D01*
X113474757Y-96479000D01*
X110845000Y-96479000D01*
X110786809Y-96460093D01*
X110750845Y-96410593D01*
X110746000Y-96380000D01*
X110746000Y-96070000D01*
X110764907Y-96011809D01*
X110814407Y-95975845D01*
X110845000Y-95971000D01*
X113467320Y-95971000D01*
X113480005Y-95966878D01*
X113483000Y-95962757D01*
X113483000Y-95959980D01*
X113482668Y-95954268D01*
X113468872Y-95835940D01*
X113466242Y-95824812D01*
X113411849Y-95674962D01*
X113406731Y-95664741D01*
X113319323Y-95531423D01*
X113311991Y-95522653D01*
X113258174Y-95471672D01*
X113228932Y-95417926D01*
X113236865Y-95357258D01*
X113278943Y-95312838D01*
X113326258Y-95300800D01*
X115495500Y-95300800D01*
X115553691Y-95319707D01*
G37*
%TD.AperFunction*%
%TD*%
M02*
