%TF.GenerationSoftware,KiCad,Pcbnew,(5.99.0-10506-gb986797469)*%
%TF.CreationDate,2021-05-05T16:41:54+02:00*%
%TF.ProjectId,ESP31,45535033-312e-46b6-9963-61645f706362,rev?*%
%TF.SameCoordinates,Original*%
%TF.FileFunction,Legend,Top*%
%TF.FilePolarity,Positive*%
%FSLAX46Y46*%
G04 Gerber Fmt 4.6, Leading zero omitted, Abs format (unit mm)*
G04 Created by KiCad (PCBNEW (5.99.0-10506-gb986797469)) date 2021-05-05 16:41:54*
%MOMM*%
%LPD*%
G01*
G04 APERTURE LIST*
%ADD10C,0.100000*%
%ADD11C,0.200000*%
%ADD12C,0.120000*%
G04 APERTURE END LIST*
D10*
X114634211Y-98726190D02*
X114583616Y-99130952D01*
X114601473Y-99178571D01*
X114622306Y-99202380D01*
X114666949Y-99226190D01*
X114762187Y-99226190D01*
X114812782Y-99202380D01*
X114839568Y-99178571D01*
X114869330Y-99130952D01*
X114919925Y-98726190D01*
X115357425Y-99226190D02*
X115071711Y-99226190D01*
X115214568Y-99226190D02*
X115277068Y-98726190D01*
X115220520Y-98797619D01*
X115166949Y-98845238D01*
X115116354Y-98869047D01*
X110595520Y-95726190D02*
X110309806Y-95726190D01*
X110452663Y-95726190D02*
X110515163Y-95226190D01*
X110458616Y-95297619D01*
X110405044Y-95345238D01*
X110354449Y-95369047D01*
X110967544Y-95226190D02*
X111015163Y-95226190D01*
X111059806Y-95250000D01*
X111080639Y-95273809D01*
X111098497Y-95321428D01*
X111110401Y-95416666D01*
X111095520Y-95535714D01*
X111059806Y-95630952D01*
X111030044Y-95678571D01*
X111003258Y-95702380D01*
X110952663Y-95726190D01*
X110905044Y-95726190D01*
X110860401Y-95702380D01*
X110839568Y-95678571D01*
X110821711Y-95630952D01*
X110809806Y-95535714D01*
X110824687Y-95416666D01*
X110860401Y-95321428D01*
X110890163Y-95273809D01*
X110916949Y-95250000D01*
X110967544Y-95226190D01*
X111327663Y-95392857D02*
X111265163Y-95892857D01*
X111533020Y-95654761D02*
X111550877Y-95702380D01*
X111595520Y-95726190D01*
X111294925Y-95654761D02*
X111312782Y-95702380D01*
X111357425Y-95726190D01*
X111452663Y-95726190D01*
X111503258Y-95702380D01*
X111533020Y-95654761D01*
X111565758Y-95392857D01*
X113023809Y-95643139D02*
X113023809Y-95357425D01*
X113023809Y-95500282D02*
X113523809Y-95562782D01*
X113452380Y-95506235D01*
X113404761Y-95452663D01*
X113380952Y-95402068D01*
X113523809Y-96015163D02*
X113523809Y-96062782D01*
X113500000Y-96107425D01*
X113476190Y-96128258D01*
X113428571Y-96146116D01*
X113333333Y-96158020D01*
X113214285Y-96143139D01*
X113119047Y-96107425D01*
X113071428Y-96077663D01*
X113047619Y-96050877D01*
X113023809Y-96000282D01*
X113023809Y-95952663D01*
X113047619Y-95908020D01*
X113071428Y-95887187D01*
X113119047Y-95869330D01*
X113214285Y-95857425D01*
X113333333Y-95872306D01*
X113428571Y-95908020D01*
X113476190Y-95937782D01*
X113500000Y-95964568D01*
X113523809Y-96015163D01*
X113523809Y-96491354D02*
X113523809Y-96538973D01*
X113500000Y-96583616D01*
X113476190Y-96604449D01*
X113428571Y-96622306D01*
X113333333Y-96634211D01*
X113214285Y-96619330D01*
X113119047Y-96583616D01*
X113071428Y-96553854D01*
X113047619Y-96527068D01*
X113023809Y-96476473D01*
X113023809Y-96428854D01*
X113047619Y-96384211D01*
X113071428Y-96363377D01*
X113119047Y-96345520D01*
X113214285Y-96333616D01*
X113333333Y-96348497D01*
X113428571Y-96384211D01*
X113476190Y-96413973D01*
X113500000Y-96440758D01*
X113523809Y-96491354D01*
X113357142Y-96851473D02*
X113023809Y-96809806D01*
X113309523Y-96845520D02*
X113333333Y-96872306D01*
X113357142Y-96922901D01*
X113357142Y-96994330D01*
X113333333Y-97038973D01*
X113285714Y-97056830D01*
X113023809Y-97024092D01*
X105893139Y-96476190D02*
X105607425Y-96476190D01*
X105750282Y-96476190D02*
X105812782Y-95976190D01*
X105756235Y-96047619D01*
X105702663Y-96095238D01*
X105652068Y-96119047D01*
X106265163Y-95976190D02*
X106312782Y-95976190D01*
X106357425Y-96000000D01*
X106378258Y-96023809D01*
X106396116Y-96071428D01*
X106408020Y-96166666D01*
X106393139Y-96285714D01*
X106357425Y-96380952D01*
X106327663Y-96428571D01*
X106300877Y-96452380D01*
X106250282Y-96476190D01*
X106202663Y-96476190D01*
X106158020Y-96452380D01*
X106137187Y-96428571D01*
X106119330Y-96380952D01*
X106107425Y-96285714D01*
X106122306Y-96166666D01*
X106158020Y-96071428D01*
X106187782Y-96023809D01*
X106214568Y-96000000D01*
X106265163Y-95976190D01*
X106741354Y-95976190D02*
X106788973Y-95976190D01*
X106833616Y-96000000D01*
X106854449Y-96023809D01*
X106872306Y-96071428D01*
X106884211Y-96166666D01*
X106869330Y-96285714D01*
X106833616Y-96380952D01*
X106803854Y-96428571D01*
X106777068Y-96452380D01*
X106726473Y-96476190D01*
X106678854Y-96476190D01*
X106634211Y-96452380D01*
X106613377Y-96428571D01*
X106595520Y-96380952D01*
X106583616Y-96285714D01*
X106598497Y-96166666D01*
X106634211Y-96071428D01*
X106663973Y-96023809D01*
X106690758Y-96000000D01*
X106741354Y-95976190D01*
X107101473Y-96142857D02*
X107059806Y-96476190D01*
X107095520Y-96190476D02*
X107122306Y-96166666D01*
X107172901Y-96142857D01*
X107244330Y-96142857D01*
X107288973Y-96166666D01*
X107306830Y-96214285D01*
X107274092Y-96476190D01*
X107357425Y-99226190D02*
X107071711Y-99226190D01*
X107214568Y-99226190D02*
X107277068Y-98726190D01*
X107220520Y-98797619D01*
X107166949Y-98845238D01*
X107116354Y-98869047D01*
X107729449Y-98726190D02*
X107777068Y-98726190D01*
X107821711Y-98750000D01*
X107842544Y-98773809D01*
X107860401Y-98821428D01*
X107872306Y-98916666D01*
X107857425Y-99035714D01*
X107821711Y-99130952D01*
X107791949Y-99178571D01*
X107765163Y-99202380D01*
X107714568Y-99226190D01*
X107666949Y-99226190D01*
X107622306Y-99202380D01*
X107601473Y-99178571D01*
X107583616Y-99130952D01*
X107571711Y-99035714D01*
X107586592Y-98916666D01*
X107622306Y-98821428D01*
X107652068Y-98773809D01*
X107678854Y-98750000D01*
X107729449Y-98726190D01*
X108047901Y-99226190D02*
X108110401Y-98726190D01*
X108333616Y-99226190D02*
X108155044Y-98940476D01*
X108396116Y-98726190D02*
X108074687Y-99011904D01*
X116726190Y-109401502D02*
X116726190Y-109115788D01*
X117226190Y-109321145D02*
X116726190Y-109258645D01*
X117226190Y-109011622D02*
X116726190Y-108949122D01*
X117083333Y-108827098D01*
X116726190Y-108615788D01*
X117226190Y-108678288D01*
X117202380Y-108461026D02*
X117226190Y-108392574D01*
X117226190Y-108273526D01*
X117202380Y-108222931D01*
X117178571Y-108196145D01*
X117130952Y-108166383D01*
X117083333Y-108160431D01*
X117035714Y-108178288D01*
X117011904Y-108199122D01*
X116988095Y-108243764D01*
X116964285Y-108336026D01*
X116940476Y-108380669D01*
X116916666Y-108401502D01*
X116869047Y-108419360D01*
X116821428Y-108413407D01*
X116773809Y-108383645D01*
X116750000Y-108356860D01*
X116726190Y-108306264D01*
X116726190Y-108187217D01*
X116750000Y-108118764D01*
X113253258Y-108976190D02*
X113538973Y-108976190D01*
X113333616Y-109476190D02*
X113396116Y-108976190D01*
X113643139Y-109476190D02*
X113705639Y-108976190D01*
X113824687Y-108976190D01*
X113893139Y-109000000D01*
X113934806Y-109047619D01*
X113952663Y-109095238D01*
X113964568Y-109190476D01*
X113955639Y-109261904D01*
X113919925Y-109357142D01*
X113890163Y-109404761D01*
X113836592Y-109452380D01*
X113762187Y-109476190D01*
X113643139Y-109476190D01*
X114143139Y-109476190D02*
X114205639Y-108976190D01*
X110622306Y-108976190D02*
X110908020Y-108976190D01*
X110702663Y-109476190D02*
X110765163Y-108976190D01*
X111303854Y-109428571D02*
X111277068Y-109452380D01*
X111202663Y-109476190D01*
X111155044Y-109476190D01*
X111086592Y-109452380D01*
X111044925Y-109404761D01*
X111027068Y-109357142D01*
X111015163Y-109261904D01*
X111024092Y-109190476D01*
X111059806Y-109095238D01*
X111089568Y-109047619D01*
X111143139Y-109000000D01*
X111217544Y-108976190D01*
X111265163Y-108976190D01*
X111333616Y-109000000D01*
X111354449Y-109023809D01*
X111512187Y-109476190D02*
X111574687Y-108976190D01*
X111797901Y-109476190D02*
X111619330Y-109190476D01*
X111860401Y-108976190D02*
X111538973Y-109261904D01*
X105476190Y-109389598D02*
X105476190Y-109103883D01*
X105976190Y-109309241D02*
X105476190Y-109246741D01*
X105976190Y-108999717D02*
X105476190Y-108937217D01*
X105476190Y-108818169D01*
X105500000Y-108749717D01*
X105547619Y-108708050D01*
X105595238Y-108690193D01*
X105690476Y-108678288D01*
X105761904Y-108687217D01*
X105857142Y-108722931D01*
X105904761Y-108752693D01*
X105952380Y-108806264D01*
X105976190Y-108880669D01*
X105976190Y-108999717D01*
X105476190Y-108341979D02*
X105476190Y-108246741D01*
X105500000Y-108202098D01*
X105547619Y-108160431D01*
X105642857Y-108148526D01*
X105809523Y-108169360D01*
X105904761Y-108205074D01*
X105952380Y-108258645D01*
X105976190Y-108309241D01*
X105976190Y-108404479D01*
X105952380Y-108449122D01*
X105904761Y-108490788D01*
X105809523Y-108502693D01*
X105642857Y-108481860D01*
X105547619Y-108446145D01*
X105500000Y-108392574D01*
X105476190Y-108341979D01*
X116202663Y-111726190D02*
X116265163Y-111226190D01*
X116598497Y-111226190D02*
X116693735Y-111226190D01*
X116738377Y-111250000D01*
X116780044Y-111297619D01*
X116791949Y-111392857D01*
X116771116Y-111559523D01*
X116735401Y-111654761D01*
X116681830Y-111702380D01*
X116631235Y-111726190D01*
X116535997Y-111726190D01*
X116491354Y-111702380D01*
X116449687Y-111654761D01*
X116437782Y-111559523D01*
X116458616Y-111392857D01*
X116494330Y-111297619D01*
X116547901Y-111250000D01*
X116598497Y-111226190D01*
X116979449Y-111226190D02*
X117288973Y-111226190D01*
X117098497Y-111416666D01*
X117169925Y-111416666D01*
X117214568Y-111440476D01*
X117235401Y-111464285D01*
X117253258Y-111511904D01*
X117238377Y-111630952D01*
X117208616Y-111678571D01*
X117181830Y-111702380D01*
X117131235Y-111726190D01*
X116988377Y-111726190D01*
X116943735Y-111702380D01*
X116922901Y-111678571D01*
X113202663Y-111976190D02*
X113265163Y-111476190D01*
X113598497Y-111476190D02*
X113693735Y-111476190D01*
X113738377Y-111500000D01*
X113780044Y-111547619D01*
X113791949Y-111642857D01*
X113771116Y-111809523D01*
X113735401Y-111904761D01*
X113681830Y-111952380D01*
X113631235Y-111976190D01*
X113535997Y-111976190D01*
X113491354Y-111952380D01*
X113449687Y-111904761D01*
X113437782Y-111809523D01*
X113458616Y-111642857D01*
X113494330Y-111547619D01*
X113547901Y-111500000D01*
X113598497Y-111476190D01*
X114122306Y-111476190D02*
X114169925Y-111476190D01*
X114214568Y-111500000D01*
X114235401Y-111523809D01*
X114253258Y-111571428D01*
X114265163Y-111666666D01*
X114250282Y-111785714D01*
X114214568Y-111880952D01*
X114184806Y-111928571D01*
X114158020Y-111952380D01*
X114107425Y-111976190D01*
X114059806Y-111976190D01*
X114015163Y-111952380D01*
X113994330Y-111928571D01*
X113976473Y-111880952D01*
X113964568Y-111785714D01*
X113979449Y-111666666D01*
X114015163Y-111571428D01*
X114044925Y-111523809D01*
X114071711Y-111500000D01*
X114122306Y-111476190D01*
X110702663Y-111976190D02*
X110765163Y-111476190D01*
X111098497Y-111476190D02*
X111193735Y-111476190D01*
X111238377Y-111500000D01*
X111280044Y-111547619D01*
X111291949Y-111642857D01*
X111271116Y-111809523D01*
X111235401Y-111904761D01*
X111181830Y-111952380D01*
X111131235Y-111976190D01*
X111035997Y-111976190D01*
X110991354Y-111952380D01*
X110949687Y-111904761D01*
X110937782Y-111809523D01*
X110958616Y-111642857D01*
X110994330Y-111547619D01*
X111047901Y-111500000D01*
X111098497Y-111476190D01*
X111497306Y-111523809D02*
X111524092Y-111500000D01*
X111574687Y-111476190D01*
X111693735Y-111476190D01*
X111738377Y-111500000D01*
X111759211Y-111523809D01*
X111777068Y-111571428D01*
X111771116Y-111619047D01*
X111738377Y-111690476D01*
X111416949Y-111976190D01*
X111726473Y-111976190D01*
X113366354Y-114214285D02*
X113533020Y-114214285D01*
X113571711Y-114476190D02*
X113333616Y-114476190D01*
X113396116Y-113976190D01*
X113634211Y-113976190D01*
X113785997Y-114476190D02*
X113848497Y-113976190D01*
X114071711Y-114476190D01*
X114134211Y-113976190D01*
X110702663Y-114476190D02*
X110765163Y-113976190D01*
X111098497Y-113976190D02*
X111193735Y-113976190D01*
X111238377Y-114000000D01*
X111280044Y-114047619D01*
X111291949Y-114142857D01*
X111271116Y-114309523D01*
X111235401Y-114404761D01*
X111181830Y-114452380D01*
X111131235Y-114476190D01*
X111035997Y-114476190D01*
X110991354Y-114452380D01*
X110949687Y-114404761D01*
X110937782Y-114309523D01*
X110958616Y-114142857D01*
X110994330Y-114047619D01*
X111047901Y-114000000D01*
X111098497Y-113976190D01*
X111720520Y-114142857D02*
X111678854Y-114476190D01*
X111625282Y-113952380D02*
X111461592Y-114309523D01*
X111771116Y-114309523D01*
X108202663Y-114476190D02*
X108265163Y-113976190D01*
X108598497Y-113976190D02*
X108693735Y-113976190D01*
X108738377Y-114000000D01*
X108780044Y-114047619D01*
X108791949Y-114142857D01*
X108771116Y-114309523D01*
X108735401Y-114404761D01*
X108681830Y-114452380D01*
X108631235Y-114476190D01*
X108535997Y-114476190D01*
X108491354Y-114452380D01*
X108449687Y-114404761D01*
X108437782Y-114309523D01*
X108458616Y-114142857D01*
X108494330Y-114047619D01*
X108547901Y-114000000D01*
X108598497Y-113976190D01*
X109226473Y-114476190D02*
X108940758Y-114476190D01*
X109083616Y-114476190D02*
X109146116Y-113976190D01*
X109089568Y-114047619D01*
X109035997Y-114095238D01*
X108985401Y-114119047D01*
D11*
X116292232Y-112702380D02*
X116911279Y-112702380D01*
X116530327Y-113083333D01*
X116673184Y-113083333D01*
X116762470Y-113130952D01*
X116804136Y-113178571D01*
X116839851Y-113273809D01*
X116810089Y-113511904D01*
X116750565Y-113607142D01*
X116696994Y-113654761D01*
X116595803Y-113702380D01*
X116310089Y-113702380D01*
X116220803Y-113654761D01*
X116179136Y-113607142D01*
X117196994Y-112702380D02*
X117405327Y-113702380D01*
X117863660Y-112702380D01*
X118101755Y-112702380D02*
X118720803Y-112702380D01*
X118339851Y-113083333D01*
X118482708Y-113083333D01*
X118571994Y-113130952D01*
X118613660Y-113178571D01*
X118649375Y-113273809D01*
X118619613Y-113511904D01*
X118560089Y-113607142D01*
X118506517Y-113654761D01*
X118405327Y-113702380D01*
X118119613Y-113702380D01*
X118030327Y-113654761D01*
X117988660Y-113607142D01*
X104762470Y-110250000D02*
X104673184Y-110202380D01*
X104530327Y-110202380D01*
X104381517Y-110250000D01*
X104274375Y-110345238D01*
X104214851Y-110440476D01*
X104143422Y-110630952D01*
X104125565Y-110773809D01*
X104149375Y-110964285D01*
X104185089Y-111059523D01*
X104268422Y-111154761D01*
X104405327Y-111202380D01*
X104500565Y-111202380D01*
X104649375Y-111154761D01*
X104702946Y-111107142D01*
X104744613Y-110773809D01*
X104554136Y-110773809D01*
X105119613Y-111202380D02*
X105244613Y-110202380D01*
X105691041Y-111202380D01*
X105816041Y-110202380D01*
X106167232Y-111202380D02*
X106292232Y-110202380D01*
X106530327Y-110202380D01*
X106667232Y-110250000D01*
X106750565Y-110345238D01*
X106786279Y-110440476D01*
X106810089Y-110630952D01*
X106792232Y-110773809D01*
X106720803Y-110964285D01*
X106661279Y-111059523D01*
X106554136Y-111154761D01*
X106405327Y-111202380D01*
X106167232Y-111202380D01*
D10*
X116464568Y-107726190D02*
X116527068Y-107226190D01*
X116860401Y-107226190D02*
X116955639Y-107226190D01*
X117000282Y-107250000D01*
X117041949Y-107297619D01*
X117053854Y-107392857D01*
X117033020Y-107559523D01*
X116997306Y-107654761D01*
X116943735Y-107702380D01*
X116893139Y-107726190D01*
X116797901Y-107726190D01*
X116753258Y-107702380D01*
X116711592Y-107654761D01*
X116699687Y-107559523D01*
X116720520Y-107392857D01*
X116756235Y-107297619D01*
X116809806Y-107250000D01*
X116860401Y-107226190D01*
X117488377Y-107726190D02*
X117202663Y-107726190D01*
X117345520Y-107726190D02*
X117408020Y-107226190D01*
X117351473Y-107297619D01*
X117297901Y-107345238D01*
X117247306Y-107369047D01*
X117717544Y-107226190D02*
X118050877Y-107226190D01*
X117774092Y-107726190D01*
X116702663Y-106726190D02*
X116765163Y-106226190D01*
X117098497Y-106226190D02*
X117193735Y-106226190D01*
X117238377Y-106250000D01*
X117280044Y-106297619D01*
X117291949Y-106392857D01*
X117271116Y-106559523D01*
X117235401Y-106654761D01*
X117181830Y-106702380D01*
X117131235Y-106726190D01*
X117035997Y-106726190D01*
X116991354Y-106702380D01*
X116949687Y-106654761D01*
X116937782Y-106559523D01*
X116958616Y-106392857D01*
X116994330Y-106297619D01*
X117047901Y-106250000D01*
X117098497Y-106226190D01*
X117488377Y-106726190D02*
X117583616Y-106726190D01*
X117634211Y-106702380D01*
X117660997Y-106678571D01*
X117717544Y-106607142D01*
X117753258Y-106511904D01*
X117777068Y-106321428D01*
X117759211Y-106273809D01*
X117738377Y-106250000D01*
X117693735Y-106226190D01*
X117598497Y-106226190D01*
X117547901Y-106250000D01*
X117521116Y-106273809D01*
X117491354Y-106321428D01*
X117476473Y-106440476D01*
X117494330Y-106488095D01*
X117515163Y-106511904D01*
X117559806Y-106535714D01*
X117655044Y-106535714D01*
X117705639Y-106511904D01*
X117732425Y-106488095D01*
X117762187Y-106440476D01*
X116464568Y-105726190D02*
X116527068Y-105226190D01*
X116860401Y-105226190D02*
X116955639Y-105226190D01*
X117000282Y-105250000D01*
X117041949Y-105297619D01*
X117053854Y-105392857D01*
X117033020Y-105559523D01*
X116997306Y-105654761D01*
X116943735Y-105702380D01*
X116893139Y-105726190D01*
X116797901Y-105726190D01*
X116753258Y-105702380D01*
X116711592Y-105654761D01*
X116699687Y-105559523D01*
X116720520Y-105392857D01*
X116756235Y-105297619D01*
X116809806Y-105250000D01*
X116860401Y-105226190D01*
X117488377Y-105726190D02*
X117202663Y-105726190D01*
X117345520Y-105726190D02*
X117408020Y-105226190D01*
X117351473Y-105297619D01*
X117297901Y-105345238D01*
X117247306Y-105369047D01*
X117860401Y-105226190D02*
X117908020Y-105226190D01*
X117952663Y-105250000D01*
X117973497Y-105273809D01*
X117991354Y-105321428D01*
X118003258Y-105416666D01*
X117988377Y-105535714D01*
X117952663Y-105630952D01*
X117922901Y-105678571D01*
X117896116Y-105702380D01*
X117845520Y-105726190D01*
X117797901Y-105726190D01*
X117753258Y-105702380D01*
X117732425Y-105678571D01*
X117714568Y-105630952D01*
X117702663Y-105535714D01*
X117717544Y-105416666D01*
X117753258Y-105321428D01*
X117783020Y-105273809D01*
X117809806Y-105250000D01*
X117860401Y-105226190D01*
X116574687Y-104702380D02*
X116643139Y-104726190D01*
X116762187Y-104726190D01*
X116812782Y-104702380D01*
X116839568Y-104678571D01*
X116869330Y-104630952D01*
X116875282Y-104583333D01*
X116857425Y-104535714D01*
X116836592Y-104511904D01*
X116791949Y-104488095D01*
X116699687Y-104464285D01*
X116655044Y-104440476D01*
X116634211Y-104416666D01*
X116616354Y-104369047D01*
X116622306Y-104321428D01*
X116652068Y-104273809D01*
X116678854Y-104250000D01*
X116729449Y-104226190D01*
X116848497Y-104226190D01*
X116916949Y-104250000D01*
X117071711Y-104726190D02*
X117134211Y-104226190D01*
X117253258Y-104226190D01*
X117321711Y-104250000D01*
X117363377Y-104297619D01*
X117381235Y-104345238D01*
X117393139Y-104440476D01*
X117384211Y-104511904D01*
X117348497Y-104607142D01*
X117318735Y-104654761D01*
X117265163Y-104702380D01*
X117190758Y-104726190D01*
X117071711Y-104726190D01*
X117729449Y-104226190D02*
X117777068Y-104226190D01*
X117821711Y-104250000D01*
X117842544Y-104273809D01*
X117860401Y-104321428D01*
X117872306Y-104416666D01*
X117857425Y-104535714D01*
X117821711Y-104630952D01*
X117791949Y-104678571D01*
X117765163Y-104702380D01*
X117714568Y-104726190D01*
X117666949Y-104726190D01*
X117622306Y-104702380D01*
X117601473Y-104678571D01*
X117583616Y-104630952D01*
X117571711Y-104535714D01*
X117586592Y-104416666D01*
X117622306Y-104321428D01*
X117652068Y-104273809D01*
X117678854Y-104250000D01*
X117729449Y-104226190D01*
X116574687Y-103702380D02*
X116643139Y-103726190D01*
X116762187Y-103726190D01*
X116812782Y-103702380D01*
X116839568Y-103678571D01*
X116869330Y-103630952D01*
X116875282Y-103583333D01*
X116857425Y-103535714D01*
X116836592Y-103511904D01*
X116791949Y-103488095D01*
X116699687Y-103464285D01*
X116655044Y-103440476D01*
X116634211Y-103416666D01*
X116616354Y-103369047D01*
X116622306Y-103321428D01*
X116652068Y-103273809D01*
X116678854Y-103250000D01*
X116729449Y-103226190D01*
X116848497Y-103226190D01*
X116916949Y-103250000D01*
X117071711Y-103726190D02*
X117134211Y-103226190D01*
X117253258Y-103226190D01*
X117321711Y-103250000D01*
X117363377Y-103297619D01*
X117381235Y-103345238D01*
X117393139Y-103440476D01*
X117384211Y-103511904D01*
X117348497Y-103607142D01*
X117318735Y-103654761D01*
X117265163Y-103702380D01*
X117190758Y-103726190D01*
X117071711Y-103726190D01*
X117833616Y-103726190D02*
X117547901Y-103726190D01*
X117690758Y-103726190D02*
X117753258Y-103226190D01*
X117696711Y-103297619D01*
X117643139Y-103345238D01*
X117592544Y-103369047D01*
X116702663Y-102726190D02*
X116765163Y-102226190D01*
X117098497Y-102226190D02*
X117193735Y-102226190D01*
X117238377Y-102250000D01*
X117280044Y-102297619D01*
X117291949Y-102392857D01*
X117271116Y-102559523D01*
X117235401Y-102654761D01*
X117181830Y-102702380D01*
X117131235Y-102726190D01*
X117035997Y-102726190D01*
X116991354Y-102702380D01*
X116949687Y-102654761D01*
X116937782Y-102559523D01*
X116958616Y-102392857D01*
X116994330Y-102297619D01*
X117047901Y-102250000D01*
X117098497Y-102226190D01*
X117765163Y-102226190D02*
X117527068Y-102226190D01*
X117473497Y-102464285D01*
X117500282Y-102440476D01*
X117550877Y-102416666D01*
X117669925Y-102416666D01*
X117714568Y-102440476D01*
X117735401Y-102464285D01*
X117753258Y-102511904D01*
X117738377Y-102630952D01*
X117708616Y-102678571D01*
X117681830Y-102702380D01*
X117631235Y-102726190D01*
X117512187Y-102726190D01*
X117467544Y-102702380D01*
X117446711Y-102678571D01*
X116214568Y-101726190D02*
X116277068Y-101226190D01*
X116610401Y-101226190D02*
X116705639Y-101226190D01*
X116750282Y-101250000D01*
X116791949Y-101297619D01*
X116803854Y-101392857D01*
X116783020Y-101559523D01*
X116747306Y-101654761D01*
X116693735Y-101702380D01*
X116643139Y-101726190D01*
X116547901Y-101726190D01*
X116503258Y-101702380D01*
X116461592Y-101654761D01*
X116449687Y-101559523D01*
X116470520Y-101392857D01*
X116506235Y-101297619D01*
X116559806Y-101250000D01*
X116610401Y-101226190D01*
X117238377Y-101726190D02*
X116952663Y-101726190D01*
X117095520Y-101726190D02*
X117158020Y-101226190D01*
X117101473Y-101297619D01*
X117047901Y-101345238D01*
X116997306Y-101369047D01*
X117559806Y-101440476D02*
X117515163Y-101416666D01*
X117494330Y-101392857D01*
X117476473Y-101345238D01*
X117479449Y-101321428D01*
X117509211Y-101273809D01*
X117535997Y-101250000D01*
X117586592Y-101226190D01*
X117681830Y-101226190D01*
X117726473Y-101250000D01*
X117747306Y-101273809D01*
X117765163Y-101321428D01*
X117762187Y-101345238D01*
X117732425Y-101392857D01*
X117705639Y-101416666D01*
X117655044Y-101440476D01*
X117559806Y-101440476D01*
X117509211Y-101464285D01*
X117482425Y-101488095D01*
X117452663Y-101535714D01*
X117440758Y-101630952D01*
X117458616Y-101678571D01*
X117479449Y-101702380D01*
X117524092Y-101726190D01*
X117619330Y-101726190D01*
X117669925Y-101702380D01*
X117696711Y-101678571D01*
X117726473Y-101630952D01*
X117738377Y-101535714D01*
X117720520Y-101488095D01*
X117699687Y-101464285D01*
X117655044Y-101440476D01*
X116214568Y-100726190D02*
X116277068Y-100226190D01*
X116610401Y-100226190D02*
X116705639Y-100226190D01*
X116750282Y-100250000D01*
X116791949Y-100297619D01*
X116803854Y-100392857D01*
X116783020Y-100559523D01*
X116747306Y-100654761D01*
X116693735Y-100702380D01*
X116643139Y-100726190D01*
X116547901Y-100726190D01*
X116503258Y-100702380D01*
X116461592Y-100654761D01*
X116449687Y-100559523D01*
X116470520Y-100392857D01*
X116506235Y-100297619D01*
X116559806Y-100250000D01*
X116610401Y-100226190D01*
X117009211Y-100273809D02*
X117035997Y-100250000D01*
X117086592Y-100226190D01*
X117205639Y-100226190D01*
X117250282Y-100250000D01*
X117271116Y-100273809D01*
X117288973Y-100321428D01*
X117283020Y-100369047D01*
X117250282Y-100440476D01*
X116928854Y-100726190D01*
X117238377Y-100726190D01*
X117467544Y-100226190D02*
X117777068Y-100226190D01*
X117586592Y-100416666D01*
X117658020Y-100416666D01*
X117702663Y-100440476D01*
X117723497Y-100464285D01*
X117741354Y-100511904D01*
X117726473Y-100630952D01*
X117696711Y-100678571D01*
X117669925Y-100702380D01*
X117619330Y-100726190D01*
X117476473Y-100726190D01*
X117431830Y-100702380D01*
X117410997Y-100678571D01*
X116214568Y-99726190D02*
X116277068Y-99226190D01*
X116610401Y-99226190D02*
X116705639Y-99226190D01*
X116750282Y-99250000D01*
X116791949Y-99297619D01*
X116803854Y-99392857D01*
X116783020Y-99559523D01*
X116747306Y-99654761D01*
X116693735Y-99702380D01*
X116643139Y-99726190D01*
X116547901Y-99726190D01*
X116503258Y-99702380D01*
X116461592Y-99654761D01*
X116449687Y-99559523D01*
X116470520Y-99392857D01*
X116506235Y-99297619D01*
X116559806Y-99250000D01*
X116610401Y-99226190D01*
X117238377Y-99726190D02*
X116952663Y-99726190D01*
X117095520Y-99726190D02*
X117158020Y-99226190D01*
X117101473Y-99297619D01*
X117047901Y-99345238D01*
X116997306Y-99369047D01*
X117476473Y-99726190D02*
X117571711Y-99726190D01*
X117622306Y-99702380D01*
X117649092Y-99678571D01*
X117705639Y-99607142D01*
X117741354Y-99511904D01*
X117765163Y-99321428D01*
X117747306Y-99273809D01*
X117726473Y-99250000D01*
X117681830Y-99226190D01*
X117586592Y-99226190D01*
X117535997Y-99250000D01*
X117509211Y-99273809D01*
X117479449Y-99321428D01*
X117464568Y-99440476D01*
X117482425Y-99488095D01*
X117503258Y-99511904D01*
X117547901Y-99535714D01*
X117643139Y-99535714D01*
X117693735Y-99511904D01*
X117720520Y-99488095D01*
X117750282Y-99440476D01*
X116214568Y-98726190D02*
X116277068Y-98226190D01*
X116610401Y-98226190D02*
X116705639Y-98226190D01*
X116750282Y-98250000D01*
X116791949Y-98297619D01*
X116803854Y-98392857D01*
X116783020Y-98559523D01*
X116747306Y-98654761D01*
X116693735Y-98702380D01*
X116643139Y-98726190D01*
X116547901Y-98726190D01*
X116503258Y-98702380D01*
X116461592Y-98654761D01*
X116449687Y-98559523D01*
X116470520Y-98392857D01*
X116506235Y-98297619D01*
X116559806Y-98250000D01*
X116610401Y-98226190D01*
X117009211Y-98273809D02*
X117035997Y-98250000D01*
X117086592Y-98226190D01*
X117205639Y-98226190D01*
X117250282Y-98250000D01*
X117271116Y-98273809D01*
X117288973Y-98321428D01*
X117283020Y-98369047D01*
X117250282Y-98440476D01*
X116928854Y-98726190D01*
X117238377Y-98726190D01*
X117485401Y-98273809D02*
X117512187Y-98250000D01*
X117562782Y-98226190D01*
X117681830Y-98226190D01*
X117726473Y-98250000D01*
X117747306Y-98273809D01*
X117765163Y-98321428D01*
X117759211Y-98369047D01*
X117726473Y-98440476D01*
X117405044Y-98726190D01*
X117714568Y-98726190D01*
X116214568Y-97726190D02*
X116277068Y-97226190D01*
X116610401Y-97226190D02*
X116705639Y-97226190D01*
X116750282Y-97250000D01*
X116791949Y-97297619D01*
X116803854Y-97392857D01*
X116783020Y-97559523D01*
X116747306Y-97654761D01*
X116693735Y-97702380D01*
X116643139Y-97726190D01*
X116547901Y-97726190D01*
X116503258Y-97702380D01*
X116461592Y-97654761D01*
X116449687Y-97559523D01*
X116470520Y-97392857D01*
X116506235Y-97297619D01*
X116559806Y-97250000D01*
X116610401Y-97226190D01*
X117009211Y-97273809D02*
X117035997Y-97250000D01*
X117086592Y-97226190D01*
X117205639Y-97226190D01*
X117250282Y-97250000D01*
X117271116Y-97273809D01*
X117288973Y-97321428D01*
X117283020Y-97369047D01*
X117250282Y-97440476D01*
X116928854Y-97726190D01*
X117238377Y-97726190D01*
X117714568Y-97726190D02*
X117428854Y-97726190D01*
X117571711Y-97726190D02*
X117634211Y-97226190D01*
X117577663Y-97297619D01*
X117524092Y-97345238D01*
X117473497Y-97369047D01*
X105378258Y-107273809D02*
X105405044Y-107250000D01*
X105455639Y-107226190D01*
X105574687Y-107226190D01*
X105619330Y-107250000D01*
X105640163Y-107273809D01*
X105658020Y-107321428D01*
X105652068Y-107369047D01*
X105619330Y-107440476D01*
X105297901Y-107726190D01*
X105607425Y-107726190D01*
X105836592Y-107226190D02*
X106169925Y-107226190D01*
X105893139Y-107726190D01*
X105214568Y-106726190D02*
X105277068Y-106226190D01*
X105610401Y-106226190D02*
X105705639Y-106226190D01*
X105750282Y-106250000D01*
X105791949Y-106297619D01*
X105803854Y-106392857D01*
X105783020Y-106559523D01*
X105747306Y-106654761D01*
X105693735Y-106702380D01*
X105643139Y-106726190D01*
X105547901Y-106726190D01*
X105503258Y-106702380D01*
X105461592Y-106654761D01*
X105449687Y-106559523D01*
X105470520Y-106392857D01*
X105506235Y-106297619D01*
X105559806Y-106250000D01*
X105610401Y-106226190D01*
X106009211Y-106273809D02*
X106035997Y-106250000D01*
X106086592Y-106226190D01*
X106205639Y-106226190D01*
X106250282Y-106250000D01*
X106271116Y-106273809D01*
X106288973Y-106321428D01*
X106283020Y-106369047D01*
X106250282Y-106440476D01*
X105928854Y-106726190D01*
X106238377Y-106726190D01*
X106729449Y-106226190D02*
X106634211Y-106226190D01*
X106583616Y-106250000D01*
X106556830Y-106273809D01*
X106500282Y-106345238D01*
X106464568Y-106440476D01*
X106440758Y-106630952D01*
X106458616Y-106678571D01*
X106479449Y-106702380D01*
X106524092Y-106726190D01*
X106619330Y-106726190D01*
X106669925Y-106702380D01*
X106696711Y-106678571D01*
X106726473Y-106630952D01*
X106741354Y-106511904D01*
X106723497Y-106464285D01*
X106702663Y-106440476D01*
X106658020Y-106416666D01*
X106562782Y-106416666D01*
X106512187Y-106440476D01*
X106485401Y-106464285D01*
X106455639Y-106511904D01*
X105214568Y-105726190D02*
X105277068Y-105226190D01*
X105610401Y-105226190D02*
X105705639Y-105226190D01*
X105750282Y-105250000D01*
X105791949Y-105297619D01*
X105803854Y-105392857D01*
X105783020Y-105559523D01*
X105747306Y-105654761D01*
X105693735Y-105702380D01*
X105643139Y-105726190D01*
X105547901Y-105726190D01*
X105503258Y-105702380D01*
X105461592Y-105654761D01*
X105449687Y-105559523D01*
X105470520Y-105392857D01*
X105506235Y-105297619D01*
X105559806Y-105250000D01*
X105610401Y-105226190D01*
X106009211Y-105273809D02*
X106035997Y-105250000D01*
X106086592Y-105226190D01*
X106205639Y-105226190D01*
X106250282Y-105250000D01*
X106271116Y-105273809D01*
X106288973Y-105321428D01*
X106283020Y-105369047D01*
X106250282Y-105440476D01*
X105928854Y-105726190D01*
X106238377Y-105726190D01*
X106753258Y-105226190D02*
X106515163Y-105226190D01*
X106461592Y-105464285D01*
X106488377Y-105440476D01*
X106538973Y-105416666D01*
X106658020Y-105416666D01*
X106702663Y-105440476D01*
X106723497Y-105464285D01*
X106741354Y-105511904D01*
X106726473Y-105630952D01*
X106696711Y-105678571D01*
X106669925Y-105702380D01*
X106619330Y-105726190D01*
X106500282Y-105726190D01*
X106455639Y-105702380D01*
X106434806Y-105678571D01*
X105214568Y-104726190D02*
X105277068Y-104226190D01*
X105610401Y-104226190D02*
X105705639Y-104226190D01*
X105750282Y-104250000D01*
X105791949Y-104297619D01*
X105803854Y-104392857D01*
X105783020Y-104559523D01*
X105747306Y-104654761D01*
X105693735Y-104702380D01*
X105643139Y-104726190D01*
X105547901Y-104726190D01*
X105503258Y-104702380D01*
X105461592Y-104654761D01*
X105449687Y-104559523D01*
X105470520Y-104392857D01*
X105506235Y-104297619D01*
X105559806Y-104250000D01*
X105610401Y-104226190D01*
X105991354Y-104226190D02*
X106300877Y-104226190D01*
X106110401Y-104416666D01*
X106181830Y-104416666D01*
X106226473Y-104440476D01*
X106247306Y-104464285D01*
X106265163Y-104511904D01*
X106250282Y-104630952D01*
X106220520Y-104678571D01*
X106193735Y-104702380D01*
X106143139Y-104726190D01*
X106000282Y-104726190D01*
X105955639Y-104702380D01*
X105934806Y-104678571D01*
X106467544Y-104226190D02*
X106777068Y-104226190D01*
X106586592Y-104416666D01*
X106658020Y-104416666D01*
X106702663Y-104440476D01*
X106723497Y-104464285D01*
X106741354Y-104511904D01*
X106726473Y-104630952D01*
X106696711Y-104678571D01*
X106669925Y-104702380D01*
X106619330Y-104726190D01*
X106476473Y-104726190D01*
X106431830Y-104702380D01*
X106410997Y-104678571D01*
X105649092Y-103678571D02*
X105622306Y-103702380D01*
X105547901Y-103726190D01*
X105500282Y-103726190D01*
X105431830Y-103702380D01*
X105390163Y-103654761D01*
X105372306Y-103607142D01*
X105360401Y-103511904D01*
X105369330Y-103440476D01*
X105405044Y-103345238D01*
X105434806Y-103297619D01*
X105488377Y-103250000D01*
X105562782Y-103226190D01*
X105610401Y-103226190D01*
X105678854Y-103250000D01*
X105699687Y-103273809D01*
X105851473Y-103583333D02*
X106089568Y-103583333D01*
X105785997Y-103726190D02*
X106015163Y-103226190D01*
X106119330Y-103726190D01*
X106285997Y-103726190D02*
X106348497Y-103226190D01*
X106538973Y-103226190D01*
X106583616Y-103250000D01*
X106604449Y-103273809D01*
X106622306Y-103321428D01*
X106613377Y-103392857D01*
X106583616Y-103440476D01*
X106556830Y-103464285D01*
X106506235Y-103488095D01*
X106315758Y-103488095D01*
X105336592Y-102226190D02*
X105440758Y-102726190D01*
X105669925Y-102226190D01*
X105774092Y-102726190D02*
X105836592Y-102226190D01*
X106059806Y-102726190D01*
X106122306Y-102226190D01*
X105214568Y-101726190D02*
X105277068Y-101226190D01*
X105610401Y-101226190D02*
X105705639Y-101226190D01*
X105750282Y-101250000D01*
X105791949Y-101297619D01*
X105803854Y-101392857D01*
X105783020Y-101559523D01*
X105747306Y-101654761D01*
X105693735Y-101702380D01*
X105643139Y-101726190D01*
X105547901Y-101726190D01*
X105503258Y-101702380D01*
X105461592Y-101654761D01*
X105449687Y-101559523D01*
X105470520Y-101392857D01*
X105506235Y-101297619D01*
X105559806Y-101250000D01*
X105610401Y-101226190D01*
X105991354Y-101226190D02*
X106300877Y-101226190D01*
X106110401Y-101416666D01*
X106181830Y-101416666D01*
X106226473Y-101440476D01*
X106247306Y-101464285D01*
X106265163Y-101511904D01*
X106250282Y-101630952D01*
X106220520Y-101678571D01*
X106193735Y-101702380D01*
X106143139Y-101726190D01*
X106000282Y-101726190D01*
X105955639Y-101702380D01*
X105934806Y-101678571D01*
X106708616Y-101392857D02*
X106666949Y-101726190D01*
X106613377Y-101202380D02*
X106449687Y-101559523D01*
X106759211Y-101559523D01*
X105214568Y-100726190D02*
X105277068Y-100226190D01*
X105610401Y-100226190D02*
X105705639Y-100226190D01*
X105750282Y-100250000D01*
X105791949Y-100297619D01*
X105803854Y-100392857D01*
X105783020Y-100559523D01*
X105747306Y-100654761D01*
X105693735Y-100702380D01*
X105643139Y-100726190D01*
X105547901Y-100726190D01*
X105503258Y-100702380D01*
X105461592Y-100654761D01*
X105449687Y-100559523D01*
X105470520Y-100392857D01*
X105506235Y-100297619D01*
X105559806Y-100250000D01*
X105610401Y-100226190D01*
X105991354Y-100226190D02*
X106300877Y-100226190D01*
X106110401Y-100416666D01*
X106181830Y-100416666D01*
X106226473Y-100440476D01*
X106247306Y-100464285D01*
X106265163Y-100511904D01*
X106250282Y-100630952D01*
X106220520Y-100678571D01*
X106193735Y-100702380D01*
X106143139Y-100726190D01*
X106000282Y-100726190D01*
X105955639Y-100702380D01*
X105934806Y-100678571D01*
X106485401Y-100273809D02*
X106512187Y-100250000D01*
X106562782Y-100226190D01*
X106681830Y-100226190D01*
X106726473Y-100250000D01*
X106747306Y-100273809D01*
X106765163Y-100321428D01*
X106759211Y-100369047D01*
X106726473Y-100440476D01*
X106405044Y-100726190D01*
X106714568Y-100726190D01*
X105214568Y-99726190D02*
X105277068Y-99226190D01*
X105610401Y-99226190D02*
X105705639Y-99226190D01*
X105750282Y-99250000D01*
X105791949Y-99297619D01*
X105803854Y-99392857D01*
X105783020Y-99559523D01*
X105747306Y-99654761D01*
X105693735Y-99702380D01*
X105643139Y-99726190D01*
X105547901Y-99726190D01*
X105503258Y-99702380D01*
X105461592Y-99654761D01*
X105449687Y-99559523D01*
X105470520Y-99392857D01*
X105506235Y-99297619D01*
X105559806Y-99250000D01*
X105610401Y-99226190D01*
X105991354Y-99226190D02*
X106300877Y-99226190D01*
X106110401Y-99416666D01*
X106181830Y-99416666D01*
X106226473Y-99440476D01*
X106247306Y-99464285D01*
X106265163Y-99511904D01*
X106250282Y-99630952D01*
X106220520Y-99678571D01*
X106193735Y-99702380D01*
X106143139Y-99726190D01*
X106000282Y-99726190D01*
X105955639Y-99702380D01*
X105934806Y-99678571D01*
X106753258Y-99226190D02*
X106515163Y-99226190D01*
X106461592Y-99464285D01*
X106488377Y-99440476D01*
X106538973Y-99416666D01*
X106658020Y-99416666D01*
X106702663Y-99440476D01*
X106723497Y-99464285D01*
X106741354Y-99511904D01*
X106726473Y-99630952D01*
X106696711Y-99678571D01*
X106669925Y-99702380D01*
X106619330Y-99726190D01*
X106500282Y-99726190D01*
X106455639Y-99702380D01*
X106434806Y-99678571D01*
X105649092Y-98678571D02*
X105622306Y-98702380D01*
X105547901Y-98726190D01*
X105500282Y-98726190D01*
X105431830Y-98702380D01*
X105390163Y-98654761D01*
X105372306Y-98607142D01*
X105360401Y-98511904D01*
X105369330Y-98440476D01*
X105405044Y-98345238D01*
X105434806Y-98297619D01*
X105488377Y-98250000D01*
X105562782Y-98226190D01*
X105610401Y-98226190D01*
X105678854Y-98250000D01*
X105699687Y-98273809D01*
X105851473Y-98583333D02*
X106089568Y-98583333D01*
X105785997Y-98726190D02*
X106015163Y-98226190D01*
X106119330Y-98726190D01*
X106285997Y-98726190D02*
X106348497Y-98226190D01*
X106538973Y-98226190D01*
X106583616Y-98250000D01*
X106604449Y-98273809D01*
X106622306Y-98321428D01*
X106613377Y-98392857D01*
X106583616Y-98440476D01*
X106556830Y-98464285D01*
X106506235Y-98488095D01*
X106315758Y-98488095D01*
X105348497Y-97226190D02*
X105452663Y-97726190D01*
X105681830Y-97226190D01*
X105785997Y-97726190D02*
X105848497Y-97226190D01*
X106038973Y-97226190D01*
X106083616Y-97250000D01*
X106104449Y-97273809D01*
X106122306Y-97321428D01*
X106113377Y-97392857D01*
X106083616Y-97440476D01*
X106056830Y-97464285D01*
X106006235Y-97488095D01*
X105815758Y-97488095D01*
D12*
%TO.C,C1*%
X108359420Y-95990000D02*
X108640580Y-95990000D01*
X108359420Y-97010000D02*
X108640580Y-97010000D01*
%TO.C,C2*%
X111510000Y-96859420D02*
X111510000Y-97140580D01*
X110490000Y-96859420D02*
X110490000Y-97140580D01*
%TO.C,C3*%
X113010000Y-96859420D02*
X113010000Y-97140580D01*
X111990000Y-96859420D02*
X111990000Y-97140580D01*
%TO.C,U1*%
X115110000Y-106135000D02*
X115110000Y-106610000D01*
X115110000Y-106610000D02*
X114635000Y-106610000D01*
X107890000Y-99865000D02*
X107890000Y-99390000D01*
X107890000Y-99390000D02*
X108365000Y-99390000D01*
X107890000Y-106135000D02*
X107890000Y-106610000D01*
X107890000Y-106610000D02*
X108365000Y-106610000D01*
X115110000Y-99865000D02*
X115110000Y-99390000D01*
%TO.C,R1*%
X108737258Y-98522500D02*
X108262742Y-98522500D01*
X108737258Y-97477500D02*
X108262742Y-97477500D01*
%TO.C,J2*%
X116410000Y-109515000D02*
X116410000Y-106855000D01*
X108730000Y-109515000D02*
X116410000Y-109515000D01*
X108730000Y-106855000D02*
X116410000Y-106855000D01*
X108730000Y-109515000D02*
X108730000Y-106855000D01*
X107460000Y-109515000D02*
X106130000Y-109515000D01*
X106130000Y-109515000D02*
X106130000Y-108185000D01*
%TD*%
M02*
