M48
; DRILL file {KiCad (5.99.0-10506-gb986797469)} date Wed May  5 16:41:50 2021
; FORMAT={-:-/ absolute / inch / decimal}
; #@! TF.CreationDate,2021-05-05T16:41:50+02:00
; #@! TF.GenerationSoftware,Kicad,Pcbnew,(5.99.0-10506-gb986797469)
; #@! TF.FileFunction,MixedPlating,1,4
FMAT,2
INCH
; #@! TA.AperFunction,Plated,PTH,ViaDrill
T1C0.0079
; #@! TA.AperFunction,Plated,PTH,ComponentDrill
T2C0.0118
; #@! TA.AperFunction,Plated,PTH,ComponentDrill
T3C0.0157
; #@! TA.AperFunction,Plated,PTH,ComponentDrill
T4C0.0394
%
G90
G05
T1
X4.1142Y-3.7795
X4.1142Y-4.2717
X4.1142Y-4.3898
X4.1142Y-4.5079
X4.1564Y-3.757
X4.1929Y-3.8976
X4.2056Y-3.757
X4.2096Y-4.063
X4.2096Y-4.1028
X4.2096Y-4.1423
X4.2126Y-4.026
X4.2244Y-4.124
X4.2246Y-4.0846
X4.2268Y-4.0453
X4.2411Y-3.8279
X4.245Y-3.757
X4.258Y-3.91
X4.272Y-3.829
X4.2771Y-3.8878
X4.302Y-3.757
X4.315Y-4.0079
X4.3197Y-3.8916
X4.3307Y-4.0591
X4.3356Y-3.8494
X4.336Y-3.873
X4.3386Y-4.1181
X4.3504Y-3.9724
X4.3617Y-3.8829
X4.3729Y-3.757
X4.3799Y-4.3209
X4.3799Y-4.439
X4.3854Y-3.8825
X4.3898Y-4.0551
X4.3973Y-4.2224
X4.4102Y-3.8813
X4.429Y-3.757
X4.4331Y-3.9724
X4.4358Y-3.8852
X4.4409Y-4.0315
X4.4492Y-3.8198
X4.4528Y-4.1181
X4.4675Y-3.8448
X4.4724Y-3.9724
X4.4781Y-4.2382
X4.483Y-3.828
X4.4882Y-3.7795
X4.5Y-3.887
X4.508Y-3.816
X4.511Y-3.862
X4.5206Y-3.757
X4.5276Y-3.9173
X4.536Y-3.811
X4.54Y-3.855
X4.548Y-3.786
X4.5512Y-4.1634
X4.5528Y-3.981
X4.5528Y-4.0401
X4.5533Y-4.0811
X4.5621Y-4.2205
X4.5631Y-4.1026
X4.568Y-3.842
X4.5748Y-4.2874
X4.586Y-3.816
X4.5866Y-4.3701
X4.59Y-3.786
X4.5965Y-4.5079
X4.6063Y-4.1969
X4.6091Y-3.757
X4.6133Y-4.3457
X4.6171Y-4.2705
X4.6329Y-4.2323
X4.6339Y-4.3599
X4.6496Y-4.315
X4.6654Y-3.7992
X4.6654Y-4.439
X4.6654Y-4.5079
T2
X4.6516Y-3.7648
T3
X4.0945Y-3.8386
X4.0945Y-3.878
X4.0945Y-3.9173
X4.0945Y-3.9567
X4.0945Y-3.9961
X4.0945Y-4.0354
X4.0945Y-4.0748
X4.0945Y-4.1142
X4.0945Y-4.1535
X4.0945Y-4.1929
X4.0945Y-4.2323
X4.1142Y-3.8386
X4.1142Y-3.878
X4.1142Y-3.9173
X4.1142Y-3.9567
X4.1142Y-3.9961
X4.1142Y-4.0354
X4.1142Y-4.0748
X4.1142Y-4.1142
X4.1142Y-4.1535
X4.1142Y-4.1929
X4.1142Y-4.2323
X4.6654Y-3.8386
X4.6654Y-3.878
X4.6654Y-3.9173
X4.6654Y-3.9567
X4.6654Y-3.9961
X4.6654Y-4.0354
X4.6654Y-4.0748
X4.6654Y-4.1142
X4.6654Y-4.1535
X4.6654Y-4.1929
X4.6654Y-4.2323
X4.685Y-3.8386
X4.685Y-3.878
X4.685Y-3.9173
X4.685Y-3.9567
X4.685Y-3.9961
X4.685Y-4.0354
X4.685Y-4.0748
X4.685Y-4.1142
X4.685Y-4.1535
X4.685Y-4.1929
X4.685Y-4.2323
T4
X4.2307Y-4.2593
X4.2307Y-4.3593
X4.2307Y-4.4593
X4.3307Y-4.2593
X4.3307Y-4.3593
X4.3307Y-4.4593
X4.4307Y-4.2593
X4.4307Y-4.3593
X4.4307Y-4.4593
X4.5307Y-4.2593
X4.5307Y-4.3593
X4.5307Y-4.4593
T0
M30
