%TF.GenerationSoftware,KiCad,Pcbnew,(5.99.0-10506-gb986797469)*%
%TF.CreationDate,2022-01-12T00:10:20+01:00*%
%TF.ProjectId,ESP31_V3,45535033-315f-4563-932e-6b696361645f,rev?*%
%TF.SameCoordinates,Original*%
%TF.FileFunction,Copper,L3,Inr*%
%TF.FilePolarity,Positive*%
%FSLAX46Y46*%
G04 Gerber Fmt 4.6, Leading zero omitted, Abs format (unit mm)*
G04 Created by KiCad (PCBNEW (5.99.0-10506-gb986797469)) date 2022-01-12 00:10:20*
%MOMM*%
%LPD*%
G01*
G04 APERTURE LIST*
G04 Aperture macros list*
%AMOutline5P*
0 Free polygon, 5 corners , with rotation*
0 The origin of the aperture is its center*
0 number of corners: always 8*
0 $1 to $10 corner X, Y*
0 $11 Rotation angle, in degrees counterclockwise*
0 create outline with 8 corners*
4,1,5,$1,$2,$3,$4,$5,$6,$7,$8,$9,$10,$1,$2,$11*%
%AMOutline6P*
0 Free polygon, 6 corners , with rotation*
0 The origin of the aperture is its center*
0 number of corners: always 6*
0 $1 to $12 corner X, Y*
0 $13 Rotation angle, in degrees counterclockwise*
0 create outline with 6 corners*
4,1,6,$1,$2,$3,$4,$5,$6,$7,$8,$9,$10,$11,$12,$1,$2,$13*%
%AMOutline7P*
0 Free polygon, 7 corners , with rotation*
0 The origin of the aperture is its center*
0 number of corners: always 7*
0 $1 to $14 corner X, Y*
0 $15 Rotation angle, in degrees counterclockwise*
0 create outline with 7 corners*
4,1,7,$1,$2,$3,$4,$5,$6,$7,$8,$9,$10,$11,$12,$13,$14,$1,$2,$15*%
%AMOutline8P*
0 Free polygon, 8 corners , with rotation*
0 The origin of the aperture is its center*
0 number of corners: always 8*
0 $1 to $16 corner X, Y*
0 $17 Rotation angle, in degrees counterclockwise*
0 create outline with 8 corners*
4,1,8,$1,$2,$3,$4,$5,$6,$7,$8,$9,$10,$11,$12,$13,$14,$15,$16,$1,$2,$17*%
G04 Aperture macros list end*
%TA.AperFunction,ComponentPad*%
%ADD10Outline6P,0.250000X-0.500000X-0.500000X-0.500000X-0.500000X0.500000X0.250000X0.500000X0.500000X0.250000X0.500000X-0.250000X180.000000*%
%TD*%
%TA.AperFunction,ComponentPad*%
%ADD11Outline6P,0.250000X-0.500000X-0.500000X-0.500000X-0.500000X0.500000X0.250000X0.500000X0.500000X0.250000X0.500000X-0.250000X0.000000*%
%TD*%
%TA.AperFunction,ComponentPad*%
%ADD12R,0.900000X0.500000*%
%TD*%
%TA.AperFunction,ComponentPad*%
%ADD13R,1.700000X1.700000*%
%TD*%
%TA.AperFunction,ComponentPad*%
%ADD14O,1.700000X1.700000*%
%TD*%
%TA.AperFunction,ViaPad*%
%ADD15C,0.400000*%
%TD*%
%TA.AperFunction,ViaPad*%
%ADD16C,0.800000*%
%TD*%
%TA.AperFunction,Conductor*%
%ADD17C,0.200000*%
%TD*%
G04 APERTURE END LIST*
D10*
%TO.N,/IO5*%
%TO.C,J5*%
X118500000Y-107780000D03*
%TD*%
%TO.N,/IO21*%
%TO.C,J10*%
X118500000Y-101180000D03*
%TD*%
%TO.N,/IO10*%
%TO.C,J7*%
X118500000Y-109230000D03*
%TD*%
D11*
%TO.N,/IO34*%
%TO.C,J18*%
X104500000Y-102870000D03*
%TD*%
D10*
%TO.N,/IO19*%
%TO.C,J9*%
X118500000Y-103720000D03*
%TD*%
%TO.N,/IO9*%
%TO.C,J6*%
X118500000Y-110500000D03*
%TD*%
%TO.N,/IO23*%
%TO.C,J12*%
X118500000Y-104990000D03*
%TD*%
D11*
%TO.N,/IO35*%
%TO.C,J19*%
X104500000Y-100330000D03*
%TD*%
%TO.N,/IO25*%
%TO.C,J13*%
X104500000Y-107950000D03*
%TD*%
%TO.N,/IO27*%
%TO.C,J15*%
X104500000Y-110490000D03*
%TD*%
%TO.N,/IO33*%
%TO.C,J17*%
X104500000Y-106680000D03*
%TD*%
%TO.N,/IO26*%
%TO.C,J14*%
X104500000Y-109220000D03*
%TD*%
D10*
%TO.N,/IO18*%
%TO.C,J8*%
X118500000Y-106260000D03*
%TD*%
D12*
%TO.N,GND*%
%TO.C,AE1*%
X118150000Y-95625000D03*
%TD*%
D11*
%TO.N,/CAPN*%
%TO.C,J3*%
X104500000Y-105410000D03*
%TD*%
%TO.N,/SENS_VN*%
%TO.C,J4*%
X104500000Y-104140000D03*
%TD*%
D10*
%TO.N,/IO22*%
%TO.C,J11*%
X118500000Y-102450000D03*
%TD*%
D11*
%TO.N,/SENS_VP*%
%TO.C,J1*%
X104500000Y-97790000D03*
%TD*%
%TO.N,/IO32*%
%TO.C,J16*%
X104500000Y-101600000D03*
%TD*%
%TO.N,/CAPP*%
%TO.C,J2*%
X104500000Y-99060000D03*
%TD*%
D13*
%TO.N,GND*%
%TO.C,J20*%
X107500000Y-110725000D03*
D14*
%TO.N,/IO1*%
X107500000Y-113265000D03*
%TO.N,/IO2*%
X110040000Y-110725000D03*
%TO.N,/IO4*%
X110040000Y-113265000D03*
%TO.N,/IO0*%
X112580000Y-110725000D03*
%TO.N,/EN*%
X112580000Y-113265000D03*
%TO.N,/IO3*%
X115120000Y-110725000D03*
%TO.N,VIN*%
X115120000Y-113265000D03*
%TD*%
D15*
%TO.N,GND*%
X117350000Y-96150000D03*
X112889765Y-108410228D03*
X116130000Y-97680000D03*
X105500000Y-99300000D03*
X109100000Y-109150000D03*
X113900000Y-97100000D03*
X104550000Y-96200000D03*
X113550000Y-96200000D03*
X114850000Y-98150000D03*
X108580000Y-107330000D03*
X118500000Y-98500000D03*
X116530000Y-97200000D03*
X116750000Y-96050000D03*
X111500000Y-103000000D03*
X106650000Y-98200000D03*
X114200000Y-108900000D03*
X108508800Y-97256600D03*
X116500000Y-111100000D03*
X104500000Y-113750000D03*
X110500000Y-102000000D03*
X108740000Y-113670000D03*
X118500000Y-97750000D03*
X118500000Y-100000000D03*
X115350000Y-96050000D03*
X116750000Y-96600000D03*
X115150000Y-96600000D03*
X109900000Y-107400000D03*
X112500000Y-102000000D03*
X112500000Y-104000000D03*
X118500000Y-96250000D03*
X111750000Y-96200000D03*
X118500000Y-99250000D03*
X114503200Y-96800000D03*
X114400000Y-96200000D03*
X113374500Y-97587566D03*
X110150000Y-96200000D03*
X118500000Y-112750000D03*
X104500000Y-112750000D03*
X113621581Y-109899011D03*
X118500000Y-97000000D03*
X110500000Y-104000000D03*
X118500000Y-113750000D03*
X115450000Y-98050000D03*
X114450000Y-98700000D03*
%TO.N,/EN*%
X107725000Y-97227600D03*
X110162095Y-98373291D03*
%TO.N,+3V3*%
X110124000Y-97775000D03*
X114750000Y-99500000D03*
X113400000Y-108900000D03*
X116396800Y-101896800D03*
X115750000Y-101250000D03*
X107100000Y-104400000D03*
X117495701Y-105195701D03*
%TO.N,/IO1*%
X116464297Y-103214297D03*
%TO.N,/IO2*%
X107069740Y-108169740D03*
X117800000Y-97600000D03*
%TO.N,/IO4*%
X107542579Y-109142578D03*
%TO.N,/IO3*%
X117211935Y-103241894D03*
D16*
%TO.N,Net-(C1-Pad2)*%
X116700000Y-110200000D03*
D15*
%TO.N,/SENS_VN*%
X110808929Y-98625870D03*
%TO.N,/SENS_VP*%
X112700500Y-98625000D03*
%TO.N,/CAPP*%
X112057502Y-98617052D03*
%TO.N,/CAPN*%
X111408098Y-98605879D03*
%TO.N,/IO34*%
X109668798Y-98858724D03*
%TD*%
D17*
%TO.N,/EN*%
X110750000Y-112000000D02*
X106495880Y-112000000D01*
X105960000Y-100190000D02*
X105960000Y-111440000D01*
X112015000Y-113265000D02*
X110750000Y-112000000D01*
X112540000Y-113265000D02*
X112015000Y-113265000D01*
X110148017Y-98359213D02*
X107790787Y-98359213D01*
X107790787Y-98359213D02*
X105960000Y-100190000D01*
X106495880Y-112000000D02*
X105960000Y-111464120D01*
X110162095Y-98373291D02*
X110148017Y-98359213D01*
X105960000Y-111464120D02*
X105960000Y-111440000D01*
%TD*%
%TA.AperFunction,NonConductor*%
G36*
X123959191Y-90018907D02*
G01*
X123995155Y-90068407D01*
X124000000Y-90099000D01*
X124000000Y-114901000D01*
X123981093Y-114959191D01*
X123931593Y-114995155D01*
X123901000Y-115000000D01*
X120099000Y-115000000D01*
X120040809Y-114981093D01*
X120004845Y-114931593D01*
X120000000Y-114901000D01*
X120000000Y-114025613D01*
X120001957Y-114009265D01*
X120005286Y-114007741D01*
X120002667Y-113936096D01*
X120004416Y-113934687D01*
X120002359Y-113927681D01*
X120002092Y-113920381D01*
X119999985Y-113919597D01*
X119964095Y-113797364D01*
X119965583Y-113795221D01*
X119961685Y-113789156D01*
X119959654Y-113782238D01*
X119957060Y-113781959D01*
X119888207Y-113674820D01*
X119889031Y-113672346D01*
X119883583Y-113667626D01*
X119879684Y-113661558D01*
X119877116Y-113662021D01*
X119850844Y-113639256D01*
X119799243Y-113594544D01*
X120618519Y-113594544D01*
X120636731Y-113767816D01*
X120692878Y-113932747D01*
X120784170Y-114081139D01*
X120906069Y-114205619D01*
X120910723Y-114208618D01*
X120910725Y-114208620D01*
X121047866Y-114297001D01*
X121052518Y-114299999D01*
X121216236Y-114359588D01*
X121350111Y-114376500D01*
X121444575Y-114376500D01*
X121468451Y-114373822D01*
X121567643Y-114362696D01*
X121567647Y-114362695D01*
X121573140Y-114362079D01*
X121737675Y-114304782D01*
X121885427Y-114212456D01*
X122009053Y-114089691D01*
X122102408Y-113942587D01*
X122160852Y-113778456D01*
X122181481Y-113605456D01*
X122163269Y-113432184D01*
X122107122Y-113267253D01*
X122015830Y-113118861D01*
X121893931Y-112994381D01*
X121889277Y-112991382D01*
X121889275Y-112991380D01*
X121752134Y-112902999D01*
X121747482Y-112900001D01*
X121583764Y-112840412D01*
X121449889Y-112823500D01*
X121355425Y-112823500D01*
X121331549Y-112826178D01*
X121232357Y-112837304D01*
X121232353Y-112837305D01*
X121226860Y-112837921D01*
X121062325Y-112895218D01*
X120914573Y-112987544D01*
X120871554Y-113030263D01*
X120800233Y-113101088D01*
X120790947Y-113110309D01*
X120697592Y-113257413D01*
X120639148Y-113421544D01*
X120638493Y-113427037D01*
X120621068Y-113573171D01*
X120618519Y-113594544D01*
X119799243Y-113594544D01*
X119789322Y-113585948D01*
X119789321Y-113585947D01*
X119780868Y-113578623D01*
X119780962Y-113576016D01*
X119774403Y-113573021D01*
X119768954Y-113568299D01*
X119766621Y-113569467D01*
X119664221Y-113522702D01*
X119660939Y-113521203D01*
X119660937Y-113521203D01*
X119650776Y-113516562D01*
X119650131Y-113514034D01*
X119642994Y-113513008D01*
X119636436Y-113510013D01*
X119634527Y-113511790D01*
X119508468Y-113493666D01*
X119507137Y-113491422D01*
X119500000Y-113492448D01*
X119492863Y-113491422D01*
X119491532Y-113493666D01*
X119465499Y-113497409D01*
X119405210Y-113486976D01*
X119362568Y-113443098D01*
X119352779Y-113390876D01*
X119353698Y-113380263D01*
X119353698Y-113380261D01*
X119354404Y-113372108D01*
X119326262Y-113258814D01*
X119262939Y-113160744D01*
X119262502Y-113160399D01*
X119238992Y-113108326D01*
X119251401Y-113048413D01*
X119264697Y-113030263D01*
X119291574Y-113001188D01*
X119297130Y-112995178D01*
X119300438Y-112987695D01*
X119300440Y-112987692D01*
X119341023Y-112895893D01*
X119341024Y-112895890D01*
X119344331Y-112888409D01*
X119349573Y-112827892D01*
X119353698Y-112780261D01*
X119353698Y-112780260D01*
X119354404Y-112772108D01*
X119326262Y-112658814D01*
X119262939Y-112560744D01*
X119262502Y-112560399D01*
X119238992Y-112508326D01*
X119251401Y-112448413D01*
X119264697Y-112430263D01*
X119291574Y-112401188D01*
X119297130Y-112395178D01*
X119300438Y-112387695D01*
X119300440Y-112387692D01*
X119341023Y-112295893D01*
X119341024Y-112295890D01*
X119344331Y-112288409D01*
X119349573Y-112227892D01*
X119353698Y-112180261D01*
X119353698Y-112180260D01*
X119354404Y-112172108D01*
X119342093Y-112122546D01*
X119346414Y-112061513D01*
X119385785Y-112014677D01*
X119445166Y-111999927D01*
X119452262Y-112000688D01*
X119491532Y-112006334D01*
X119492863Y-112008578D01*
X119500000Y-112007552D01*
X119507137Y-112008578D01*
X119508468Y-112006334D01*
X119634527Y-111988210D01*
X119636436Y-111989987D01*
X119642994Y-111986992D01*
X119650131Y-111985966D01*
X119650776Y-111983438D01*
X119700469Y-111960744D01*
X119756455Y-111935176D01*
X119756456Y-111935175D01*
X119766621Y-111930533D01*
X119768954Y-111931701D01*
X119774403Y-111926979D01*
X119780962Y-111923984D01*
X119780868Y-111921377D01*
X119785894Y-111917022D01*
X119785896Y-111917021D01*
X119847470Y-111863667D01*
X119877116Y-111837979D01*
X119879684Y-111838442D01*
X119883583Y-111832374D01*
X119889031Y-111827654D01*
X119888207Y-111825180D01*
X119957060Y-111718041D01*
X119959654Y-111717762D01*
X119961685Y-111710844D01*
X119965583Y-111704779D01*
X119964095Y-111702636D01*
X119999985Y-111580403D01*
X120002092Y-111579619D01*
X120002359Y-111572319D01*
X120004416Y-111565313D01*
X120002667Y-111563904D01*
X120005286Y-111492259D01*
X120001833Y-111490678D01*
X120000000Y-111477559D01*
X120000000Y-100225613D01*
X120001957Y-100209265D01*
X120005286Y-100207741D01*
X120002667Y-100136096D01*
X120004416Y-100134687D01*
X120002359Y-100127681D01*
X120002092Y-100120381D01*
X119999985Y-100119597D01*
X119964095Y-99997364D01*
X119965583Y-99995221D01*
X119961685Y-99989156D01*
X119959654Y-99982238D01*
X119957060Y-99981959D01*
X119888207Y-99874820D01*
X119889031Y-99872346D01*
X119883583Y-99867626D01*
X119879684Y-99861558D01*
X119877116Y-99862021D01*
X119780868Y-99778623D01*
X119780962Y-99776016D01*
X119774403Y-99773021D01*
X119768954Y-99768299D01*
X119766621Y-99769467D01*
X119760571Y-99766704D01*
X119660939Y-99721203D01*
X119660937Y-99721203D01*
X119650776Y-99716562D01*
X119650131Y-99714034D01*
X119642994Y-99713008D01*
X119636436Y-99710013D01*
X119634527Y-99711790D01*
X119508468Y-99693666D01*
X119507137Y-99691422D01*
X119500000Y-99692448D01*
X119492863Y-99691422D01*
X119491532Y-99693666D01*
X119414335Y-99704765D01*
X119354046Y-99694332D01*
X119311403Y-99650454D01*
X119302696Y-99589891D01*
X119309700Y-99566744D01*
X119341023Y-99495893D01*
X119341024Y-99495890D01*
X119344331Y-99488409D01*
X119349573Y-99427892D01*
X119353698Y-99380261D01*
X119353698Y-99380260D01*
X119354404Y-99372108D01*
X119326262Y-99258814D01*
X119262939Y-99160744D01*
X119262502Y-99160399D01*
X119238992Y-99108326D01*
X119251401Y-99048413D01*
X119264697Y-99030263D01*
X119291574Y-99001188D01*
X119297130Y-98995178D01*
X119300438Y-98987695D01*
X119300440Y-98987692D01*
X119341023Y-98895893D01*
X119341024Y-98895890D01*
X119344331Y-98888409D01*
X119349573Y-98827892D01*
X119353698Y-98780261D01*
X119353698Y-98780260D01*
X119354404Y-98772108D01*
X119326262Y-98658814D01*
X119318742Y-98647167D01*
X119303062Y-98588026D01*
X119325138Y-98530963D01*
X119376540Y-98497773D01*
X119416000Y-98495475D01*
X119466975Y-98502803D01*
X119491532Y-98506334D01*
X119492863Y-98508578D01*
X119500000Y-98507552D01*
X119507137Y-98508578D01*
X119508468Y-98506334D01*
X119634527Y-98488210D01*
X119636436Y-98489987D01*
X119642994Y-98486992D01*
X119650131Y-98485966D01*
X119650776Y-98483438D01*
X119664221Y-98477298D01*
X119756455Y-98435176D01*
X119756456Y-98435175D01*
X119766621Y-98430533D01*
X119768954Y-98431701D01*
X119774403Y-98426979D01*
X119780962Y-98423984D01*
X119780868Y-98421377D01*
X119785894Y-98417022D01*
X119785896Y-98417021D01*
X119834054Y-98375291D01*
X119877116Y-98337979D01*
X119879684Y-98338442D01*
X119883583Y-98332374D01*
X119889031Y-98327654D01*
X119888207Y-98325180D01*
X119957060Y-98218041D01*
X119959654Y-98217762D01*
X119961685Y-98210844D01*
X119965583Y-98204779D01*
X119964095Y-98202636D01*
X119999985Y-98080403D01*
X120002092Y-98079619D01*
X120002359Y-98072319D01*
X120004416Y-98065313D01*
X120002667Y-98063904D01*
X120005286Y-97992259D01*
X120001833Y-97990678D01*
X120000000Y-97977559D01*
X120000000Y-90994544D01*
X122018519Y-90994544D01*
X122036731Y-91167816D01*
X122092878Y-91332747D01*
X122184170Y-91481139D01*
X122306069Y-91605619D01*
X122310723Y-91608618D01*
X122310725Y-91608620D01*
X122447866Y-91697001D01*
X122452518Y-91699999D01*
X122616236Y-91759588D01*
X122750111Y-91776500D01*
X122844575Y-91776500D01*
X122868451Y-91773822D01*
X122967643Y-91762696D01*
X122967647Y-91762695D01*
X122973140Y-91762079D01*
X123137675Y-91704782D01*
X123285427Y-91612456D01*
X123409053Y-91489691D01*
X123502408Y-91342587D01*
X123560852Y-91178456D01*
X123581481Y-91005456D01*
X123563269Y-90832184D01*
X123507122Y-90667253D01*
X123415830Y-90518861D01*
X123293931Y-90394381D01*
X123289277Y-90391382D01*
X123289275Y-90391380D01*
X123152134Y-90302999D01*
X123147482Y-90300001D01*
X122983764Y-90240412D01*
X122849889Y-90223500D01*
X122755425Y-90223500D01*
X122731549Y-90226178D01*
X122632357Y-90237304D01*
X122632353Y-90237305D01*
X122626860Y-90237921D01*
X122462325Y-90295218D01*
X122314573Y-90387544D01*
X122190947Y-90510309D01*
X122097592Y-90657413D01*
X122039148Y-90821544D01*
X122018519Y-90994544D01*
X120000000Y-90994544D01*
X120000000Y-90099000D01*
X120018907Y-90040809D01*
X120068407Y-90004845D01*
X120099000Y-90000000D01*
X123901000Y-90000000D01*
X123959191Y-90018907D01*
G37*
%TD.AperFunction*%
%TA.AperFunction,Conductor*%
%TO.N,+3V3*%
G36*
X109804790Y-95818907D02*
G01*
X109840754Y-95868407D01*
X109840754Y-95929593D01*
X109826989Y-95956608D01*
X109821944Y-95961653D01*
X109764347Y-96074694D01*
X109744500Y-96200000D01*
X109764347Y-96325306D01*
X109821944Y-96438347D01*
X109911653Y-96528056D01*
X109918590Y-96531591D01*
X109918592Y-96531592D01*
X109985944Y-96565909D01*
X110024694Y-96585653D01*
X110032388Y-96586872D01*
X110032389Y-96586872D01*
X110142304Y-96604281D01*
X110150000Y-96605500D01*
X110157696Y-96604281D01*
X110267611Y-96586872D01*
X110267612Y-96586872D01*
X110275306Y-96585653D01*
X110314056Y-96565909D01*
X110381408Y-96531592D01*
X110381410Y-96531591D01*
X110388347Y-96528056D01*
X110478056Y-96438347D01*
X110535653Y-96325306D01*
X110555500Y-96200000D01*
X110535653Y-96074694D01*
X110478056Y-95961653D01*
X110473170Y-95956767D01*
X110454401Y-95898998D01*
X110473310Y-95840807D01*
X110522810Y-95804845D01*
X110553401Y-95800000D01*
X111346599Y-95800000D01*
X111404790Y-95818907D01*
X111440754Y-95868407D01*
X111440754Y-95929593D01*
X111426989Y-95956608D01*
X111421944Y-95961653D01*
X111364347Y-96074694D01*
X111344500Y-96200000D01*
X111364347Y-96325306D01*
X111421944Y-96438347D01*
X111511653Y-96528056D01*
X111518590Y-96531591D01*
X111518592Y-96531592D01*
X111585944Y-96565909D01*
X111624694Y-96585653D01*
X111632388Y-96586872D01*
X111632389Y-96586872D01*
X111742304Y-96604281D01*
X111750000Y-96605500D01*
X111757696Y-96604281D01*
X111867611Y-96586872D01*
X111867612Y-96586872D01*
X111875306Y-96585653D01*
X111914056Y-96565909D01*
X111981408Y-96531592D01*
X111981410Y-96531591D01*
X111988347Y-96528056D01*
X112078056Y-96438347D01*
X112135653Y-96325306D01*
X112155500Y-96200000D01*
X112135653Y-96074694D01*
X112078056Y-95961653D01*
X112073170Y-95956767D01*
X112054401Y-95898998D01*
X112073310Y-95840807D01*
X112122810Y-95804845D01*
X112153401Y-95800000D01*
X113146599Y-95800000D01*
X113204790Y-95818907D01*
X113240754Y-95868407D01*
X113240754Y-95929593D01*
X113226989Y-95956608D01*
X113221944Y-95961653D01*
X113164347Y-96074694D01*
X113144500Y-96200000D01*
X113164347Y-96325306D01*
X113221944Y-96438347D01*
X113311653Y-96528056D01*
X113318592Y-96531592D01*
X113318594Y-96531593D01*
X113385944Y-96565909D01*
X113429209Y-96609173D01*
X113440000Y-96654119D01*
X113440000Y-97087138D01*
X113421093Y-97145329D01*
X113371593Y-97181293D01*
X113356487Y-97184919D01*
X113256889Y-97200694D01*
X113256888Y-97200694D01*
X113249194Y-97201913D01*
X113242254Y-97205449D01*
X113143092Y-97255974D01*
X113143090Y-97255975D01*
X113136153Y-97259510D01*
X113046444Y-97349219D01*
X113042909Y-97356156D01*
X113042908Y-97356158D01*
X113033710Y-97374211D01*
X112988847Y-97462260D01*
X112987628Y-97469954D01*
X112987628Y-97469955D01*
X112983670Y-97494947D01*
X112969000Y-97587566D01*
X112988847Y-97712872D01*
X112992383Y-97719812D01*
X113042353Y-97817883D01*
X113046444Y-97825913D01*
X113136153Y-97915622D01*
X113143090Y-97919157D01*
X113143092Y-97919158D01*
X113223411Y-97960082D01*
X113249194Y-97973219D01*
X113256888Y-97974438D01*
X113256889Y-97974438D01*
X113366804Y-97991847D01*
X113374500Y-97993066D01*
X113382196Y-97991847D01*
X113492111Y-97974438D01*
X113492112Y-97974438D01*
X113499806Y-97973219D01*
X113506744Y-97969684D01*
X113506753Y-97969681D01*
X113525592Y-97960082D01*
X113586024Y-97950511D01*
X113640142Y-97977894D01*
X113757879Y-98094308D01*
X114072991Y-98405879D01*
X114101075Y-98460237D01*
X114091593Y-98521220D01*
X114064347Y-98574694D01*
X114063128Y-98582388D01*
X114063128Y-98582389D01*
X114056269Y-98625695D01*
X114044500Y-98700000D01*
X114045719Y-98707696D01*
X114058849Y-98790591D01*
X114064347Y-98825306D01*
X114067883Y-98832246D01*
X114116889Y-98928425D01*
X114121944Y-98938347D01*
X114211653Y-99028056D01*
X114218590Y-99031591D01*
X114218592Y-99031592D01*
X114317754Y-99082117D01*
X114324694Y-99085653D01*
X114332388Y-99086872D01*
X114332389Y-99086872D01*
X114442304Y-99104281D01*
X114450000Y-99105500D01*
X114457696Y-99104281D01*
X114567611Y-99086872D01*
X114567612Y-99086872D01*
X114575306Y-99085653D01*
X114582246Y-99082117D01*
X114681408Y-99031592D01*
X114681410Y-99031591D01*
X114688347Y-99028056D01*
X114778056Y-98938347D01*
X114783112Y-98928425D01*
X114832117Y-98832246D01*
X114835653Y-98825306D01*
X114841152Y-98790591D01*
X114854281Y-98707696D01*
X114855500Y-98700000D01*
X114853094Y-98684808D01*
X114848526Y-98655967D01*
X114858097Y-98595535D01*
X114901362Y-98552270D01*
X114930820Y-98542699D01*
X114967611Y-98536872D01*
X114967612Y-98536872D01*
X114975306Y-98535653D01*
X114990216Y-98528056D01*
X115081408Y-98481592D01*
X115081410Y-98481591D01*
X115088347Y-98478056D01*
X115145353Y-98421050D01*
X115199870Y-98393273D01*
X115260302Y-98402844D01*
X115317753Y-98432117D01*
X115317756Y-98432118D01*
X115324694Y-98435653D01*
X115332388Y-98436872D01*
X115332389Y-98436872D01*
X115442304Y-98454281D01*
X115450000Y-98455500D01*
X115457696Y-98454281D01*
X115567611Y-98436872D01*
X115567612Y-98436872D01*
X115575306Y-98435653D01*
X115582246Y-98432117D01*
X115681408Y-98381592D01*
X115681410Y-98381591D01*
X115688347Y-98378056D01*
X115778056Y-98288347D01*
X115783419Y-98277823D01*
X115832117Y-98182246D01*
X115835653Y-98175306D01*
X115843031Y-98128726D01*
X115870809Y-98074210D01*
X115925326Y-98046433D01*
X115985757Y-98056005D01*
X115997748Y-98062115D01*
X115997754Y-98062117D01*
X116004694Y-98065653D01*
X116012388Y-98066872D01*
X116012389Y-98066872D01*
X116088924Y-98078994D01*
X116110359Y-98082389D01*
X116122304Y-98084281D01*
X116130000Y-98085500D01*
X116137696Y-98084281D01*
X116149642Y-98082389D01*
X116171076Y-98078994D01*
X116247611Y-98066872D01*
X116247612Y-98066872D01*
X116255306Y-98065653D01*
X116272308Y-98056990D01*
X116361408Y-98011592D01*
X116361410Y-98011591D01*
X116368347Y-98008056D01*
X116458056Y-97918347D01*
X116479987Y-97875306D01*
X116512117Y-97812246D01*
X116515653Y-97805306D01*
X116517172Y-97795719D01*
X116535500Y-97680000D01*
X116537238Y-97680275D01*
X116553188Y-97631184D01*
X116602688Y-97595220D01*
X116617791Y-97591595D01*
X116639276Y-97588192D01*
X116647611Y-97586872D01*
X116647612Y-97586872D01*
X116655306Y-97585653D01*
X116724985Y-97550150D01*
X116761408Y-97531592D01*
X116761410Y-97531591D01*
X116768347Y-97528056D01*
X116858056Y-97438347D01*
X116890871Y-97373945D01*
X116912117Y-97332246D01*
X116915653Y-97325306D01*
X116917521Y-97313512D01*
X116945299Y-97258995D01*
X116999816Y-97231219D01*
X117015302Y-97230000D01*
X117377471Y-97230000D01*
X117435662Y-97248907D01*
X117471626Y-97298407D01*
X117471626Y-97359593D01*
X117465681Y-97373945D01*
X117418227Y-97467080D01*
X117414347Y-97474694D01*
X117413128Y-97482388D01*
X117413128Y-97482389D01*
X117398824Y-97572702D01*
X117394500Y-97600000D01*
X117395719Y-97607696D01*
X117412378Y-97712872D01*
X117414347Y-97725306D01*
X117417883Y-97732246D01*
X117465609Y-97825913D01*
X117471944Y-97838347D01*
X117561653Y-97928056D01*
X117568590Y-97931591D01*
X117568592Y-97931592D01*
X117667754Y-97982117D01*
X117674694Y-97985653D01*
X117682388Y-97986872D01*
X117682389Y-97986872D01*
X117792304Y-98004281D01*
X117800000Y-98005500D01*
X117807696Y-98004281D01*
X117917611Y-97986872D01*
X117917612Y-97986872D01*
X117925306Y-97985653D01*
X117933636Y-97981409D01*
X117975492Y-97960082D01*
X118031812Y-97931386D01*
X118092243Y-97921815D01*
X118146760Y-97949592D01*
X118164966Y-97974651D01*
X118171944Y-97988347D01*
X118238593Y-98054996D01*
X118266370Y-98109513D01*
X118256799Y-98169945D01*
X118238593Y-98195004D01*
X118171944Y-98261653D01*
X118168409Y-98268590D01*
X118168408Y-98268592D01*
X118122204Y-98359273D01*
X118114347Y-98374694D01*
X118113128Y-98382388D01*
X118113128Y-98382389D01*
X118103745Y-98441631D01*
X118094500Y-98500000D01*
X118095719Y-98507696D01*
X118113080Y-98617304D01*
X118114347Y-98625306D01*
X118117883Y-98632246D01*
X118162292Y-98719403D01*
X118171944Y-98738347D01*
X118238593Y-98804996D01*
X118266370Y-98859513D01*
X118256799Y-98919945D01*
X118238593Y-98945004D01*
X118171944Y-99011653D01*
X118168409Y-99018590D01*
X118168408Y-99018592D01*
X118125616Y-99102577D01*
X118114347Y-99124694D01*
X118113128Y-99132388D01*
X118113128Y-99132389D01*
X118105385Y-99181274D01*
X118094500Y-99250000D01*
X118114347Y-99375306D01*
X118117883Y-99382246D01*
X118158016Y-99461011D01*
X118171944Y-99488347D01*
X118238593Y-99554996D01*
X118266370Y-99609513D01*
X118256799Y-99669945D01*
X118238593Y-99695004D01*
X118171944Y-99761653D01*
X118168409Y-99768590D01*
X118168408Y-99768592D01*
X118151208Y-99802350D01*
X118114347Y-99874694D01*
X118094500Y-100000000D01*
X118095719Y-100007696D01*
X118106742Y-100077288D01*
X118114347Y-100125306D01*
X118117883Y-100132246D01*
X118167481Y-100229587D01*
X118171944Y-100238347D01*
X118244093Y-100310496D01*
X118271870Y-100365013D01*
X118262299Y-100425445D01*
X118219034Y-100468710D01*
X118197305Y-100473926D01*
X118197542Y-100474655D01*
X118182630Y-100479500D01*
X118166950Y-100479500D01*
X117799500Y-100846950D01*
X117799500Y-101513050D01*
X118031446Y-101744996D01*
X118059223Y-101799513D01*
X118049652Y-101859945D01*
X118031446Y-101885004D01*
X117799500Y-102116950D01*
X117799500Y-102783050D01*
X118031446Y-103014996D01*
X118059223Y-103069513D01*
X118049652Y-103129945D01*
X118031446Y-103155004D01*
X117799500Y-103386950D01*
X117799500Y-104053050D01*
X118031446Y-104284996D01*
X118059223Y-104339513D01*
X118049652Y-104399945D01*
X118031446Y-104425004D01*
X117799500Y-104656950D01*
X117799500Y-105323050D01*
X118031446Y-105554996D01*
X118059223Y-105609513D01*
X118049652Y-105669945D01*
X118031446Y-105695004D01*
X117799500Y-105926950D01*
X117799500Y-106593050D01*
X118156446Y-106949996D01*
X118184223Y-107004513D01*
X118174652Y-107064945D01*
X118156446Y-107090004D01*
X117799500Y-107446950D01*
X117799500Y-108113050D01*
X118121446Y-108434996D01*
X118149223Y-108489513D01*
X118139652Y-108549945D01*
X118121446Y-108575004D01*
X117799500Y-108896950D01*
X117799500Y-109563050D01*
X118031446Y-109794996D01*
X118059223Y-109849513D01*
X118049652Y-109909945D01*
X118031446Y-109935004D01*
X117799500Y-110166950D01*
X117799500Y-110833050D01*
X118166950Y-111200500D01*
X118701000Y-111200500D01*
X118759191Y-111219407D01*
X118795155Y-111268907D01*
X118800000Y-111299500D01*
X118800000Y-111446418D01*
X118798228Y-111465063D01*
X118794329Y-111485395D01*
X118796007Y-111531282D01*
X118796157Y-111535375D01*
X118793067Y-111535488D01*
X118793232Y-111537213D01*
X118795457Y-111537080D01*
X118795457Y-111537082D01*
X118797360Y-111569002D01*
X118797466Y-111571202D01*
X118798553Y-111600909D01*
X118799467Y-111604335D01*
X118799689Y-111608052D01*
X118801265Y-111613421D01*
X118801266Y-111613424D01*
X118807806Y-111635697D01*
X118808467Y-111638057D01*
X118816842Y-111669434D01*
X118813845Y-111670234D01*
X118814175Y-111672146D01*
X118818164Y-111670974D01*
X118818165Y-111670975D01*
X118834816Y-111727683D01*
X118835009Y-111728619D01*
X118834443Y-111734073D01*
X118845714Y-111765419D01*
X118847537Y-111771008D01*
X118852389Y-111787533D01*
X118850824Y-111787993D01*
X118855328Y-111841728D01*
X118823625Y-111894060D01*
X118805960Y-111906232D01*
X118782112Y-111919100D01*
X118702870Y-112004822D01*
X118699562Y-112012305D01*
X118699560Y-112012308D01*
X118658977Y-112104107D01*
X118658976Y-112104110D01*
X118655669Y-112111591D01*
X118654963Y-112119739D01*
X118654963Y-112119740D01*
X118646302Y-112219739D01*
X118645596Y-112227892D01*
X118647569Y-112235835D01*
X118648211Y-112243989D01*
X118644541Y-112244278D01*
X118641398Y-112289210D01*
X118602068Y-112336080D01*
X118542700Y-112350882D01*
X118534120Y-112349904D01*
X118507697Y-112345719D01*
X118507696Y-112345719D01*
X118500000Y-112344500D01*
X118492304Y-112345719D01*
X118382389Y-112363128D01*
X118382388Y-112363128D01*
X118374694Y-112364347D01*
X118367754Y-112367883D01*
X118268592Y-112418408D01*
X118268590Y-112418409D01*
X118261653Y-112421944D01*
X118171944Y-112511653D01*
X118168409Y-112518590D01*
X118168408Y-112518592D01*
X118157038Y-112540908D01*
X118114347Y-112624694D01*
X118113128Y-112632388D01*
X118113128Y-112632389D01*
X118106709Y-112672919D01*
X118094500Y-112750000D01*
X118095719Y-112757696D01*
X118113097Y-112867412D01*
X118114347Y-112875306D01*
X118117883Y-112882246D01*
X118143542Y-112932604D01*
X118171944Y-112988347D01*
X118261653Y-113078056D01*
X118268590Y-113081591D01*
X118268592Y-113081592D01*
X118367752Y-113132116D01*
X118374694Y-113135653D01*
X118382388Y-113136872D01*
X118382389Y-113136872D01*
X118479285Y-113152219D01*
X118495417Y-113160439D01*
X118520715Y-113152219D01*
X118562064Y-113145670D01*
X118622496Y-113155241D01*
X118665761Y-113198506D01*
X118675332Y-113258938D01*
X118668098Y-113283477D01*
X118662684Y-113295724D01*
X118621861Y-113341300D01*
X118556652Y-113353473D01*
X118520715Y-113347781D01*
X118504583Y-113339561D01*
X118479285Y-113347781D01*
X118382389Y-113363128D01*
X118382388Y-113363128D01*
X118374694Y-113364347D01*
X118367754Y-113367883D01*
X118268592Y-113418408D01*
X118268590Y-113418409D01*
X118261653Y-113421944D01*
X118171944Y-113511653D01*
X118168409Y-113518590D01*
X118168408Y-113518592D01*
X118117883Y-113617754D01*
X118114347Y-113624694D01*
X118113128Y-113632388D01*
X118113128Y-113632389D01*
X118110249Y-113650564D01*
X118094500Y-113750000D01*
X118095719Y-113757696D01*
X118112416Y-113863112D01*
X118114347Y-113875306D01*
X118117883Y-113882246D01*
X118147800Y-113940961D01*
X118171944Y-113988347D01*
X118261653Y-114078056D01*
X118268590Y-114081591D01*
X118268592Y-114081592D01*
X118360822Y-114128585D01*
X118374694Y-114135653D01*
X118382388Y-114136872D01*
X118382389Y-114136872D01*
X118492304Y-114154281D01*
X118500000Y-114155500D01*
X118507696Y-114154281D01*
X118617611Y-114136872D01*
X118617612Y-114136872D01*
X118625306Y-114135653D01*
X118632244Y-114132118D01*
X118632250Y-114132116D01*
X118656056Y-114119986D01*
X118716488Y-114110415D01*
X118771004Y-114138193D01*
X118798781Y-114192710D01*
X118800000Y-114208196D01*
X118800000Y-114701000D01*
X118781093Y-114759191D01*
X118731593Y-114795155D01*
X118701000Y-114800000D01*
X104299000Y-114800000D01*
X104240809Y-114781093D01*
X104204845Y-114731593D01*
X104200000Y-114701000D01*
X104200000Y-114208196D01*
X104218907Y-114150005D01*
X104268407Y-114114041D01*
X104329593Y-114114041D01*
X104343944Y-114119986D01*
X104367750Y-114132116D01*
X104367756Y-114132118D01*
X104374694Y-114135653D01*
X104382388Y-114136872D01*
X104382389Y-114136872D01*
X104492304Y-114154281D01*
X104500000Y-114155500D01*
X104507696Y-114154281D01*
X104617611Y-114136872D01*
X104617612Y-114136872D01*
X104625306Y-114135653D01*
X104639178Y-114128585D01*
X104731408Y-114081592D01*
X104731410Y-114081591D01*
X104738347Y-114078056D01*
X104828056Y-113988347D01*
X104852201Y-113940961D01*
X104882117Y-113882246D01*
X104885653Y-113875306D01*
X104887585Y-113863112D01*
X104904281Y-113757696D01*
X104905500Y-113750000D01*
X104889751Y-113650564D01*
X104886872Y-113632389D01*
X104886872Y-113632388D01*
X104885653Y-113624694D01*
X104882117Y-113617754D01*
X104831592Y-113518592D01*
X104831591Y-113518590D01*
X104828056Y-113511653D01*
X104738347Y-113421944D01*
X104731410Y-113418409D01*
X104731408Y-113418408D01*
X104632246Y-113367883D01*
X104625306Y-113364347D01*
X104617612Y-113363128D01*
X104617611Y-113363128D01*
X104520715Y-113347781D01*
X104504583Y-113339561D01*
X104479285Y-113347781D01*
X104382389Y-113363128D01*
X104382388Y-113363128D01*
X104374694Y-113364347D01*
X104367756Y-113367882D01*
X104367750Y-113367884D01*
X104343944Y-113380014D01*
X104283512Y-113389585D01*
X104228996Y-113361807D01*
X104201219Y-113307290D01*
X104200000Y-113291804D01*
X104200000Y-113208196D01*
X104218907Y-113150005D01*
X104268407Y-113114041D01*
X104329593Y-113114041D01*
X104343944Y-113119986D01*
X104367750Y-113132116D01*
X104367756Y-113132118D01*
X104374694Y-113135653D01*
X104382388Y-113136872D01*
X104382389Y-113136872D01*
X104479285Y-113152219D01*
X104495417Y-113160439D01*
X104520715Y-113152219D01*
X104617611Y-113136872D01*
X104617612Y-113136872D01*
X104625306Y-113135653D01*
X104632248Y-113132116D01*
X104731408Y-113081592D01*
X104731410Y-113081591D01*
X104738347Y-113078056D01*
X104828056Y-112988347D01*
X104856459Y-112932604D01*
X104882117Y-112882246D01*
X104885653Y-112875306D01*
X104886904Y-112867412D01*
X104904281Y-112757696D01*
X104905500Y-112750000D01*
X104893291Y-112672919D01*
X104886872Y-112632389D01*
X104886872Y-112632388D01*
X104885653Y-112624694D01*
X104842962Y-112540908D01*
X104831592Y-112518592D01*
X104831591Y-112518590D01*
X104828056Y-112511653D01*
X104738347Y-112421944D01*
X104731410Y-112418409D01*
X104731408Y-112418408D01*
X104632246Y-112367883D01*
X104625306Y-112364347D01*
X104617612Y-112363128D01*
X104617611Y-112363128D01*
X104507696Y-112345719D01*
X104500000Y-112344500D01*
X104492304Y-112345719D01*
X104382389Y-112363128D01*
X104382388Y-112363128D01*
X104374694Y-112364347D01*
X104367756Y-112367882D01*
X104367750Y-112367884D01*
X104343944Y-112380014D01*
X104283512Y-112389585D01*
X104228996Y-112361807D01*
X104201219Y-112307290D01*
X104200000Y-112291804D01*
X104200000Y-111289500D01*
X104218907Y-111231309D01*
X104268407Y-111195345D01*
X104299000Y-111190500D01*
X104833050Y-111190500D01*
X105200500Y-110823050D01*
X105200500Y-110156950D01*
X104968554Y-109925004D01*
X104940777Y-109870487D01*
X104950348Y-109810055D01*
X104968554Y-109784996D01*
X105200500Y-109553050D01*
X105200500Y-108886950D01*
X104968554Y-108655004D01*
X104940777Y-108600487D01*
X104950348Y-108540055D01*
X104968554Y-108514996D01*
X105200500Y-108283050D01*
X105200500Y-107616950D01*
X104968554Y-107385004D01*
X104940777Y-107330487D01*
X104950348Y-107270055D01*
X104968554Y-107244996D01*
X105200500Y-107013050D01*
X105200500Y-106346950D01*
X104968554Y-106115004D01*
X104940777Y-106060487D01*
X104950348Y-106000055D01*
X104968554Y-105974996D01*
X105200500Y-105743050D01*
X105200500Y-105076950D01*
X104968554Y-104845004D01*
X104940777Y-104790487D01*
X104950348Y-104730055D01*
X104968554Y-104704996D01*
X105200500Y-104473050D01*
X105200500Y-103806950D01*
X104968554Y-103575004D01*
X104940777Y-103520487D01*
X104950348Y-103460055D01*
X104968554Y-103434996D01*
X105200500Y-103203050D01*
X105200500Y-102536950D01*
X104968554Y-102305004D01*
X104940777Y-102250487D01*
X104950348Y-102190055D01*
X104968554Y-102164996D01*
X105200500Y-101933050D01*
X105200500Y-101266950D01*
X104968554Y-101035004D01*
X104940777Y-100980487D01*
X104950348Y-100920055D01*
X104968554Y-100894996D01*
X105200500Y-100663050D01*
X105200500Y-100175077D01*
X105654864Y-100175077D01*
X105656097Y-100184134D01*
X105658596Y-100202500D01*
X105659500Y-100215850D01*
X105659500Y-111412012D01*
X105659270Y-111415144D01*
X105657777Y-111419492D01*
X105658120Y-111428628D01*
X105659430Y-111463521D01*
X105659500Y-111467235D01*
X105659500Y-111490966D01*
X105660335Y-111495450D01*
X105660582Y-111498124D01*
X105660931Y-111503509D01*
X105661974Y-111531282D01*
X105665580Y-111539677D01*
X105665581Y-111539679D01*
X105666514Y-111541850D01*
X105672877Y-111562794D01*
X105674983Y-111574099D01*
X105679780Y-111581881D01*
X105679781Y-111581884D01*
X105688948Y-111596756D01*
X105695630Y-111609619D01*
X105706134Y-111634068D01*
X105711455Y-111640546D01*
X105714958Y-111644049D01*
X105728139Y-111660724D01*
X105728887Y-111661549D01*
X105733684Y-111669331D01*
X105754055Y-111684821D01*
X105755705Y-111686076D01*
X105765785Y-111694876D01*
X106246548Y-112175639D01*
X106248600Y-112178017D01*
X106250619Y-112182147D01*
X106257319Y-112188362D01*
X106282922Y-112212112D01*
X106285598Y-112214689D01*
X106302378Y-112231469D01*
X106306135Y-112234047D01*
X106308220Y-112235779D01*
X106312274Y-112239340D01*
X106325932Y-112252010D01*
X106325935Y-112252012D01*
X106332635Y-112258227D01*
X106341126Y-112261615D01*
X106341127Y-112261615D01*
X106343319Y-112262490D01*
X106362630Y-112272802D01*
X106364569Y-112274132D01*
X106372110Y-112279305D01*
X106381004Y-112281416D01*
X106381005Y-112281416D01*
X106398000Y-112285449D01*
X106411829Y-112289823D01*
X106430051Y-112297093D01*
X106430053Y-112297093D01*
X106436541Y-112299682D01*
X106444884Y-112300500D01*
X106449834Y-112300500D01*
X106470953Y-112302971D01*
X106472063Y-112303025D01*
X106480957Y-112305136D01*
X106502355Y-112302224D01*
X106508380Y-112301404D01*
X106521730Y-112300500D01*
X106742032Y-112300500D01*
X106800223Y-112319407D01*
X106836187Y-112368907D01*
X106836187Y-112430093D01*
X106804066Y-112476654D01*
X106761505Y-112510874D01*
X106690485Y-112595513D01*
X106632202Y-112664971D01*
X106632199Y-112664975D01*
X106629093Y-112668677D01*
X106529853Y-112849194D01*
X106528389Y-112853808D01*
X106528388Y-112853811D01*
X106483964Y-112993853D01*
X106467565Y-113045549D01*
X106467025Y-113050361D01*
X106467025Y-113050362D01*
X106455849Y-113150005D01*
X106444603Y-113250263D01*
X106448548Y-113297240D01*
X106460809Y-113443257D01*
X106461840Y-113455538D01*
X106463173Y-113460186D01*
X106463173Y-113460187D01*
X106512552Y-113632389D01*
X106518621Y-113653555D01*
X106612782Y-113836773D01*
X106740737Y-113998212D01*
X106744417Y-114001344D01*
X106744419Y-114001346D01*
X106804075Y-114052117D01*
X106897612Y-114131723D01*
X106901835Y-114134083D01*
X106901839Y-114134086D01*
X106947243Y-114159461D01*
X107077432Y-114232221D01*
X107082030Y-114233715D01*
X107268742Y-114294382D01*
X107268745Y-114294383D01*
X107273347Y-114295878D01*
X107477895Y-114320269D01*
X107482717Y-114319898D01*
X107482720Y-114319898D01*
X107678458Y-114304837D01*
X107678463Y-114304836D01*
X107683286Y-114304465D01*
X107881695Y-114249068D01*
X107912089Y-114233715D01*
X108061244Y-114158371D01*
X108061246Y-114158370D01*
X108065565Y-114156188D01*
X108227893Y-114029363D01*
X108231055Y-114025700D01*
X108231060Y-114025695D01*
X108299612Y-113946276D01*
X108351947Y-113914581D01*
X108412918Y-113919701D01*
X108444558Y-113940961D01*
X108501653Y-113998056D01*
X108508590Y-114001591D01*
X108508592Y-114001592D01*
X108563161Y-114029396D01*
X108614694Y-114055653D01*
X108622388Y-114056872D01*
X108622389Y-114056872D01*
X108732304Y-114074281D01*
X108740000Y-114075500D01*
X108747696Y-114074281D01*
X108857611Y-114056872D01*
X108857612Y-114056872D01*
X108865306Y-114055653D01*
X108916839Y-114029396D01*
X108971408Y-114001592D01*
X108971410Y-114001591D01*
X108978347Y-113998056D01*
X109068056Y-113908347D01*
X109070532Y-113910823D01*
X109107860Y-113883763D01*
X109169045Y-113883828D01*
X109215938Y-113916456D01*
X109280737Y-113998212D01*
X109284417Y-114001344D01*
X109284419Y-114001346D01*
X109344075Y-114052117D01*
X109437612Y-114131723D01*
X109441835Y-114134083D01*
X109441839Y-114134086D01*
X109487243Y-114159461D01*
X109617432Y-114232221D01*
X109622030Y-114233715D01*
X109808742Y-114294382D01*
X109808745Y-114294383D01*
X109813347Y-114295878D01*
X110017895Y-114320269D01*
X110022717Y-114319898D01*
X110022720Y-114319898D01*
X110218458Y-114304837D01*
X110218463Y-114304836D01*
X110223286Y-114304465D01*
X110421695Y-114249068D01*
X110452089Y-114233715D01*
X110601244Y-114158371D01*
X110601246Y-114158370D01*
X110605565Y-114156188D01*
X110767893Y-114029363D01*
X110771055Y-114025700D01*
X110771060Y-114025695D01*
X110883297Y-113895666D01*
X110902496Y-113873424D01*
X110905799Y-113867611D01*
X111001858Y-113698517D01*
X111001859Y-113698514D01*
X111004247Y-113694311D01*
X111019355Y-113648897D01*
X111067743Y-113503435D01*
X111067743Y-113503433D01*
X111069270Y-113498844D01*
X111070133Y-113492018D01*
X111091763Y-113320792D01*
X111095088Y-113294471D01*
X111095131Y-113291440D01*
X111095461Y-113267776D01*
X111095500Y-113265000D01*
X111094906Y-113258938D01*
X111075870Y-113064796D01*
X111075869Y-113064792D01*
X111075398Y-113059986D01*
X111072493Y-113050362D01*
X111055408Y-112993776D01*
X111056690Y-112932604D01*
X111093682Y-112883868D01*
X111152256Y-112866184D01*
X111210038Y-112886306D01*
X111220187Y-112895158D01*
X111496197Y-113171168D01*
X111523974Y-113225685D01*
X111525183Y-113242556D01*
X111525143Y-113245453D01*
X111524603Y-113250263D01*
X111527459Y-113284274D01*
X111540809Y-113443257D01*
X111541840Y-113455538D01*
X111543173Y-113460186D01*
X111543173Y-113460187D01*
X111592552Y-113632389D01*
X111598621Y-113653555D01*
X111692782Y-113836773D01*
X111820737Y-113998212D01*
X111824417Y-114001344D01*
X111824419Y-114001346D01*
X111884075Y-114052117D01*
X111977612Y-114131723D01*
X111981835Y-114134083D01*
X111981839Y-114134086D01*
X112027243Y-114159461D01*
X112157432Y-114232221D01*
X112162030Y-114233715D01*
X112348742Y-114294382D01*
X112348745Y-114294383D01*
X112353347Y-114295878D01*
X112557895Y-114320269D01*
X112562717Y-114319898D01*
X112562720Y-114319898D01*
X112758458Y-114304837D01*
X112758463Y-114304836D01*
X112763286Y-114304465D01*
X112961695Y-114249068D01*
X112992089Y-114233715D01*
X113141244Y-114158371D01*
X113141246Y-114158370D01*
X113145565Y-114156188D01*
X113307893Y-114029363D01*
X113311055Y-114025700D01*
X113311060Y-114025695D01*
X113423297Y-113895666D01*
X113442496Y-113873424D01*
X113445799Y-113867611D01*
X113541858Y-113698517D01*
X113541859Y-113698514D01*
X113544247Y-113694311D01*
X113559355Y-113648897D01*
X113607743Y-113503435D01*
X113607743Y-113503433D01*
X113609270Y-113498844D01*
X113610133Y-113492018D01*
X113631763Y-113320792D01*
X113635088Y-113294471D01*
X113635131Y-113291440D01*
X113635461Y-113267776D01*
X113635500Y-113265000D01*
X113634906Y-113258938D01*
X113634055Y-113250263D01*
X114064603Y-113250263D01*
X114068548Y-113297240D01*
X114080809Y-113443257D01*
X114081840Y-113455538D01*
X114083173Y-113460186D01*
X114083173Y-113460187D01*
X114132552Y-113632389D01*
X114138621Y-113653555D01*
X114232782Y-113836773D01*
X114360737Y-113998212D01*
X114364417Y-114001344D01*
X114364419Y-114001346D01*
X114424075Y-114052117D01*
X114517612Y-114131723D01*
X114521835Y-114134083D01*
X114521839Y-114134086D01*
X114567243Y-114159461D01*
X114697432Y-114232221D01*
X114702030Y-114233715D01*
X114888742Y-114294382D01*
X114888745Y-114294383D01*
X114893347Y-114295878D01*
X115097895Y-114320269D01*
X115102717Y-114319898D01*
X115102720Y-114319898D01*
X115298458Y-114304837D01*
X115298463Y-114304836D01*
X115303286Y-114304465D01*
X115501695Y-114249068D01*
X115532089Y-114233715D01*
X115681244Y-114158371D01*
X115681246Y-114158370D01*
X115685565Y-114156188D01*
X115847893Y-114029363D01*
X115851055Y-114025700D01*
X115851060Y-114025695D01*
X115963297Y-113895666D01*
X115982496Y-113873424D01*
X115985799Y-113867611D01*
X116081858Y-113698517D01*
X116081859Y-113698514D01*
X116084247Y-113694311D01*
X116099355Y-113648897D01*
X116147743Y-113503435D01*
X116147743Y-113503433D01*
X116149270Y-113498844D01*
X116150133Y-113492018D01*
X116171763Y-113320792D01*
X116175088Y-113294471D01*
X116175131Y-113291440D01*
X116175461Y-113267776D01*
X116175500Y-113265000D01*
X116174906Y-113258938D01*
X116155870Y-113064796D01*
X116155869Y-113064792D01*
X116155398Y-113059986D01*
X116152493Y-113050362D01*
X116105633Y-112895158D01*
X116095858Y-112862780D01*
X115999148Y-112680895D01*
X115868952Y-112521259D01*
X115841939Y-112498912D01*
X115713955Y-112393034D01*
X115713953Y-112393033D01*
X115710228Y-112389951D01*
X115544425Y-112300301D01*
X115533277Y-112294273D01*
X115533276Y-112294272D01*
X115529023Y-112291973D01*
X115430952Y-112261615D01*
X115336859Y-112232488D01*
X115336855Y-112232487D01*
X115332238Y-112231058D01*
X115327431Y-112230553D01*
X115327427Y-112230552D01*
X115132185Y-112210032D01*
X115132183Y-112210032D01*
X115127369Y-112209526D01*
X115070637Y-112214689D01*
X114927039Y-112227757D01*
X114927036Y-112227758D01*
X114922219Y-112228196D01*
X114917577Y-112229562D01*
X114917573Y-112229563D01*
X114729250Y-112284989D01*
X114729247Y-112284990D01*
X114724603Y-112286357D01*
X114720309Y-112288602D01*
X114546344Y-112379548D01*
X114546340Y-112379551D01*
X114542047Y-112381795D01*
X114538271Y-112384831D01*
X114538268Y-112384833D01*
X114481976Y-112430093D01*
X114381505Y-112510874D01*
X114310485Y-112595513D01*
X114252202Y-112664971D01*
X114252199Y-112664975D01*
X114249093Y-112668677D01*
X114149853Y-112849194D01*
X114148389Y-112853808D01*
X114148388Y-112853811D01*
X114103964Y-112993853D01*
X114087565Y-113045549D01*
X114087025Y-113050361D01*
X114087025Y-113050362D01*
X114075849Y-113150005D01*
X114064603Y-113250263D01*
X113634055Y-113250263D01*
X113615870Y-113064796D01*
X113615869Y-113064792D01*
X113615398Y-113059986D01*
X113612493Y-113050362D01*
X113565633Y-112895158D01*
X113555858Y-112862780D01*
X113459148Y-112680895D01*
X113328952Y-112521259D01*
X113301939Y-112498912D01*
X113173955Y-112393034D01*
X113173953Y-112393033D01*
X113170228Y-112389951D01*
X113004425Y-112300301D01*
X112993277Y-112294273D01*
X112993276Y-112294272D01*
X112989023Y-112291973D01*
X112890952Y-112261615D01*
X112796859Y-112232488D01*
X112796855Y-112232487D01*
X112792238Y-112231058D01*
X112787431Y-112230553D01*
X112787427Y-112230552D01*
X112592185Y-112210032D01*
X112592183Y-112210032D01*
X112587369Y-112209526D01*
X112530637Y-112214689D01*
X112387039Y-112227757D01*
X112387036Y-112227758D01*
X112382219Y-112228196D01*
X112377577Y-112229562D01*
X112377573Y-112229563D01*
X112189250Y-112284989D01*
X112189247Y-112284990D01*
X112184603Y-112286357D01*
X112180309Y-112288602D01*
X112006344Y-112379548D01*
X112006340Y-112379551D01*
X112002047Y-112381795D01*
X111998271Y-112384831D01*
X111998268Y-112384833D01*
X111941976Y-112430093D01*
X111841505Y-112510874D01*
X111838397Y-112514578D01*
X111834930Y-112517973D01*
X111833654Y-112516670D01*
X111788053Y-112545170D01*
X111727016Y-112540908D01*
X111694089Y-112519117D01*
X110999328Y-111824356D01*
X110997279Y-111821982D01*
X110995261Y-111817853D01*
X110962971Y-111787900D01*
X110960295Y-111785323D01*
X110943503Y-111768531D01*
X110939744Y-111765952D01*
X110937663Y-111764223D01*
X110933606Y-111760660D01*
X110919948Y-111747990D01*
X110919945Y-111747988D01*
X110913245Y-111741773D01*
X110902564Y-111737512D01*
X110883247Y-111727197D01*
X110873771Y-111720696D01*
X110847869Y-111714549D01*
X110834066Y-111710183D01*
X110809339Y-111700318D01*
X110800996Y-111699500D01*
X110796046Y-111699500D01*
X110773188Y-111696825D01*
X110765826Y-111695078D01*
X110713573Y-111663246D01*
X110690010Y-111606780D01*
X110704137Y-111547248D01*
X110727733Y-111520740D01*
X110764076Y-111492346D01*
X110764081Y-111492341D01*
X110767893Y-111489363D01*
X110771055Y-111485700D01*
X110771060Y-111485695D01*
X110896148Y-111340778D01*
X110902496Y-111333424D01*
X110907980Y-111323772D01*
X111001858Y-111158517D01*
X111001859Y-111158514D01*
X111004247Y-111154311D01*
X111017021Y-111115913D01*
X111067743Y-110963435D01*
X111067743Y-110963433D01*
X111069270Y-110958844D01*
X111074154Y-110920187D01*
X111094740Y-110757225D01*
X111095088Y-110754471D01*
X111095500Y-110725000D01*
X111094528Y-110715083D01*
X111094055Y-110710263D01*
X111524603Y-110710263D01*
X111541840Y-110915538D01*
X111543173Y-110920186D01*
X111543173Y-110920187D01*
X111570400Y-111015136D01*
X111598621Y-111113555D01*
X111692782Y-111296773D01*
X111820737Y-111458212D01*
X111824417Y-111461344D01*
X111824419Y-111461346D01*
X111906594Y-111531282D01*
X111977612Y-111591723D01*
X111981835Y-111594083D01*
X111981839Y-111594086D01*
X112071238Y-111644049D01*
X112157432Y-111692221D01*
X112162030Y-111693715D01*
X112348742Y-111754382D01*
X112348745Y-111754383D01*
X112353347Y-111755878D01*
X112557895Y-111780269D01*
X112562717Y-111779898D01*
X112562720Y-111779898D01*
X112758458Y-111764837D01*
X112758463Y-111764836D01*
X112763286Y-111764465D01*
X112961695Y-111709068D01*
X112979017Y-111700318D01*
X113141244Y-111618371D01*
X113141246Y-111618370D01*
X113145565Y-111616188D01*
X113307893Y-111489363D01*
X113311055Y-111485700D01*
X113311060Y-111485695D01*
X113436148Y-111340778D01*
X113442496Y-111333424D01*
X113447980Y-111323772D01*
X113541858Y-111158517D01*
X113541859Y-111158514D01*
X113544247Y-111154311D01*
X113557021Y-111115913D01*
X113607743Y-110963435D01*
X113607743Y-110963433D01*
X113609270Y-110958844D01*
X113614154Y-110920187D01*
X113634740Y-110757225D01*
X113635088Y-110754471D01*
X113635500Y-110725000D01*
X113634528Y-110715083D01*
X113634055Y-110710263D01*
X114064603Y-110710263D01*
X114081840Y-110915538D01*
X114083173Y-110920186D01*
X114083173Y-110920187D01*
X114110400Y-111015136D01*
X114138621Y-111113555D01*
X114232782Y-111296773D01*
X114360737Y-111458212D01*
X114364417Y-111461344D01*
X114364419Y-111461346D01*
X114446594Y-111531282D01*
X114517612Y-111591723D01*
X114521835Y-111594083D01*
X114521839Y-111594086D01*
X114611238Y-111644049D01*
X114697432Y-111692221D01*
X114702030Y-111693715D01*
X114888742Y-111754382D01*
X114888745Y-111754383D01*
X114893347Y-111755878D01*
X115097895Y-111780269D01*
X115102717Y-111779898D01*
X115102720Y-111779898D01*
X115298458Y-111764837D01*
X115298463Y-111764836D01*
X115303286Y-111764465D01*
X115501695Y-111709068D01*
X115519017Y-111700318D01*
X115681244Y-111618371D01*
X115681246Y-111618370D01*
X115685565Y-111616188D01*
X115847893Y-111489363D01*
X115851055Y-111485700D01*
X115851060Y-111485695D01*
X115976148Y-111340778D01*
X115982496Y-111333424D01*
X115990227Y-111319815D01*
X116035410Y-111278557D01*
X116096214Y-111271737D01*
X116149414Y-111301959D01*
X116164517Y-111323770D01*
X116171944Y-111338347D01*
X116261653Y-111428056D01*
X116268590Y-111431591D01*
X116268592Y-111431592D01*
X116363383Y-111479890D01*
X116374694Y-111485653D01*
X116382388Y-111486872D01*
X116382389Y-111486872D01*
X116492304Y-111504281D01*
X116500000Y-111505500D01*
X116507696Y-111504281D01*
X116617611Y-111486872D01*
X116617612Y-111486872D01*
X116625306Y-111485653D01*
X116636617Y-111479890D01*
X116731408Y-111431592D01*
X116731410Y-111431591D01*
X116738347Y-111428056D01*
X116828056Y-111338347D01*
X116832710Y-111329214D01*
X116882117Y-111232246D01*
X116885653Y-111225306D01*
X116890399Y-111195345D01*
X116904281Y-111107696D01*
X116905500Y-111100000D01*
X116894041Y-111027650D01*
X116886872Y-110982389D01*
X116886872Y-110982388D01*
X116885653Y-110974694D01*
X116882118Y-110967756D01*
X116882117Y-110967753D01*
X116849366Y-110903476D01*
X116839795Y-110843044D01*
X116867573Y-110788527D01*
X116899690Y-110767067D01*
X117002750Y-110724378D01*
X117128153Y-110628153D01*
X117224378Y-110502750D01*
X117284868Y-110356715D01*
X117305500Y-110200000D01*
X117284868Y-110043285D01*
X117224378Y-109897250D01*
X117128153Y-109771847D01*
X117002750Y-109675622D01*
X116856715Y-109615132D01*
X116700000Y-109594500D01*
X116543285Y-109615132D01*
X116397250Y-109675622D01*
X116271847Y-109771847D01*
X116175622Y-109897250D01*
X116115132Y-110043285D01*
X116114157Y-110042881D01*
X116084166Y-110089056D01*
X116027043Y-110110980D01*
X115967944Y-110095140D01*
X115945153Y-110074690D01*
X115868952Y-109981259D01*
X115846095Y-109962350D01*
X115713955Y-109853034D01*
X115713953Y-109853033D01*
X115710228Y-109849951D01*
X115601051Y-109790918D01*
X115533277Y-109754273D01*
X115533276Y-109754272D01*
X115529023Y-109751973D01*
X115439532Y-109724271D01*
X115336859Y-109692488D01*
X115336855Y-109692487D01*
X115332238Y-109691058D01*
X115327431Y-109690553D01*
X115327427Y-109690552D01*
X115132185Y-109670032D01*
X115132183Y-109670032D01*
X115127369Y-109669526D01*
X115087669Y-109673139D01*
X114927039Y-109687757D01*
X114927036Y-109687758D01*
X114922219Y-109688196D01*
X114917577Y-109689562D01*
X114917573Y-109689563D01*
X114729250Y-109744989D01*
X114729247Y-109744990D01*
X114724603Y-109746357D01*
X114685566Y-109766765D01*
X114546344Y-109839548D01*
X114546340Y-109839551D01*
X114542047Y-109841795D01*
X114538271Y-109844831D01*
X114538268Y-109844833D01*
X114457285Y-109909945D01*
X114381505Y-109970874D01*
X114369648Y-109985005D01*
X114252202Y-110124971D01*
X114252199Y-110124975D01*
X114249093Y-110128677D01*
X114149853Y-110309194D01*
X114087565Y-110505549D01*
X114064603Y-110710263D01*
X113634055Y-110710263D01*
X113615870Y-110524796D01*
X113615869Y-110524792D01*
X113615398Y-110519986D01*
X113586394Y-110423920D01*
X113587676Y-110362749D01*
X113624668Y-110314013D01*
X113665682Y-110297526D01*
X113739192Y-110285883D01*
X113739193Y-110285883D01*
X113746887Y-110284664D01*
X113753827Y-110281128D01*
X113852989Y-110230603D01*
X113852991Y-110230602D01*
X113859928Y-110227067D01*
X113949637Y-110137358D01*
X113954061Y-110128677D01*
X114003698Y-110031257D01*
X114007234Y-110024317D01*
X114027081Y-109899011D01*
X114019799Y-109853034D01*
X114008453Y-109781400D01*
X114008453Y-109781399D01*
X114007234Y-109773705D01*
X113995433Y-109750544D01*
X113953173Y-109667603D01*
X113953172Y-109667601D01*
X113949637Y-109660664D01*
X113859928Y-109570955D01*
X113852991Y-109567420D01*
X113852989Y-109567419D01*
X113753827Y-109516894D01*
X113746887Y-109513358D01*
X113739193Y-109512139D01*
X113739192Y-109512139D01*
X113629277Y-109494730D01*
X113621581Y-109493511D01*
X113613885Y-109494730D01*
X113503970Y-109512139D01*
X113503969Y-109512139D01*
X113496275Y-109513358D01*
X113489335Y-109516894D01*
X113390173Y-109567419D01*
X113390171Y-109567420D01*
X113383234Y-109570955D01*
X113293525Y-109660664D01*
X113289990Y-109667601D01*
X113289989Y-109667603D01*
X113237336Y-109770941D01*
X113194071Y-109814206D01*
X113133639Y-109823777D01*
X113102039Y-109813081D01*
X112993277Y-109754273D01*
X112993276Y-109754272D01*
X112989023Y-109751973D01*
X112899532Y-109724271D01*
X112796859Y-109692488D01*
X112796855Y-109692487D01*
X112792238Y-109691058D01*
X112787431Y-109690553D01*
X112787427Y-109690552D01*
X112592185Y-109670032D01*
X112592183Y-109670032D01*
X112587369Y-109669526D01*
X112547669Y-109673139D01*
X112387039Y-109687757D01*
X112387036Y-109687758D01*
X112382219Y-109688196D01*
X112377577Y-109689562D01*
X112377573Y-109689563D01*
X112189250Y-109744989D01*
X112189247Y-109744990D01*
X112184603Y-109746357D01*
X112145566Y-109766765D01*
X112006344Y-109839548D01*
X112006340Y-109839551D01*
X112002047Y-109841795D01*
X111998271Y-109844831D01*
X111998268Y-109844833D01*
X111917285Y-109909945D01*
X111841505Y-109970874D01*
X111829648Y-109985005D01*
X111712202Y-110124971D01*
X111712199Y-110124975D01*
X111709093Y-110128677D01*
X111609853Y-110309194D01*
X111547565Y-110505549D01*
X111524603Y-110710263D01*
X111094055Y-110710263D01*
X111075870Y-110524796D01*
X111075869Y-110524792D01*
X111075398Y-110519986D01*
X111072493Y-110510362D01*
X111027914Y-110362712D01*
X111015858Y-110322780D01*
X110919148Y-110140895D01*
X110788952Y-109981259D01*
X110766095Y-109962350D01*
X110633955Y-109853034D01*
X110633953Y-109853033D01*
X110630228Y-109849951D01*
X110521051Y-109790918D01*
X110453277Y-109754273D01*
X110453276Y-109754272D01*
X110449023Y-109751973D01*
X110359532Y-109724271D01*
X110256859Y-109692488D01*
X110256855Y-109692487D01*
X110252238Y-109691058D01*
X110247431Y-109690553D01*
X110247427Y-109690552D01*
X110052185Y-109670032D01*
X110052183Y-109670032D01*
X110047369Y-109669526D01*
X110007669Y-109673139D01*
X109847039Y-109687757D01*
X109847036Y-109687758D01*
X109842219Y-109688196D01*
X109837577Y-109689562D01*
X109837573Y-109689563D01*
X109649250Y-109744989D01*
X109649247Y-109744990D01*
X109644603Y-109746357D01*
X109605566Y-109766765D01*
X109466344Y-109839548D01*
X109466340Y-109839551D01*
X109462047Y-109841795D01*
X109458271Y-109844831D01*
X109458268Y-109844833D01*
X109377285Y-109909945D01*
X109301505Y-109970874D01*
X109289648Y-109985005D01*
X109172202Y-110124971D01*
X109172199Y-110124975D01*
X109169093Y-110128677D01*
X109069853Y-110309194D01*
X109007565Y-110505549D01*
X108984603Y-110710263D01*
X109001840Y-110915538D01*
X109003173Y-110920186D01*
X109003173Y-110920187D01*
X109030400Y-111015136D01*
X109058621Y-111113555D01*
X109152782Y-111296773D01*
X109280737Y-111458212D01*
X109284417Y-111461344D01*
X109284419Y-111461346D01*
X109314412Y-111486872D01*
X109354208Y-111520740D01*
X109359340Y-111525108D01*
X109391400Y-111577221D01*
X109386706Y-111638226D01*
X109347051Y-111684821D01*
X109295176Y-111699500D01*
X108651368Y-111699500D01*
X108593177Y-111680593D01*
X108557213Y-111631093D01*
X108554473Y-111584651D01*
X108554075Y-111584612D01*
X108554322Y-111582099D01*
X108554269Y-111581193D01*
X108554552Y-111579771D01*
X108554553Y-111579761D01*
X108555500Y-111575000D01*
X108555500Y-109875000D01*
X108543402Y-109814181D01*
X108541760Y-109805924D01*
X108541759Y-109805922D01*
X108539857Y-109796359D01*
X108495310Y-109729690D01*
X108428641Y-109685143D01*
X108419078Y-109683241D01*
X108419076Y-109683240D01*
X108393800Y-109678213D01*
X108350000Y-109669500D01*
X107802995Y-109669500D01*
X107744804Y-109650593D01*
X107708840Y-109601093D01*
X107708840Y-109539907D01*
X107744804Y-109490407D01*
X107758050Y-109482291D01*
X107773982Y-109474173D01*
X107773986Y-109474170D01*
X107780926Y-109470634D01*
X107870635Y-109380925D01*
X107928232Y-109267884D01*
X107946903Y-109150000D01*
X108694500Y-109150000D01*
X108695719Y-109157696D01*
X108711953Y-109260189D01*
X108714347Y-109275306D01*
X108717883Y-109282246D01*
X108764627Y-109373986D01*
X108771944Y-109388347D01*
X108861653Y-109478056D01*
X108868590Y-109481591D01*
X108868592Y-109481592D01*
X108928545Y-109512139D01*
X108974694Y-109535653D01*
X108982388Y-109536872D01*
X108982389Y-109536872D01*
X109092304Y-109554281D01*
X109100000Y-109555500D01*
X109107696Y-109554281D01*
X109217611Y-109536872D01*
X109217612Y-109536872D01*
X109225306Y-109535653D01*
X109271455Y-109512139D01*
X109331408Y-109481592D01*
X109331410Y-109481591D01*
X109338347Y-109478056D01*
X109428056Y-109388347D01*
X109435374Y-109373986D01*
X109482117Y-109282246D01*
X109485653Y-109275306D01*
X109488048Y-109260189D01*
X109504281Y-109157696D01*
X109505500Y-109150000D01*
X109485653Y-109024694D01*
X109428056Y-108911653D01*
X109416403Y-108900000D01*
X113794500Y-108900000D01*
X113795719Y-108907696D01*
X113813075Y-109017272D01*
X113814347Y-109025306D01*
X113871944Y-109138347D01*
X113961653Y-109228056D01*
X113968590Y-109231591D01*
X113968592Y-109231592D01*
X114039284Y-109267611D01*
X114074694Y-109285653D01*
X114082388Y-109286872D01*
X114082389Y-109286872D01*
X114192304Y-109304281D01*
X114200000Y-109305500D01*
X114207696Y-109304281D01*
X114317611Y-109286872D01*
X114317612Y-109286872D01*
X114325306Y-109285653D01*
X114360716Y-109267611D01*
X114431408Y-109231592D01*
X114431410Y-109231591D01*
X114438347Y-109228056D01*
X114528056Y-109138347D01*
X114585653Y-109025306D01*
X114586926Y-109017272D01*
X114604281Y-108907696D01*
X114605500Y-108900000D01*
X114585653Y-108774694D01*
X114570890Y-108745719D01*
X114531592Y-108668592D01*
X114531591Y-108668590D01*
X114528056Y-108661653D01*
X114438347Y-108571944D01*
X114431410Y-108568409D01*
X114431408Y-108568408D01*
X114332246Y-108517883D01*
X114325306Y-108514347D01*
X114317612Y-108513128D01*
X114317611Y-108513128D01*
X114207696Y-108495719D01*
X114200000Y-108494500D01*
X114192304Y-108495719D01*
X114082389Y-108513128D01*
X114082388Y-108513128D01*
X114074694Y-108514347D01*
X114067754Y-108517883D01*
X113968592Y-108568408D01*
X113968590Y-108568409D01*
X113961653Y-108571944D01*
X113871944Y-108661653D01*
X113868409Y-108668590D01*
X113868408Y-108668592D01*
X113829110Y-108745719D01*
X113814347Y-108774694D01*
X113794500Y-108900000D01*
X109416403Y-108900000D01*
X109338347Y-108821944D01*
X109331410Y-108818409D01*
X109331408Y-108818408D01*
X109232246Y-108767883D01*
X109225306Y-108764347D01*
X109217612Y-108763128D01*
X109217611Y-108763128D01*
X109107696Y-108745719D01*
X109100000Y-108744500D01*
X109092304Y-108745719D01*
X108982389Y-108763128D01*
X108982388Y-108763128D01*
X108974694Y-108764347D01*
X108967754Y-108767883D01*
X108868592Y-108818408D01*
X108868590Y-108818409D01*
X108861653Y-108821944D01*
X108771944Y-108911653D01*
X108714347Y-109024694D01*
X108694500Y-109150000D01*
X107946903Y-109150000D01*
X107948079Y-109142578D01*
X107943755Y-109115280D01*
X107929451Y-109024967D01*
X107929451Y-109024966D01*
X107928232Y-109017272D01*
X107924696Y-109010332D01*
X107874171Y-108911170D01*
X107874170Y-108911168D01*
X107870635Y-108904231D01*
X107780926Y-108814522D01*
X107773989Y-108810987D01*
X107773987Y-108810986D01*
X107674825Y-108760461D01*
X107667885Y-108756925D01*
X107660191Y-108755706D01*
X107660190Y-108755706D01*
X107550275Y-108738297D01*
X107542579Y-108737078D01*
X107534883Y-108738297D01*
X107424968Y-108755706D01*
X107424967Y-108755706D01*
X107417273Y-108756925D01*
X107410333Y-108760461D01*
X107311171Y-108810986D01*
X107311169Y-108810987D01*
X107304232Y-108814522D01*
X107214523Y-108904231D01*
X107210988Y-108911168D01*
X107210987Y-108911170D01*
X107160462Y-109010332D01*
X107156926Y-109017272D01*
X107155707Y-109024966D01*
X107155707Y-109024967D01*
X107141403Y-109115280D01*
X107137079Y-109142578D01*
X107156926Y-109267884D01*
X107214523Y-109380925D01*
X107304232Y-109470634D01*
X107311172Y-109474170D01*
X107311176Y-109474173D01*
X107327108Y-109482291D01*
X107370373Y-109525555D01*
X107379944Y-109585987D01*
X107352166Y-109640504D01*
X107297650Y-109668281D01*
X107282163Y-109669500D01*
X106650000Y-109669500D01*
X106606200Y-109678213D01*
X106580924Y-109683240D01*
X106580922Y-109683241D01*
X106571359Y-109685143D01*
X106504690Y-109729690D01*
X106460143Y-109796359D01*
X106458241Y-109805922D01*
X106458240Y-109805924D01*
X106456598Y-109814181D01*
X106426701Y-109867565D01*
X106371136Y-109893181D01*
X106311127Y-109881244D01*
X106269594Y-109836314D01*
X106260500Y-109794867D01*
X106260500Y-108169740D01*
X106664240Y-108169740D01*
X106665459Y-108177436D01*
X106680497Y-108272378D01*
X106684087Y-108295046D01*
X106741684Y-108408087D01*
X106831393Y-108497796D01*
X106838330Y-108501331D01*
X106838332Y-108501332D01*
X106937494Y-108551857D01*
X106944434Y-108555393D01*
X106952128Y-108556612D01*
X106952129Y-108556612D01*
X107062044Y-108574021D01*
X107069740Y-108575240D01*
X107077436Y-108574021D01*
X107187351Y-108556612D01*
X107187352Y-108556612D01*
X107195046Y-108555393D01*
X107201986Y-108551857D01*
X107301148Y-108501332D01*
X107301150Y-108501331D01*
X107308087Y-108497796D01*
X107395655Y-108410228D01*
X112484265Y-108410228D01*
X112504112Y-108535534D01*
X112507648Y-108542474D01*
X112514231Y-108555393D01*
X112561709Y-108648575D01*
X112651418Y-108738284D01*
X112658355Y-108741819D01*
X112658357Y-108741820D01*
X112722877Y-108774694D01*
X112764459Y-108795881D01*
X112772153Y-108797100D01*
X112772154Y-108797100D01*
X112882069Y-108814509D01*
X112889765Y-108815728D01*
X112897461Y-108814509D01*
X113007376Y-108797100D01*
X113007377Y-108797100D01*
X113015071Y-108795881D01*
X113056653Y-108774694D01*
X113121173Y-108741820D01*
X113121175Y-108741819D01*
X113128112Y-108738284D01*
X113217821Y-108648575D01*
X113265300Y-108555393D01*
X113271882Y-108542474D01*
X113275418Y-108535534D01*
X113295265Y-108410228D01*
X113277022Y-108295046D01*
X113276637Y-108292617D01*
X113276637Y-108292616D01*
X113275418Y-108284922D01*
X113217821Y-108171881D01*
X113128112Y-108082172D01*
X113121175Y-108078637D01*
X113121173Y-108078636D01*
X113022011Y-108028111D01*
X113015071Y-108024575D01*
X113007377Y-108023356D01*
X113007376Y-108023356D01*
X112897461Y-108005947D01*
X112889765Y-108004728D01*
X112882069Y-108005947D01*
X112772154Y-108023356D01*
X112772153Y-108023356D01*
X112764459Y-108024575D01*
X112757519Y-108028111D01*
X112658357Y-108078636D01*
X112658355Y-108078637D01*
X112651418Y-108082172D01*
X112561709Y-108171881D01*
X112504112Y-108284922D01*
X112502893Y-108292616D01*
X112502893Y-108292617D01*
X112502508Y-108295046D01*
X112484265Y-108410228D01*
X107395655Y-108410228D01*
X107397796Y-108408087D01*
X107455393Y-108295046D01*
X107458984Y-108272378D01*
X107474021Y-108177436D01*
X107475240Y-108169740D01*
X107466261Y-108113050D01*
X107456612Y-108052129D01*
X107456612Y-108052128D01*
X107455393Y-108044434D01*
X107447076Y-108028111D01*
X107401332Y-107938332D01*
X107401331Y-107938330D01*
X107397796Y-107931393D01*
X107308087Y-107841684D01*
X107301150Y-107838149D01*
X107301148Y-107838148D01*
X107201986Y-107787623D01*
X107195046Y-107784087D01*
X107187352Y-107782868D01*
X107187351Y-107782868D01*
X107077436Y-107765459D01*
X107069740Y-107764240D01*
X107062044Y-107765459D01*
X106952129Y-107782868D01*
X106952128Y-107782868D01*
X106944434Y-107784087D01*
X106937494Y-107787623D01*
X106838332Y-107838148D01*
X106838330Y-107838149D01*
X106831393Y-107841684D01*
X106741684Y-107931393D01*
X106738149Y-107938330D01*
X106738148Y-107938332D01*
X106692404Y-108028111D01*
X106684087Y-108044434D01*
X106682868Y-108052128D01*
X106682868Y-108052129D01*
X106673219Y-108113050D01*
X106664240Y-108169740D01*
X106260500Y-108169740D01*
X106260500Y-107330000D01*
X108174500Y-107330000D01*
X108175719Y-107337696D01*
X108193024Y-107446950D01*
X108194347Y-107455306D01*
X108197883Y-107462246D01*
X108233550Y-107532246D01*
X108251944Y-107568347D01*
X108341653Y-107658056D01*
X108348590Y-107661591D01*
X108348592Y-107661592D01*
X108447754Y-107712117D01*
X108454694Y-107715653D01*
X108462388Y-107716872D01*
X108462389Y-107716872D01*
X108572304Y-107734281D01*
X108580000Y-107735500D01*
X108587696Y-107734281D01*
X108697611Y-107716872D01*
X108697612Y-107716872D01*
X108705306Y-107715653D01*
X108712246Y-107712117D01*
X108811408Y-107661592D01*
X108811410Y-107661591D01*
X108818347Y-107658056D01*
X108908056Y-107568347D01*
X108926451Y-107532246D01*
X108962117Y-107462246D01*
X108965653Y-107455306D01*
X108966977Y-107446950D01*
X108974413Y-107400000D01*
X109494500Y-107400000D01*
X109514347Y-107525306D01*
X109517883Y-107532246D01*
X109561042Y-107616950D01*
X109571944Y-107638347D01*
X109661653Y-107728056D01*
X109668590Y-107731591D01*
X109668592Y-107731592D01*
X109767754Y-107782117D01*
X109774694Y-107785653D01*
X109782388Y-107786872D01*
X109782389Y-107786872D01*
X109892304Y-107804281D01*
X109900000Y-107805500D01*
X109907696Y-107804281D01*
X110017611Y-107786872D01*
X110017612Y-107786872D01*
X110025306Y-107785653D01*
X110032246Y-107782117D01*
X110131408Y-107731592D01*
X110131410Y-107731591D01*
X110138347Y-107728056D01*
X110228056Y-107638347D01*
X110238959Y-107616950D01*
X110282117Y-107532246D01*
X110285653Y-107525306D01*
X110305500Y-107400000D01*
X110285653Y-107274694D01*
X110250212Y-107205136D01*
X110231592Y-107168592D01*
X110231591Y-107168590D01*
X110228056Y-107161653D01*
X110138347Y-107071944D01*
X110131410Y-107068409D01*
X110131408Y-107068408D01*
X110032246Y-107017883D01*
X110025306Y-107014347D01*
X110017612Y-107013128D01*
X110017611Y-107013128D01*
X109907696Y-106995719D01*
X109900000Y-106994500D01*
X109892304Y-106995719D01*
X109782389Y-107013128D01*
X109782388Y-107013128D01*
X109774694Y-107014347D01*
X109767754Y-107017883D01*
X109668592Y-107068408D01*
X109668590Y-107068409D01*
X109661653Y-107071944D01*
X109571944Y-107161653D01*
X109568409Y-107168590D01*
X109568408Y-107168592D01*
X109549788Y-107205136D01*
X109514347Y-107274694D01*
X109494500Y-107400000D01*
X108974413Y-107400000D01*
X108984281Y-107337696D01*
X108985500Y-107330000D01*
X108965653Y-107204694D01*
X108908056Y-107091653D01*
X108818347Y-107001944D01*
X108811410Y-106998409D01*
X108811408Y-106998408D01*
X108712246Y-106947883D01*
X108705306Y-106944347D01*
X108697612Y-106943128D01*
X108697611Y-106943128D01*
X108587696Y-106925719D01*
X108580000Y-106924500D01*
X108572304Y-106925719D01*
X108462389Y-106943128D01*
X108462388Y-106943128D01*
X108454694Y-106944347D01*
X108447754Y-106947883D01*
X108348592Y-106998408D01*
X108348590Y-106998409D01*
X108341653Y-107001944D01*
X108251944Y-107091653D01*
X108194347Y-107204694D01*
X108174500Y-107330000D01*
X106260500Y-107330000D01*
X106260500Y-104000000D01*
X110094500Y-104000000D01*
X110114347Y-104125306D01*
X110171944Y-104238347D01*
X110261653Y-104328056D01*
X110268590Y-104331591D01*
X110268592Y-104331592D01*
X110367754Y-104382117D01*
X110374694Y-104385653D01*
X110382388Y-104386872D01*
X110382389Y-104386872D01*
X110492304Y-104404281D01*
X110500000Y-104405500D01*
X110507696Y-104404281D01*
X110617611Y-104386872D01*
X110617612Y-104386872D01*
X110625306Y-104385653D01*
X110632246Y-104382117D01*
X110731408Y-104331592D01*
X110731410Y-104331591D01*
X110738347Y-104328056D01*
X110828056Y-104238347D01*
X110885653Y-104125306D01*
X110905500Y-104000000D01*
X112094500Y-104000000D01*
X112114347Y-104125306D01*
X112171944Y-104238347D01*
X112261653Y-104328056D01*
X112268590Y-104331591D01*
X112268592Y-104331592D01*
X112367754Y-104382117D01*
X112374694Y-104385653D01*
X112382388Y-104386872D01*
X112382389Y-104386872D01*
X112492304Y-104404281D01*
X112500000Y-104405500D01*
X112507696Y-104404281D01*
X112617611Y-104386872D01*
X112617612Y-104386872D01*
X112625306Y-104385653D01*
X112632246Y-104382117D01*
X112731408Y-104331592D01*
X112731410Y-104331591D01*
X112738347Y-104328056D01*
X112828056Y-104238347D01*
X112885653Y-104125306D01*
X112905500Y-104000000D01*
X112885653Y-103874694D01*
X112851136Y-103806950D01*
X112831592Y-103768592D01*
X112831591Y-103768590D01*
X112828056Y-103761653D01*
X112738347Y-103671944D01*
X112731410Y-103668409D01*
X112731408Y-103668408D01*
X112632246Y-103617883D01*
X112625306Y-103614347D01*
X112617612Y-103613128D01*
X112617611Y-103613128D01*
X112507696Y-103595719D01*
X112500000Y-103594500D01*
X112492304Y-103595719D01*
X112382389Y-103613128D01*
X112382388Y-103613128D01*
X112374694Y-103614347D01*
X112367754Y-103617883D01*
X112268592Y-103668408D01*
X112268590Y-103668409D01*
X112261653Y-103671944D01*
X112171944Y-103761653D01*
X112168409Y-103768590D01*
X112168408Y-103768592D01*
X112148864Y-103806950D01*
X112114347Y-103874694D01*
X112094500Y-104000000D01*
X110905500Y-104000000D01*
X110885653Y-103874694D01*
X110851136Y-103806950D01*
X110831592Y-103768592D01*
X110831591Y-103768590D01*
X110828056Y-103761653D01*
X110738347Y-103671944D01*
X110731410Y-103668409D01*
X110731408Y-103668408D01*
X110632246Y-103617883D01*
X110625306Y-103614347D01*
X110617612Y-103613128D01*
X110617611Y-103613128D01*
X110507696Y-103595719D01*
X110500000Y-103594500D01*
X110492304Y-103595719D01*
X110382389Y-103613128D01*
X110382388Y-103613128D01*
X110374694Y-103614347D01*
X110367754Y-103617883D01*
X110268592Y-103668408D01*
X110268590Y-103668409D01*
X110261653Y-103671944D01*
X110171944Y-103761653D01*
X110168409Y-103768590D01*
X110168408Y-103768592D01*
X110148864Y-103806950D01*
X110114347Y-103874694D01*
X110094500Y-104000000D01*
X106260500Y-104000000D01*
X106260500Y-103000000D01*
X111094500Y-103000000D01*
X111114347Y-103125306D01*
X111117883Y-103132246D01*
X111155769Y-103206601D01*
X111171944Y-103238347D01*
X111261653Y-103328056D01*
X111268590Y-103331591D01*
X111268592Y-103331592D01*
X111352098Y-103374140D01*
X111374694Y-103385653D01*
X111382388Y-103386872D01*
X111382389Y-103386872D01*
X111492304Y-103404281D01*
X111500000Y-103405500D01*
X111507696Y-103404281D01*
X111617611Y-103386872D01*
X111617612Y-103386872D01*
X111625306Y-103385653D01*
X111647902Y-103374140D01*
X111731408Y-103331592D01*
X111731410Y-103331591D01*
X111738347Y-103328056D01*
X111828056Y-103238347D01*
X111840311Y-103214297D01*
X116058797Y-103214297D01*
X116078644Y-103339603D01*
X116082180Y-103346543D01*
X116102729Y-103386872D01*
X116136241Y-103452644D01*
X116225950Y-103542353D01*
X116232887Y-103545888D01*
X116232889Y-103545889D01*
X116269306Y-103564444D01*
X116338991Y-103599950D01*
X116346685Y-103601169D01*
X116346686Y-103601169D01*
X116456601Y-103618578D01*
X116464297Y-103619797D01*
X116471993Y-103618578D01*
X116581908Y-103601169D01*
X116581909Y-103601169D01*
X116589603Y-103599950D01*
X116659288Y-103564444D01*
X116695705Y-103545889D01*
X116695707Y-103545888D01*
X116702644Y-103542353D01*
X116708150Y-103536847D01*
X116708154Y-103536844D01*
X116754315Y-103490684D01*
X116808832Y-103462907D01*
X116869264Y-103472479D01*
X116894322Y-103490684D01*
X116973588Y-103569950D01*
X116980525Y-103573485D01*
X116980527Y-103573486D01*
X117079689Y-103624011D01*
X117086629Y-103627547D01*
X117094323Y-103628766D01*
X117094324Y-103628766D01*
X117204239Y-103646175D01*
X117211935Y-103647394D01*
X117219631Y-103646175D01*
X117329546Y-103628766D01*
X117329547Y-103628766D01*
X117337241Y-103627547D01*
X117344181Y-103624011D01*
X117443343Y-103573486D01*
X117443345Y-103573485D01*
X117450282Y-103569950D01*
X117539991Y-103480241D01*
X117550277Y-103460055D01*
X117594052Y-103374140D01*
X117597588Y-103367200D01*
X117617435Y-103241894D01*
X117597588Y-103116588D01*
X117594052Y-103109648D01*
X117543527Y-103010486D01*
X117543526Y-103010484D01*
X117539991Y-103003547D01*
X117450282Y-102913838D01*
X117443345Y-102910303D01*
X117443343Y-102910302D01*
X117344181Y-102859777D01*
X117337241Y-102856241D01*
X117329547Y-102855022D01*
X117329546Y-102855022D01*
X117219631Y-102837613D01*
X117211935Y-102836394D01*
X117204239Y-102837613D01*
X117094324Y-102855022D01*
X117094323Y-102855022D01*
X117086629Y-102856241D01*
X117079689Y-102859777D01*
X116980527Y-102910302D01*
X116980525Y-102910303D01*
X116973588Y-102913838D01*
X116968082Y-102919344D01*
X116968078Y-102919347D01*
X116921919Y-102965507D01*
X116867403Y-102993285D01*
X116806971Y-102983714D01*
X116781911Y-102965508D01*
X116702644Y-102886241D01*
X116695707Y-102882706D01*
X116695705Y-102882705D01*
X116596543Y-102832180D01*
X116589603Y-102828644D01*
X116581909Y-102827425D01*
X116581908Y-102827425D01*
X116471993Y-102810016D01*
X116464297Y-102808797D01*
X116456601Y-102810016D01*
X116346686Y-102827425D01*
X116346685Y-102827425D01*
X116338991Y-102828644D01*
X116332051Y-102832180D01*
X116232889Y-102882705D01*
X116232887Y-102882706D01*
X116225950Y-102886241D01*
X116136241Y-102975950D01*
X116132706Y-102982887D01*
X116132705Y-102982889D01*
X116118644Y-103010486D01*
X116078644Y-103088991D01*
X116058797Y-103214297D01*
X111840311Y-103214297D01*
X111844232Y-103206601D01*
X111882117Y-103132246D01*
X111885653Y-103125306D01*
X111905500Y-103000000D01*
X111885653Y-102874694D01*
X111882117Y-102867754D01*
X111831592Y-102768592D01*
X111831591Y-102768590D01*
X111828056Y-102761653D01*
X111738347Y-102671944D01*
X111731410Y-102668409D01*
X111731408Y-102668408D01*
X111632246Y-102617883D01*
X111625306Y-102614347D01*
X111617612Y-102613128D01*
X111617611Y-102613128D01*
X111507696Y-102595719D01*
X111500000Y-102594500D01*
X111492304Y-102595719D01*
X111382389Y-102613128D01*
X111382388Y-102613128D01*
X111374694Y-102614347D01*
X111367754Y-102617883D01*
X111268592Y-102668408D01*
X111268590Y-102668409D01*
X111261653Y-102671944D01*
X111171944Y-102761653D01*
X111168409Y-102768590D01*
X111168408Y-102768592D01*
X111117883Y-102867754D01*
X111114347Y-102874694D01*
X111094500Y-103000000D01*
X106260500Y-103000000D01*
X106260500Y-102000000D01*
X110094500Y-102000000D01*
X110095719Y-102007696D01*
X110113024Y-102116950D01*
X110114347Y-102125306D01*
X110171944Y-102238347D01*
X110261653Y-102328056D01*
X110268590Y-102331591D01*
X110268592Y-102331592D01*
X110367754Y-102382117D01*
X110374694Y-102385653D01*
X110382388Y-102386872D01*
X110382389Y-102386872D01*
X110492304Y-102404281D01*
X110500000Y-102405500D01*
X110507696Y-102404281D01*
X110617611Y-102386872D01*
X110617612Y-102386872D01*
X110625306Y-102385653D01*
X110632246Y-102382117D01*
X110731408Y-102331592D01*
X110731410Y-102331591D01*
X110738347Y-102328056D01*
X110828056Y-102238347D01*
X110885653Y-102125306D01*
X110886977Y-102116950D01*
X110904281Y-102007696D01*
X110905500Y-102000000D01*
X112094500Y-102000000D01*
X112095719Y-102007696D01*
X112113024Y-102116950D01*
X112114347Y-102125306D01*
X112171944Y-102238347D01*
X112261653Y-102328056D01*
X112268590Y-102331591D01*
X112268592Y-102331592D01*
X112367754Y-102382117D01*
X112374694Y-102385653D01*
X112382388Y-102386872D01*
X112382389Y-102386872D01*
X112492304Y-102404281D01*
X112500000Y-102405500D01*
X112507696Y-102404281D01*
X112617611Y-102386872D01*
X112617612Y-102386872D01*
X112625306Y-102385653D01*
X112632246Y-102382117D01*
X112731408Y-102331592D01*
X112731410Y-102331591D01*
X112738347Y-102328056D01*
X112828056Y-102238347D01*
X112885653Y-102125306D01*
X112886977Y-102116950D01*
X112904281Y-102007696D01*
X112905500Y-102000000D01*
X112885653Y-101874694D01*
X112828056Y-101761653D01*
X112738347Y-101671944D01*
X112731410Y-101668409D01*
X112731408Y-101668408D01*
X112632246Y-101617883D01*
X112625306Y-101614347D01*
X112617612Y-101613128D01*
X112617611Y-101613128D01*
X112507696Y-101595719D01*
X112500000Y-101594500D01*
X112492304Y-101595719D01*
X112382389Y-101613128D01*
X112382388Y-101613128D01*
X112374694Y-101614347D01*
X112367754Y-101617883D01*
X112268592Y-101668408D01*
X112268590Y-101668409D01*
X112261653Y-101671944D01*
X112171944Y-101761653D01*
X112114347Y-101874694D01*
X112094500Y-102000000D01*
X110905500Y-102000000D01*
X110885653Y-101874694D01*
X110828056Y-101761653D01*
X110738347Y-101671944D01*
X110731410Y-101668409D01*
X110731408Y-101668408D01*
X110632246Y-101617883D01*
X110625306Y-101614347D01*
X110617612Y-101613128D01*
X110617611Y-101613128D01*
X110507696Y-101595719D01*
X110500000Y-101594500D01*
X110492304Y-101595719D01*
X110382389Y-101613128D01*
X110382388Y-101613128D01*
X110374694Y-101614347D01*
X110367754Y-101617883D01*
X110268592Y-101668408D01*
X110268590Y-101668409D01*
X110261653Y-101671944D01*
X110171944Y-101761653D01*
X110114347Y-101874694D01*
X110094500Y-102000000D01*
X106260500Y-102000000D01*
X106260500Y-100355479D01*
X106279407Y-100297288D01*
X106289496Y-100285475D01*
X107886262Y-98688709D01*
X107940779Y-98660932D01*
X107956266Y-98659713D01*
X109178905Y-98659713D01*
X109237096Y-98678620D01*
X109273060Y-98728120D01*
X109276686Y-98774199D01*
X109263298Y-98858724D01*
X109264517Y-98866420D01*
X109280671Y-98968408D01*
X109283145Y-98984030D01*
X109286681Y-98990970D01*
X109333123Y-99082117D01*
X109340742Y-99097071D01*
X109430451Y-99186780D01*
X109437388Y-99190315D01*
X109437390Y-99190316D01*
X109536552Y-99240841D01*
X109543492Y-99244377D01*
X109551186Y-99245596D01*
X109551187Y-99245596D01*
X109661102Y-99263005D01*
X109668798Y-99264224D01*
X109676494Y-99263005D01*
X109786409Y-99245596D01*
X109786410Y-99245596D01*
X109794104Y-99244377D01*
X109801044Y-99240841D01*
X109900206Y-99190316D01*
X109900208Y-99190315D01*
X109907145Y-99186780D01*
X109996854Y-99097071D01*
X110004474Y-99082117D01*
X110050915Y-98990970D01*
X110054451Y-98984030D01*
X110056926Y-98968408D01*
X110073924Y-98861085D01*
X110101702Y-98806568D01*
X110156218Y-98778791D01*
X110160143Y-98778482D01*
X110162095Y-98778791D01*
X110242011Y-98766133D01*
X110279706Y-98760163D01*
X110279707Y-98760163D01*
X110287401Y-98758944D01*
X110302647Y-98751176D01*
X110310206Y-98747325D01*
X110370638Y-98737755D01*
X110425154Y-98765534D01*
X110443359Y-98790591D01*
X110474873Y-98852441D01*
X110480873Y-98864217D01*
X110570582Y-98953926D01*
X110577519Y-98957461D01*
X110577521Y-98957462D01*
X110668709Y-99003924D01*
X110683623Y-99011523D01*
X110691317Y-99012742D01*
X110691318Y-99012742D01*
X110801233Y-99030151D01*
X110808929Y-99031370D01*
X110816625Y-99030151D01*
X110926540Y-99012742D01*
X110926541Y-99012742D01*
X110934235Y-99011523D01*
X110949149Y-99003924D01*
X111040337Y-98957462D01*
X111040339Y-98957461D01*
X111047276Y-98953926D01*
X111052782Y-98948420D01*
X111059090Y-98943837D01*
X111060155Y-98945303D01*
X111105994Y-98921948D01*
X111166426Y-98931519D01*
X111168774Y-98932958D01*
X111169751Y-98933935D01*
X111173412Y-98935800D01*
X111173413Y-98935801D01*
X111237408Y-98968408D01*
X111282792Y-98991532D01*
X111290486Y-98992751D01*
X111290487Y-98992751D01*
X111400402Y-99010160D01*
X111408098Y-99011379D01*
X111415794Y-99010160D01*
X111525709Y-98992751D01*
X111525710Y-98992751D01*
X111533404Y-98991532D01*
X111578788Y-98968408D01*
X111639506Y-98937471D01*
X111639508Y-98937470D01*
X111646445Y-98933935D01*
X111651950Y-98928430D01*
X111651957Y-98928425D01*
X111657214Y-98923168D01*
X111711732Y-98895393D01*
X111772163Y-98904967D01*
X111797218Y-98923171D01*
X111819155Y-98945108D01*
X111826092Y-98948643D01*
X111826094Y-98948644D01*
X111912660Y-98992751D01*
X111932196Y-99002705D01*
X111939890Y-99003924D01*
X111939891Y-99003924D01*
X112049806Y-99021333D01*
X112057502Y-99022552D01*
X112065198Y-99021333D01*
X112175113Y-99003924D01*
X112175114Y-99003924D01*
X112182808Y-99002705D01*
X112202344Y-98992751D01*
X112288910Y-98948644D01*
X112288912Y-98948643D01*
X112295849Y-98945108D01*
X112305023Y-98935934D01*
X112359540Y-98908157D01*
X112419972Y-98917728D01*
X112445031Y-98935934D01*
X112462153Y-98953056D01*
X112469090Y-98956591D01*
X112469092Y-98956592D01*
X112566350Y-99006147D01*
X112575194Y-99010653D01*
X112582888Y-99011872D01*
X112582889Y-99011872D01*
X112692804Y-99029281D01*
X112700500Y-99030500D01*
X112708196Y-99029281D01*
X112818111Y-99011872D01*
X112818112Y-99011872D01*
X112825806Y-99010653D01*
X112834650Y-99006147D01*
X112931908Y-98956592D01*
X112931910Y-98956591D01*
X112938847Y-98953056D01*
X113028556Y-98863347D01*
X113034833Y-98851029D01*
X113082617Y-98757246D01*
X113086153Y-98750306D01*
X113106000Y-98625000D01*
X113094992Y-98555500D01*
X113087372Y-98507389D01*
X113087372Y-98507388D01*
X113086153Y-98499694D01*
X113066770Y-98461653D01*
X113032092Y-98393592D01*
X113032091Y-98393590D01*
X113028556Y-98386653D01*
X112938847Y-98296944D01*
X112931910Y-98293409D01*
X112931908Y-98293408D01*
X112832746Y-98242883D01*
X112825806Y-98239347D01*
X112818112Y-98238128D01*
X112818111Y-98238128D01*
X112708196Y-98220719D01*
X112700500Y-98219500D01*
X112692804Y-98220719D01*
X112582889Y-98238128D01*
X112582888Y-98238128D01*
X112575194Y-98239347D01*
X112568254Y-98242883D01*
X112469092Y-98293408D01*
X112469090Y-98293409D01*
X112462153Y-98296944D01*
X112452979Y-98306118D01*
X112398462Y-98333895D01*
X112338030Y-98324324D01*
X112312971Y-98306118D01*
X112295849Y-98288996D01*
X112288912Y-98285461D01*
X112288910Y-98285460D01*
X112189748Y-98234935D01*
X112182808Y-98231399D01*
X112175114Y-98230180D01*
X112175113Y-98230180D01*
X112065198Y-98212771D01*
X112057502Y-98211552D01*
X112049806Y-98212771D01*
X111939891Y-98230180D01*
X111939890Y-98230180D01*
X111932196Y-98231399D01*
X111925256Y-98234935D01*
X111826094Y-98285460D01*
X111826092Y-98285461D01*
X111819155Y-98288996D01*
X111808394Y-98299757D01*
X111753879Y-98327537D01*
X111693446Y-98317969D01*
X111668383Y-98299761D01*
X111646445Y-98277823D01*
X111639508Y-98274288D01*
X111639506Y-98274287D01*
X111540344Y-98223762D01*
X111533404Y-98220226D01*
X111525710Y-98219007D01*
X111525709Y-98219007D01*
X111415794Y-98201598D01*
X111408098Y-98200379D01*
X111400402Y-98201598D01*
X111290487Y-98219007D01*
X111290486Y-98219007D01*
X111282792Y-98220226D01*
X111275852Y-98223762D01*
X111176690Y-98274287D01*
X111176688Y-98274288D01*
X111169751Y-98277823D01*
X111164245Y-98283329D01*
X111157937Y-98287912D01*
X111156872Y-98286446D01*
X111111033Y-98309801D01*
X111050601Y-98300230D01*
X111048253Y-98298791D01*
X111047276Y-98297814D01*
X111039642Y-98293924D01*
X110941175Y-98243753D01*
X110934235Y-98240217D01*
X110926541Y-98238998D01*
X110926540Y-98238998D01*
X110816625Y-98221589D01*
X110808929Y-98220370D01*
X110801233Y-98221589D01*
X110691318Y-98238998D01*
X110691317Y-98238998D01*
X110683623Y-98240217D01*
X110676682Y-98243754D01*
X110676681Y-98243754D01*
X110660818Y-98251836D01*
X110600386Y-98261406D01*
X110545870Y-98233627D01*
X110527665Y-98208570D01*
X110523299Y-98200000D01*
X110518832Y-98191234D01*
X110493687Y-98141883D01*
X110493686Y-98141881D01*
X110490151Y-98134944D01*
X110400442Y-98045235D01*
X110393505Y-98041700D01*
X110393503Y-98041699D01*
X110294341Y-97991174D01*
X110287401Y-97987638D01*
X110279707Y-97986419D01*
X110279706Y-97986419D01*
X110174040Y-97969683D01*
X110162095Y-97967791D01*
X110150150Y-97969683D01*
X110044484Y-97986419D01*
X110044483Y-97986419D01*
X110036789Y-97987638D01*
X109923748Y-98045235D01*
X109922731Y-98043239D01*
X109875103Y-98058713D01*
X107842895Y-98058713D01*
X107839763Y-98058483D01*
X107835415Y-98056990D01*
X107826279Y-98057333D01*
X107791386Y-98058643D01*
X107787672Y-98058713D01*
X107763941Y-98058713D01*
X107759457Y-98059548D01*
X107756783Y-98059795D01*
X107751398Y-98060144D01*
X107732758Y-98060844D01*
X107732757Y-98060844D01*
X107723625Y-98061187D01*
X107715230Y-98064793D01*
X107715228Y-98064794D01*
X107713057Y-98065727D01*
X107692113Y-98072090D01*
X107690619Y-98072369D01*
X107689795Y-98072522D01*
X107689794Y-98072522D01*
X107680808Y-98074196D01*
X107673026Y-98078993D01*
X107673023Y-98078994D01*
X107658151Y-98088161D01*
X107645288Y-98094843D01*
X107620839Y-98105347D01*
X107614361Y-98110668D01*
X107610858Y-98114171D01*
X107594183Y-98127352D01*
X107593358Y-98128100D01*
X107585576Y-98132897D01*
X107580044Y-98140172D01*
X107580043Y-98140173D01*
X107568831Y-98154918D01*
X107560031Y-98164998D01*
X105784356Y-99940672D01*
X105781982Y-99942721D01*
X105777853Y-99944739D01*
X105771636Y-99951441D01*
X105747900Y-99977029D01*
X105745323Y-99979705D01*
X105728531Y-99996497D01*
X105725952Y-100000256D01*
X105724223Y-100002337D01*
X105720660Y-100006394D01*
X105707990Y-100020052D01*
X105707988Y-100020055D01*
X105701773Y-100026755D01*
X105697512Y-100037436D01*
X105687197Y-100056753D01*
X105680696Y-100066229D01*
X105674549Y-100092131D01*
X105670183Y-100105934D01*
X105660318Y-100130661D01*
X105659500Y-100139004D01*
X105659500Y-100143954D01*
X105657029Y-100165073D01*
X105656975Y-100166183D01*
X105654864Y-100175077D01*
X105200500Y-100175077D01*
X105200500Y-99996950D01*
X104968554Y-99765004D01*
X104940777Y-99710487D01*
X104950348Y-99650055D01*
X104968555Y-99624996D01*
X105043571Y-99549981D01*
X105098088Y-99522204D01*
X105158520Y-99531776D01*
X105183578Y-99549981D01*
X105261653Y-99628056D01*
X105268590Y-99631591D01*
X105268592Y-99631592D01*
X105343865Y-99669945D01*
X105374694Y-99685653D01*
X105382388Y-99686872D01*
X105382389Y-99686872D01*
X105492304Y-99704281D01*
X105500000Y-99705500D01*
X105507696Y-99704281D01*
X105617611Y-99686872D01*
X105617612Y-99686872D01*
X105625306Y-99685653D01*
X105656135Y-99669945D01*
X105731408Y-99631592D01*
X105731410Y-99631591D01*
X105738347Y-99628056D01*
X105828056Y-99538347D01*
X105836282Y-99522204D01*
X105882117Y-99432246D01*
X105885653Y-99425306D01*
X105893573Y-99375306D01*
X105904281Y-99307696D01*
X105905500Y-99300000D01*
X105896130Y-99240841D01*
X105886872Y-99182389D01*
X105886872Y-99182388D01*
X105885653Y-99174694D01*
X105848908Y-99102577D01*
X105831592Y-99068592D01*
X105831591Y-99068590D01*
X105828056Y-99061653D01*
X105738347Y-98971944D01*
X105731410Y-98968409D01*
X105731408Y-98968408D01*
X105632246Y-98917883D01*
X105625306Y-98914347D01*
X105617612Y-98913128D01*
X105617611Y-98913128D01*
X105507696Y-98895719D01*
X105500000Y-98894500D01*
X105492304Y-98895719D01*
X105382389Y-98913128D01*
X105382388Y-98913128D01*
X105374694Y-98914347D01*
X105367754Y-98917883D01*
X105367751Y-98917884D01*
X105344446Y-98929759D01*
X105284014Y-98939331D01*
X105229497Y-98911554D01*
X105201719Y-98857038D01*
X105200500Y-98841550D01*
X105200500Y-98726950D01*
X104968554Y-98495004D01*
X104940777Y-98440487D01*
X104950348Y-98380055D01*
X104968554Y-98354996D01*
X105123550Y-98200000D01*
X106244500Y-98200000D01*
X106247589Y-98219500D01*
X106262036Y-98310713D01*
X106264347Y-98325306D01*
X106267883Y-98332246D01*
X106313131Y-98421050D01*
X106321944Y-98438347D01*
X106411653Y-98528056D01*
X106418590Y-98531591D01*
X106418592Y-98531592D01*
X106517754Y-98582117D01*
X106524694Y-98585653D01*
X106532388Y-98586872D01*
X106532389Y-98586872D01*
X106642304Y-98604281D01*
X106650000Y-98605500D01*
X106657696Y-98604281D01*
X106767611Y-98586872D01*
X106767612Y-98586872D01*
X106775306Y-98585653D01*
X106782246Y-98582117D01*
X106881408Y-98531592D01*
X106881410Y-98531591D01*
X106888347Y-98528056D01*
X106978056Y-98438347D01*
X106986870Y-98421050D01*
X107032117Y-98332246D01*
X107035653Y-98325306D01*
X107037965Y-98310713D01*
X107052411Y-98219500D01*
X107055500Y-98200000D01*
X107044211Y-98128726D01*
X107036872Y-98082389D01*
X107036872Y-98082388D01*
X107035653Y-98074694D01*
X107028596Y-98060844D01*
X106981592Y-97968592D01*
X106981591Y-97968590D01*
X106978056Y-97961653D01*
X106888347Y-97871944D01*
X106881410Y-97868409D01*
X106881408Y-97868408D01*
X106782246Y-97817883D01*
X106775306Y-97814347D01*
X106767612Y-97813128D01*
X106767611Y-97813128D01*
X106677298Y-97798824D01*
X106650000Y-97794500D01*
X106622702Y-97798824D01*
X106532389Y-97813128D01*
X106532388Y-97813128D01*
X106524694Y-97814347D01*
X106517754Y-97817883D01*
X106418592Y-97868408D01*
X106418590Y-97868409D01*
X106411653Y-97871944D01*
X106321944Y-97961653D01*
X106318409Y-97968590D01*
X106318408Y-97968592D01*
X106271404Y-98060844D01*
X106264347Y-98074694D01*
X106263128Y-98082388D01*
X106263128Y-98082389D01*
X106255789Y-98128726D01*
X106244500Y-98200000D01*
X105123550Y-98200000D01*
X105200500Y-98123050D01*
X105200500Y-97456950D01*
X104971150Y-97227600D01*
X107319500Y-97227600D01*
X107320719Y-97235296D01*
X107335397Y-97327965D01*
X107339347Y-97352906D01*
X107342883Y-97359846D01*
X107392645Y-97457509D01*
X107396944Y-97465947D01*
X107486653Y-97555656D01*
X107493590Y-97559191D01*
X107493592Y-97559192D01*
X107573683Y-97600000D01*
X107599694Y-97613253D01*
X107607388Y-97614472D01*
X107607389Y-97614472D01*
X107717304Y-97631881D01*
X107725000Y-97633100D01*
X107732696Y-97631881D01*
X107842611Y-97614472D01*
X107842612Y-97614472D01*
X107850306Y-97613253D01*
X107876317Y-97600000D01*
X107956408Y-97559192D01*
X107956410Y-97559191D01*
X107963347Y-97555656D01*
X108033717Y-97485286D01*
X108088234Y-97457509D01*
X108148666Y-97467080D01*
X108180321Y-97494116D01*
X108180744Y-97494947D01*
X108270453Y-97584656D01*
X108277390Y-97588191D01*
X108277392Y-97588192D01*
X108365530Y-97633100D01*
X108383494Y-97642253D01*
X108391188Y-97643472D01*
X108391189Y-97643472D01*
X108501104Y-97660881D01*
X108508800Y-97662100D01*
X108516496Y-97660881D01*
X108626411Y-97643472D01*
X108626412Y-97643472D01*
X108634106Y-97642253D01*
X108652070Y-97633100D01*
X108740208Y-97588192D01*
X108740210Y-97588191D01*
X108747147Y-97584656D01*
X108836856Y-97494947D01*
X108847176Y-97474694D01*
X108890917Y-97388846D01*
X108894453Y-97381906D01*
X108914300Y-97256600D01*
X108902372Y-97181293D01*
X108895672Y-97138989D01*
X108895672Y-97138988D01*
X108894453Y-97131294D01*
X108873158Y-97089500D01*
X108840392Y-97025192D01*
X108840391Y-97025190D01*
X108836856Y-97018253D01*
X108747147Y-96928544D01*
X108740210Y-96925009D01*
X108740208Y-96925008D01*
X108641046Y-96874483D01*
X108634106Y-96870947D01*
X108626412Y-96869728D01*
X108626411Y-96869728D01*
X108516496Y-96852319D01*
X108508800Y-96851100D01*
X108501104Y-96852319D01*
X108391189Y-96869728D01*
X108391188Y-96869728D01*
X108383494Y-96870947D01*
X108376554Y-96874483D01*
X108277392Y-96925008D01*
X108277390Y-96925009D01*
X108270453Y-96928544D01*
X108200083Y-96998914D01*
X108145566Y-97026691D01*
X108085134Y-97017120D01*
X108053479Y-96990084D01*
X108053056Y-96989253D01*
X107963347Y-96899544D01*
X107956410Y-96896009D01*
X107956408Y-96896008D01*
X107857246Y-96845483D01*
X107850306Y-96841947D01*
X107842612Y-96840728D01*
X107842611Y-96840728D01*
X107732696Y-96823319D01*
X107725000Y-96822100D01*
X107717304Y-96823319D01*
X107607389Y-96840728D01*
X107607388Y-96840728D01*
X107599694Y-96841947D01*
X107592754Y-96845483D01*
X107493592Y-96896008D01*
X107493590Y-96896009D01*
X107486653Y-96899544D01*
X107396944Y-96989253D01*
X107393409Y-96996190D01*
X107393408Y-96996192D01*
X107378632Y-97025192D01*
X107339347Y-97102294D01*
X107319500Y-97227600D01*
X104971150Y-97227600D01*
X104833050Y-97089500D01*
X104299000Y-97089500D01*
X104240809Y-97070593D01*
X104204845Y-97021093D01*
X104200000Y-96990500D01*
X104200000Y-96632720D01*
X104218907Y-96574529D01*
X104268407Y-96538565D01*
X104329593Y-96538565D01*
X104343944Y-96544510D01*
X104417751Y-96582116D01*
X104417754Y-96582117D01*
X104424694Y-96585653D01*
X104432388Y-96586872D01*
X104432389Y-96586872D01*
X104542304Y-96604281D01*
X104550000Y-96605500D01*
X104557696Y-96604281D01*
X104667611Y-96586872D01*
X104667612Y-96586872D01*
X104675306Y-96585653D01*
X104714056Y-96565909D01*
X104781408Y-96531592D01*
X104781410Y-96531591D01*
X104788347Y-96528056D01*
X104878056Y-96438347D01*
X104935653Y-96325306D01*
X104955500Y-96200000D01*
X104935653Y-96074694D01*
X104878056Y-95961653D01*
X104873170Y-95956767D01*
X104854401Y-95898998D01*
X104873310Y-95840807D01*
X104922810Y-95804845D01*
X104953401Y-95800000D01*
X109746599Y-95800000D01*
X109804790Y-95818907D01*
G37*
%TD.AperFunction*%
%TD*%
M02*
