%TF.GenerationSoftware,KiCad,Pcbnew,(5.99.0-10506-gb986797469)*%
%TF.CreationDate,2022-01-12T00:10:20+01:00*%
%TF.ProjectId,ESP31_V3,45535033-315f-4563-932e-6b696361645f,rev?*%
%TF.SameCoordinates,Original*%
%TF.FileFunction,Copper,L2,Inr*%
%TF.FilePolarity,Positive*%
%FSLAX46Y46*%
G04 Gerber Fmt 4.6, Leading zero omitted, Abs format (unit mm)*
G04 Created by KiCad (PCBNEW (5.99.0-10506-gb986797469)) date 2022-01-12 00:10:20*
%MOMM*%
%LPD*%
G01*
G04 APERTURE LIST*
G04 Aperture macros list*
%AMOutline5P*
0 Free polygon, 5 corners , with rotation*
0 The origin of the aperture is its center*
0 number of corners: always 8*
0 $1 to $10 corner X, Y*
0 $11 Rotation angle, in degrees counterclockwise*
0 create outline with 8 corners*
4,1,5,$1,$2,$3,$4,$5,$6,$7,$8,$9,$10,$1,$2,$11*%
%AMOutline6P*
0 Free polygon, 6 corners , with rotation*
0 The origin of the aperture is its center*
0 number of corners: always 6*
0 $1 to $12 corner X, Y*
0 $13 Rotation angle, in degrees counterclockwise*
0 create outline with 6 corners*
4,1,6,$1,$2,$3,$4,$5,$6,$7,$8,$9,$10,$11,$12,$1,$2,$13*%
%AMOutline7P*
0 Free polygon, 7 corners , with rotation*
0 The origin of the aperture is its center*
0 number of corners: always 7*
0 $1 to $14 corner X, Y*
0 $15 Rotation angle, in degrees counterclockwise*
0 create outline with 7 corners*
4,1,7,$1,$2,$3,$4,$5,$6,$7,$8,$9,$10,$11,$12,$13,$14,$1,$2,$15*%
%AMOutline8P*
0 Free polygon, 8 corners , with rotation*
0 The origin of the aperture is its center*
0 number of corners: always 8*
0 $1 to $16 corner X, Y*
0 $17 Rotation angle, in degrees counterclockwise*
0 create outline with 8 corners*
4,1,8,$1,$2,$3,$4,$5,$6,$7,$8,$9,$10,$11,$12,$13,$14,$15,$16,$1,$2,$17*%
G04 Aperture macros list end*
%TA.AperFunction,ComponentPad*%
%ADD10Outline6P,0.250000X-0.500000X-0.500000X-0.500000X-0.500000X0.500000X0.250000X0.500000X0.500000X0.250000X0.500000X-0.250000X180.000000*%
%TD*%
%TA.AperFunction,ComponentPad*%
%ADD11Outline6P,0.250000X-0.500000X-0.500000X-0.500000X-0.500000X0.500000X0.250000X0.500000X0.500000X0.250000X0.500000X-0.250000X0.000000*%
%TD*%
%TA.AperFunction,ComponentPad*%
%ADD12R,0.900000X0.500000*%
%TD*%
%TA.AperFunction,ComponentPad*%
%ADD13R,1.700000X1.700000*%
%TD*%
%TA.AperFunction,ComponentPad*%
%ADD14O,1.700000X1.700000*%
%TD*%
%TA.AperFunction,ViaPad*%
%ADD15C,0.400000*%
%TD*%
%TA.AperFunction,ViaPad*%
%ADD16C,0.800000*%
%TD*%
G04 APERTURE END LIST*
D10*
%TO.N,/IO5*%
%TO.C,J5*%
X118500000Y-107780000D03*
%TD*%
%TO.N,/IO21*%
%TO.C,J10*%
X118500000Y-101180000D03*
%TD*%
%TO.N,/IO10*%
%TO.C,J7*%
X118500000Y-109230000D03*
%TD*%
D11*
%TO.N,/IO34*%
%TO.C,J18*%
X104500000Y-102870000D03*
%TD*%
D10*
%TO.N,/IO19*%
%TO.C,J9*%
X118500000Y-103720000D03*
%TD*%
%TO.N,/IO9*%
%TO.C,J6*%
X118500000Y-110500000D03*
%TD*%
%TO.N,/IO23*%
%TO.C,J12*%
X118500000Y-104990000D03*
%TD*%
D11*
%TO.N,/IO35*%
%TO.C,J19*%
X104500000Y-100330000D03*
%TD*%
%TO.N,/IO25*%
%TO.C,J13*%
X104500000Y-107950000D03*
%TD*%
%TO.N,/IO27*%
%TO.C,J15*%
X104500000Y-110490000D03*
%TD*%
%TO.N,/IO33*%
%TO.C,J17*%
X104500000Y-106680000D03*
%TD*%
%TO.N,/IO26*%
%TO.C,J14*%
X104500000Y-109220000D03*
%TD*%
D10*
%TO.N,/IO18*%
%TO.C,J8*%
X118500000Y-106260000D03*
%TD*%
D12*
%TO.N,GND*%
%TO.C,AE1*%
X118150000Y-95625000D03*
%TD*%
D11*
%TO.N,/CAPN*%
%TO.C,J3*%
X104500000Y-105410000D03*
%TD*%
%TO.N,/SENS_VN*%
%TO.C,J4*%
X104500000Y-104140000D03*
%TD*%
D10*
%TO.N,/IO22*%
%TO.C,J11*%
X118500000Y-102450000D03*
%TD*%
D11*
%TO.N,/SENS_VP*%
%TO.C,J1*%
X104500000Y-97790000D03*
%TD*%
%TO.N,/IO32*%
%TO.C,J16*%
X104500000Y-101600000D03*
%TD*%
%TO.N,/CAPP*%
%TO.C,J2*%
X104500000Y-99060000D03*
%TD*%
D13*
%TO.N,GND*%
%TO.C,J20*%
X107500000Y-110725000D03*
D14*
%TO.N,/IO1*%
X107500000Y-113265000D03*
%TO.N,/IO2*%
X110040000Y-110725000D03*
%TO.N,/IO4*%
X110040000Y-113265000D03*
%TO.N,/IO0*%
X112580000Y-110725000D03*
%TO.N,/EN*%
X112580000Y-113265000D03*
%TO.N,/IO3*%
X115120000Y-110725000D03*
%TO.N,VIN*%
X115120000Y-113265000D03*
%TD*%
D15*
%TO.N,GND*%
X117350000Y-96150000D03*
X112889765Y-108410228D03*
X116130000Y-97680000D03*
X105500000Y-99300000D03*
X109100000Y-109150000D03*
X113900000Y-97100000D03*
X104550000Y-96200000D03*
X113550000Y-96200000D03*
X114850000Y-98150000D03*
X108580000Y-107330000D03*
X118500000Y-98500000D03*
X116530000Y-97200000D03*
X116750000Y-96050000D03*
X111500000Y-103000000D03*
X106650000Y-98200000D03*
X114200000Y-108900000D03*
X108508800Y-97256600D03*
X116500000Y-111100000D03*
X104500000Y-113750000D03*
X110500000Y-102000000D03*
X108740000Y-113670000D03*
X118500000Y-97750000D03*
X118500000Y-100000000D03*
X115350000Y-96050000D03*
X116750000Y-96600000D03*
X115150000Y-96600000D03*
X109900000Y-107400000D03*
X112500000Y-102000000D03*
X112500000Y-104000000D03*
X118500000Y-96250000D03*
X111750000Y-96200000D03*
X118500000Y-99250000D03*
X114503200Y-96800000D03*
X114400000Y-96200000D03*
X113374500Y-97587566D03*
X110150000Y-96200000D03*
X118500000Y-112750000D03*
X104500000Y-112750000D03*
X113621581Y-109899011D03*
X118500000Y-97000000D03*
X110500000Y-104000000D03*
X118500000Y-113750000D03*
X115450000Y-98050000D03*
X114450000Y-98700000D03*
%TO.N,/EN*%
X107725000Y-97227600D03*
X110162095Y-98373291D03*
%TO.N,+3V3*%
X110124000Y-97775000D03*
X114750000Y-99500000D03*
X113400000Y-108900000D03*
X116396800Y-101896800D03*
X115750000Y-101250000D03*
X107100000Y-104400000D03*
X117495701Y-105195701D03*
%TO.N,/IO1*%
X116464297Y-103214297D03*
%TO.N,/IO2*%
X107069740Y-108169740D03*
X117800000Y-97600000D03*
%TO.N,/IO4*%
X107542579Y-109142578D03*
%TO.N,/IO3*%
X117211935Y-103241894D03*
D16*
%TO.N,Net-(C1-Pad2)*%
X116700000Y-110200000D03*
D15*
%TO.N,/SENS_VN*%
X110808929Y-98625870D03*
%TO.N,/SENS_VP*%
X112700500Y-98625000D03*
%TO.N,/CAPP*%
X112057502Y-98617052D03*
%TO.N,/CAPN*%
X111408098Y-98605879D03*
%TO.N,/IO34*%
X109668798Y-98858724D03*
%TD*%
%TA.AperFunction,NonConductor*%
G36*
X123959191Y-90018907D02*
G01*
X123995155Y-90068407D01*
X124000000Y-90099000D01*
X124000000Y-114901000D01*
X123981093Y-114959191D01*
X123931593Y-114995155D01*
X123901000Y-115000000D01*
X120099000Y-115000000D01*
X120040809Y-114981093D01*
X120004845Y-114931593D01*
X120000000Y-114901000D01*
X120000000Y-114025613D01*
X120001957Y-114009265D01*
X120005286Y-114007741D01*
X120002667Y-113936096D01*
X120004416Y-113934687D01*
X120002359Y-113927681D01*
X120002092Y-113920381D01*
X119999985Y-113919597D01*
X119964095Y-113797364D01*
X119965583Y-113795221D01*
X119961685Y-113789156D01*
X119959654Y-113782238D01*
X119957060Y-113781959D01*
X119888207Y-113674820D01*
X119889031Y-113672346D01*
X119883583Y-113667626D01*
X119879684Y-113661558D01*
X119877116Y-113662021D01*
X119850844Y-113639256D01*
X119799243Y-113594544D01*
X120618519Y-113594544D01*
X120636731Y-113767816D01*
X120692878Y-113932747D01*
X120784170Y-114081139D01*
X120906069Y-114205619D01*
X120910723Y-114208618D01*
X120910725Y-114208620D01*
X121047866Y-114297001D01*
X121052518Y-114299999D01*
X121216236Y-114359588D01*
X121350111Y-114376500D01*
X121444575Y-114376500D01*
X121468451Y-114373822D01*
X121567643Y-114362696D01*
X121567647Y-114362695D01*
X121573140Y-114362079D01*
X121737675Y-114304782D01*
X121885427Y-114212456D01*
X122009053Y-114089691D01*
X122102408Y-113942587D01*
X122160852Y-113778456D01*
X122181481Y-113605456D01*
X122163269Y-113432184D01*
X122107122Y-113267253D01*
X122015830Y-113118861D01*
X121893931Y-112994381D01*
X121889277Y-112991382D01*
X121889275Y-112991380D01*
X121752134Y-112902999D01*
X121747482Y-112900001D01*
X121583764Y-112840412D01*
X121449889Y-112823500D01*
X121355425Y-112823500D01*
X121331549Y-112826178D01*
X121232357Y-112837304D01*
X121232353Y-112837305D01*
X121226860Y-112837921D01*
X121062325Y-112895218D01*
X120914573Y-112987544D01*
X120871554Y-113030263D01*
X120800233Y-113101088D01*
X120790947Y-113110309D01*
X120697592Y-113257413D01*
X120639148Y-113421544D01*
X120638493Y-113427037D01*
X120621068Y-113573171D01*
X120618519Y-113594544D01*
X119799243Y-113594544D01*
X119789322Y-113585948D01*
X119789321Y-113585947D01*
X119780868Y-113578623D01*
X119780962Y-113576016D01*
X119774403Y-113573021D01*
X119768954Y-113568299D01*
X119766621Y-113569467D01*
X119664221Y-113522702D01*
X119660939Y-113521203D01*
X119660937Y-113521203D01*
X119650776Y-113516562D01*
X119650131Y-113514034D01*
X119642994Y-113513008D01*
X119636436Y-113510013D01*
X119634527Y-113511790D01*
X119508468Y-113493666D01*
X119507137Y-113491422D01*
X119500000Y-113492448D01*
X119492863Y-113491422D01*
X119491532Y-113493666D01*
X119465499Y-113497409D01*
X119405210Y-113486976D01*
X119362568Y-113443098D01*
X119352779Y-113390876D01*
X119353698Y-113380263D01*
X119353698Y-113380261D01*
X119354404Y-113372108D01*
X119326262Y-113258814D01*
X119262939Y-113160744D01*
X119262502Y-113160399D01*
X119238992Y-113108326D01*
X119251401Y-113048413D01*
X119264697Y-113030263D01*
X119291574Y-113001188D01*
X119297130Y-112995178D01*
X119300438Y-112987695D01*
X119300440Y-112987692D01*
X119341023Y-112895893D01*
X119341024Y-112895890D01*
X119344331Y-112888409D01*
X119349573Y-112827892D01*
X119353698Y-112780261D01*
X119353698Y-112780260D01*
X119354404Y-112772108D01*
X119326262Y-112658814D01*
X119262939Y-112560744D01*
X119262502Y-112560399D01*
X119238992Y-112508326D01*
X119251401Y-112448413D01*
X119264697Y-112430263D01*
X119291574Y-112401188D01*
X119297130Y-112395178D01*
X119300438Y-112387695D01*
X119300440Y-112387692D01*
X119341023Y-112295893D01*
X119341024Y-112295890D01*
X119344331Y-112288409D01*
X119349573Y-112227892D01*
X119353698Y-112180261D01*
X119353698Y-112180260D01*
X119354404Y-112172108D01*
X119342093Y-112122546D01*
X119346414Y-112061513D01*
X119385785Y-112014677D01*
X119445166Y-111999927D01*
X119452262Y-112000688D01*
X119491532Y-112006334D01*
X119492863Y-112008578D01*
X119500000Y-112007552D01*
X119507137Y-112008578D01*
X119508468Y-112006334D01*
X119634527Y-111988210D01*
X119636436Y-111989987D01*
X119642994Y-111986992D01*
X119650131Y-111985966D01*
X119650776Y-111983438D01*
X119700469Y-111960744D01*
X119756455Y-111935176D01*
X119756456Y-111935175D01*
X119766621Y-111930533D01*
X119768954Y-111931701D01*
X119774403Y-111926979D01*
X119780962Y-111923984D01*
X119780868Y-111921377D01*
X119785894Y-111917022D01*
X119785896Y-111917021D01*
X119847470Y-111863667D01*
X119877116Y-111837979D01*
X119879684Y-111838442D01*
X119883583Y-111832374D01*
X119889031Y-111827654D01*
X119888207Y-111825180D01*
X119957060Y-111718041D01*
X119959654Y-111717762D01*
X119961685Y-111710844D01*
X119965583Y-111704779D01*
X119964095Y-111702636D01*
X119999985Y-111580403D01*
X120002092Y-111579619D01*
X120002359Y-111572319D01*
X120004416Y-111565313D01*
X120002667Y-111563904D01*
X120005286Y-111492259D01*
X120001833Y-111490678D01*
X120000000Y-111477559D01*
X120000000Y-100225613D01*
X120001957Y-100209265D01*
X120005286Y-100207741D01*
X120002667Y-100136096D01*
X120004416Y-100134687D01*
X120002359Y-100127681D01*
X120002092Y-100120381D01*
X119999985Y-100119597D01*
X119964095Y-99997364D01*
X119965583Y-99995221D01*
X119961685Y-99989156D01*
X119959654Y-99982238D01*
X119957060Y-99981959D01*
X119888207Y-99874820D01*
X119889031Y-99872346D01*
X119883583Y-99867626D01*
X119879684Y-99861558D01*
X119877116Y-99862021D01*
X119780868Y-99778623D01*
X119780962Y-99776016D01*
X119774403Y-99773021D01*
X119768954Y-99768299D01*
X119766621Y-99769467D01*
X119760571Y-99766704D01*
X119660939Y-99721203D01*
X119660937Y-99721203D01*
X119650776Y-99716562D01*
X119650131Y-99714034D01*
X119642994Y-99713008D01*
X119636436Y-99710013D01*
X119634527Y-99711790D01*
X119508468Y-99693666D01*
X119507137Y-99691422D01*
X119500000Y-99692448D01*
X119492863Y-99691422D01*
X119491532Y-99693666D01*
X119414335Y-99704765D01*
X119354046Y-99694332D01*
X119311403Y-99650454D01*
X119302696Y-99589891D01*
X119309700Y-99566744D01*
X119341023Y-99495893D01*
X119341024Y-99495890D01*
X119344331Y-99488409D01*
X119349573Y-99427892D01*
X119353698Y-99380261D01*
X119353698Y-99380260D01*
X119354404Y-99372108D01*
X119326262Y-99258814D01*
X119262939Y-99160744D01*
X119262502Y-99160399D01*
X119238992Y-99108326D01*
X119251401Y-99048413D01*
X119264697Y-99030263D01*
X119291574Y-99001188D01*
X119297130Y-98995178D01*
X119300438Y-98987695D01*
X119300440Y-98987692D01*
X119341023Y-98895893D01*
X119341024Y-98895890D01*
X119344331Y-98888409D01*
X119349573Y-98827892D01*
X119353698Y-98780261D01*
X119353698Y-98780260D01*
X119354404Y-98772108D01*
X119326262Y-98658814D01*
X119318742Y-98647167D01*
X119303062Y-98588026D01*
X119325138Y-98530963D01*
X119376540Y-98497773D01*
X119416000Y-98495475D01*
X119466975Y-98502803D01*
X119491532Y-98506334D01*
X119492863Y-98508578D01*
X119500000Y-98507552D01*
X119507137Y-98508578D01*
X119508468Y-98506334D01*
X119634527Y-98488210D01*
X119636436Y-98489987D01*
X119642994Y-98486992D01*
X119650131Y-98485966D01*
X119650776Y-98483438D01*
X119664221Y-98477298D01*
X119756455Y-98435176D01*
X119756456Y-98435175D01*
X119766621Y-98430533D01*
X119768954Y-98431701D01*
X119774403Y-98426979D01*
X119780962Y-98423984D01*
X119780868Y-98421377D01*
X119785894Y-98417022D01*
X119785896Y-98417021D01*
X119834054Y-98375291D01*
X119877116Y-98337979D01*
X119879684Y-98338442D01*
X119883583Y-98332374D01*
X119889031Y-98327654D01*
X119888207Y-98325180D01*
X119957060Y-98218041D01*
X119959654Y-98217762D01*
X119961685Y-98210844D01*
X119965583Y-98204779D01*
X119964095Y-98202636D01*
X119999985Y-98080403D01*
X120002092Y-98079619D01*
X120002359Y-98072319D01*
X120004416Y-98065313D01*
X120002667Y-98063904D01*
X120005286Y-97992259D01*
X120001833Y-97990678D01*
X120000000Y-97977559D01*
X120000000Y-90994544D01*
X122018519Y-90994544D01*
X122036731Y-91167816D01*
X122092878Y-91332747D01*
X122184170Y-91481139D01*
X122306069Y-91605619D01*
X122310723Y-91608618D01*
X122310725Y-91608620D01*
X122447866Y-91697001D01*
X122452518Y-91699999D01*
X122616236Y-91759588D01*
X122750111Y-91776500D01*
X122844575Y-91776500D01*
X122868451Y-91773822D01*
X122967643Y-91762696D01*
X122967647Y-91762695D01*
X122973140Y-91762079D01*
X123137675Y-91704782D01*
X123285427Y-91612456D01*
X123409053Y-91489691D01*
X123502408Y-91342587D01*
X123560852Y-91178456D01*
X123581481Y-91005456D01*
X123563269Y-90832184D01*
X123507122Y-90667253D01*
X123415830Y-90518861D01*
X123293931Y-90394381D01*
X123289277Y-90391382D01*
X123289275Y-90391380D01*
X123152134Y-90302999D01*
X123147482Y-90300001D01*
X122983764Y-90240412D01*
X122849889Y-90223500D01*
X122755425Y-90223500D01*
X122731549Y-90226178D01*
X122632357Y-90237304D01*
X122632353Y-90237305D01*
X122626860Y-90237921D01*
X122462325Y-90295218D01*
X122314573Y-90387544D01*
X122190947Y-90510309D01*
X122097592Y-90657413D01*
X122039148Y-90821544D01*
X122018519Y-90994544D01*
X120000000Y-90994544D01*
X120000000Y-90099000D01*
X120018907Y-90040809D01*
X120068407Y-90004845D01*
X120099000Y-90000000D01*
X123901000Y-90000000D01*
X123959191Y-90018907D01*
G37*
%TD.AperFunction*%
%TA.AperFunction,Conductor*%
%TO.N,GND*%
G36*
X118417774Y-95418907D02*
G01*
X118428869Y-95428286D01*
X118770286Y-95762806D01*
X118798618Y-95817036D01*
X118800000Y-95833520D01*
X118800000Y-97946418D01*
X118798228Y-97965063D01*
X118794329Y-97985395D01*
X118794534Y-97990994D01*
X118796157Y-98035375D01*
X118793067Y-98035488D01*
X118793232Y-98037213D01*
X118795457Y-98037080D01*
X118795457Y-98037082D01*
X118797360Y-98069002D01*
X118797466Y-98071202D01*
X118798553Y-98100909D01*
X118799467Y-98104335D01*
X118799689Y-98108052D01*
X118801265Y-98113421D01*
X118801266Y-98113424D01*
X118807806Y-98135697D01*
X118808467Y-98138057D01*
X118816842Y-98169434D01*
X118813845Y-98170234D01*
X118814175Y-98172146D01*
X118818164Y-98170974D01*
X118818165Y-98170975D01*
X118834816Y-98227683D01*
X118835009Y-98228619D01*
X118834443Y-98234073D01*
X118845714Y-98265419D01*
X118847537Y-98271008D01*
X118852389Y-98287532D01*
X118855099Y-98292379D01*
X118855883Y-98294245D01*
X118856604Y-98295708D01*
X118858499Y-98300976D01*
X118861526Y-98305686D01*
X118861527Y-98305688D01*
X118867700Y-98315294D01*
X118870823Y-98320497D01*
X118886524Y-98348575D01*
X118898422Y-98408593D01*
X118872771Y-98464141D01*
X118847128Y-98484019D01*
X118782112Y-98519100D01*
X118776559Y-98525108D01*
X118776558Y-98525108D01*
X118767540Y-98534864D01*
X118702870Y-98604822D01*
X118699562Y-98612305D01*
X118699560Y-98612308D01*
X118658977Y-98704107D01*
X118658976Y-98704110D01*
X118655669Y-98711591D01*
X118654963Y-98719739D01*
X118654963Y-98719740D01*
X118649928Y-98777871D01*
X118645596Y-98827892D01*
X118647569Y-98835834D01*
X118647569Y-98835836D01*
X118655987Y-98869723D01*
X118673738Y-98941186D01*
X118678177Y-98948060D01*
X118678177Y-98948061D01*
X118684247Y-98957462D01*
X118737061Y-99039256D01*
X118737498Y-99039601D01*
X118761008Y-99091674D01*
X118748599Y-99151587D01*
X118735304Y-99169736D01*
X118702870Y-99204822D01*
X118699562Y-99212305D01*
X118699560Y-99212308D01*
X118658977Y-99304107D01*
X118658976Y-99304110D01*
X118655669Y-99311591D01*
X118654963Y-99319739D01*
X118654963Y-99319740D01*
X118646302Y-99419739D01*
X118645596Y-99427892D01*
X118647569Y-99435834D01*
X118647569Y-99435836D01*
X118668672Y-99520792D01*
X118673738Y-99541186D01*
X118737061Y-99639256D01*
X118743486Y-99644321D01*
X118743487Y-99644322D01*
X118782899Y-99675391D01*
X118828737Y-99711527D01*
X118836459Y-99714239D01*
X118843628Y-99718180D01*
X118842236Y-99720711D01*
X118880092Y-99749608D01*
X118897617Y-99808230D01*
X118884968Y-99854357D01*
X118870942Y-99879337D01*
X118867903Y-99884391D01*
X118861603Y-99894193D01*
X118861601Y-99894197D01*
X118858603Y-99898862D01*
X118856717Y-99904078D01*
X118855811Y-99905911D01*
X118855182Y-99907405D01*
X118852443Y-99912283D01*
X118850867Y-99917652D01*
X118850864Y-99917658D01*
X118847645Y-99928621D01*
X118845758Y-99934387D01*
X118838278Y-99955076D01*
X118838277Y-99955081D01*
X118834488Y-99965562D01*
X118835061Y-99971175D01*
X118834844Y-99972221D01*
X118818219Y-100028841D01*
X118815264Y-100027973D01*
X118814873Y-100029664D01*
X118817014Y-100030239D01*
X118808707Y-100061145D01*
X118808093Y-100063327D01*
X118799744Y-100091763D01*
X118799527Y-100095303D01*
X118798560Y-100098899D01*
X118798355Y-100104498D01*
X118798355Y-100104500D01*
X118797507Y-100127699D01*
X118797388Y-100130137D01*
X118795397Y-100162555D01*
X118792301Y-100162365D01*
X118792008Y-100164283D01*
X118796164Y-100164435D01*
X118794336Y-100214413D01*
X118795372Y-100219865D01*
X118798261Y-100235074D01*
X118800000Y-100253551D01*
X118800000Y-100380500D01*
X118781093Y-100438691D01*
X118731593Y-100474655D01*
X118701000Y-100479500D01*
X118166950Y-100479500D01*
X117799500Y-100846950D01*
X117799500Y-101513050D01*
X118031446Y-101744996D01*
X118059223Y-101799513D01*
X118049652Y-101859945D01*
X118031446Y-101885004D01*
X117799500Y-102116950D01*
X117799500Y-102783050D01*
X118031446Y-103014996D01*
X118059223Y-103069513D01*
X118049652Y-103129945D01*
X118031446Y-103155004D01*
X117799500Y-103386950D01*
X117799500Y-104053050D01*
X118031446Y-104284996D01*
X118059223Y-104339513D01*
X118049652Y-104399945D01*
X118031446Y-104425004D01*
X117799500Y-104656950D01*
X117799500Y-104739441D01*
X117780593Y-104797632D01*
X117731093Y-104833596D01*
X117669907Y-104833596D01*
X117655555Y-104827651D01*
X117627947Y-104813584D01*
X117621007Y-104810048D01*
X117613313Y-104808829D01*
X117613312Y-104808829D01*
X117503397Y-104791420D01*
X117495701Y-104790201D01*
X117488005Y-104791420D01*
X117378090Y-104808829D01*
X117378089Y-104808829D01*
X117370395Y-104810048D01*
X117363455Y-104813584D01*
X117264293Y-104864109D01*
X117264291Y-104864110D01*
X117257354Y-104867645D01*
X117167645Y-104957354D01*
X117110048Y-105070395D01*
X117090201Y-105195701D01*
X117110048Y-105321007D01*
X117167645Y-105434048D01*
X117257354Y-105523757D01*
X117264291Y-105527292D01*
X117264293Y-105527293D01*
X117318664Y-105554996D01*
X117370395Y-105581354D01*
X117378089Y-105582573D01*
X117378090Y-105582573D01*
X117488005Y-105599982D01*
X117495701Y-105601201D01*
X117503397Y-105599982D01*
X117613312Y-105582573D01*
X117613313Y-105582573D01*
X117621007Y-105581354D01*
X117672738Y-105554996D01*
X117727109Y-105527293D01*
X117727111Y-105527292D01*
X117734048Y-105523757D01*
X117739554Y-105518251D01*
X117739558Y-105518248D01*
X117797125Y-105460682D01*
X117851642Y-105432905D01*
X117912074Y-105442477D01*
X117937132Y-105460682D01*
X118031446Y-105554996D01*
X118059223Y-105609513D01*
X118049652Y-105669945D01*
X118031446Y-105695004D01*
X117799500Y-105926950D01*
X117799500Y-106593050D01*
X118156446Y-106949996D01*
X118184223Y-107004513D01*
X118174652Y-107064945D01*
X118156446Y-107090004D01*
X117799500Y-107446950D01*
X117799500Y-108113050D01*
X118121446Y-108434996D01*
X118149223Y-108489513D01*
X118139652Y-108549945D01*
X118121446Y-108575004D01*
X117799500Y-108896950D01*
X117799500Y-109563050D01*
X118031446Y-109794996D01*
X118059223Y-109849513D01*
X118049652Y-109909945D01*
X118031446Y-109935004D01*
X117799500Y-110166950D01*
X117799500Y-110833050D01*
X118166950Y-111200500D01*
X118701000Y-111200500D01*
X118759191Y-111219407D01*
X118795155Y-111268907D01*
X118800000Y-111299500D01*
X118800000Y-111446418D01*
X118798228Y-111465063D01*
X118794329Y-111485395D01*
X118794534Y-111490994D01*
X118796157Y-111535375D01*
X118793067Y-111535488D01*
X118793232Y-111537213D01*
X118795457Y-111537080D01*
X118795457Y-111537082D01*
X118797360Y-111569002D01*
X118797466Y-111571202D01*
X118798553Y-111600909D01*
X118799467Y-111604335D01*
X118799689Y-111608052D01*
X118801265Y-111613421D01*
X118801266Y-111613424D01*
X118807806Y-111635697D01*
X118808467Y-111638057D01*
X118816842Y-111669434D01*
X118813845Y-111670234D01*
X118814175Y-111672146D01*
X118818164Y-111670974D01*
X118818165Y-111670975D01*
X118834816Y-111727683D01*
X118835009Y-111728619D01*
X118834443Y-111734073D01*
X118845714Y-111765419D01*
X118847537Y-111771008D01*
X118852389Y-111787533D01*
X118850824Y-111787993D01*
X118855328Y-111841728D01*
X118823625Y-111894060D01*
X118805960Y-111906232D01*
X118782112Y-111919100D01*
X118702870Y-112004822D01*
X118699562Y-112012305D01*
X118699560Y-112012308D01*
X118658977Y-112104107D01*
X118658976Y-112104110D01*
X118655669Y-112111591D01*
X118654963Y-112119739D01*
X118654963Y-112119740D01*
X118647324Y-112207937D01*
X118645596Y-112227892D01*
X118647569Y-112235834D01*
X118647569Y-112235836D01*
X118662085Y-112294273D01*
X118673738Y-112341186D01*
X118678177Y-112348060D01*
X118678177Y-112348061D01*
X118703739Y-112387650D01*
X118737061Y-112439256D01*
X118737498Y-112439601D01*
X118761008Y-112491674D01*
X118748599Y-112551587D01*
X118735304Y-112569736D01*
X118702870Y-112604822D01*
X118699562Y-112612305D01*
X118699560Y-112612308D01*
X118658977Y-112704107D01*
X118658976Y-112704110D01*
X118655669Y-112711591D01*
X118654963Y-112719739D01*
X118654963Y-112719740D01*
X118646302Y-112819739D01*
X118645596Y-112827892D01*
X118673738Y-112941186D01*
X118737061Y-113039256D01*
X118737498Y-113039601D01*
X118761008Y-113091674D01*
X118748599Y-113151587D01*
X118735304Y-113169736D01*
X118702870Y-113204822D01*
X118699562Y-113212305D01*
X118699560Y-113212308D01*
X118658977Y-113304107D01*
X118658976Y-113304110D01*
X118655669Y-113311591D01*
X118654963Y-113319739D01*
X118654963Y-113319740D01*
X118654018Y-113330648D01*
X118645596Y-113427892D01*
X118647569Y-113435834D01*
X118647569Y-113435836D01*
X118661525Y-113492018D01*
X118673738Y-113541186D01*
X118737061Y-113639256D01*
X118743486Y-113644321D01*
X118743487Y-113644322D01*
X118795614Y-113685415D01*
X118829607Y-113736289D01*
X118829314Y-113791052D01*
X118818219Y-113828840D01*
X118815264Y-113827972D01*
X118814873Y-113829664D01*
X118817014Y-113830239D01*
X118808707Y-113861145D01*
X118808093Y-113863327D01*
X118799744Y-113891763D01*
X118799527Y-113895303D01*
X118798560Y-113898899D01*
X118798355Y-113904498D01*
X118798355Y-113904500D01*
X118797507Y-113927699D01*
X118797388Y-113930137D01*
X118795397Y-113962555D01*
X118792301Y-113962365D01*
X118792008Y-113964283D01*
X118796164Y-113964435D01*
X118794336Y-114014413D01*
X118795372Y-114019865D01*
X118798261Y-114035074D01*
X118800000Y-114053551D01*
X118800000Y-114701000D01*
X118781093Y-114759191D01*
X118731593Y-114795155D01*
X118701000Y-114800000D01*
X104299000Y-114800000D01*
X104240809Y-114781093D01*
X104204845Y-114731593D01*
X104200000Y-114701000D01*
X104200000Y-113250263D01*
X106444603Y-113250263D01*
X106448548Y-113297240D01*
X106460809Y-113443257D01*
X106461840Y-113455538D01*
X106463173Y-113460186D01*
X106463173Y-113460187D01*
X106514521Y-113639256D01*
X106518621Y-113653555D01*
X106612782Y-113836773D01*
X106740737Y-113998212D01*
X106744417Y-114001344D01*
X106744419Y-114001346D01*
X106805760Y-114053551D01*
X106897612Y-114131723D01*
X106901835Y-114134083D01*
X106901839Y-114134086D01*
X106947243Y-114159461D01*
X107077432Y-114232221D01*
X107082030Y-114233715D01*
X107268742Y-114294382D01*
X107268745Y-114294383D01*
X107273347Y-114295878D01*
X107477895Y-114320269D01*
X107482717Y-114319898D01*
X107482720Y-114319898D01*
X107678458Y-114304837D01*
X107678463Y-114304836D01*
X107683286Y-114304465D01*
X107881695Y-114249068D01*
X107912089Y-114233715D01*
X108061244Y-114158371D01*
X108061246Y-114158370D01*
X108065565Y-114156188D01*
X108227893Y-114029363D01*
X108231055Y-114025700D01*
X108231060Y-114025695D01*
X108340341Y-113899091D01*
X108362496Y-113873424D01*
X108369472Y-113861145D01*
X108461858Y-113698517D01*
X108461859Y-113698514D01*
X108464247Y-113694311D01*
X108467207Y-113685415D01*
X108527743Y-113503435D01*
X108527743Y-113503433D01*
X108529270Y-113498844D01*
X108530133Y-113492018D01*
X108551896Y-113319740D01*
X108555088Y-113294471D01*
X108555131Y-113291440D01*
X108555461Y-113267776D01*
X108555500Y-113265000D01*
X108555230Y-113262244D01*
X108554055Y-113250263D01*
X108984603Y-113250263D01*
X108988548Y-113297240D01*
X109000809Y-113443257D01*
X109001840Y-113455538D01*
X109003173Y-113460186D01*
X109003173Y-113460187D01*
X109054521Y-113639256D01*
X109058621Y-113653555D01*
X109152782Y-113836773D01*
X109280737Y-113998212D01*
X109284417Y-114001344D01*
X109284419Y-114001346D01*
X109345760Y-114053551D01*
X109437612Y-114131723D01*
X109441835Y-114134083D01*
X109441839Y-114134086D01*
X109487243Y-114159461D01*
X109617432Y-114232221D01*
X109622030Y-114233715D01*
X109808742Y-114294382D01*
X109808745Y-114294383D01*
X109813347Y-114295878D01*
X110017895Y-114320269D01*
X110022717Y-114319898D01*
X110022720Y-114319898D01*
X110218458Y-114304837D01*
X110218463Y-114304836D01*
X110223286Y-114304465D01*
X110421695Y-114249068D01*
X110452089Y-114233715D01*
X110601244Y-114158371D01*
X110601246Y-114158370D01*
X110605565Y-114156188D01*
X110767893Y-114029363D01*
X110771055Y-114025700D01*
X110771060Y-114025695D01*
X110880341Y-113899091D01*
X110902496Y-113873424D01*
X110909472Y-113861145D01*
X111001858Y-113698517D01*
X111001859Y-113698514D01*
X111004247Y-113694311D01*
X111007207Y-113685415D01*
X111067743Y-113503435D01*
X111067743Y-113503433D01*
X111069270Y-113498844D01*
X111070133Y-113492018D01*
X111091896Y-113319740D01*
X111095088Y-113294471D01*
X111095131Y-113291440D01*
X111095461Y-113267776D01*
X111095500Y-113265000D01*
X111095230Y-113262244D01*
X111094055Y-113250263D01*
X111524603Y-113250263D01*
X111528548Y-113297240D01*
X111540809Y-113443257D01*
X111541840Y-113455538D01*
X111543173Y-113460186D01*
X111543173Y-113460187D01*
X111594521Y-113639256D01*
X111598621Y-113653555D01*
X111692782Y-113836773D01*
X111820737Y-113998212D01*
X111824417Y-114001344D01*
X111824419Y-114001346D01*
X111885760Y-114053551D01*
X111977612Y-114131723D01*
X111981835Y-114134083D01*
X111981839Y-114134086D01*
X112027243Y-114159461D01*
X112157432Y-114232221D01*
X112162030Y-114233715D01*
X112348742Y-114294382D01*
X112348745Y-114294383D01*
X112353347Y-114295878D01*
X112557895Y-114320269D01*
X112562717Y-114319898D01*
X112562720Y-114319898D01*
X112758458Y-114304837D01*
X112758463Y-114304836D01*
X112763286Y-114304465D01*
X112961695Y-114249068D01*
X112992089Y-114233715D01*
X113141244Y-114158371D01*
X113141246Y-114158370D01*
X113145565Y-114156188D01*
X113307893Y-114029363D01*
X113311055Y-114025700D01*
X113311060Y-114025695D01*
X113420341Y-113899091D01*
X113442496Y-113873424D01*
X113449472Y-113861145D01*
X113541858Y-113698517D01*
X113541859Y-113698514D01*
X113544247Y-113694311D01*
X113547207Y-113685415D01*
X113607743Y-113503435D01*
X113607743Y-113503433D01*
X113609270Y-113498844D01*
X113610133Y-113492018D01*
X113631896Y-113319740D01*
X113635088Y-113294471D01*
X113635131Y-113291440D01*
X113635461Y-113267776D01*
X113635500Y-113265000D01*
X113635230Y-113262244D01*
X113634055Y-113250263D01*
X114064603Y-113250263D01*
X114068548Y-113297240D01*
X114080809Y-113443257D01*
X114081840Y-113455538D01*
X114083173Y-113460186D01*
X114083173Y-113460187D01*
X114134521Y-113639256D01*
X114138621Y-113653555D01*
X114232782Y-113836773D01*
X114360737Y-113998212D01*
X114364417Y-114001344D01*
X114364419Y-114001346D01*
X114425760Y-114053551D01*
X114517612Y-114131723D01*
X114521835Y-114134083D01*
X114521839Y-114134086D01*
X114567243Y-114159461D01*
X114697432Y-114232221D01*
X114702030Y-114233715D01*
X114888742Y-114294382D01*
X114888745Y-114294383D01*
X114893347Y-114295878D01*
X115097895Y-114320269D01*
X115102717Y-114319898D01*
X115102720Y-114319898D01*
X115298458Y-114304837D01*
X115298463Y-114304836D01*
X115303286Y-114304465D01*
X115501695Y-114249068D01*
X115532089Y-114233715D01*
X115681244Y-114158371D01*
X115681246Y-114158370D01*
X115685565Y-114156188D01*
X115847893Y-114029363D01*
X115851055Y-114025700D01*
X115851060Y-114025695D01*
X115960341Y-113899091D01*
X115982496Y-113873424D01*
X115989472Y-113861145D01*
X116081858Y-113698517D01*
X116081859Y-113698514D01*
X116084247Y-113694311D01*
X116087207Y-113685415D01*
X116147743Y-113503435D01*
X116147743Y-113503433D01*
X116149270Y-113498844D01*
X116150133Y-113492018D01*
X116171896Y-113319740D01*
X116175088Y-113294471D01*
X116175131Y-113291440D01*
X116175461Y-113267776D01*
X116175500Y-113265000D01*
X116175230Y-113262244D01*
X116155870Y-113064796D01*
X116155869Y-113064792D01*
X116155398Y-113059986D01*
X116152493Y-113050362D01*
X116117132Y-112933243D01*
X116095858Y-112862780D01*
X115999148Y-112680895D01*
X115868952Y-112521259D01*
X115852734Y-112507842D01*
X115713955Y-112393034D01*
X115713953Y-112393033D01*
X115710228Y-112389951D01*
X115529023Y-112291973D01*
X115465952Y-112272449D01*
X115336859Y-112232488D01*
X115336855Y-112232487D01*
X115332238Y-112231058D01*
X115327431Y-112230553D01*
X115327427Y-112230552D01*
X115132185Y-112210032D01*
X115132183Y-112210032D01*
X115127369Y-112209526D01*
X115059372Y-112215714D01*
X114927039Y-112227757D01*
X114927036Y-112227758D01*
X114922219Y-112228196D01*
X114917577Y-112229562D01*
X114917573Y-112229563D01*
X114729250Y-112284989D01*
X114729247Y-112284990D01*
X114724603Y-112286357D01*
X114720309Y-112288602D01*
X114546344Y-112379548D01*
X114546340Y-112379551D01*
X114542047Y-112381795D01*
X114538271Y-112384831D01*
X114538268Y-112384833D01*
X114474744Y-112435908D01*
X114381505Y-112510874D01*
X114308736Y-112597597D01*
X114252202Y-112664971D01*
X114252199Y-112664975D01*
X114249093Y-112668677D01*
X114149853Y-112849194D01*
X114087565Y-113045549D01*
X114064603Y-113250263D01*
X113634055Y-113250263D01*
X113615870Y-113064796D01*
X113615869Y-113064792D01*
X113615398Y-113059986D01*
X113612493Y-113050362D01*
X113577132Y-112933243D01*
X113555858Y-112862780D01*
X113459148Y-112680895D01*
X113328952Y-112521259D01*
X113312734Y-112507842D01*
X113173955Y-112393034D01*
X113173953Y-112393033D01*
X113170228Y-112389951D01*
X112989023Y-112291973D01*
X112925952Y-112272449D01*
X112796859Y-112232488D01*
X112796855Y-112232487D01*
X112792238Y-112231058D01*
X112787431Y-112230553D01*
X112787427Y-112230552D01*
X112592185Y-112210032D01*
X112592183Y-112210032D01*
X112587369Y-112209526D01*
X112519372Y-112215714D01*
X112387039Y-112227757D01*
X112387036Y-112227758D01*
X112382219Y-112228196D01*
X112377577Y-112229562D01*
X112377573Y-112229563D01*
X112189250Y-112284989D01*
X112189247Y-112284990D01*
X112184603Y-112286357D01*
X112180309Y-112288602D01*
X112006344Y-112379548D01*
X112006340Y-112379551D01*
X112002047Y-112381795D01*
X111998271Y-112384831D01*
X111998268Y-112384833D01*
X111934744Y-112435908D01*
X111841505Y-112510874D01*
X111768736Y-112597597D01*
X111712202Y-112664971D01*
X111712199Y-112664975D01*
X111709093Y-112668677D01*
X111609853Y-112849194D01*
X111547565Y-113045549D01*
X111524603Y-113250263D01*
X111094055Y-113250263D01*
X111075870Y-113064796D01*
X111075869Y-113064792D01*
X111075398Y-113059986D01*
X111072493Y-113050362D01*
X111037132Y-112933243D01*
X111015858Y-112862780D01*
X110919148Y-112680895D01*
X110788952Y-112521259D01*
X110772734Y-112507842D01*
X110633955Y-112393034D01*
X110633953Y-112393033D01*
X110630228Y-112389951D01*
X110449023Y-112291973D01*
X110385952Y-112272449D01*
X110256859Y-112232488D01*
X110256855Y-112232487D01*
X110252238Y-112231058D01*
X110247431Y-112230553D01*
X110247427Y-112230552D01*
X110052185Y-112210032D01*
X110052183Y-112210032D01*
X110047369Y-112209526D01*
X109979372Y-112215714D01*
X109847039Y-112227757D01*
X109847036Y-112227758D01*
X109842219Y-112228196D01*
X109837577Y-112229562D01*
X109837573Y-112229563D01*
X109649250Y-112284989D01*
X109649247Y-112284990D01*
X109644603Y-112286357D01*
X109640309Y-112288602D01*
X109466344Y-112379548D01*
X109466340Y-112379551D01*
X109462047Y-112381795D01*
X109458271Y-112384831D01*
X109458268Y-112384833D01*
X109394744Y-112435908D01*
X109301505Y-112510874D01*
X109228736Y-112597597D01*
X109172202Y-112664971D01*
X109172199Y-112664975D01*
X109169093Y-112668677D01*
X109069853Y-112849194D01*
X109007565Y-113045549D01*
X108984603Y-113250263D01*
X108554055Y-113250263D01*
X108535870Y-113064796D01*
X108535869Y-113064792D01*
X108535398Y-113059986D01*
X108532493Y-113050362D01*
X108497132Y-112933243D01*
X108475858Y-112862780D01*
X108379148Y-112680895D01*
X108248952Y-112521259D01*
X108232734Y-112507842D01*
X108093955Y-112393034D01*
X108093953Y-112393033D01*
X108090228Y-112389951D01*
X107909023Y-112291973D01*
X107845952Y-112272449D01*
X107716859Y-112232488D01*
X107716855Y-112232487D01*
X107712238Y-112231058D01*
X107707431Y-112230553D01*
X107707427Y-112230552D01*
X107512185Y-112210032D01*
X107512183Y-112210032D01*
X107507369Y-112209526D01*
X107439372Y-112215714D01*
X107307039Y-112227757D01*
X107307036Y-112227758D01*
X107302219Y-112228196D01*
X107297577Y-112229562D01*
X107297573Y-112229563D01*
X107109250Y-112284989D01*
X107109247Y-112284990D01*
X107104603Y-112286357D01*
X107100309Y-112288602D01*
X106926344Y-112379548D01*
X106926340Y-112379551D01*
X106922047Y-112381795D01*
X106918271Y-112384831D01*
X106918268Y-112384833D01*
X106854744Y-112435908D01*
X106761505Y-112510874D01*
X106688736Y-112597597D01*
X106632202Y-112664971D01*
X106632199Y-112664975D01*
X106629093Y-112668677D01*
X106529853Y-112849194D01*
X106467565Y-113045549D01*
X106444603Y-113250263D01*
X104200000Y-113250263D01*
X104200000Y-111289500D01*
X104218907Y-111231309D01*
X104268407Y-111195345D01*
X104299000Y-111190500D01*
X104833050Y-111190500D01*
X105200500Y-110823050D01*
X105200500Y-110710263D01*
X108984603Y-110710263D01*
X109001840Y-110915538D01*
X109003173Y-110920186D01*
X109003173Y-110920187D01*
X109030400Y-111015136D01*
X109058621Y-111113555D01*
X109152782Y-111296773D01*
X109280737Y-111458212D01*
X109284417Y-111461344D01*
X109284419Y-111461346D01*
X109320843Y-111492345D01*
X109437612Y-111591723D01*
X109441835Y-111594083D01*
X109441839Y-111594086D01*
X109493058Y-111622711D01*
X109617432Y-111692221D01*
X109622030Y-111693715D01*
X109808742Y-111754382D01*
X109808745Y-111754383D01*
X109813347Y-111755878D01*
X110017895Y-111780269D01*
X110022717Y-111779898D01*
X110022720Y-111779898D01*
X110218458Y-111764837D01*
X110218463Y-111764836D01*
X110223286Y-111764465D01*
X110421695Y-111709068D01*
X110452633Y-111693440D01*
X110601244Y-111618371D01*
X110601246Y-111618370D01*
X110605565Y-111616188D01*
X110767893Y-111489363D01*
X110771055Y-111485700D01*
X110771060Y-111485695D01*
X110899332Y-111337089D01*
X110902496Y-111333424D01*
X110925766Y-111292463D01*
X111001858Y-111158517D01*
X111001859Y-111158514D01*
X111004247Y-111154311D01*
X111019355Y-111108897D01*
X111067743Y-110963435D01*
X111067743Y-110963433D01*
X111069270Y-110958844D01*
X111074154Y-110920187D01*
X111094740Y-110757225D01*
X111095088Y-110754471D01*
X111095500Y-110725000D01*
X111094055Y-110710263D01*
X111524603Y-110710263D01*
X111541840Y-110915538D01*
X111543173Y-110920186D01*
X111543173Y-110920187D01*
X111570400Y-111015136D01*
X111598621Y-111113555D01*
X111692782Y-111296773D01*
X111820737Y-111458212D01*
X111824417Y-111461344D01*
X111824419Y-111461346D01*
X111860843Y-111492345D01*
X111977612Y-111591723D01*
X111981835Y-111594083D01*
X111981839Y-111594086D01*
X112033058Y-111622711D01*
X112157432Y-111692221D01*
X112162030Y-111693715D01*
X112348742Y-111754382D01*
X112348745Y-111754383D01*
X112353347Y-111755878D01*
X112557895Y-111780269D01*
X112562717Y-111779898D01*
X112562720Y-111779898D01*
X112758458Y-111764837D01*
X112758463Y-111764836D01*
X112763286Y-111764465D01*
X112961695Y-111709068D01*
X112992633Y-111693440D01*
X113141244Y-111618371D01*
X113141246Y-111618370D01*
X113145565Y-111616188D01*
X113307893Y-111489363D01*
X113311055Y-111485700D01*
X113311060Y-111485695D01*
X113439332Y-111337089D01*
X113442496Y-111333424D01*
X113465766Y-111292463D01*
X113541858Y-111158517D01*
X113541859Y-111158514D01*
X113544247Y-111154311D01*
X113559355Y-111108897D01*
X113607743Y-110963435D01*
X113607743Y-110963433D01*
X113609270Y-110958844D01*
X113614154Y-110920187D01*
X113634740Y-110757225D01*
X113635088Y-110754471D01*
X113635500Y-110725000D01*
X113634055Y-110710263D01*
X114064603Y-110710263D01*
X114081840Y-110915538D01*
X114083173Y-110920186D01*
X114083173Y-110920187D01*
X114110400Y-111015136D01*
X114138621Y-111113555D01*
X114232782Y-111296773D01*
X114360737Y-111458212D01*
X114364417Y-111461344D01*
X114364419Y-111461346D01*
X114400843Y-111492345D01*
X114517612Y-111591723D01*
X114521835Y-111594083D01*
X114521839Y-111594086D01*
X114573058Y-111622711D01*
X114697432Y-111692221D01*
X114702030Y-111693715D01*
X114888742Y-111754382D01*
X114888745Y-111754383D01*
X114893347Y-111755878D01*
X115097895Y-111780269D01*
X115102717Y-111779898D01*
X115102720Y-111779898D01*
X115298458Y-111764837D01*
X115298463Y-111764836D01*
X115303286Y-111764465D01*
X115501695Y-111709068D01*
X115532633Y-111693440D01*
X115681244Y-111618371D01*
X115681246Y-111618370D01*
X115685565Y-111616188D01*
X115847893Y-111489363D01*
X115851055Y-111485700D01*
X115851060Y-111485695D01*
X115979332Y-111337089D01*
X115982496Y-111333424D01*
X116005766Y-111292463D01*
X116081858Y-111158517D01*
X116081859Y-111158514D01*
X116084247Y-111154311D01*
X116099355Y-111108897D01*
X116147743Y-110963435D01*
X116147743Y-110963433D01*
X116149270Y-110958844D01*
X116154154Y-110920187D01*
X116174740Y-110757225D01*
X116175088Y-110754471D01*
X116175127Y-110751696D01*
X116175319Y-110748948D01*
X116176542Y-110749034D01*
X116194841Y-110695336D01*
X116244849Y-110660082D01*
X116306028Y-110660956D01*
X116334358Y-110676119D01*
X116397250Y-110724378D01*
X116543285Y-110784868D01*
X116700000Y-110805500D01*
X116856715Y-110784868D01*
X117002750Y-110724378D01*
X117128153Y-110628153D01*
X117224378Y-110502750D01*
X117284868Y-110356715D01*
X117305500Y-110200000D01*
X117284868Y-110043285D01*
X117224378Y-109897250D01*
X117128153Y-109771847D01*
X117002750Y-109675622D01*
X116856715Y-109615132D01*
X116700000Y-109594500D01*
X116543285Y-109615132D01*
X116397250Y-109675622D01*
X116271847Y-109771847D01*
X116175622Y-109897250D01*
X116115132Y-110043285D01*
X116114157Y-110042881D01*
X116084166Y-110089056D01*
X116027043Y-110110980D01*
X115967944Y-110095140D01*
X115945153Y-110074690D01*
X115868952Y-109981259D01*
X115846095Y-109962350D01*
X115713955Y-109853034D01*
X115713953Y-109853033D01*
X115710228Y-109849951D01*
X115558466Y-109767893D01*
X115533277Y-109754273D01*
X115533276Y-109754272D01*
X115529023Y-109751973D01*
X115465952Y-109732449D01*
X115336859Y-109692488D01*
X115336855Y-109692487D01*
X115332238Y-109691058D01*
X115327431Y-109690553D01*
X115327427Y-109690552D01*
X115132185Y-109670032D01*
X115132183Y-109670032D01*
X115127369Y-109669526D01*
X115087669Y-109673139D01*
X114927039Y-109687757D01*
X114927036Y-109687758D01*
X114922219Y-109688196D01*
X114917577Y-109689562D01*
X114917573Y-109689563D01*
X114729250Y-109744989D01*
X114729247Y-109744990D01*
X114724603Y-109746357D01*
X114684593Y-109767274D01*
X114546344Y-109839548D01*
X114546340Y-109839551D01*
X114542047Y-109841795D01*
X114538271Y-109844831D01*
X114538268Y-109844833D01*
X114457285Y-109909945D01*
X114381505Y-109970874D01*
X114369648Y-109985005D01*
X114252202Y-110124971D01*
X114252199Y-110124975D01*
X114249093Y-110128677D01*
X114149853Y-110309194D01*
X114087565Y-110505549D01*
X114087025Y-110510361D01*
X114087025Y-110510362D01*
X114070134Y-110660956D01*
X114064603Y-110710263D01*
X113634055Y-110710263D01*
X113633584Y-110705455D01*
X113615870Y-110524796D01*
X113615869Y-110524792D01*
X113615398Y-110519986D01*
X113612493Y-110510362D01*
X113567914Y-110362712D01*
X113555858Y-110322780D01*
X113459148Y-110140895D01*
X113328952Y-109981259D01*
X113306095Y-109962350D01*
X113173955Y-109853034D01*
X113173953Y-109853033D01*
X113170228Y-109849951D01*
X113018466Y-109767893D01*
X112993277Y-109754273D01*
X112993276Y-109754272D01*
X112989023Y-109751973D01*
X112925952Y-109732449D01*
X112796859Y-109692488D01*
X112796855Y-109692487D01*
X112792238Y-109691058D01*
X112787431Y-109690553D01*
X112787427Y-109690552D01*
X112592185Y-109670032D01*
X112592183Y-109670032D01*
X112587369Y-109669526D01*
X112547669Y-109673139D01*
X112387039Y-109687757D01*
X112387036Y-109687758D01*
X112382219Y-109688196D01*
X112377577Y-109689562D01*
X112377573Y-109689563D01*
X112189250Y-109744989D01*
X112189247Y-109744990D01*
X112184603Y-109746357D01*
X112144593Y-109767274D01*
X112006344Y-109839548D01*
X112006340Y-109839551D01*
X112002047Y-109841795D01*
X111998271Y-109844831D01*
X111998268Y-109844833D01*
X111917285Y-109909945D01*
X111841505Y-109970874D01*
X111829648Y-109985005D01*
X111712202Y-110124971D01*
X111712199Y-110124975D01*
X111709093Y-110128677D01*
X111609853Y-110309194D01*
X111547565Y-110505549D01*
X111547025Y-110510361D01*
X111547025Y-110510362D01*
X111530134Y-110660956D01*
X111524603Y-110710263D01*
X111094055Y-110710263D01*
X111093584Y-110705455D01*
X111075870Y-110524796D01*
X111075869Y-110524792D01*
X111075398Y-110519986D01*
X111072493Y-110510362D01*
X111027914Y-110362712D01*
X111015858Y-110322780D01*
X110919148Y-110140895D01*
X110788952Y-109981259D01*
X110766095Y-109962350D01*
X110633955Y-109853034D01*
X110633953Y-109853033D01*
X110630228Y-109849951D01*
X110478466Y-109767893D01*
X110453277Y-109754273D01*
X110453276Y-109754272D01*
X110449023Y-109751973D01*
X110385952Y-109732449D01*
X110256859Y-109692488D01*
X110256855Y-109692487D01*
X110252238Y-109691058D01*
X110247431Y-109690553D01*
X110247427Y-109690552D01*
X110052185Y-109670032D01*
X110052183Y-109670032D01*
X110047369Y-109669526D01*
X110007669Y-109673139D01*
X109847039Y-109687757D01*
X109847036Y-109687758D01*
X109842219Y-109688196D01*
X109837577Y-109689562D01*
X109837573Y-109689563D01*
X109649250Y-109744989D01*
X109649247Y-109744990D01*
X109644603Y-109746357D01*
X109604593Y-109767274D01*
X109466344Y-109839548D01*
X109466340Y-109839551D01*
X109462047Y-109841795D01*
X109458271Y-109844831D01*
X109458268Y-109844833D01*
X109377285Y-109909945D01*
X109301505Y-109970874D01*
X109289648Y-109985005D01*
X109172202Y-110124971D01*
X109172199Y-110124975D01*
X109169093Y-110128677D01*
X109069853Y-110309194D01*
X109007565Y-110505549D01*
X109007025Y-110510361D01*
X109007025Y-110510362D01*
X108990134Y-110660956D01*
X108984603Y-110710263D01*
X105200500Y-110710263D01*
X105200500Y-110156950D01*
X104968554Y-109925004D01*
X104940777Y-109870487D01*
X104950348Y-109810055D01*
X104968554Y-109784996D01*
X105200500Y-109553050D01*
X105200500Y-109142578D01*
X107137079Y-109142578D01*
X107156926Y-109267884D01*
X107214523Y-109380925D01*
X107304232Y-109470634D01*
X107311169Y-109474169D01*
X107311171Y-109474170D01*
X107410333Y-109524695D01*
X107417273Y-109528231D01*
X107424967Y-109529450D01*
X107424968Y-109529450D01*
X107534883Y-109546859D01*
X107542579Y-109548078D01*
X107550275Y-109546859D01*
X107660190Y-109529450D01*
X107660191Y-109529450D01*
X107667885Y-109528231D01*
X107674825Y-109524695D01*
X107773987Y-109474170D01*
X107773989Y-109474169D01*
X107780926Y-109470634D01*
X107870635Y-109380925D01*
X107928232Y-109267884D01*
X107948079Y-109142578D01*
X107930604Y-109032246D01*
X107929451Y-109024967D01*
X107929451Y-109024966D01*
X107928232Y-109017272D01*
X107870635Y-108904231D01*
X107866404Y-108900000D01*
X112994500Y-108900000D01*
X112995719Y-108907696D01*
X113013075Y-109017272D01*
X113014347Y-109025306D01*
X113071944Y-109138347D01*
X113161653Y-109228056D01*
X113168590Y-109231591D01*
X113168592Y-109231592D01*
X113239820Y-109267884D01*
X113274694Y-109285653D01*
X113282388Y-109286872D01*
X113282389Y-109286872D01*
X113392304Y-109304281D01*
X113400000Y-109305500D01*
X113407696Y-109304281D01*
X113517611Y-109286872D01*
X113517612Y-109286872D01*
X113525306Y-109285653D01*
X113560180Y-109267884D01*
X113631408Y-109231592D01*
X113631410Y-109231591D01*
X113638347Y-109228056D01*
X113728056Y-109138347D01*
X113785653Y-109025306D01*
X113786926Y-109017272D01*
X113804281Y-108907696D01*
X113805500Y-108900000D01*
X113785653Y-108774694D01*
X113728056Y-108661653D01*
X113638347Y-108571944D01*
X113631410Y-108568409D01*
X113631408Y-108568408D01*
X113532246Y-108517883D01*
X113525306Y-108514347D01*
X113517612Y-108513128D01*
X113517611Y-108513128D01*
X113407696Y-108495719D01*
X113400000Y-108494500D01*
X113392304Y-108495719D01*
X113282389Y-108513128D01*
X113282388Y-108513128D01*
X113274694Y-108514347D01*
X113267754Y-108517883D01*
X113168592Y-108568408D01*
X113168590Y-108568409D01*
X113161653Y-108571944D01*
X113071944Y-108661653D01*
X113014347Y-108774694D01*
X112994500Y-108900000D01*
X107866404Y-108900000D01*
X107780926Y-108814522D01*
X107773989Y-108810987D01*
X107773987Y-108810986D01*
X107674825Y-108760461D01*
X107667885Y-108756925D01*
X107660191Y-108755706D01*
X107660190Y-108755706D01*
X107550275Y-108738297D01*
X107542579Y-108737078D01*
X107534883Y-108738297D01*
X107424968Y-108755706D01*
X107424967Y-108755706D01*
X107417273Y-108756925D01*
X107410333Y-108760461D01*
X107311171Y-108810986D01*
X107311169Y-108810987D01*
X107304232Y-108814522D01*
X107214523Y-108904231D01*
X107156926Y-109017272D01*
X107155707Y-109024966D01*
X107155707Y-109024967D01*
X107154554Y-109032246D01*
X107137079Y-109142578D01*
X105200500Y-109142578D01*
X105200500Y-108886950D01*
X104968554Y-108655004D01*
X104940777Y-108600487D01*
X104950348Y-108540055D01*
X104968554Y-108514996D01*
X105200500Y-108283050D01*
X105200500Y-108169740D01*
X106664240Y-108169740D01*
X106665459Y-108177436D01*
X106680497Y-108272378D01*
X106684087Y-108295046D01*
X106741684Y-108408087D01*
X106831393Y-108497796D01*
X106838330Y-108501331D01*
X106838332Y-108501332D01*
X106937494Y-108551857D01*
X106944434Y-108555393D01*
X106952128Y-108556612D01*
X106952129Y-108556612D01*
X107062044Y-108574021D01*
X107069740Y-108575240D01*
X107077436Y-108574021D01*
X107187351Y-108556612D01*
X107187352Y-108556612D01*
X107195046Y-108555393D01*
X107201986Y-108551857D01*
X107301148Y-108501332D01*
X107301150Y-108501331D01*
X107308087Y-108497796D01*
X107397796Y-108408087D01*
X107455393Y-108295046D01*
X107458984Y-108272378D01*
X107474021Y-108177436D01*
X107475240Y-108169740D01*
X107466261Y-108113050D01*
X107456612Y-108052129D01*
X107456612Y-108052128D01*
X107455393Y-108044434D01*
X107397796Y-107931393D01*
X107308087Y-107841684D01*
X107301150Y-107838149D01*
X107301148Y-107838148D01*
X107201986Y-107787623D01*
X107195046Y-107784087D01*
X107187352Y-107782868D01*
X107187351Y-107782868D01*
X107077436Y-107765459D01*
X107069740Y-107764240D01*
X107062044Y-107765459D01*
X106952129Y-107782868D01*
X106952128Y-107782868D01*
X106944434Y-107784087D01*
X106937494Y-107787623D01*
X106838332Y-107838148D01*
X106838330Y-107838149D01*
X106831393Y-107841684D01*
X106741684Y-107931393D01*
X106684087Y-108044434D01*
X106682868Y-108052128D01*
X106682868Y-108052129D01*
X106673219Y-108113050D01*
X106664240Y-108169740D01*
X105200500Y-108169740D01*
X105200500Y-107616950D01*
X104968554Y-107385004D01*
X104940777Y-107330487D01*
X104950348Y-107270055D01*
X104968554Y-107244996D01*
X105200500Y-107013050D01*
X105200500Y-106346950D01*
X104968554Y-106115004D01*
X104940777Y-106060487D01*
X104950348Y-106000055D01*
X104968554Y-105974996D01*
X105200500Y-105743050D01*
X105200500Y-105076950D01*
X104968554Y-104845004D01*
X104940777Y-104790487D01*
X104950348Y-104730055D01*
X104968554Y-104704996D01*
X105200500Y-104473050D01*
X105200500Y-104400000D01*
X106694500Y-104400000D01*
X106695719Y-104407696D01*
X106704376Y-104462350D01*
X106714347Y-104525306D01*
X106771944Y-104638347D01*
X106861653Y-104728056D01*
X106868590Y-104731591D01*
X106868592Y-104731592D01*
X106883997Y-104739441D01*
X106974694Y-104785653D01*
X106982388Y-104786872D01*
X106982389Y-104786872D01*
X107092304Y-104804281D01*
X107100000Y-104805500D01*
X107107696Y-104804281D01*
X107217611Y-104786872D01*
X107217612Y-104786872D01*
X107225306Y-104785653D01*
X107316003Y-104739441D01*
X107331408Y-104731592D01*
X107331410Y-104731591D01*
X107338347Y-104728056D01*
X107428056Y-104638347D01*
X107485653Y-104525306D01*
X107495625Y-104462350D01*
X107504281Y-104407696D01*
X107505500Y-104400000D01*
X107485653Y-104274694D01*
X107482117Y-104267754D01*
X107431592Y-104168592D01*
X107431591Y-104168590D01*
X107428056Y-104161653D01*
X107338347Y-104071944D01*
X107331410Y-104068409D01*
X107331408Y-104068408D01*
X107232246Y-104017883D01*
X107225306Y-104014347D01*
X107217612Y-104013128D01*
X107217611Y-104013128D01*
X107107696Y-103995719D01*
X107100000Y-103994500D01*
X107092304Y-103995719D01*
X106982389Y-104013128D01*
X106982388Y-104013128D01*
X106974694Y-104014347D01*
X106967754Y-104017883D01*
X106868592Y-104068408D01*
X106868590Y-104068409D01*
X106861653Y-104071944D01*
X106771944Y-104161653D01*
X106768409Y-104168590D01*
X106768408Y-104168592D01*
X106717883Y-104267754D01*
X106714347Y-104274694D01*
X106694500Y-104400000D01*
X105200500Y-104400000D01*
X105200500Y-103806950D01*
X104968554Y-103575004D01*
X104940777Y-103520487D01*
X104950348Y-103460055D01*
X104968554Y-103434996D01*
X105189253Y-103214297D01*
X116058797Y-103214297D01*
X116078644Y-103339603D01*
X116082180Y-103346543D01*
X116097509Y-103376627D01*
X116136241Y-103452644D01*
X116225950Y-103542353D01*
X116232887Y-103545888D01*
X116232889Y-103545889D01*
X116269306Y-103564444D01*
X116338991Y-103599950D01*
X116346685Y-103601169D01*
X116346686Y-103601169D01*
X116456601Y-103618578D01*
X116464297Y-103619797D01*
X116471993Y-103618578D01*
X116581908Y-103601169D01*
X116581909Y-103601169D01*
X116589603Y-103599950D01*
X116659288Y-103564444D01*
X116695705Y-103545889D01*
X116695707Y-103545888D01*
X116702644Y-103542353D01*
X116708150Y-103536847D01*
X116708154Y-103536844D01*
X116754315Y-103490684D01*
X116808832Y-103462907D01*
X116869264Y-103472479D01*
X116894322Y-103490684D01*
X116973588Y-103569950D01*
X116980525Y-103573485D01*
X116980527Y-103573486D01*
X117079689Y-103624011D01*
X117086629Y-103627547D01*
X117094323Y-103628766D01*
X117094324Y-103628766D01*
X117204239Y-103646175D01*
X117211935Y-103647394D01*
X117219631Y-103646175D01*
X117329546Y-103628766D01*
X117329547Y-103628766D01*
X117337241Y-103627547D01*
X117344181Y-103624011D01*
X117443343Y-103573486D01*
X117443345Y-103573485D01*
X117450282Y-103569950D01*
X117539991Y-103480241D01*
X117550277Y-103460055D01*
X117594052Y-103374140D01*
X117597588Y-103367200D01*
X117617435Y-103241894D01*
X117597588Y-103116588D01*
X117594052Y-103109648D01*
X117543527Y-103010486D01*
X117543526Y-103010484D01*
X117539991Y-103003547D01*
X117450282Y-102913838D01*
X117443345Y-102910303D01*
X117443343Y-102910302D01*
X117344181Y-102859777D01*
X117337241Y-102856241D01*
X117329547Y-102855022D01*
X117329546Y-102855022D01*
X117219631Y-102837613D01*
X117211935Y-102836394D01*
X117204239Y-102837613D01*
X117094324Y-102855022D01*
X117094323Y-102855022D01*
X117086629Y-102856241D01*
X117079689Y-102859777D01*
X116980527Y-102910302D01*
X116980525Y-102910303D01*
X116973588Y-102913838D01*
X116968082Y-102919344D01*
X116968078Y-102919347D01*
X116921919Y-102965507D01*
X116867403Y-102993285D01*
X116806971Y-102983714D01*
X116781911Y-102965508D01*
X116702644Y-102886241D01*
X116695707Y-102882706D01*
X116695705Y-102882705D01*
X116596543Y-102832180D01*
X116589603Y-102828644D01*
X116581909Y-102827425D01*
X116581908Y-102827425D01*
X116471993Y-102810016D01*
X116464297Y-102808797D01*
X116456601Y-102810016D01*
X116346686Y-102827425D01*
X116346685Y-102827425D01*
X116338991Y-102828644D01*
X116332051Y-102832180D01*
X116232889Y-102882705D01*
X116232887Y-102882706D01*
X116225950Y-102886241D01*
X116136241Y-102975950D01*
X116132706Y-102982887D01*
X116132705Y-102982889D01*
X116118644Y-103010486D01*
X116078644Y-103088991D01*
X116058797Y-103214297D01*
X105189253Y-103214297D01*
X105200500Y-103203050D01*
X105200500Y-102536950D01*
X104968554Y-102305004D01*
X104940777Y-102250487D01*
X104950348Y-102190055D01*
X104968554Y-102164996D01*
X105200500Y-101933050D01*
X105200500Y-101266950D01*
X105183550Y-101250000D01*
X115344500Y-101250000D01*
X115364347Y-101375306D01*
X115367883Y-101382246D01*
X115397928Y-101441212D01*
X115421944Y-101488347D01*
X115511653Y-101578056D01*
X115518590Y-101581591D01*
X115518592Y-101581592D01*
X115600434Y-101623292D01*
X115624694Y-101635653D01*
X115632388Y-101636872D01*
X115632389Y-101636872D01*
X115722037Y-101651071D01*
X115733882Y-101652947D01*
X115742304Y-101654281D01*
X115750000Y-101655500D01*
X115757696Y-101654281D01*
X115766119Y-101652947D01*
X115777963Y-101651071D01*
X115867611Y-101636872D01*
X115867612Y-101636872D01*
X115875306Y-101635653D01*
X115882246Y-101632117D01*
X115889660Y-101629708D01*
X115890200Y-101631371D01*
X115941216Y-101623292D01*
X115995732Y-101651071D01*
X116023509Y-101705588D01*
X116015429Y-101756600D01*
X116017092Y-101757140D01*
X116014683Y-101764554D01*
X116011147Y-101771494D01*
X115991300Y-101896800D01*
X116011147Y-102022106D01*
X116014683Y-102029046D01*
X116064910Y-102127622D01*
X116068744Y-102135147D01*
X116158453Y-102224856D01*
X116165390Y-102228391D01*
X116165392Y-102228392D01*
X116264554Y-102278917D01*
X116271494Y-102282453D01*
X116279188Y-102283672D01*
X116279189Y-102283672D01*
X116389104Y-102301081D01*
X116396800Y-102302300D01*
X116404496Y-102301081D01*
X116514411Y-102283672D01*
X116514412Y-102283672D01*
X116522106Y-102282453D01*
X116529046Y-102278917D01*
X116628208Y-102228392D01*
X116628210Y-102228391D01*
X116635147Y-102224856D01*
X116724856Y-102135147D01*
X116728691Y-102127622D01*
X116778917Y-102029046D01*
X116782453Y-102022106D01*
X116802300Y-101896800D01*
X116782453Y-101771494D01*
X116749923Y-101707650D01*
X116728392Y-101665392D01*
X116728391Y-101665390D01*
X116724856Y-101658453D01*
X116635147Y-101568744D01*
X116628210Y-101565209D01*
X116628208Y-101565208D01*
X116529046Y-101514683D01*
X116522106Y-101511147D01*
X116514412Y-101509928D01*
X116514411Y-101509928D01*
X116424098Y-101495624D01*
X116396800Y-101491300D01*
X116369502Y-101495624D01*
X116279189Y-101509928D01*
X116279188Y-101509928D01*
X116271494Y-101511147D01*
X116264554Y-101514683D01*
X116257140Y-101517092D01*
X116256600Y-101515429D01*
X116205584Y-101523508D01*
X116151068Y-101495729D01*
X116123291Y-101441212D01*
X116131371Y-101390200D01*
X116129708Y-101389660D01*
X116132117Y-101382246D01*
X116135653Y-101375306D01*
X116155500Y-101250000D01*
X116135653Y-101124694D01*
X116132117Y-101117754D01*
X116081592Y-101018592D01*
X116081591Y-101018590D01*
X116078056Y-101011653D01*
X115988347Y-100921944D01*
X115981410Y-100918409D01*
X115981408Y-100918408D01*
X115882246Y-100867883D01*
X115875306Y-100864347D01*
X115867612Y-100863128D01*
X115867611Y-100863128D01*
X115757696Y-100845719D01*
X115750000Y-100844500D01*
X115742304Y-100845719D01*
X115632389Y-100863128D01*
X115632388Y-100863128D01*
X115624694Y-100864347D01*
X115617754Y-100867883D01*
X115518592Y-100918408D01*
X115518590Y-100918409D01*
X115511653Y-100921944D01*
X115421944Y-101011653D01*
X115418409Y-101018590D01*
X115418408Y-101018592D01*
X115367883Y-101117754D01*
X115364347Y-101124694D01*
X115344500Y-101250000D01*
X105183550Y-101250000D01*
X104968554Y-101035004D01*
X104940777Y-100980487D01*
X104950348Y-100920055D01*
X104968554Y-100894996D01*
X105200500Y-100663050D01*
X105200500Y-99996950D01*
X104968554Y-99765004D01*
X104940777Y-99710487D01*
X104950348Y-99650055D01*
X104968554Y-99624996D01*
X105093550Y-99500000D01*
X114344500Y-99500000D01*
X114345719Y-99507696D01*
X114357985Y-99585136D01*
X114364347Y-99625306D01*
X114367883Y-99632246D01*
X114411245Y-99717348D01*
X114421944Y-99738347D01*
X114511653Y-99828056D01*
X114518590Y-99831591D01*
X114518592Y-99831592D01*
X114612298Y-99879337D01*
X114624694Y-99885653D01*
X114632388Y-99886872D01*
X114632389Y-99886872D01*
X114742304Y-99904281D01*
X114750000Y-99905500D01*
X114757696Y-99904281D01*
X114867611Y-99886872D01*
X114867612Y-99886872D01*
X114875306Y-99885653D01*
X114887702Y-99879337D01*
X114981408Y-99831592D01*
X114981410Y-99831591D01*
X114988347Y-99828056D01*
X115078056Y-99738347D01*
X115088756Y-99717348D01*
X115132117Y-99632246D01*
X115135653Y-99625306D01*
X115142016Y-99585136D01*
X115154281Y-99507696D01*
X115155500Y-99500000D01*
X115140316Y-99404136D01*
X115136872Y-99382389D01*
X115136872Y-99382388D01*
X115135653Y-99374694D01*
X115103501Y-99311591D01*
X115081592Y-99268592D01*
X115081591Y-99268590D01*
X115078056Y-99261653D01*
X114988347Y-99171944D01*
X114981410Y-99168409D01*
X114981408Y-99168408D01*
X114882246Y-99117883D01*
X114875306Y-99114347D01*
X114867612Y-99113128D01*
X114867611Y-99113128D01*
X114757696Y-99095719D01*
X114750000Y-99094500D01*
X114742304Y-99095719D01*
X114632389Y-99113128D01*
X114632388Y-99113128D01*
X114624694Y-99114347D01*
X114617754Y-99117883D01*
X114518592Y-99168408D01*
X114518590Y-99168409D01*
X114511653Y-99171944D01*
X114421944Y-99261653D01*
X114418409Y-99268590D01*
X114418408Y-99268592D01*
X114396499Y-99311591D01*
X114364347Y-99374694D01*
X114363128Y-99382388D01*
X114363128Y-99382389D01*
X114359684Y-99404136D01*
X114344500Y-99500000D01*
X105093550Y-99500000D01*
X105200500Y-99393050D01*
X105200500Y-98858724D01*
X109263298Y-98858724D01*
X109264517Y-98866420D01*
X109275771Y-98937471D01*
X109283145Y-98984030D01*
X109286681Y-98990970D01*
X109332503Y-99080900D01*
X109340742Y-99097071D01*
X109430451Y-99186780D01*
X109437388Y-99190315D01*
X109437390Y-99190316D01*
X109536552Y-99240841D01*
X109543492Y-99244377D01*
X109551186Y-99245596D01*
X109551187Y-99245596D01*
X109661102Y-99263005D01*
X109668798Y-99264224D01*
X109676494Y-99263005D01*
X109786409Y-99245596D01*
X109786410Y-99245596D01*
X109794104Y-99244377D01*
X109801044Y-99240841D01*
X109900206Y-99190316D01*
X109900208Y-99190315D01*
X109907145Y-99186780D01*
X109996854Y-99097071D01*
X110005094Y-99080900D01*
X110050915Y-98990970D01*
X110054451Y-98984030D01*
X110061826Y-98937471D01*
X110073924Y-98861085D01*
X110101702Y-98806568D01*
X110156218Y-98778791D01*
X110160143Y-98778482D01*
X110162095Y-98778791D01*
X110242011Y-98766133D01*
X110279706Y-98760163D01*
X110279707Y-98760163D01*
X110287401Y-98758944D01*
X110302647Y-98751176D01*
X110310206Y-98747325D01*
X110370638Y-98737755D01*
X110425154Y-98765534D01*
X110443359Y-98790591D01*
X110474873Y-98852441D01*
X110480873Y-98864217D01*
X110570582Y-98953926D01*
X110577519Y-98957461D01*
X110577521Y-98957462D01*
X110668709Y-99003924D01*
X110683623Y-99011523D01*
X110691317Y-99012742D01*
X110691318Y-99012742D01*
X110801233Y-99030151D01*
X110808929Y-99031370D01*
X110816625Y-99030151D01*
X110926540Y-99012742D01*
X110926541Y-99012742D01*
X110934235Y-99011523D01*
X110949149Y-99003924D01*
X111040337Y-98957462D01*
X111040339Y-98957461D01*
X111047276Y-98953926D01*
X111052782Y-98948420D01*
X111059090Y-98943837D01*
X111060155Y-98945303D01*
X111105994Y-98921948D01*
X111166426Y-98931519D01*
X111168774Y-98932958D01*
X111169751Y-98933935D01*
X111173412Y-98935800D01*
X111173413Y-98935801D01*
X111252966Y-98976335D01*
X111282792Y-98991532D01*
X111290486Y-98992751D01*
X111290487Y-98992751D01*
X111400402Y-99010160D01*
X111408098Y-99011379D01*
X111415794Y-99010160D01*
X111525709Y-98992751D01*
X111525710Y-98992751D01*
X111533404Y-98991532D01*
X111563230Y-98976335D01*
X111639506Y-98937471D01*
X111639508Y-98937470D01*
X111646445Y-98933935D01*
X111651950Y-98928430D01*
X111651957Y-98928425D01*
X111657214Y-98923168D01*
X111711732Y-98895393D01*
X111772163Y-98904967D01*
X111797218Y-98923171D01*
X111819155Y-98945108D01*
X111826092Y-98948643D01*
X111826094Y-98948644D01*
X111912660Y-98992751D01*
X111932196Y-99002705D01*
X111939890Y-99003924D01*
X111939891Y-99003924D01*
X112049806Y-99021333D01*
X112057502Y-99022552D01*
X112065198Y-99021333D01*
X112175113Y-99003924D01*
X112175114Y-99003924D01*
X112182808Y-99002705D01*
X112202344Y-98992751D01*
X112288910Y-98948644D01*
X112288912Y-98948643D01*
X112295849Y-98945108D01*
X112305023Y-98935934D01*
X112359540Y-98908157D01*
X112419972Y-98917728D01*
X112445031Y-98935934D01*
X112462153Y-98953056D01*
X112469090Y-98956591D01*
X112469092Y-98956592D01*
X112568254Y-99007117D01*
X112575194Y-99010653D01*
X112582888Y-99011872D01*
X112582889Y-99011872D01*
X112692804Y-99029281D01*
X112700500Y-99030500D01*
X112708196Y-99029281D01*
X112818111Y-99011872D01*
X112818112Y-99011872D01*
X112825806Y-99010653D01*
X112832746Y-99007117D01*
X112931908Y-98956592D01*
X112931910Y-98956591D01*
X112938847Y-98953056D01*
X113028556Y-98863347D01*
X113042574Y-98835836D01*
X113082617Y-98757246D01*
X113086153Y-98750306D01*
X113106000Y-98625000D01*
X113089227Y-98519100D01*
X113087372Y-98507389D01*
X113087372Y-98507388D01*
X113086153Y-98499694D01*
X113070841Y-98469643D01*
X113032092Y-98393592D01*
X113032091Y-98393590D01*
X113028556Y-98386653D01*
X112938847Y-98296944D01*
X112931910Y-98293409D01*
X112931908Y-98293408D01*
X112832746Y-98242883D01*
X112825806Y-98239347D01*
X112818112Y-98238128D01*
X112818111Y-98238128D01*
X112708196Y-98220719D01*
X112700500Y-98219500D01*
X112692804Y-98220719D01*
X112582889Y-98238128D01*
X112582888Y-98238128D01*
X112575194Y-98239347D01*
X112568254Y-98242883D01*
X112469092Y-98293408D01*
X112469090Y-98293409D01*
X112462153Y-98296944D01*
X112452979Y-98306118D01*
X112398462Y-98333895D01*
X112338030Y-98324324D01*
X112312971Y-98306118D01*
X112295849Y-98288996D01*
X112288912Y-98285461D01*
X112288910Y-98285460D01*
X112189748Y-98234935D01*
X112182808Y-98231399D01*
X112175114Y-98230180D01*
X112175113Y-98230180D01*
X112065198Y-98212771D01*
X112057502Y-98211552D01*
X112049806Y-98212771D01*
X111939891Y-98230180D01*
X111939890Y-98230180D01*
X111932196Y-98231399D01*
X111925256Y-98234935D01*
X111826094Y-98285460D01*
X111826092Y-98285461D01*
X111819155Y-98288996D01*
X111808394Y-98299757D01*
X111753879Y-98327537D01*
X111693446Y-98317969D01*
X111668383Y-98299761D01*
X111646445Y-98277823D01*
X111639508Y-98274288D01*
X111639506Y-98274287D01*
X111540344Y-98223762D01*
X111533404Y-98220226D01*
X111525710Y-98219007D01*
X111525709Y-98219007D01*
X111415794Y-98201598D01*
X111408098Y-98200379D01*
X111400402Y-98201598D01*
X111290487Y-98219007D01*
X111290486Y-98219007D01*
X111282792Y-98220226D01*
X111275852Y-98223762D01*
X111176690Y-98274287D01*
X111176688Y-98274288D01*
X111169751Y-98277823D01*
X111164245Y-98283329D01*
X111157937Y-98287912D01*
X111156872Y-98286446D01*
X111111033Y-98309801D01*
X111050601Y-98300230D01*
X111048253Y-98298791D01*
X111047276Y-98297814D01*
X111040272Y-98294245D01*
X110941175Y-98243753D01*
X110934235Y-98240217D01*
X110926541Y-98238998D01*
X110926540Y-98238998D01*
X110816625Y-98221589D01*
X110808929Y-98220370D01*
X110801233Y-98221589D01*
X110691318Y-98238998D01*
X110691317Y-98238998D01*
X110683623Y-98240217D01*
X110676682Y-98243754D01*
X110676681Y-98243754D01*
X110660818Y-98251836D01*
X110600386Y-98261406D01*
X110545870Y-98233627D01*
X110527665Y-98208570D01*
X110493687Y-98141883D01*
X110493686Y-98141881D01*
X110490151Y-98134944D01*
X110474731Y-98119524D01*
X110446954Y-98065007D01*
X110456525Y-98004577D01*
X110509653Y-97900306D01*
X110518595Y-97843853D01*
X110528281Y-97782696D01*
X110529500Y-97775000D01*
X110509653Y-97649694D01*
X110491707Y-97614472D01*
X110484333Y-97600000D01*
X117394500Y-97600000D01*
X117414347Y-97725306D01*
X117417883Y-97732246D01*
X117443589Y-97782696D01*
X117471944Y-97838347D01*
X117561653Y-97928056D01*
X117568590Y-97931591D01*
X117568592Y-97931592D01*
X117663383Y-97979890D01*
X117674694Y-97985653D01*
X117682388Y-97986872D01*
X117682389Y-97986872D01*
X117792304Y-98004281D01*
X117800000Y-98005500D01*
X117807696Y-98004281D01*
X117917611Y-97986872D01*
X117917612Y-97986872D01*
X117925306Y-97985653D01*
X117936617Y-97979890D01*
X118031408Y-97931592D01*
X118031410Y-97931591D01*
X118038347Y-97928056D01*
X118128056Y-97838347D01*
X118156412Y-97782696D01*
X118182117Y-97732246D01*
X118185653Y-97725306D01*
X118205500Y-97600000D01*
X118201176Y-97572702D01*
X118186872Y-97482389D01*
X118186872Y-97482388D01*
X118185653Y-97474694D01*
X118169712Y-97443408D01*
X118131592Y-97368592D01*
X118131591Y-97368590D01*
X118128056Y-97361653D01*
X118038347Y-97271944D01*
X118031410Y-97268409D01*
X118031408Y-97268408D01*
X117932246Y-97217883D01*
X117925306Y-97214347D01*
X117917612Y-97213128D01*
X117917611Y-97213128D01*
X117807696Y-97195719D01*
X117800000Y-97194500D01*
X117792304Y-97195719D01*
X117682389Y-97213128D01*
X117682388Y-97213128D01*
X117674694Y-97214347D01*
X117667754Y-97217883D01*
X117568592Y-97268408D01*
X117568590Y-97268409D01*
X117561653Y-97271944D01*
X117471944Y-97361653D01*
X117468409Y-97368590D01*
X117468408Y-97368592D01*
X117430288Y-97443408D01*
X117414347Y-97474694D01*
X117413128Y-97482388D01*
X117413128Y-97482389D01*
X117398824Y-97572702D01*
X117394500Y-97600000D01*
X110484333Y-97600000D01*
X110455592Y-97543592D01*
X110455591Y-97543590D01*
X110452056Y-97536653D01*
X110362347Y-97446944D01*
X110355410Y-97443409D01*
X110355408Y-97443408D01*
X110256246Y-97392883D01*
X110249306Y-97389347D01*
X110241612Y-97388128D01*
X110241611Y-97388128D01*
X110131696Y-97370719D01*
X110124000Y-97369500D01*
X110116304Y-97370719D01*
X110006389Y-97388128D01*
X110006388Y-97388128D01*
X109998694Y-97389347D01*
X109991754Y-97392883D01*
X109892592Y-97443408D01*
X109892590Y-97443409D01*
X109885653Y-97446944D01*
X109795944Y-97536653D01*
X109792409Y-97543590D01*
X109792408Y-97543592D01*
X109756293Y-97614472D01*
X109738347Y-97649694D01*
X109718500Y-97775000D01*
X109719719Y-97782696D01*
X109729406Y-97843853D01*
X109738347Y-97900306D01*
X109741883Y-97907246D01*
X109791946Y-98005500D01*
X109795944Y-98013347D01*
X109811364Y-98028767D01*
X109839141Y-98083284D01*
X109829570Y-98143714D01*
X109790335Y-98220719D01*
X109783345Y-98234438D01*
X109776442Y-98247985D01*
X109775223Y-98255679D01*
X109775223Y-98255680D01*
X109756969Y-98370930D01*
X109729191Y-98425447D01*
X109674675Y-98453224D01*
X109670750Y-98453533D01*
X109668798Y-98453224D01*
X109588882Y-98465882D01*
X109551187Y-98471852D01*
X109551186Y-98471852D01*
X109543492Y-98473071D01*
X109536552Y-98476607D01*
X109437390Y-98527132D01*
X109437388Y-98527133D01*
X109430451Y-98530668D01*
X109340742Y-98620377D01*
X109337207Y-98627314D01*
X109337206Y-98627316D01*
X109297287Y-98705663D01*
X109283145Y-98733418D01*
X109281926Y-98741112D01*
X109281926Y-98741113D01*
X109278058Y-98765534D01*
X109263298Y-98858724D01*
X105200500Y-98858724D01*
X105200500Y-98726950D01*
X104968554Y-98495004D01*
X104940777Y-98440487D01*
X104950348Y-98380055D01*
X104968554Y-98354996D01*
X105200500Y-98123050D01*
X105200500Y-97456950D01*
X104971150Y-97227600D01*
X107319500Y-97227600D01*
X107320719Y-97235296D01*
X107325964Y-97268408D01*
X107339347Y-97352906D01*
X107342883Y-97359846D01*
X107392360Y-97456950D01*
X107396944Y-97465947D01*
X107486653Y-97555656D01*
X107493590Y-97559191D01*
X107493592Y-97559192D01*
X107558579Y-97592304D01*
X107599694Y-97613253D01*
X107607388Y-97614472D01*
X107607389Y-97614472D01*
X107717304Y-97631881D01*
X107725000Y-97633100D01*
X107732696Y-97631881D01*
X107842611Y-97614472D01*
X107842612Y-97614472D01*
X107850306Y-97613253D01*
X107891421Y-97592304D01*
X107956408Y-97559192D01*
X107956410Y-97559191D01*
X107963347Y-97555656D01*
X108053056Y-97465947D01*
X108057641Y-97456950D01*
X108107117Y-97359846D01*
X108110653Y-97352906D01*
X108124037Y-97268408D01*
X108129281Y-97235296D01*
X108130500Y-97227600D01*
X108110653Y-97102294D01*
X108094501Y-97070593D01*
X108056592Y-96996192D01*
X108056591Y-96996190D01*
X108053056Y-96989253D01*
X107963347Y-96899544D01*
X107956410Y-96896009D01*
X107956408Y-96896008D01*
X107857246Y-96845483D01*
X107850306Y-96841947D01*
X107842612Y-96840728D01*
X107842611Y-96840728D01*
X107732696Y-96823319D01*
X107725000Y-96822100D01*
X107717304Y-96823319D01*
X107607389Y-96840728D01*
X107607388Y-96840728D01*
X107599694Y-96841947D01*
X107592754Y-96845483D01*
X107493592Y-96896008D01*
X107493590Y-96896009D01*
X107486653Y-96899544D01*
X107396944Y-96989253D01*
X107393409Y-96996190D01*
X107393408Y-96996192D01*
X107355499Y-97070593D01*
X107339347Y-97102294D01*
X107319500Y-97227600D01*
X104971150Y-97227600D01*
X104833050Y-97089500D01*
X104299000Y-97089500D01*
X104240809Y-97070593D01*
X104204845Y-97021093D01*
X104200000Y-96990500D01*
X104200000Y-95899000D01*
X104218907Y-95840809D01*
X104268407Y-95804845D01*
X104299000Y-95800000D01*
X117300000Y-95800000D01*
X117671004Y-95428996D01*
X117725521Y-95401219D01*
X117741008Y-95400000D01*
X118359583Y-95400000D01*
X118417774Y-95418907D01*
G37*
%TD.AperFunction*%
%TD*%
M02*
