%TF.GenerationSoftware,KiCad,Pcbnew,(5.99.0-10506-gb986797469)*%
%TF.CreationDate,2021-10-07T12:38:36+02:00*%
%TF.ProjectId,ESP31_V2,45535033-315f-4563-922e-6b696361645f,rev?*%
%TF.SameCoordinates,Original*%
%TF.FileFunction,Copper,L3,Inr*%
%TF.FilePolarity,Positive*%
%FSLAX46Y46*%
G04 Gerber Fmt 4.6, Leading zero omitted, Abs format (unit mm)*
G04 Created by KiCad (PCBNEW (5.99.0-10506-gb986797469)) date 2021-10-07 12:38:36*
%MOMM*%
%LPD*%
G01*
G04 APERTURE LIST*
G04 Aperture macros list*
%AMOutline5P*
0 Free polygon, 5 corners , with rotation*
0 The origin of the aperture is its center*
0 number of corners: always 8*
0 $1 to $10 corner X, Y*
0 $11 Rotation angle, in degrees counterclockwise*
0 create outline with 8 corners*
4,1,5,$1,$2,$3,$4,$5,$6,$7,$8,$9,$10,$1,$2,$11*%
%AMOutline6P*
0 Free polygon, 6 corners , with rotation*
0 The origin of the aperture is its center*
0 number of corners: always 6*
0 $1 to $12 corner X, Y*
0 $13 Rotation angle, in degrees counterclockwise*
0 create outline with 6 corners*
4,1,6,$1,$2,$3,$4,$5,$6,$7,$8,$9,$10,$11,$12,$1,$2,$13*%
%AMOutline7P*
0 Free polygon, 7 corners , with rotation*
0 The origin of the aperture is its center*
0 number of corners: always 7*
0 $1 to $14 corner X, Y*
0 $15 Rotation angle, in degrees counterclockwise*
0 create outline with 7 corners*
4,1,7,$1,$2,$3,$4,$5,$6,$7,$8,$9,$10,$11,$12,$13,$14,$1,$2,$15*%
%AMOutline8P*
0 Free polygon, 8 corners , with rotation*
0 The origin of the aperture is its center*
0 number of corners: always 8*
0 $1 to $16 corner X, Y*
0 $17 Rotation angle, in degrees counterclockwise*
0 create outline with 8 corners*
4,1,8,$1,$2,$3,$4,$5,$6,$7,$8,$9,$10,$11,$12,$13,$14,$15,$16,$1,$2,$17*%
G04 Aperture macros list end*
%TA.AperFunction,ComponentPad*%
%ADD10Outline6P,0.250000X-0.500000X-0.500000X-0.500000X-0.500000X0.500000X0.250000X0.500000X0.500000X0.250000X0.500000X-0.250000X180.000000*%
%TD*%
%TA.AperFunction,ComponentPad*%
%ADD11Outline6P,0.250000X-0.500000X-0.500000X-0.500000X-0.500000X0.500000X0.250000X0.500000X0.500000X0.250000X0.500000X-0.250000X0.000000*%
%TD*%
%TA.AperFunction,ComponentPad*%
%ADD12R,0.900000X0.500000*%
%TD*%
%TA.AperFunction,ComponentPad*%
%ADD13R,1.700000X1.700000*%
%TD*%
%TA.AperFunction,ComponentPad*%
%ADD14O,1.700000X1.700000*%
%TD*%
%TA.AperFunction,ViaPad*%
%ADD15C,0.400000*%
%TD*%
%TA.AperFunction,Conductor*%
%ADD16C,0.200000*%
%TD*%
G04 APERTURE END LIST*
D10*
%TO.N,/IO5*%
%TO.C,J10*%
X118500000Y-107780000D03*
%TD*%
%TO.N,/IO21*%
%TO.C,J15*%
X118500000Y-101180000D03*
%TD*%
%TO.N,/IO10*%
%TO.C,J12*%
X118500000Y-109230000D03*
%TD*%
D11*
%TO.N,/IO34*%
%TO.C,J23*%
X104500000Y-102870000D03*
%TD*%
D10*
%TO.N,/IO19*%
%TO.C,J14*%
X118500000Y-103720000D03*
%TD*%
%TO.N,/IO9*%
%TO.C,J11*%
X118500000Y-110500000D03*
%TD*%
%TO.N,/IO23*%
%TO.C,J17*%
X118500000Y-104990000D03*
%TD*%
D11*
%TO.N,/IO35*%
%TO.C,J24*%
X104500000Y-100330000D03*
%TD*%
%TO.N,/IO25*%
%TO.C,J18*%
X104500000Y-107950000D03*
%TD*%
%TO.N,/IO27*%
%TO.C,J20*%
X104500000Y-110490000D03*
%TD*%
%TO.N,/IO33*%
%TO.C,J22*%
X104500000Y-106680000D03*
%TD*%
%TO.N,/IO26*%
%TO.C,J19*%
X104500000Y-109220000D03*
%TD*%
D10*
%TO.N,/IO18*%
%TO.C,J13*%
X118500000Y-106260000D03*
%TD*%
D12*
%TO.N,GND*%
%TO.C,AE1*%
X118150000Y-95625000D03*
%TD*%
D11*
%TO.N,/CAPN*%
%TO.C,J5*%
X104500000Y-105410000D03*
%TD*%
%TO.N,/SENS_VN*%
%TO.C,J6*%
X104500000Y-104140000D03*
%TD*%
D10*
%TO.N,/IO22*%
%TO.C,J16*%
X118500000Y-102450000D03*
%TD*%
D11*
%TO.N,/SENS_VP*%
%TO.C,J3*%
X104500000Y-97790000D03*
%TD*%
%TO.N,/IO32*%
%TO.C,J21*%
X104500000Y-101600000D03*
%TD*%
%TO.N,/CAPP*%
%TO.C,J4*%
X104500000Y-99060000D03*
%TD*%
D13*
%TO.N,GND*%
%TO.C,J1*%
X107460000Y-110725000D03*
D14*
%TO.N,/IO1*%
X107460000Y-113265000D03*
%TO.N,/IO2*%
X110000000Y-110725000D03*
%TO.N,/IO4*%
X110000000Y-113265000D03*
%TO.N,/IO0*%
X112540000Y-110725000D03*
%TO.N,/EN*%
X112540000Y-113265000D03*
%TO.N,/IO3*%
X115080000Y-110725000D03*
%TO.N,+3V3*%
X115080000Y-113265000D03*
%TD*%
D15*
%TO.N,GND*%
X117350000Y-96150000D03*
X116130000Y-97680000D03*
X105200000Y-96200000D03*
X109100000Y-109150000D03*
X113900000Y-97100000D03*
X104550000Y-96200000D03*
X113550000Y-96200000D03*
X111840000Y-112000000D03*
X114850000Y-98150000D03*
X108580000Y-107330000D03*
X118500000Y-98500000D03*
X116530000Y-97200000D03*
X116750000Y-96050000D03*
X111500000Y-103000000D03*
X106650000Y-98200000D03*
X108508800Y-97256600D03*
X104500000Y-113750000D03*
X110500000Y-102000000D03*
X108740000Y-113670000D03*
X118500000Y-97750000D03*
X106050000Y-96200000D03*
X118500000Y-100000000D03*
X115350000Y-96050000D03*
X116750000Y-96600000D03*
X115150000Y-96600000D03*
X112500000Y-102000000D03*
X112500000Y-104000000D03*
X118500000Y-96250000D03*
X111750000Y-96200000D03*
X118500000Y-99250000D03*
X114503200Y-96800000D03*
X114400000Y-96200000D03*
X113374500Y-97587566D03*
X110150000Y-96200000D03*
X118500000Y-112750000D03*
X104500000Y-112750000D03*
X118500000Y-97000000D03*
X110500000Y-104000000D03*
X110810000Y-109140000D03*
X118500000Y-113750000D03*
X115450000Y-98050000D03*
X114450000Y-98700000D03*
%TO.N,/EN*%
X107725000Y-97227600D03*
X110162095Y-98373291D03*
%TO.N,+3V3*%
X110124000Y-97775000D03*
X114750000Y-99500000D03*
X116396800Y-101896800D03*
X115750000Y-101250000D03*
X107100000Y-104400000D03*
X116000000Y-105750000D03*
%TO.N,/IO1*%
X116464297Y-103214297D03*
%TO.N,/IO2*%
X107150980Y-107900000D03*
X115590000Y-99560000D03*
%TO.N,/IO4*%
X108200000Y-109000000D03*
%TO.N,/IO3*%
X117211935Y-103241894D03*
%TO.N,/SENS_VN*%
X110808929Y-98625870D03*
%TO.N,/SENS_VP*%
X112700500Y-98625000D03*
%TO.N,/CAPP*%
X112057502Y-98617052D03*
%TO.N,/CAPN*%
X111408098Y-98605879D03*
%TO.N,/IO34*%
X109668798Y-98858724D03*
%TD*%
D16*
%TO.N,/EN*%
X110750000Y-112000000D02*
X106495880Y-112000000D01*
X105960000Y-100190000D02*
X105960000Y-111440000D01*
X112015000Y-113265000D02*
X110750000Y-112000000D01*
X112540000Y-113265000D02*
X112015000Y-113265000D01*
X110148017Y-98359213D02*
X107790787Y-98359213D01*
X107790787Y-98359213D02*
X105960000Y-100190000D01*
X106495880Y-112000000D02*
X105960000Y-111464120D01*
X110162095Y-98373291D02*
X110148017Y-98359213D01*
X105960000Y-111464120D02*
X105960000Y-111440000D01*
%TD*%
%TA.AperFunction,NonConductor*%
G36*
X123959191Y-90018907D02*
G01*
X123995155Y-90068407D01*
X124000000Y-90099000D01*
X124000000Y-114901000D01*
X123981093Y-114959191D01*
X123931593Y-114995155D01*
X123901000Y-115000000D01*
X120099000Y-115000000D01*
X120040809Y-114981093D01*
X120004845Y-114931593D01*
X120000000Y-114901000D01*
X120000000Y-114025613D01*
X120001957Y-114009265D01*
X120005286Y-114007741D01*
X120002667Y-113936096D01*
X120004416Y-113934687D01*
X120002359Y-113927681D01*
X120002092Y-113920381D01*
X119999985Y-113919597D01*
X119964095Y-113797364D01*
X119965583Y-113795221D01*
X119961685Y-113789156D01*
X119959654Y-113782238D01*
X119957060Y-113781959D01*
X119888207Y-113674820D01*
X119889031Y-113672346D01*
X119883583Y-113667626D01*
X119879684Y-113661558D01*
X119877116Y-113662021D01*
X119850844Y-113639256D01*
X119799243Y-113594544D01*
X120618519Y-113594544D01*
X120636731Y-113767816D01*
X120692878Y-113932747D01*
X120784170Y-114081139D01*
X120906069Y-114205619D01*
X120910723Y-114208618D01*
X120910725Y-114208620D01*
X121047866Y-114297001D01*
X121052518Y-114299999D01*
X121216236Y-114359588D01*
X121350111Y-114376500D01*
X121444575Y-114376500D01*
X121468451Y-114373822D01*
X121567643Y-114362696D01*
X121567647Y-114362695D01*
X121573140Y-114362079D01*
X121737675Y-114304782D01*
X121885427Y-114212456D01*
X122009053Y-114089691D01*
X122102408Y-113942587D01*
X122160852Y-113778456D01*
X122181481Y-113605456D01*
X122163269Y-113432184D01*
X122107122Y-113267253D01*
X122015830Y-113118861D01*
X121893931Y-112994381D01*
X121889277Y-112991382D01*
X121889275Y-112991380D01*
X121752134Y-112902999D01*
X121747482Y-112900001D01*
X121583764Y-112840412D01*
X121449889Y-112823500D01*
X121355425Y-112823500D01*
X121331549Y-112826178D01*
X121232357Y-112837304D01*
X121232353Y-112837305D01*
X121226860Y-112837921D01*
X121062325Y-112895218D01*
X120914573Y-112987544D01*
X120871554Y-113030263D01*
X120800233Y-113101088D01*
X120790947Y-113110309D01*
X120697592Y-113257413D01*
X120639148Y-113421544D01*
X120638493Y-113427037D01*
X120621068Y-113573171D01*
X120618519Y-113594544D01*
X119799243Y-113594544D01*
X119789322Y-113585948D01*
X119789321Y-113585947D01*
X119780868Y-113578623D01*
X119780962Y-113576016D01*
X119774403Y-113573021D01*
X119768954Y-113568299D01*
X119766621Y-113569467D01*
X119664221Y-113522702D01*
X119660939Y-113521203D01*
X119660937Y-113521203D01*
X119650776Y-113516562D01*
X119650131Y-113514034D01*
X119642994Y-113513008D01*
X119636436Y-113510013D01*
X119634527Y-113511790D01*
X119508468Y-113493666D01*
X119507137Y-113491422D01*
X119500000Y-113492448D01*
X119492863Y-113491422D01*
X119491532Y-113493666D01*
X119465499Y-113497409D01*
X119405210Y-113486976D01*
X119362568Y-113443098D01*
X119352779Y-113390876D01*
X119353698Y-113380263D01*
X119353698Y-113380261D01*
X119354404Y-113372108D01*
X119326262Y-113258814D01*
X119262939Y-113160744D01*
X119262502Y-113160399D01*
X119238992Y-113108326D01*
X119251401Y-113048413D01*
X119264697Y-113030263D01*
X119291574Y-113001188D01*
X119297130Y-112995178D01*
X119300438Y-112987695D01*
X119300440Y-112987692D01*
X119341023Y-112895893D01*
X119341024Y-112895890D01*
X119344331Y-112888409D01*
X119349573Y-112827892D01*
X119353698Y-112780261D01*
X119353698Y-112780260D01*
X119354404Y-112772108D01*
X119326262Y-112658814D01*
X119262939Y-112560744D01*
X119262502Y-112560399D01*
X119238992Y-112508326D01*
X119251401Y-112448413D01*
X119264697Y-112430263D01*
X119291574Y-112401188D01*
X119297130Y-112395178D01*
X119300438Y-112387695D01*
X119300440Y-112387692D01*
X119341023Y-112295893D01*
X119341024Y-112295890D01*
X119344331Y-112288409D01*
X119349573Y-112227892D01*
X119353698Y-112180261D01*
X119353698Y-112180260D01*
X119354404Y-112172108D01*
X119342093Y-112122546D01*
X119346414Y-112061513D01*
X119385785Y-112014677D01*
X119445166Y-111999927D01*
X119452262Y-112000688D01*
X119491532Y-112006334D01*
X119492863Y-112008578D01*
X119500000Y-112007552D01*
X119507137Y-112008578D01*
X119508468Y-112006334D01*
X119634527Y-111988210D01*
X119636436Y-111989987D01*
X119642994Y-111986992D01*
X119650131Y-111985966D01*
X119650776Y-111983438D01*
X119700469Y-111960744D01*
X119756455Y-111935176D01*
X119756456Y-111935175D01*
X119766621Y-111930533D01*
X119768954Y-111931701D01*
X119774403Y-111926979D01*
X119780962Y-111923984D01*
X119780868Y-111921377D01*
X119785894Y-111917022D01*
X119785896Y-111917021D01*
X119847470Y-111863667D01*
X119877116Y-111837979D01*
X119879684Y-111838442D01*
X119883583Y-111832374D01*
X119889031Y-111827654D01*
X119888207Y-111825180D01*
X119957060Y-111718041D01*
X119959654Y-111717762D01*
X119961685Y-111710844D01*
X119965583Y-111704779D01*
X119964095Y-111702636D01*
X119999985Y-111580403D01*
X120002092Y-111579619D01*
X120002359Y-111572319D01*
X120004416Y-111565313D01*
X120002667Y-111563904D01*
X120005286Y-111492259D01*
X120001833Y-111490678D01*
X120000000Y-111477559D01*
X120000000Y-100225613D01*
X120001957Y-100209265D01*
X120005286Y-100207741D01*
X120002667Y-100136096D01*
X120004416Y-100134687D01*
X120002359Y-100127681D01*
X120002092Y-100120381D01*
X119999985Y-100119597D01*
X119964095Y-99997364D01*
X119965583Y-99995221D01*
X119961685Y-99989156D01*
X119959654Y-99982238D01*
X119957060Y-99981959D01*
X119888207Y-99874820D01*
X119889031Y-99872346D01*
X119883583Y-99867626D01*
X119879684Y-99861558D01*
X119877116Y-99862021D01*
X119780868Y-99778623D01*
X119780962Y-99776016D01*
X119774403Y-99773021D01*
X119768954Y-99768299D01*
X119766621Y-99769467D01*
X119760571Y-99766704D01*
X119660939Y-99721203D01*
X119660937Y-99721203D01*
X119650776Y-99716562D01*
X119650131Y-99714034D01*
X119642994Y-99713008D01*
X119636436Y-99710013D01*
X119634527Y-99711790D01*
X119508468Y-99693666D01*
X119507137Y-99691422D01*
X119500000Y-99692448D01*
X119492863Y-99691422D01*
X119491532Y-99693666D01*
X119414335Y-99704765D01*
X119354046Y-99694332D01*
X119311403Y-99650454D01*
X119302696Y-99589891D01*
X119309700Y-99566744D01*
X119341023Y-99495893D01*
X119341024Y-99495890D01*
X119344331Y-99488409D01*
X119349573Y-99427892D01*
X119353698Y-99380261D01*
X119353698Y-99380260D01*
X119354404Y-99372108D01*
X119326262Y-99258814D01*
X119262939Y-99160744D01*
X119262502Y-99160399D01*
X119238992Y-99108326D01*
X119251401Y-99048413D01*
X119264697Y-99030263D01*
X119291574Y-99001188D01*
X119297130Y-98995178D01*
X119300438Y-98987695D01*
X119300440Y-98987692D01*
X119341023Y-98895893D01*
X119341024Y-98895890D01*
X119344331Y-98888409D01*
X119349573Y-98827892D01*
X119353698Y-98780261D01*
X119353698Y-98780260D01*
X119354404Y-98772108D01*
X119326262Y-98658814D01*
X119318742Y-98647167D01*
X119303062Y-98588026D01*
X119325138Y-98530963D01*
X119376540Y-98497773D01*
X119416000Y-98495475D01*
X119466975Y-98502803D01*
X119491532Y-98506334D01*
X119492863Y-98508578D01*
X119500000Y-98507552D01*
X119507137Y-98508578D01*
X119508468Y-98506334D01*
X119634527Y-98488210D01*
X119636436Y-98489987D01*
X119642994Y-98486992D01*
X119650131Y-98485966D01*
X119650776Y-98483438D01*
X119664221Y-98477298D01*
X119756455Y-98435176D01*
X119756456Y-98435175D01*
X119766621Y-98430533D01*
X119768954Y-98431701D01*
X119774403Y-98426979D01*
X119780962Y-98423984D01*
X119780868Y-98421377D01*
X119785894Y-98417022D01*
X119785896Y-98417021D01*
X119834054Y-98375291D01*
X119877116Y-98337979D01*
X119879684Y-98338442D01*
X119883583Y-98332374D01*
X119889031Y-98327654D01*
X119888207Y-98325180D01*
X119957060Y-98218041D01*
X119959654Y-98217762D01*
X119961685Y-98210844D01*
X119965583Y-98204779D01*
X119964095Y-98202636D01*
X119999985Y-98080403D01*
X120002092Y-98079619D01*
X120002359Y-98072319D01*
X120004416Y-98065313D01*
X120002667Y-98063904D01*
X120005286Y-97992259D01*
X120001833Y-97990678D01*
X120000000Y-97977559D01*
X120000000Y-90994544D01*
X122018519Y-90994544D01*
X122036731Y-91167816D01*
X122092878Y-91332747D01*
X122184170Y-91481139D01*
X122306069Y-91605619D01*
X122310723Y-91608618D01*
X122310725Y-91608620D01*
X122447866Y-91697001D01*
X122452518Y-91699999D01*
X122616236Y-91759588D01*
X122750111Y-91776500D01*
X122844575Y-91776500D01*
X122868451Y-91773822D01*
X122967643Y-91762696D01*
X122967647Y-91762695D01*
X122973140Y-91762079D01*
X123137675Y-91704782D01*
X123285427Y-91612456D01*
X123409053Y-91489691D01*
X123502408Y-91342587D01*
X123560852Y-91178456D01*
X123581481Y-91005456D01*
X123563269Y-90832184D01*
X123507122Y-90667253D01*
X123415830Y-90518861D01*
X123293931Y-90394381D01*
X123289277Y-90391382D01*
X123289275Y-90391380D01*
X123152134Y-90302999D01*
X123147482Y-90300001D01*
X122983764Y-90240412D01*
X122849889Y-90223500D01*
X122755425Y-90223500D01*
X122731549Y-90226178D01*
X122632357Y-90237304D01*
X122632353Y-90237305D01*
X122626860Y-90237921D01*
X122462325Y-90295218D01*
X122314573Y-90387544D01*
X122190947Y-90510309D01*
X122097592Y-90657413D01*
X122039148Y-90821544D01*
X122018519Y-90994544D01*
X120000000Y-90994544D01*
X120000000Y-90099000D01*
X120018907Y-90040809D01*
X120068407Y-90004845D01*
X120099000Y-90000000D01*
X123901000Y-90000000D01*
X123959191Y-90018907D01*
G37*
%TD.AperFunction*%
%TA.AperFunction,Conductor*%
%TO.N,+3V3*%
G36*
X109804790Y-95818907D02*
G01*
X109840754Y-95868407D01*
X109840754Y-95929593D01*
X109826989Y-95956608D01*
X109821944Y-95961653D01*
X109764347Y-96074694D01*
X109744500Y-96200000D01*
X109764347Y-96325306D01*
X109767883Y-96332246D01*
X109800442Y-96396146D01*
X109821944Y-96438347D01*
X109911653Y-96528056D01*
X109918590Y-96531591D01*
X109918592Y-96531592D01*
X109985944Y-96565909D01*
X110024694Y-96585653D01*
X110032388Y-96586872D01*
X110032389Y-96586872D01*
X110142304Y-96604281D01*
X110150000Y-96605500D01*
X110157696Y-96604281D01*
X110267611Y-96586872D01*
X110267612Y-96586872D01*
X110275306Y-96585653D01*
X110314056Y-96565909D01*
X110381408Y-96531592D01*
X110381410Y-96531591D01*
X110388347Y-96528056D01*
X110478056Y-96438347D01*
X110499559Y-96396146D01*
X110532117Y-96332246D01*
X110535653Y-96325306D01*
X110555500Y-96200000D01*
X110535653Y-96074694D01*
X110478056Y-95961653D01*
X110473170Y-95956767D01*
X110454401Y-95898998D01*
X110473310Y-95840807D01*
X110522810Y-95804845D01*
X110553401Y-95800000D01*
X111346599Y-95800000D01*
X111404790Y-95818907D01*
X111440754Y-95868407D01*
X111440754Y-95929593D01*
X111426989Y-95956608D01*
X111421944Y-95961653D01*
X111364347Y-96074694D01*
X111344500Y-96200000D01*
X111364347Y-96325306D01*
X111367883Y-96332246D01*
X111400442Y-96396146D01*
X111421944Y-96438347D01*
X111511653Y-96528056D01*
X111518590Y-96531591D01*
X111518592Y-96531592D01*
X111585944Y-96565909D01*
X111624694Y-96585653D01*
X111632388Y-96586872D01*
X111632389Y-96586872D01*
X111742304Y-96604281D01*
X111750000Y-96605500D01*
X111757696Y-96604281D01*
X111867611Y-96586872D01*
X111867612Y-96586872D01*
X111875306Y-96585653D01*
X111914056Y-96565909D01*
X111981408Y-96531592D01*
X111981410Y-96531591D01*
X111988347Y-96528056D01*
X112078056Y-96438347D01*
X112099559Y-96396146D01*
X112132117Y-96332246D01*
X112135653Y-96325306D01*
X112155500Y-96200000D01*
X112135653Y-96074694D01*
X112078056Y-95961653D01*
X112073170Y-95956767D01*
X112054401Y-95898998D01*
X112073310Y-95840807D01*
X112122810Y-95804845D01*
X112153401Y-95800000D01*
X113146599Y-95800000D01*
X113204790Y-95818907D01*
X113240754Y-95868407D01*
X113240754Y-95929593D01*
X113226989Y-95956608D01*
X113221944Y-95961653D01*
X113164347Y-96074694D01*
X113144500Y-96200000D01*
X113164347Y-96325306D01*
X113167883Y-96332246D01*
X113200442Y-96396146D01*
X113221944Y-96438347D01*
X113311653Y-96528056D01*
X113318592Y-96531592D01*
X113318594Y-96531593D01*
X113385944Y-96565909D01*
X113429209Y-96609173D01*
X113440000Y-96654119D01*
X113440000Y-97087138D01*
X113421093Y-97145329D01*
X113371593Y-97181293D01*
X113356487Y-97184919D01*
X113256889Y-97200694D01*
X113256888Y-97200694D01*
X113249194Y-97201913D01*
X113242254Y-97205449D01*
X113143092Y-97255974D01*
X113143090Y-97255975D01*
X113136153Y-97259510D01*
X113046444Y-97349219D01*
X112988847Y-97462260D01*
X112987628Y-97469954D01*
X112987628Y-97469955D01*
X112985467Y-97483597D01*
X112969000Y-97587566D01*
X112988847Y-97712872D01*
X112992383Y-97719812D01*
X113042353Y-97817883D01*
X113046444Y-97825913D01*
X113136153Y-97915622D01*
X113143090Y-97919157D01*
X113143092Y-97919158D01*
X113223411Y-97960082D01*
X113249194Y-97973219D01*
X113256888Y-97974438D01*
X113256889Y-97974438D01*
X113366804Y-97991847D01*
X113374500Y-97993066D01*
X113382196Y-97991847D01*
X113492111Y-97974438D01*
X113492112Y-97974438D01*
X113499806Y-97973219D01*
X113506744Y-97969684D01*
X113506753Y-97969681D01*
X113525592Y-97960082D01*
X113586024Y-97950511D01*
X113640142Y-97977894D01*
X113757879Y-98094308D01*
X114072991Y-98405879D01*
X114101075Y-98460237D01*
X114091593Y-98521220D01*
X114064347Y-98574694D01*
X114063128Y-98582388D01*
X114063128Y-98582389D01*
X114056269Y-98625695D01*
X114044500Y-98700000D01*
X114045719Y-98707696D01*
X114058849Y-98790591D01*
X114064347Y-98825306D01*
X114067883Y-98832246D01*
X114116889Y-98928425D01*
X114121944Y-98938347D01*
X114211653Y-99028056D01*
X114218590Y-99031591D01*
X114218592Y-99031592D01*
X114317754Y-99082117D01*
X114324694Y-99085653D01*
X114332388Y-99086872D01*
X114332389Y-99086872D01*
X114442304Y-99104281D01*
X114450000Y-99105500D01*
X114457696Y-99104281D01*
X114567611Y-99086872D01*
X114567612Y-99086872D01*
X114575306Y-99085653D01*
X114582246Y-99082117D01*
X114681408Y-99031592D01*
X114681410Y-99031591D01*
X114688347Y-99028056D01*
X114778056Y-98938347D01*
X114783112Y-98928425D01*
X114832117Y-98832246D01*
X114835653Y-98825306D01*
X114841152Y-98790591D01*
X114854281Y-98707696D01*
X114855500Y-98700000D01*
X114853094Y-98684808D01*
X114848526Y-98655967D01*
X114858097Y-98595535D01*
X114901362Y-98552270D01*
X114930820Y-98542699D01*
X114967611Y-98536872D01*
X114967612Y-98536872D01*
X114975306Y-98535653D01*
X114990216Y-98528056D01*
X115081408Y-98481592D01*
X115081410Y-98481591D01*
X115088347Y-98478056D01*
X115145353Y-98421050D01*
X115199870Y-98393273D01*
X115260302Y-98402844D01*
X115317753Y-98432117D01*
X115317756Y-98432118D01*
X115324694Y-98435653D01*
X115332388Y-98436872D01*
X115332389Y-98436872D01*
X115442304Y-98454281D01*
X115450000Y-98455500D01*
X115457696Y-98454281D01*
X115567611Y-98436872D01*
X115567612Y-98436872D01*
X115575306Y-98435653D01*
X115582246Y-98432117D01*
X115681408Y-98381592D01*
X115681410Y-98381591D01*
X115688347Y-98378056D01*
X115778056Y-98288347D01*
X115783419Y-98277823D01*
X115832117Y-98182246D01*
X115835653Y-98175306D01*
X115843031Y-98128726D01*
X115870809Y-98074210D01*
X115925326Y-98046433D01*
X115985757Y-98056005D01*
X115997748Y-98062115D01*
X115997754Y-98062117D01*
X116004694Y-98065653D01*
X116012388Y-98066872D01*
X116012389Y-98066872D01*
X116088924Y-98078994D01*
X116110359Y-98082389D01*
X116122304Y-98084281D01*
X116130000Y-98085500D01*
X116137696Y-98084281D01*
X116149642Y-98082389D01*
X116171076Y-98078994D01*
X116247611Y-98066872D01*
X116247612Y-98066872D01*
X116255306Y-98065653D01*
X116272308Y-98056990D01*
X116361408Y-98011592D01*
X116361410Y-98011591D01*
X116368347Y-98008056D01*
X116458056Y-97918347D01*
X116476451Y-97882246D01*
X116512117Y-97812246D01*
X116515653Y-97805306D01*
X116517172Y-97795719D01*
X116535500Y-97680000D01*
X116537238Y-97680275D01*
X116553188Y-97631184D01*
X116602688Y-97595220D01*
X116617791Y-97591595D01*
X116639276Y-97588192D01*
X116647611Y-97586872D01*
X116647612Y-97586872D01*
X116655306Y-97585653D01*
X116724985Y-97550150D01*
X116761408Y-97531592D01*
X116761410Y-97531591D01*
X116768347Y-97528056D01*
X116858056Y-97438347D01*
X116867433Y-97419945D01*
X116912117Y-97332246D01*
X116915653Y-97325306D01*
X116917521Y-97313512D01*
X116945299Y-97258995D01*
X116999816Y-97231219D01*
X117015302Y-97230000D01*
X118122589Y-97230000D01*
X118180780Y-97248907D01*
X118192593Y-97258996D01*
X118238593Y-97304996D01*
X118266370Y-97359513D01*
X118256799Y-97419945D01*
X118238593Y-97445004D01*
X118171944Y-97511653D01*
X118168409Y-97518590D01*
X118168408Y-97518592D01*
X118124127Y-97605500D01*
X118114347Y-97624694D01*
X118113128Y-97632388D01*
X118113128Y-97632389D01*
X118112126Y-97638717D01*
X118094500Y-97750000D01*
X118114347Y-97875306D01*
X118117883Y-97882246D01*
X118162904Y-97970604D01*
X118171944Y-97988347D01*
X118238593Y-98054996D01*
X118266370Y-98109513D01*
X118256799Y-98169945D01*
X118238593Y-98195004D01*
X118171944Y-98261653D01*
X118168409Y-98268590D01*
X118168408Y-98268592D01*
X118122204Y-98359273D01*
X118114347Y-98374694D01*
X118113128Y-98382388D01*
X118113128Y-98382389D01*
X118103745Y-98441631D01*
X118094500Y-98500000D01*
X118095719Y-98507696D01*
X118113080Y-98617304D01*
X118114347Y-98625306D01*
X118117883Y-98632246D01*
X118162292Y-98719403D01*
X118171944Y-98738347D01*
X118238593Y-98804996D01*
X118266370Y-98859513D01*
X118256799Y-98919945D01*
X118238593Y-98945004D01*
X118171944Y-99011653D01*
X118168409Y-99018590D01*
X118168408Y-99018592D01*
X118125616Y-99102577D01*
X118114347Y-99124694D01*
X118113128Y-99132388D01*
X118113128Y-99132389D01*
X118105922Y-99177883D01*
X118094500Y-99250000D01*
X118114347Y-99375306D01*
X118117883Y-99382246D01*
X118144607Y-99434694D01*
X118171944Y-99488347D01*
X118238593Y-99554996D01*
X118266370Y-99609513D01*
X118256799Y-99669945D01*
X118238593Y-99695004D01*
X118171944Y-99761653D01*
X118168409Y-99768590D01*
X118168408Y-99768592D01*
X118151208Y-99802350D01*
X118114347Y-99874694D01*
X118113128Y-99882388D01*
X118113128Y-99882389D01*
X118110493Y-99899024D01*
X118094500Y-100000000D01*
X118095719Y-100007696D01*
X118106742Y-100077288D01*
X118114347Y-100125306D01*
X118117883Y-100132246D01*
X118167481Y-100229587D01*
X118171944Y-100238347D01*
X118244093Y-100310496D01*
X118271870Y-100365013D01*
X118262299Y-100425445D01*
X118219034Y-100468710D01*
X118197305Y-100473926D01*
X118197542Y-100474655D01*
X118182630Y-100479500D01*
X118166950Y-100479500D01*
X117799500Y-100846950D01*
X117799500Y-101513050D01*
X118031446Y-101744996D01*
X118059223Y-101799513D01*
X118049652Y-101859945D01*
X118031446Y-101885004D01*
X117799500Y-102116950D01*
X117799500Y-102783050D01*
X118031446Y-103014996D01*
X118059223Y-103069513D01*
X118049652Y-103129945D01*
X118031446Y-103155004D01*
X117799500Y-103386950D01*
X117799500Y-104053050D01*
X118031446Y-104284996D01*
X118059223Y-104339513D01*
X118049652Y-104399945D01*
X118031446Y-104425004D01*
X117799500Y-104656950D01*
X117799500Y-105323050D01*
X118031446Y-105554996D01*
X118059223Y-105609513D01*
X118049652Y-105669945D01*
X118031446Y-105695004D01*
X117799500Y-105926950D01*
X117799500Y-106593050D01*
X118156446Y-106949996D01*
X118184223Y-107004513D01*
X118174652Y-107064945D01*
X118156446Y-107090004D01*
X117799500Y-107446950D01*
X117799500Y-108113050D01*
X118121446Y-108434996D01*
X118149223Y-108489513D01*
X118139652Y-108549945D01*
X118121446Y-108575004D01*
X117799500Y-108896950D01*
X117799500Y-109563050D01*
X118031446Y-109794996D01*
X118059223Y-109849513D01*
X118049652Y-109909945D01*
X118031446Y-109935004D01*
X117799500Y-110166950D01*
X117799500Y-110833050D01*
X118166950Y-111200500D01*
X118701000Y-111200500D01*
X118759191Y-111219407D01*
X118795155Y-111268907D01*
X118800000Y-111299500D01*
X118800000Y-111446418D01*
X118798228Y-111465063D01*
X118794329Y-111485395D01*
X118795787Y-111525264D01*
X118796157Y-111535375D01*
X118793067Y-111535488D01*
X118793232Y-111537213D01*
X118795457Y-111537080D01*
X118795457Y-111537082D01*
X118797360Y-111569002D01*
X118797464Y-111571147D01*
X118798553Y-111600909D01*
X118799467Y-111604335D01*
X118799689Y-111608052D01*
X118801265Y-111613421D01*
X118801266Y-111613424D01*
X118807806Y-111635697D01*
X118808467Y-111638057D01*
X118816842Y-111669434D01*
X118813845Y-111670234D01*
X118814175Y-111672146D01*
X118818164Y-111670974D01*
X118818165Y-111670975D01*
X118834816Y-111727683D01*
X118835009Y-111728619D01*
X118834443Y-111734073D01*
X118845714Y-111765419D01*
X118847537Y-111771008D01*
X118852389Y-111787533D01*
X118850824Y-111787993D01*
X118855328Y-111841728D01*
X118823625Y-111894060D01*
X118805960Y-111906232D01*
X118782112Y-111919100D01*
X118702870Y-112004822D01*
X118699562Y-112012305D01*
X118699560Y-112012308D01*
X118658977Y-112104107D01*
X118658976Y-112104110D01*
X118655669Y-112111591D01*
X118654963Y-112119739D01*
X118654963Y-112119740D01*
X118646302Y-112219739D01*
X118645596Y-112227892D01*
X118647569Y-112235835D01*
X118648211Y-112243989D01*
X118644541Y-112244278D01*
X118641398Y-112289210D01*
X118602068Y-112336080D01*
X118542700Y-112350882D01*
X118534120Y-112349904D01*
X118507697Y-112345719D01*
X118507696Y-112345719D01*
X118500000Y-112344500D01*
X118492304Y-112345719D01*
X118382389Y-112363128D01*
X118382388Y-112363128D01*
X118374694Y-112364347D01*
X118367754Y-112367883D01*
X118268592Y-112418408D01*
X118268590Y-112418409D01*
X118261653Y-112421944D01*
X118171944Y-112511653D01*
X118168409Y-112518590D01*
X118168408Y-112518592D01*
X118117883Y-112617754D01*
X118114347Y-112624694D01*
X118113128Y-112632388D01*
X118113128Y-112632389D01*
X118106709Y-112672919D01*
X118094500Y-112750000D01*
X118095719Y-112757696D01*
X118113097Y-112867412D01*
X118114347Y-112875306D01*
X118117883Y-112882246D01*
X118145515Y-112936476D01*
X118171944Y-112988347D01*
X118261653Y-113078056D01*
X118268590Y-113081591D01*
X118268592Y-113081592D01*
X118367752Y-113132116D01*
X118374694Y-113135653D01*
X118382388Y-113136872D01*
X118382389Y-113136872D01*
X118479285Y-113152219D01*
X118495417Y-113160439D01*
X118520715Y-113152219D01*
X118562064Y-113145670D01*
X118622496Y-113155241D01*
X118665761Y-113198506D01*
X118675332Y-113258938D01*
X118668098Y-113283477D01*
X118662684Y-113295724D01*
X118621861Y-113341300D01*
X118556652Y-113353473D01*
X118520715Y-113347781D01*
X118504583Y-113339561D01*
X118479285Y-113347781D01*
X118382389Y-113363128D01*
X118382388Y-113363128D01*
X118374694Y-113364347D01*
X118367754Y-113367883D01*
X118268592Y-113418408D01*
X118268590Y-113418409D01*
X118261653Y-113421944D01*
X118171944Y-113511653D01*
X118168409Y-113518590D01*
X118168408Y-113518592D01*
X118117883Y-113617754D01*
X118114347Y-113624694D01*
X118113128Y-113632388D01*
X118113128Y-113632389D01*
X118110249Y-113650564D01*
X118094500Y-113750000D01*
X118095719Y-113757696D01*
X118112416Y-113863112D01*
X118114347Y-113875306D01*
X118117883Y-113882246D01*
X118123420Y-113893112D01*
X118171944Y-113988347D01*
X118261653Y-114078056D01*
X118268590Y-114081591D01*
X118268592Y-114081592D01*
X118360822Y-114128585D01*
X118374694Y-114135653D01*
X118382388Y-114136872D01*
X118382389Y-114136872D01*
X118492304Y-114154281D01*
X118500000Y-114155500D01*
X118507696Y-114154281D01*
X118617611Y-114136872D01*
X118617612Y-114136872D01*
X118625306Y-114135653D01*
X118632244Y-114132118D01*
X118632250Y-114132116D01*
X118656056Y-114119986D01*
X118716488Y-114110415D01*
X118771004Y-114138193D01*
X118798781Y-114192710D01*
X118800000Y-114208196D01*
X118800000Y-114701000D01*
X118781093Y-114759191D01*
X118731593Y-114795155D01*
X118701000Y-114800000D01*
X104299000Y-114800000D01*
X104240809Y-114781093D01*
X104204845Y-114731593D01*
X104200000Y-114701000D01*
X104200000Y-114208196D01*
X104218907Y-114150005D01*
X104268407Y-114114041D01*
X104329593Y-114114041D01*
X104343944Y-114119986D01*
X104367750Y-114132116D01*
X104367756Y-114132118D01*
X104374694Y-114135653D01*
X104382388Y-114136872D01*
X104382389Y-114136872D01*
X104492304Y-114154281D01*
X104500000Y-114155500D01*
X104507696Y-114154281D01*
X104617611Y-114136872D01*
X104617612Y-114136872D01*
X104625306Y-114135653D01*
X104639178Y-114128585D01*
X104731408Y-114081592D01*
X104731410Y-114081591D01*
X104738347Y-114078056D01*
X104828056Y-113988347D01*
X104876581Y-113893112D01*
X104882117Y-113882246D01*
X104885653Y-113875306D01*
X104887585Y-113863112D01*
X104904281Y-113757696D01*
X104905500Y-113750000D01*
X104889751Y-113650564D01*
X104886872Y-113632389D01*
X104886872Y-113632388D01*
X104885653Y-113624694D01*
X104882117Y-113617754D01*
X104831592Y-113518592D01*
X104831591Y-113518590D01*
X104828056Y-113511653D01*
X104738347Y-113421944D01*
X104731410Y-113418409D01*
X104731408Y-113418408D01*
X104632246Y-113367883D01*
X104625306Y-113364347D01*
X104617612Y-113363128D01*
X104617611Y-113363128D01*
X104520715Y-113347781D01*
X104504583Y-113339561D01*
X104479285Y-113347781D01*
X104382389Y-113363128D01*
X104382388Y-113363128D01*
X104374694Y-113364347D01*
X104367756Y-113367882D01*
X104367750Y-113367884D01*
X104343944Y-113380014D01*
X104283512Y-113389585D01*
X104228996Y-113361807D01*
X104201219Y-113307290D01*
X104200000Y-113291804D01*
X104200000Y-113208196D01*
X104218907Y-113150005D01*
X104268407Y-113114041D01*
X104329593Y-113114041D01*
X104343944Y-113119986D01*
X104367750Y-113132116D01*
X104367756Y-113132118D01*
X104374694Y-113135653D01*
X104382388Y-113136872D01*
X104382389Y-113136872D01*
X104479285Y-113152219D01*
X104495417Y-113160439D01*
X104520715Y-113152219D01*
X104617611Y-113136872D01*
X104617612Y-113136872D01*
X104625306Y-113135653D01*
X104632248Y-113132116D01*
X104731408Y-113081592D01*
X104731410Y-113081591D01*
X104738347Y-113078056D01*
X104828056Y-112988347D01*
X104854486Y-112936476D01*
X104882117Y-112882246D01*
X104885653Y-112875306D01*
X104886904Y-112867412D01*
X104904281Y-112757696D01*
X104905500Y-112750000D01*
X104893291Y-112672919D01*
X104886872Y-112632389D01*
X104886872Y-112632388D01*
X104885653Y-112624694D01*
X104882117Y-112617754D01*
X104831592Y-112518592D01*
X104831591Y-112518590D01*
X104828056Y-112511653D01*
X104738347Y-112421944D01*
X104731410Y-112418409D01*
X104731408Y-112418408D01*
X104632246Y-112367883D01*
X104625306Y-112364347D01*
X104617612Y-112363128D01*
X104617611Y-112363128D01*
X104507696Y-112345719D01*
X104500000Y-112344500D01*
X104492304Y-112345719D01*
X104382389Y-112363128D01*
X104382388Y-112363128D01*
X104374694Y-112364347D01*
X104367756Y-112367882D01*
X104367750Y-112367884D01*
X104343944Y-112380014D01*
X104283512Y-112389585D01*
X104228996Y-112361807D01*
X104201219Y-112307290D01*
X104200000Y-112291804D01*
X104200000Y-111289500D01*
X104218907Y-111231309D01*
X104268407Y-111195345D01*
X104299000Y-111190500D01*
X104833050Y-111190500D01*
X105200500Y-110823050D01*
X105200500Y-110156950D01*
X104968554Y-109925004D01*
X104940777Y-109870487D01*
X104950348Y-109810055D01*
X104968554Y-109784996D01*
X105200500Y-109553050D01*
X105200500Y-108886950D01*
X104968554Y-108655004D01*
X104940777Y-108600487D01*
X104950348Y-108540055D01*
X104968554Y-108514996D01*
X105200500Y-108283050D01*
X105200500Y-107616950D01*
X104968554Y-107385004D01*
X104940777Y-107330487D01*
X104950348Y-107270055D01*
X104968554Y-107244996D01*
X105200500Y-107013050D01*
X105200500Y-106346950D01*
X104968554Y-106115004D01*
X104940777Y-106060487D01*
X104950348Y-106000055D01*
X104968554Y-105974996D01*
X105200500Y-105743050D01*
X105200500Y-105076950D01*
X104968554Y-104845004D01*
X104940777Y-104790487D01*
X104950348Y-104730055D01*
X104968554Y-104704996D01*
X105200500Y-104473050D01*
X105200500Y-103806950D01*
X104968554Y-103575004D01*
X104940777Y-103520487D01*
X104950348Y-103460055D01*
X104968554Y-103434996D01*
X105200500Y-103203050D01*
X105200500Y-102536950D01*
X104968554Y-102305004D01*
X104940777Y-102250487D01*
X104950348Y-102190055D01*
X104968554Y-102164996D01*
X105200500Y-101933050D01*
X105200500Y-101266950D01*
X104968554Y-101035004D01*
X104940777Y-100980487D01*
X104950348Y-100920055D01*
X104968554Y-100894996D01*
X105200500Y-100663050D01*
X105200500Y-100175077D01*
X105654864Y-100175077D01*
X105656097Y-100184134D01*
X105658596Y-100202500D01*
X105659500Y-100215850D01*
X105659500Y-111412012D01*
X105659270Y-111415144D01*
X105657777Y-111419492D01*
X105658120Y-111428628D01*
X105659430Y-111463521D01*
X105659500Y-111467235D01*
X105659500Y-111490966D01*
X105660335Y-111495450D01*
X105660582Y-111498124D01*
X105660931Y-111503509D01*
X105661974Y-111531282D01*
X105665580Y-111539677D01*
X105665581Y-111539679D01*
X105666514Y-111541850D01*
X105672877Y-111562794D01*
X105674983Y-111574099D01*
X105679780Y-111581881D01*
X105679781Y-111581884D01*
X105688948Y-111596756D01*
X105695630Y-111609619D01*
X105706134Y-111634068D01*
X105711455Y-111640546D01*
X105714958Y-111644049D01*
X105728139Y-111660724D01*
X105728887Y-111661549D01*
X105733684Y-111669331D01*
X105754055Y-111684821D01*
X105755705Y-111686076D01*
X105765785Y-111694876D01*
X106246548Y-112175639D01*
X106248600Y-112178017D01*
X106250619Y-112182147D01*
X106257319Y-112188362D01*
X106282922Y-112212112D01*
X106285598Y-112214689D01*
X106302378Y-112231469D01*
X106306135Y-112234047D01*
X106308220Y-112235779D01*
X106312274Y-112239340D01*
X106325932Y-112252010D01*
X106325935Y-112252012D01*
X106332635Y-112258227D01*
X106341126Y-112261615D01*
X106341127Y-112261615D01*
X106343319Y-112262490D01*
X106362630Y-112272802D01*
X106364569Y-112274132D01*
X106372110Y-112279305D01*
X106381004Y-112281416D01*
X106381005Y-112281416D01*
X106398000Y-112285449D01*
X106411829Y-112289823D01*
X106430051Y-112297093D01*
X106430053Y-112297093D01*
X106436541Y-112299682D01*
X106444884Y-112300500D01*
X106449834Y-112300500D01*
X106470953Y-112302971D01*
X106472063Y-112303025D01*
X106480957Y-112305136D01*
X106502355Y-112302224D01*
X106508380Y-112301404D01*
X106521730Y-112300500D01*
X106702032Y-112300500D01*
X106760223Y-112319407D01*
X106796187Y-112368907D01*
X106796187Y-112430093D01*
X106764066Y-112476654D01*
X106721505Y-112510874D01*
X106668735Y-112573763D01*
X106592202Y-112664971D01*
X106592199Y-112664975D01*
X106589093Y-112668677D01*
X106489853Y-112849194D01*
X106488389Y-112853808D01*
X106488388Y-112853811D01*
X106479368Y-112882246D01*
X106427565Y-113045549D01*
X106427025Y-113050361D01*
X106427025Y-113050362D01*
X106405143Y-113245453D01*
X106404603Y-113250263D01*
X106408548Y-113297240D01*
X106420809Y-113443257D01*
X106421840Y-113455538D01*
X106423173Y-113460186D01*
X106423173Y-113460187D01*
X106472552Y-113632389D01*
X106478621Y-113653555D01*
X106572782Y-113836773D01*
X106700737Y-113998212D01*
X106704417Y-114001344D01*
X106704419Y-114001346D01*
X106764075Y-114052117D01*
X106857612Y-114131723D01*
X106861835Y-114134083D01*
X106861839Y-114134086D01*
X106907243Y-114159461D01*
X107037432Y-114232221D01*
X107042030Y-114233715D01*
X107228742Y-114294382D01*
X107228745Y-114294383D01*
X107233347Y-114295878D01*
X107437895Y-114320269D01*
X107442717Y-114319898D01*
X107442720Y-114319898D01*
X107638458Y-114304837D01*
X107638463Y-114304836D01*
X107643286Y-114304465D01*
X107841695Y-114249068D01*
X107872089Y-114233715D01*
X108021244Y-114158371D01*
X108021246Y-114158370D01*
X108025565Y-114156188D01*
X108187893Y-114029363D01*
X108278145Y-113924805D01*
X108330478Y-113893112D01*
X108391449Y-113898231D01*
X108423089Y-113919492D01*
X108501653Y-113998056D01*
X108508590Y-114001591D01*
X108508592Y-114001592D01*
X108563161Y-114029396D01*
X108614694Y-114055653D01*
X108622388Y-114056872D01*
X108622389Y-114056872D01*
X108732304Y-114074281D01*
X108740000Y-114075500D01*
X108747696Y-114074281D01*
X108857611Y-114056872D01*
X108857612Y-114056872D01*
X108865306Y-114055653D01*
X108916839Y-114029396D01*
X108971408Y-114001592D01*
X108971410Y-114001591D01*
X108978347Y-113998056D01*
X109046082Y-113930321D01*
X109100599Y-113902544D01*
X109161031Y-113912115D01*
X109193673Y-113938831D01*
X109240737Y-113998212D01*
X109244417Y-114001344D01*
X109244419Y-114001346D01*
X109304075Y-114052117D01*
X109397612Y-114131723D01*
X109401835Y-114134083D01*
X109401839Y-114134086D01*
X109447243Y-114159461D01*
X109577432Y-114232221D01*
X109582030Y-114233715D01*
X109768742Y-114294382D01*
X109768745Y-114294383D01*
X109773347Y-114295878D01*
X109977895Y-114320269D01*
X109982717Y-114319898D01*
X109982720Y-114319898D01*
X110178458Y-114304837D01*
X110178463Y-114304836D01*
X110183286Y-114304465D01*
X110381695Y-114249068D01*
X110412089Y-114233715D01*
X110561244Y-114158371D01*
X110561246Y-114158370D01*
X110565565Y-114156188D01*
X110727893Y-114029363D01*
X110731055Y-114025700D01*
X110731060Y-114025695D01*
X110843297Y-113895666D01*
X110862496Y-113873424D01*
X110865799Y-113867611D01*
X110961858Y-113698517D01*
X110961859Y-113698514D01*
X110964247Y-113694311D01*
X110979355Y-113648897D01*
X111027743Y-113503435D01*
X111027743Y-113503433D01*
X111029270Y-113498844D01*
X111030133Y-113492018D01*
X111051763Y-113320792D01*
X111055088Y-113294471D01*
X111055131Y-113291440D01*
X111055461Y-113267776D01*
X111055500Y-113265000D01*
X111054906Y-113258938D01*
X111035870Y-113064796D01*
X111035869Y-113064792D01*
X111035398Y-113059986D01*
X111032493Y-113050362D01*
X110998108Y-112936476D01*
X110999390Y-112875304D01*
X111036382Y-112826568D01*
X111094956Y-112808884D01*
X111152738Y-112829005D01*
X111162887Y-112837858D01*
X111460059Y-113135030D01*
X111487836Y-113189547D01*
X111488438Y-113216068D01*
X111486848Y-113230251D01*
X111484603Y-113250263D01*
X111488548Y-113297240D01*
X111500809Y-113443257D01*
X111501840Y-113455538D01*
X111503173Y-113460186D01*
X111503173Y-113460187D01*
X111552552Y-113632389D01*
X111558621Y-113653555D01*
X111652782Y-113836773D01*
X111780737Y-113998212D01*
X111784417Y-114001344D01*
X111784419Y-114001346D01*
X111844075Y-114052117D01*
X111937612Y-114131723D01*
X111941835Y-114134083D01*
X111941839Y-114134086D01*
X111987243Y-114159461D01*
X112117432Y-114232221D01*
X112122030Y-114233715D01*
X112308742Y-114294382D01*
X112308745Y-114294383D01*
X112313347Y-114295878D01*
X112517895Y-114320269D01*
X112522717Y-114319898D01*
X112522720Y-114319898D01*
X112718458Y-114304837D01*
X112718463Y-114304836D01*
X112723286Y-114304465D01*
X112921695Y-114249068D01*
X112952089Y-114233715D01*
X113101244Y-114158371D01*
X113101246Y-114158370D01*
X113105565Y-114156188D01*
X113267893Y-114029363D01*
X113271055Y-114025700D01*
X113271060Y-114025695D01*
X113383297Y-113895666D01*
X113402496Y-113873424D01*
X113405799Y-113867611D01*
X113501858Y-113698517D01*
X113501859Y-113698514D01*
X113504247Y-113694311D01*
X113519355Y-113648897D01*
X113567743Y-113503435D01*
X113567743Y-113503433D01*
X113569270Y-113498844D01*
X113570133Y-113492018D01*
X113591763Y-113320792D01*
X113595088Y-113294471D01*
X113595131Y-113291440D01*
X113595461Y-113267776D01*
X113595500Y-113265000D01*
X113594906Y-113258938D01*
X113575870Y-113064796D01*
X113575869Y-113064792D01*
X113575398Y-113059986D01*
X113572493Y-113050362D01*
X113538108Y-112936476D01*
X113515858Y-112862780D01*
X113419148Y-112680895D01*
X113288952Y-112521259D01*
X113261939Y-112498912D01*
X113133955Y-112393034D01*
X113133953Y-112393033D01*
X113130228Y-112389951D01*
X112964425Y-112300301D01*
X112953277Y-112294273D01*
X112953276Y-112294272D01*
X112949023Y-112291973D01*
X112850952Y-112261615D01*
X112756859Y-112232488D01*
X112756855Y-112232487D01*
X112752238Y-112231058D01*
X112747431Y-112230553D01*
X112747427Y-112230552D01*
X112552185Y-112210032D01*
X112552183Y-112210032D01*
X112547369Y-112209526D01*
X112490637Y-112214689D01*
X112347039Y-112227757D01*
X112347036Y-112227758D01*
X112342219Y-112228196D01*
X112342051Y-112228245D01*
X112282810Y-112220766D01*
X112238205Y-112178885D01*
X112227175Y-112115698D01*
X112244281Y-112007696D01*
X112245500Y-112000000D01*
X112225653Y-111874694D01*
X112228457Y-111874250D01*
X112228465Y-111826077D01*
X112264437Y-111776583D01*
X112322631Y-111757685D01*
X112334337Y-111758381D01*
X112353450Y-111760660D01*
X112517895Y-111780269D01*
X112522717Y-111779898D01*
X112522720Y-111779898D01*
X112718458Y-111764837D01*
X112718463Y-111764836D01*
X112723286Y-111764465D01*
X112921695Y-111709068D01*
X112939017Y-111700318D01*
X113101244Y-111618371D01*
X113101246Y-111618370D01*
X113105565Y-111616188D01*
X113267893Y-111489363D01*
X113271055Y-111485700D01*
X113271060Y-111485695D01*
X113396148Y-111340778D01*
X113402496Y-111333424D01*
X113425766Y-111292463D01*
X113501858Y-111158517D01*
X113501859Y-111158514D01*
X113504247Y-111154311D01*
X113519355Y-111108897D01*
X113567743Y-110963435D01*
X113567743Y-110963433D01*
X113569270Y-110958844D01*
X113574154Y-110920187D01*
X113594740Y-110757225D01*
X113595088Y-110754471D01*
X113595500Y-110725000D01*
X113594055Y-110710263D01*
X114024603Y-110710263D01*
X114041840Y-110915538D01*
X114043173Y-110920186D01*
X114043173Y-110920187D01*
X114070400Y-111015136D01*
X114098621Y-111113555D01*
X114192782Y-111296773D01*
X114320737Y-111458212D01*
X114324417Y-111461344D01*
X114324419Y-111461346D01*
X114399523Y-111525264D01*
X114477612Y-111591723D01*
X114481835Y-111594083D01*
X114481839Y-111594086D01*
X114571238Y-111644049D01*
X114657432Y-111692221D01*
X114662030Y-111693715D01*
X114848742Y-111754382D01*
X114848745Y-111754383D01*
X114853347Y-111755878D01*
X115057895Y-111780269D01*
X115062717Y-111779898D01*
X115062720Y-111779898D01*
X115258458Y-111764837D01*
X115258463Y-111764836D01*
X115263286Y-111764465D01*
X115461695Y-111709068D01*
X115479017Y-111700318D01*
X115641244Y-111618371D01*
X115641246Y-111618370D01*
X115645565Y-111616188D01*
X115807893Y-111489363D01*
X115811055Y-111485700D01*
X115811060Y-111485695D01*
X115936148Y-111340778D01*
X115942496Y-111333424D01*
X115965766Y-111292463D01*
X116041858Y-111158517D01*
X116041859Y-111158514D01*
X116044247Y-111154311D01*
X116059355Y-111108897D01*
X116107743Y-110963435D01*
X116107743Y-110963433D01*
X116109270Y-110958844D01*
X116114154Y-110920187D01*
X116134740Y-110757225D01*
X116135088Y-110754471D01*
X116135500Y-110725000D01*
X116115398Y-110519986D01*
X116112493Y-110510362D01*
X116057256Y-110327412D01*
X116055858Y-110322780D01*
X115959148Y-110140895D01*
X115828952Y-109981259D01*
X115806095Y-109962350D01*
X115673955Y-109853034D01*
X115673953Y-109853033D01*
X115670228Y-109849951D01*
X115561051Y-109790918D01*
X115493277Y-109754273D01*
X115493276Y-109754272D01*
X115489023Y-109751973D01*
X115349951Y-109708923D01*
X115296859Y-109692488D01*
X115296855Y-109692487D01*
X115292238Y-109691058D01*
X115287431Y-109690553D01*
X115287427Y-109690552D01*
X115092185Y-109670032D01*
X115092183Y-109670032D01*
X115087369Y-109669526D01*
X115019372Y-109675714D01*
X114887039Y-109687757D01*
X114887036Y-109687758D01*
X114882219Y-109688196D01*
X114877577Y-109689562D01*
X114877573Y-109689563D01*
X114689250Y-109744989D01*
X114689247Y-109744990D01*
X114684603Y-109746357D01*
X114651000Y-109763924D01*
X114506344Y-109839548D01*
X114506340Y-109839551D01*
X114502047Y-109841795D01*
X114498271Y-109844831D01*
X114498268Y-109844833D01*
X114466672Y-109870237D01*
X114341505Y-109970874D01*
X114329643Y-109985011D01*
X114212202Y-110124971D01*
X114212199Y-110124975D01*
X114209093Y-110128677D01*
X114109853Y-110309194D01*
X114047565Y-110505549D01*
X114024603Y-110710263D01*
X113594055Y-110710263D01*
X113575398Y-110519986D01*
X113572493Y-110510362D01*
X113517256Y-110327412D01*
X113515858Y-110322780D01*
X113419148Y-110140895D01*
X113288952Y-109981259D01*
X113266095Y-109962350D01*
X113133955Y-109853034D01*
X113133953Y-109853033D01*
X113130228Y-109849951D01*
X113021051Y-109790918D01*
X112953277Y-109754273D01*
X112953276Y-109754272D01*
X112949023Y-109751973D01*
X112809951Y-109708923D01*
X112756859Y-109692488D01*
X112756855Y-109692487D01*
X112752238Y-109691058D01*
X112747431Y-109690553D01*
X112747427Y-109690552D01*
X112552185Y-109670032D01*
X112552183Y-109670032D01*
X112547369Y-109669526D01*
X112479372Y-109675714D01*
X112347039Y-109687757D01*
X112347036Y-109687758D01*
X112342219Y-109688196D01*
X112337577Y-109689562D01*
X112337573Y-109689563D01*
X112149250Y-109744989D01*
X112149247Y-109744990D01*
X112144603Y-109746357D01*
X112111000Y-109763924D01*
X111966344Y-109839548D01*
X111966340Y-109839551D01*
X111962047Y-109841795D01*
X111958271Y-109844831D01*
X111958268Y-109844833D01*
X111926672Y-109870237D01*
X111801505Y-109970874D01*
X111789643Y-109985011D01*
X111672202Y-110124971D01*
X111672199Y-110124975D01*
X111669093Y-110128677D01*
X111569853Y-110309194D01*
X111507565Y-110505549D01*
X111484603Y-110710263D01*
X111501840Y-110915538D01*
X111503173Y-110920186D01*
X111503173Y-110920187D01*
X111530400Y-111015136D01*
X111558621Y-111113555D01*
X111652782Y-111296773D01*
X111777736Y-111454425D01*
X111778086Y-111454867D01*
X111799413Y-111512215D01*
X111782959Y-111571147D01*
X111735009Y-111609152D01*
X111729738Y-111610535D01*
X111729798Y-111610721D01*
X111722389Y-111613128D01*
X111714694Y-111614347D01*
X111707754Y-111617883D01*
X111608592Y-111668408D01*
X111608590Y-111668409D01*
X111601653Y-111671944D01*
X111511944Y-111761653D01*
X111508409Y-111768590D01*
X111508408Y-111768592D01*
X111457883Y-111867754D01*
X111454347Y-111874694D01*
X111453128Y-111882388D01*
X111453128Y-111882389D01*
X111446362Y-111925108D01*
X111434500Y-112000000D01*
X111435719Y-112007696D01*
X111435719Y-112015487D01*
X111434399Y-112015487D01*
X111426108Y-112067857D01*
X111382845Y-112111124D01*
X111322414Y-112120698D01*
X111267892Y-112092920D01*
X110999328Y-111824356D01*
X110997279Y-111821982D01*
X110995261Y-111817853D01*
X110962971Y-111787900D01*
X110960295Y-111785323D01*
X110943503Y-111768531D01*
X110939744Y-111765952D01*
X110937663Y-111764223D01*
X110933606Y-111760660D01*
X110919948Y-111747990D01*
X110919945Y-111747988D01*
X110913245Y-111741773D01*
X110902564Y-111737512D01*
X110883247Y-111727197D01*
X110873771Y-111720696D01*
X110847869Y-111714549D01*
X110834066Y-111710183D01*
X110809339Y-111700318D01*
X110800996Y-111699500D01*
X110796046Y-111699500D01*
X110774927Y-111697029D01*
X110773817Y-111696975D01*
X110764923Y-111694864D01*
X110755866Y-111696097D01*
X110746736Y-111695650D01*
X110746927Y-111691752D01*
X110704232Y-111684001D01*
X110661952Y-111639774D01*
X110653743Y-111579141D01*
X110682741Y-111525264D01*
X110690201Y-111518812D01*
X110724071Y-111492350D01*
X110724076Y-111492345D01*
X110727893Y-111489363D01*
X110731055Y-111485700D01*
X110731060Y-111485695D01*
X110856148Y-111340778D01*
X110862496Y-111333424D01*
X110885766Y-111292463D01*
X110961858Y-111158517D01*
X110961859Y-111158514D01*
X110964247Y-111154311D01*
X110979355Y-111108897D01*
X111027743Y-110963435D01*
X111027743Y-110963433D01*
X111029270Y-110958844D01*
X111034154Y-110920187D01*
X111054740Y-110757225D01*
X111055088Y-110754471D01*
X111055500Y-110725000D01*
X111035398Y-110519986D01*
X111032493Y-110510362D01*
X110977256Y-110327412D01*
X110975858Y-110322780D01*
X110879148Y-110140895D01*
X110748952Y-109981259D01*
X110726095Y-109962350D01*
X110593955Y-109853034D01*
X110593953Y-109853033D01*
X110590228Y-109849951D01*
X110481051Y-109790918D01*
X110413277Y-109754273D01*
X110413276Y-109754272D01*
X110409023Y-109751973D01*
X110269951Y-109708923D01*
X110216859Y-109692488D01*
X110216855Y-109692487D01*
X110212238Y-109691058D01*
X110207431Y-109690553D01*
X110207427Y-109690552D01*
X110012185Y-109670032D01*
X110012183Y-109670032D01*
X110007369Y-109669526D01*
X109939372Y-109675714D01*
X109807039Y-109687757D01*
X109807036Y-109687758D01*
X109802219Y-109688196D01*
X109797577Y-109689562D01*
X109797573Y-109689563D01*
X109609250Y-109744989D01*
X109609247Y-109744990D01*
X109604603Y-109746357D01*
X109571000Y-109763924D01*
X109426344Y-109839548D01*
X109426340Y-109839551D01*
X109422047Y-109841795D01*
X109418271Y-109844831D01*
X109418268Y-109844833D01*
X109386672Y-109870237D01*
X109261505Y-109970874D01*
X109249643Y-109985011D01*
X109132202Y-110124971D01*
X109132199Y-110124975D01*
X109129093Y-110128677D01*
X109029853Y-110309194D01*
X108967565Y-110505549D01*
X108944603Y-110710263D01*
X108961840Y-110915538D01*
X108963173Y-110920186D01*
X108963173Y-110920187D01*
X108990400Y-111015136D01*
X109018621Y-111113555D01*
X109112782Y-111296773D01*
X109240737Y-111458212D01*
X109244417Y-111461344D01*
X109244419Y-111461346D01*
X109277339Y-111489363D01*
X109304191Y-111512215D01*
X109319340Y-111525108D01*
X109351400Y-111577221D01*
X109346706Y-111638226D01*
X109307051Y-111684821D01*
X109255176Y-111699500D01*
X108611368Y-111699500D01*
X108553177Y-111680593D01*
X108517213Y-111631093D01*
X108514473Y-111584651D01*
X108514075Y-111584612D01*
X108514322Y-111582099D01*
X108514269Y-111581193D01*
X108514552Y-111579771D01*
X108514553Y-111579761D01*
X108515500Y-111575000D01*
X108515500Y-109875000D01*
X108506787Y-109831200D01*
X108501760Y-109805924D01*
X108501759Y-109805922D01*
X108499857Y-109796359D01*
X108455310Y-109729690D01*
X108388641Y-109685143D01*
X108379078Y-109683241D01*
X108379076Y-109683240D01*
X108353800Y-109678213D01*
X108310000Y-109669500D01*
X106610000Y-109669500D01*
X106566200Y-109678213D01*
X106540924Y-109683240D01*
X106540922Y-109683241D01*
X106531359Y-109685143D01*
X106464690Y-109729690D01*
X106441815Y-109763925D01*
X106393766Y-109801804D01*
X106332628Y-109804206D01*
X106281754Y-109770213D01*
X106260500Y-109708923D01*
X106260500Y-109000000D01*
X107794500Y-109000000D01*
X107814347Y-109125306D01*
X107871944Y-109238347D01*
X107961653Y-109328056D01*
X107968590Y-109331591D01*
X107968592Y-109331592D01*
X108067754Y-109382117D01*
X108074694Y-109385653D01*
X108082388Y-109386872D01*
X108082389Y-109386872D01*
X108192304Y-109404281D01*
X108200000Y-109405500D01*
X108207696Y-109404281D01*
X108317611Y-109386872D01*
X108317612Y-109386872D01*
X108325306Y-109385653D01*
X108332246Y-109382117D01*
X108431408Y-109331592D01*
X108431410Y-109331591D01*
X108438347Y-109328056D01*
X108528056Y-109238347D01*
X108531593Y-109231406D01*
X108535444Y-109226105D01*
X108584944Y-109190141D01*
X108646130Y-109190141D01*
X108695630Y-109226105D01*
X108709868Y-109260479D01*
X108710721Y-109260202D01*
X108713128Y-109267611D01*
X108714347Y-109275306D01*
X108717883Y-109282246D01*
X108766849Y-109378347D01*
X108771944Y-109388347D01*
X108861653Y-109478056D01*
X108868590Y-109481591D01*
X108868592Y-109481592D01*
X108948128Y-109522117D01*
X108974694Y-109535653D01*
X108982388Y-109536872D01*
X108982389Y-109536872D01*
X109092304Y-109554281D01*
X109100000Y-109555500D01*
X109107696Y-109554281D01*
X109217611Y-109536872D01*
X109217612Y-109536872D01*
X109225306Y-109535653D01*
X109251872Y-109522117D01*
X109331408Y-109481592D01*
X109331410Y-109481591D01*
X109338347Y-109478056D01*
X109428056Y-109388347D01*
X109433152Y-109378347D01*
X109482117Y-109282246D01*
X109485653Y-109275306D01*
X109488002Y-109260479D01*
X109504281Y-109157696D01*
X109505500Y-109150000D01*
X109503916Y-109140000D01*
X110404500Y-109140000D01*
X110405719Y-109147696D01*
X110420950Y-109243856D01*
X110424347Y-109265306D01*
X110427883Y-109272246D01*
X110456320Y-109328056D01*
X110481944Y-109378347D01*
X110571653Y-109468056D01*
X110578590Y-109471591D01*
X110578592Y-109471592D01*
X110677754Y-109522117D01*
X110684694Y-109525653D01*
X110692388Y-109526872D01*
X110692389Y-109526872D01*
X110802304Y-109544281D01*
X110810000Y-109545500D01*
X110817696Y-109544281D01*
X110927611Y-109526872D01*
X110927612Y-109526872D01*
X110935306Y-109525653D01*
X110942246Y-109522117D01*
X111041408Y-109471592D01*
X111041410Y-109471591D01*
X111048347Y-109468056D01*
X111138056Y-109378347D01*
X111163681Y-109328056D01*
X111192117Y-109272246D01*
X111195653Y-109265306D01*
X111199051Y-109243856D01*
X111214281Y-109147696D01*
X111215500Y-109140000D01*
X111195653Y-109014694D01*
X111184245Y-108992304D01*
X111141592Y-108908592D01*
X111141591Y-108908590D01*
X111138056Y-108901653D01*
X111048347Y-108811944D01*
X111041410Y-108808409D01*
X111041408Y-108808408D01*
X110942246Y-108757883D01*
X110935306Y-108754347D01*
X110927612Y-108753128D01*
X110927611Y-108753128D01*
X110817696Y-108735719D01*
X110810000Y-108734500D01*
X110802304Y-108735719D01*
X110692389Y-108753128D01*
X110692388Y-108753128D01*
X110684694Y-108754347D01*
X110677754Y-108757883D01*
X110578592Y-108808408D01*
X110578590Y-108808409D01*
X110571653Y-108811944D01*
X110481944Y-108901653D01*
X110478409Y-108908590D01*
X110478408Y-108908592D01*
X110435755Y-108992304D01*
X110424347Y-109014694D01*
X110404500Y-109140000D01*
X109503916Y-109140000D01*
X109485653Y-109024694D01*
X109428056Y-108911653D01*
X109338347Y-108821944D01*
X109331410Y-108818409D01*
X109331408Y-108818408D01*
X109232246Y-108767883D01*
X109225306Y-108764347D01*
X109217612Y-108763128D01*
X109217611Y-108763128D01*
X109107696Y-108745719D01*
X109100000Y-108744500D01*
X109092304Y-108745719D01*
X108982389Y-108763128D01*
X108982388Y-108763128D01*
X108974694Y-108764347D01*
X108967754Y-108767883D01*
X108868592Y-108818408D01*
X108868590Y-108818409D01*
X108861653Y-108821944D01*
X108771944Y-108911653D01*
X108768407Y-108918594D01*
X108764556Y-108923895D01*
X108715056Y-108959859D01*
X108653870Y-108959859D01*
X108604370Y-108923895D01*
X108590132Y-108889521D01*
X108589279Y-108889798D01*
X108586872Y-108882389D01*
X108585653Y-108874694D01*
X108556486Y-108817450D01*
X108531592Y-108768592D01*
X108531591Y-108768590D01*
X108528056Y-108761653D01*
X108438347Y-108671944D01*
X108431410Y-108668409D01*
X108431408Y-108668408D01*
X108332246Y-108617883D01*
X108325306Y-108614347D01*
X108317612Y-108613128D01*
X108317611Y-108613128D01*
X108207696Y-108595719D01*
X108200000Y-108594500D01*
X108192304Y-108595719D01*
X108082389Y-108613128D01*
X108082388Y-108613128D01*
X108074694Y-108614347D01*
X108067754Y-108617883D01*
X107968592Y-108668408D01*
X107968590Y-108668409D01*
X107961653Y-108671944D01*
X107871944Y-108761653D01*
X107868409Y-108768590D01*
X107868408Y-108768592D01*
X107843514Y-108817450D01*
X107814347Y-108874694D01*
X107813128Y-108882388D01*
X107813128Y-108882389D01*
X107808978Y-108908592D01*
X107794500Y-109000000D01*
X106260500Y-109000000D01*
X106260500Y-107900000D01*
X106745480Y-107900000D01*
X106765327Y-108025306D01*
X106768863Y-108032246D01*
X106810035Y-108113050D01*
X106822924Y-108138347D01*
X106912633Y-108228056D01*
X106919570Y-108231591D01*
X106919572Y-108231592D01*
X106999620Y-108272378D01*
X107025674Y-108285653D01*
X107033368Y-108286872D01*
X107033369Y-108286872D01*
X107143284Y-108304281D01*
X107150980Y-108305500D01*
X107158676Y-108304281D01*
X107268591Y-108286872D01*
X107268592Y-108286872D01*
X107276286Y-108285653D01*
X107302340Y-108272378D01*
X107382388Y-108231592D01*
X107382390Y-108231591D01*
X107389327Y-108228056D01*
X107479036Y-108138347D01*
X107491926Y-108113050D01*
X107533097Y-108032246D01*
X107536633Y-108025306D01*
X107556480Y-107900000D01*
X107536633Y-107774694D01*
X107516042Y-107734281D01*
X107482572Y-107668592D01*
X107482571Y-107668590D01*
X107479036Y-107661653D01*
X107389327Y-107571944D01*
X107382390Y-107568409D01*
X107382388Y-107568408D01*
X107283226Y-107517883D01*
X107276286Y-107514347D01*
X107268592Y-107513128D01*
X107268591Y-107513128D01*
X107158676Y-107495719D01*
X107150980Y-107494500D01*
X107143284Y-107495719D01*
X107033369Y-107513128D01*
X107033368Y-107513128D01*
X107025674Y-107514347D01*
X107018734Y-107517883D01*
X106919572Y-107568408D01*
X106919570Y-107568409D01*
X106912633Y-107571944D01*
X106822924Y-107661653D01*
X106819389Y-107668590D01*
X106819388Y-107668592D01*
X106785918Y-107734281D01*
X106765327Y-107774694D01*
X106745480Y-107900000D01*
X106260500Y-107900000D01*
X106260500Y-107330000D01*
X108174500Y-107330000D01*
X108175719Y-107337696D01*
X108193024Y-107446950D01*
X108194347Y-107455306D01*
X108197883Y-107462246D01*
X108224430Y-107514347D01*
X108251944Y-107568347D01*
X108341653Y-107658056D01*
X108348590Y-107661591D01*
X108348592Y-107661592D01*
X108447754Y-107712117D01*
X108454694Y-107715653D01*
X108462388Y-107716872D01*
X108462389Y-107716872D01*
X108572304Y-107734281D01*
X108580000Y-107735500D01*
X108587696Y-107734281D01*
X108697611Y-107716872D01*
X108697612Y-107716872D01*
X108705306Y-107715653D01*
X108712246Y-107712117D01*
X108811408Y-107661592D01*
X108811410Y-107661591D01*
X108818347Y-107658056D01*
X108908056Y-107568347D01*
X108935571Y-107514347D01*
X108962117Y-107462246D01*
X108965653Y-107455306D01*
X108966977Y-107446950D01*
X108984281Y-107337696D01*
X108985500Y-107330000D01*
X108965653Y-107204694D01*
X108908056Y-107091653D01*
X108818347Y-107001944D01*
X108811410Y-106998409D01*
X108811408Y-106998408D01*
X108712246Y-106947883D01*
X108705306Y-106944347D01*
X108697612Y-106943128D01*
X108697611Y-106943128D01*
X108587696Y-106925719D01*
X108580000Y-106924500D01*
X108572304Y-106925719D01*
X108462389Y-106943128D01*
X108462388Y-106943128D01*
X108454694Y-106944347D01*
X108447754Y-106947883D01*
X108348592Y-106998408D01*
X108348590Y-106998409D01*
X108341653Y-107001944D01*
X108251944Y-107091653D01*
X108194347Y-107204694D01*
X108174500Y-107330000D01*
X106260500Y-107330000D01*
X106260500Y-104000000D01*
X110094500Y-104000000D01*
X110114347Y-104125306D01*
X110171944Y-104238347D01*
X110261653Y-104328056D01*
X110268590Y-104331591D01*
X110268592Y-104331592D01*
X110367754Y-104382117D01*
X110374694Y-104385653D01*
X110382388Y-104386872D01*
X110382389Y-104386872D01*
X110492304Y-104404281D01*
X110500000Y-104405500D01*
X110507696Y-104404281D01*
X110617611Y-104386872D01*
X110617612Y-104386872D01*
X110625306Y-104385653D01*
X110632246Y-104382117D01*
X110731408Y-104331592D01*
X110731410Y-104331591D01*
X110738347Y-104328056D01*
X110828056Y-104238347D01*
X110885653Y-104125306D01*
X110905500Y-104000000D01*
X112094500Y-104000000D01*
X112114347Y-104125306D01*
X112171944Y-104238347D01*
X112261653Y-104328056D01*
X112268590Y-104331591D01*
X112268592Y-104331592D01*
X112367754Y-104382117D01*
X112374694Y-104385653D01*
X112382388Y-104386872D01*
X112382389Y-104386872D01*
X112492304Y-104404281D01*
X112500000Y-104405500D01*
X112507696Y-104404281D01*
X112617611Y-104386872D01*
X112617612Y-104386872D01*
X112625306Y-104385653D01*
X112632246Y-104382117D01*
X112731408Y-104331592D01*
X112731410Y-104331591D01*
X112738347Y-104328056D01*
X112828056Y-104238347D01*
X112885653Y-104125306D01*
X112905500Y-104000000D01*
X112885653Y-103874694D01*
X112851136Y-103806950D01*
X112831592Y-103768592D01*
X112831591Y-103768590D01*
X112828056Y-103761653D01*
X112738347Y-103671944D01*
X112731410Y-103668409D01*
X112731408Y-103668408D01*
X112632246Y-103617883D01*
X112625306Y-103614347D01*
X112617612Y-103613128D01*
X112617611Y-103613128D01*
X112507696Y-103595719D01*
X112500000Y-103594500D01*
X112492304Y-103595719D01*
X112382389Y-103613128D01*
X112382388Y-103613128D01*
X112374694Y-103614347D01*
X112367754Y-103617883D01*
X112268592Y-103668408D01*
X112268590Y-103668409D01*
X112261653Y-103671944D01*
X112171944Y-103761653D01*
X112168409Y-103768590D01*
X112168408Y-103768592D01*
X112148864Y-103806950D01*
X112114347Y-103874694D01*
X112094500Y-104000000D01*
X110905500Y-104000000D01*
X110885653Y-103874694D01*
X110851136Y-103806950D01*
X110831592Y-103768592D01*
X110831591Y-103768590D01*
X110828056Y-103761653D01*
X110738347Y-103671944D01*
X110731410Y-103668409D01*
X110731408Y-103668408D01*
X110632246Y-103617883D01*
X110625306Y-103614347D01*
X110617612Y-103613128D01*
X110617611Y-103613128D01*
X110507696Y-103595719D01*
X110500000Y-103594500D01*
X110492304Y-103595719D01*
X110382389Y-103613128D01*
X110382388Y-103613128D01*
X110374694Y-103614347D01*
X110367754Y-103617883D01*
X110268592Y-103668408D01*
X110268590Y-103668409D01*
X110261653Y-103671944D01*
X110171944Y-103761653D01*
X110168409Y-103768590D01*
X110168408Y-103768592D01*
X110148864Y-103806950D01*
X110114347Y-103874694D01*
X110094500Y-104000000D01*
X106260500Y-104000000D01*
X106260500Y-103000000D01*
X111094500Y-103000000D01*
X111114347Y-103125306D01*
X111117883Y-103132246D01*
X111155769Y-103206601D01*
X111171944Y-103238347D01*
X111261653Y-103328056D01*
X111268590Y-103331591D01*
X111268592Y-103331592D01*
X111352098Y-103374140D01*
X111374694Y-103385653D01*
X111382388Y-103386872D01*
X111382389Y-103386872D01*
X111492304Y-103404281D01*
X111500000Y-103405500D01*
X111507696Y-103404281D01*
X111617611Y-103386872D01*
X111617612Y-103386872D01*
X111625306Y-103385653D01*
X111647902Y-103374140D01*
X111731408Y-103331592D01*
X111731410Y-103331591D01*
X111738347Y-103328056D01*
X111828056Y-103238347D01*
X111840311Y-103214297D01*
X116058797Y-103214297D01*
X116078644Y-103339603D01*
X116082180Y-103346543D01*
X116102729Y-103386872D01*
X116136241Y-103452644D01*
X116225950Y-103542353D01*
X116232887Y-103545888D01*
X116232889Y-103545889D01*
X116269306Y-103564444D01*
X116338991Y-103599950D01*
X116346685Y-103601169D01*
X116346686Y-103601169D01*
X116456601Y-103618578D01*
X116464297Y-103619797D01*
X116471993Y-103618578D01*
X116581908Y-103601169D01*
X116581909Y-103601169D01*
X116589603Y-103599950D01*
X116659288Y-103564444D01*
X116695705Y-103545889D01*
X116695707Y-103545888D01*
X116702644Y-103542353D01*
X116708150Y-103536847D01*
X116708154Y-103536844D01*
X116754315Y-103490684D01*
X116808832Y-103462907D01*
X116869264Y-103472479D01*
X116894322Y-103490684D01*
X116973588Y-103569950D01*
X116980525Y-103573485D01*
X116980527Y-103573486D01*
X117079689Y-103624011D01*
X117086629Y-103627547D01*
X117094323Y-103628766D01*
X117094324Y-103628766D01*
X117204239Y-103646175D01*
X117211935Y-103647394D01*
X117219631Y-103646175D01*
X117329546Y-103628766D01*
X117329547Y-103628766D01*
X117337241Y-103627547D01*
X117344181Y-103624011D01*
X117443343Y-103573486D01*
X117443345Y-103573485D01*
X117450282Y-103569950D01*
X117539991Y-103480241D01*
X117550277Y-103460055D01*
X117594052Y-103374140D01*
X117597588Y-103367200D01*
X117617435Y-103241894D01*
X117597588Y-103116588D01*
X117594052Y-103109648D01*
X117543527Y-103010486D01*
X117543526Y-103010484D01*
X117539991Y-103003547D01*
X117450282Y-102913838D01*
X117443345Y-102910303D01*
X117443343Y-102910302D01*
X117344181Y-102859777D01*
X117337241Y-102856241D01*
X117329547Y-102855022D01*
X117329546Y-102855022D01*
X117219631Y-102837613D01*
X117211935Y-102836394D01*
X117204239Y-102837613D01*
X117094324Y-102855022D01*
X117094323Y-102855022D01*
X117086629Y-102856241D01*
X117079689Y-102859777D01*
X116980527Y-102910302D01*
X116980525Y-102910303D01*
X116973588Y-102913838D01*
X116968082Y-102919344D01*
X116968078Y-102919347D01*
X116921919Y-102965507D01*
X116867403Y-102993285D01*
X116806971Y-102983714D01*
X116781911Y-102965508D01*
X116702644Y-102886241D01*
X116695707Y-102882706D01*
X116695705Y-102882705D01*
X116596543Y-102832180D01*
X116589603Y-102828644D01*
X116581909Y-102827425D01*
X116581908Y-102827425D01*
X116471993Y-102810016D01*
X116464297Y-102808797D01*
X116456601Y-102810016D01*
X116346686Y-102827425D01*
X116346685Y-102827425D01*
X116338991Y-102828644D01*
X116332051Y-102832180D01*
X116232889Y-102882705D01*
X116232887Y-102882706D01*
X116225950Y-102886241D01*
X116136241Y-102975950D01*
X116132706Y-102982887D01*
X116132705Y-102982889D01*
X116118644Y-103010486D01*
X116078644Y-103088991D01*
X116058797Y-103214297D01*
X111840311Y-103214297D01*
X111844232Y-103206601D01*
X111882117Y-103132246D01*
X111885653Y-103125306D01*
X111905500Y-103000000D01*
X111885653Y-102874694D01*
X111882117Y-102867754D01*
X111831592Y-102768592D01*
X111831591Y-102768590D01*
X111828056Y-102761653D01*
X111738347Y-102671944D01*
X111731410Y-102668409D01*
X111731408Y-102668408D01*
X111632246Y-102617883D01*
X111625306Y-102614347D01*
X111617612Y-102613128D01*
X111617611Y-102613128D01*
X111507696Y-102595719D01*
X111500000Y-102594500D01*
X111492304Y-102595719D01*
X111382389Y-102613128D01*
X111382388Y-102613128D01*
X111374694Y-102614347D01*
X111367754Y-102617883D01*
X111268592Y-102668408D01*
X111268590Y-102668409D01*
X111261653Y-102671944D01*
X111171944Y-102761653D01*
X111168409Y-102768590D01*
X111168408Y-102768592D01*
X111117883Y-102867754D01*
X111114347Y-102874694D01*
X111094500Y-103000000D01*
X106260500Y-103000000D01*
X106260500Y-102000000D01*
X110094500Y-102000000D01*
X110095719Y-102007696D01*
X110113024Y-102116950D01*
X110114347Y-102125306D01*
X110171944Y-102238347D01*
X110261653Y-102328056D01*
X110268590Y-102331591D01*
X110268592Y-102331592D01*
X110367754Y-102382117D01*
X110374694Y-102385653D01*
X110382388Y-102386872D01*
X110382389Y-102386872D01*
X110492304Y-102404281D01*
X110500000Y-102405500D01*
X110507696Y-102404281D01*
X110617611Y-102386872D01*
X110617612Y-102386872D01*
X110625306Y-102385653D01*
X110632246Y-102382117D01*
X110731408Y-102331592D01*
X110731410Y-102331591D01*
X110738347Y-102328056D01*
X110828056Y-102238347D01*
X110885653Y-102125306D01*
X110886977Y-102116950D01*
X110904281Y-102007696D01*
X110905500Y-102000000D01*
X112094500Y-102000000D01*
X112095719Y-102007696D01*
X112113024Y-102116950D01*
X112114347Y-102125306D01*
X112171944Y-102238347D01*
X112261653Y-102328056D01*
X112268590Y-102331591D01*
X112268592Y-102331592D01*
X112367754Y-102382117D01*
X112374694Y-102385653D01*
X112382388Y-102386872D01*
X112382389Y-102386872D01*
X112492304Y-102404281D01*
X112500000Y-102405500D01*
X112507696Y-102404281D01*
X112617611Y-102386872D01*
X112617612Y-102386872D01*
X112625306Y-102385653D01*
X112632246Y-102382117D01*
X112731408Y-102331592D01*
X112731410Y-102331591D01*
X112738347Y-102328056D01*
X112828056Y-102238347D01*
X112885653Y-102125306D01*
X112886977Y-102116950D01*
X112904281Y-102007696D01*
X112905500Y-102000000D01*
X112885653Y-101874694D01*
X112828056Y-101761653D01*
X112738347Y-101671944D01*
X112731410Y-101668409D01*
X112731408Y-101668408D01*
X112632246Y-101617883D01*
X112625306Y-101614347D01*
X112617612Y-101613128D01*
X112617611Y-101613128D01*
X112507696Y-101595719D01*
X112500000Y-101594500D01*
X112492304Y-101595719D01*
X112382389Y-101613128D01*
X112382388Y-101613128D01*
X112374694Y-101614347D01*
X112367754Y-101617883D01*
X112268592Y-101668408D01*
X112268590Y-101668409D01*
X112261653Y-101671944D01*
X112171944Y-101761653D01*
X112114347Y-101874694D01*
X112094500Y-102000000D01*
X110905500Y-102000000D01*
X110885653Y-101874694D01*
X110828056Y-101761653D01*
X110738347Y-101671944D01*
X110731410Y-101668409D01*
X110731408Y-101668408D01*
X110632246Y-101617883D01*
X110625306Y-101614347D01*
X110617612Y-101613128D01*
X110617611Y-101613128D01*
X110507696Y-101595719D01*
X110500000Y-101594500D01*
X110492304Y-101595719D01*
X110382389Y-101613128D01*
X110382388Y-101613128D01*
X110374694Y-101614347D01*
X110367754Y-101617883D01*
X110268592Y-101668408D01*
X110268590Y-101668409D01*
X110261653Y-101671944D01*
X110171944Y-101761653D01*
X110114347Y-101874694D01*
X110094500Y-102000000D01*
X106260500Y-102000000D01*
X106260500Y-100355479D01*
X106279407Y-100297288D01*
X106289496Y-100285475D01*
X107014971Y-99560000D01*
X115184500Y-99560000D01*
X115185719Y-99567696D01*
X115202231Y-99671944D01*
X115204347Y-99685306D01*
X115207883Y-99692246D01*
X115243248Y-99761653D01*
X115261944Y-99798347D01*
X115351653Y-99888056D01*
X115358590Y-99891591D01*
X115358592Y-99891592D01*
X115437543Y-99931819D01*
X115464694Y-99945653D01*
X115472388Y-99946872D01*
X115472389Y-99946872D01*
X115582304Y-99964281D01*
X115590000Y-99965500D01*
X115597696Y-99964281D01*
X115707611Y-99946872D01*
X115707612Y-99946872D01*
X115715306Y-99945653D01*
X115742457Y-99931819D01*
X115821408Y-99891592D01*
X115821410Y-99891591D01*
X115828347Y-99888056D01*
X115918056Y-99798347D01*
X115936753Y-99761653D01*
X115972117Y-99692246D01*
X115975653Y-99685306D01*
X115977770Y-99671944D01*
X115994281Y-99567696D01*
X115995500Y-99560000D01*
X115987473Y-99509319D01*
X115976872Y-99442389D01*
X115976872Y-99442388D01*
X115975653Y-99434694D01*
X115960083Y-99404136D01*
X115921592Y-99328592D01*
X115921591Y-99328590D01*
X115918056Y-99321653D01*
X115828347Y-99231944D01*
X115821410Y-99228409D01*
X115821408Y-99228408D01*
X115722246Y-99177883D01*
X115715306Y-99174347D01*
X115707612Y-99173128D01*
X115707611Y-99173128D01*
X115597696Y-99155719D01*
X115590000Y-99154500D01*
X115582304Y-99155719D01*
X115472389Y-99173128D01*
X115472388Y-99173128D01*
X115464694Y-99174347D01*
X115457754Y-99177883D01*
X115358592Y-99228408D01*
X115358590Y-99228409D01*
X115351653Y-99231944D01*
X115261944Y-99321653D01*
X115258409Y-99328590D01*
X115258408Y-99328592D01*
X115219917Y-99404136D01*
X115204347Y-99434694D01*
X115203128Y-99442388D01*
X115203128Y-99442389D01*
X115192527Y-99509319D01*
X115184500Y-99560000D01*
X107014971Y-99560000D01*
X107886262Y-98688709D01*
X107940779Y-98660932D01*
X107956266Y-98659713D01*
X109178905Y-98659713D01*
X109237096Y-98678620D01*
X109273060Y-98728120D01*
X109276686Y-98774199D01*
X109263298Y-98858724D01*
X109264517Y-98866420D01*
X109275771Y-98937471D01*
X109283145Y-98984030D01*
X109286681Y-98990970D01*
X109333123Y-99082117D01*
X109340742Y-99097071D01*
X109430451Y-99186780D01*
X109437388Y-99190315D01*
X109437390Y-99190316D01*
X109529897Y-99237450D01*
X109543492Y-99244377D01*
X109551186Y-99245596D01*
X109551187Y-99245596D01*
X109661102Y-99263005D01*
X109668798Y-99264224D01*
X109676494Y-99263005D01*
X109786409Y-99245596D01*
X109786410Y-99245596D01*
X109794104Y-99244377D01*
X109807699Y-99237450D01*
X109900206Y-99190316D01*
X109900208Y-99190315D01*
X109907145Y-99186780D01*
X109996854Y-99097071D01*
X110004474Y-99082117D01*
X110050915Y-98990970D01*
X110054451Y-98984030D01*
X110061826Y-98937471D01*
X110073924Y-98861085D01*
X110101702Y-98806568D01*
X110156218Y-98778791D01*
X110160143Y-98778482D01*
X110162095Y-98778791D01*
X110242011Y-98766133D01*
X110279706Y-98760163D01*
X110279707Y-98760163D01*
X110287401Y-98758944D01*
X110302647Y-98751176D01*
X110310206Y-98747325D01*
X110370638Y-98737755D01*
X110425154Y-98765534D01*
X110443359Y-98790591D01*
X110474873Y-98852441D01*
X110480873Y-98864217D01*
X110570582Y-98953926D01*
X110577519Y-98957461D01*
X110577521Y-98957462D01*
X110668709Y-99003924D01*
X110683623Y-99011523D01*
X110691317Y-99012742D01*
X110691318Y-99012742D01*
X110801233Y-99030151D01*
X110808929Y-99031370D01*
X110816625Y-99030151D01*
X110926540Y-99012742D01*
X110926541Y-99012742D01*
X110934235Y-99011523D01*
X110949149Y-99003924D01*
X111040337Y-98957462D01*
X111040339Y-98957461D01*
X111047276Y-98953926D01*
X111052782Y-98948420D01*
X111059090Y-98943837D01*
X111060155Y-98945303D01*
X111105994Y-98921948D01*
X111166426Y-98931519D01*
X111168774Y-98932958D01*
X111169751Y-98933935D01*
X111173412Y-98935800D01*
X111173413Y-98935801D01*
X111252966Y-98976335D01*
X111282792Y-98991532D01*
X111290486Y-98992751D01*
X111290487Y-98992751D01*
X111400402Y-99010160D01*
X111408098Y-99011379D01*
X111415794Y-99010160D01*
X111525709Y-98992751D01*
X111525710Y-98992751D01*
X111533404Y-98991532D01*
X111563230Y-98976335D01*
X111639506Y-98937471D01*
X111639508Y-98937470D01*
X111646445Y-98933935D01*
X111651950Y-98928430D01*
X111651957Y-98928425D01*
X111657214Y-98923168D01*
X111711732Y-98895393D01*
X111772163Y-98904967D01*
X111797218Y-98923171D01*
X111819155Y-98945108D01*
X111826092Y-98948643D01*
X111826094Y-98948644D01*
X111912660Y-98992751D01*
X111932196Y-99002705D01*
X111939890Y-99003924D01*
X111939891Y-99003924D01*
X112049806Y-99021333D01*
X112057502Y-99022552D01*
X112065198Y-99021333D01*
X112175113Y-99003924D01*
X112175114Y-99003924D01*
X112182808Y-99002705D01*
X112202344Y-98992751D01*
X112288910Y-98948644D01*
X112288912Y-98948643D01*
X112295849Y-98945108D01*
X112305023Y-98935934D01*
X112359540Y-98908157D01*
X112419972Y-98917728D01*
X112445031Y-98935934D01*
X112462153Y-98953056D01*
X112469090Y-98956591D01*
X112469092Y-98956592D01*
X112566350Y-99006147D01*
X112575194Y-99010653D01*
X112582888Y-99011872D01*
X112582889Y-99011872D01*
X112692804Y-99029281D01*
X112700500Y-99030500D01*
X112708196Y-99029281D01*
X112818111Y-99011872D01*
X112818112Y-99011872D01*
X112825806Y-99010653D01*
X112834650Y-99006147D01*
X112931908Y-98956592D01*
X112931910Y-98956591D01*
X112938847Y-98953056D01*
X113028556Y-98863347D01*
X113034833Y-98851029D01*
X113082617Y-98757246D01*
X113086153Y-98750306D01*
X113106000Y-98625000D01*
X113094992Y-98555500D01*
X113087372Y-98507389D01*
X113087372Y-98507388D01*
X113086153Y-98499694D01*
X113066770Y-98461653D01*
X113032092Y-98393592D01*
X113032091Y-98393590D01*
X113028556Y-98386653D01*
X112938847Y-98296944D01*
X112931910Y-98293409D01*
X112931908Y-98293408D01*
X112832746Y-98242883D01*
X112825806Y-98239347D01*
X112818112Y-98238128D01*
X112818111Y-98238128D01*
X112708196Y-98220719D01*
X112700500Y-98219500D01*
X112692804Y-98220719D01*
X112582889Y-98238128D01*
X112582888Y-98238128D01*
X112575194Y-98239347D01*
X112568254Y-98242883D01*
X112469092Y-98293408D01*
X112469090Y-98293409D01*
X112462153Y-98296944D01*
X112452979Y-98306118D01*
X112398462Y-98333895D01*
X112338030Y-98324324D01*
X112312971Y-98306118D01*
X112295849Y-98288996D01*
X112288912Y-98285461D01*
X112288910Y-98285460D01*
X112189748Y-98234935D01*
X112182808Y-98231399D01*
X112175114Y-98230180D01*
X112175113Y-98230180D01*
X112065198Y-98212771D01*
X112057502Y-98211552D01*
X112049806Y-98212771D01*
X111939891Y-98230180D01*
X111939890Y-98230180D01*
X111932196Y-98231399D01*
X111925256Y-98234935D01*
X111826094Y-98285460D01*
X111826092Y-98285461D01*
X111819155Y-98288996D01*
X111808394Y-98299757D01*
X111753879Y-98327537D01*
X111693446Y-98317969D01*
X111668383Y-98299761D01*
X111646445Y-98277823D01*
X111639508Y-98274288D01*
X111639506Y-98274287D01*
X111540344Y-98223762D01*
X111533404Y-98220226D01*
X111525710Y-98219007D01*
X111525709Y-98219007D01*
X111415794Y-98201598D01*
X111408098Y-98200379D01*
X111400402Y-98201598D01*
X111290487Y-98219007D01*
X111290486Y-98219007D01*
X111282792Y-98220226D01*
X111275852Y-98223762D01*
X111176690Y-98274287D01*
X111176688Y-98274288D01*
X111169751Y-98277823D01*
X111164245Y-98283329D01*
X111157937Y-98287912D01*
X111156872Y-98286446D01*
X111111033Y-98309801D01*
X111050601Y-98300230D01*
X111048253Y-98298791D01*
X111047276Y-98297814D01*
X111039642Y-98293924D01*
X110941175Y-98243753D01*
X110934235Y-98240217D01*
X110926541Y-98238998D01*
X110926540Y-98238998D01*
X110816625Y-98221589D01*
X110808929Y-98220370D01*
X110801233Y-98221589D01*
X110691318Y-98238998D01*
X110691317Y-98238998D01*
X110683623Y-98240217D01*
X110676682Y-98243754D01*
X110676681Y-98243754D01*
X110660818Y-98251836D01*
X110600386Y-98261406D01*
X110545870Y-98233627D01*
X110527665Y-98208570D01*
X110523299Y-98200000D01*
X110518832Y-98191234D01*
X110493687Y-98141883D01*
X110493686Y-98141881D01*
X110490151Y-98134944D01*
X110400442Y-98045235D01*
X110393505Y-98041700D01*
X110393503Y-98041699D01*
X110294341Y-97991174D01*
X110287401Y-97987638D01*
X110279707Y-97986419D01*
X110279706Y-97986419D01*
X110174040Y-97969683D01*
X110162095Y-97967791D01*
X110150150Y-97969683D01*
X110044484Y-97986419D01*
X110044483Y-97986419D01*
X110036789Y-97987638D01*
X109923748Y-98045235D01*
X109922731Y-98043239D01*
X109875103Y-98058713D01*
X107842895Y-98058713D01*
X107839763Y-98058483D01*
X107835415Y-98056990D01*
X107826279Y-98057333D01*
X107791386Y-98058643D01*
X107787672Y-98058713D01*
X107763941Y-98058713D01*
X107759457Y-98059548D01*
X107756783Y-98059795D01*
X107751398Y-98060144D01*
X107732758Y-98060844D01*
X107732757Y-98060844D01*
X107723625Y-98061187D01*
X107715230Y-98064793D01*
X107715228Y-98064794D01*
X107713057Y-98065727D01*
X107692113Y-98072090D01*
X107690619Y-98072369D01*
X107689795Y-98072522D01*
X107689794Y-98072522D01*
X107680808Y-98074196D01*
X107673026Y-98078993D01*
X107673023Y-98078994D01*
X107658151Y-98088161D01*
X107645288Y-98094843D01*
X107620839Y-98105347D01*
X107614361Y-98110668D01*
X107610858Y-98114171D01*
X107594183Y-98127352D01*
X107593358Y-98128100D01*
X107585576Y-98132897D01*
X107580044Y-98140172D01*
X107580043Y-98140173D01*
X107568831Y-98154918D01*
X107560031Y-98164998D01*
X105784356Y-99940672D01*
X105781982Y-99942721D01*
X105777853Y-99944739D01*
X105771636Y-99951441D01*
X105747900Y-99977029D01*
X105745323Y-99979705D01*
X105728531Y-99996497D01*
X105725952Y-100000256D01*
X105724223Y-100002337D01*
X105720660Y-100006394D01*
X105707990Y-100020052D01*
X105707988Y-100020055D01*
X105701773Y-100026755D01*
X105697512Y-100037436D01*
X105687197Y-100056753D01*
X105680696Y-100066229D01*
X105674549Y-100092131D01*
X105670183Y-100105934D01*
X105660318Y-100130661D01*
X105659500Y-100139004D01*
X105659500Y-100143954D01*
X105657029Y-100165073D01*
X105656975Y-100166183D01*
X105654864Y-100175077D01*
X105200500Y-100175077D01*
X105200500Y-99996950D01*
X104968554Y-99765004D01*
X104940777Y-99710487D01*
X104950348Y-99650055D01*
X104968554Y-99624996D01*
X105200500Y-99393050D01*
X105200500Y-98726950D01*
X104968554Y-98495004D01*
X104940777Y-98440487D01*
X104950348Y-98380055D01*
X104968554Y-98354996D01*
X105123550Y-98200000D01*
X106244500Y-98200000D01*
X106247589Y-98219500D01*
X106262036Y-98310713D01*
X106264347Y-98325306D01*
X106267883Y-98332246D01*
X106313131Y-98421050D01*
X106321944Y-98438347D01*
X106411653Y-98528056D01*
X106418590Y-98531591D01*
X106418592Y-98531592D01*
X106517754Y-98582117D01*
X106524694Y-98585653D01*
X106532388Y-98586872D01*
X106532389Y-98586872D01*
X106642304Y-98604281D01*
X106650000Y-98605500D01*
X106657696Y-98604281D01*
X106767611Y-98586872D01*
X106767612Y-98586872D01*
X106775306Y-98585653D01*
X106782246Y-98582117D01*
X106881408Y-98531592D01*
X106881410Y-98531591D01*
X106888347Y-98528056D01*
X106978056Y-98438347D01*
X106986870Y-98421050D01*
X107032117Y-98332246D01*
X107035653Y-98325306D01*
X107037965Y-98310713D01*
X107052411Y-98219500D01*
X107055500Y-98200000D01*
X107044211Y-98128726D01*
X107036872Y-98082389D01*
X107036872Y-98082388D01*
X107035653Y-98074694D01*
X107028596Y-98060844D01*
X106981592Y-97968592D01*
X106981591Y-97968590D01*
X106978056Y-97961653D01*
X106888347Y-97871944D01*
X106881410Y-97868409D01*
X106881408Y-97868408D01*
X106782246Y-97817883D01*
X106775306Y-97814347D01*
X106767612Y-97813128D01*
X106767611Y-97813128D01*
X106677298Y-97798824D01*
X106650000Y-97794500D01*
X106622702Y-97798824D01*
X106532389Y-97813128D01*
X106532388Y-97813128D01*
X106524694Y-97814347D01*
X106517754Y-97817883D01*
X106418592Y-97868408D01*
X106418590Y-97868409D01*
X106411653Y-97871944D01*
X106321944Y-97961653D01*
X106318409Y-97968590D01*
X106318408Y-97968592D01*
X106271404Y-98060844D01*
X106264347Y-98074694D01*
X106263128Y-98082388D01*
X106263128Y-98082389D01*
X106255789Y-98128726D01*
X106244500Y-98200000D01*
X105123550Y-98200000D01*
X105200500Y-98123050D01*
X105200500Y-97456950D01*
X104971150Y-97227600D01*
X107319500Y-97227600D01*
X107320719Y-97235296D01*
X107335397Y-97327965D01*
X107339347Y-97352906D01*
X107342883Y-97359846D01*
X107392645Y-97457509D01*
X107396944Y-97465947D01*
X107486653Y-97555656D01*
X107493590Y-97559191D01*
X107493592Y-97559192D01*
X107582468Y-97604476D01*
X107599694Y-97613253D01*
X107607388Y-97614472D01*
X107607389Y-97614472D01*
X107717304Y-97631881D01*
X107725000Y-97633100D01*
X107732696Y-97631881D01*
X107842611Y-97614472D01*
X107842612Y-97614472D01*
X107850306Y-97613253D01*
X107867532Y-97604476D01*
X107956408Y-97559192D01*
X107956410Y-97559191D01*
X107963347Y-97555656D01*
X108033717Y-97485286D01*
X108088234Y-97457509D01*
X108148666Y-97467080D01*
X108180321Y-97494116D01*
X108180744Y-97494947D01*
X108270453Y-97584656D01*
X108277390Y-97588191D01*
X108277392Y-97588192D01*
X108365530Y-97633100D01*
X108383494Y-97642253D01*
X108391188Y-97643472D01*
X108391189Y-97643472D01*
X108501104Y-97660881D01*
X108508800Y-97662100D01*
X108516496Y-97660881D01*
X108626411Y-97643472D01*
X108626412Y-97643472D01*
X108634106Y-97642253D01*
X108652070Y-97633100D01*
X108740208Y-97588192D01*
X108740210Y-97588191D01*
X108747147Y-97584656D01*
X108836856Y-97494947D01*
X108851633Y-97465947D01*
X108890917Y-97388846D01*
X108894453Y-97381906D01*
X108914300Y-97256600D01*
X108902372Y-97181293D01*
X108895672Y-97138989D01*
X108895672Y-97138988D01*
X108894453Y-97131294D01*
X108873158Y-97089500D01*
X108840392Y-97025192D01*
X108840391Y-97025190D01*
X108836856Y-97018253D01*
X108747147Y-96928544D01*
X108740210Y-96925009D01*
X108740208Y-96925008D01*
X108641046Y-96874483D01*
X108634106Y-96870947D01*
X108626412Y-96869728D01*
X108626411Y-96869728D01*
X108516496Y-96852319D01*
X108508800Y-96851100D01*
X108501104Y-96852319D01*
X108391189Y-96869728D01*
X108391188Y-96869728D01*
X108383494Y-96870947D01*
X108376554Y-96874483D01*
X108277392Y-96925008D01*
X108277390Y-96925009D01*
X108270453Y-96928544D01*
X108200083Y-96998914D01*
X108145566Y-97026691D01*
X108085134Y-97017120D01*
X108053479Y-96990084D01*
X108053056Y-96989253D01*
X107963347Y-96899544D01*
X107956410Y-96896009D01*
X107956408Y-96896008D01*
X107857246Y-96845483D01*
X107850306Y-96841947D01*
X107842612Y-96840728D01*
X107842611Y-96840728D01*
X107732696Y-96823319D01*
X107725000Y-96822100D01*
X107717304Y-96823319D01*
X107607389Y-96840728D01*
X107607388Y-96840728D01*
X107599694Y-96841947D01*
X107592754Y-96845483D01*
X107493592Y-96896008D01*
X107493590Y-96896009D01*
X107486653Y-96899544D01*
X107396944Y-96989253D01*
X107393409Y-96996190D01*
X107393408Y-96996192D01*
X107378632Y-97025192D01*
X107339347Y-97102294D01*
X107319500Y-97227600D01*
X104971150Y-97227600D01*
X104833050Y-97089500D01*
X104299000Y-97089500D01*
X104240809Y-97070593D01*
X104204845Y-97021093D01*
X104200000Y-96990500D01*
X104200000Y-96632720D01*
X104218907Y-96574529D01*
X104268407Y-96538565D01*
X104329593Y-96538565D01*
X104343944Y-96544510D01*
X104417751Y-96582116D01*
X104417754Y-96582117D01*
X104424694Y-96585653D01*
X104432388Y-96586872D01*
X104432389Y-96586872D01*
X104542304Y-96604281D01*
X104550000Y-96605500D01*
X104557696Y-96604281D01*
X104667611Y-96586872D01*
X104667612Y-96586872D01*
X104675306Y-96585653D01*
X104714056Y-96565909D01*
X104781408Y-96531592D01*
X104781410Y-96531591D01*
X104788347Y-96528056D01*
X104804996Y-96511407D01*
X104859513Y-96483630D01*
X104919945Y-96493201D01*
X104945004Y-96511407D01*
X104961653Y-96528056D01*
X104968590Y-96531591D01*
X104968592Y-96531592D01*
X105035944Y-96565909D01*
X105074694Y-96585653D01*
X105082388Y-96586872D01*
X105082389Y-96586872D01*
X105192304Y-96604281D01*
X105200000Y-96605500D01*
X105207696Y-96604281D01*
X105317611Y-96586872D01*
X105317612Y-96586872D01*
X105325306Y-96585653D01*
X105364056Y-96565909D01*
X105431408Y-96531592D01*
X105431410Y-96531591D01*
X105438347Y-96528056D01*
X105528056Y-96438347D01*
X105536790Y-96421206D01*
X105580054Y-96377941D01*
X105640486Y-96368369D01*
X105695003Y-96396146D01*
X105713210Y-96421206D01*
X105721944Y-96438347D01*
X105811653Y-96528056D01*
X105818590Y-96531591D01*
X105818592Y-96531592D01*
X105885944Y-96565909D01*
X105924694Y-96585653D01*
X105932388Y-96586872D01*
X105932389Y-96586872D01*
X106042304Y-96604281D01*
X106050000Y-96605500D01*
X106057696Y-96604281D01*
X106167611Y-96586872D01*
X106167612Y-96586872D01*
X106175306Y-96585653D01*
X106214056Y-96565909D01*
X106281408Y-96531592D01*
X106281410Y-96531591D01*
X106288347Y-96528056D01*
X106378056Y-96438347D01*
X106399559Y-96396146D01*
X106432117Y-96332246D01*
X106435653Y-96325306D01*
X106455500Y-96200000D01*
X106435653Y-96074694D01*
X106378056Y-95961653D01*
X106373170Y-95956767D01*
X106354401Y-95898998D01*
X106373310Y-95840807D01*
X106422810Y-95804845D01*
X106453401Y-95800000D01*
X109746599Y-95800000D01*
X109804790Y-95818907D01*
G37*
%TD.AperFunction*%
%TD*%
M02*
