%TF.GenerationSoftware,KiCad,Pcbnew,(5.99.0-10506-gb986797469)*%
%TF.CreationDate,2021-10-07T12:38:36+02:00*%
%TF.ProjectId,ESP31_V2,45535033-315f-4563-922e-6b696361645f,rev?*%
%TF.SameCoordinates,Original*%
%TF.FileFunction,Legend,Top*%
%TF.FilePolarity,Positive*%
%FSLAX46Y46*%
G04 Gerber Fmt 4.6, Leading zero omitted, Abs format (unit mm)*
G04 Created by KiCad (PCBNEW (5.99.0-10506-gb986797469)) date 2021-10-07 12:38:36*
%MOMM*%
%LPD*%
G01*
G04 APERTURE LIST*
%ADD10C,0.100000*%
%ADD11C,0.150000*%
%ADD12C,0.120000*%
G04 APERTURE END LIST*
D10*
X105378258Y-108973809D02*
X105405044Y-108950000D01*
X105455639Y-108926190D01*
X105574687Y-108926190D01*
X105619330Y-108950000D01*
X105640163Y-108973809D01*
X105658020Y-109021428D01*
X105652068Y-109069047D01*
X105619330Y-109140476D01*
X105297901Y-109426190D01*
X105607425Y-109426190D01*
X106098497Y-108926190D02*
X106003258Y-108926190D01*
X105952663Y-108950000D01*
X105925877Y-108973809D01*
X105869330Y-109045238D01*
X105833616Y-109140476D01*
X105809806Y-109330952D01*
X105827663Y-109378571D01*
X105848497Y-109402380D01*
X105893139Y-109426190D01*
X105988377Y-109426190D01*
X106038973Y-109402380D01*
X106065758Y-109378571D01*
X106095520Y-109330952D01*
X106110401Y-109211904D01*
X106092544Y-109164285D01*
X106071711Y-109140476D01*
X106027068Y-109116666D01*
X105931830Y-109116666D01*
X105881235Y-109140476D01*
X105854449Y-109164285D01*
X105824687Y-109211904D01*
X116553809Y-111586190D02*
X116387142Y-111348095D01*
X116268095Y-111586190D02*
X116268095Y-111086190D01*
X116458571Y-111086190D01*
X116506190Y-111110000D01*
X116530000Y-111133809D01*
X116553809Y-111181428D01*
X116553809Y-111252857D01*
X116530000Y-111300476D01*
X116506190Y-111324285D01*
X116458571Y-111348095D01*
X116268095Y-111348095D01*
X116768095Y-111324285D02*
X116934761Y-111324285D01*
X117006190Y-111586190D02*
X116768095Y-111586190D01*
X116768095Y-111086190D01*
X117006190Y-111086190D01*
X117196666Y-111562380D02*
X117268095Y-111586190D01*
X117387142Y-111586190D01*
X117434761Y-111562380D01*
X117458571Y-111538571D01*
X117482380Y-111490952D01*
X117482380Y-111443333D01*
X117458571Y-111395714D01*
X117434761Y-111371904D01*
X117387142Y-111348095D01*
X117291904Y-111324285D01*
X117244285Y-111300476D01*
X117220476Y-111276666D01*
X117196666Y-111229047D01*
X117196666Y-111181428D01*
X117220476Y-111133809D01*
X117244285Y-111110000D01*
X117291904Y-111086190D01*
X117410952Y-111086190D01*
X117482380Y-111110000D01*
X117696666Y-111324285D02*
X117863333Y-111324285D01*
X117934761Y-111586190D02*
X117696666Y-111586190D01*
X117696666Y-111086190D01*
X117934761Y-111086190D01*
X118077619Y-111086190D02*
X118363333Y-111086190D01*
X118220476Y-111586190D02*
X118220476Y-111086190D01*
X105314568Y-101826190D02*
X105377068Y-101326190D01*
X105710401Y-101326190D02*
X105805639Y-101326190D01*
X105850282Y-101350000D01*
X105891949Y-101397619D01*
X105903854Y-101492857D01*
X105883020Y-101659523D01*
X105847306Y-101754761D01*
X105793735Y-101802380D01*
X105743139Y-101826190D01*
X105647901Y-101826190D01*
X105603258Y-101802380D01*
X105561592Y-101754761D01*
X105549687Y-101659523D01*
X105570520Y-101492857D01*
X105606235Y-101397619D01*
X105659806Y-101350000D01*
X105710401Y-101326190D01*
X106091354Y-101326190D02*
X106400877Y-101326190D01*
X106210401Y-101516666D01*
X106281830Y-101516666D01*
X106326473Y-101540476D01*
X106347306Y-101564285D01*
X106365163Y-101611904D01*
X106350282Y-101730952D01*
X106320520Y-101778571D01*
X106293735Y-101802380D01*
X106243139Y-101826190D01*
X106100282Y-101826190D01*
X106055639Y-101802380D01*
X106034806Y-101778571D01*
X106585401Y-101373809D02*
X106612187Y-101350000D01*
X106662782Y-101326190D01*
X106781830Y-101326190D01*
X106826473Y-101350000D01*
X106847306Y-101373809D01*
X106865163Y-101421428D01*
X106859211Y-101469047D01*
X106826473Y-101540476D01*
X106505044Y-101826190D01*
X106814568Y-101826190D01*
X116114568Y-104026190D02*
X116177068Y-103526190D01*
X116510401Y-103526190D02*
X116605639Y-103526190D01*
X116650282Y-103550000D01*
X116691949Y-103597619D01*
X116703854Y-103692857D01*
X116683020Y-103859523D01*
X116647306Y-103954761D01*
X116593735Y-104002380D01*
X116543139Y-104026190D01*
X116447901Y-104026190D01*
X116403258Y-104002380D01*
X116361592Y-103954761D01*
X116349687Y-103859523D01*
X116370520Y-103692857D01*
X116406235Y-103597619D01*
X116459806Y-103550000D01*
X116510401Y-103526190D01*
X117138377Y-104026190D02*
X116852663Y-104026190D01*
X116995520Y-104026190D02*
X117058020Y-103526190D01*
X117001473Y-103597619D01*
X116947901Y-103645238D01*
X116897306Y-103669047D01*
X117376473Y-104026190D02*
X117471711Y-104026190D01*
X117522306Y-104002380D01*
X117549092Y-103978571D01*
X117605639Y-103907142D01*
X117641354Y-103811904D01*
X117665163Y-103621428D01*
X117647306Y-103573809D01*
X117626473Y-103550000D01*
X117581830Y-103526190D01*
X117486592Y-103526190D01*
X117435997Y-103550000D01*
X117409211Y-103573809D01*
X117379449Y-103621428D01*
X117364568Y-103740476D01*
X117382425Y-103788095D01*
X117403258Y-103811904D01*
X117447901Y-103835714D01*
X117543139Y-103835714D01*
X117593735Y-103811904D01*
X117620520Y-103788095D01*
X117650282Y-103740476D01*
X107073235Y-109224000D02*
X107028592Y-109200190D01*
X106957163Y-109200190D01*
X106882758Y-109224000D01*
X106829187Y-109271619D01*
X106799425Y-109319238D01*
X106763711Y-109414476D01*
X106754782Y-109485904D01*
X106766687Y-109581142D01*
X106784544Y-109628761D01*
X106826211Y-109676380D01*
X106894663Y-109700190D01*
X106942282Y-109700190D01*
X107016687Y-109676380D01*
X107043473Y-109652571D01*
X107064306Y-109485904D01*
X106969068Y-109485904D01*
X107251806Y-109700190D02*
X107314306Y-109200190D01*
X107537520Y-109700190D01*
X107600020Y-109200190D01*
X107775616Y-109700190D02*
X107838116Y-109200190D01*
X107957163Y-109200190D01*
X108025616Y-109224000D01*
X108067282Y-109271619D01*
X108085139Y-109319238D01*
X108097044Y-109414476D01*
X108088116Y-109485904D01*
X108052401Y-109581142D01*
X108022639Y-109628761D01*
X107969068Y-109676380D01*
X107894663Y-109700190D01*
X107775616Y-109700190D01*
X105353258Y-110273809D02*
X105380044Y-110250000D01*
X105430639Y-110226190D01*
X105549687Y-110226190D01*
X105594330Y-110250000D01*
X105615163Y-110273809D01*
X105633020Y-110321428D01*
X105627068Y-110369047D01*
X105594330Y-110440476D01*
X105272901Y-110726190D01*
X105582425Y-110726190D01*
X105811592Y-110226190D02*
X106144925Y-110226190D01*
X105868139Y-110726190D01*
X105649092Y-105578571D02*
X105622306Y-105602380D01*
X105547901Y-105626190D01*
X105500282Y-105626190D01*
X105431830Y-105602380D01*
X105390163Y-105554761D01*
X105372306Y-105507142D01*
X105360401Y-105411904D01*
X105369330Y-105340476D01*
X105405044Y-105245238D01*
X105434806Y-105197619D01*
X105488377Y-105150000D01*
X105562782Y-105126190D01*
X105610401Y-105126190D01*
X105678854Y-105150000D01*
X105699687Y-105173809D01*
X105851473Y-105483333D02*
X106089568Y-105483333D01*
X105785997Y-105626190D02*
X106015163Y-105126190D01*
X106119330Y-105626190D01*
X106285997Y-105626190D02*
X106348497Y-105126190D01*
X106538973Y-105126190D01*
X106583616Y-105150000D01*
X106604449Y-105173809D01*
X106622306Y-105221428D01*
X106613377Y-105292857D01*
X106583616Y-105340476D01*
X106556830Y-105364285D01*
X106506235Y-105388095D01*
X106315758Y-105388095D01*
X116114568Y-102726190D02*
X116177068Y-102226190D01*
X116510401Y-102226190D02*
X116605639Y-102226190D01*
X116650282Y-102250000D01*
X116691949Y-102297619D01*
X116703854Y-102392857D01*
X116683020Y-102559523D01*
X116647306Y-102654761D01*
X116593735Y-102702380D01*
X116543139Y-102726190D01*
X116447901Y-102726190D01*
X116403258Y-102702380D01*
X116361592Y-102654761D01*
X116349687Y-102559523D01*
X116370520Y-102392857D01*
X116406235Y-102297619D01*
X116459806Y-102250000D01*
X116510401Y-102226190D01*
X116909211Y-102273809D02*
X116935997Y-102250000D01*
X116986592Y-102226190D01*
X117105639Y-102226190D01*
X117150282Y-102250000D01*
X117171116Y-102273809D01*
X117188973Y-102321428D01*
X117183020Y-102369047D01*
X117150282Y-102440476D01*
X116828854Y-102726190D01*
X117138377Y-102726190D01*
X117385401Y-102273809D02*
X117412187Y-102250000D01*
X117462782Y-102226190D01*
X117581830Y-102226190D01*
X117626473Y-102250000D01*
X117647306Y-102273809D01*
X117665163Y-102321428D01*
X117659211Y-102369047D01*
X117626473Y-102440476D01*
X117305044Y-102726190D01*
X117614568Y-102726190D01*
X107357425Y-99226190D02*
X107071711Y-99226190D01*
X107214568Y-99226190D02*
X107277068Y-98726190D01*
X107220520Y-98797619D01*
X107166949Y-98845238D01*
X107116354Y-98869047D01*
X107729449Y-98726190D02*
X107777068Y-98726190D01*
X107821711Y-98750000D01*
X107842544Y-98773809D01*
X107860401Y-98821428D01*
X107872306Y-98916666D01*
X107857425Y-99035714D01*
X107821711Y-99130952D01*
X107791949Y-99178571D01*
X107765163Y-99202380D01*
X107714568Y-99226190D01*
X107666949Y-99226190D01*
X107622306Y-99202380D01*
X107601473Y-99178571D01*
X107583616Y-99130952D01*
X107571711Y-99035714D01*
X107586592Y-98916666D01*
X107622306Y-98821428D01*
X107652068Y-98773809D01*
X107678854Y-98750000D01*
X107729449Y-98726190D01*
X108047901Y-99226190D02*
X108110401Y-98726190D01*
X108333616Y-99226190D02*
X108155044Y-98940476D01*
X108396116Y-98726190D02*
X108074687Y-99011904D01*
X105386592Y-103926190D02*
X105490758Y-104426190D01*
X105719925Y-103926190D01*
X105824092Y-104426190D02*
X105886592Y-103926190D01*
X106109806Y-104426190D01*
X106172306Y-103926190D01*
X105649092Y-99278571D02*
X105622306Y-99302380D01*
X105547901Y-99326190D01*
X105500282Y-99326190D01*
X105431830Y-99302380D01*
X105390163Y-99254761D01*
X105372306Y-99207142D01*
X105360401Y-99111904D01*
X105369330Y-99040476D01*
X105405044Y-98945238D01*
X105434806Y-98897619D01*
X105488377Y-98850000D01*
X105562782Y-98826190D01*
X105610401Y-98826190D01*
X105678854Y-98850000D01*
X105699687Y-98873809D01*
X105851473Y-99183333D02*
X106089568Y-99183333D01*
X105785997Y-99326190D02*
X106015163Y-98826190D01*
X106119330Y-99326190D01*
X106285997Y-99326190D02*
X106348497Y-98826190D01*
X106538973Y-98826190D01*
X106583616Y-98850000D01*
X106604449Y-98873809D01*
X106622306Y-98921428D01*
X106613377Y-98992857D01*
X106583616Y-99040476D01*
X106556830Y-99064285D01*
X106506235Y-99088095D01*
X106315758Y-99088095D01*
X105314568Y-103126190D02*
X105377068Y-102626190D01*
X105710401Y-102626190D02*
X105805639Y-102626190D01*
X105850282Y-102650000D01*
X105891949Y-102697619D01*
X105903854Y-102792857D01*
X105883020Y-102959523D01*
X105847306Y-103054761D01*
X105793735Y-103102380D01*
X105743139Y-103126190D01*
X105647901Y-103126190D01*
X105603258Y-103102380D01*
X105561592Y-103054761D01*
X105549687Y-102959523D01*
X105570520Y-102792857D01*
X105606235Y-102697619D01*
X105659806Y-102650000D01*
X105710401Y-102626190D01*
X106091354Y-102626190D02*
X106400877Y-102626190D01*
X106210401Y-102816666D01*
X106281830Y-102816666D01*
X106326473Y-102840476D01*
X106347306Y-102864285D01*
X106365163Y-102911904D01*
X106350282Y-103030952D01*
X106320520Y-103078571D01*
X106293735Y-103102380D01*
X106243139Y-103126190D01*
X106100282Y-103126190D01*
X106055639Y-103102380D01*
X106034806Y-103078571D01*
X106808616Y-102792857D02*
X106766949Y-103126190D01*
X106713377Y-102602380D02*
X106549687Y-102959523D01*
X106859211Y-102959523D01*
X105314568Y-100626190D02*
X105377068Y-100126190D01*
X105710401Y-100126190D02*
X105805639Y-100126190D01*
X105850282Y-100150000D01*
X105891949Y-100197619D01*
X105903854Y-100292857D01*
X105883020Y-100459523D01*
X105847306Y-100554761D01*
X105793735Y-100602380D01*
X105743139Y-100626190D01*
X105647901Y-100626190D01*
X105603258Y-100602380D01*
X105561592Y-100554761D01*
X105549687Y-100459523D01*
X105570520Y-100292857D01*
X105606235Y-100197619D01*
X105659806Y-100150000D01*
X105710401Y-100126190D01*
X106091354Y-100126190D02*
X106400877Y-100126190D01*
X106210401Y-100316666D01*
X106281830Y-100316666D01*
X106326473Y-100340476D01*
X106347306Y-100364285D01*
X106365163Y-100411904D01*
X106350282Y-100530952D01*
X106320520Y-100578571D01*
X106293735Y-100602380D01*
X106243139Y-100626190D01*
X106100282Y-100626190D01*
X106055639Y-100602380D01*
X106034806Y-100578571D01*
X106853258Y-100126190D02*
X106615163Y-100126190D01*
X106561592Y-100364285D01*
X106588377Y-100340476D01*
X106638973Y-100316666D01*
X106758020Y-100316666D01*
X106802663Y-100340476D01*
X106823497Y-100364285D01*
X106841354Y-100411904D01*
X106826473Y-100530952D01*
X106796711Y-100578571D01*
X106769925Y-100602380D01*
X106719330Y-100626190D01*
X106600282Y-100626190D01*
X106555639Y-100602380D01*
X106534806Y-100578571D01*
X114834211Y-98726190D02*
X114783616Y-99130952D01*
X114801473Y-99178571D01*
X114822306Y-99202380D01*
X114866949Y-99226190D01*
X114962187Y-99226190D01*
X115012782Y-99202380D01*
X115039568Y-99178571D01*
X115069330Y-99130952D01*
X115119925Y-98726190D01*
X115557425Y-99226190D02*
X115271711Y-99226190D01*
X115414568Y-99226190D02*
X115477068Y-98726190D01*
X115420520Y-98797619D01*
X115366949Y-98845238D01*
X115316354Y-98869047D01*
X114458116Y-111740190D02*
X114767639Y-111740190D01*
X114577163Y-111930666D01*
X114648592Y-111930666D01*
X114693235Y-111954476D01*
X114714068Y-111978285D01*
X114731925Y-112025904D01*
X114717044Y-112144952D01*
X114687282Y-112192571D01*
X114660497Y-112216380D01*
X114609901Y-112240190D01*
X114467044Y-112240190D01*
X114422401Y-112216380D01*
X114401568Y-112192571D01*
X114910497Y-111740190D02*
X115014663Y-112240190D01*
X115243830Y-111740190D01*
X115362877Y-111740190D02*
X115672401Y-111740190D01*
X115481925Y-111930666D01*
X115553354Y-111930666D01*
X115597997Y-111954476D01*
X115618830Y-111978285D01*
X115636687Y-112025904D01*
X115621806Y-112144952D01*
X115592044Y-112192571D01*
X115565258Y-112216380D01*
X115514663Y-112240190D01*
X115371806Y-112240190D01*
X115327163Y-112216380D01*
X115306330Y-112192571D01*
X111974663Y-109700190D02*
X112037163Y-109200190D01*
X112370497Y-109200190D02*
X112465735Y-109200190D01*
X112510377Y-109224000D01*
X112552044Y-109271619D01*
X112563949Y-109366857D01*
X112543116Y-109533523D01*
X112507401Y-109628761D01*
X112453830Y-109676380D01*
X112403235Y-109700190D01*
X112307997Y-109700190D01*
X112263354Y-109676380D01*
X112221687Y-109628761D01*
X112209782Y-109533523D01*
X112230616Y-109366857D01*
X112266330Y-109271619D01*
X112319901Y-109224000D01*
X112370497Y-109200190D01*
X112894306Y-109200190D02*
X112941925Y-109200190D01*
X112986568Y-109224000D01*
X113007401Y-109247809D01*
X113025258Y-109295428D01*
X113037163Y-109390666D01*
X113022282Y-109509714D01*
X112986568Y-109604952D01*
X112956806Y-109652571D01*
X112930020Y-109676380D01*
X112879425Y-109700190D01*
X112831806Y-109700190D01*
X112787163Y-109676380D01*
X112766330Y-109652571D01*
X112748473Y-109604952D01*
X112736568Y-109509714D01*
X112751449Y-109390666D01*
X112787163Y-109295428D01*
X112816925Y-109247809D01*
X112843711Y-109224000D01*
X112894306Y-109200190D01*
X109434663Y-112240190D02*
X109497163Y-111740190D01*
X109830497Y-111740190D02*
X109925735Y-111740190D01*
X109970377Y-111764000D01*
X110012044Y-111811619D01*
X110023949Y-111906857D01*
X110003116Y-112073523D01*
X109967401Y-112168761D01*
X109913830Y-112216380D01*
X109863235Y-112240190D01*
X109767997Y-112240190D01*
X109723354Y-112216380D01*
X109681687Y-112168761D01*
X109669782Y-112073523D01*
X109690616Y-111906857D01*
X109726330Y-111811619D01*
X109779901Y-111764000D01*
X109830497Y-111740190D01*
X110452520Y-111906857D02*
X110410854Y-112240190D01*
X110357282Y-111716380D02*
X110193592Y-112073523D01*
X110503116Y-112073523D01*
X117457425Y-110726190D02*
X117552663Y-110726190D01*
X117603258Y-110702380D01*
X117630044Y-110678571D01*
X117686592Y-110607142D01*
X117722306Y-110511904D01*
X117746116Y-110321428D01*
X117728258Y-110273809D01*
X117707425Y-110250000D01*
X117662782Y-110226190D01*
X117567544Y-110226190D01*
X117516949Y-110250000D01*
X117490163Y-110273809D01*
X117460401Y-110321428D01*
X117445520Y-110440476D01*
X117463377Y-110488095D01*
X117484211Y-110511904D01*
X117528854Y-110535714D01*
X117624092Y-110535714D01*
X117674687Y-110511904D01*
X117701473Y-110488095D01*
X117731235Y-110440476D01*
X105314568Y-107026190D02*
X105377068Y-106526190D01*
X105710401Y-106526190D02*
X105805639Y-106526190D01*
X105850282Y-106550000D01*
X105891949Y-106597619D01*
X105903854Y-106692857D01*
X105883020Y-106859523D01*
X105847306Y-106954761D01*
X105793735Y-107002380D01*
X105743139Y-107026190D01*
X105647901Y-107026190D01*
X105603258Y-107002380D01*
X105561592Y-106954761D01*
X105549687Y-106859523D01*
X105570520Y-106692857D01*
X105606235Y-106597619D01*
X105659806Y-106550000D01*
X105710401Y-106526190D01*
X106091354Y-106526190D02*
X106400877Y-106526190D01*
X106210401Y-106716666D01*
X106281830Y-106716666D01*
X106326473Y-106740476D01*
X106347306Y-106764285D01*
X106365163Y-106811904D01*
X106350282Y-106930952D01*
X106320520Y-106978571D01*
X106293735Y-107002380D01*
X106243139Y-107026190D01*
X106100282Y-107026190D01*
X106055639Y-107002380D01*
X106034806Y-106978571D01*
X106567544Y-106526190D02*
X106877068Y-106526190D01*
X106686592Y-106716666D01*
X106758020Y-106716666D01*
X106802663Y-106740476D01*
X106823497Y-106764285D01*
X106841354Y-106811904D01*
X106826473Y-106930952D01*
X106796711Y-106978571D01*
X106769925Y-107002380D01*
X106719330Y-107026190D01*
X106576473Y-107026190D01*
X106531830Y-107002380D01*
X106510997Y-106978571D01*
X116214568Y-101426190D02*
X116277068Y-100926190D01*
X116610401Y-100926190D02*
X116705639Y-100926190D01*
X116750282Y-100950000D01*
X116791949Y-100997619D01*
X116803854Y-101092857D01*
X116783020Y-101259523D01*
X116747306Y-101354761D01*
X116693735Y-101402380D01*
X116643139Y-101426190D01*
X116547901Y-101426190D01*
X116503258Y-101402380D01*
X116461592Y-101354761D01*
X116449687Y-101259523D01*
X116470520Y-101092857D01*
X116506235Y-100997619D01*
X116559806Y-100950000D01*
X116610401Y-100926190D01*
X117009211Y-100973809D02*
X117035997Y-100950000D01*
X117086592Y-100926190D01*
X117205639Y-100926190D01*
X117250282Y-100950000D01*
X117271116Y-100973809D01*
X117288973Y-101021428D01*
X117283020Y-101069047D01*
X117250282Y-101140476D01*
X116928854Y-101426190D01*
X117238377Y-101426190D01*
X117714568Y-101426190D02*
X117428854Y-101426190D01*
X117571711Y-101426190D02*
X117634211Y-100926190D01*
X117577663Y-100997619D01*
X117524092Y-101045238D01*
X117473497Y-101069047D01*
X105314568Y-108226190D02*
X105377068Y-107726190D01*
X105710401Y-107726190D02*
X105805639Y-107726190D01*
X105850282Y-107750000D01*
X105891949Y-107797619D01*
X105903854Y-107892857D01*
X105883020Y-108059523D01*
X105847306Y-108154761D01*
X105793735Y-108202380D01*
X105743139Y-108226190D01*
X105647901Y-108226190D01*
X105603258Y-108202380D01*
X105561592Y-108154761D01*
X105549687Y-108059523D01*
X105570520Y-107892857D01*
X105606235Y-107797619D01*
X105659806Y-107750000D01*
X105710401Y-107726190D01*
X106109211Y-107773809D02*
X106135997Y-107750000D01*
X106186592Y-107726190D01*
X106305639Y-107726190D01*
X106350282Y-107750000D01*
X106371116Y-107773809D01*
X106388973Y-107821428D01*
X106383020Y-107869047D01*
X106350282Y-107940476D01*
X106028854Y-108226190D01*
X106338377Y-108226190D01*
X106853258Y-107726190D02*
X106615163Y-107726190D01*
X106561592Y-107964285D01*
X106588377Y-107940476D01*
X106638973Y-107916666D01*
X106758020Y-107916666D01*
X106802663Y-107940476D01*
X106823497Y-107964285D01*
X106841354Y-108011904D01*
X106826473Y-108130952D01*
X106796711Y-108178571D01*
X106769925Y-108202380D01*
X106719330Y-108226190D01*
X106600282Y-108226190D01*
X106555639Y-108202380D01*
X106534806Y-108178571D01*
X112138354Y-111978285D02*
X112305020Y-111978285D01*
X112343711Y-112240190D02*
X112105616Y-112240190D01*
X112168116Y-111740190D01*
X112406211Y-111740190D01*
X112557997Y-112240190D02*
X112620497Y-111740190D01*
X112843711Y-112240190D01*
X112906211Y-111740190D01*
X105693139Y-96476190D02*
X105407425Y-96476190D01*
X105550282Y-96476190D02*
X105612782Y-95976190D01*
X105556235Y-96047619D01*
X105502663Y-96095238D01*
X105452068Y-96119047D01*
X106065163Y-95976190D02*
X106112782Y-95976190D01*
X106157425Y-96000000D01*
X106178258Y-96023809D01*
X106196116Y-96071428D01*
X106208020Y-96166666D01*
X106193139Y-96285714D01*
X106157425Y-96380952D01*
X106127663Y-96428571D01*
X106100877Y-96452380D01*
X106050282Y-96476190D01*
X106002663Y-96476190D01*
X105958020Y-96452380D01*
X105937187Y-96428571D01*
X105919330Y-96380952D01*
X105907425Y-96285714D01*
X105922306Y-96166666D01*
X105958020Y-96071428D01*
X105987782Y-96023809D01*
X106014568Y-96000000D01*
X106065163Y-95976190D01*
X106541354Y-95976190D02*
X106588973Y-95976190D01*
X106633616Y-96000000D01*
X106654449Y-96023809D01*
X106672306Y-96071428D01*
X106684211Y-96166666D01*
X106669330Y-96285714D01*
X106633616Y-96380952D01*
X106603854Y-96428571D01*
X106577068Y-96452380D01*
X106526473Y-96476190D01*
X106478854Y-96476190D01*
X106434211Y-96452380D01*
X106413377Y-96428571D01*
X106395520Y-96380952D01*
X106383616Y-96285714D01*
X106398497Y-96166666D01*
X106434211Y-96071428D01*
X106463973Y-96023809D01*
X106490758Y-96000000D01*
X106541354Y-95976190D01*
X106901473Y-96142857D02*
X106859806Y-96476190D01*
X106895520Y-96190476D02*
X106922306Y-96166666D01*
X106972901Y-96142857D01*
X107044330Y-96142857D01*
X107088973Y-96166666D01*
X107106830Y-96214285D01*
X107074092Y-96476190D01*
D11*
X122790895Y-114098634D02*
X122757693Y-113719131D01*
X123442574Y-113898216D02*
X122588693Y-113972921D01*
X122489667Y-113933784D01*
X122433929Y-113843059D01*
X122425628Y-113748183D01*
X123380320Y-113186649D02*
X123341183Y-113285675D01*
X123297895Y-113337263D01*
X123207170Y-113393001D01*
X122922543Y-113417903D01*
X122823517Y-113378765D01*
X122771929Y-113335478D01*
X122716190Y-113244753D01*
X122703740Y-113102439D01*
X122742877Y-113003413D01*
X122786165Y-112951825D01*
X122876890Y-112896087D01*
X123161517Y-112871185D01*
X123260543Y-112910322D01*
X123312131Y-112953610D01*
X123367869Y-113044335D01*
X123380320Y-113186649D01*
X123301465Y-112285330D02*
X123262328Y-112384356D01*
X123171602Y-112440094D01*
X122317721Y-112514799D01*
X123255812Y-111763513D02*
X123216675Y-111862539D01*
X123125949Y-111918278D01*
X122272068Y-111992983D01*
X123210159Y-111241697D02*
X123171022Y-111340723D01*
X123127734Y-111392311D01*
X123037009Y-111448050D01*
X122752382Y-111472951D01*
X122653356Y-111433814D01*
X122601768Y-111390526D01*
X122546029Y-111299801D01*
X122533578Y-111157487D01*
X122572716Y-111058461D01*
X122616003Y-111006873D01*
X122706729Y-110951135D01*
X122991356Y-110926233D01*
X123090382Y-110965371D01*
X123141970Y-111008658D01*
X123197708Y-111099384D01*
X123210159Y-111241697D01*
X122487925Y-110635671D02*
X123135454Y-110387816D01*
X122644475Y-110239567D01*
X123102252Y-110008313D01*
X122421521Y-109876666D01*
X122973593Y-108537740D02*
X122934456Y-108636766D01*
X122891169Y-108688354D01*
X122800443Y-108744093D01*
X122515816Y-108768994D01*
X122416790Y-108729857D01*
X122365202Y-108686569D01*
X122309464Y-108595844D01*
X122297013Y-108453530D01*
X122336150Y-108354504D01*
X122379438Y-108302916D01*
X122470163Y-108247178D01*
X122754790Y-108222276D01*
X122853816Y-108261414D01*
X122905404Y-108304701D01*
X122961143Y-108395427D01*
X122973593Y-108537740D01*
X122243059Y-107836838D02*
X122907189Y-107778735D01*
X122337935Y-107828538D02*
X122286347Y-107785250D01*
X122230608Y-107694525D01*
X122218158Y-107552211D01*
X122257295Y-107453185D01*
X122348020Y-107397447D01*
X122869837Y-107351794D01*
X122110251Y-106318827D02*
X122077048Y-105939325D01*
X121765735Y-106205566D02*
X122619616Y-106130861D01*
X122710341Y-106075123D01*
X122749479Y-105976097D01*
X122741178Y-105881221D01*
X122056297Y-105702136D02*
X122703826Y-105454280D01*
X122212846Y-105306032D01*
X122670623Y-105074778D01*
X121989893Y-104943130D01*
X122620820Y-104505523D02*
X121956690Y-104563627D01*
X121624626Y-104592679D02*
X121676214Y-104635967D01*
X121719501Y-104584379D01*
X121667913Y-104541091D01*
X121624626Y-104592679D01*
X121719501Y-104584379D01*
X121927639Y-104231562D02*
X121894436Y-103852060D01*
X121583123Y-104118301D02*
X122437004Y-104043596D01*
X122527729Y-103987857D01*
X122566867Y-103888831D01*
X122558566Y-103793956D01*
X122444724Y-103039101D02*
X122500462Y-103129826D01*
X122517063Y-103319577D01*
X122477926Y-103418603D01*
X122434639Y-103470191D01*
X122343913Y-103525930D01*
X122059286Y-103550831D01*
X121960260Y-103511694D01*
X121908672Y-103468407D01*
X121852934Y-103377681D01*
X121836332Y-103187930D01*
X121875470Y-103088904D01*
X122454809Y-102608010D02*
X121458615Y-102695165D01*
X122417457Y-102181069D02*
X121895641Y-102226722D01*
X121804915Y-102282461D01*
X121765778Y-102381487D01*
X121778229Y-102523800D01*
X121833967Y-102614525D01*
X121885555Y-102657813D01*
X122281078Y-101714991D02*
X122324366Y-101663403D01*
X122375954Y-101706691D01*
X122332667Y-101758279D01*
X122281078Y-101714991D01*
X122375954Y-101706691D01*
X121682772Y-101432730D02*
X121649570Y-101053227D01*
X121338257Y-101319468D02*
X122192138Y-101244763D01*
X122282863Y-101189025D01*
X122322001Y-101089999D01*
X122313700Y-100995123D01*
X121628819Y-100816038D02*
X122272197Y-100520745D01*
X121587316Y-100341659D01*
X121112357Y-99283791D02*
X122467884Y-100025615D01*
X121475259Y-99060838D02*
X121442057Y-98681335D01*
X121130743Y-98947576D02*
X121984624Y-98872871D01*
X122075350Y-98817133D01*
X122114487Y-98718107D01*
X122106186Y-98623231D01*
X122077134Y-98291166D02*
X121080940Y-98378322D01*
X122039782Y-97864225D02*
X121517966Y-97909878D01*
X121427240Y-97965617D01*
X121388103Y-98064643D01*
X121400554Y-98206956D01*
X121456292Y-98297682D01*
X121507880Y-98340969D01*
X121917639Y-97014495D02*
X121973378Y-97105220D01*
X121989979Y-97294971D01*
X121950841Y-97393997D01*
X121860116Y-97449736D01*
X121480613Y-97482938D01*
X121381587Y-97443801D01*
X121325849Y-97353075D01*
X121309248Y-97163324D01*
X121348385Y-97064298D01*
X121439110Y-97008559D01*
X121533986Y-97000259D01*
X121670365Y-97466337D01*
X121923574Y-96535966D02*
X120927380Y-96623122D01*
X121306882Y-96589919D02*
X121251144Y-96499194D01*
X121234543Y-96309443D01*
X121273680Y-96210417D01*
X121316968Y-96158829D01*
X121407693Y-96103090D01*
X121692320Y-96078189D01*
X121791346Y-96117326D01*
X121842934Y-96160613D01*
X121898673Y-96251339D01*
X121915274Y-96441090D01*
X121876136Y-96540116D01*
X121844719Y-95634647D02*
X121180589Y-95692751D01*
X121370341Y-95676150D02*
X121271315Y-95637012D01*
X121219727Y-95593725D01*
X121163988Y-95502999D01*
X121155688Y-95408124D01*
X121089283Y-94649118D02*
X121753413Y-94591014D01*
X121126636Y-95076059D02*
X121648452Y-95030406D01*
X121739177Y-94974667D01*
X121778315Y-94875641D01*
X121765864Y-94733328D01*
X121710125Y-94642602D01*
X121658537Y-94599315D01*
X121060231Y-94317053D02*
X121027029Y-93937551D01*
X120715716Y-94203792D02*
X121569597Y-94129087D01*
X121660322Y-94073348D01*
X121699460Y-93974322D01*
X121691159Y-93879447D01*
X121006278Y-93700361D02*
X120960625Y-93178545D01*
X121670408Y-93642257D01*
X121624755Y-93120441D01*
X121579102Y-92598625D02*
X121539964Y-92697651D01*
X121449239Y-92753389D01*
X120595358Y-92828094D01*
X121465259Y-91843770D02*
X121520998Y-91934495D01*
X121537599Y-92124246D01*
X121498462Y-92223272D01*
X121407736Y-92279011D01*
X121028233Y-92312213D01*
X120929207Y-92273076D01*
X120873469Y-92182350D01*
X120856868Y-91992599D01*
X120896005Y-91893573D01*
X120986731Y-91837835D01*
X121081606Y-91829534D01*
X121217985Y-92295612D01*
X121471194Y-91365241D02*
X120807065Y-91423345D01*
X120996816Y-91406744D02*
X120897790Y-91367606D01*
X120846202Y-91324319D01*
X120790464Y-91233593D01*
X120782163Y-91138718D01*
D10*
X114514663Y-109700190D02*
X114577163Y-109200190D01*
X114910497Y-109200190D02*
X115005735Y-109200190D01*
X115050377Y-109224000D01*
X115092044Y-109271619D01*
X115103949Y-109366857D01*
X115083116Y-109533523D01*
X115047401Y-109628761D01*
X114993830Y-109676380D01*
X114943235Y-109700190D01*
X114847997Y-109700190D01*
X114803354Y-109676380D01*
X114761687Y-109628761D01*
X114749782Y-109533523D01*
X114770616Y-109366857D01*
X114806330Y-109271619D01*
X114859901Y-109224000D01*
X114910497Y-109200190D01*
X115291449Y-109200190D02*
X115600973Y-109200190D01*
X115410497Y-109390666D01*
X115481925Y-109390666D01*
X115526568Y-109414476D01*
X115547401Y-109438285D01*
X115565258Y-109485904D01*
X115550377Y-109604952D01*
X115520616Y-109652571D01*
X115493830Y-109676380D01*
X115443235Y-109700190D01*
X115300377Y-109700190D01*
X115255735Y-109676380D01*
X115234901Y-109652571D01*
X104346428Y-111339285D02*
X104417857Y-111363095D01*
X104441666Y-111386904D01*
X104465476Y-111434523D01*
X104465476Y-111505952D01*
X104441666Y-111553571D01*
X104417857Y-111577380D01*
X104370238Y-111601190D01*
X104179761Y-111601190D01*
X104179761Y-111101190D01*
X104346428Y-111101190D01*
X104394047Y-111125000D01*
X104417857Y-111148809D01*
X104441666Y-111196428D01*
X104441666Y-111244047D01*
X104417857Y-111291666D01*
X104394047Y-111315476D01*
X104346428Y-111339285D01*
X104179761Y-111339285D01*
X104775000Y-111101190D02*
X104870238Y-111101190D01*
X104917857Y-111125000D01*
X104965476Y-111172619D01*
X104989285Y-111267857D01*
X104989285Y-111434523D01*
X104965476Y-111529761D01*
X104917857Y-111577380D01*
X104870238Y-111601190D01*
X104775000Y-111601190D01*
X104727380Y-111577380D01*
X104679761Y-111529761D01*
X104655952Y-111434523D01*
X104655952Y-111267857D01*
X104679761Y-111172619D01*
X104727380Y-111125000D01*
X104775000Y-111101190D01*
X105298809Y-111101190D02*
X105394047Y-111101190D01*
X105441666Y-111125000D01*
X105489285Y-111172619D01*
X105513095Y-111267857D01*
X105513095Y-111434523D01*
X105489285Y-111529761D01*
X105441666Y-111577380D01*
X105394047Y-111601190D01*
X105298809Y-111601190D01*
X105251190Y-111577380D01*
X105203571Y-111529761D01*
X105179761Y-111434523D01*
X105179761Y-111267857D01*
X105203571Y-111172619D01*
X105251190Y-111125000D01*
X105298809Y-111101190D01*
X105655952Y-111101190D02*
X105941666Y-111101190D01*
X105798809Y-111601190D02*
X105798809Y-111101190D01*
X116452663Y-108026190D02*
X116515163Y-107526190D01*
X116848497Y-107526190D02*
X116943735Y-107526190D01*
X116988377Y-107550000D01*
X117030044Y-107597619D01*
X117041949Y-107692857D01*
X117021116Y-107859523D01*
X116985401Y-107954761D01*
X116931830Y-108002380D01*
X116881235Y-108026190D01*
X116785997Y-108026190D01*
X116741354Y-108002380D01*
X116699687Y-107954761D01*
X116687782Y-107859523D01*
X116708616Y-107692857D01*
X116744330Y-107597619D01*
X116797901Y-107550000D01*
X116848497Y-107526190D01*
X117515163Y-107526190D02*
X117277068Y-107526190D01*
X117223497Y-107764285D01*
X117250282Y-107740476D01*
X117300877Y-107716666D01*
X117419925Y-107716666D01*
X117464568Y-107740476D01*
X117485401Y-107764285D01*
X117503258Y-107811904D01*
X117488377Y-107930952D01*
X117458616Y-107978571D01*
X117431830Y-108002380D01*
X117381235Y-108026190D01*
X117262187Y-108026190D01*
X117217544Y-108002380D01*
X117196711Y-107978571D01*
X116114568Y-106526190D02*
X116177068Y-106026190D01*
X116510401Y-106026190D02*
X116605639Y-106026190D01*
X116650282Y-106050000D01*
X116691949Y-106097619D01*
X116703854Y-106192857D01*
X116683020Y-106359523D01*
X116647306Y-106454761D01*
X116593735Y-106502380D01*
X116543139Y-106526190D01*
X116447901Y-106526190D01*
X116403258Y-106502380D01*
X116361592Y-106454761D01*
X116349687Y-106359523D01*
X116370520Y-106192857D01*
X116406235Y-106097619D01*
X116459806Y-106050000D01*
X116510401Y-106026190D01*
X117138377Y-106526190D02*
X116852663Y-106526190D01*
X116995520Y-106526190D02*
X117058020Y-106026190D01*
X117001473Y-106097619D01*
X116947901Y-106145238D01*
X116897306Y-106169047D01*
X117459806Y-106240476D02*
X117415163Y-106216666D01*
X117394330Y-106192857D01*
X117376473Y-106145238D01*
X117379449Y-106121428D01*
X117409211Y-106073809D01*
X117435997Y-106050000D01*
X117486592Y-106026190D01*
X117581830Y-106026190D01*
X117626473Y-106050000D01*
X117647306Y-106073809D01*
X117665163Y-106121428D01*
X117662187Y-106145238D01*
X117632425Y-106192857D01*
X117605639Y-106216666D01*
X117555044Y-106240476D01*
X117459806Y-106240476D01*
X117409211Y-106264285D01*
X117382425Y-106288095D01*
X117352663Y-106335714D01*
X117340758Y-106430952D01*
X117358616Y-106478571D01*
X117379449Y-106502380D01*
X117424092Y-106526190D01*
X117519330Y-106526190D01*
X117569925Y-106502380D01*
X117596711Y-106478571D01*
X117626473Y-106430952D01*
X117638377Y-106335714D01*
X117620520Y-106288095D01*
X117599687Y-106264285D01*
X117555044Y-106240476D01*
X116114568Y-105226190D02*
X116177068Y-104726190D01*
X116510401Y-104726190D02*
X116605639Y-104726190D01*
X116650282Y-104750000D01*
X116691949Y-104797619D01*
X116703854Y-104892857D01*
X116683020Y-105059523D01*
X116647306Y-105154761D01*
X116593735Y-105202380D01*
X116543139Y-105226190D01*
X116447901Y-105226190D01*
X116403258Y-105202380D01*
X116361592Y-105154761D01*
X116349687Y-105059523D01*
X116370520Y-104892857D01*
X116406235Y-104797619D01*
X116459806Y-104750000D01*
X116510401Y-104726190D01*
X116909211Y-104773809D02*
X116935997Y-104750000D01*
X116986592Y-104726190D01*
X117105639Y-104726190D01*
X117150282Y-104750000D01*
X117171116Y-104773809D01*
X117188973Y-104821428D01*
X117183020Y-104869047D01*
X117150282Y-104940476D01*
X116828854Y-105226190D01*
X117138377Y-105226190D01*
X117367544Y-104726190D02*
X117677068Y-104726190D01*
X117486592Y-104916666D01*
X117558020Y-104916666D01*
X117602663Y-104940476D01*
X117623497Y-104964285D01*
X117641354Y-105011904D01*
X117626473Y-105130952D01*
X117596711Y-105178571D01*
X117569925Y-105202380D01*
X117519330Y-105226190D01*
X117376473Y-105226190D01*
X117331830Y-105202380D01*
X117310997Y-105178571D01*
X106894663Y-112240190D02*
X106957163Y-111740190D01*
X107290497Y-111740190D02*
X107385735Y-111740190D01*
X107430377Y-111764000D01*
X107472044Y-111811619D01*
X107483949Y-111906857D01*
X107463116Y-112073523D01*
X107427401Y-112168761D01*
X107373830Y-112216380D01*
X107323235Y-112240190D01*
X107227997Y-112240190D01*
X107183354Y-112216380D01*
X107141687Y-112168761D01*
X107129782Y-112073523D01*
X107150616Y-111906857D01*
X107186330Y-111811619D01*
X107239901Y-111764000D01*
X107290497Y-111740190D01*
X107918473Y-112240190D02*
X107632758Y-112240190D01*
X107775616Y-112240190D02*
X107838116Y-111740190D01*
X107781568Y-111811619D01*
X107727997Y-111859238D01*
X107677401Y-111883047D01*
X110895520Y-95696190D02*
X110609806Y-95696190D01*
X110752663Y-95696190D02*
X110815163Y-95196190D01*
X110758616Y-95267619D01*
X110705044Y-95315238D01*
X110654449Y-95339047D01*
X111267544Y-95196190D02*
X111315163Y-95196190D01*
X111359806Y-95220000D01*
X111380639Y-95243809D01*
X111398497Y-95291428D01*
X111410401Y-95386666D01*
X111395520Y-95505714D01*
X111359806Y-95600952D01*
X111330044Y-95648571D01*
X111303258Y-95672380D01*
X111252663Y-95696190D01*
X111205044Y-95696190D01*
X111160401Y-95672380D01*
X111139568Y-95648571D01*
X111121711Y-95600952D01*
X111109806Y-95505714D01*
X111124687Y-95386666D01*
X111160401Y-95291428D01*
X111190163Y-95243809D01*
X111216949Y-95220000D01*
X111267544Y-95196190D01*
X111627663Y-95362857D02*
X111565163Y-95862857D01*
X111833020Y-95624761D02*
X111850877Y-95672380D01*
X111895520Y-95696190D01*
X111594925Y-95624761D02*
X111612782Y-95672380D01*
X111657425Y-95696190D01*
X111752663Y-95696190D01*
X111803258Y-95672380D01*
X111833020Y-95624761D01*
X111865758Y-95362857D01*
X105348497Y-97626190D02*
X105452663Y-98126190D01*
X105681830Y-97626190D01*
X105785997Y-98126190D02*
X105848497Y-97626190D01*
X106038973Y-97626190D01*
X106083616Y-97650000D01*
X106104449Y-97673809D01*
X106122306Y-97721428D01*
X106113377Y-97792857D01*
X106083616Y-97840476D01*
X106056830Y-97864285D01*
X106006235Y-97888095D01*
X105815758Y-97888095D01*
X117157425Y-109526190D02*
X116871711Y-109526190D01*
X117014568Y-109526190D02*
X117077068Y-109026190D01*
X117020520Y-109097619D01*
X116966949Y-109145238D01*
X116916354Y-109169047D01*
X117529449Y-109026190D02*
X117577068Y-109026190D01*
X117621711Y-109050000D01*
X117642544Y-109073809D01*
X117660401Y-109121428D01*
X117672306Y-109216666D01*
X117657425Y-109335714D01*
X117621711Y-109430952D01*
X117591949Y-109478571D01*
X117565163Y-109502380D01*
X117514568Y-109526190D01*
X117466949Y-109526190D01*
X117422306Y-109502380D01*
X117401473Y-109478571D01*
X117383616Y-109430952D01*
X117371711Y-109335714D01*
X117386592Y-109216666D01*
X117422306Y-109121428D01*
X117452068Y-109073809D01*
X117478854Y-109050000D01*
X117529449Y-109026190D01*
X113133809Y-95693139D02*
X113133809Y-95407425D01*
X113133809Y-95550282D02*
X113633809Y-95612782D01*
X113562380Y-95556235D01*
X113514761Y-95502663D01*
X113490952Y-95452068D01*
X113633809Y-96065163D02*
X113633809Y-96112782D01*
X113610000Y-96157425D01*
X113586190Y-96178258D01*
X113538571Y-96196116D01*
X113443333Y-96208020D01*
X113324285Y-96193139D01*
X113229047Y-96157425D01*
X113181428Y-96127663D01*
X113157619Y-96100877D01*
X113133809Y-96050282D01*
X113133809Y-96002663D01*
X113157619Y-95958020D01*
X113181428Y-95937187D01*
X113229047Y-95919330D01*
X113324285Y-95907425D01*
X113443333Y-95922306D01*
X113538571Y-95958020D01*
X113586190Y-95987782D01*
X113610000Y-96014568D01*
X113633809Y-96065163D01*
X113633809Y-96541354D02*
X113633809Y-96588973D01*
X113610000Y-96633616D01*
X113586190Y-96654449D01*
X113538571Y-96672306D01*
X113443333Y-96684211D01*
X113324285Y-96669330D01*
X113229047Y-96633616D01*
X113181428Y-96603854D01*
X113157619Y-96577068D01*
X113133809Y-96526473D01*
X113133809Y-96478854D01*
X113157619Y-96434211D01*
X113181428Y-96413377D01*
X113229047Y-96395520D01*
X113324285Y-96383616D01*
X113443333Y-96398497D01*
X113538571Y-96434211D01*
X113586190Y-96463973D01*
X113610000Y-96490758D01*
X113633809Y-96541354D01*
X113467142Y-96901473D02*
X113133809Y-96859806D01*
X113419523Y-96895520D02*
X113443333Y-96922306D01*
X113467142Y-96972901D01*
X113467142Y-97044330D01*
X113443333Y-97088973D01*
X113395714Y-97106830D01*
X113133809Y-97074092D01*
X109434663Y-109700190D02*
X109497163Y-109200190D01*
X109830497Y-109200190D02*
X109925735Y-109200190D01*
X109970377Y-109224000D01*
X110012044Y-109271619D01*
X110023949Y-109366857D01*
X110003116Y-109533523D01*
X109967401Y-109628761D01*
X109913830Y-109676380D01*
X109863235Y-109700190D01*
X109767997Y-109700190D01*
X109723354Y-109676380D01*
X109681687Y-109628761D01*
X109669782Y-109533523D01*
X109690616Y-109366857D01*
X109726330Y-109271619D01*
X109779901Y-109224000D01*
X109830497Y-109200190D01*
X110229306Y-109247809D02*
X110256092Y-109224000D01*
X110306687Y-109200190D01*
X110425735Y-109200190D01*
X110470377Y-109224000D01*
X110491211Y-109247809D01*
X110509068Y-109295428D01*
X110503116Y-109343047D01*
X110470377Y-109414476D01*
X110148949Y-109700190D01*
X110458473Y-109700190D01*
D11*
%TO.C,*%
D10*
%TO.C,D1*%
X117280952Y-97706190D02*
X117280952Y-97206190D01*
X117400000Y-97206190D01*
X117471428Y-97230000D01*
X117519047Y-97277619D01*
X117542857Y-97325238D01*
X117566666Y-97420476D01*
X117566666Y-97491904D01*
X117542857Y-97587142D01*
X117519047Y-97634761D01*
X117471428Y-97682380D01*
X117400000Y-97706190D01*
X117280952Y-97706190D01*
X118042857Y-97706190D02*
X117757142Y-97706190D01*
X117900000Y-97706190D02*
X117900000Y-97206190D01*
X117852380Y-97277619D01*
X117804761Y-97325238D01*
X117757142Y-97349047D01*
D11*
%TO.C,*%
D12*
%TO.C,C1*%
X108359420Y-95990000D02*
X108640580Y-95990000D01*
X108359420Y-97010000D02*
X108640580Y-97010000D01*
%TO.C,C2*%
X111510000Y-96859420D02*
X111510000Y-97140580D01*
X110490000Y-96859420D02*
X110490000Y-97140580D01*
%TO.C,C3*%
X113010000Y-96859420D02*
X113010000Y-97140580D01*
X111990000Y-96859420D02*
X111990000Y-97140580D01*
%TO.C,U1*%
X107890000Y-99865000D02*
X107890000Y-99390000D01*
X107890000Y-106135000D02*
X107890000Y-106610000D01*
X115110000Y-99865000D02*
X115110000Y-99390000D01*
X107890000Y-106610000D02*
X108365000Y-106610000D01*
X115110000Y-106610000D02*
X114635000Y-106610000D01*
X115110000Y-106135000D02*
X115110000Y-106610000D01*
X107890000Y-99390000D02*
X108365000Y-99390000D01*
%TO.C,R1*%
X108737258Y-98522500D02*
X108262742Y-98522500D01*
X108737258Y-97477500D02*
X108262742Y-97477500D01*
%TO.C,SW1*%
X118856000Y-114784000D02*
X118856000Y-111584000D01*
X116856000Y-111784000D02*
X116856000Y-114784000D01*
X118856000Y-111584000D02*
X118356000Y-111584000D01*
X118563107Y-113284000D02*
G75*
G03*
X118563107Y-113284000I-707107J0D01*
G01*
%TO.C,SW2*%
X104156000Y-114984000D02*
X104456000Y-114984000D01*
X104156000Y-114784000D02*
X104156000Y-114984000D01*
X104156000Y-114784000D02*
X104156000Y-111784000D01*
X106156000Y-111784000D02*
X106156000Y-114784000D01*
X105863107Y-113284000D02*
G75*
G03*
X105863107Y-113284000I-707107J0D01*
G01*
%TO.C,D1*%
X118300000Y-97890000D02*
X118300000Y-100790000D01*
X116000000Y-97890000D02*
X116000000Y-100790000D01*
X117700000Y-97890000D02*
X118300000Y-97890000D01*
%TD*%
M02*
