%TF.GenerationSoftware,KiCad,Pcbnew,(5.99.0-10506-gb986797469)*%
%TF.CreationDate,2021-10-07T12:38:36+02:00*%
%TF.ProjectId,ESP31_V2,45535033-315f-4563-922e-6b696361645f,rev?*%
%TF.SameCoordinates,Original*%
%TF.FileFunction,Soldermask,Top*%
%TF.FilePolarity,Negative*%
%FSLAX46Y46*%
G04 Gerber Fmt 4.6, Leading zero omitted, Abs format (unit mm)*
G04 Created by KiCad (PCBNEW (5.99.0-10506-gb986797469)) date 2021-10-07 12:38:36*
%MOMM*%
%LPD*%
G01*
G04 APERTURE LIST*
G04 Aperture macros list*
%AMRoundRect*
0 Rectangle with rounded corners*
0 $1 Rounding radius*
0 $2 $3 $4 $5 $6 $7 $8 $9 X,Y pos of 4 corners*
0 Add a 4 corners polygon primitive as box body*
4,1,4,$2,$3,$4,$5,$6,$7,$8,$9,$2,$3,0*
0 Add four circle primitives for the rounded corners*
1,1,$1+$1,$2,$3*
1,1,$1+$1,$4,$5*
1,1,$1+$1,$6,$7*
1,1,$1+$1,$8,$9*
0 Add four rect primitives between the rounded corners*
20,1,$1+$1,$2,$3,$4,$5,0*
20,1,$1+$1,$4,$5,$6,$7,0*
20,1,$1+$1,$6,$7,$8,$9,0*
20,1,$1+$1,$8,$9,$2,$3,0*%
%AMOutline5P*
0 Free polygon, 5 corners , with rotation*
0 The origin of the aperture is its center*
0 number of corners: always 8*
0 $1 to $10 corner X, Y*
0 $11 Rotation angle, in degrees counterclockwise*
0 create outline with 8 corners*
4,1,5,$1,$2,$3,$4,$5,$6,$7,$8,$9,$10,$1,$2,$11*%
%AMOutline6P*
0 Free polygon, 6 corners , with rotation*
0 The origin of the aperture is its center*
0 number of corners: always 6*
0 $1 to $12 corner X, Y*
0 $13 Rotation angle, in degrees counterclockwise*
0 create outline with 6 corners*
4,1,6,$1,$2,$3,$4,$5,$6,$7,$8,$9,$10,$11,$12,$1,$2,$13*%
%AMOutline7P*
0 Free polygon, 7 corners , with rotation*
0 The origin of the aperture is its center*
0 number of corners: always 7*
0 $1 to $14 corner X, Y*
0 $15 Rotation angle, in degrees counterclockwise*
0 create outline with 7 corners*
4,1,7,$1,$2,$3,$4,$5,$6,$7,$8,$9,$10,$11,$12,$13,$14,$1,$2,$15*%
%AMOutline8P*
0 Free polygon, 8 corners , with rotation*
0 The origin of the aperture is its center*
0 number of corners: always 8*
0 $1 to $16 corner X, Y*
0 $17 Rotation angle, in degrees counterclockwise*
0 create outline with 8 corners*
4,1,8,$1,$2,$3,$4,$5,$6,$7,$8,$9,$10,$11,$12,$13,$14,$15,$16,$1,$2,$17*%
G04 Aperture macros list end*
%ADD10Outline6P,0.250000X-0.500000X-0.500000X-0.500000X-0.500000X0.500000X0.250000X0.500000X0.500000X0.250000X0.500000X-0.250000X180.000000*%
%ADD11Outline6P,0.250000X-0.500000X-0.500000X-0.500000X-0.500000X0.500000X0.250000X0.500000X0.500000X0.250000X0.500000X-0.250000X0.000000*%
%ADD12RoundRect,0.225000X-0.225000X-0.250000X0.225000X-0.250000X0.225000X0.250000X-0.225000X0.250000X0*%
%ADD13C,1.300000*%
%ADD14C,0.300000*%
%ADD15RoundRect,0.225000X-0.250000X0.225000X-0.250000X-0.225000X0.250000X-0.225000X0.250000X0.225000X0*%
%ADD16RoundRect,0.062500X-0.062500X0.337500X-0.062500X-0.337500X0.062500X-0.337500X0.062500X0.337500X0*%
%ADD17RoundRect,0.062500X-0.337500X0.062500X-0.337500X-0.062500X0.337500X-0.062500X0.337500X0.062500X0*%
%ADD18R,5.300000X5.300000*%
%ADD19RoundRect,0.200000X0.200000X0.275000X-0.200000X0.275000X-0.200000X-0.275000X0.200000X-0.275000X0*%
%ADD20R,0.600000X0.600000*%
%ADD21R,0.800000X1.000000*%
%ADD22R,1.700000X1.700000*%
%ADD23O,1.700000X1.700000*%
G04 APERTURE END LIST*
D10*
%TO.C,J10*%
X118500000Y-107780000D03*
%TD*%
%TO.C,J15*%
X118500000Y-101180000D03*
%TD*%
%TO.C,J12*%
X118500000Y-109230000D03*
%TD*%
D11*
%TO.C,J23*%
X104500000Y-102870000D03*
%TD*%
D10*
%TO.C,J14*%
X118500000Y-103720000D03*
%TD*%
D12*
%TO.C,C1*%
X107725000Y-96500000D03*
X109275000Y-96500000D03*
%TD*%
D10*
%TO.C,J11*%
X118500000Y-110500000D03*
%TD*%
%TO.C,J17*%
X118500000Y-104990000D03*
%TD*%
D11*
%TO.C,J24*%
X104500000Y-100330000D03*
%TD*%
D13*
%TO.C,REF\u002A\u002A*%
X106000000Y-94800000D03*
%TD*%
D14*
%TO.C,REF\u002A\u002A*%
X119000000Y-99400000D03*
%TD*%
%TO.C,*%
X119000000Y-112200000D03*
%TD*%
D11*
%TO.C,J18*%
X104500000Y-107950000D03*
%TD*%
D15*
%TO.C,C2*%
X111000000Y-96225000D03*
X111000000Y-97775000D03*
%TD*%
D13*
%TO.C,*%
X122800000Y-91000000D03*
%TD*%
D15*
%TO.C,C3*%
X112500000Y-96225000D03*
X112500000Y-97775000D03*
%TD*%
D14*
%TO.C,*%
X119000000Y-98800000D03*
%TD*%
D11*
%TO.C,J20*%
X104500000Y-110490000D03*
%TD*%
%TO.C,J22*%
X104500000Y-106680000D03*
%TD*%
%TO.C,J19*%
X104500000Y-109220000D03*
%TD*%
D10*
%TO.C,J13*%
X118500000Y-106260000D03*
%TD*%
D16*
%TO.C,U1*%
X114250000Y-99550000D03*
X113750000Y-99550000D03*
X113250000Y-99550000D03*
X112750000Y-99550000D03*
X112250000Y-99550000D03*
X111750000Y-99550000D03*
X111250000Y-99550000D03*
X110750000Y-99550000D03*
X110250000Y-99550000D03*
X109750000Y-99550000D03*
X109250000Y-99550000D03*
X108750000Y-99550000D03*
D17*
X108050000Y-100250000D03*
X108050000Y-100750000D03*
X108050000Y-101250000D03*
X108050000Y-101750000D03*
X108050000Y-102250000D03*
X108050000Y-102750000D03*
X108050000Y-103250000D03*
X108050000Y-103750000D03*
X108050000Y-104250000D03*
X108050000Y-104750000D03*
X108050000Y-105250000D03*
X108050000Y-105750000D03*
D16*
X108750000Y-106450000D03*
X109250000Y-106450000D03*
X109750000Y-106450000D03*
X110250000Y-106450000D03*
X110750000Y-106450000D03*
X111250000Y-106450000D03*
X111750000Y-106450000D03*
X112250000Y-106450000D03*
X112750000Y-106450000D03*
X113250000Y-106450000D03*
X113750000Y-106450000D03*
X114250000Y-106450000D03*
D17*
X114950000Y-105750000D03*
X114950000Y-105250000D03*
X114950000Y-104750000D03*
X114950000Y-104250000D03*
X114950000Y-103750000D03*
X114950000Y-103250000D03*
X114950000Y-102750000D03*
X114950000Y-102250000D03*
X114950000Y-101750000D03*
X114950000Y-101250000D03*
X114950000Y-100750000D03*
X114950000Y-100250000D03*
D18*
X111500000Y-103000000D03*
%TD*%
D11*
%TO.C,J5*%
X104500000Y-105410000D03*
%TD*%
%TO.C,J6*%
X104500000Y-104140000D03*
%TD*%
D10*
%TO.C,J16*%
X118500000Y-102450000D03*
%TD*%
D19*
%TO.C,R1*%
X109325000Y-98000000D03*
X107675000Y-98000000D03*
%TD*%
D13*
%TO.C,*%
X121400000Y-113600000D03*
%TD*%
D20*
%TO.C,SW1*%
X118456000Y-111984000D03*
X118456000Y-114584000D03*
X117256000Y-114584000D03*
X117256000Y-111984000D03*
%TD*%
D14*
%TO.C,*%
X119000000Y-113400000D03*
%TD*%
D20*
%TO.C,SW2*%
X104556000Y-111984000D03*
X104556000Y-114584000D03*
X105756000Y-114584000D03*
X105756000Y-111984000D03*
%TD*%
D11*
%TO.C,J3*%
X104500000Y-97790000D03*
%TD*%
%TO.C,J21*%
X104500000Y-101600000D03*
%TD*%
D21*
%TO.C,D1*%
X117700000Y-98590000D03*
X116600000Y-98590000D03*
X116600000Y-100090000D03*
X117700000Y-100090000D03*
%TD*%
D11*
%TO.C,J4*%
X104500000Y-99060000D03*
%TD*%
D14*
%TO.C,*%
X119000000Y-112800000D03*
%TD*%
D22*
%TO.C,J1*%
X107460000Y-110725000D03*
D23*
X107460000Y-113265000D03*
X110000000Y-110725000D03*
X110000000Y-113265000D03*
X112540000Y-110725000D03*
X112540000Y-113265000D03*
X115080000Y-110725000D03*
X115080000Y-113265000D03*
%TD*%
M02*
