%TF.GenerationSoftware,KiCad,Pcbnew,(5.99.0-10506-gb986797469)*%
%TF.CreationDate,2021-09-09T23:38:44+02:00*%
%TF.ProjectId,ESP31,45535033-312e-46b6-9963-61645f706362,rev?*%
%TF.SameCoordinates,Original*%
%TF.FileFunction,Paste,Top*%
%TF.FilePolarity,Positive*%
%FSLAX46Y46*%
G04 Gerber Fmt 4.6, Leading zero omitted, Abs format (unit mm)*
G04 Created by KiCad (PCBNEW (5.99.0-10506-gb986797469)) date 2021-09-09 23:38:44*
%MOMM*%
%LPD*%
G01*
G04 APERTURE LIST*
G04 Aperture macros list*
%AMRoundRect*
0 Rectangle with rounded corners*
0 $1 Rounding radius*
0 $2 $3 $4 $5 $6 $7 $8 $9 X,Y pos of 4 corners*
0 Add a 4 corners polygon primitive as box body*
4,1,4,$2,$3,$4,$5,$6,$7,$8,$9,$2,$3,0*
0 Add four circle primitives for the rounded corners*
1,1,$1+$1,$2,$3*
1,1,$1+$1,$4,$5*
1,1,$1+$1,$6,$7*
1,1,$1+$1,$8,$9*
0 Add four rect primitives between the rounded corners*
20,1,$1+$1,$2,$3,$4,$5,0*
20,1,$1+$1,$4,$5,$6,$7,0*
20,1,$1+$1,$6,$7,$8,$9,0*
20,1,$1+$1,$8,$9,$2,$3,0*%
G04 Aperture macros list end*
%ADD10RoundRect,0.225000X-0.225000X-0.250000X0.225000X-0.250000X0.225000X0.250000X-0.225000X0.250000X0*%
%ADD11RoundRect,0.225000X-0.250000X0.225000X-0.250000X-0.225000X0.250000X-0.225000X0.250000X0.225000X0*%
%ADD12RoundRect,0.250000X-0.285000X0.285000X-0.285000X-0.285000X0.285000X-0.285000X0.285000X0.285000X0*%
%ADD13RoundRect,0.062500X-0.062500X0.337500X-0.062500X-0.337500X0.062500X-0.337500X0.062500X0.337500X0*%
%ADD14RoundRect,0.062500X-0.337500X0.062500X-0.337500X-0.062500X0.337500X-0.062500X0.337500X0.062500X0*%
%ADD15RoundRect,0.200000X0.200000X0.275000X-0.200000X0.275000X-0.200000X-0.275000X0.200000X-0.275000X0*%
%ADD16R,0.600000X0.600000*%
%ADD17R,0.800000X1.000000*%
G04 APERTURE END LIST*
D10*
%TO.C,C1*%
X107725000Y-96500000D03*
X109275000Y-96500000D03*
%TD*%
D11*
%TO.C,C2*%
X111000000Y-96225000D03*
X111000000Y-97775000D03*
%TD*%
%TO.C,C3*%
X112500000Y-96225000D03*
X112500000Y-97775000D03*
%TD*%
D12*
%TO.C,U1*%
X113480000Y-104980000D03*
X112160000Y-102340000D03*
X112160000Y-104980000D03*
X113480000Y-103660000D03*
X113480000Y-102340000D03*
X112160000Y-103660000D03*
X110840000Y-101020000D03*
X109520000Y-103660000D03*
X112160000Y-101020000D03*
X113480000Y-101020000D03*
X110840000Y-102340000D03*
X109520000Y-102340000D03*
X109520000Y-104980000D03*
X109520000Y-101020000D03*
X110840000Y-104980000D03*
X110840000Y-103660000D03*
D13*
X114250000Y-99550000D03*
X113750000Y-99550000D03*
X113250000Y-99550000D03*
X112750000Y-99550000D03*
X112250000Y-99550000D03*
X111750000Y-99550000D03*
X111250000Y-99550000D03*
X110750000Y-99550000D03*
X110250000Y-99550000D03*
X109750000Y-99550000D03*
X109250000Y-99550000D03*
X108750000Y-99550000D03*
D14*
X108050000Y-100250000D03*
X108050000Y-100750000D03*
X108050000Y-101250000D03*
X108050000Y-101750000D03*
X108050000Y-102250000D03*
X108050000Y-102750000D03*
X108050000Y-103250000D03*
X108050000Y-103750000D03*
X108050000Y-104250000D03*
X108050000Y-104750000D03*
X108050000Y-105250000D03*
X108050000Y-105750000D03*
D13*
X108750000Y-106450000D03*
X109250000Y-106450000D03*
X109750000Y-106450000D03*
X110250000Y-106450000D03*
X110750000Y-106450000D03*
X111250000Y-106450000D03*
X111750000Y-106450000D03*
X112250000Y-106450000D03*
X112750000Y-106450000D03*
X113250000Y-106450000D03*
X113750000Y-106450000D03*
X114250000Y-106450000D03*
D14*
X114950000Y-105750000D03*
X114950000Y-105250000D03*
X114950000Y-104750000D03*
X114950000Y-104250000D03*
X114950000Y-103750000D03*
X114950000Y-103250000D03*
X114950000Y-102750000D03*
X114950000Y-102250000D03*
X114950000Y-101750000D03*
X114950000Y-101250000D03*
X114950000Y-100750000D03*
X114950000Y-100250000D03*
%TD*%
D15*
%TO.C,R1*%
X109325000Y-98000000D03*
X107675000Y-98000000D03*
%TD*%
D16*
%TO.C,SW1*%
X118456000Y-111984000D03*
X118456000Y-114584000D03*
X117256000Y-114584000D03*
X117256000Y-111984000D03*
%TD*%
%TO.C,SW2*%
X104556000Y-111984000D03*
X104556000Y-114584000D03*
X105756000Y-114584000D03*
X105756000Y-111984000D03*
%TD*%
D17*
%TO.C,D1*%
X117650000Y-98590000D03*
X117650000Y-100090000D03*
X116550000Y-100090000D03*
X116550000Y-98590000D03*
%TD*%
M02*
