%TF.GenerationSoftware,KiCad,Pcbnew,(5.99.0-10506-gb986797469)*%
%TF.CreationDate,2021-10-07T12:38:36+02:00*%
%TF.ProjectId,ESP31_V2,45535033-315f-4563-922e-6b696361645f,rev?*%
%TF.SameCoordinates,Original*%
%TF.FileFunction,Legend,Bot*%
%TF.FilePolarity,Positive*%
%FSLAX46Y46*%
G04 Gerber Fmt 4.6, Leading zero omitted, Abs format (unit mm)*
G04 Created by KiCad (PCBNEW (5.99.0-10506-gb986797469)) date 2021-10-07 12:38:36*
%MOMM*%
%LPD*%
G01*
G04 APERTURE LIST*
%ADD10C,0.100000*%
%ADD11C,0.300000*%
%ADD12C,0.200000*%
%ADD13C,0.150000*%
%ADD14C,0.120000*%
G04 APERTURE END LIST*
D10*
X106350907Y-99178571D02*
X106377693Y-99202380D01*
X106452098Y-99226190D01*
X106499717Y-99226190D01*
X106568169Y-99202380D01*
X106609836Y-99154761D01*
X106627693Y-99107142D01*
X106639598Y-99011904D01*
X106630669Y-98940476D01*
X106594955Y-98845238D01*
X106565193Y-98797619D01*
X106511622Y-98750000D01*
X106437217Y-98726190D01*
X106389598Y-98726190D01*
X106321145Y-98750000D01*
X106300312Y-98773809D01*
X106148526Y-99083333D02*
X105910431Y-99083333D01*
X106214002Y-99226190D02*
X105984836Y-98726190D01*
X105880669Y-99226190D01*
X105714002Y-99226190D02*
X105651502Y-98726190D01*
X105461026Y-98726190D01*
X105416383Y-98750000D01*
X105395550Y-98773809D01*
X105377693Y-98821428D01*
X105386622Y-98892857D01*
X105416383Y-98940476D01*
X105443169Y-98964285D01*
X105493764Y-98988095D01*
X105684241Y-98988095D01*
X106785431Y-108226190D02*
X106722931Y-107726190D01*
X106389598Y-107726190D02*
X106294360Y-107726190D01*
X106249717Y-107750000D01*
X106208050Y-107797619D01*
X106196145Y-107892857D01*
X106216979Y-108059523D01*
X106252693Y-108154761D01*
X106306264Y-108202380D01*
X106356860Y-108226190D01*
X106452098Y-108226190D01*
X106496741Y-108202380D01*
X106538407Y-108154761D01*
X106550312Y-108059523D01*
X106529479Y-107892857D01*
X106493764Y-107797619D01*
X106440193Y-107750000D01*
X106389598Y-107726190D01*
X105990788Y-107773809D02*
X105964002Y-107750000D01*
X105913407Y-107726190D01*
X105794360Y-107726190D01*
X105749717Y-107750000D01*
X105728883Y-107773809D01*
X105711026Y-107821428D01*
X105716979Y-107869047D01*
X105749717Y-107940476D01*
X106071145Y-108226190D01*
X105761622Y-108226190D01*
X105246741Y-107726190D02*
X105484836Y-107726190D01*
X105538407Y-107964285D01*
X105511622Y-107940476D01*
X105461026Y-107916666D01*
X105341979Y-107916666D01*
X105297336Y-107940476D01*
X105276502Y-107964285D01*
X105258645Y-108011904D01*
X105273526Y-108130952D01*
X105303288Y-108178571D01*
X105330074Y-108202380D01*
X105380669Y-108226190D01*
X105499717Y-108226190D01*
X105544360Y-108202380D01*
X105565193Y-108178571D01*
X117542574Y-110726190D02*
X117447336Y-110726190D01*
X117396741Y-110702380D01*
X117369955Y-110678571D01*
X117313407Y-110607142D01*
X117277693Y-110511904D01*
X117253883Y-110321428D01*
X117271741Y-110273809D01*
X117292574Y-110250000D01*
X117337217Y-110226190D01*
X117432455Y-110226190D01*
X117483050Y-110250000D01*
X117509836Y-110273809D01*
X117539598Y-110321428D01*
X117554479Y-110440476D01*
X117536622Y-110488095D01*
X117515788Y-110511904D01*
X117471145Y-110535714D01*
X117375907Y-110535714D01*
X117325312Y-110511904D01*
X117298526Y-110488095D01*
X117268764Y-110440476D01*
X106350907Y-105578571D02*
X106377693Y-105602380D01*
X106452098Y-105626190D01*
X106499717Y-105626190D01*
X106568169Y-105602380D01*
X106609836Y-105554761D01*
X106627693Y-105507142D01*
X106639598Y-105411904D01*
X106630669Y-105340476D01*
X106594955Y-105245238D01*
X106565193Y-105197619D01*
X106511622Y-105150000D01*
X106437217Y-105126190D01*
X106389598Y-105126190D01*
X106321145Y-105150000D01*
X106300312Y-105173809D01*
X106148526Y-105483333D02*
X105910431Y-105483333D01*
X106214002Y-105626190D02*
X105984836Y-105126190D01*
X105880669Y-105626190D01*
X105714002Y-105626190D02*
X105651502Y-105126190D01*
X105461026Y-105126190D01*
X105416383Y-105150000D01*
X105395550Y-105173809D01*
X105377693Y-105221428D01*
X105386622Y-105292857D01*
X105416383Y-105340476D01*
X105443169Y-105364285D01*
X105493764Y-105388095D01*
X105684241Y-105388095D01*
X106785431Y-100526190D02*
X106722931Y-100026190D01*
X106389598Y-100026190D02*
X106294360Y-100026190D01*
X106249717Y-100050000D01*
X106208050Y-100097619D01*
X106196145Y-100192857D01*
X106216979Y-100359523D01*
X106252693Y-100454761D01*
X106306264Y-100502380D01*
X106356860Y-100526190D01*
X106452098Y-100526190D01*
X106496741Y-100502380D01*
X106538407Y-100454761D01*
X106550312Y-100359523D01*
X106529479Y-100192857D01*
X106493764Y-100097619D01*
X106440193Y-100050000D01*
X106389598Y-100026190D01*
X106008645Y-100026190D02*
X105699122Y-100026190D01*
X105889598Y-100216666D01*
X105818169Y-100216666D01*
X105773526Y-100240476D01*
X105752693Y-100264285D01*
X105734836Y-100311904D01*
X105749717Y-100430952D01*
X105779479Y-100478571D01*
X105806264Y-100502380D01*
X105856860Y-100526190D01*
X105999717Y-100526190D01*
X106044360Y-100502380D01*
X106065193Y-100478571D01*
X105246741Y-100026190D02*
X105484836Y-100026190D01*
X105538407Y-100264285D01*
X105511622Y-100240476D01*
X105461026Y-100216666D01*
X105341979Y-100216666D01*
X105297336Y-100240476D01*
X105276502Y-100264285D01*
X105258645Y-100311904D01*
X105273526Y-100430952D01*
X105303288Y-100478571D01*
X105330074Y-100502380D01*
X105380669Y-100526190D01*
X105499717Y-100526190D01*
X105544360Y-100502380D01*
X105565193Y-100478571D01*
D11*
X115844107Y-105107142D02*
X115177440Y-105107142D01*
X115022678Y-106154761D02*
X115975059Y-106154761D01*
X115725059Y-104154761D01*
X114772678Y-104154761D01*
X114248869Y-106059523D02*
X113975059Y-106154761D01*
X113498869Y-106154761D01*
X113296488Y-106059523D01*
X113189345Y-105964285D01*
X113070297Y-105773809D01*
X113046488Y-105583333D01*
X113117916Y-105392857D01*
X113201250Y-105297619D01*
X113379821Y-105202380D01*
X113748869Y-105107142D01*
X113927440Y-105011904D01*
X114010773Y-104916666D01*
X114082202Y-104726190D01*
X114058392Y-104535714D01*
X113939345Y-104345238D01*
X113832202Y-104250000D01*
X113629821Y-104154761D01*
X113153630Y-104154761D01*
X112879821Y-104250000D01*
X112260773Y-106154761D02*
X112010773Y-104154761D01*
X111248869Y-104154761D01*
X111070297Y-104250000D01*
X110986964Y-104345238D01*
X110915535Y-104535714D01*
X110951250Y-104821428D01*
X111070297Y-105011904D01*
X111177440Y-105107142D01*
X111379821Y-105202380D01*
X112141726Y-105202380D01*
X110201250Y-104154761D02*
X108963154Y-104154761D01*
X109725059Y-104916666D01*
X109439345Y-104916666D01*
X109260773Y-105011904D01*
X109177440Y-105107142D01*
X109106011Y-105297619D01*
X109165535Y-105773809D01*
X109284583Y-105964285D01*
X109391726Y-106059523D01*
X109594107Y-106154761D01*
X110165535Y-106154761D01*
X110344107Y-106059523D01*
X110427440Y-105964285D01*
X107308392Y-106154761D02*
X108451250Y-106154761D01*
X107879821Y-106154761D02*
X107629821Y-104154761D01*
X107856011Y-104440476D01*
X108070297Y-104630952D01*
X108272678Y-104726190D01*
D12*
X116067529Y-108085714D02*
X115686577Y-108085714D01*
X115883005Y-107752380D02*
X115990148Y-108609523D01*
X115954434Y-108704761D01*
X115865148Y-108752380D01*
X115769910Y-108752380D01*
X115436577Y-108752380D02*
X115311577Y-107752380D01*
X115008005Y-108752380D02*
X114942529Y-108228571D01*
X114978244Y-108133333D01*
X115067529Y-108085714D01*
X115210386Y-108085714D01*
X115311577Y-108133333D01*
X115365148Y-108180952D01*
X114144910Y-108704761D02*
X114246101Y-108752380D01*
X114436577Y-108752380D01*
X114525863Y-108704761D01*
X114561577Y-108609523D01*
X114513958Y-108228571D01*
X114454434Y-108133333D01*
X114353244Y-108085714D01*
X114162767Y-108085714D01*
X114073482Y-108133333D01*
X114037767Y-108228571D01*
X114049672Y-108323809D01*
X114537767Y-108419047D01*
X113674672Y-108752380D02*
X113549672Y-107752380D01*
X113597291Y-108133333D02*
X113496101Y-108085714D01*
X113305625Y-108085714D01*
X113216339Y-108133333D01*
X113174672Y-108180952D01*
X113138958Y-108276190D01*
X113174672Y-108561904D01*
X113234196Y-108657142D01*
X113287767Y-108704761D01*
X113388958Y-108752380D01*
X113579434Y-108752380D01*
X113668720Y-108704761D01*
X112769910Y-108752380D02*
X112686577Y-108085714D01*
X112710386Y-108276190D02*
X112650863Y-108180952D01*
X112597291Y-108133333D01*
X112496101Y-108085714D01*
X112400863Y-108085714D01*
X111638958Y-108085714D02*
X111722291Y-108752380D01*
X112067529Y-108085714D02*
X112133005Y-108609523D01*
X112097291Y-108704761D01*
X112008005Y-108752380D01*
X111865148Y-108752380D01*
X111763958Y-108704761D01*
X111710386Y-108657142D01*
X111305625Y-108085714D02*
X110924672Y-108085714D01*
X111121101Y-107752380D02*
X111228244Y-108609523D01*
X111192529Y-108704761D01*
X111103244Y-108752380D01*
X111008005Y-108752380D01*
X110686577Y-108085714D02*
X110162767Y-108085714D01*
X110769910Y-108752380D01*
X110246101Y-108752380D01*
X109722291Y-108752380D02*
X109811577Y-108704761D01*
X109847291Y-108609523D01*
X109740148Y-107752380D01*
X108954434Y-108704761D02*
X109055625Y-108752380D01*
X109246101Y-108752380D01*
X109335386Y-108704761D01*
X109371101Y-108609523D01*
X109323482Y-108228571D01*
X109263958Y-108133333D01*
X109162767Y-108085714D01*
X108972291Y-108085714D01*
X108883005Y-108133333D01*
X108847291Y-108228571D01*
X108859196Y-108323809D01*
X109347291Y-108419047D01*
X108484196Y-108752380D02*
X108400863Y-108085714D01*
X108424672Y-108276190D02*
X108365148Y-108180952D01*
X108311577Y-108133333D01*
X108210386Y-108085714D01*
X108115148Y-108085714D01*
D10*
X117785431Y-106526190D02*
X117722931Y-106026190D01*
X117389598Y-106026190D02*
X117294360Y-106026190D01*
X117249717Y-106050000D01*
X117208050Y-106097619D01*
X117196145Y-106192857D01*
X117216979Y-106359523D01*
X117252693Y-106454761D01*
X117306264Y-106502380D01*
X117356860Y-106526190D01*
X117452098Y-106526190D01*
X117496741Y-106502380D01*
X117538407Y-106454761D01*
X117550312Y-106359523D01*
X117529479Y-106192857D01*
X117493764Y-106097619D01*
X117440193Y-106050000D01*
X117389598Y-106026190D01*
X116761622Y-106526190D02*
X117047336Y-106526190D01*
X116904479Y-106526190D02*
X116841979Y-106026190D01*
X116898526Y-106097619D01*
X116952098Y-106145238D01*
X117002693Y-106169047D01*
X116440193Y-106240476D02*
X116484836Y-106216666D01*
X116505669Y-106192857D01*
X116523526Y-106145238D01*
X116520550Y-106121428D01*
X116490788Y-106073809D01*
X116464002Y-106050000D01*
X116413407Y-106026190D01*
X116318169Y-106026190D01*
X116273526Y-106050000D01*
X116252693Y-106073809D01*
X116234836Y-106121428D01*
X116237812Y-106145238D01*
X116267574Y-106192857D01*
X116294360Y-106216666D01*
X116344955Y-106240476D01*
X116440193Y-106240476D01*
X116490788Y-106264285D01*
X116517574Y-106288095D01*
X116547336Y-106335714D01*
X116559241Y-106430952D01*
X116541383Y-106478571D01*
X116520550Y-106502380D01*
X116475907Y-106526190D01*
X116380669Y-106526190D01*
X116330074Y-106502380D01*
X116303288Y-106478571D01*
X116273526Y-106430952D01*
X116261622Y-106335714D01*
X116279479Y-106288095D01*
X116300312Y-106264285D01*
X116344955Y-106240476D01*
X106985431Y-101826190D02*
X106922931Y-101326190D01*
X106589598Y-101326190D02*
X106494360Y-101326190D01*
X106449717Y-101350000D01*
X106408050Y-101397619D01*
X106396145Y-101492857D01*
X106416979Y-101659523D01*
X106452693Y-101754761D01*
X106506264Y-101802380D01*
X106556860Y-101826190D01*
X106652098Y-101826190D01*
X106696741Y-101802380D01*
X106738407Y-101754761D01*
X106750312Y-101659523D01*
X106729479Y-101492857D01*
X106693764Y-101397619D01*
X106640193Y-101350000D01*
X106589598Y-101326190D01*
X106208645Y-101326190D02*
X105899122Y-101326190D01*
X106089598Y-101516666D01*
X106018169Y-101516666D01*
X105973526Y-101540476D01*
X105952693Y-101564285D01*
X105934836Y-101611904D01*
X105949717Y-101730952D01*
X105979479Y-101778571D01*
X106006264Y-101802380D01*
X106056860Y-101826190D01*
X106199717Y-101826190D01*
X106244360Y-101802380D01*
X106265193Y-101778571D01*
X105714598Y-101373809D02*
X105687812Y-101350000D01*
X105637217Y-101326190D01*
X105518169Y-101326190D01*
X105473526Y-101350000D01*
X105452693Y-101373809D01*
X105434836Y-101421428D01*
X105440788Y-101469047D01*
X105473526Y-101540476D01*
X105794955Y-101826190D01*
X105485431Y-101826190D01*
X106985431Y-103026190D02*
X106922931Y-102526190D01*
X106589598Y-102526190D02*
X106494360Y-102526190D01*
X106449717Y-102550000D01*
X106408050Y-102597619D01*
X106396145Y-102692857D01*
X106416979Y-102859523D01*
X106452693Y-102954761D01*
X106506264Y-103002380D01*
X106556860Y-103026190D01*
X106652098Y-103026190D01*
X106696741Y-103002380D01*
X106738407Y-102954761D01*
X106750312Y-102859523D01*
X106729479Y-102692857D01*
X106693764Y-102597619D01*
X106640193Y-102550000D01*
X106589598Y-102526190D01*
X106208645Y-102526190D02*
X105899122Y-102526190D01*
X106089598Y-102716666D01*
X106018169Y-102716666D01*
X105973526Y-102740476D01*
X105952693Y-102764285D01*
X105934836Y-102811904D01*
X105949717Y-102930952D01*
X105979479Y-102978571D01*
X106006264Y-103002380D01*
X106056860Y-103026190D01*
X106199717Y-103026190D01*
X106244360Y-103002380D01*
X106265193Y-102978571D01*
X105491383Y-102692857D02*
X105533050Y-103026190D01*
X105586622Y-102502380D02*
X105750312Y-102859523D01*
X105440788Y-102859523D01*
X117342574Y-109526190D02*
X117628288Y-109526190D01*
X117485431Y-109526190D02*
X117422931Y-109026190D01*
X117479479Y-109097619D01*
X117533050Y-109145238D01*
X117583645Y-109169047D01*
X116970550Y-109026190D02*
X116922931Y-109026190D01*
X116878288Y-109050000D01*
X116857455Y-109073809D01*
X116839598Y-109121428D01*
X116827693Y-109216666D01*
X116842574Y-109335714D01*
X116878288Y-109430952D01*
X116908050Y-109478571D01*
X116934836Y-109502380D01*
X116985431Y-109526190D01*
X117033050Y-109526190D01*
X117077693Y-109502380D01*
X117098526Y-109478571D01*
X117116383Y-109430952D01*
X117128288Y-109335714D01*
X117113407Y-109216666D01*
X117077693Y-109121428D01*
X117047931Y-109073809D01*
X117021145Y-109050000D01*
X116970550Y-109026190D01*
X106201502Y-97526190D02*
X106097336Y-98026190D01*
X105868169Y-97526190D01*
X105764002Y-98026190D02*
X105701502Y-97526190D01*
X105511026Y-97526190D01*
X105466383Y-97550000D01*
X105445550Y-97573809D01*
X105427693Y-97621428D01*
X105436622Y-97692857D01*
X105466383Y-97740476D01*
X105493169Y-97764285D01*
X105543764Y-97788095D01*
X105734241Y-97788095D01*
X105891741Y-108973809D02*
X105864955Y-108950000D01*
X105814360Y-108926190D01*
X105695312Y-108926190D01*
X105650669Y-108950000D01*
X105629836Y-108973809D01*
X105611979Y-109021428D01*
X105617931Y-109069047D01*
X105650669Y-109140476D01*
X105972098Y-109426190D01*
X105662574Y-109426190D01*
X105171502Y-108926190D02*
X105266741Y-108926190D01*
X105317336Y-108950000D01*
X105344122Y-108973809D01*
X105400669Y-109045238D01*
X105436383Y-109140476D01*
X105460193Y-109330952D01*
X105442336Y-109378571D01*
X105421502Y-109402380D01*
X105376860Y-109426190D01*
X105281622Y-109426190D01*
X105231026Y-109402380D01*
X105204241Y-109378571D01*
X105174479Y-109330952D01*
X105159598Y-109211904D01*
X105177455Y-109164285D01*
X105198288Y-109140476D01*
X105242931Y-109116666D01*
X105338169Y-109116666D01*
X105388764Y-109140476D01*
X105415550Y-109164285D01*
X105445312Y-109211904D01*
X105901741Y-110183809D02*
X105874955Y-110160000D01*
X105824360Y-110136190D01*
X105705312Y-110136190D01*
X105660669Y-110160000D01*
X105639836Y-110183809D01*
X105621979Y-110231428D01*
X105627931Y-110279047D01*
X105660669Y-110350476D01*
X105982098Y-110636190D01*
X105672574Y-110636190D01*
X105443407Y-110136190D02*
X105110074Y-110136190D01*
X105386860Y-110636190D01*
X117547336Y-108026190D02*
X117484836Y-107526190D01*
X117151502Y-107526190D02*
X117056264Y-107526190D01*
X117011622Y-107550000D01*
X116969955Y-107597619D01*
X116958050Y-107692857D01*
X116978883Y-107859523D01*
X117014598Y-107954761D01*
X117068169Y-108002380D01*
X117118764Y-108026190D01*
X117214002Y-108026190D01*
X117258645Y-108002380D01*
X117300312Y-107954761D01*
X117312217Y-107859523D01*
X117291383Y-107692857D01*
X117255669Y-107597619D01*
X117202098Y-107550000D01*
X117151502Y-107526190D01*
X116484836Y-107526190D02*
X116722931Y-107526190D01*
X116776502Y-107764285D01*
X116749717Y-107740476D01*
X116699122Y-107716666D01*
X116580074Y-107716666D01*
X116535431Y-107740476D01*
X116514598Y-107764285D01*
X116496741Y-107811904D01*
X116511622Y-107930952D01*
X116541383Y-107978571D01*
X116568169Y-108002380D01*
X116618764Y-108026190D01*
X116737812Y-108026190D01*
X116782455Y-108002380D01*
X116803288Y-107978571D01*
X117685431Y-101426190D02*
X117622931Y-100926190D01*
X117289598Y-100926190D02*
X117194360Y-100926190D01*
X117149717Y-100950000D01*
X117108050Y-100997619D01*
X117096145Y-101092857D01*
X117116979Y-101259523D01*
X117152693Y-101354761D01*
X117206264Y-101402380D01*
X117256860Y-101426190D01*
X117352098Y-101426190D01*
X117396741Y-101402380D01*
X117438407Y-101354761D01*
X117450312Y-101259523D01*
X117429479Y-101092857D01*
X117393764Y-100997619D01*
X117340193Y-100950000D01*
X117289598Y-100926190D01*
X116890788Y-100973809D02*
X116864002Y-100950000D01*
X116813407Y-100926190D01*
X116694360Y-100926190D01*
X116649717Y-100950000D01*
X116628883Y-100973809D01*
X116611026Y-101021428D01*
X116616979Y-101069047D01*
X116649717Y-101140476D01*
X116971145Y-101426190D01*
X116661622Y-101426190D01*
X116185431Y-101426190D02*
X116471145Y-101426190D01*
X116328288Y-101426190D02*
X116265788Y-100926190D01*
X116322336Y-100997619D01*
X116375907Y-101045238D01*
X116426502Y-101069047D01*
X117785431Y-104026190D02*
X117722931Y-103526190D01*
X117389598Y-103526190D02*
X117294360Y-103526190D01*
X117249717Y-103550000D01*
X117208050Y-103597619D01*
X117196145Y-103692857D01*
X117216979Y-103859523D01*
X117252693Y-103954761D01*
X117306264Y-104002380D01*
X117356860Y-104026190D01*
X117452098Y-104026190D01*
X117496741Y-104002380D01*
X117538407Y-103954761D01*
X117550312Y-103859523D01*
X117529479Y-103692857D01*
X117493764Y-103597619D01*
X117440193Y-103550000D01*
X117389598Y-103526190D01*
X116761622Y-104026190D02*
X117047336Y-104026190D01*
X116904479Y-104026190D02*
X116841979Y-103526190D01*
X116898526Y-103597619D01*
X116952098Y-103645238D01*
X117002693Y-103669047D01*
X116523526Y-104026190D02*
X116428288Y-104026190D01*
X116377693Y-104002380D01*
X116350907Y-103978571D01*
X116294360Y-103907142D01*
X116258645Y-103811904D01*
X116234836Y-103621428D01*
X116252693Y-103573809D01*
X116273526Y-103550000D01*
X116318169Y-103526190D01*
X116413407Y-103526190D01*
X116464002Y-103550000D01*
X116490788Y-103573809D01*
X116520550Y-103621428D01*
X116535431Y-103740476D01*
X116517574Y-103788095D01*
X116496741Y-103811904D01*
X116452098Y-103835714D01*
X116356860Y-103835714D01*
X116306264Y-103811904D01*
X116279479Y-103788095D01*
X116249717Y-103740476D01*
D13*
X120782163Y-91338718D02*
X120815365Y-91718221D01*
X121458744Y-91422927D02*
X120604862Y-91497632D01*
X120514137Y-91553371D01*
X120475000Y-91652397D01*
X120483300Y-91747272D01*
X121520998Y-92134495D02*
X121465259Y-92043770D01*
X121413671Y-92000482D01*
X121314645Y-91961345D01*
X121030018Y-91986246D01*
X120939293Y-92041985D01*
X120896005Y-92093573D01*
X120856868Y-92192599D01*
X120869319Y-92334912D01*
X120925057Y-92425638D01*
X120976645Y-92468925D01*
X121075671Y-92508063D01*
X121360298Y-92483161D01*
X121451024Y-92427423D01*
X121494311Y-92375835D01*
X121533449Y-92276809D01*
X121520998Y-92134495D01*
X121599853Y-93035814D02*
X121544115Y-92945089D01*
X121445089Y-92905951D01*
X120591207Y-92980656D01*
X121645506Y-93557630D02*
X121589768Y-93466905D01*
X121490742Y-93427768D01*
X120636860Y-93502473D01*
X121691159Y-94079447D02*
X121635421Y-93988721D01*
X121583832Y-93945434D01*
X121484806Y-93906296D01*
X121200179Y-93931198D01*
X121109454Y-93986936D01*
X121066166Y-94038525D01*
X121027029Y-94137551D01*
X121039480Y-94279864D01*
X121095218Y-94370589D01*
X121146806Y-94413877D01*
X121245832Y-94453014D01*
X121530460Y-94428113D01*
X121621185Y-94372374D01*
X121664472Y-94320786D01*
X121703610Y-94221760D01*
X121691159Y-94079447D01*
X121085133Y-94801680D02*
X121765864Y-94933328D01*
X121308087Y-95164582D01*
X121799066Y-95312831D01*
X121151537Y-95560686D01*
X121927725Y-96783404D02*
X121871986Y-96692678D01*
X121820398Y-96649391D01*
X121721372Y-96610253D01*
X121436745Y-96635155D01*
X121346020Y-96690893D01*
X121302732Y-96742482D01*
X121263595Y-96841508D01*
X121276046Y-96983821D01*
X121331784Y-97074546D01*
X121383372Y-97117834D01*
X121482398Y-97156971D01*
X121767025Y-97132070D01*
X121857751Y-97076331D01*
X121901038Y-97024743D01*
X121940175Y-96925717D01*
X121927725Y-96783404D01*
X121329999Y-97600513D02*
X121994129Y-97542409D01*
X121424875Y-97592212D02*
X121381587Y-97643801D01*
X121342450Y-97742827D01*
X121354901Y-97885140D01*
X121410639Y-97975865D01*
X121509665Y-98015003D01*
X122031481Y-97969350D01*
X121462808Y-99118524D02*
X121496010Y-99498027D01*
X121143194Y-99289889D02*
X121997075Y-99215185D01*
X122096101Y-99254322D01*
X122151839Y-99345047D01*
X122160140Y-99439923D01*
X121516761Y-99735216D02*
X122197492Y-99866863D01*
X121739715Y-100098118D01*
X122230695Y-100246366D01*
X121583166Y-100494221D01*
X122280498Y-100815620D02*
X121616368Y-100873724D01*
X121284303Y-100902776D02*
X121327591Y-100851188D01*
X121379179Y-100894476D01*
X121335891Y-100946064D01*
X121284303Y-100902776D01*
X121379179Y-100894476D01*
X121645420Y-101205789D02*
X121678622Y-101585292D01*
X121325806Y-101377155D02*
X122179687Y-101302450D01*
X122278713Y-101341587D01*
X122334451Y-101432312D01*
X122342752Y-101527188D01*
X122361718Y-102290344D02*
X122400856Y-102191318D01*
X122384255Y-102001566D01*
X122328516Y-101910841D01*
X122276928Y-101867553D01*
X122177902Y-101828416D01*
X121893275Y-101853318D01*
X121802550Y-101909056D01*
X121759262Y-101960644D01*
X121720125Y-102059670D01*
X121736726Y-102249422D01*
X121792464Y-102340147D01*
X122446509Y-102713134D02*
X121450314Y-102800290D01*
X122483861Y-103140075D02*
X121962045Y-103185728D01*
X121863019Y-103146590D01*
X121807281Y-103055865D01*
X121794830Y-102913551D01*
X121833967Y-102814525D01*
X121877255Y-102762937D01*
X122430488Y-103622754D02*
X122482076Y-103666041D01*
X122525364Y-103614453D01*
X122473776Y-103571166D01*
X122430488Y-103622754D01*
X122525364Y-103614453D01*
X121890286Y-104004622D02*
X121923488Y-104384125D01*
X121570672Y-104175987D02*
X122424553Y-104101282D01*
X122523579Y-104140420D01*
X122579317Y-104231145D01*
X122587618Y-104326021D01*
X121944240Y-104621314D02*
X122629121Y-104800399D01*
X121985742Y-105095692D01*
X121701696Y-106219965D02*
X122907813Y-105254026D01*
X122097800Y-106376514D02*
X122131002Y-106756017D01*
X121778186Y-106547879D02*
X122632067Y-106473174D01*
X122731093Y-106512312D01*
X122786831Y-106603037D01*
X122795132Y-106697913D01*
X122824184Y-107029978D02*
X121827989Y-107117133D01*
X122861536Y-107456918D02*
X122339720Y-107502571D01*
X122240694Y-107463434D01*
X122184955Y-107372709D01*
X122172505Y-107230395D01*
X122211642Y-107131369D01*
X122254930Y-107079781D01*
X122888803Y-108314950D02*
X122927940Y-108215924D01*
X122911339Y-108026172D01*
X122855601Y-107935447D01*
X122756575Y-107896310D01*
X122377072Y-107929512D01*
X122286347Y-107985250D01*
X122247210Y-108084276D01*
X122263811Y-108274028D01*
X122319549Y-108364753D01*
X122418575Y-108403890D01*
X122513451Y-108395590D01*
X122566824Y-107912911D01*
X122977744Y-108785178D02*
X121981549Y-108872334D01*
X122361052Y-108839131D02*
X122321914Y-108938157D01*
X122338516Y-109127909D01*
X122394254Y-109218634D01*
X122445842Y-109261922D01*
X122544868Y-109301059D01*
X122829495Y-109276157D01*
X122920221Y-109220419D01*
X122963508Y-109168831D01*
X123002645Y-109069805D01*
X122986044Y-108880054D01*
X122930306Y-108789328D01*
X123056599Y-109686497D02*
X122392469Y-109744601D01*
X122582221Y-109728000D02*
X122491495Y-109783738D01*
X122448208Y-109835326D01*
X122409070Y-109934352D01*
X122417371Y-110029228D01*
X122483775Y-110788233D02*
X123147905Y-110730129D01*
X122446423Y-110361293D02*
X122968239Y-110315640D01*
X123067265Y-110354777D01*
X123123003Y-110445502D01*
X123135454Y-110587816D01*
X123096317Y-110686842D01*
X123053029Y-110738430D01*
X122512827Y-111120298D02*
X122546029Y-111499801D01*
X122193213Y-111291664D02*
X123047094Y-111216959D01*
X123146120Y-111256096D01*
X123201859Y-111346821D01*
X123210159Y-111441697D01*
X122566781Y-111736990D02*
X122612434Y-112258806D01*
X123230910Y-111678886D01*
X123276563Y-112200703D01*
X123322216Y-112722519D02*
X123266478Y-112631793D01*
X123167452Y-112592656D01*
X122313571Y-112667361D01*
X123341183Y-113485675D02*
X123380320Y-113386649D01*
X123363719Y-113196897D01*
X123307981Y-113106172D01*
X123208955Y-113067035D01*
X122829452Y-113100237D01*
X122738727Y-113155975D01*
X122699589Y-113255001D01*
X122716190Y-113444753D01*
X122771929Y-113535478D01*
X122870955Y-113574615D01*
X122965830Y-113566315D01*
X123019203Y-113083636D01*
X123430124Y-113955903D02*
X122765994Y-114014007D01*
X122955745Y-113997406D02*
X122865020Y-114053144D01*
X122821732Y-114104732D01*
X122782595Y-114203758D01*
X122790895Y-114298634D01*
D10*
X117785431Y-105226190D02*
X117722931Y-104726190D01*
X117389598Y-104726190D02*
X117294360Y-104726190D01*
X117249717Y-104750000D01*
X117208050Y-104797619D01*
X117196145Y-104892857D01*
X117216979Y-105059523D01*
X117252693Y-105154761D01*
X117306264Y-105202380D01*
X117356860Y-105226190D01*
X117452098Y-105226190D01*
X117496741Y-105202380D01*
X117538407Y-105154761D01*
X117550312Y-105059523D01*
X117529479Y-104892857D01*
X117493764Y-104797619D01*
X117440193Y-104750000D01*
X117389598Y-104726190D01*
X116990788Y-104773809D02*
X116964002Y-104750000D01*
X116913407Y-104726190D01*
X116794360Y-104726190D01*
X116749717Y-104750000D01*
X116728883Y-104773809D01*
X116711026Y-104821428D01*
X116716979Y-104869047D01*
X116749717Y-104940476D01*
X117071145Y-105226190D01*
X116761622Y-105226190D01*
X116532455Y-104726190D02*
X116222931Y-104726190D01*
X116413407Y-104916666D01*
X116341979Y-104916666D01*
X116297336Y-104940476D01*
X116276502Y-104964285D01*
X116258645Y-105011904D01*
X116273526Y-105130952D01*
X116303288Y-105178571D01*
X116330074Y-105202380D01*
X116380669Y-105226190D01*
X116523526Y-105226190D01*
X116568169Y-105202380D01*
X116589002Y-105178571D01*
X117785431Y-102726190D02*
X117722931Y-102226190D01*
X117389598Y-102226190D02*
X117294360Y-102226190D01*
X117249717Y-102250000D01*
X117208050Y-102297619D01*
X117196145Y-102392857D01*
X117216979Y-102559523D01*
X117252693Y-102654761D01*
X117306264Y-102702380D01*
X117356860Y-102726190D01*
X117452098Y-102726190D01*
X117496741Y-102702380D01*
X117538407Y-102654761D01*
X117550312Y-102559523D01*
X117529479Y-102392857D01*
X117493764Y-102297619D01*
X117440193Y-102250000D01*
X117389598Y-102226190D01*
X116990788Y-102273809D02*
X116964002Y-102250000D01*
X116913407Y-102226190D01*
X116794360Y-102226190D01*
X116749717Y-102250000D01*
X116728883Y-102273809D01*
X116711026Y-102321428D01*
X116716979Y-102369047D01*
X116749717Y-102440476D01*
X117071145Y-102726190D01*
X116761622Y-102726190D01*
X116514598Y-102273809D02*
X116487812Y-102250000D01*
X116437217Y-102226190D01*
X116318169Y-102226190D01*
X116273526Y-102250000D01*
X116252693Y-102273809D01*
X116234836Y-102321428D01*
X116240788Y-102369047D01*
X116273526Y-102440476D01*
X116594955Y-102726190D01*
X116285431Y-102726190D01*
X106413407Y-103926190D02*
X106309241Y-104426190D01*
X106080074Y-103926190D01*
X105975907Y-104426190D02*
X105913407Y-103926190D01*
X105690193Y-104426190D01*
X105627693Y-103926190D01*
X106785431Y-107026190D02*
X106722931Y-106526190D01*
X106389598Y-106526190D02*
X106294360Y-106526190D01*
X106249717Y-106550000D01*
X106208050Y-106597619D01*
X106196145Y-106692857D01*
X106216979Y-106859523D01*
X106252693Y-106954761D01*
X106306264Y-107002380D01*
X106356860Y-107026190D01*
X106452098Y-107026190D01*
X106496741Y-107002380D01*
X106538407Y-106954761D01*
X106550312Y-106859523D01*
X106529479Y-106692857D01*
X106493764Y-106597619D01*
X106440193Y-106550000D01*
X106389598Y-106526190D01*
X106008645Y-106526190D02*
X105699122Y-106526190D01*
X105889598Y-106716666D01*
X105818169Y-106716666D01*
X105773526Y-106740476D01*
X105752693Y-106764285D01*
X105734836Y-106811904D01*
X105749717Y-106930952D01*
X105779479Y-106978571D01*
X105806264Y-107002380D01*
X105856860Y-107026190D01*
X105999717Y-107026190D01*
X106044360Y-107002380D01*
X106065193Y-106978571D01*
X105532455Y-106526190D02*
X105222931Y-106526190D01*
X105413407Y-106716666D01*
X105341979Y-106716666D01*
X105297336Y-106740476D01*
X105276502Y-106764285D01*
X105258645Y-106811904D01*
X105273526Y-106930952D01*
X105303288Y-106978571D01*
X105330074Y-107002380D01*
X105380669Y-107026190D01*
X105523526Y-107026190D01*
X105568169Y-107002380D01*
X105589002Y-106978571D01*
D14*
%TO.C,J1*%
X106130000Y-111995000D02*
X106130000Y-114595000D01*
X107460000Y-109395000D02*
X106130000Y-109395000D01*
X106130000Y-114595000D02*
X116410000Y-114595000D01*
X108730000Y-109395000D02*
X116410000Y-109395000D01*
X116410000Y-109395000D02*
X116410000Y-114595000D01*
X108730000Y-111995000D02*
X106130000Y-111995000D01*
X108730000Y-109395000D02*
X108730000Y-111995000D01*
X106130000Y-109395000D02*
X106130000Y-110725000D01*
D13*
%TO.C,SM3*%
X108678000Y-102734000D02*
X108678000Y-99178000D01*
X111980000Y-103496000D02*
X112488000Y-102988000D01*
X110202000Y-103496000D02*
X110202000Y-101972000D01*
X108678000Y-99178000D02*
X112234000Y-99178000D01*
X109694000Y-100194000D02*
X108678000Y-99178000D01*
X109694000Y-100194000D02*
X113250000Y-100194000D01*
X111980000Y-101464000D02*
X111980000Y-103496000D01*
X111980000Y-103496000D02*
X111472000Y-102988000D01*
X112742000Y-100702000D02*
X112742000Y-102226000D01*
X108678000Y-99178000D02*
X109694000Y-100194000D01*
X110964000Y-102734000D02*
X110964000Y-100702000D01*
X110964000Y-100702000D02*
X110456000Y-101210000D01*
X113250000Y-102607000D02*
X113250000Y-103750000D01*
X112234000Y-99178000D02*
X113250000Y-100194000D01*
X113250000Y-103750000D02*
X109694000Y-103750000D01*
X113250000Y-100194000D02*
X113250000Y-102607000D01*
X112742000Y-102226000D02*
X111980000Y-101464000D01*
X110964000Y-100702000D02*
X111472000Y-101210000D01*
X109694000Y-103750000D02*
X108678000Y-102734000D01*
X110202000Y-101972000D02*
X110964000Y-102734000D01*
X109694000Y-103750000D02*
X109694000Y-100194000D01*
%TD*%
M02*
