%TF.GenerationSoftware,KiCad,Pcbnew,(5.99.0-10506-gb986797469)*%
%TF.CreationDate,2022-01-12T07:01:15+01:00*%
%TF.ProjectId,ESP31_V3,45535033-315f-4563-932e-6b696361645f,rev?*%
%TF.SameCoordinates,Original*%
%TF.FileFunction,Copper,L4,Bot*%
%TF.FilePolarity,Positive*%
%FSLAX46Y46*%
G04 Gerber Fmt 4.6, Leading zero omitted, Abs format (unit mm)*
G04 Created by KiCad (PCBNEW (5.99.0-10506-gb986797469)) date 2022-01-12 07:01:15*
%MOMM*%
%LPD*%
G01*
G04 APERTURE LIST*
G04 Aperture macros list*
%AMOutline5P*
0 Free polygon, 5 corners , with rotation*
0 The origin of the aperture is its center*
0 number of corners: always 8*
0 $1 to $10 corner X, Y*
0 $11 Rotation angle, in degrees counterclockwise*
0 create outline with 8 corners*
4,1,5,$1,$2,$3,$4,$5,$6,$7,$8,$9,$10,$1,$2,$11*%
%AMOutline6P*
0 Free polygon, 6 corners , with rotation*
0 The origin of the aperture is its center*
0 number of corners: always 6*
0 $1 to $12 corner X, Y*
0 $13 Rotation angle, in degrees counterclockwise*
0 create outline with 6 corners*
4,1,6,$1,$2,$3,$4,$5,$6,$7,$8,$9,$10,$11,$12,$1,$2,$13*%
%AMOutline7P*
0 Free polygon, 7 corners , with rotation*
0 The origin of the aperture is its center*
0 number of corners: always 7*
0 $1 to $14 corner X, Y*
0 $15 Rotation angle, in degrees counterclockwise*
0 create outline with 7 corners*
4,1,7,$1,$2,$3,$4,$5,$6,$7,$8,$9,$10,$11,$12,$13,$14,$1,$2,$15*%
%AMOutline8P*
0 Free polygon, 8 corners , with rotation*
0 The origin of the aperture is its center*
0 number of corners: always 8*
0 $1 to $16 corner X, Y*
0 $17 Rotation angle, in degrees counterclockwise*
0 create outline with 8 corners*
4,1,8,$1,$2,$3,$4,$5,$6,$7,$8,$9,$10,$11,$12,$13,$14,$15,$16,$1,$2,$17*%
%AMFreePoly0*
4,1,22,0.550000,-0.750000,0.000000,-0.750000,0.000000,-0.745033,-0.079941,-0.743568,-0.215256,-0.701293,-0.333266,-0.622738,-0.424486,-0.514219,-0.481581,-0.384460,-0.499164,-0.250000,-0.500000,-0.250000,-0.500000,0.250000,-0.499164,0.250000,-0.499963,0.256109,-0.478152,0.396186,-0.417904,0.524511,-0.324060,0.630769,-0.204165,0.706417,-0.067858,0.745374,0.000000,0.744959,0.000000,0.750000,
0.550000,0.750000,0.550000,-0.750000,0.550000,-0.750000,$1*%
%AMFreePoly1*
4,1,20,0.000000,0.744959,0.073905,0.744508,0.209726,0.703889,0.328688,0.626782,0.421226,0.519385,0.479903,0.390333,0.500000,0.250000,0.500000,-0.250000,0.499851,-0.262216,0.476331,-0.402017,0.414519,-0.529596,0.319384,-0.634700,0.198574,-0.708877,0.061801,-0.746166,0.000000,-0.745033,0.000000,-0.750000,-0.550000,-0.750000,-0.550000,0.750000,0.000000,0.750000,0.000000,0.744959,
0.000000,0.744959,$1*%
G04 Aperture macros list end*
%TA.AperFunction,ComponentPad*%
%ADD10Outline6P,0.250000X-0.500000X-0.500000X-0.500000X-0.500000X0.500000X0.250000X0.500000X0.500000X0.250000X0.500000X-0.250000X180.000000*%
%TD*%
%TA.AperFunction,ComponentPad*%
%ADD11Outline6P,0.250000X-0.500000X-0.500000X-0.500000X-0.500000X0.500000X0.250000X0.500000X0.500000X0.250000X0.500000X-0.250000X0.000000*%
%TD*%
%TA.AperFunction,WasherPad*%
%ADD12C,1.300000*%
%TD*%
%TA.AperFunction,ComponentPad*%
%ADD13R,0.900000X0.500000*%
%TD*%
%TA.AperFunction,ComponentPad*%
%ADD14R,1.700000X1.700000*%
%TD*%
%TA.AperFunction,ComponentPad*%
%ADD15O,1.700000X1.700000*%
%TD*%
%TA.AperFunction,SMDPad,CuDef*%
%ADD16FreePoly0,270.000000*%
%TD*%
%TA.AperFunction,SMDPad,CuDef*%
%ADD17R,1.500000X1.000000*%
%TD*%
%TA.AperFunction,SMDPad,CuDef*%
%ADD18FreePoly1,270.000000*%
%TD*%
%TA.AperFunction,ViaPad*%
%ADD19C,0.400000*%
%TD*%
%TA.AperFunction,ViaPad*%
%ADD20C,0.800000*%
%TD*%
%TA.AperFunction,Conductor*%
%ADD21C,0.200000*%
%TD*%
G04 APERTURE END LIST*
%TO.C,JP1*%
G36*
X116600000Y-107100000D02*
G01*
X116000000Y-107100000D01*
X116000000Y-106600000D01*
X116600000Y-106600000D01*
X116600000Y-107100000D01*
G37*
%TD*%
D10*
%TO.P,J5,1,Pin_1*%
%TO.N,/IO5*%
X118500000Y-107780000D03*
%TD*%
%TO.P,J10,1,Pin_1*%
%TO.N,/IO21*%
X118500000Y-101180000D03*
%TD*%
%TO.P,J7,1,Pin_1*%
%TO.N,/IO10*%
X118500000Y-109230000D03*
%TD*%
D11*
%TO.P,J18,1,Pin_1*%
%TO.N,/IO34*%
X104500000Y-102870000D03*
%TD*%
D10*
%TO.P,J9,1,Pin_1*%
%TO.N,/IO19*%
X118500000Y-103720000D03*
%TD*%
%TO.P,J6,1,Pin_1*%
%TO.N,/IO9*%
X118500000Y-110500000D03*
%TD*%
%TO.P,J12,1,Pin_1*%
%TO.N,/IO23*%
X118500000Y-104990000D03*
%TD*%
D11*
%TO.P,J19,1,Pin_1*%
%TO.N,/IO35*%
X104500000Y-100330000D03*
%TD*%
D12*
%TO.P,REF\u002A\u002A,*%
%TO.N,*%
X106000000Y-94800000D03*
%TD*%
D11*
%TO.P,J13,1,Pin_1*%
%TO.N,/IO25*%
X104500000Y-107950000D03*
%TD*%
D12*
%TO.P,,*%
%TO.N,*%
X122800000Y-91000000D03*
%TD*%
D11*
%TO.P,J15,1,Pin_1*%
%TO.N,/IO27*%
X104500000Y-110490000D03*
%TD*%
%TO.P,J17,1,Pin_1*%
%TO.N,/IO33*%
X104500000Y-106680000D03*
%TD*%
%TO.P,J14,1,Pin_1*%
%TO.N,/IO26*%
X104500000Y-109220000D03*
%TD*%
D10*
%TO.P,J8,1,Pin_1*%
%TO.N,/IO18*%
X118500000Y-106260000D03*
%TD*%
D13*
%TO.P,AE1,2,Shield*%
%TO.N,GND*%
X118150000Y-95625000D03*
%TD*%
D11*
%TO.P,J3,1,Pin_1*%
%TO.N,/CAPN*%
X104500000Y-105410000D03*
%TD*%
%TO.P,J4,1,Pin_1*%
%TO.N,/SENS_VN*%
X104500000Y-104140000D03*
%TD*%
D10*
%TO.P,J11,1,Pin_1*%
%TO.N,/IO22*%
X118500000Y-102450000D03*
%TD*%
D12*
%TO.P,,*%
%TO.N,*%
X121400000Y-113600000D03*
%TD*%
D11*
%TO.P,J1,1,Pin_1*%
%TO.N,/SENS_VP*%
X104500000Y-97790000D03*
%TD*%
%TO.P,J16,1,Pin_1*%
%TO.N,/IO32*%
X104500000Y-101600000D03*
%TD*%
%TO.P,J2,1,Pin_1*%
%TO.N,/CAPP*%
X104500000Y-99060000D03*
%TD*%
D14*
%TO.P,J20,1,Pin_1*%
%TO.N,GND*%
X107500000Y-110725000D03*
D15*
%TO.P,J20,2,Pin_2*%
%TO.N,/IO1*%
X107500000Y-113265000D03*
%TO.P,J20,3,Pin_3*%
%TO.N,/IO2*%
X110040000Y-110725000D03*
%TO.P,J20,4,Pin_4*%
%TO.N,/IO4*%
X110040000Y-113265000D03*
%TO.P,J20,5,Pin_5*%
%TO.N,/IO0*%
X112580000Y-110725000D03*
%TO.P,J20,6,Pin_6*%
%TO.N,/EN*%
X112580000Y-113265000D03*
%TO.P,J20,7,Pin_7*%
%TO.N,/IO3*%
X115120000Y-110725000D03*
%TO.P,J20,8,Pin_8*%
%TO.N,VIN*%
X115120000Y-113265000D03*
%TD*%
D16*
%TO.P,JP1,1,A*%
%TO.N,+3V3*%
X116300000Y-106200000D03*
D17*
%TO.P,JP1,2,C*%
%TO.N,VIN*%
X116300000Y-107500000D03*
D18*
%TO.P,JP1,3,B*%
%TO.N,Net-(C1-Pad2)*%
X116300000Y-108800000D03*
%TD*%
D19*
%TO.N,GND*%
X117350000Y-96150000D03*
X112889765Y-108410228D03*
X116130000Y-97680000D03*
X105500000Y-99300000D03*
X109100000Y-109150000D03*
X113900000Y-97100000D03*
X104550000Y-96200000D03*
X113550000Y-96200000D03*
X114850000Y-98150000D03*
X108580000Y-107330000D03*
X118500000Y-98500000D03*
X116530000Y-97200000D03*
X116750000Y-96050000D03*
X111500000Y-103000000D03*
X106650000Y-98200000D03*
X114200000Y-108900000D03*
X108508800Y-97256600D03*
X116500000Y-111100000D03*
X104500000Y-113750000D03*
X110500000Y-102000000D03*
X108740000Y-113670000D03*
X118450000Y-97825000D03*
X118500000Y-100000000D03*
X115350000Y-96050000D03*
X116750000Y-96600000D03*
X115150000Y-96600000D03*
X109900000Y-107400000D03*
X112500000Y-102000000D03*
X112500000Y-104000000D03*
X118450000Y-96250000D03*
X111750000Y-96200000D03*
X118500000Y-99250000D03*
X114503200Y-96800000D03*
X114400000Y-96200000D03*
X113374500Y-97587566D03*
X110150000Y-96200000D03*
X118500000Y-112750000D03*
X104500000Y-112750000D03*
X113621581Y-109899011D03*
X118425000Y-97000000D03*
X110500000Y-104000000D03*
X118500000Y-113750000D03*
X115450000Y-98050000D03*
X114450000Y-98700000D03*
%TO.N,/EN*%
X107725000Y-97227600D03*
X110162095Y-98373291D03*
%TO.N,+3V3*%
X110124000Y-97775000D03*
X114750000Y-99500000D03*
X113400000Y-108900000D03*
X116396800Y-101896800D03*
X115750000Y-101250000D03*
X107100000Y-104400000D03*
X117495701Y-105195701D03*
%TO.N,/IO1*%
X116464297Y-103214297D03*
%TO.N,/IO2*%
X107069740Y-108169740D03*
X117800000Y-97600000D03*
%TO.N,/IO4*%
X107542579Y-109142578D03*
%TO.N,/IO3*%
X117211935Y-103241894D03*
D20*
%TO.N,Net-(C1-Pad2)*%
X116700000Y-110200000D03*
D19*
%TO.N,/SENS_VN*%
X110808929Y-98625870D03*
%TO.N,/SENS_VP*%
X112700500Y-98625000D03*
%TO.N,/CAPP*%
X112057502Y-98617052D03*
%TO.N,/CAPN*%
X111408098Y-98605879D03*
%TO.N,/IO34*%
X109668798Y-98858724D03*
%TD*%
D21*
%TO.N,/EN*%
X109983014Y-98373291D02*
X109359723Y-97750000D01*
X108253511Y-97756111D02*
X107725000Y-97227600D01*
X110162095Y-98373291D02*
X109983014Y-98373291D01*
X108748566Y-97756111D02*
X108253511Y-97756111D01*
X108754677Y-97750000D02*
X108748566Y-97756111D01*
X109359723Y-97750000D02*
X108754677Y-97750000D01*
%TO.N,+3V3*%
X116300000Y-106200000D02*
X116491402Y-106200000D01*
X116491402Y-106200000D02*
X117495701Y-105195701D01*
%TO.N,/IO1*%
X114849832Y-105698512D02*
X114900000Y-105648344D01*
X114900000Y-105100000D02*
X116464297Y-103535703D01*
X114849832Y-109293892D02*
X114849832Y-105698512D01*
X113970489Y-111629511D02*
X113970489Y-110268788D01*
X114900000Y-105648344D02*
X114900000Y-105100000D01*
X107460000Y-113265000D02*
X108725000Y-112000000D01*
X108725000Y-112000000D02*
X113600000Y-112000000D01*
X116464297Y-103535703D02*
X116464297Y-103214297D01*
X113970489Y-110268788D02*
X114099511Y-110139766D01*
X114099511Y-110139766D02*
X114099511Y-110044213D01*
X114099511Y-110044213D02*
X114849832Y-109293892D01*
X113600000Y-112000000D02*
X113970489Y-111629511D01*
%TO.N,/IO2*%
X108910000Y-105690000D02*
X108910000Y-101180000D01*
X114520000Y-100880000D02*
X117800000Y-97600000D01*
X107069740Y-108169740D02*
X107069740Y-107530260D01*
X109210000Y-100880000D02*
X114520000Y-100880000D01*
X107069740Y-108169740D02*
X107400000Y-108500000D01*
X107069740Y-107530260D02*
X108910000Y-105690000D01*
X110040000Y-109350723D02*
X110040000Y-110725000D01*
X109189277Y-108500000D02*
X110040000Y-109350723D01*
X108910000Y-101180000D02*
X109210000Y-100880000D01*
X107400000Y-108500000D02*
X109189277Y-108500000D01*
%TO.N,/IO4*%
X106080000Y-113800000D02*
X106694511Y-114414511D01*
X106694511Y-114414511D02*
X108850489Y-114414511D01*
X106080000Y-109865880D02*
X106080000Y-113800000D01*
X107542579Y-109142578D02*
X106803302Y-109142578D01*
X108850489Y-114414511D02*
X110000000Y-113265000D01*
X106803302Y-109142578D02*
X106080000Y-109865880D01*
%TO.N,/IO3*%
X115249352Y-105863998D02*
X115249352Y-110555648D01*
X115300000Y-105265006D02*
X115300000Y-105813350D01*
X117211935Y-103353071D02*
X115300000Y-105265006D01*
X115300000Y-105813350D02*
X115249352Y-105863998D01*
X115249352Y-110555648D02*
X115080000Y-110725000D01*
X117211935Y-103241894D02*
X117211935Y-103353071D01*
%TO.N,Net-(C1-Pad2)*%
X116300000Y-108800000D02*
X116300000Y-109800000D01*
X116300000Y-109800000D02*
X116700000Y-110200000D01*
%TO.N,/SENS_VN*%
X106658201Y-99466799D02*
X105699040Y-100425960D01*
X105699040Y-103200960D02*
X104760000Y-104140000D01*
X110808929Y-98625870D02*
X110640929Y-98625870D01*
X104760000Y-104140000D02*
X104500000Y-104140000D01*
X109800000Y-99466799D02*
X106658201Y-99466799D01*
X105699040Y-100425960D02*
X105699040Y-103200960D01*
X110640929Y-98625870D02*
X109800000Y-99466799D01*
%TO.N,/SENS_VP*%
X111499511Y-96699511D02*
X110199511Y-96699511D01*
X105610000Y-97790000D02*
X104500000Y-97790000D01*
X107100000Y-96300000D02*
X105610000Y-97790000D01*
X109510723Y-96300000D02*
X107100000Y-96300000D01*
X112700500Y-98625000D02*
X112700500Y-97900500D01*
X110199511Y-96699511D02*
X109910234Y-96699511D01*
X109910234Y-96699511D02*
X109510723Y-96300000D01*
X112700500Y-97900500D02*
X111499511Y-96699511D01*
X110325511Y-96699511D02*
X110199511Y-96699511D01*
%TO.N,/CAPP*%
X109499030Y-97099030D02*
X109099520Y-96699520D01*
X111099031Y-97099031D02*
X109499030Y-97099030D01*
X107265486Y-96699520D02*
X104905006Y-99060000D01*
X104905006Y-99060000D02*
X104500000Y-99060000D01*
X109099520Y-96699520D02*
X107265486Y-96699520D01*
X112057502Y-98617052D02*
X112057502Y-98057502D01*
X112057502Y-98057502D02*
X111099031Y-97099031D01*
%TO.N,/CAPN*%
X104765000Y-105410000D02*
X106125000Y-104050000D01*
X106125000Y-104050000D02*
X106125000Y-100675000D01*
X106875000Y-99925000D02*
X110249076Y-99925000D01*
X106125000Y-100675000D02*
X106875000Y-99925000D01*
X110249076Y-99925000D02*
X111408098Y-98765978D01*
X104500000Y-105410000D02*
X104765000Y-105410000D01*
X111408098Y-98765978D02*
X111408098Y-98605879D01*
%TO.N,/IO34*%
X106701270Y-98858724D02*
X105299521Y-100260473D01*
X105299521Y-100260473D02*
X105299520Y-102070480D01*
X109668798Y-98858724D02*
X106701270Y-98858724D01*
X105299520Y-102070480D02*
X104500000Y-102870000D01*
%TO.N,VIN*%
X117500000Y-107750000D02*
X117500000Y-111500000D01*
X115735000Y-113265000D02*
X115120000Y-113265000D01*
X117500000Y-111500000D02*
X115735000Y-113265000D01*
X117250000Y-107500000D02*
X117500000Y-107750000D01*
X116300000Y-107500000D02*
X117250000Y-107500000D01*
%TD*%
%TA.AperFunction,Conductor*%
%TO.N,GND*%
G36*
X118417774Y-95418907D02*
G01*
X118428869Y-95428286D01*
X118459684Y-95458478D01*
X118808247Y-95800000D01*
X118901000Y-95800000D01*
X118959191Y-95818907D01*
X118995155Y-95868407D01*
X118999000Y-95892686D01*
X118999000Y-95964329D01*
X118981093Y-96019442D01*
X118931593Y-96055406D01*
X118924871Y-96057330D01*
X118858814Y-96073738D01*
X118851940Y-96078177D01*
X118851939Y-96078177D01*
X118809779Y-96105399D01*
X118760744Y-96137061D01*
X118688473Y-96228737D01*
X118685763Y-96236455D01*
X118685761Y-96236458D01*
X118652505Y-96331159D01*
X118649794Y-96338879D01*
X118649470Y-96380104D01*
X118648990Y-96441284D01*
X118648877Y-96455612D01*
X118685821Y-96566349D01*
X118690785Y-96572854D01*
X118690786Y-96572855D01*
X118742284Y-96640333D01*
X118762558Y-96698062D01*
X118741332Y-96761685D01*
X118688473Y-96828737D01*
X118685763Y-96836455D01*
X118685761Y-96836458D01*
X118652505Y-96931159D01*
X118649794Y-96938879D01*
X118648877Y-97055612D01*
X118685821Y-97166349D01*
X118690785Y-97172854D01*
X118690786Y-97172855D01*
X118742284Y-97240333D01*
X118762558Y-97298062D01*
X118741332Y-97361685D01*
X118688473Y-97428737D01*
X118685763Y-97436455D01*
X118685761Y-97436458D01*
X118658246Y-97514812D01*
X118649794Y-97538879D01*
X118649529Y-97572618D01*
X118649083Y-97629436D01*
X118648877Y-97655612D01*
X118685821Y-97766349D01*
X118690785Y-97772854D01*
X118690786Y-97772855D01*
X118742284Y-97840333D01*
X118762558Y-97898062D01*
X118741332Y-97961685D01*
X118732343Y-97973088D01*
X118688473Y-98028737D01*
X118685763Y-98036455D01*
X118685761Y-98036458D01*
X118656591Y-98119524D01*
X118649794Y-98138879D01*
X118649314Y-98200000D01*
X118649008Y-98238998D01*
X118648877Y-98255612D01*
X118685821Y-98366349D01*
X118690785Y-98372854D01*
X118690786Y-98372855D01*
X118742284Y-98440333D01*
X118762558Y-98498062D01*
X118741332Y-98561685D01*
X118731855Y-98573707D01*
X118688473Y-98628737D01*
X118685763Y-98636455D01*
X118685761Y-98636458D01*
X118652505Y-98731159D01*
X118649794Y-98738879D01*
X118648877Y-98855612D01*
X118685821Y-98966349D01*
X118690785Y-98972854D01*
X118690786Y-98972855D01*
X118742284Y-99040333D01*
X118762558Y-99098062D01*
X118741332Y-99161685D01*
X118688473Y-99228737D01*
X118685763Y-99236455D01*
X118685761Y-99236458D01*
X118652505Y-99331159D01*
X118649794Y-99338879D01*
X118648877Y-99455612D01*
X118685821Y-99566349D01*
X118690785Y-99572854D01*
X118690786Y-99572855D01*
X118712519Y-99601331D01*
X118756644Y-99659148D01*
X118763448Y-99663694D01*
X118853487Y-99723857D01*
X118891366Y-99771907D01*
X118893768Y-99833045D01*
X118884808Y-99854642D01*
X118870942Y-99879337D01*
X118867903Y-99884391D01*
X118861603Y-99894193D01*
X118861601Y-99894197D01*
X118858603Y-99898862D01*
X118856717Y-99904078D01*
X118855811Y-99905911D01*
X118855182Y-99907405D01*
X118852443Y-99912283D01*
X118850867Y-99917652D01*
X118850864Y-99917658D01*
X118847645Y-99928621D01*
X118845758Y-99934387D01*
X118838278Y-99955076D01*
X118838277Y-99955081D01*
X118834488Y-99965562D01*
X118835061Y-99971175D01*
X118834844Y-99972221D01*
X118818219Y-100028841D01*
X118815264Y-100027973D01*
X118814873Y-100029664D01*
X118817014Y-100030239D01*
X118808707Y-100061145D01*
X118808093Y-100063327D01*
X118799744Y-100091763D01*
X118799527Y-100095303D01*
X118798560Y-100098899D01*
X118798355Y-100104498D01*
X118798355Y-100104500D01*
X118797507Y-100127699D01*
X118797388Y-100130137D01*
X118795397Y-100162555D01*
X118792301Y-100162365D01*
X118792008Y-100164283D01*
X118796164Y-100164435D01*
X118794336Y-100214413D01*
X118796770Y-100227223D01*
X118798261Y-100235074D01*
X118800000Y-100253551D01*
X118800000Y-100380500D01*
X118781093Y-100438691D01*
X118731593Y-100474655D01*
X118701000Y-100479500D01*
X118166950Y-100479500D01*
X117799500Y-100846950D01*
X117799500Y-101513050D01*
X118031446Y-101744996D01*
X118059223Y-101799513D01*
X118049652Y-101859945D01*
X118031446Y-101885004D01*
X117799500Y-102116950D01*
X117799500Y-102783050D01*
X118031446Y-103014996D01*
X118059223Y-103069513D01*
X118049652Y-103129945D01*
X118031446Y-103155004D01*
X117799500Y-103386950D01*
X117799500Y-104053050D01*
X118031446Y-104284996D01*
X118059223Y-104339513D01*
X118049652Y-104399945D01*
X118031446Y-104425004D01*
X117799500Y-104656950D01*
X117799500Y-104739441D01*
X117780593Y-104797632D01*
X117731093Y-104833596D01*
X117669907Y-104833596D01*
X117655555Y-104827651D01*
X117627947Y-104813584D01*
X117621007Y-104810048D01*
X117613313Y-104808829D01*
X117613312Y-104808829D01*
X117503397Y-104791420D01*
X117495701Y-104790201D01*
X117488005Y-104791420D01*
X117378090Y-104808829D01*
X117378089Y-104808829D01*
X117370395Y-104810048D01*
X117363455Y-104813584D01*
X117264293Y-104864109D01*
X117264291Y-104864110D01*
X117257354Y-104867645D01*
X117167645Y-104957354D01*
X117164110Y-104964291D01*
X117164109Y-104964293D01*
X117128503Y-105034174D01*
X117110048Y-105070395D01*
X117108829Y-105078091D01*
X117098897Y-105140795D01*
X117071120Y-105195310D01*
X116784853Y-105481578D01*
X116730336Y-105509356D01*
X116699619Y-105509396D01*
X116591269Y-105492526D01*
X116591263Y-105492525D01*
X116587785Y-105491984D01*
X116584267Y-105491941D01*
X116584266Y-105491941D01*
X116558655Y-105491629D01*
X116529525Y-105491273D01*
X116526030Y-105491730D01*
X116511239Y-105493664D01*
X116498403Y-105494500D01*
X116111597Y-105494500D01*
X116096367Y-105493321D01*
X116093986Y-105492951D01*
X116087785Y-105491985D01*
X116029525Y-105491273D01*
X115887550Y-105509838D01*
X115884156Y-105510786D01*
X115884154Y-105510786D01*
X115834833Y-105524556D01*
X115834831Y-105524557D01*
X115831431Y-105525506D01*
X115828204Y-105526926D01*
X115828201Y-105526927D01*
X115739372Y-105566013D01*
X115678494Y-105572143D01*
X115625640Y-105541319D01*
X115600998Y-105485316D01*
X115600500Y-105475397D01*
X115600500Y-105430485D01*
X115619407Y-105372294D01*
X115629496Y-105360481D01*
X117377510Y-103612467D01*
X117402569Y-103594261D01*
X117443343Y-103573486D01*
X117443345Y-103573485D01*
X117450282Y-103569950D01*
X117539991Y-103480241D01*
X117558730Y-103443465D01*
X117594052Y-103374140D01*
X117597588Y-103367200D01*
X117600860Y-103346546D01*
X117616216Y-103249590D01*
X117617435Y-103241894D01*
X117603673Y-103155004D01*
X117598807Y-103124283D01*
X117598807Y-103124282D01*
X117597588Y-103116588D01*
X117591931Y-103105486D01*
X117543527Y-103010486D01*
X117543526Y-103010484D01*
X117539991Y-103003547D01*
X117450282Y-102913838D01*
X117443345Y-102910303D01*
X117443343Y-102910302D01*
X117344181Y-102859777D01*
X117337241Y-102856241D01*
X117329547Y-102855022D01*
X117329546Y-102855022D01*
X117219631Y-102837613D01*
X117211935Y-102836394D01*
X117204239Y-102837613D01*
X117094324Y-102855022D01*
X117094323Y-102855022D01*
X117086629Y-102856241D01*
X117079689Y-102859777D01*
X116980527Y-102910302D01*
X116980525Y-102910303D01*
X116973588Y-102913838D01*
X116968082Y-102919344D01*
X116968078Y-102919347D01*
X116921919Y-102965507D01*
X116867403Y-102993285D01*
X116806971Y-102983714D01*
X116781911Y-102965508D01*
X116702644Y-102886241D01*
X116695707Y-102882706D01*
X116695705Y-102882705D01*
X116596543Y-102832180D01*
X116589603Y-102828644D01*
X116581909Y-102827425D01*
X116581908Y-102827425D01*
X116471993Y-102810016D01*
X116464297Y-102808797D01*
X116456601Y-102810016D01*
X116346686Y-102827425D01*
X116346685Y-102827425D01*
X116338991Y-102828644D01*
X116332051Y-102832180D01*
X116232889Y-102882705D01*
X116232887Y-102882706D01*
X116225950Y-102886241D01*
X116136241Y-102975950D01*
X116132706Y-102982887D01*
X116132705Y-102982889D01*
X116088568Y-103069513D01*
X116078644Y-103088991D01*
X116058797Y-103214297D01*
X116078644Y-103339603D01*
X116082180Y-103346543D01*
X116082181Y-103346546D01*
X116098909Y-103379377D01*
X116108480Y-103439809D01*
X116080703Y-103494325D01*
X114724356Y-104850672D01*
X114721982Y-104852721D01*
X114717853Y-104854739D01*
X114711636Y-104861441D01*
X114687900Y-104887029D01*
X114685323Y-104889705D01*
X114668531Y-104906497D01*
X114665952Y-104910256D01*
X114664223Y-104912337D01*
X114660660Y-104916394D01*
X114647990Y-104930052D01*
X114647988Y-104930055D01*
X114641773Y-104936755D01*
X114637512Y-104947436D01*
X114627197Y-104966753D01*
X114620696Y-104976229D01*
X114614549Y-105002131D01*
X114610183Y-105015934D01*
X114600318Y-105040661D01*
X114599500Y-105049004D01*
X114599500Y-105053954D01*
X114597029Y-105075073D01*
X114596975Y-105076183D01*
X114594864Y-105085077D01*
X114596097Y-105094134D01*
X114598596Y-105112500D01*
X114599500Y-105125850D01*
X114599500Y-105497242D01*
X114588810Y-105534150D01*
X114591606Y-105535265D01*
X114591605Y-105535267D01*
X114587344Y-105545948D01*
X114577029Y-105565265D01*
X114570528Y-105574741D01*
X114564381Y-105600643D01*
X114560015Y-105614446D01*
X114550150Y-105639173D01*
X114549332Y-105647516D01*
X114549332Y-105652466D01*
X114546861Y-105673585D01*
X114546807Y-105674695D01*
X114544696Y-105683589D01*
X114545929Y-105692646D01*
X114548428Y-105711012D01*
X114549332Y-105724362D01*
X114549332Y-109128413D01*
X114530425Y-109186604D01*
X114520336Y-109198417D01*
X114219268Y-109499484D01*
X113923867Y-109794885D01*
X113921493Y-109796934D01*
X113917364Y-109798952D01*
X113911147Y-109805654D01*
X113887411Y-109831242D01*
X113884834Y-109833918D01*
X113868042Y-109850710D01*
X113865463Y-109854469D01*
X113863734Y-109856550D01*
X113860171Y-109860607D01*
X113847501Y-109874265D01*
X113847499Y-109874268D01*
X113841284Y-109880968D01*
X113837023Y-109891649D01*
X113826708Y-109910966D01*
X113820207Y-109920442D01*
X113814060Y-109946344D01*
X113809694Y-109960147D01*
X113799829Y-109984874D01*
X113799147Y-109991826D01*
X113798624Y-109993977D01*
X113775012Y-110037897D01*
X113758388Y-110055818D01*
X113755811Y-110058494D01*
X113739020Y-110075285D01*
X113736441Y-110079044D01*
X113734712Y-110081125D01*
X113731149Y-110085182D01*
X113718479Y-110098840D01*
X113718477Y-110098843D01*
X113712262Y-110105543D01*
X113708001Y-110116224D01*
X113697686Y-110135541D01*
X113691185Y-110145017D01*
X113685038Y-110170919D01*
X113680672Y-110184722D01*
X113674821Y-110199389D01*
X113635699Y-110246430D01*
X113576396Y-110261492D01*
X113519566Y-110238821D01*
X113495457Y-110209182D01*
X113461420Y-110145168D01*
X113459148Y-110140895D01*
X113328952Y-109981259D01*
X113315279Y-109969948D01*
X113173955Y-109853034D01*
X113173953Y-109853033D01*
X113170228Y-109849951D01*
X113044229Y-109781823D01*
X112993277Y-109754273D01*
X112993276Y-109754272D01*
X112989023Y-109751973D01*
X112885725Y-109719997D01*
X112796859Y-109692488D01*
X112796855Y-109692487D01*
X112792238Y-109691058D01*
X112787431Y-109690553D01*
X112787427Y-109690552D01*
X112592185Y-109670032D01*
X112592183Y-109670032D01*
X112587369Y-109669526D01*
X112547669Y-109673139D01*
X112387039Y-109687757D01*
X112387036Y-109687758D01*
X112382219Y-109688196D01*
X112377577Y-109689562D01*
X112377573Y-109689563D01*
X112189250Y-109744989D01*
X112189247Y-109744990D01*
X112184603Y-109746357D01*
X112154004Y-109762354D01*
X112006344Y-109839548D01*
X112006340Y-109839551D01*
X112002047Y-109841795D01*
X111998271Y-109844831D01*
X111998268Y-109844833D01*
X111853344Y-109961355D01*
X111841505Y-109970874D01*
X111795233Y-110026019D01*
X111712202Y-110124971D01*
X111712199Y-110124975D01*
X111709093Y-110128677D01*
X111609853Y-110309194D01*
X111547565Y-110505549D01*
X111547025Y-110510361D01*
X111547025Y-110510362D01*
X111526588Y-110692569D01*
X111524603Y-110710263D01*
X111541840Y-110915538D01*
X111543173Y-110920186D01*
X111543173Y-110920187D01*
X111587009Y-111073058D01*
X111598621Y-111113555D01*
X111692782Y-111296773D01*
X111820737Y-111458212D01*
X111824417Y-111461344D01*
X111824419Y-111461346D01*
X111853029Y-111485695D01*
X111894154Y-111520694D01*
X111899340Y-111525108D01*
X111931400Y-111577221D01*
X111926706Y-111638226D01*
X111887051Y-111684821D01*
X111835176Y-111699500D01*
X110786447Y-111699500D01*
X110728256Y-111680593D01*
X110692292Y-111631093D01*
X110692292Y-111569907D01*
X110725497Y-111522487D01*
X110764071Y-111492350D01*
X110764076Y-111492345D01*
X110767893Y-111489363D01*
X110771055Y-111485700D01*
X110771060Y-111485695D01*
X110866152Y-111375529D01*
X110902496Y-111333424D01*
X110925766Y-111292463D01*
X111001858Y-111158517D01*
X111001859Y-111158514D01*
X111004247Y-111154311D01*
X111019355Y-111108897D01*
X111067743Y-110963435D01*
X111067743Y-110963433D01*
X111069270Y-110958844D01*
X111074154Y-110920187D01*
X111094740Y-110757225D01*
X111095088Y-110754471D01*
X111095500Y-110725000D01*
X111092619Y-110695616D01*
X111075870Y-110524796D01*
X111075869Y-110524792D01*
X111075398Y-110519986D01*
X111072493Y-110510362D01*
X111053394Y-110447106D01*
X111015858Y-110322780D01*
X110919148Y-110140895D01*
X110788952Y-109981259D01*
X110775279Y-109969948D01*
X110633955Y-109853034D01*
X110633953Y-109853033D01*
X110630228Y-109849951D01*
X110504229Y-109781823D01*
X110453277Y-109754273D01*
X110453276Y-109754272D01*
X110449023Y-109751973D01*
X110417157Y-109742109D01*
X110410225Y-109739963D01*
X110360228Y-109704693D01*
X110340500Y-109645390D01*
X110340500Y-109402831D01*
X110340730Y-109399699D01*
X110342223Y-109395351D01*
X110340570Y-109351322D01*
X110340500Y-109347608D01*
X110340500Y-109323877D01*
X110339665Y-109319393D01*
X110339418Y-109316719D01*
X110339069Y-109311334D01*
X110338369Y-109292694D01*
X110338369Y-109292693D01*
X110338026Y-109283561D01*
X110334273Y-109274824D01*
X110333486Y-109272993D01*
X110327122Y-109252047D01*
X110326691Y-109249731D01*
X110326691Y-109249730D01*
X110325017Y-109240744D01*
X110320220Y-109232962D01*
X110320219Y-109232959D01*
X110311052Y-109218087D01*
X110304368Y-109205220D01*
X110293866Y-109180775D01*
X110288545Y-109174297D01*
X110285042Y-109170794D01*
X110271861Y-109154119D01*
X110271113Y-109153294D01*
X110266316Y-109145512D01*
X110244294Y-109128766D01*
X110234215Y-109119967D01*
X110014248Y-108900000D01*
X112994500Y-108900000D01*
X112995719Y-108907696D01*
X113013075Y-109017272D01*
X113014347Y-109025306D01*
X113017883Y-109032246D01*
X113067063Y-109128767D01*
X113071944Y-109138347D01*
X113161653Y-109228056D01*
X113168590Y-109231591D01*
X113168592Y-109231592D01*
X113229989Y-109262875D01*
X113274694Y-109285653D01*
X113282388Y-109286872D01*
X113282389Y-109286872D01*
X113357339Y-109298743D01*
X113383238Y-109302845D01*
X113392304Y-109304281D01*
X113400000Y-109305500D01*
X113407696Y-109304281D01*
X113416763Y-109302845D01*
X113442661Y-109298743D01*
X113517611Y-109286872D01*
X113517612Y-109286872D01*
X113525306Y-109285653D01*
X113570011Y-109262875D01*
X113631408Y-109231592D01*
X113631410Y-109231591D01*
X113638347Y-109228056D01*
X113728056Y-109138347D01*
X113732938Y-109128767D01*
X113782117Y-109032246D01*
X113785653Y-109025306D01*
X113786926Y-109017272D01*
X113804281Y-108907696D01*
X113805500Y-108900000D01*
X113791961Y-108814522D01*
X113786872Y-108782389D01*
X113786872Y-108782388D01*
X113785653Y-108774694D01*
X113765522Y-108735184D01*
X113731592Y-108668592D01*
X113731591Y-108668590D01*
X113728056Y-108661653D01*
X113638347Y-108571944D01*
X113631410Y-108568409D01*
X113631408Y-108568408D01*
X113532246Y-108517883D01*
X113525306Y-108514347D01*
X113517612Y-108513128D01*
X113517611Y-108513128D01*
X113407696Y-108495719D01*
X113400000Y-108494500D01*
X113392304Y-108495719D01*
X113282389Y-108513128D01*
X113282388Y-108513128D01*
X113274694Y-108514347D01*
X113267754Y-108517883D01*
X113168592Y-108568408D01*
X113168590Y-108568409D01*
X113161653Y-108571944D01*
X113071944Y-108661653D01*
X113068409Y-108668590D01*
X113068408Y-108668592D01*
X113034478Y-108735184D01*
X113014347Y-108774694D01*
X113013128Y-108782388D01*
X113013128Y-108782389D01*
X113008039Y-108814522D01*
X112994500Y-108900000D01*
X110014248Y-108900000D01*
X109438605Y-108324356D01*
X109436556Y-108321982D01*
X109434538Y-108317853D01*
X109402248Y-108287900D01*
X109399572Y-108285323D01*
X109382780Y-108268531D01*
X109379021Y-108265952D01*
X109376940Y-108264223D01*
X109372883Y-108260660D01*
X109359225Y-108247990D01*
X109359222Y-108247988D01*
X109352522Y-108241773D01*
X109341841Y-108237512D01*
X109322524Y-108227197D01*
X109313048Y-108220696D01*
X109287146Y-108214549D01*
X109273343Y-108210183D01*
X109248616Y-108200318D01*
X109240273Y-108199500D01*
X109235323Y-108199500D01*
X109214204Y-108197029D01*
X109213094Y-108196975D01*
X109204200Y-108194864D01*
X109182802Y-108197776D01*
X109176777Y-108198596D01*
X109163427Y-108199500D01*
X107565479Y-108199500D01*
X107507288Y-108180593D01*
X107495479Y-108170507D01*
X107494320Y-108169349D01*
X107466544Y-108114834D01*
X107456612Y-108052130D01*
X107456612Y-108052129D01*
X107455393Y-108044434D01*
X107397796Y-107931393D01*
X107392290Y-107925887D01*
X107389147Y-107921561D01*
X107370240Y-107863371D01*
X107370240Y-107695739D01*
X107389147Y-107637548D01*
X107399236Y-107625735D01*
X109085639Y-105939332D01*
X109088017Y-105937280D01*
X109092147Y-105935261D01*
X109122112Y-105902958D01*
X109124689Y-105900282D01*
X109141469Y-105883502D01*
X109144047Y-105879745D01*
X109145779Y-105877660D01*
X109149340Y-105873606D01*
X109162010Y-105859948D01*
X109162012Y-105859945D01*
X109168227Y-105853245D01*
X109171615Y-105844753D01*
X109172490Y-105842561D01*
X109182802Y-105823250D01*
X109184132Y-105821311D01*
X109184133Y-105821310D01*
X109189305Y-105813770D01*
X109195449Y-105787880D01*
X109199823Y-105774051D01*
X109207093Y-105755829D01*
X109207093Y-105755827D01*
X109209682Y-105749339D01*
X109210500Y-105740996D01*
X109210500Y-105736046D01*
X109212971Y-105714927D01*
X109213025Y-105713817D01*
X109215136Y-105704923D01*
X109211404Y-105677500D01*
X109210500Y-105664150D01*
X109210500Y-101345478D01*
X109229407Y-101287287D01*
X109239497Y-101275474D01*
X109264971Y-101250000D01*
X115344500Y-101250000D01*
X115345719Y-101257696D01*
X115359623Y-101345478D01*
X115364347Y-101375306D01*
X115367883Y-101382246D01*
X115397928Y-101441212D01*
X115421944Y-101488347D01*
X115511653Y-101578056D01*
X115518590Y-101581591D01*
X115518592Y-101581592D01*
X115600434Y-101623292D01*
X115624694Y-101635653D01*
X115632388Y-101636872D01*
X115632389Y-101636872D01*
X115722037Y-101651071D01*
X115733882Y-101652947D01*
X115742304Y-101654281D01*
X115750000Y-101655500D01*
X115757696Y-101654281D01*
X115766119Y-101652947D01*
X115777963Y-101651071D01*
X115867611Y-101636872D01*
X115867612Y-101636872D01*
X115875306Y-101635653D01*
X115882246Y-101632117D01*
X115889660Y-101629708D01*
X115890200Y-101631371D01*
X115941216Y-101623292D01*
X115995732Y-101651071D01*
X116023509Y-101705588D01*
X116015429Y-101756600D01*
X116017092Y-101757140D01*
X116014683Y-101764554D01*
X116011147Y-101771494D01*
X115991300Y-101896800D01*
X116011147Y-102022106D01*
X116014683Y-102029046D01*
X116064910Y-102127622D01*
X116068744Y-102135147D01*
X116158453Y-102224856D01*
X116165390Y-102228391D01*
X116165392Y-102228392D01*
X116264554Y-102278917D01*
X116271494Y-102282453D01*
X116279188Y-102283672D01*
X116279189Y-102283672D01*
X116389104Y-102301081D01*
X116396800Y-102302300D01*
X116404496Y-102301081D01*
X116514411Y-102283672D01*
X116514412Y-102283672D01*
X116522106Y-102282453D01*
X116529046Y-102278917D01*
X116628208Y-102228392D01*
X116628210Y-102228391D01*
X116635147Y-102224856D01*
X116724856Y-102135147D01*
X116728691Y-102127622D01*
X116778917Y-102029046D01*
X116782453Y-102022106D01*
X116802300Y-101896800D01*
X116782453Y-101771494D01*
X116749923Y-101707650D01*
X116728392Y-101665392D01*
X116728391Y-101665390D01*
X116724856Y-101658453D01*
X116635147Y-101568744D01*
X116628210Y-101565209D01*
X116628208Y-101565208D01*
X116529046Y-101514683D01*
X116522106Y-101511147D01*
X116514412Y-101509928D01*
X116514411Y-101509928D01*
X116424098Y-101495624D01*
X116396800Y-101491300D01*
X116369502Y-101495624D01*
X116279189Y-101509928D01*
X116279188Y-101509928D01*
X116271494Y-101511147D01*
X116264554Y-101514683D01*
X116257140Y-101517092D01*
X116256600Y-101515429D01*
X116205584Y-101523508D01*
X116151068Y-101495729D01*
X116123291Y-101441212D01*
X116131371Y-101390200D01*
X116129708Y-101389660D01*
X116132117Y-101382246D01*
X116135653Y-101375306D01*
X116140378Y-101345478D01*
X116154281Y-101257696D01*
X116155500Y-101250000D01*
X116144321Y-101179418D01*
X116136872Y-101132389D01*
X116136872Y-101132388D01*
X116135653Y-101124694D01*
X116121004Y-101095943D01*
X116081592Y-101018592D01*
X116081591Y-101018590D01*
X116078056Y-101011653D01*
X115988347Y-100921944D01*
X115981410Y-100918409D01*
X115981408Y-100918408D01*
X115882246Y-100867883D01*
X115875306Y-100864347D01*
X115867612Y-100863128D01*
X115867611Y-100863128D01*
X115757696Y-100845719D01*
X115750000Y-100844500D01*
X115742304Y-100845719D01*
X115632389Y-100863128D01*
X115632388Y-100863128D01*
X115624694Y-100864347D01*
X115617754Y-100867883D01*
X115518592Y-100918408D01*
X115518590Y-100918409D01*
X115511653Y-100921944D01*
X115421944Y-101011653D01*
X115418409Y-101018590D01*
X115418408Y-101018592D01*
X115378996Y-101095943D01*
X115364347Y-101124694D01*
X115363128Y-101132388D01*
X115363128Y-101132389D01*
X115355679Y-101179418D01*
X115344500Y-101250000D01*
X109264971Y-101250000D01*
X109305476Y-101209496D01*
X109359993Y-101181719D01*
X109375479Y-101180500D01*
X114467892Y-101180500D01*
X114471024Y-101180730D01*
X114475372Y-101182223D01*
X114484508Y-101181880D01*
X114519401Y-101180570D01*
X114523115Y-101180500D01*
X114546846Y-101180500D01*
X114551330Y-101179665D01*
X114554004Y-101179418D01*
X114559389Y-101179069D01*
X114578029Y-101178369D01*
X114578030Y-101178369D01*
X114587162Y-101178026D01*
X114595557Y-101174420D01*
X114595559Y-101174419D01*
X114597730Y-101173486D01*
X114618674Y-101167123D01*
X114620168Y-101166844D01*
X114620992Y-101166691D01*
X114620993Y-101166691D01*
X114629979Y-101165017D01*
X114637761Y-101160220D01*
X114637764Y-101160219D01*
X114652636Y-101151052D01*
X114665499Y-101144370D01*
X114689948Y-101133866D01*
X114696426Y-101128545D01*
X114699929Y-101125042D01*
X114716604Y-101111861D01*
X114717429Y-101111113D01*
X114725211Y-101106316D01*
X114741957Y-101084294D01*
X114750756Y-101074215D01*
X117800390Y-98024581D01*
X117854906Y-97996804D01*
X117917610Y-97986872D01*
X117925306Y-97985653D01*
X117932256Y-97982112D01*
X118031408Y-97931592D01*
X118031410Y-97931591D01*
X118038347Y-97928056D01*
X118128056Y-97838347D01*
X118141149Y-97812652D01*
X118182117Y-97732246D01*
X118185653Y-97725306D01*
X118187701Y-97712380D01*
X118204281Y-97607696D01*
X118205500Y-97600000D01*
X118199700Y-97563380D01*
X118186872Y-97482389D01*
X118186872Y-97482388D01*
X118185653Y-97474694D01*
X118175930Y-97455611D01*
X118131592Y-97368592D01*
X118131591Y-97368590D01*
X118128056Y-97361653D01*
X118038347Y-97271944D01*
X118031410Y-97268409D01*
X118031408Y-97268408D01*
X117932246Y-97217883D01*
X117925306Y-97214347D01*
X117917612Y-97213128D01*
X117917611Y-97213128D01*
X117807696Y-97195719D01*
X117800000Y-97194500D01*
X117792304Y-97195719D01*
X117682389Y-97213128D01*
X117682388Y-97213128D01*
X117674694Y-97214347D01*
X117667754Y-97217883D01*
X117568592Y-97268408D01*
X117568590Y-97268409D01*
X117561653Y-97271944D01*
X117471944Y-97361653D01*
X117468409Y-97368590D01*
X117468408Y-97368592D01*
X117424070Y-97455611D01*
X117414347Y-97474694D01*
X117413128Y-97482389D01*
X117413128Y-97482390D01*
X117403196Y-97545094D01*
X117375419Y-97599610D01*
X115310816Y-99664213D01*
X115256300Y-99691989D01*
X115195868Y-99682418D01*
X115152603Y-99639153D01*
X115143032Y-99578721D01*
X115154281Y-99507697D01*
X115154281Y-99507696D01*
X115155500Y-99500000D01*
X115139661Y-99400000D01*
X115136872Y-99382389D01*
X115136872Y-99382388D01*
X115135653Y-99374694D01*
X115121574Y-99347062D01*
X115081592Y-99268592D01*
X115081591Y-99268590D01*
X115078056Y-99261653D01*
X114988347Y-99171944D01*
X114981410Y-99168409D01*
X114981408Y-99168408D01*
X114882246Y-99117883D01*
X114875306Y-99114347D01*
X114867612Y-99113128D01*
X114867611Y-99113128D01*
X114757696Y-99095719D01*
X114750000Y-99094500D01*
X114742304Y-99095719D01*
X114632389Y-99113128D01*
X114632388Y-99113128D01*
X114624694Y-99114347D01*
X114617754Y-99117883D01*
X114518592Y-99168408D01*
X114518590Y-99168409D01*
X114511653Y-99171944D01*
X114421944Y-99261653D01*
X114418409Y-99268590D01*
X114418408Y-99268592D01*
X114378426Y-99347062D01*
X114364347Y-99374694D01*
X114363128Y-99382388D01*
X114363128Y-99382389D01*
X114360339Y-99400000D01*
X114344500Y-99500000D01*
X114345719Y-99507696D01*
X114357985Y-99585136D01*
X114364347Y-99625306D01*
X114367883Y-99632246D01*
X114411245Y-99717348D01*
X114421944Y-99738347D01*
X114511653Y-99828056D01*
X114518590Y-99831591D01*
X114518592Y-99831592D01*
X114563831Y-99854642D01*
X114624694Y-99885653D01*
X114632388Y-99886872D01*
X114632389Y-99886872D01*
X114742304Y-99904281D01*
X114750000Y-99905500D01*
X114757696Y-99904281D01*
X114757697Y-99904281D01*
X114828721Y-99893032D01*
X114889153Y-99902603D01*
X114932418Y-99945868D01*
X114941989Y-100006300D01*
X114914211Y-100060817D01*
X114424523Y-100550504D01*
X114370007Y-100578281D01*
X114354520Y-100579500D01*
X109262108Y-100579500D01*
X109258976Y-100579270D01*
X109254628Y-100577777D01*
X109245492Y-100578120D01*
X109210599Y-100579430D01*
X109206885Y-100579500D01*
X109183154Y-100579500D01*
X109178670Y-100580335D01*
X109175996Y-100580582D01*
X109170611Y-100580931D01*
X109151971Y-100581631D01*
X109151970Y-100581631D01*
X109142838Y-100581974D01*
X109134443Y-100585580D01*
X109134441Y-100585581D01*
X109132270Y-100586514D01*
X109111326Y-100592877D01*
X109109832Y-100593156D01*
X109109008Y-100593309D01*
X109109007Y-100593309D01*
X109100021Y-100594983D01*
X109092239Y-100599780D01*
X109092236Y-100599781D01*
X109077364Y-100608948D01*
X109064501Y-100615630D01*
X109040052Y-100626134D01*
X109033574Y-100631455D01*
X109030071Y-100634958D01*
X109013395Y-100648139D01*
X109012568Y-100648889D01*
X109004789Y-100653684D01*
X108999258Y-100660958D01*
X108988041Y-100675709D01*
X108979240Y-100685789D01*
X108734358Y-100930671D01*
X108731983Y-100932721D01*
X108727853Y-100934739D01*
X108721635Y-100941442D01*
X108697900Y-100967029D01*
X108695323Y-100969705D01*
X108678531Y-100986497D01*
X108675952Y-100990256D01*
X108674223Y-100992337D01*
X108670660Y-100996394D01*
X108657990Y-101010052D01*
X108657988Y-101010055D01*
X108651773Y-101016755D01*
X108647512Y-101027436D01*
X108637197Y-101046753D01*
X108630696Y-101056229D01*
X108624549Y-101082131D01*
X108620183Y-101095934D01*
X108610318Y-101120661D01*
X108609500Y-101129004D01*
X108609500Y-101133954D01*
X108607029Y-101155073D01*
X108606975Y-101156183D01*
X108604864Y-101165077D01*
X108606816Y-101179418D01*
X108608596Y-101192500D01*
X108609500Y-101205850D01*
X108609500Y-105524521D01*
X108590593Y-105582712D01*
X108580504Y-105594525D01*
X106894096Y-107280932D01*
X106891722Y-107282981D01*
X106887593Y-107284999D01*
X106881376Y-107291701D01*
X106857640Y-107317289D01*
X106855063Y-107319965D01*
X106838271Y-107336757D01*
X106835692Y-107340516D01*
X106833963Y-107342597D01*
X106830400Y-107346654D01*
X106817730Y-107360312D01*
X106817728Y-107360315D01*
X106811513Y-107367015D01*
X106807252Y-107377696D01*
X106796937Y-107397013D01*
X106790436Y-107406489D01*
X106784289Y-107432391D01*
X106779923Y-107446194D01*
X106770058Y-107470921D01*
X106769240Y-107479264D01*
X106769240Y-107484214D01*
X106766769Y-107505333D01*
X106766715Y-107506443D01*
X106764604Y-107515337D01*
X106765837Y-107524394D01*
X106768336Y-107542760D01*
X106769240Y-107556110D01*
X106769240Y-107863371D01*
X106750333Y-107921561D01*
X106747190Y-107925887D01*
X106741684Y-107931393D01*
X106684087Y-108044434D01*
X106664240Y-108169740D01*
X106665459Y-108177436D01*
X106682188Y-108283054D01*
X106684087Y-108295046D01*
X106687623Y-108301986D01*
X106698136Y-108322618D01*
X106741684Y-108408087D01*
X106831393Y-108497796D01*
X106838330Y-108501331D01*
X106838332Y-108501332D01*
X106937492Y-108551856D01*
X106944434Y-108555393D01*
X106952130Y-108556612D01*
X107014834Y-108566544D01*
X107069350Y-108594321D01*
X107148103Y-108673074D01*
X107175880Y-108727591D01*
X107166309Y-108788023D01*
X107123044Y-108831288D01*
X107078099Y-108842078D01*
X106855410Y-108842078D01*
X106852278Y-108841848D01*
X106847930Y-108840355D01*
X106838795Y-108840698D01*
X106803911Y-108842008D01*
X106800196Y-108842078D01*
X106776456Y-108842078D01*
X106771974Y-108842913D01*
X106769276Y-108843162D01*
X106763890Y-108843511D01*
X106745272Y-108844210D01*
X106745271Y-108844210D01*
X106736139Y-108844553D01*
X106727746Y-108848159D01*
X106727741Y-108848160D01*
X106725580Y-108849089D01*
X106704625Y-108855456D01*
X106702306Y-108855888D01*
X106693323Y-108857561D01*
X106685546Y-108862355D01*
X106685543Y-108862356D01*
X106670672Y-108871523D01*
X106657800Y-108878209D01*
X106639780Y-108885950D01*
X106639775Y-108885953D01*
X106633353Y-108888712D01*
X106626876Y-108894033D01*
X106623373Y-108897536D01*
X106606698Y-108910717D01*
X106605873Y-108911465D01*
X106598091Y-108916262D01*
X106592558Y-108923538D01*
X106581346Y-108938282D01*
X106572547Y-108948361D01*
X105904356Y-109616552D01*
X105901982Y-109618601D01*
X105897853Y-109620619D01*
X105891636Y-109627321D01*
X105867900Y-109652909D01*
X105865323Y-109655585D01*
X105848531Y-109672377D01*
X105845952Y-109676136D01*
X105844223Y-109678217D01*
X105840660Y-109682274D01*
X105827990Y-109695932D01*
X105827988Y-109695935D01*
X105821773Y-109702635D01*
X105817512Y-109713316D01*
X105807197Y-109732633D01*
X105800696Y-109742109D01*
X105794549Y-109768011D01*
X105790183Y-109781814D01*
X105780318Y-109806541D01*
X105779500Y-109814884D01*
X105779500Y-109819834D01*
X105777029Y-109840953D01*
X105776975Y-109842063D01*
X105774864Y-109850957D01*
X105777070Y-109867163D01*
X105778596Y-109878380D01*
X105779500Y-109891730D01*
X105779500Y-113747892D01*
X105779270Y-113751024D01*
X105777777Y-113755372D01*
X105778120Y-113764508D01*
X105779430Y-113799401D01*
X105779500Y-113803115D01*
X105779500Y-113826846D01*
X105780335Y-113831330D01*
X105780582Y-113834004D01*
X105780931Y-113839389D01*
X105781631Y-113858029D01*
X105781974Y-113867162D01*
X105785580Y-113875557D01*
X105785581Y-113875559D01*
X105786514Y-113877730D01*
X105792877Y-113898674D01*
X105794983Y-113909979D01*
X105799780Y-113917761D01*
X105799781Y-113917764D01*
X105808948Y-113932636D01*
X105815630Y-113945499D01*
X105826134Y-113969948D01*
X105831455Y-113976426D01*
X105834958Y-113979929D01*
X105848139Y-113996604D01*
X105848887Y-113997429D01*
X105853684Y-114005211D01*
X105860959Y-114010743D01*
X105860960Y-114010744D01*
X105875705Y-114021956D01*
X105885785Y-114030756D01*
X106445179Y-114590150D01*
X106447231Y-114592528D01*
X106449250Y-114596658D01*
X106455950Y-114602873D01*
X106481553Y-114626623D01*
X106484229Y-114629200D01*
X106486025Y-114630996D01*
X106513802Y-114685513D01*
X106504231Y-114745945D01*
X106460966Y-114789210D01*
X106416021Y-114800000D01*
X104299000Y-114800000D01*
X104240809Y-114781093D01*
X104204845Y-114731593D01*
X104200000Y-114701000D01*
X104200000Y-111289500D01*
X104218907Y-111231309D01*
X104268407Y-111195345D01*
X104299000Y-111190500D01*
X104833050Y-111190500D01*
X105200500Y-110823050D01*
X105200500Y-110156950D01*
X104968554Y-109925004D01*
X104940777Y-109870487D01*
X104950348Y-109810055D01*
X104968554Y-109784996D01*
X105200500Y-109553050D01*
X105200500Y-108886950D01*
X104968554Y-108655004D01*
X104940777Y-108600487D01*
X104950348Y-108540055D01*
X104968554Y-108514996D01*
X105200500Y-108283050D01*
X105200500Y-107616950D01*
X104968554Y-107385004D01*
X104940777Y-107330487D01*
X104950348Y-107270055D01*
X104968554Y-107244996D01*
X105200500Y-107013050D01*
X105200500Y-106346950D01*
X104968554Y-106115004D01*
X104940777Y-106060487D01*
X104950348Y-106000055D01*
X104968554Y-105974996D01*
X105200500Y-105743050D01*
X105200500Y-105440479D01*
X105219407Y-105382288D01*
X105229496Y-105370475D01*
X106199971Y-104400000D01*
X106694500Y-104400000D01*
X106695719Y-104407696D01*
X106704376Y-104462350D01*
X106714347Y-104525306D01*
X106771944Y-104638347D01*
X106861653Y-104728056D01*
X106868590Y-104731591D01*
X106868592Y-104731592D01*
X106883997Y-104739441D01*
X106974694Y-104785653D01*
X106982388Y-104786872D01*
X106982389Y-104786872D01*
X107092304Y-104804281D01*
X107100000Y-104805500D01*
X107107696Y-104804281D01*
X107217611Y-104786872D01*
X107217612Y-104786872D01*
X107225306Y-104785653D01*
X107316003Y-104739441D01*
X107331408Y-104731592D01*
X107331410Y-104731591D01*
X107338347Y-104728056D01*
X107428056Y-104638347D01*
X107485653Y-104525306D01*
X107495625Y-104462350D01*
X107504281Y-104407696D01*
X107505500Y-104400000D01*
X107495920Y-104339513D01*
X107486872Y-104282389D01*
X107486872Y-104282388D01*
X107485653Y-104274694D01*
X107478310Y-104260282D01*
X107431592Y-104168592D01*
X107431591Y-104168590D01*
X107428056Y-104161653D01*
X107338347Y-104071944D01*
X107331410Y-104068409D01*
X107331408Y-104068408D01*
X107232246Y-104017883D01*
X107225306Y-104014347D01*
X107217612Y-104013128D01*
X107217611Y-104013128D01*
X107107696Y-103995719D01*
X107100000Y-103994500D01*
X107092304Y-103995719D01*
X106982389Y-104013128D01*
X106982388Y-104013128D01*
X106974694Y-104014347D01*
X106967754Y-104017883D01*
X106868592Y-104068408D01*
X106868590Y-104068409D01*
X106861653Y-104071944D01*
X106771944Y-104161653D01*
X106768409Y-104168590D01*
X106768408Y-104168592D01*
X106721690Y-104260282D01*
X106714347Y-104274694D01*
X106713128Y-104282388D01*
X106713128Y-104282389D01*
X106704080Y-104339513D01*
X106694500Y-104400000D01*
X106199971Y-104400000D01*
X106300639Y-104299332D01*
X106303017Y-104297280D01*
X106307147Y-104295261D01*
X106337112Y-104262958D01*
X106339689Y-104260282D01*
X106356468Y-104243503D01*
X106359041Y-104239751D01*
X106360763Y-104237679D01*
X106364328Y-104233618D01*
X106377011Y-104219946D01*
X106377011Y-104219945D01*
X106383227Y-104213245D01*
X106386613Y-104204758D01*
X106386615Y-104204755D01*
X106387488Y-104202566D01*
X106397803Y-104183248D01*
X106399133Y-104181309D01*
X106404304Y-104173771D01*
X106410447Y-104147885D01*
X106414821Y-104134056D01*
X106422093Y-104115829D01*
X106422093Y-104115827D01*
X106424682Y-104109339D01*
X106425500Y-104100996D01*
X106425500Y-104096042D01*
X106427970Y-104074937D01*
X106428025Y-104073816D01*
X106430135Y-104064924D01*
X106426404Y-104037509D01*
X106425500Y-104024159D01*
X106425500Y-100840479D01*
X106444407Y-100782288D01*
X106454496Y-100770475D01*
X106970475Y-100254496D01*
X107024992Y-100226719D01*
X107040479Y-100225500D01*
X110196968Y-100225500D01*
X110200100Y-100225730D01*
X110204448Y-100227223D01*
X110213584Y-100226880D01*
X110248477Y-100225570D01*
X110252191Y-100225500D01*
X110275922Y-100225500D01*
X110280406Y-100224665D01*
X110283080Y-100224418D01*
X110288465Y-100224069D01*
X110307105Y-100223369D01*
X110307106Y-100223369D01*
X110316238Y-100223026D01*
X110324633Y-100219420D01*
X110324635Y-100219419D01*
X110326806Y-100218486D01*
X110347750Y-100212123D01*
X110349244Y-100211844D01*
X110350068Y-100211691D01*
X110350069Y-100211691D01*
X110359055Y-100210017D01*
X110366837Y-100205220D01*
X110366840Y-100205219D01*
X110381712Y-100196052D01*
X110394575Y-100189370D01*
X110419024Y-100178866D01*
X110425502Y-100173545D01*
X110429005Y-100170042D01*
X110445680Y-100156861D01*
X110446505Y-100156113D01*
X110454287Y-100151316D01*
X110471033Y-100129294D01*
X110479832Y-100119215D01*
X111583737Y-99015310D01*
X111586115Y-99013258D01*
X111590245Y-99011239D01*
X111620210Y-98978936D01*
X111622787Y-98976260D01*
X111639567Y-98959480D01*
X111642145Y-98955723D01*
X111643877Y-98953638D01*
X111647426Y-98949596D01*
X111662324Y-98933536D01*
X111715760Y-98903734D01*
X111776509Y-98911032D01*
X111804908Y-98930861D01*
X111819155Y-98945108D01*
X111826092Y-98948643D01*
X111826094Y-98948644D01*
X111885546Y-98978936D01*
X111932196Y-99002705D01*
X111939890Y-99003924D01*
X111939891Y-99003924D01*
X112049806Y-99021333D01*
X112057502Y-99022552D01*
X112065198Y-99021333D01*
X112175113Y-99003924D01*
X112175114Y-99003924D01*
X112182808Y-99002705D01*
X112229458Y-98978936D01*
X112288910Y-98948644D01*
X112288912Y-98948643D01*
X112295849Y-98945108D01*
X112305023Y-98935934D01*
X112359540Y-98908157D01*
X112419972Y-98917728D01*
X112445031Y-98935934D01*
X112462153Y-98953056D01*
X112469090Y-98956591D01*
X112469092Y-98956592D01*
X112565738Y-99005835D01*
X112575194Y-99010653D01*
X112582888Y-99011872D01*
X112582889Y-99011872D01*
X112692804Y-99029281D01*
X112700500Y-99030500D01*
X112708196Y-99029281D01*
X112818111Y-99011872D01*
X112818112Y-99011872D01*
X112825806Y-99010653D01*
X112835262Y-99005835D01*
X112931908Y-98956592D01*
X112931910Y-98956591D01*
X112938847Y-98953056D01*
X113028556Y-98863347D01*
X113032498Y-98855612D01*
X113082617Y-98757246D01*
X113086153Y-98750306D01*
X113106000Y-98625000D01*
X113095972Y-98561685D01*
X113087372Y-98507389D01*
X113087372Y-98507388D01*
X113086153Y-98499694D01*
X113028556Y-98386653D01*
X113023050Y-98381147D01*
X113019907Y-98376821D01*
X113001000Y-98318631D01*
X113001000Y-97952608D01*
X113001230Y-97949476D01*
X113002723Y-97945128D01*
X113001070Y-97901099D01*
X113001000Y-97897385D01*
X113001000Y-97873654D01*
X113000165Y-97869170D01*
X112999918Y-97866496D01*
X112999569Y-97861111D01*
X112998869Y-97842471D01*
X112998869Y-97842470D01*
X112998526Y-97833338D01*
X112993986Y-97822770D01*
X112987622Y-97801824D01*
X112987191Y-97799508D01*
X112987191Y-97799507D01*
X112985517Y-97790521D01*
X112980720Y-97782739D01*
X112980719Y-97782736D01*
X112971552Y-97767864D01*
X112964868Y-97754997D01*
X112954366Y-97730552D01*
X112949045Y-97724074D01*
X112945542Y-97720571D01*
X112932361Y-97703896D01*
X112931613Y-97703071D01*
X112926816Y-97695289D01*
X112904794Y-97678543D01*
X112894715Y-97669744D01*
X111748839Y-96523867D01*
X111746790Y-96521493D01*
X111744772Y-96517364D01*
X111712482Y-96487411D01*
X111709806Y-96484834D01*
X111693014Y-96468042D01*
X111689255Y-96465463D01*
X111687174Y-96463734D01*
X111683117Y-96460171D01*
X111669459Y-96447501D01*
X111669456Y-96447499D01*
X111662756Y-96441284D01*
X111652075Y-96437023D01*
X111632758Y-96426708D01*
X111623282Y-96420207D01*
X111597380Y-96414060D01*
X111583577Y-96409694D01*
X111558850Y-96399829D01*
X111550507Y-96399011D01*
X111545557Y-96399011D01*
X111524438Y-96396540D01*
X111523328Y-96396486D01*
X111514434Y-96394375D01*
X111493036Y-96397287D01*
X111487011Y-96398107D01*
X111473661Y-96399011D01*
X110075713Y-96399011D01*
X110017522Y-96380104D01*
X110005709Y-96370015D01*
X109760052Y-96124358D01*
X109758002Y-96121983D01*
X109755984Y-96117853D01*
X109742975Y-96105785D01*
X109723694Y-96087900D01*
X109721018Y-96085323D01*
X109704226Y-96068531D01*
X109700467Y-96065952D01*
X109698386Y-96064223D01*
X109694329Y-96060660D01*
X109680671Y-96047990D01*
X109680668Y-96047988D01*
X109673968Y-96041773D01*
X109663287Y-96037512D01*
X109643970Y-96027197D01*
X109634494Y-96020696D01*
X109608592Y-96014549D01*
X109594789Y-96010183D01*
X109570062Y-96000318D01*
X109561719Y-95999500D01*
X109556769Y-95999500D01*
X109533907Y-95996824D01*
X109527587Y-95995324D01*
X109522054Y-95991953D01*
X109509245Y-95997096D01*
X109498223Y-95998596D01*
X109484873Y-95999500D01*
X107152108Y-95999500D01*
X107148976Y-95999270D01*
X107144628Y-95997777D01*
X107135492Y-95998120D01*
X107100599Y-95999430D01*
X107096885Y-95999500D01*
X107073154Y-95999500D01*
X107068664Y-96000336D01*
X107065994Y-96000583D01*
X107060613Y-96000931D01*
X107048872Y-96001372D01*
X107041970Y-96001631D01*
X107041969Y-96001631D01*
X107032837Y-96001974D01*
X107024442Y-96005580D01*
X107024440Y-96005581D01*
X107022269Y-96006514D01*
X107001324Y-96012878D01*
X106990021Y-96014983D01*
X106982243Y-96019778D01*
X106982239Y-96019779D01*
X106967364Y-96028948D01*
X106954501Y-96035630D01*
X106930052Y-96046134D01*
X106923574Y-96051455D01*
X106920071Y-96054958D01*
X106903396Y-96068139D01*
X106902571Y-96068887D01*
X106894789Y-96073684D01*
X106889257Y-96080959D01*
X106889256Y-96080960D01*
X106878044Y-96095705D01*
X106869244Y-96105785D01*
X105514524Y-97460504D01*
X105460007Y-97488281D01*
X105444520Y-97489500D01*
X105273539Y-97489500D01*
X105215348Y-97470593D01*
X105200544Y-97456906D01*
X105200500Y-97456950D01*
X104833050Y-97089500D01*
X104299000Y-97089500D01*
X104240809Y-97070593D01*
X104204845Y-97021093D01*
X104200000Y-96990500D01*
X104200000Y-95899000D01*
X104218907Y-95840809D01*
X104268407Y-95804845D01*
X104299000Y-95800000D01*
X107136839Y-95800000D01*
X107139039Y-95800715D01*
X107141950Y-95800000D01*
X109495895Y-95800000D01*
X109516697Y-95806759D01*
X109550449Y-95800000D01*
X117300000Y-95800000D01*
X117671004Y-95428996D01*
X117725521Y-95401219D01*
X117741008Y-95400000D01*
X118359583Y-95400000D01*
X118417774Y-95418907D01*
G37*
%TD.AperFunction*%
%TA.AperFunction,Conductor*%
G36*
X116306028Y-110660956D02*
G01*
X116334358Y-110676119D01*
X116397250Y-110724378D01*
X116543285Y-110784868D01*
X116700000Y-110805500D01*
X116856715Y-110784868D01*
X117002750Y-110724378D01*
X117040235Y-110695615D01*
X117097908Y-110675192D01*
X117156574Y-110692569D01*
X117193821Y-110741111D01*
X117199500Y-110774158D01*
X117199500Y-111334521D01*
X117180593Y-111392712D01*
X117170504Y-111404525D01*
X116029448Y-112545580D01*
X115974931Y-112573357D01*
X115914499Y-112563786D01*
X115882726Y-112538147D01*
X115868952Y-112521259D01*
X115843824Y-112500471D01*
X115713955Y-112393034D01*
X115713953Y-112393033D01*
X115710228Y-112389951D01*
X115598420Y-112329496D01*
X115533277Y-112294273D01*
X115533276Y-112294272D01*
X115529023Y-112291973D01*
X115461438Y-112271052D01*
X115336859Y-112232488D01*
X115336855Y-112232487D01*
X115332238Y-112231058D01*
X115327431Y-112230553D01*
X115327427Y-112230552D01*
X115132185Y-112210032D01*
X115132183Y-112210032D01*
X115127369Y-112209526D01*
X115059372Y-112215714D01*
X114927039Y-112227757D01*
X114927036Y-112227758D01*
X114922219Y-112228196D01*
X114917577Y-112229562D01*
X114917573Y-112229563D01*
X114729250Y-112284989D01*
X114729247Y-112284990D01*
X114724603Y-112286357D01*
X114709461Y-112294273D01*
X114546344Y-112379548D01*
X114546340Y-112379551D01*
X114542047Y-112381795D01*
X114538271Y-112384831D01*
X114538268Y-112384833D01*
X114531903Y-112389951D01*
X114381505Y-112510874D01*
X114308736Y-112597597D01*
X114252202Y-112664971D01*
X114252199Y-112664975D01*
X114249093Y-112668677D01*
X114149853Y-112849194D01*
X114087565Y-113045549D01*
X114087025Y-113050361D01*
X114087025Y-113050362D01*
X114067905Y-113220827D01*
X114064603Y-113250263D01*
X114081840Y-113455538D01*
X114083173Y-113460186D01*
X114083173Y-113460187D01*
X114134830Y-113640333D01*
X114138621Y-113653555D01*
X114232782Y-113836773D01*
X114360737Y-113998212D01*
X114364417Y-114001344D01*
X114364419Y-114001346D01*
X114428182Y-114055612D01*
X114517612Y-114131723D01*
X114521835Y-114134083D01*
X114521839Y-114134086D01*
X114638453Y-114199259D01*
X114697432Y-114232221D01*
X114702030Y-114233715D01*
X114888742Y-114294382D01*
X114888745Y-114294383D01*
X114893347Y-114295878D01*
X115097895Y-114320269D01*
X115102717Y-114319898D01*
X115102720Y-114319898D01*
X115298458Y-114304837D01*
X115298463Y-114304836D01*
X115303286Y-114304465D01*
X115501695Y-114249068D01*
X115532089Y-114233715D01*
X115681244Y-114158371D01*
X115681246Y-114158370D01*
X115685565Y-114156188D01*
X115847893Y-114029363D01*
X115851055Y-114025700D01*
X115851060Y-114025695D01*
X115944223Y-113917764D01*
X115982496Y-113873424D01*
X115986054Y-113867162D01*
X116081858Y-113698517D01*
X116081859Y-113698514D01*
X116084247Y-113694311D01*
X116090496Y-113675528D01*
X116147743Y-113503435D01*
X116147743Y-113503433D01*
X116149270Y-113498844D01*
X116153752Y-113463369D01*
X116174740Y-113297225D01*
X116175088Y-113294471D01*
X116175158Y-113289451D01*
X116175316Y-113288987D01*
X116175319Y-113288948D01*
X116175329Y-113288949D01*
X116194874Y-113231530D01*
X116204144Y-113220827D01*
X116926910Y-112498062D01*
X117675644Y-111749328D01*
X117678018Y-111747279D01*
X117682147Y-111745261D01*
X117712100Y-111712971D01*
X117714677Y-111710295D01*
X117731469Y-111693503D01*
X117734048Y-111689744D01*
X117735777Y-111687663D01*
X117739340Y-111683606D01*
X117752010Y-111669948D01*
X117752012Y-111669945D01*
X117758227Y-111663245D01*
X117762488Y-111652564D01*
X117772805Y-111633244D01*
X117774133Y-111631309D01*
X117779304Y-111623771D01*
X117785451Y-111597869D01*
X117789817Y-111584066D01*
X117799682Y-111559339D01*
X117800500Y-111550996D01*
X117800500Y-111546046D01*
X117802971Y-111524927D01*
X117803025Y-111523817D01*
X117805136Y-111514923D01*
X117801404Y-111487500D01*
X117800500Y-111474150D01*
X117800500Y-111073058D01*
X117819407Y-111014867D01*
X117868907Y-110978903D01*
X117930093Y-110978903D01*
X117969504Y-111003054D01*
X118166950Y-111200500D01*
X118701000Y-111200500D01*
X118759191Y-111219407D01*
X118795155Y-111268907D01*
X118800000Y-111299500D01*
X118800000Y-111446418D01*
X118798228Y-111465063D01*
X118794329Y-111485395D01*
X118796108Y-111534035D01*
X118796157Y-111535375D01*
X118793067Y-111535488D01*
X118793232Y-111537213D01*
X118795457Y-111537080D01*
X118795457Y-111537082D01*
X118797360Y-111569002D01*
X118797466Y-111571202D01*
X118798553Y-111600909D01*
X118799467Y-111604335D01*
X118799689Y-111608052D01*
X118801265Y-111613421D01*
X118801266Y-111613424D01*
X118807806Y-111635697D01*
X118808467Y-111638057D01*
X118816842Y-111669434D01*
X118813845Y-111670234D01*
X118814175Y-111672146D01*
X118818164Y-111670974D01*
X118818165Y-111670975D01*
X118834816Y-111727683D01*
X118835009Y-111728619D01*
X118834443Y-111734073D01*
X118845714Y-111765419D01*
X118847537Y-111771008D01*
X118852389Y-111787533D01*
X118851154Y-111787896D01*
X118855744Y-111842741D01*
X118824034Y-111895068D01*
X118813070Y-111903275D01*
X118760744Y-111937061D01*
X118688473Y-112028737D01*
X118685763Y-112036455D01*
X118685761Y-112036458D01*
X118654424Y-112125695D01*
X118649794Y-112138879D01*
X118649656Y-112156484D01*
X118649059Y-112232488D01*
X118648877Y-112255612D01*
X118685821Y-112366349D01*
X118690785Y-112372854D01*
X118690786Y-112372855D01*
X118742284Y-112440333D01*
X118762558Y-112498062D01*
X118741332Y-112561685D01*
X118688473Y-112628737D01*
X118685763Y-112636455D01*
X118685761Y-112636458D01*
X118652505Y-112731159D01*
X118649794Y-112738879D01*
X118649730Y-112747062D01*
X118649119Y-112824865D01*
X118648877Y-112855612D01*
X118685821Y-112966349D01*
X118690785Y-112972854D01*
X118690786Y-112972855D01*
X118742284Y-113040333D01*
X118762558Y-113098062D01*
X118741332Y-113161685D01*
X118688473Y-113228737D01*
X118685763Y-113236455D01*
X118685761Y-113236458D01*
X118667151Y-113289452D01*
X118649794Y-113338879D01*
X118648877Y-113455612D01*
X118685821Y-113566349D01*
X118690785Y-113572854D01*
X118690786Y-113572855D01*
X118742284Y-113640333D01*
X118762558Y-113698062D01*
X118741332Y-113761685D01*
X118688473Y-113828737D01*
X118685763Y-113836455D01*
X118685761Y-113836458D01*
X118663912Y-113898676D01*
X118649794Y-113938879D01*
X118649550Y-113969948D01*
X118648956Y-114045604D01*
X118648877Y-114055612D01*
X118685821Y-114166349D01*
X118690785Y-114172854D01*
X118690786Y-114172855D01*
X118711609Y-114200139D01*
X118756644Y-114259148D01*
X118776402Y-114272350D01*
X118845494Y-114318516D01*
X118853707Y-114324004D01*
X118923022Y-114342382D01*
X118974420Y-114375570D01*
X118996496Y-114432633D01*
X118980816Y-114491775D01*
X118972076Y-114503059D01*
X118969424Y-114505357D01*
X118966142Y-114509834D01*
X118964779Y-114511313D01*
X118963742Y-114512584D01*
X118959733Y-114516500D01*
X118956704Y-114521214D01*
X118950536Y-114530811D01*
X118947113Y-114535797D01*
X118927495Y-114562561D01*
X118926463Y-114568107D01*
X118925959Y-114569052D01*
X118892330Y-114621380D01*
X118891740Y-114622150D01*
X118887252Y-114625291D01*
X118872613Y-114651362D01*
X118870942Y-114654338D01*
X118867903Y-114659391D01*
X118861603Y-114669193D01*
X118861601Y-114669197D01*
X118858603Y-114673862D01*
X118856717Y-114679078D01*
X118855811Y-114680911D01*
X118855182Y-114682405D01*
X118852443Y-114687283D01*
X118850867Y-114692652D01*
X118850864Y-114692658D01*
X118847645Y-114703621D01*
X118845758Y-114709389D01*
X118836621Y-114734661D01*
X118799055Y-114782956D01*
X118743519Y-114800000D01*
X109134229Y-114800000D01*
X109076038Y-114781093D01*
X109040074Y-114731593D01*
X109040074Y-114670407D01*
X109058062Y-114642623D01*
X109055700Y-114640827D01*
X109072449Y-114618801D01*
X109081250Y-114608721D01*
X109462056Y-114227916D01*
X109516572Y-114200139D01*
X109580356Y-114211500D01*
X109617432Y-114232221D01*
X109622030Y-114233715D01*
X109808742Y-114294382D01*
X109808745Y-114294383D01*
X109813347Y-114295878D01*
X110017895Y-114320269D01*
X110022717Y-114319898D01*
X110022720Y-114319898D01*
X110218458Y-114304837D01*
X110218463Y-114304836D01*
X110223286Y-114304465D01*
X110421695Y-114249068D01*
X110452089Y-114233715D01*
X110601244Y-114158371D01*
X110601246Y-114158370D01*
X110605565Y-114156188D01*
X110767893Y-114029363D01*
X110771055Y-114025700D01*
X110771060Y-114025695D01*
X110864223Y-113917764D01*
X110902496Y-113873424D01*
X110906054Y-113867162D01*
X111001858Y-113698517D01*
X111001859Y-113698514D01*
X111004247Y-113694311D01*
X111010496Y-113675528D01*
X111067743Y-113503435D01*
X111067743Y-113503433D01*
X111069270Y-113498844D01*
X111073752Y-113463369D01*
X111094740Y-113297225D01*
X111095088Y-113294471D01*
X111095500Y-113265000D01*
X111094528Y-113255083D01*
X111075870Y-113064796D01*
X111075869Y-113064792D01*
X111075398Y-113059986D01*
X111072493Y-113050362D01*
X111017256Y-112867412D01*
X111015858Y-112862780D01*
X110919148Y-112680895D01*
X110788952Y-112521259D01*
X110763824Y-112500471D01*
X110733979Y-112475781D01*
X110701194Y-112424120D01*
X110705036Y-112363055D01*
X110744037Y-112315911D01*
X110797084Y-112300500D01*
X111822032Y-112300500D01*
X111880223Y-112319407D01*
X111916187Y-112368907D01*
X111916187Y-112430093D01*
X111884066Y-112476654D01*
X111841505Y-112510874D01*
X111768736Y-112597597D01*
X111712202Y-112664971D01*
X111712199Y-112664975D01*
X111709093Y-112668677D01*
X111609853Y-112849194D01*
X111547565Y-113045549D01*
X111547025Y-113050361D01*
X111547025Y-113050362D01*
X111527905Y-113220827D01*
X111524603Y-113250263D01*
X111541840Y-113455538D01*
X111543173Y-113460186D01*
X111543173Y-113460187D01*
X111594830Y-113640333D01*
X111598621Y-113653555D01*
X111692782Y-113836773D01*
X111820737Y-113998212D01*
X111824417Y-114001344D01*
X111824419Y-114001346D01*
X111888182Y-114055612D01*
X111977612Y-114131723D01*
X111981835Y-114134083D01*
X111981839Y-114134086D01*
X112098453Y-114199259D01*
X112157432Y-114232221D01*
X112162030Y-114233715D01*
X112348742Y-114294382D01*
X112348745Y-114294383D01*
X112353347Y-114295878D01*
X112557895Y-114320269D01*
X112562717Y-114319898D01*
X112562720Y-114319898D01*
X112758458Y-114304837D01*
X112758463Y-114304836D01*
X112763286Y-114304465D01*
X112961695Y-114249068D01*
X112992089Y-114233715D01*
X113141244Y-114158371D01*
X113141246Y-114158370D01*
X113145565Y-114156188D01*
X113307893Y-114029363D01*
X113311055Y-114025700D01*
X113311060Y-114025695D01*
X113404223Y-113917764D01*
X113442496Y-113873424D01*
X113446054Y-113867162D01*
X113541858Y-113698517D01*
X113541859Y-113698514D01*
X113544247Y-113694311D01*
X113550496Y-113675528D01*
X113607743Y-113503435D01*
X113607743Y-113503433D01*
X113609270Y-113498844D01*
X113613752Y-113463369D01*
X113634740Y-113297225D01*
X113635088Y-113294471D01*
X113635500Y-113265000D01*
X113634528Y-113255083D01*
X113615870Y-113064796D01*
X113615869Y-113064792D01*
X113615398Y-113059986D01*
X113612493Y-113050362D01*
X113557256Y-112867412D01*
X113555858Y-112862780D01*
X113459148Y-112680895D01*
X113328952Y-112521259D01*
X113303824Y-112500471D01*
X113273979Y-112475781D01*
X113241194Y-112424120D01*
X113245036Y-112363055D01*
X113284037Y-112315911D01*
X113337084Y-112300500D01*
X113547892Y-112300500D01*
X113551024Y-112300730D01*
X113555372Y-112302223D01*
X113564508Y-112301880D01*
X113599401Y-112300570D01*
X113603115Y-112300500D01*
X113626846Y-112300500D01*
X113631330Y-112299665D01*
X113634004Y-112299418D01*
X113639389Y-112299069D01*
X113658029Y-112298369D01*
X113658030Y-112298369D01*
X113667162Y-112298026D01*
X113675557Y-112294420D01*
X113675559Y-112294419D01*
X113677730Y-112293486D01*
X113698674Y-112287123D01*
X113700168Y-112286844D01*
X113700992Y-112286691D01*
X113700993Y-112286691D01*
X113709979Y-112285017D01*
X113717761Y-112280220D01*
X113717764Y-112280219D01*
X113732636Y-112271052D01*
X113745499Y-112264370D01*
X113769948Y-112253866D01*
X113776426Y-112248545D01*
X113779929Y-112245042D01*
X113796604Y-112231861D01*
X113797429Y-112231113D01*
X113805211Y-112226316D01*
X113821957Y-112204294D01*
X113830756Y-112194215D01*
X114146128Y-111878843D01*
X114148506Y-111876791D01*
X114152636Y-111874772D01*
X114182601Y-111842469D01*
X114185178Y-111839793D01*
X114201958Y-111823013D01*
X114204536Y-111819256D01*
X114206268Y-111817171D01*
X114209829Y-111813117D01*
X114222499Y-111799459D01*
X114222501Y-111799456D01*
X114228716Y-111792756D01*
X114232104Y-111784264D01*
X114232979Y-111782072D01*
X114243291Y-111762761D01*
X114244621Y-111760822D01*
X114244622Y-111760821D01*
X114249794Y-111753281D01*
X114255938Y-111727391D01*
X114260312Y-111713562D01*
X114267582Y-111695340D01*
X114267582Y-111695338D01*
X114270171Y-111688850D01*
X114270989Y-111680507D01*
X114270989Y-111675557D01*
X114273460Y-111654438D01*
X114273514Y-111653328D01*
X114275625Y-111644434D01*
X114271893Y-111617011D01*
X114270989Y-111603661D01*
X114270989Y-111596086D01*
X114289896Y-111537895D01*
X114339396Y-111501931D01*
X114400582Y-111501931D01*
X114434153Y-111520694D01*
X114449829Y-111534035D01*
X114517612Y-111591723D01*
X114521835Y-111594083D01*
X114521839Y-111594086D01*
X114611927Y-111644434D01*
X114697432Y-111692221D01*
X114702030Y-111693715D01*
X114888742Y-111754382D01*
X114888745Y-111754383D01*
X114893347Y-111755878D01*
X115097895Y-111780269D01*
X115102717Y-111779898D01*
X115102720Y-111779898D01*
X115298458Y-111764837D01*
X115298463Y-111764836D01*
X115303286Y-111764465D01*
X115501695Y-111709068D01*
X115516418Y-111701631D01*
X115681244Y-111618371D01*
X115681246Y-111618370D01*
X115685565Y-111616188D01*
X115847893Y-111489363D01*
X115851055Y-111485700D01*
X115851060Y-111485695D01*
X115946152Y-111375529D01*
X115982496Y-111333424D01*
X116005766Y-111292463D01*
X116081858Y-111158517D01*
X116081859Y-111158514D01*
X116084247Y-111154311D01*
X116099355Y-111108897D01*
X116147743Y-110963435D01*
X116147743Y-110963433D01*
X116149270Y-110958844D01*
X116154154Y-110920187D01*
X116174740Y-110757225D01*
X116175088Y-110754471D01*
X116175127Y-110751696D01*
X116175319Y-110748948D01*
X116176542Y-110749034D01*
X116194841Y-110695336D01*
X116244849Y-110660082D01*
X116306028Y-110660956D01*
G37*
%TD.AperFunction*%
%TA.AperFunction,Conductor*%
G36*
X109340223Y-112319407D02*
G01*
X109376187Y-112368907D01*
X109376187Y-112430093D01*
X109344066Y-112476654D01*
X109301505Y-112510874D01*
X109228736Y-112597597D01*
X109172202Y-112664971D01*
X109172199Y-112664975D01*
X109169093Y-112668677D01*
X109069853Y-112849194D01*
X109007565Y-113045549D01*
X109007025Y-113050361D01*
X109007025Y-113050362D01*
X108987905Y-113220827D01*
X108984603Y-113250263D01*
X109001840Y-113455538D01*
X109003173Y-113460186D01*
X109003173Y-113460187D01*
X109054830Y-113640333D01*
X109058621Y-113653555D01*
X109060836Y-113657865D01*
X109069024Y-113673797D01*
X109078807Y-113734196D01*
X109050975Y-113789054D01*
X108901209Y-113938819D01*
X108755013Y-114085015D01*
X108700497Y-114112792D01*
X108685010Y-114114011D01*
X108371061Y-114114011D01*
X108312870Y-114095104D01*
X108276906Y-114045604D01*
X108276906Y-113984418D01*
X108296119Y-113950322D01*
X108300279Y-113945503D01*
X108362496Y-113873424D01*
X108366054Y-113867162D01*
X108461858Y-113698517D01*
X108461859Y-113698514D01*
X108464247Y-113694311D01*
X108470496Y-113675528D01*
X108527743Y-113503435D01*
X108527743Y-113503433D01*
X108529270Y-113498844D01*
X108533752Y-113463369D01*
X108554740Y-113297225D01*
X108555088Y-113294471D01*
X108555500Y-113265000D01*
X108554528Y-113255083D01*
X108535870Y-113064796D01*
X108535869Y-113064792D01*
X108535398Y-113059986D01*
X108532493Y-113050362D01*
X108477256Y-112867412D01*
X108475858Y-112862780D01*
X108468635Y-112849194D01*
X108444757Y-112804288D01*
X108434132Y-112744032D01*
X108462165Y-112687806D01*
X108820475Y-112329496D01*
X108874992Y-112301719D01*
X108890479Y-112300500D01*
X109282032Y-112300500D01*
X109340223Y-112319407D01*
G37*
%TD.AperFunction*%
%TA.AperFunction,Conductor*%
G36*
X109081989Y-108819407D02*
G01*
X109093802Y-108829496D01*
X109710504Y-109446199D01*
X109738281Y-109500716D01*
X109739500Y-109516203D01*
X109739500Y-109644366D01*
X109720593Y-109702557D01*
X109668452Y-109739338D01*
X109644603Y-109746357D01*
X109603210Y-109767997D01*
X109466344Y-109839548D01*
X109466340Y-109839551D01*
X109462047Y-109841795D01*
X109458271Y-109844831D01*
X109458268Y-109844833D01*
X109313344Y-109961355D01*
X109301505Y-109970874D01*
X109255233Y-110026019D01*
X109172202Y-110124971D01*
X109172199Y-110124975D01*
X109169093Y-110128677D01*
X109069853Y-110309194D01*
X109007565Y-110505549D01*
X109007025Y-110510361D01*
X109007025Y-110510362D01*
X108986588Y-110692569D01*
X108984603Y-110710263D01*
X109001840Y-110915538D01*
X109003173Y-110920186D01*
X109003173Y-110920187D01*
X109047009Y-111073058D01*
X109058621Y-111113555D01*
X109152782Y-111296773D01*
X109280737Y-111458212D01*
X109284417Y-111461344D01*
X109284419Y-111461346D01*
X109313029Y-111485695D01*
X109354154Y-111520694D01*
X109359340Y-111525108D01*
X109391400Y-111577221D01*
X109386706Y-111638226D01*
X109347051Y-111684821D01*
X109295176Y-111699500D01*
X108777108Y-111699500D01*
X108773976Y-111699270D01*
X108769628Y-111697777D01*
X108756204Y-111698281D01*
X108725599Y-111699430D01*
X108721885Y-111699500D01*
X108698154Y-111699500D01*
X108693664Y-111700336D01*
X108690994Y-111700583D01*
X108685613Y-111700931D01*
X108673872Y-111701372D01*
X108666970Y-111701631D01*
X108666969Y-111701631D01*
X108657837Y-111701974D01*
X108649442Y-111705580D01*
X108649440Y-111705581D01*
X108647269Y-111706514D01*
X108626324Y-111712878D01*
X108615021Y-111714983D01*
X108607243Y-111719778D01*
X108607239Y-111719779D01*
X108592364Y-111728948D01*
X108579501Y-111735630D01*
X108555052Y-111746134D01*
X108548574Y-111751455D01*
X108545071Y-111754958D01*
X108528396Y-111768139D01*
X108527571Y-111768887D01*
X108519789Y-111773684D01*
X108514257Y-111780959D01*
X108514256Y-111780960D01*
X108503044Y-111795705D01*
X108494244Y-111805785D01*
X108025426Y-112274603D01*
X107970909Y-112302380D01*
X107917055Y-112295862D01*
X107913281Y-112294275D01*
X107909023Y-112291973D01*
X107904403Y-112290543D01*
X107904401Y-112290542D01*
X107716859Y-112232488D01*
X107716855Y-112232487D01*
X107712238Y-112231058D01*
X107707431Y-112230553D01*
X107707427Y-112230552D01*
X107512185Y-112210032D01*
X107512183Y-112210032D01*
X107507369Y-112209526D01*
X107439372Y-112215714D01*
X107307039Y-112227757D01*
X107307036Y-112227758D01*
X107302219Y-112228196D01*
X107297577Y-112229562D01*
X107297573Y-112229563D01*
X107109250Y-112284989D01*
X107109247Y-112284990D01*
X107104603Y-112286357D01*
X107089461Y-112294273D01*
X106926344Y-112379548D01*
X106926340Y-112379551D01*
X106922047Y-112381795D01*
X106918271Y-112384831D01*
X106918268Y-112384833D01*
X106911903Y-112389951D01*
X106761505Y-112510874D01*
X106688736Y-112597597D01*
X106632202Y-112664971D01*
X106632199Y-112664975D01*
X106629093Y-112668677D01*
X106590100Y-112739606D01*
X106566254Y-112782981D01*
X106521652Y-112824865D01*
X106460949Y-112832533D01*
X106407332Y-112803057D01*
X106381281Y-112747695D01*
X106380500Y-112735287D01*
X106380500Y-110031359D01*
X106399407Y-109973168D01*
X106409496Y-109961355D01*
X106898777Y-109472074D01*
X106953294Y-109444297D01*
X106968781Y-109443078D01*
X107236210Y-109443078D01*
X107294400Y-109461985D01*
X107298726Y-109465128D01*
X107304232Y-109470634D01*
X107311169Y-109474169D01*
X107311171Y-109474170D01*
X107396153Y-109517470D01*
X107417273Y-109528231D01*
X107424967Y-109529450D01*
X107424968Y-109529450D01*
X107534883Y-109546859D01*
X107542579Y-109548078D01*
X107550275Y-109546859D01*
X107660190Y-109529450D01*
X107660191Y-109529450D01*
X107667885Y-109528231D01*
X107689005Y-109517470D01*
X107773987Y-109474170D01*
X107773989Y-109474169D01*
X107780926Y-109470634D01*
X107870635Y-109380925D01*
X107885719Y-109351322D01*
X107924696Y-109274824D01*
X107928232Y-109267884D01*
X107930741Y-109252047D01*
X107946860Y-109150274D01*
X107948079Y-109142578D01*
X107930604Y-109032246D01*
X107929451Y-109024967D01*
X107929451Y-109024966D01*
X107928232Y-109017272D01*
X107891125Y-108944445D01*
X107881554Y-108884013D01*
X107909332Y-108829496D01*
X107963848Y-108801719D01*
X107979335Y-108800500D01*
X109023798Y-108800500D01*
X109081989Y-108819407D01*
G37*
%TD.AperFunction*%
%TA.AperFunction,Conductor*%
G36*
X107275576Y-97211144D02*
G01*
X107318841Y-97254409D01*
X107328412Y-97283867D01*
X107329618Y-97291478D01*
X107339347Y-97352906D01*
X107342883Y-97359846D01*
X107392360Y-97456950D01*
X107396944Y-97465947D01*
X107486653Y-97555656D01*
X107493590Y-97559191D01*
X107493592Y-97559192D01*
X107592752Y-97609716D01*
X107599694Y-97613253D01*
X107607390Y-97614472D01*
X107670094Y-97624404D01*
X107724610Y-97652181D01*
X108004179Y-97931750D01*
X108006231Y-97934128D01*
X108008250Y-97938258D01*
X108014950Y-97944473D01*
X108040553Y-97968223D01*
X108043229Y-97970800D01*
X108060008Y-97987579D01*
X108063760Y-97990152D01*
X108065832Y-97991874D01*
X108069893Y-97995439D01*
X108079742Y-98004575D01*
X108090266Y-98014338D01*
X108098753Y-98017724D01*
X108098756Y-98017726D01*
X108100945Y-98018599D01*
X108120264Y-98028914D01*
X108129740Y-98035415D01*
X108138634Y-98037526D01*
X108138635Y-98037526D01*
X108155626Y-98041558D01*
X108169455Y-98045932D01*
X108187682Y-98053204D01*
X108187684Y-98053204D01*
X108194172Y-98055793D01*
X108202515Y-98056611D01*
X108207469Y-98056611D01*
X108228574Y-98059081D01*
X108229695Y-98059136D01*
X108238587Y-98061246D01*
X108266001Y-98057515D01*
X108279352Y-98056611D01*
X108696458Y-98056611D01*
X108699590Y-98056841D01*
X108703938Y-98058334D01*
X108713074Y-98057991D01*
X108747967Y-98056681D01*
X108751681Y-98056611D01*
X108775412Y-98056611D01*
X108779896Y-98055776D01*
X108782570Y-98055529D01*
X108787955Y-98055180D01*
X108806593Y-98054480D01*
X108815728Y-98054137D01*
X108820321Y-98052164D01*
X108835271Y-98050500D01*
X109194244Y-98050500D01*
X109252435Y-98069407D01*
X109264248Y-98079496D01*
X109522880Y-98338128D01*
X109550657Y-98392645D01*
X109541086Y-98453077D01*
X109497820Y-98496342D01*
X109437392Y-98527131D01*
X109437390Y-98527132D01*
X109430451Y-98530668D01*
X109424945Y-98536174D01*
X109420619Y-98539317D01*
X109362429Y-98558224D01*
X106753378Y-98558224D01*
X106750246Y-98557994D01*
X106745898Y-98556501D01*
X106736763Y-98556844D01*
X106701879Y-98558154D01*
X106698164Y-98558224D01*
X106674424Y-98558224D01*
X106669942Y-98559059D01*
X106667244Y-98559308D01*
X106661858Y-98559657D01*
X106643240Y-98560356D01*
X106643239Y-98560356D01*
X106634107Y-98560699D01*
X106625714Y-98564305D01*
X106625709Y-98564306D01*
X106623548Y-98565235D01*
X106602593Y-98571602D01*
X106600279Y-98572033D01*
X106591291Y-98573707D01*
X106577656Y-98582112D01*
X106568641Y-98587669D01*
X106555769Y-98594355D01*
X106537746Y-98602098D01*
X106531322Y-98604858D01*
X106524844Y-98610179D01*
X106521341Y-98613682D01*
X106504666Y-98626863D01*
X106503841Y-98627611D01*
X106496059Y-98632408D01*
X106490527Y-98639683D01*
X106490526Y-98639684D01*
X106479314Y-98654429D01*
X106470514Y-98664509D01*
X105239290Y-99895732D01*
X105184773Y-99923509D01*
X105124341Y-99913938D01*
X105099282Y-99895732D01*
X104968554Y-99765004D01*
X104940777Y-99710487D01*
X104950348Y-99650055D01*
X104968554Y-99624996D01*
X105200500Y-99393050D01*
X105200500Y-99230485D01*
X105219407Y-99172294D01*
X105229496Y-99160481D01*
X107160627Y-97229350D01*
X107215144Y-97201573D01*
X107275576Y-97211144D01*
G37*
%TD.AperFunction*%
%TA.AperFunction,Conductor*%
G36*
X108992232Y-97018927D02*
G01*
X109004045Y-97029016D01*
X109249698Y-97274669D01*
X109251750Y-97277047D01*
X109253769Y-97281177D01*
X109260469Y-97287392D01*
X109263503Y-97291478D01*
X109283016Y-97349469D01*
X109264715Y-97407853D01*
X109215593Y-97444331D01*
X109184021Y-97449500D01*
X108806785Y-97449500D01*
X108803653Y-97449270D01*
X108799305Y-97447777D01*
X108790169Y-97448120D01*
X108755276Y-97449430D01*
X108751562Y-97449500D01*
X108727831Y-97449500D01*
X108723341Y-97450336D01*
X108720671Y-97450583D01*
X108715290Y-97450931D01*
X108702472Y-97451413D01*
X108696648Y-97451631D01*
X108696647Y-97451631D01*
X108687514Y-97451974D01*
X108682921Y-97453947D01*
X108667971Y-97455611D01*
X108418989Y-97455611D01*
X108360798Y-97436704D01*
X108348985Y-97426614D01*
X108149581Y-97227209D01*
X108121804Y-97172693D01*
X108112588Y-97114507D01*
X108122159Y-97054075D01*
X108165424Y-97010811D01*
X108210369Y-97000020D01*
X108934041Y-97000020D01*
X108992232Y-97018927D01*
G37*
%TD.AperFunction*%
%TD*%
%TA.AperFunction,NonConductor*%
G36*
X122553747Y-90018907D02*
G01*
X122589711Y-90068407D01*
X122589711Y-90129593D01*
X122553747Y-90179093D01*
X122521846Y-90194445D01*
X122490246Y-90203149D01*
X122490237Y-90203152D01*
X122485069Y-90204576D01*
X122321610Y-90290758D01*
X122180471Y-90410030D01*
X122177215Y-90414289D01*
X122071494Y-90552566D01*
X122071492Y-90552569D01*
X122068236Y-90556828D01*
X121990142Y-90724302D01*
X121949832Y-90904638D01*
X121949187Y-91089424D01*
X121988237Y-91270038D01*
X122065160Y-91438053D01*
X122176367Y-91585630D01*
X122180434Y-91589115D01*
X122180435Y-91589117D01*
X122257712Y-91655351D01*
X122316671Y-91705885D01*
X122479524Y-91793206D01*
X122484685Y-91794666D01*
X122484684Y-91794666D01*
X122652172Y-91842061D01*
X122652175Y-91842061D01*
X122657329Y-91843520D01*
X122662681Y-91843838D01*
X122836438Y-91854161D01*
X122841791Y-91854479D01*
X122847087Y-91853640D01*
X122847090Y-91853640D01*
X123019008Y-91826411D01*
X123019011Y-91826410D01*
X123024303Y-91825572D01*
X123196350Y-91758147D01*
X123200808Y-91755162D01*
X123200811Y-91755161D01*
X123279622Y-91702401D01*
X123349905Y-91655351D01*
X123477804Y-91521979D01*
X123574080Y-91364254D01*
X123634240Y-91189535D01*
X123655479Y-91005972D01*
X123655500Y-91000000D01*
X123644572Y-90899409D01*
X123636122Y-90821619D01*
X123636121Y-90821614D01*
X123635543Y-90816294D01*
X123576604Y-90641159D01*
X123481431Y-90482765D01*
X123354467Y-90348504D01*
X123201633Y-90244638D01*
X123067327Y-90190920D01*
X123020321Y-90151755D01*
X123005312Y-90092439D01*
X123028034Y-90035629D01*
X123079809Y-90003025D01*
X123104094Y-90000000D01*
X123901000Y-90000000D01*
X123959191Y-90018907D01*
X123995155Y-90068407D01*
X124000000Y-90099000D01*
X124000000Y-114901000D01*
X123981093Y-114959191D01*
X123931593Y-114995155D01*
X123901000Y-115000000D01*
X120099610Y-115000000D01*
X120041419Y-114981093D01*
X120005455Y-114931593D01*
X120002831Y-114915572D01*
X120002667Y-114911096D01*
X120004416Y-114909687D01*
X120002359Y-114902681D01*
X120002092Y-114895381D01*
X119999985Y-114894597D01*
X119964095Y-114772364D01*
X119965583Y-114770221D01*
X119961685Y-114764156D01*
X119959654Y-114757238D01*
X119957060Y-114756959D01*
X119888207Y-114649820D01*
X119889031Y-114647346D01*
X119883583Y-114642626D01*
X119879684Y-114636558D01*
X119877116Y-114637021D01*
X119780868Y-114553623D01*
X119780962Y-114551016D01*
X119774403Y-114548021D01*
X119768954Y-114543299D01*
X119766621Y-114544467D01*
X119759196Y-114541076D01*
X119747093Y-114530024D01*
X119721795Y-114508102D01*
X119721447Y-114506606D01*
X119714367Y-114500141D01*
X119272362Y-113726633D01*
X119264626Y-113689424D01*
X120549187Y-113689424D01*
X120588237Y-113870038D01*
X120665160Y-114038053D01*
X120668382Y-114042329D01*
X120668384Y-114042332D01*
X120724951Y-114117399D01*
X120776367Y-114185630D01*
X120780434Y-114189115D01*
X120780435Y-114189117D01*
X120857712Y-114255351D01*
X120916671Y-114305885D01*
X120921387Y-114308414D01*
X120921389Y-114308415D01*
X121008570Y-114355161D01*
X121079524Y-114393206D01*
X121084685Y-114394666D01*
X121084684Y-114394666D01*
X121252172Y-114442061D01*
X121252175Y-114442061D01*
X121257329Y-114443520D01*
X121262681Y-114443838D01*
X121436438Y-114454161D01*
X121441791Y-114454479D01*
X121447087Y-114453640D01*
X121447090Y-114453640D01*
X121619008Y-114426411D01*
X121619011Y-114426410D01*
X121624303Y-114425572D01*
X121796350Y-114358147D01*
X121800808Y-114355162D01*
X121800811Y-114355161D01*
X121879622Y-114302401D01*
X121949905Y-114255351D01*
X122077804Y-114121979D01*
X122174080Y-113964254D01*
X122234240Y-113789535D01*
X122255479Y-113605972D01*
X122255500Y-113600000D01*
X122244572Y-113499409D01*
X122236122Y-113421619D01*
X122236121Y-113421614D01*
X122235543Y-113416294D01*
X122176604Y-113241159D01*
X122081431Y-113082765D01*
X121954467Y-112948504D01*
X121801633Y-112844638D01*
X121630061Y-112776014D01*
X121447755Y-112745834D01*
X121376246Y-112749582D01*
X121268576Y-112755224D01*
X121268572Y-112755225D01*
X121263222Y-112755505D01*
X121191944Y-112775138D01*
X121090237Y-112803152D01*
X121090233Y-112803154D01*
X121085069Y-112804576D01*
X120921610Y-112890758D01*
X120780471Y-113010030D01*
X120777215Y-113014289D01*
X120671494Y-113152566D01*
X120671492Y-113152569D01*
X120668236Y-113156828D01*
X120590142Y-113324302D01*
X120588973Y-113329533D01*
X120588972Y-113329535D01*
X120574167Y-113395771D01*
X120549832Y-113504638D01*
X120549813Y-113509996D01*
X120549813Y-113509999D01*
X120549509Y-113597242D01*
X120549187Y-113689424D01*
X119264626Y-113689424D01*
X119259907Y-113666728D01*
X119278139Y-113622664D01*
X119277443Y-113622274D01*
X119280724Y-113616415D01*
X119334483Y-113520421D01*
X119355456Y-113405584D01*
X119355500Y-113400000D01*
X119336333Y-113284847D01*
X119280900Y-113182112D01*
X119271273Y-113173212D01*
X119241376Y-113119829D01*
X119248568Y-113059068D01*
X119266710Y-113034503D01*
X119266231Y-113034119D01*
X119271344Y-113027736D01*
X119277443Y-113022274D01*
X119334483Y-112920421D01*
X119355456Y-112805584D01*
X119355500Y-112800000D01*
X119336333Y-112684847D01*
X119280900Y-112582112D01*
X119271273Y-112573212D01*
X119241376Y-112519829D01*
X119248568Y-112459068D01*
X119266710Y-112434503D01*
X119266231Y-112434119D01*
X119271344Y-112427736D01*
X119277443Y-112422274D01*
X119334483Y-112320421D01*
X119355456Y-112205584D01*
X119355500Y-112200000D01*
X119341361Y-112115055D01*
X119350457Y-112054551D01*
X119393380Y-112010947D01*
X119453105Y-112000809D01*
X119491532Y-112006334D01*
X119492863Y-112008578D01*
X119500000Y-112007552D01*
X119507137Y-112008578D01*
X119508468Y-112006334D01*
X119634527Y-111988210D01*
X119636436Y-111989987D01*
X119642994Y-111986992D01*
X119650131Y-111985966D01*
X119650776Y-111983438D01*
X119752327Y-111937061D01*
X119756455Y-111935176D01*
X119756456Y-111935175D01*
X119766621Y-111930533D01*
X119768954Y-111931701D01*
X119774403Y-111926979D01*
X119780962Y-111923984D01*
X119780868Y-111921377D01*
X119785894Y-111917022D01*
X119785896Y-111917021D01*
X119868325Y-111845596D01*
X119877116Y-111837979D01*
X119879684Y-111838442D01*
X119883583Y-111832374D01*
X119889031Y-111827654D01*
X119888207Y-111825180D01*
X119957060Y-111718041D01*
X119959654Y-111717762D01*
X119961685Y-111710844D01*
X119965583Y-111704779D01*
X119964095Y-111702636D01*
X119999985Y-111580403D01*
X120002092Y-111579619D01*
X120002359Y-111572319D01*
X120004416Y-111565313D01*
X120002667Y-111563904D01*
X120005286Y-111492259D01*
X120001833Y-111490678D01*
X120000000Y-111477559D01*
X120000000Y-100225613D01*
X120001957Y-100209265D01*
X120005286Y-100207741D01*
X120002667Y-100136096D01*
X120004416Y-100134687D01*
X120002359Y-100127681D01*
X120002092Y-100120381D01*
X119999985Y-100119597D01*
X119964095Y-99997364D01*
X119965583Y-99995221D01*
X119961685Y-99989156D01*
X119959654Y-99982238D01*
X119957060Y-99981959D01*
X119888207Y-99874820D01*
X119889031Y-99872346D01*
X119883583Y-99867626D01*
X119879684Y-99861558D01*
X119877116Y-99862021D01*
X119780868Y-99778623D01*
X119780962Y-99776016D01*
X119774403Y-99773021D01*
X119768954Y-99768299D01*
X119766621Y-99769467D01*
X119760571Y-99766704D01*
X119660939Y-99721203D01*
X119660937Y-99721203D01*
X119650776Y-99716562D01*
X119650131Y-99714034D01*
X119642994Y-99713008D01*
X119636436Y-99710013D01*
X119634527Y-99711790D01*
X119508468Y-99693666D01*
X119507137Y-99691422D01*
X119500000Y-99692448D01*
X119492863Y-99691422D01*
X119491532Y-99693666D01*
X119458332Y-99698439D01*
X119413622Y-99704867D01*
X119353333Y-99694433D01*
X119310691Y-99650555D01*
X119301984Y-99589993D01*
X119313157Y-99558502D01*
X119330484Y-99527561D01*
X119334483Y-99520421D01*
X119355456Y-99405584D01*
X119355500Y-99400000D01*
X119336333Y-99284847D01*
X119280900Y-99182112D01*
X119271273Y-99173212D01*
X119241376Y-99119829D01*
X119248568Y-99059068D01*
X119266710Y-99034503D01*
X119266231Y-99034119D01*
X119271344Y-99027736D01*
X119277443Y-99022274D01*
X119334483Y-98920421D01*
X119355456Y-98805584D01*
X119355500Y-98800000D01*
X119336333Y-98684847D01*
X119280900Y-98582112D01*
X119271273Y-98573212D01*
X119241376Y-98519829D01*
X119248568Y-98459068D01*
X119266710Y-98434503D01*
X119266231Y-98434119D01*
X119271344Y-98427736D01*
X119277443Y-98422274D01*
X119334483Y-98320421D01*
X119355456Y-98205584D01*
X119355500Y-98200000D01*
X119336333Y-98084847D01*
X119280900Y-97982112D01*
X119274891Y-97976557D01*
X119269877Y-97970093D01*
X119272272Y-97968236D01*
X119249228Y-97927082D01*
X119247773Y-97898387D01*
X119249426Y-97881032D01*
X119270717Y-97828521D01*
X119271349Y-97827733D01*
X119277443Y-97822274D01*
X119334483Y-97720421D01*
X119355456Y-97605584D01*
X119355500Y-97600000D01*
X119336333Y-97484847D01*
X119308814Y-97433845D01*
X119297386Y-97377448D01*
X119317300Y-97168347D01*
X119329479Y-97129356D01*
X119330484Y-97127562D01*
X119330484Y-97127561D01*
X119334483Y-97120421D01*
X119355456Y-97005584D01*
X119355500Y-97000000D01*
X119343525Y-96928055D01*
X119342627Y-96902416D01*
X119443608Y-95842121D01*
X119467947Y-95785985D01*
X119520634Y-95754876D01*
X119528070Y-95753516D01*
X119634527Y-95738210D01*
X119636436Y-95739987D01*
X119642994Y-95736992D01*
X119650131Y-95735966D01*
X119650776Y-95733438D01*
X119725810Y-95699171D01*
X119756455Y-95685176D01*
X119756456Y-95685175D01*
X119766621Y-95680533D01*
X119768954Y-95681701D01*
X119774403Y-95676979D01*
X119780962Y-95673984D01*
X119780868Y-95671377D01*
X119785894Y-95667022D01*
X119785896Y-95667021D01*
X119834054Y-95625291D01*
X119877116Y-95587979D01*
X119879684Y-95588442D01*
X119883583Y-95582374D01*
X119889031Y-95577654D01*
X119888207Y-95575180D01*
X119957060Y-95468041D01*
X119959654Y-95467762D01*
X119961685Y-95460844D01*
X119965583Y-95454779D01*
X119964095Y-95452636D01*
X119999985Y-95330403D01*
X120002092Y-95329619D01*
X120002359Y-95322319D01*
X120004416Y-95315313D01*
X120002667Y-95313904D01*
X120005286Y-95242259D01*
X120001833Y-95240678D01*
X120000000Y-95227559D01*
X120000000Y-90099000D01*
X120018907Y-90040809D01*
X120068407Y-90004845D01*
X120099000Y-90000000D01*
X122495556Y-90000000D01*
X122553747Y-90018907D01*
G37*
%TD.AperFunction*%
%TA.AperFunction,Conductor*%
%TO.N,GND*%
G36*
X118417774Y-95418907D02*
G01*
X118428869Y-95428286D01*
X118459684Y-95458478D01*
X118808247Y-95800000D01*
X118901000Y-95800000D01*
X118959191Y-95818907D01*
X118995155Y-95868407D01*
X119000000Y-95899000D01*
X119000000Y-95961251D01*
X118981093Y-96019442D01*
X118931593Y-96055406D01*
X118924871Y-96057330D01*
X118858814Y-96073738D01*
X118851940Y-96078177D01*
X118851939Y-96078177D01*
X118809779Y-96105399D01*
X118760744Y-96137061D01*
X118688473Y-96228737D01*
X118685763Y-96236455D01*
X118685761Y-96236458D01*
X118652505Y-96331159D01*
X118649794Y-96338879D01*
X118649470Y-96380104D01*
X118648990Y-96441284D01*
X118648877Y-96455612D01*
X118685821Y-96566349D01*
X118690785Y-96572854D01*
X118690786Y-96572855D01*
X118742284Y-96640333D01*
X118762558Y-96698062D01*
X118741332Y-96761685D01*
X118688473Y-96828737D01*
X118685763Y-96836455D01*
X118685761Y-96836458D01*
X118652505Y-96931159D01*
X118649794Y-96938879D01*
X118648877Y-97055612D01*
X118685821Y-97166349D01*
X118690785Y-97172854D01*
X118690786Y-97172855D01*
X118742284Y-97240333D01*
X118762558Y-97298062D01*
X118741332Y-97361685D01*
X118688473Y-97428737D01*
X118685763Y-97436455D01*
X118685761Y-97436458D01*
X118658246Y-97514812D01*
X118649794Y-97538879D01*
X118649529Y-97572618D01*
X118649083Y-97629436D01*
X118648877Y-97655612D01*
X118685821Y-97766349D01*
X118690785Y-97772854D01*
X118690786Y-97772855D01*
X118742284Y-97840333D01*
X118762558Y-97898062D01*
X118741332Y-97961685D01*
X118732343Y-97973088D01*
X118688473Y-98028737D01*
X118685763Y-98036455D01*
X118685761Y-98036458D01*
X118656591Y-98119524D01*
X118649794Y-98138879D01*
X118649314Y-98200000D01*
X118649008Y-98238998D01*
X118648877Y-98255612D01*
X118685821Y-98366349D01*
X118690785Y-98372854D01*
X118690786Y-98372855D01*
X118742284Y-98440333D01*
X118762558Y-98498062D01*
X118741332Y-98561685D01*
X118731855Y-98573707D01*
X118688473Y-98628737D01*
X118685763Y-98636455D01*
X118685761Y-98636458D01*
X118652505Y-98731159D01*
X118649794Y-98738879D01*
X118648877Y-98855612D01*
X118685821Y-98966349D01*
X118690785Y-98972854D01*
X118690786Y-98972855D01*
X118742284Y-99040333D01*
X118762558Y-99098062D01*
X118741332Y-99161685D01*
X118688473Y-99228737D01*
X118685763Y-99236455D01*
X118685761Y-99236458D01*
X118652505Y-99331159D01*
X118649794Y-99338879D01*
X118648877Y-99455612D01*
X118685821Y-99566349D01*
X118690785Y-99572854D01*
X118690786Y-99572855D01*
X118712519Y-99601331D01*
X118756644Y-99659148D01*
X118763448Y-99663694D01*
X118853487Y-99723857D01*
X118891366Y-99771907D01*
X118893768Y-99833045D01*
X118884808Y-99854642D01*
X118870942Y-99879337D01*
X118867903Y-99884391D01*
X118861603Y-99894193D01*
X118861601Y-99894197D01*
X118858603Y-99898862D01*
X118856717Y-99904078D01*
X118855811Y-99905911D01*
X118855182Y-99907405D01*
X118852443Y-99912283D01*
X118850867Y-99917652D01*
X118850864Y-99917658D01*
X118847645Y-99928621D01*
X118845758Y-99934387D01*
X118838278Y-99955076D01*
X118838277Y-99955081D01*
X118834488Y-99965562D01*
X118835061Y-99971175D01*
X118834844Y-99972221D01*
X118818219Y-100028841D01*
X118815264Y-100027973D01*
X118814873Y-100029664D01*
X118817014Y-100030239D01*
X118808707Y-100061145D01*
X118808093Y-100063327D01*
X118799744Y-100091763D01*
X118799527Y-100095303D01*
X118798560Y-100098899D01*
X118798355Y-100104498D01*
X118798355Y-100104500D01*
X118797507Y-100127699D01*
X118797388Y-100130137D01*
X118795397Y-100162555D01*
X118792301Y-100162365D01*
X118792008Y-100164283D01*
X118796164Y-100164435D01*
X118794336Y-100214413D01*
X118796770Y-100227223D01*
X118798261Y-100235074D01*
X118800000Y-100253551D01*
X118800000Y-100380500D01*
X118781093Y-100438691D01*
X118731593Y-100474655D01*
X118701000Y-100479500D01*
X118166950Y-100479500D01*
X117799500Y-100846950D01*
X117799500Y-101513050D01*
X118031446Y-101744996D01*
X118059223Y-101799513D01*
X118049652Y-101859945D01*
X118031446Y-101885004D01*
X117799500Y-102116950D01*
X117799500Y-102783050D01*
X118031446Y-103014996D01*
X118059223Y-103069513D01*
X118049652Y-103129945D01*
X118031446Y-103155004D01*
X117799500Y-103386950D01*
X117799500Y-104053050D01*
X118031446Y-104284996D01*
X118059223Y-104339513D01*
X118049652Y-104399945D01*
X118031446Y-104425004D01*
X117799500Y-104656950D01*
X117799500Y-104739441D01*
X117780593Y-104797632D01*
X117731093Y-104833596D01*
X117669907Y-104833596D01*
X117655555Y-104827651D01*
X117627947Y-104813584D01*
X117621007Y-104810048D01*
X117613313Y-104808829D01*
X117613312Y-104808829D01*
X117503397Y-104791420D01*
X117495701Y-104790201D01*
X117488005Y-104791420D01*
X117378090Y-104808829D01*
X117378089Y-104808829D01*
X117370395Y-104810048D01*
X117363455Y-104813584D01*
X117264293Y-104864109D01*
X117264291Y-104864110D01*
X117257354Y-104867645D01*
X117167645Y-104957354D01*
X117164110Y-104964291D01*
X117164109Y-104964293D01*
X117128503Y-105034174D01*
X117110048Y-105070395D01*
X117108829Y-105078091D01*
X117098897Y-105140795D01*
X117071120Y-105195310D01*
X116784853Y-105481578D01*
X116730336Y-105509356D01*
X116699619Y-105509396D01*
X116591269Y-105492526D01*
X116591263Y-105492525D01*
X116587785Y-105491984D01*
X116584267Y-105491941D01*
X116584266Y-105491941D01*
X116558655Y-105491629D01*
X116529525Y-105491273D01*
X116526030Y-105491730D01*
X116511239Y-105493664D01*
X116498403Y-105494500D01*
X116111597Y-105494500D01*
X116096367Y-105493321D01*
X116093986Y-105492951D01*
X116087785Y-105491985D01*
X116029525Y-105491273D01*
X115887550Y-105509838D01*
X115884156Y-105510786D01*
X115884154Y-105510786D01*
X115834833Y-105524556D01*
X115834831Y-105524557D01*
X115831431Y-105525506D01*
X115828204Y-105526926D01*
X115828201Y-105526927D01*
X115739372Y-105566013D01*
X115678494Y-105572143D01*
X115625640Y-105541319D01*
X115600998Y-105485316D01*
X115600500Y-105475397D01*
X115600500Y-105430485D01*
X115619407Y-105372294D01*
X115629496Y-105360481D01*
X117377510Y-103612467D01*
X117402569Y-103594261D01*
X117443343Y-103573486D01*
X117443345Y-103573485D01*
X117450282Y-103569950D01*
X117539991Y-103480241D01*
X117558730Y-103443465D01*
X117594052Y-103374140D01*
X117597588Y-103367200D01*
X117600860Y-103346546D01*
X117616216Y-103249590D01*
X117617435Y-103241894D01*
X117603673Y-103155004D01*
X117598807Y-103124283D01*
X117598807Y-103124282D01*
X117597588Y-103116588D01*
X117591931Y-103105486D01*
X117543527Y-103010486D01*
X117543526Y-103010484D01*
X117539991Y-103003547D01*
X117450282Y-102913838D01*
X117443345Y-102910303D01*
X117443343Y-102910302D01*
X117344181Y-102859777D01*
X117337241Y-102856241D01*
X117329547Y-102855022D01*
X117329546Y-102855022D01*
X117219631Y-102837613D01*
X117211935Y-102836394D01*
X117204239Y-102837613D01*
X117094324Y-102855022D01*
X117094323Y-102855022D01*
X117086629Y-102856241D01*
X117079689Y-102859777D01*
X116980527Y-102910302D01*
X116980525Y-102910303D01*
X116973588Y-102913838D01*
X116968082Y-102919344D01*
X116968078Y-102919347D01*
X116921919Y-102965507D01*
X116867403Y-102993285D01*
X116806971Y-102983714D01*
X116781911Y-102965508D01*
X116702644Y-102886241D01*
X116695707Y-102882706D01*
X116695705Y-102882705D01*
X116596543Y-102832180D01*
X116589603Y-102828644D01*
X116581909Y-102827425D01*
X116581908Y-102827425D01*
X116471993Y-102810016D01*
X116464297Y-102808797D01*
X116456601Y-102810016D01*
X116346686Y-102827425D01*
X116346685Y-102827425D01*
X116338991Y-102828644D01*
X116332051Y-102832180D01*
X116232889Y-102882705D01*
X116232887Y-102882706D01*
X116225950Y-102886241D01*
X116136241Y-102975950D01*
X116132706Y-102982887D01*
X116132705Y-102982889D01*
X116088568Y-103069513D01*
X116078644Y-103088991D01*
X116058797Y-103214297D01*
X116078644Y-103339603D01*
X116082180Y-103346543D01*
X116082181Y-103346546D01*
X116098909Y-103379377D01*
X116108480Y-103439809D01*
X116080703Y-103494325D01*
X114724356Y-104850672D01*
X114721982Y-104852721D01*
X114717853Y-104854739D01*
X114711636Y-104861441D01*
X114687900Y-104887029D01*
X114685323Y-104889705D01*
X114668531Y-104906497D01*
X114665952Y-104910256D01*
X114664223Y-104912337D01*
X114660660Y-104916394D01*
X114647990Y-104930052D01*
X114647988Y-104930055D01*
X114641773Y-104936755D01*
X114637512Y-104947436D01*
X114627197Y-104966753D01*
X114620696Y-104976229D01*
X114614549Y-105002131D01*
X114610183Y-105015934D01*
X114600318Y-105040661D01*
X114599500Y-105049004D01*
X114599500Y-105053954D01*
X114597029Y-105075073D01*
X114596975Y-105076183D01*
X114594864Y-105085077D01*
X114596097Y-105094134D01*
X114598596Y-105112500D01*
X114599500Y-105125850D01*
X114599500Y-105497242D01*
X114588810Y-105534150D01*
X114591606Y-105535265D01*
X114591605Y-105535267D01*
X114587344Y-105545948D01*
X114577029Y-105565265D01*
X114570528Y-105574741D01*
X114564381Y-105600643D01*
X114560015Y-105614446D01*
X114550150Y-105639173D01*
X114549332Y-105647516D01*
X114549332Y-105652466D01*
X114546861Y-105673585D01*
X114546807Y-105674695D01*
X114544696Y-105683589D01*
X114545929Y-105692646D01*
X114548428Y-105711012D01*
X114549332Y-105724362D01*
X114549332Y-109128413D01*
X114530425Y-109186604D01*
X114520336Y-109198417D01*
X114219268Y-109499484D01*
X113923867Y-109794885D01*
X113921493Y-109796934D01*
X113917364Y-109798952D01*
X113911147Y-109805654D01*
X113887411Y-109831242D01*
X113884834Y-109833918D01*
X113868042Y-109850710D01*
X113865463Y-109854469D01*
X113863734Y-109856550D01*
X113860171Y-109860607D01*
X113847501Y-109874265D01*
X113847499Y-109874268D01*
X113841284Y-109880968D01*
X113837023Y-109891649D01*
X113826708Y-109910966D01*
X113820207Y-109920442D01*
X113814060Y-109946344D01*
X113809694Y-109960147D01*
X113799829Y-109984874D01*
X113799147Y-109991826D01*
X113798624Y-109993977D01*
X113775012Y-110037897D01*
X113758388Y-110055818D01*
X113755811Y-110058494D01*
X113739020Y-110075285D01*
X113736441Y-110079044D01*
X113734712Y-110081125D01*
X113731149Y-110085182D01*
X113718479Y-110098840D01*
X113718477Y-110098843D01*
X113712262Y-110105543D01*
X113708001Y-110116224D01*
X113697686Y-110135541D01*
X113691185Y-110145017D01*
X113685038Y-110170919D01*
X113680672Y-110184722D01*
X113674821Y-110199389D01*
X113635699Y-110246430D01*
X113576396Y-110261492D01*
X113519566Y-110238821D01*
X113495457Y-110209182D01*
X113461420Y-110145168D01*
X113459148Y-110140895D01*
X113328952Y-109981259D01*
X113315279Y-109969948D01*
X113173955Y-109853034D01*
X113173953Y-109853033D01*
X113170228Y-109849951D01*
X113044229Y-109781823D01*
X112993277Y-109754273D01*
X112993276Y-109754272D01*
X112989023Y-109751973D01*
X112885725Y-109719997D01*
X112796859Y-109692488D01*
X112796855Y-109692487D01*
X112792238Y-109691058D01*
X112787431Y-109690553D01*
X112787427Y-109690552D01*
X112592185Y-109670032D01*
X112592183Y-109670032D01*
X112587369Y-109669526D01*
X112547669Y-109673139D01*
X112387039Y-109687757D01*
X112387036Y-109687758D01*
X112382219Y-109688196D01*
X112377577Y-109689562D01*
X112377573Y-109689563D01*
X112189250Y-109744989D01*
X112189247Y-109744990D01*
X112184603Y-109746357D01*
X112154004Y-109762354D01*
X112006344Y-109839548D01*
X112006340Y-109839551D01*
X112002047Y-109841795D01*
X111998271Y-109844831D01*
X111998268Y-109844833D01*
X111853344Y-109961355D01*
X111841505Y-109970874D01*
X111795233Y-110026019D01*
X111712202Y-110124971D01*
X111712199Y-110124975D01*
X111709093Y-110128677D01*
X111609853Y-110309194D01*
X111547565Y-110505549D01*
X111547025Y-110510361D01*
X111547025Y-110510362D01*
X111526588Y-110692569D01*
X111524603Y-110710263D01*
X111541840Y-110915538D01*
X111543173Y-110920186D01*
X111543173Y-110920187D01*
X111587009Y-111073058D01*
X111598621Y-111113555D01*
X111692782Y-111296773D01*
X111820737Y-111458212D01*
X111824417Y-111461344D01*
X111824419Y-111461346D01*
X111853029Y-111485695D01*
X111894154Y-111520694D01*
X111899340Y-111525108D01*
X111931400Y-111577221D01*
X111926706Y-111638226D01*
X111887051Y-111684821D01*
X111835176Y-111699500D01*
X110786447Y-111699500D01*
X110728256Y-111680593D01*
X110692292Y-111631093D01*
X110692292Y-111569907D01*
X110725497Y-111522487D01*
X110764071Y-111492350D01*
X110764076Y-111492345D01*
X110767893Y-111489363D01*
X110771055Y-111485700D01*
X110771060Y-111485695D01*
X110866152Y-111375529D01*
X110902496Y-111333424D01*
X110925766Y-111292463D01*
X111001858Y-111158517D01*
X111001859Y-111158514D01*
X111004247Y-111154311D01*
X111019355Y-111108897D01*
X111067743Y-110963435D01*
X111067743Y-110963433D01*
X111069270Y-110958844D01*
X111074154Y-110920187D01*
X111094740Y-110757225D01*
X111095088Y-110754471D01*
X111095500Y-110725000D01*
X111092619Y-110695616D01*
X111075870Y-110524796D01*
X111075869Y-110524792D01*
X111075398Y-110519986D01*
X111072493Y-110510362D01*
X111053394Y-110447106D01*
X111015858Y-110322780D01*
X110919148Y-110140895D01*
X110788952Y-109981259D01*
X110775279Y-109969948D01*
X110633955Y-109853034D01*
X110633953Y-109853033D01*
X110630228Y-109849951D01*
X110504229Y-109781823D01*
X110453277Y-109754273D01*
X110453276Y-109754272D01*
X110449023Y-109751973D01*
X110417157Y-109742109D01*
X110410225Y-109739963D01*
X110360228Y-109704693D01*
X110340500Y-109645390D01*
X110340500Y-109402831D01*
X110340730Y-109399699D01*
X110342223Y-109395351D01*
X110340570Y-109351322D01*
X110340500Y-109347608D01*
X110340500Y-109323877D01*
X110339665Y-109319393D01*
X110339418Y-109316719D01*
X110339069Y-109311334D01*
X110338369Y-109292694D01*
X110338369Y-109292693D01*
X110338026Y-109283561D01*
X110334273Y-109274824D01*
X110333486Y-109272993D01*
X110327122Y-109252047D01*
X110326691Y-109249731D01*
X110326691Y-109249730D01*
X110325017Y-109240744D01*
X110320220Y-109232962D01*
X110320219Y-109232959D01*
X110311052Y-109218087D01*
X110304368Y-109205220D01*
X110293866Y-109180775D01*
X110288545Y-109174297D01*
X110285042Y-109170794D01*
X110271861Y-109154119D01*
X110271113Y-109153294D01*
X110266316Y-109145512D01*
X110244294Y-109128766D01*
X110234215Y-109119967D01*
X110014248Y-108900000D01*
X112994500Y-108900000D01*
X112995719Y-108907696D01*
X113013075Y-109017272D01*
X113014347Y-109025306D01*
X113017883Y-109032246D01*
X113067063Y-109128767D01*
X113071944Y-109138347D01*
X113161653Y-109228056D01*
X113168590Y-109231591D01*
X113168592Y-109231592D01*
X113229989Y-109262875D01*
X113274694Y-109285653D01*
X113282388Y-109286872D01*
X113282389Y-109286872D01*
X113357339Y-109298743D01*
X113383238Y-109302845D01*
X113392304Y-109304281D01*
X113400000Y-109305500D01*
X113407696Y-109304281D01*
X113416763Y-109302845D01*
X113442661Y-109298743D01*
X113517611Y-109286872D01*
X113517612Y-109286872D01*
X113525306Y-109285653D01*
X113570011Y-109262875D01*
X113631408Y-109231592D01*
X113631410Y-109231591D01*
X113638347Y-109228056D01*
X113728056Y-109138347D01*
X113732938Y-109128767D01*
X113782117Y-109032246D01*
X113785653Y-109025306D01*
X113786926Y-109017272D01*
X113804281Y-108907696D01*
X113805500Y-108900000D01*
X113791961Y-108814522D01*
X113786872Y-108782389D01*
X113786872Y-108782388D01*
X113785653Y-108774694D01*
X113765522Y-108735184D01*
X113731592Y-108668592D01*
X113731591Y-108668590D01*
X113728056Y-108661653D01*
X113638347Y-108571944D01*
X113631410Y-108568409D01*
X113631408Y-108568408D01*
X113532246Y-108517883D01*
X113525306Y-108514347D01*
X113517612Y-108513128D01*
X113517611Y-108513128D01*
X113407696Y-108495719D01*
X113400000Y-108494500D01*
X113392304Y-108495719D01*
X113282389Y-108513128D01*
X113282388Y-108513128D01*
X113274694Y-108514347D01*
X113267754Y-108517883D01*
X113168592Y-108568408D01*
X113168590Y-108568409D01*
X113161653Y-108571944D01*
X113071944Y-108661653D01*
X113068409Y-108668590D01*
X113068408Y-108668592D01*
X113034478Y-108735184D01*
X113014347Y-108774694D01*
X113013128Y-108782388D01*
X113013128Y-108782389D01*
X113008039Y-108814522D01*
X112994500Y-108900000D01*
X110014248Y-108900000D01*
X109438605Y-108324356D01*
X109436556Y-108321982D01*
X109434538Y-108317853D01*
X109402248Y-108287900D01*
X109399572Y-108285323D01*
X109382780Y-108268531D01*
X109379021Y-108265952D01*
X109376940Y-108264223D01*
X109372883Y-108260660D01*
X109359225Y-108247990D01*
X109359222Y-108247988D01*
X109352522Y-108241773D01*
X109341841Y-108237512D01*
X109322524Y-108227197D01*
X109313048Y-108220696D01*
X109287146Y-108214549D01*
X109273343Y-108210183D01*
X109248616Y-108200318D01*
X109240273Y-108199500D01*
X109235323Y-108199500D01*
X109214204Y-108197029D01*
X109213094Y-108196975D01*
X109204200Y-108194864D01*
X109182802Y-108197776D01*
X109176777Y-108198596D01*
X109163427Y-108199500D01*
X107565479Y-108199500D01*
X107507288Y-108180593D01*
X107495479Y-108170507D01*
X107494320Y-108169349D01*
X107466544Y-108114834D01*
X107456612Y-108052130D01*
X107456612Y-108052129D01*
X107455393Y-108044434D01*
X107397796Y-107931393D01*
X107392290Y-107925887D01*
X107389147Y-107921561D01*
X107370240Y-107863371D01*
X107370240Y-107695739D01*
X107389147Y-107637548D01*
X107399236Y-107625735D01*
X109085639Y-105939332D01*
X109088017Y-105937280D01*
X109092147Y-105935261D01*
X109122112Y-105902958D01*
X109124689Y-105900282D01*
X109141469Y-105883502D01*
X109144047Y-105879745D01*
X109145779Y-105877660D01*
X109149340Y-105873606D01*
X109162010Y-105859948D01*
X109162012Y-105859945D01*
X109168227Y-105853245D01*
X109171615Y-105844753D01*
X109172490Y-105842561D01*
X109182802Y-105823250D01*
X109184132Y-105821311D01*
X109184133Y-105821310D01*
X109189305Y-105813770D01*
X109195449Y-105787880D01*
X109199823Y-105774051D01*
X109207093Y-105755829D01*
X109207093Y-105755827D01*
X109209682Y-105749339D01*
X109210500Y-105740996D01*
X109210500Y-105736046D01*
X109212971Y-105714927D01*
X109213025Y-105713817D01*
X109215136Y-105704923D01*
X109211404Y-105677500D01*
X109210500Y-105664150D01*
X109210500Y-101345478D01*
X109229407Y-101287287D01*
X109239497Y-101275474D01*
X109264971Y-101250000D01*
X115344500Y-101250000D01*
X115345719Y-101257696D01*
X115359623Y-101345478D01*
X115364347Y-101375306D01*
X115367883Y-101382246D01*
X115397928Y-101441212D01*
X115421944Y-101488347D01*
X115511653Y-101578056D01*
X115518590Y-101581591D01*
X115518592Y-101581592D01*
X115600434Y-101623292D01*
X115624694Y-101635653D01*
X115632388Y-101636872D01*
X115632389Y-101636872D01*
X115722037Y-101651071D01*
X115733882Y-101652947D01*
X115742304Y-101654281D01*
X115750000Y-101655500D01*
X115757696Y-101654281D01*
X115766119Y-101652947D01*
X115777963Y-101651071D01*
X115867611Y-101636872D01*
X115867612Y-101636872D01*
X115875306Y-101635653D01*
X115882246Y-101632117D01*
X115889660Y-101629708D01*
X115890200Y-101631371D01*
X115941216Y-101623292D01*
X115995732Y-101651071D01*
X116023509Y-101705588D01*
X116015429Y-101756600D01*
X116017092Y-101757140D01*
X116014683Y-101764554D01*
X116011147Y-101771494D01*
X115991300Y-101896800D01*
X116011147Y-102022106D01*
X116014683Y-102029046D01*
X116064910Y-102127622D01*
X116068744Y-102135147D01*
X116158453Y-102224856D01*
X116165390Y-102228391D01*
X116165392Y-102228392D01*
X116264554Y-102278917D01*
X116271494Y-102282453D01*
X116279188Y-102283672D01*
X116279189Y-102283672D01*
X116389104Y-102301081D01*
X116396800Y-102302300D01*
X116404496Y-102301081D01*
X116514411Y-102283672D01*
X116514412Y-102283672D01*
X116522106Y-102282453D01*
X116529046Y-102278917D01*
X116628208Y-102228392D01*
X116628210Y-102228391D01*
X116635147Y-102224856D01*
X116724856Y-102135147D01*
X116728691Y-102127622D01*
X116778917Y-102029046D01*
X116782453Y-102022106D01*
X116802300Y-101896800D01*
X116782453Y-101771494D01*
X116749923Y-101707650D01*
X116728392Y-101665392D01*
X116728391Y-101665390D01*
X116724856Y-101658453D01*
X116635147Y-101568744D01*
X116628210Y-101565209D01*
X116628208Y-101565208D01*
X116529046Y-101514683D01*
X116522106Y-101511147D01*
X116514412Y-101509928D01*
X116514411Y-101509928D01*
X116424098Y-101495624D01*
X116396800Y-101491300D01*
X116369502Y-101495624D01*
X116279189Y-101509928D01*
X116279188Y-101509928D01*
X116271494Y-101511147D01*
X116264554Y-101514683D01*
X116257140Y-101517092D01*
X116256600Y-101515429D01*
X116205584Y-101523508D01*
X116151068Y-101495729D01*
X116123291Y-101441212D01*
X116131371Y-101390200D01*
X116129708Y-101389660D01*
X116132117Y-101382246D01*
X116135653Y-101375306D01*
X116140378Y-101345478D01*
X116154281Y-101257696D01*
X116155500Y-101250000D01*
X116144321Y-101179418D01*
X116136872Y-101132389D01*
X116136872Y-101132388D01*
X116135653Y-101124694D01*
X116121004Y-101095943D01*
X116081592Y-101018592D01*
X116081591Y-101018590D01*
X116078056Y-101011653D01*
X115988347Y-100921944D01*
X115981410Y-100918409D01*
X115981408Y-100918408D01*
X115882246Y-100867883D01*
X115875306Y-100864347D01*
X115867612Y-100863128D01*
X115867611Y-100863128D01*
X115757696Y-100845719D01*
X115750000Y-100844500D01*
X115742304Y-100845719D01*
X115632389Y-100863128D01*
X115632388Y-100863128D01*
X115624694Y-100864347D01*
X115617754Y-100867883D01*
X115518592Y-100918408D01*
X115518590Y-100918409D01*
X115511653Y-100921944D01*
X115421944Y-101011653D01*
X115418409Y-101018590D01*
X115418408Y-101018592D01*
X115378996Y-101095943D01*
X115364347Y-101124694D01*
X115363128Y-101132388D01*
X115363128Y-101132389D01*
X115355679Y-101179418D01*
X115344500Y-101250000D01*
X109264971Y-101250000D01*
X109305476Y-101209496D01*
X109359993Y-101181719D01*
X109375479Y-101180500D01*
X114467892Y-101180500D01*
X114471024Y-101180730D01*
X114475372Y-101182223D01*
X114484508Y-101181880D01*
X114519401Y-101180570D01*
X114523115Y-101180500D01*
X114546846Y-101180500D01*
X114551330Y-101179665D01*
X114554004Y-101179418D01*
X114559389Y-101179069D01*
X114578029Y-101178369D01*
X114578030Y-101178369D01*
X114587162Y-101178026D01*
X114595557Y-101174420D01*
X114595559Y-101174419D01*
X114597730Y-101173486D01*
X114618674Y-101167123D01*
X114620168Y-101166844D01*
X114620992Y-101166691D01*
X114620993Y-101166691D01*
X114629979Y-101165017D01*
X114637761Y-101160220D01*
X114637764Y-101160219D01*
X114652636Y-101151052D01*
X114665499Y-101144370D01*
X114689948Y-101133866D01*
X114696426Y-101128545D01*
X114699929Y-101125042D01*
X114716604Y-101111861D01*
X114717429Y-101111113D01*
X114725211Y-101106316D01*
X114741957Y-101084294D01*
X114750756Y-101074215D01*
X117800390Y-98024581D01*
X117854906Y-97996804D01*
X117917610Y-97986872D01*
X117925306Y-97985653D01*
X117932256Y-97982112D01*
X118031408Y-97931592D01*
X118031410Y-97931591D01*
X118038347Y-97928056D01*
X118128056Y-97838347D01*
X118141149Y-97812652D01*
X118182117Y-97732246D01*
X118185653Y-97725306D01*
X118187701Y-97712380D01*
X118204281Y-97607696D01*
X118205500Y-97600000D01*
X118199700Y-97563380D01*
X118186872Y-97482389D01*
X118186872Y-97482388D01*
X118185653Y-97474694D01*
X118175930Y-97455611D01*
X118131592Y-97368592D01*
X118131591Y-97368590D01*
X118128056Y-97361653D01*
X118038347Y-97271944D01*
X118031410Y-97268409D01*
X118031408Y-97268408D01*
X117932246Y-97217883D01*
X117925306Y-97214347D01*
X117917612Y-97213128D01*
X117917611Y-97213128D01*
X117807696Y-97195719D01*
X117800000Y-97194500D01*
X117792304Y-97195719D01*
X117682389Y-97213128D01*
X117682388Y-97213128D01*
X117674694Y-97214347D01*
X117667754Y-97217883D01*
X117568592Y-97268408D01*
X117568590Y-97268409D01*
X117561653Y-97271944D01*
X117471944Y-97361653D01*
X117468409Y-97368590D01*
X117468408Y-97368592D01*
X117424070Y-97455611D01*
X117414347Y-97474694D01*
X117413128Y-97482389D01*
X117413128Y-97482390D01*
X117403196Y-97545094D01*
X117375419Y-97599610D01*
X115310816Y-99664213D01*
X115256300Y-99691989D01*
X115195868Y-99682418D01*
X115152603Y-99639153D01*
X115143032Y-99578721D01*
X115154281Y-99507697D01*
X115154281Y-99507696D01*
X115155500Y-99500000D01*
X115139661Y-99400000D01*
X115136872Y-99382389D01*
X115136872Y-99382388D01*
X115135653Y-99374694D01*
X115121574Y-99347062D01*
X115081592Y-99268592D01*
X115081591Y-99268590D01*
X115078056Y-99261653D01*
X114988347Y-99171944D01*
X114981410Y-99168409D01*
X114981408Y-99168408D01*
X114882246Y-99117883D01*
X114875306Y-99114347D01*
X114867612Y-99113128D01*
X114867611Y-99113128D01*
X114757696Y-99095719D01*
X114750000Y-99094500D01*
X114742304Y-99095719D01*
X114632389Y-99113128D01*
X114632388Y-99113128D01*
X114624694Y-99114347D01*
X114617754Y-99117883D01*
X114518592Y-99168408D01*
X114518590Y-99168409D01*
X114511653Y-99171944D01*
X114421944Y-99261653D01*
X114418409Y-99268590D01*
X114418408Y-99268592D01*
X114378426Y-99347062D01*
X114364347Y-99374694D01*
X114363128Y-99382388D01*
X114363128Y-99382389D01*
X114360339Y-99400000D01*
X114344500Y-99500000D01*
X114345719Y-99507696D01*
X114357985Y-99585136D01*
X114364347Y-99625306D01*
X114367883Y-99632246D01*
X114411245Y-99717348D01*
X114421944Y-99738347D01*
X114511653Y-99828056D01*
X114518590Y-99831591D01*
X114518592Y-99831592D01*
X114563831Y-99854642D01*
X114624694Y-99885653D01*
X114632388Y-99886872D01*
X114632389Y-99886872D01*
X114742304Y-99904281D01*
X114750000Y-99905500D01*
X114757696Y-99904281D01*
X114757697Y-99904281D01*
X114828721Y-99893032D01*
X114889153Y-99902603D01*
X114932418Y-99945868D01*
X114941989Y-100006300D01*
X114914211Y-100060817D01*
X114424523Y-100550504D01*
X114370007Y-100578281D01*
X114354520Y-100579500D01*
X109262108Y-100579500D01*
X109258976Y-100579270D01*
X109254628Y-100577777D01*
X109245492Y-100578120D01*
X109210599Y-100579430D01*
X109206885Y-100579500D01*
X109183154Y-100579500D01*
X109178670Y-100580335D01*
X109175996Y-100580582D01*
X109170611Y-100580931D01*
X109151971Y-100581631D01*
X109151970Y-100581631D01*
X109142838Y-100581974D01*
X109134443Y-100585580D01*
X109134441Y-100585581D01*
X109132270Y-100586514D01*
X109111326Y-100592877D01*
X109109832Y-100593156D01*
X109109008Y-100593309D01*
X109109007Y-100593309D01*
X109100021Y-100594983D01*
X109092239Y-100599780D01*
X109092236Y-100599781D01*
X109077364Y-100608948D01*
X109064501Y-100615630D01*
X109040052Y-100626134D01*
X109033574Y-100631455D01*
X109030071Y-100634958D01*
X109013395Y-100648139D01*
X109012568Y-100648889D01*
X109004789Y-100653684D01*
X108999258Y-100660958D01*
X108988041Y-100675709D01*
X108979240Y-100685789D01*
X108734358Y-100930671D01*
X108731983Y-100932721D01*
X108727853Y-100934739D01*
X108721635Y-100941442D01*
X108697900Y-100967029D01*
X108695323Y-100969705D01*
X108678531Y-100986497D01*
X108675952Y-100990256D01*
X108674223Y-100992337D01*
X108670660Y-100996394D01*
X108657990Y-101010052D01*
X108657988Y-101010055D01*
X108651773Y-101016755D01*
X108647512Y-101027436D01*
X108637197Y-101046753D01*
X108630696Y-101056229D01*
X108624549Y-101082131D01*
X108620183Y-101095934D01*
X108610318Y-101120661D01*
X108609500Y-101129004D01*
X108609500Y-101133954D01*
X108607029Y-101155073D01*
X108606975Y-101156183D01*
X108604864Y-101165077D01*
X108606816Y-101179418D01*
X108608596Y-101192500D01*
X108609500Y-101205850D01*
X108609500Y-105524521D01*
X108590593Y-105582712D01*
X108580504Y-105594525D01*
X106894096Y-107280932D01*
X106891722Y-107282981D01*
X106887593Y-107284999D01*
X106881376Y-107291701D01*
X106857640Y-107317289D01*
X106855063Y-107319965D01*
X106838271Y-107336757D01*
X106835692Y-107340516D01*
X106833963Y-107342597D01*
X106830400Y-107346654D01*
X106817730Y-107360312D01*
X106817728Y-107360315D01*
X106811513Y-107367015D01*
X106807252Y-107377696D01*
X106796937Y-107397013D01*
X106790436Y-107406489D01*
X106784289Y-107432391D01*
X106779923Y-107446194D01*
X106770058Y-107470921D01*
X106769240Y-107479264D01*
X106769240Y-107484214D01*
X106766769Y-107505333D01*
X106766715Y-107506443D01*
X106764604Y-107515337D01*
X106765837Y-107524394D01*
X106768336Y-107542760D01*
X106769240Y-107556110D01*
X106769240Y-107863371D01*
X106750333Y-107921561D01*
X106747190Y-107925887D01*
X106741684Y-107931393D01*
X106684087Y-108044434D01*
X106664240Y-108169740D01*
X106665459Y-108177436D01*
X106682188Y-108283054D01*
X106684087Y-108295046D01*
X106687623Y-108301986D01*
X106698136Y-108322618D01*
X106741684Y-108408087D01*
X106831393Y-108497796D01*
X106838330Y-108501331D01*
X106838332Y-108501332D01*
X106937492Y-108551856D01*
X106944434Y-108555393D01*
X106952130Y-108556612D01*
X107014834Y-108566544D01*
X107069350Y-108594321D01*
X107148103Y-108673074D01*
X107175880Y-108727591D01*
X107166309Y-108788023D01*
X107123044Y-108831288D01*
X107078099Y-108842078D01*
X106855410Y-108842078D01*
X106852278Y-108841848D01*
X106847930Y-108840355D01*
X106838795Y-108840698D01*
X106803911Y-108842008D01*
X106800196Y-108842078D01*
X106776456Y-108842078D01*
X106771974Y-108842913D01*
X106769276Y-108843162D01*
X106763890Y-108843511D01*
X106745272Y-108844210D01*
X106745271Y-108844210D01*
X106736139Y-108844553D01*
X106727746Y-108848159D01*
X106727741Y-108848160D01*
X106725580Y-108849089D01*
X106704625Y-108855456D01*
X106702306Y-108855888D01*
X106693323Y-108857561D01*
X106685546Y-108862355D01*
X106685543Y-108862356D01*
X106670672Y-108871523D01*
X106657800Y-108878209D01*
X106639780Y-108885950D01*
X106639775Y-108885953D01*
X106633353Y-108888712D01*
X106626876Y-108894033D01*
X106623373Y-108897536D01*
X106606698Y-108910717D01*
X106605873Y-108911465D01*
X106598091Y-108916262D01*
X106592558Y-108923538D01*
X106581346Y-108938282D01*
X106572547Y-108948361D01*
X105904356Y-109616552D01*
X105901982Y-109618601D01*
X105897853Y-109620619D01*
X105891636Y-109627321D01*
X105867900Y-109652909D01*
X105865323Y-109655585D01*
X105848531Y-109672377D01*
X105845952Y-109676136D01*
X105844223Y-109678217D01*
X105840660Y-109682274D01*
X105827990Y-109695932D01*
X105827988Y-109695935D01*
X105821773Y-109702635D01*
X105817512Y-109713316D01*
X105807197Y-109732633D01*
X105800696Y-109742109D01*
X105794549Y-109768011D01*
X105790183Y-109781814D01*
X105780318Y-109806541D01*
X105779500Y-109814884D01*
X105779500Y-109819834D01*
X105777029Y-109840953D01*
X105776975Y-109842063D01*
X105774864Y-109850957D01*
X105777070Y-109867163D01*
X105778596Y-109878380D01*
X105779500Y-109891730D01*
X105779500Y-113747892D01*
X105779270Y-113751024D01*
X105777777Y-113755372D01*
X105778120Y-113764508D01*
X105779430Y-113799401D01*
X105779500Y-113803115D01*
X105779500Y-113826846D01*
X105780335Y-113831330D01*
X105780582Y-113834004D01*
X105780931Y-113839389D01*
X105781631Y-113858029D01*
X105781974Y-113867162D01*
X105785580Y-113875557D01*
X105785581Y-113875559D01*
X105786514Y-113877730D01*
X105792877Y-113898674D01*
X105794983Y-113909979D01*
X105799780Y-113917761D01*
X105799781Y-113917764D01*
X105808948Y-113932636D01*
X105815630Y-113945499D01*
X105826134Y-113969948D01*
X105831455Y-113976426D01*
X105834958Y-113979929D01*
X105848139Y-113996604D01*
X105848887Y-113997429D01*
X105853684Y-114005211D01*
X105860959Y-114010743D01*
X105860960Y-114010744D01*
X105875705Y-114021956D01*
X105885785Y-114030756D01*
X106445179Y-114590150D01*
X106447231Y-114592528D01*
X106449250Y-114596658D01*
X106455950Y-114602873D01*
X106481553Y-114626623D01*
X106484229Y-114629200D01*
X106486025Y-114630996D01*
X106513802Y-114685513D01*
X106504231Y-114745945D01*
X106460966Y-114789210D01*
X106416021Y-114800000D01*
X104299000Y-114800000D01*
X104240809Y-114781093D01*
X104204845Y-114731593D01*
X104200000Y-114701000D01*
X104200000Y-111289500D01*
X104218907Y-111231309D01*
X104268407Y-111195345D01*
X104299000Y-111190500D01*
X104833050Y-111190500D01*
X105200500Y-110823050D01*
X105200500Y-110156950D01*
X104968554Y-109925004D01*
X104940777Y-109870487D01*
X104950348Y-109810055D01*
X104968554Y-109784996D01*
X105200500Y-109553050D01*
X105200500Y-108886950D01*
X104968554Y-108655004D01*
X104940777Y-108600487D01*
X104950348Y-108540055D01*
X104968554Y-108514996D01*
X105200500Y-108283050D01*
X105200500Y-107616950D01*
X104968554Y-107385004D01*
X104940777Y-107330487D01*
X104950348Y-107270055D01*
X104968554Y-107244996D01*
X105200500Y-107013050D01*
X105200500Y-106346950D01*
X104968554Y-106115004D01*
X104940777Y-106060487D01*
X104950348Y-106000055D01*
X104968554Y-105974996D01*
X105200500Y-105743050D01*
X105200500Y-105440479D01*
X105219407Y-105382288D01*
X105229496Y-105370475D01*
X106199971Y-104400000D01*
X106694500Y-104400000D01*
X106695719Y-104407696D01*
X106704376Y-104462350D01*
X106714347Y-104525306D01*
X106771944Y-104638347D01*
X106861653Y-104728056D01*
X106868590Y-104731591D01*
X106868592Y-104731592D01*
X106883997Y-104739441D01*
X106974694Y-104785653D01*
X106982388Y-104786872D01*
X106982389Y-104786872D01*
X107092304Y-104804281D01*
X107100000Y-104805500D01*
X107107696Y-104804281D01*
X107217611Y-104786872D01*
X107217612Y-104786872D01*
X107225306Y-104785653D01*
X107316003Y-104739441D01*
X107331408Y-104731592D01*
X107331410Y-104731591D01*
X107338347Y-104728056D01*
X107428056Y-104638347D01*
X107485653Y-104525306D01*
X107495625Y-104462350D01*
X107504281Y-104407696D01*
X107505500Y-104400000D01*
X107495920Y-104339513D01*
X107486872Y-104282389D01*
X107486872Y-104282388D01*
X107485653Y-104274694D01*
X107478310Y-104260282D01*
X107431592Y-104168592D01*
X107431591Y-104168590D01*
X107428056Y-104161653D01*
X107338347Y-104071944D01*
X107331410Y-104068409D01*
X107331408Y-104068408D01*
X107232246Y-104017883D01*
X107225306Y-104014347D01*
X107217612Y-104013128D01*
X107217611Y-104013128D01*
X107107696Y-103995719D01*
X107100000Y-103994500D01*
X107092304Y-103995719D01*
X106982389Y-104013128D01*
X106982388Y-104013128D01*
X106974694Y-104014347D01*
X106967754Y-104017883D01*
X106868592Y-104068408D01*
X106868590Y-104068409D01*
X106861653Y-104071944D01*
X106771944Y-104161653D01*
X106768409Y-104168590D01*
X106768408Y-104168592D01*
X106721690Y-104260282D01*
X106714347Y-104274694D01*
X106713128Y-104282388D01*
X106713128Y-104282389D01*
X106704080Y-104339513D01*
X106694500Y-104400000D01*
X106199971Y-104400000D01*
X106300639Y-104299332D01*
X106303017Y-104297280D01*
X106307147Y-104295261D01*
X106337112Y-104262958D01*
X106339689Y-104260282D01*
X106356468Y-104243503D01*
X106359041Y-104239751D01*
X106360763Y-104237679D01*
X106364328Y-104233618D01*
X106377011Y-104219946D01*
X106377011Y-104219945D01*
X106383227Y-104213245D01*
X106386613Y-104204758D01*
X106386615Y-104204755D01*
X106387488Y-104202566D01*
X106397803Y-104183248D01*
X106399133Y-104181309D01*
X106404304Y-104173771D01*
X106410447Y-104147885D01*
X106414821Y-104134056D01*
X106422093Y-104115829D01*
X106422093Y-104115827D01*
X106424682Y-104109339D01*
X106425500Y-104100996D01*
X106425500Y-104096042D01*
X106427970Y-104074937D01*
X106428025Y-104073816D01*
X106430135Y-104064924D01*
X106426404Y-104037509D01*
X106425500Y-104024159D01*
X106425500Y-100840479D01*
X106444407Y-100782288D01*
X106454496Y-100770475D01*
X106970475Y-100254496D01*
X107024992Y-100226719D01*
X107040479Y-100225500D01*
X110196968Y-100225500D01*
X110200100Y-100225730D01*
X110204448Y-100227223D01*
X110213584Y-100226880D01*
X110248477Y-100225570D01*
X110252191Y-100225500D01*
X110275922Y-100225500D01*
X110280406Y-100224665D01*
X110283080Y-100224418D01*
X110288465Y-100224069D01*
X110307105Y-100223369D01*
X110307106Y-100223369D01*
X110316238Y-100223026D01*
X110324633Y-100219420D01*
X110324635Y-100219419D01*
X110326806Y-100218486D01*
X110347750Y-100212123D01*
X110349244Y-100211844D01*
X110350068Y-100211691D01*
X110350069Y-100211691D01*
X110359055Y-100210017D01*
X110366837Y-100205220D01*
X110366840Y-100205219D01*
X110381712Y-100196052D01*
X110394575Y-100189370D01*
X110419024Y-100178866D01*
X110425502Y-100173545D01*
X110429005Y-100170042D01*
X110445680Y-100156861D01*
X110446505Y-100156113D01*
X110454287Y-100151316D01*
X110471033Y-100129294D01*
X110479832Y-100119215D01*
X111583737Y-99015310D01*
X111586115Y-99013258D01*
X111590245Y-99011239D01*
X111620210Y-98978936D01*
X111622787Y-98976260D01*
X111639567Y-98959480D01*
X111642145Y-98955723D01*
X111643877Y-98953638D01*
X111647426Y-98949596D01*
X111662324Y-98933536D01*
X111715760Y-98903734D01*
X111776509Y-98911032D01*
X111804908Y-98930861D01*
X111819155Y-98945108D01*
X111826092Y-98948643D01*
X111826094Y-98948644D01*
X111885546Y-98978936D01*
X111932196Y-99002705D01*
X111939890Y-99003924D01*
X111939891Y-99003924D01*
X112049806Y-99021333D01*
X112057502Y-99022552D01*
X112065198Y-99021333D01*
X112175113Y-99003924D01*
X112175114Y-99003924D01*
X112182808Y-99002705D01*
X112229458Y-98978936D01*
X112288910Y-98948644D01*
X112288912Y-98948643D01*
X112295849Y-98945108D01*
X112305023Y-98935934D01*
X112359540Y-98908157D01*
X112419972Y-98917728D01*
X112445031Y-98935934D01*
X112462153Y-98953056D01*
X112469090Y-98956591D01*
X112469092Y-98956592D01*
X112565738Y-99005835D01*
X112575194Y-99010653D01*
X112582888Y-99011872D01*
X112582889Y-99011872D01*
X112692804Y-99029281D01*
X112700500Y-99030500D01*
X112708196Y-99029281D01*
X112818111Y-99011872D01*
X112818112Y-99011872D01*
X112825806Y-99010653D01*
X112835262Y-99005835D01*
X112931908Y-98956592D01*
X112931910Y-98956591D01*
X112938847Y-98953056D01*
X113028556Y-98863347D01*
X113032498Y-98855612D01*
X113082617Y-98757246D01*
X113086153Y-98750306D01*
X113106000Y-98625000D01*
X113095972Y-98561685D01*
X113087372Y-98507389D01*
X113087372Y-98507388D01*
X113086153Y-98499694D01*
X113028556Y-98386653D01*
X113023050Y-98381147D01*
X113019907Y-98376821D01*
X113001000Y-98318631D01*
X113001000Y-97952608D01*
X113001230Y-97949476D01*
X113002723Y-97945128D01*
X113001070Y-97901099D01*
X113001000Y-97897385D01*
X113001000Y-97873654D01*
X113000165Y-97869170D01*
X112999918Y-97866496D01*
X112999569Y-97861111D01*
X112998869Y-97842471D01*
X112998869Y-97842470D01*
X112998526Y-97833338D01*
X112993986Y-97822770D01*
X112987622Y-97801824D01*
X112987191Y-97799508D01*
X112987191Y-97799507D01*
X112985517Y-97790521D01*
X112980720Y-97782739D01*
X112980719Y-97782736D01*
X112971552Y-97767864D01*
X112964868Y-97754997D01*
X112954366Y-97730552D01*
X112949045Y-97724074D01*
X112945542Y-97720571D01*
X112932361Y-97703896D01*
X112931613Y-97703071D01*
X112926816Y-97695289D01*
X112904794Y-97678543D01*
X112894715Y-97669744D01*
X111748839Y-96523867D01*
X111746790Y-96521493D01*
X111744772Y-96517364D01*
X111712482Y-96487411D01*
X111709806Y-96484834D01*
X111693014Y-96468042D01*
X111689255Y-96465463D01*
X111687174Y-96463734D01*
X111683117Y-96460171D01*
X111669459Y-96447501D01*
X111669456Y-96447499D01*
X111662756Y-96441284D01*
X111652075Y-96437023D01*
X111632758Y-96426708D01*
X111623282Y-96420207D01*
X111597380Y-96414060D01*
X111583577Y-96409694D01*
X111558850Y-96399829D01*
X111550507Y-96399011D01*
X111545557Y-96399011D01*
X111524438Y-96396540D01*
X111523328Y-96396486D01*
X111514434Y-96394375D01*
X111493036Y-96397287D01*
X111487011Y-96398107D01*
X111473661Y-96399011D01*
X110075713Y-96399011D01*
X110017522Y-96380104D01*
X110005709Y-96370015D01*
X109760052Y-96124358D01*
X109758002Y-96121983D01*
X109755984Y-96117853D01*
X109742975Y-96105785D01*
X109723694Y-96087900D01*
X109721018Y-96085323D01*
X109704226Y-96068531D01*
X109700467Y-96065952D01*
X109698386Y-96064223D01*
X109694329Y-96060660D01*
X109680671Y-96047990D01*
X109680668Y-96047988D01*
X109673968Y-96041773D01*
X109663287Y-96037512D01*
X109643970Y-96027197D01*
X109634494Y-96020696D01*
X109608592Y-96014549D01*
X109594789Y-96010183D01*
X109570062Y-96000318D01*
X109561719Y-95999500D01*
X109556769Y-95999500D01*
X109533907Y-95996824D01*
X109527587Y-95995324D01*
X109522054Y-95991953D01*
X109509245Y-95997096D01*
X109498223Y-95998596D01*
X109484873Y-95999500D01*
X107152108Y-95999500D01*
X107148976Y-95999270D01*
X107144628Y-95997777D01*
X107135492Y-95998120D01*
X107100599Y-95999430D01*
X107096885Y-95999500D01*
X107073154Y-95999500D01*
X107068664Y-96000336D01*
X107065994Y-96000583D01*
X107060613Y-96000931D01*
X107048872Y-96001372D01*
X107041970Y-96001631D01*
X107041969Y-96001631D01*
X107032837Y-96001974D01*
X107024442Y-96005580D01*
X107024440Y-96005581D01*
X107022269Y-96006514D01*
X107001324Y-96012878D01*
X106990021Y-96014983D01*
X106982243Y-96019778D01*
X106982239Y-96019779D01*
X106967364Y-96028948D01*
X106954501Y-96035630D01*
X106930052Y-96046134D01*
X106923574Y-96051455D01*
X106920071Y-96054958D01*
X106903396Y-96068139D01*
X106902571Y-96068887D01*
X106894789Y-96073684D01*
X106889257Y-96080959D01*
X106889256Y-96080960D01*
X106878044Y-96095705D01*
X106869244Y-96105785D01*
X105514524Y-97460504D01*
X105460007Y-97488281D01*
X105444520Y-97489500D01*
X105273539Y-97489500D01*
X105215348Y-97470593D01*
X105200544Y-97456906D01*
X105200500Y-97456950D01*
X104833050Y-97089500D01*
X104299000Y-97089500D01*
X104240809Y-97070593D01*
X104204845Y-97021093D01*
X104200000Y-96990500D01*
X104200000Y-95899000D01*
X104218907Y-95840809D01*
X104268407Y-95804845D01*
X104299000Y-95800000D01*
X107136839Y-95800000D01*
X107139039Y-95800715D01*
X107141950Y-95800000D01*
X109495895Y-95800000D01*
X109516697Y-95806759D01*
X109550449Y-95800000D01*
X117300000Y-95800000D01*
X117671004Y-95428996D01*
X117725521Y-95401219D01*
X117741008Y-95400000D01*
X118359583Y-95400000D01*
X118417774Y-95418907D01*
G37*
%TD.AperFunction*%
%TA.AperFunction,Conductor*%
G36*
X116306028Y-110660956D02*
G01*
X116334358Y-110676119D01*
X116397250Y-110724378D01*
X116543285Y-110784868D01*
X116700000Y-110805500D01*
X116856715Y-110784868D01*
X117002750Y-110724378D01*
X117040235Y-110695615D01*
X117097908Y-110675192D01*
X117156574Y-110692569D01*
X117193821Y-110741111D01*
X117199500Y-110774158D01*
X117199500Y-111334521D01*
X117180593Y-111392712D01*
X117170504Y-111404525D01*
X116029448Y-112545580D01*
X115974931Y-112573357D01*
X115914499Y-112563786D01*
X115882726Y-112538147D01*
X115868952Y-112521259D01*
X115843824Y-112500471D01*
X115713955Y-112393034D01*
X115713953Y-112393033D01*
X115710228Y-112389951D01*
X115598420Y-112329496D01*
X115533277Y-112294273D01*
X115533276Y-112294272D01*
X115529023Y-112291973D01*
X115461438Y-112271052D01*
X115336859Y-112232488D01*
X115336855Y-112232487D01*
X115332238Y-112231058D01*
X115327431Y-112230553D01*
X115327427Y-112230552D01*
X115132185Y-112210032D01*
X115132183Y-112210032D01*
X115127369Y-112209526D01*
X115059372Y-112215714D01*
X114927039Y-112227757D01*
X114927036Y-112227758D01*
X114922219Y-112228196D01*
X114917577Y-112229562D01*
X114917573Y-112229563D01*
X114729250Y-112284989D01*
X114729247Y-112284990D01*
X114724603Y-112286357D01*
X114709461Y-112294273D01*
X114546344Y-112379548D01*
X114546340Y-112379551D01*
X114542047Y-112381795D01*
X114538271Y-112384831D01*
X114538268Y-112384833D01*
X114531903Y-112389951D01*
X114381505Y-112510874D01*
X114308736Y-112597597D01*
X114252202Y-112664971D01*
X114252199Y-112664975D01*
X114249093Y-112668677D01*
X114149853Y-112849194D01*
X114087565Y-113045549D01*
X114087025Y-113050361D01*
X114087025Y-113050362D01*
X114067905Y-113220827D01*
X114064603Y-113250263D01*
X114081840Y-113455538D01*
X114083173Y-113460186D01*
X114083173Y-113460187D01*
X114134830Y-113640333D01*
X114138621Y-113653555D01*
X114232782Y-113836773D01*
X114360737Y-113998212D01*
X114364417Y-114001344D01*
X114364419Y-114001346D01*
X114428182Y-114055612D01*
X114517612Y-114131723D01*
X114521835Y-114134083D01*
X114521839Y-114134086D01*
X114638453Y-114199259D01*
X114697432Y-114232221D01*
X114702030Y-114233715D01*
X114888742Y-114294382D01*
X114888745Y-114294383D01*
X114893347Y-114295878D01*
X115097895Y-114320269D01*
X115102717Y-114319898D01*
X115102720Y-114319898D01*
X115298458Y-114304837D01*
X115298463Y-114304836D01*
X115303286Y-114304465D01*
X115501695Y-114249068D01*
X115532089Y-114233715D01*
X115681244Y-114158371D01*
X115681246Y-114158370D01*
X115685565Y-114156188D01*
X115847893Y-114029363D01*
X115851055Y-114025700D01*
X115851060Y-114025695D01*
X115944223Y-113917764D01*
X115982496Y-113873424D01*
X115986054Y-113867162D01*
X116081858Y-113698517D01*
X116081859Y-113698514D01*
X116084247Y-113694311D01*
X116090496Y-113675528D01*
X116147743Y-113503435D01*
X116147743Y-113503433D01*
X116149270Y-113498844D01*
X116153752Y-113463369D01*
X116174740Y-113297225D01*
X116175088Y-113294471D01*
X116175158Y-113289451D01*
X116175316Y-113288987D01*
X116175319Y-113288948D01*
X116175329Y-113288949D01*
X116194874Y-113231530D01*
X116204144Y-113220827D01*
X116926910Y-112498062D01*
X117675644Y-111749328D01*
X117678018Y-111747279D01*
X117682147Y-111745261D01*
X117712100Y-111712971D01*
X117714677Y-111710295D01*
X117731469Y-111693503D01*
X117734048Y-111689744D01*
X117735777Y-111687663D01*
X117739340Y-111683606D01*
X117752010Y-111669948D01*
X117752012Y-111669945D01*
X117758227Y-111663245D01*
X117762488Y-111652564D01*
X117772805Y-111633244D01*
X117774133Y-111631309D01*
X117779304Y-111623771D01*
X117785451Y-111597869D01*
X117789817Y-111584066D01*
X117799682Y-111559339D01*
X117800500Y-111550996D01*
X117800500Y-111546046D01*
X117802971Y-111524927D01*
X117803025Y-111523817D01*
X117805136Y-111514923D01*
X117801404Y-111487500D01*
X117800500Y-111474150D01*
X117800500Y-111073058D01*
X117819407Y-111014867D01*
X117868907Y-110978903D01*
X117930093Y-110978903D01*
X117969504Y-111003054D01*
X118166950Y-111200500D01*
X118701000Y-111200500D01*
X118759191Y-111219407D01*
X118795155Y-111268907D01*
X118800000Y-111299500D01*
X118800000Y-111446418D01*
X118798228Y-111465063D01*
X118794329Y-111485395D01*
X118796108Y-111534035D01*
X118796157Y-111535375D01*
X118793067Y-111535488D01*
X118793232Y-111537213D01*
X118795457Y-111537080D01*
X118795457Y-111537082D01*
X118797360Y-111569002D01*
X118797466Y-111571202D01*
X118798553Y-111600909D01*
X118799467Y-111604335D01*
X118799689Y-111608052D01*
X118801265Y-111613421D01*
X118801266Y-111613424D01*
X118807806Y-111635697D01*
X118808467Y-111638057D01*
X118816842Y-111669434D01*
X118813845Y-111670234D01*
X118814175Y-111672146D01*
X118818164Y-111670974D01*
X118818165Y-111670975D01*
X118834816Y-111727683D01*
X118835009Y-111728619D01*
X118834443Y-111734073D01*
X118845714Y-111765419D01*
X118847537Y-111771008D01*
X118852389Y-111787533D01*
X118851154Y-111787896D01*
X118855744Y-111842741D01*
X118824034Y-111895068D01*
X118813070Y-111903275D01*
X118760744Y-111937061D01*
X118688473Y-112028737D01*
X118685763Y-112036455D01*
X118685761Y-112036458D01*
X118654424Y-112125695D01*
X118649794Y-112138879D01*
X118649656Y-112156484D01*
X118649059Y-112232488D01*
X118648877Y-112255612D01*
X118685821Y-112366349D01*
X118690785Y-112372854D01*
X118690786Y-112372855D01*
X118742284Y-112440333D01*
X118762558Y-112498062D01*
X118741332Y-112561685D01*
X118688473Y-112628737D01*
X118685763Y-112636455D01*
X118685761Y-112636458D01*
X118652505Y-112731159D01*
X118649794Y-112738879D01*
X118649730Y-112747062D01*
X118649119Y-112824865D01*
X118648877Y-112855612D01*
X118685821Y-112966349D01*
X118690785Y-112972854D01*
X118690786Y-112972855D01*
X118742284Y-113040333D01*
X118762558Y-113098062D01*
X118741332Y-113161685D01*
X118688473Y-113228737D01*
X118685763Y-113236455D01*
X118685761Y-113236458D01*
X118667151Y-113289452D01*
X118649794Y-113338879D01*
X118648877Y-113455612D01*
X118685821Y-113566349D01*
X118690785Y-113572854D01*
X118690786Y-113572855D01*
X118742284Y-113640333D01*
X118762558Y-113698062D01*
X118741332Y-113761685D01*
X118688473Y-113828737D01*
X118685763Y-113836455D01*
X118685761Y-113836458D01*
X118663912Y-113898676D01*
X118649794Y-113938879D01*
X118649550Y-113969948D01*
X118648956Y-114045604D01*
X118648877Y-114055612D01*
X118685821Y-114166349D01*
X118690785Y-114172854D01*
X118690786Y-114172855D01*
X118711609Y-114200139D01*
X118756644Y-114259148D01*
X118776402Y-114272350D01*
X118845494Y-114318516D01*
X118853707Y-114324004D01*
X118923022Y-114342382D01*
X118974420Y-114375570D01*
X118996496Y-114432633D01*
X118980816Y-114491775D01*
X118972076Y-114503059D01*
X118969424Y-114505357D01*
X118966142Y-114509834D01*
X118964779Y-114511313D01*
X118963742Y-114512584D01*
X118959733Y-114516500D01*
X118956704Y-114521214D01*
X118950536Y-114530811D01*
X118947113Y-114535797D01*
X118927495Y-114562561D01*
X118926463Y-114568107D01*
X118925959Y-114569052D01*
X118892330Y-114621380D01*
X118891740Y-114622150D01*
X118887252Y-114625291D01*
X118872613Y-114651362D01*
X118870942Y-114654338D01*
X118867903Y-114659391D01*
X118861603Y-114669193D01*
X118861601Y-114669197D01*
X118858603Y-114673862D01*
X118856717Y-114679078D01*
X118855811Y-114680911D01*
X118855182Y-114682405D01*
X118852443Y-114687283D01*
X118850867Y-114692652D01*
X118850864Y-114692658D01*
X118847645Y-114703621D01*
X118845758Y-114709389D01*
X118836621Y-114734661D01*
X118799055Y-114782956D01*
X118743519Y-114800000D01*
X109134229Y-114800000D01*
X109076038Y-114781093D01*
X109040074Y-114731593D01*
X109040074Y-114670407D01*
X109058062Y-114642623D01*
X109055700Y-114640827D01*
X109072449Y-114618801D01*
X109081250Y-114608721D01*
X109462056Y-114227916D01*
X109516572Y-114200139D01*
X109580356Y-114211500D01*
X109617432Y-114232221D01*
X109622030Y-114233715D01*
X109808742Y-114294382D01*
X109808745Y-114294383D01*
X109813347Y-114295878D01*
X110017895Y-114320269D01*
X110022717Y-114319898D01*
X110022720Y-114319898D01*
X110218458Y-114304837D01*
X110218463Y-114304836D01*
X110223286Y-114304465D01*
X110421695Y-114249068D01*
X110452089Y-114233715D01*
X110601244Y-114158371D01*
X110601246Y-114158370D01*
X110605565Y-114156188D01*
X110767893Y-114029363D01*
X110771055Y-114025700D01*
X110771060Y-114025695D01*
X110864223Y-113917764D01*
X110902496Y-113873424D01*
X110906054Y-113867162D01*
X111001858Y-113698517D01*
X111001859Y-113698514D01*
X111004247Y-113694311D01*
X111010496Y-113675528D01*
X111067743Y-113503435D01*
X111067743Y-113503433D01*
X111069270Y-113498844D01*
X111073752Y-113463369D01*
X111094740Y-113297225D01*
X111095088Y-113294471D01*
X111095500Y-113265000D01*
X111094528Y-113255083D01*
X111075870Y-113064796D01*
X111075869Y-113064792D01*
X111075398Y-113059986D01*
X111072493Y-113050362D01*
X111017256Y-112867412D01*
X111015858Y-112862780D01*
X110919148Y-112680895D01*
X110788952Y-112521259D01*
X110763824Y-112500471D01*
X110733979Y-112475781D01*
X110701194Y-112424120D01*
X110705036Y-112363055D01*
X110744037Y-112315911D01*
X110797084Y-112300500D01*
X111822032Y-112300500D01*
X111880223Y-112319407D01*
X111916187Y-112368907D01*
X111916187Y-112430093D01*
X111884066Y-112476654D01*
X111841505Y-112510874D01*
X111768736Y-112597597D01*
X111712202Y-112664971D01*
X111712199Y-112664975D01*
X111709093Y-112668677D01*
X111609853Y-112849194D01*
X111547565Y-113045549D01*
X111547025Y-113050361D01*
X111547025Y-113050362D01*
X111527905Y-113220827D01*
X111524603Y-113250263D01*
X111541840Y-113455538D01*
X111543173Y-113460186D01*
X111543173Y-113460187D01*
X111594830Y-113640333D01*
X111598621Y-113653555D01*
X111692782Y-113836773D01*
X111820737Y-113998212D01*
X111824417Y-114001344D01*
X111824419Y-114001346D01*
X111888182Y-114055612D01*
X111977612Y-114131723D01*
X111981835Y-114134083D01*
X111981839Y-114134086D01*
X112098453Y-114199259D01*
X112157432Y-114232221D01*
X112162030Y-114233715D01*
X112348742Y-114294382D01*
X112348745Y-114294383D01*
X112353347Y-114295878D01*
X112557895Y-114320269D01*
X112562717Y-114319898D01*
X112562720Y-114319898D01*
X112758458Y-114304837D01*
X112758463Y-114304836D01*
X112763286Y-114304465D01*
X112961695Y-114249068D01*
X112992089Y-114233715D01*
X113141244Y-114158371D01*
X113141246Y-114158370D01*
X113145565Y-114156188D01*
X113307893Y-114029363D01*
X113311055Y-114025700D01*
X113311060Y-114025695D01*
X113404223Y-113917764D01*
X113442496Y-113873424D01*
X113446054Y-113867162D01*
X113541858Y-113698517D01*
X113541859Y-113698514D01*
X113544247Y-113694311D01*
X113550496Y-113675528D01*
X113607743Y-113503435D01*
X113607743Y-113503433D01*
X113609270Y-113498844D01*
X113613752Y-113463369D01*
X113634740Y-113297225D01*
X113635088Y-113294471D01*
X113635500Y-113265000D01*
X113634528Y-113255083D01*
X113615870Y-113064796D01*
X113615869Y-113064792D01*
X113615398Y-113059986D01*
X113612493Y-113050362D01*
X113557256Y-112867412D01*
X113555858Y-112862780D01*
X113459148Y-112680895D01*
X113328952Y-112521259D01*
X113303824Y-112500471D01*
X113273979Y-112475781D01*
X113241194Y-112424120D01*
X113245036Y-112363055D01*
X113284037Y-112315911D01*
X113337084Y-112300500D01*
X113547892Y-112300500D01*
X113551024Y-112300730D01*
X113555372Y-112302223D01*
X113564508Y-112301880D01*
X113599401Y-112300570D01*
X113603115Y-112300500D01*
X113626846Y-112300500D01*
X113631330Y-112299665D01*
X113634004Y-112299418D01*
X113639389Y-112299069D01*
X113658029Y-112298369D01*
X113658030Y-112298369D01*
X113667162Y-112298026D01*
X113675557Y-112294420D01*
X113675559Y-112294419D01*
X113677730Y-112293486D01*
X113698674Y-112287123D01*
X113700168Y-112286844D01*
X113700992Y-112286691D01*
X113700993Y-112286691D01*
X113709979Y-112285017D01*
X113717761Y-112280220D01*
X113717764Y-112280219D01*
X113732636Y-112271052D01*
X113745499Y-112264370D01*
X113769948Y-112253866D01*
X113776426Y-112248545D01*
X113779929Y-112245042D01*
X113796604Y-112231861D01*
X113797429Y-112231113D01*
X113805211Y-112226316D01*
X113821957Y-112204294D01*
X113830756Y-112194215D01*
X114146128Y-111878843D01*
X114148506Y-111876791D01*
X114152636Y-111874772D01*
X114182601Y-111842469D01*
X114185178Y-111839793D01*
X114201958Y-111823013D01*
X114204536Y-111819256D01*
X114206268Y-111817171D01*
X114209829Y-111813117D01*
X114222499Y-111799459D01*
X114222501Y-111799456D01*
X114228716Y-111792756D01*
X114232104Y-111784264D01*
X114232979Y-111782072D01*
X114243291Y-111762761D01*
X114244621Y-111760822D01*
X114244622Y-111760821D01*
X114249794Y-111753281D01*
X114255938Y-111727391D01*
X114260312Y-111713562D01*
X114267582Y-111695340D01*
X114267582Y-111695338D01*
X114270171Y-111688850D01*
X114270989Y-111680507D01*
X114270989Y-111675557D01*
X114273460Y-111654438D01*
X114273514Y-111653328D01*
X114275625Y-111644434D01*
X114271893Y-111617011D01*
X114270989Y-111603661D01*
X114270989Y-111596086D01*
X114289896Y-111537895D01*
X114339396Y-111501931D01*
X114400582Y-111501931D01*
X114434153Y-111520694D01*
X114449829Y-111534035D01*
X114517612Y-111591723D01*
X114521835Y-111594083D01*
X114521839Y-111594086D01*
X114611927Y-111644434D01*
X114697432Y-111692221D01*
X114702030Y-111693715D01*
X114888742Y-111754382D01*
X114888745Y-111754383D01*
X114893347Y-111755878D01*
X115097895Y-111780269D01*
X115102717Y-111779898D01*
X115102720Y-111779898D01*
X115298458Y-111764837D01*
X115298463Y-111764836D01*
X115303286Y-111764465D01*
X115501695Y-111709068D01*
X115516418Y-111701631D01*
X115681244Y-111618371D01*
X115681246Y-111618370D01*
X115685565Y-111616188D01*
X115847893Y-111489363D01*
X115851055Y-111485700D01*
X115851060Y-111485695D01*
X115946152Y-111375529D01*
X115982496Y-111333424D01*
X116005766Y-111292463D01*
X116081858Y-111158517D01*
X116081859Y-111158514D01*
X116084247Y-111154311D01*
X116099355Y-111108897D01*
X116147743Y-110963435D01*
X116147743Y-110963433D01*
X116149270Y-110958844D01*
X116154154Y-110920187D01*
X116174740Y-110757225D01*
X116175088Y-110754471D01*
X116175127Y-110751696D01*
X116175319Y-110748948D01*
X116176542Y-110749034D01*
X116194841Y-110695336D01*
X116244849Y-110660082D01*
X116306028Y-110660956D01*
G37*
%TD.AperFunction*%
%TA.AperFunction,Conductor*%
G36*
X109340223Y-112319407D02*
G01*
X109376187Y-112368907D01*
X109376187Y-112430093D01*
X109344066Y-112476654D01*
X109301505Y-112510874D01*
X109228736Y-112597597D01*
X109172202Y-112664971D01*
X109172199Y-112664975D01*
X109169093Y-112668677D01*
X109069853Y-112849194D01*
X109007565Y-113045549D01*
X109007025Y-113050361D01*
X109007025Y-113050362D01*
X108987905Y-113220827D01*
X108984603Y-113250263D01*
X109001840Y-113455538D01*
X109003173Y-113460186D01*
X109003173Y-113460187D01*
X109054830Y-113640333D01*
X109058621Y-113653555D01*
X109060836Y-113657865D01*
X109069024Y-113673797D01*
X109078807Y-113734196D01*
X109050975Y-113789054D01*
X108901209Y-113938819D01*
X108755013Y-114085015D01*
X108700497Y-114112792D01*
X108685010Y-114114011D01*
X108371061Y-114114011D01*
X108312870Y-114095104D01*
X108276906Y-114045604D01*
X108276906Y-113984418D01*
X108296119Y-113950322D01*
X108300279Y-113945503D01*
X108362496Y-113873424D01*
X108366054Y-113867162D01*
X108461858Y-113698517D01*
X108461859Y-113698514D01*
X108464247Y-113694311D01*
X108470496Y-113675528D01*
X108527743Y-113503435D01*
X108527743Y-113503433D01*
X108529270Y-113498844D01*
X108533752Y-113463369D01*
X108554740Y-113297225D01*
X108555088Y-113294471D01*
X108555500Y-113265000D01*
X108554528Y-113255083D01*
X108535870Y-113064796D01*
X108535869Y-113064792D01*
X108535398Y-113059986D01*
X108532493Y-113050362D01*
X108477256Y-112867412D01*
X108475858Y-112862780D01*
X108468635Y-112849194D01*
X108444757Y-112804288D01*
X108434132Y-112744032D01*
X108462165Y-112687806D01*
X108820475Y-112329496D01*
X108874992Y-112301719D01*
X108890479Y-112300500D01*
X109282032Y-112300500D01*
X109340223Y-112319407D01*
G37*
%TD.AperFunction*%
%TA.AperFunction,Conductor*%
G36*
X109081989Y-108819407D02*
G01*
X109093802Y-108829496D01*
X109710504Y-109446199D01*
X109738281Y-109500716D01*
X109739500Y-109516203D01*
X109739500Y-109644366D01*
X109720593Y-109702557D01*
X109668452Y-109739338D01*
X109644603Y-109746357D01*
X109603210Y-109767997D01*
X109466344Y-109839548D01*
X109466340Y-109839551D01*
X109462047Y-109841795D01*
X109458271Y-109844831D01*
X109458268Y-109844833D01*
X109313344Y-109961355D01*
X109301505Y-109970874D01*
X109255233Y-110026019D01*
X109172202Y-110124971D01*
X109172199Y-110124975D01*
X109169093Y-110128677D01*
X109069853Y-110309194D01*
X109007565Y-110505549D01*
X109007025Y-110510361D01*
X109007025Y-110510362D01*
X108986588Y-110692569D01*
X108984603Y-110710263D01*
X109001840Y-110915538D01*
X109003173Y-110920186D01*
X109003173Y-110920187D01*
X109047009Y-111073058D01*
X109058621Y-111113555D01*
X109152782Y-111296773D01*
X109280737Y-111458212D01*
X109284417Y-111461344D01*
X109284419Y-111461346D01*
X109313029Y-111485695D01*
X109354154Y-111520694D01*
X109359340Y-111525108D01*
X109391400Y-111577221D01*
X109386706Y-111638226D01*
X109347051Y-111684821D01*
X109295176Y-111699500D01*
X108777108Y-111699500D01*
X108773976Y-111699270D01*
X108769628Y-111697777D01*
X108756204Y-111698281D01*
X108725599Y-111699430D01*
X108721885Y-111699500D01*
X108698154Y-111699500D01*
X108693664Y-111700336D01*
X108690994Y-111700583D01*
X108685613Y-111700931D01*
X108673872Y-111701372D01*
X108666970Y-111701631D01*
X108666969Y-111701631D01*
X108657837Y-111701974D01*
X108649442Y-111705580D01*
X108649440Y-111705581D01*
X108647269Y-111706514D01*
X108626324Y-111712878D01*
X108615021Y-111714983D01*
X108607243Y-111719778D01*
X108607239Y-111719779D01*
X108592364Y-111728948D01*
X108579501Y-111735630D01*
X108555052Y-111746134D01*
X108548574Y-111751455D01*
X108545071Y-111754958D01*
X108528396Y-111768139D01*
X108527571Y-111768887D01*
X108519789Y-111773684D01*
X108514257Y-111780959D01*
X108514256Y-111780960D01*
X108503044Y-111795705D01*
X108494244Y-111805785D01*
X108025426Y-112274603D01*
X107970909Y-112302380D01*
X107917055Y-112295862D01*
X107913281Y-112294275D01*
X107909023Y-112291973D01*
X107904403Y-112290543D01*
X107904401Y-112290542D01*
X107716859Y-112232488D01*
X107716855Y-112232487D01*
X107712238Y-112231058D01*
X107707431Y-112230553D01*
X107707427Y-112230552D01*
X107512185Y-112210032D01*
X107512183Y-112210032D01*
X107507369Y-112209526D01*
X107439372Y-112215714D01*
X107307039Y-112227757D01*
X107307036Y-112227758D01*
X107302219Y-112228196D01*
X107297577Y-112229562D01*
X107297573Y-112229563D01*
X107109250Y-112284989D01*
X107109247Y-112284990D01*
X107104603Y-112286357D01*
X107089461Y-112294273D01*
X106926344Y-112379548D01*
X106926340Y-112379551D01*
X106922047Y-112381795D01*
X106918271Y-112384831D01*
X106918268Y-112384833D01*
X106911903Y-112389951D01*
X106761505Y-112510874D01*
X106688736Y-112597597D01*
X106632202Y-112664971D01*
X106632199Y-112664975D01*
X106629093Y-112668677D01*
X106590100Y-112739606D01*
X106566254Y-112782981D01*
X106521652Y-112824865D01*
X106460949Y-112832533D01*
X106407332Y-112803057D01*
X106381281Y-112747695D01*
X106380500Y-112735287D01*
X106380500Y-110031359D01*
X106399407Y-109973168D01*
X106409496Y-109961355D01*
X106898777Y-109472074D01*
X106953294Y-109444297D01*
X106968781Y-109443078D01*
X107236210Y-109443078D01*
X107294400Y-109461985D01*
X107298726Y-109465128D01*
X107304232Y-109470634D01*
X107311169Y-109474169D01*
X107311171Y-109474170D01*
X107396153Y-109517470D01*
X107417273Y-109528231D01*
X107424967Y-109529450D01*
X107424968Y-109529450D01*
X107534883Y-109546859D01*
X107542579Y-109548078D01*
X107550275Y-109546859D01*
X107660190Y-109529450D01*
X107660191Y-109529450D01*
X107667885Y-109528231D01*
X107689005Y-109517470D01*
X107773987Y-109474170D01*
X107773989Y-109474169D01*
X107780926Y-109470634D01*
X107870635Y-109380925D01*
X107885719Y-109351322D01*
X107924696Y-109274824D01*
X107928232Y-109267884D01*
X107930741Y-109252047D01*
X107946860Y-109150274D01*
X107948079Y-109142578D01*
X107930604Y-109032246D01*
X107929451Y-109024967D01*
X107929451Y-109024966D01*
X107928232Y-109017272D01*
X107891125Y-108944445D01*
X107881554Y-108884013D01*
X107909332Y-108829496D01*
X107963848Y-108801719D01*
X107979335Y-108800500D01*
X109023798Y-108800500D01*
X109081989Y-108819407D01*
G37*
%TD.AperFunction*%
%TA.AperFunction,Conductor*%
G36*
X107275576Y-97211144D02*
G01*
X107318841Y-97254409D01*
X107328412Y-97283867D01*
X107329618Y-97291478D01*
X107339347Y-97352906D01*
X107342883Y-97359846D01*
X107392360Y-97456950D01*
X107396944Y-97465947D01*
X107486653Y-97555656D01*
X107493590Y-97559191D01*
X107493592Y-97559192D01*
X107592752Y-97609716D01*
X107599694Y-97613253D01*
X107607390Y-97614472D01*
X107670094Y-97624404D01*
X107724610Y-97652181D01*
X108004179Y-97931750D01*
X108006231Y-97934128D01*
X108008250Y-97938258D01*
X108014950Y-97944473D01*
X108040553Y-97968223D01*
X108043229Y-97970800D01*
X108060008Y-97987579D01*
X108063760Y-97990152D01*
X108065832Y-97991874D01*
X108069893Y-97995439D01*
X108079742Y-98004575D01*
X108090266Y-98014338D01*
X108098753Y-98017724D01*
X108098756Y-98017726D01*
X108100945Y-98018599D01*
X108120264Y-98028914D01*
X108129740Y-98035415D01*
X108138634Y-98037526D01*
X108138635Y-98037526D01*
X108155626Y-98041558D01*
X108169455Y-98045932D01*
X108187682Y-98053204D01*
X108187684Y-98053204D01*
X108194172Y-98055793D01*
X108202515Y-98056611D01*
X108207469Y-98056611D01*
X108228574Y-98059081D01*
X108229695Y-98059136D01*
X108238587Y-98061246D01*
X108266001Y-98057515D01*
X108279352Y-98056611D01*
X108696458Y-98056611D01*
X108699590Y-98056841D01*
X108703938Y-98058334D01*
X108713074Y-98057991D01*
X108747967Y-98056681D01*
X108751681Y-98056611D01*
X108775412Y-98056611D01*
X108779896Y-98055776D01*
X108782570Y-98055529D01*
X108787955Y-98055180D01*
X108806593Y-98054480D01*
X108815728Y-98054137D01*
X108820321Y-98052164D01*
X108835271Y-98050500D01*
X109194244Y-98050500D01*
X109252435Y-98069407D01*
X109264248Y-98079496D01*
X109522880Y-98338128D01*
X109550657Y-98392645D01*
X109541086Y-98453077D01*
X109497820Y-98496342D01*
X109437392Y-98527131D01*
X109437390Y-98527132D01*
X109430451Y-98530668D01*
X109424945Y-98536174D01*
X109420619Y-98539317D01*
X109362429Y-98558224D01*
X106753378Y-98558224D01*
X106750246Y-98557994D01*
X106745898Y-98556501D01*
X106736763Y-98556844D01*
X106701879Y-98558154D01*
X106698164Y-98558224D01*
X106674424Y-98558224D01*
X106669942Y-98559059D01*
X106667244Y-98559308D01*
X106661858Y-98559657D01*
X106643240Y-98560356D01*
X106643239Y-98560356D01*
X106634107Y-98560699D01*
X106625714Y-98564305D01*
X106625709Y-98564306D01*
X106623548Y-98565235D01*
X106602593Y-98571602D01*
X106600279Y-98572033D01*
X106591291Y-98573707D01*
X106577656Y-98582112D01*
X106568641Y-98587669D01*
X106555769Y-98594355D01*
X106537746Y-98602098D01*
X106531322Y-98604858D01*
X106524844Y-98610179D01*
X106521341Y-98613682D01*
X106504666Y-98626863D01*
X106503841Y-98627611D01*
X106496059Y-98632408D01*
X106490527Y-98639683D01*
X106490526Y-98639684D01*
X106479314Y-98654429D01*
X106470514Y-98664509D01*
X105239290Y-99895732D01*
X105184773Y-99923509D01*
X105124341Y-99913938D01*
X105099282Y-99895732D01*
X104968554Y-99765004D01*
X104940777Y-99710487D01*
X104950348Y-99650055D01*
X104968554Y-99624996D01*
X105200500Y-99393050D01*
X105200500Y-99230485D01*
X105219407Y-99172294D01*
X105229496Y-99160481D01*
X107160627Y-97229350D01*
X107215144Y-97201573D01*
X107275576Y-97211144D01*
G37*
%TD.AperFunction*%
%TA.AperFunction,Conductor*%
G36*
X108992232Y-97018927D02*
G01*
X109004045Y-97029016D01*
X109249698Y-97274669D01*
X109251750Y-97277047D01*
X109253769Y-97281177D01*
X109260469Y-97287392D01*
X109263503Y-97291478D01*
X109283016Y-97349469D01*
X109264715Y-97407853D01*
X109215593Y-97444331D01*
X109184021Y-97449500D01*
X108806785Y-97449500D01*
X108803653Y-97449270D01*
X108799305Y-97447777D01*
X108790169Y-97448120D01*
X108755276Y-97449430D01*
X108751562Y-97449500D01*
X108727831Y-97449500D01*
X108723341Y-97450336D01*
X108720671Y-97450583D01*
X108715290Y-97450931D01*
X108702472Y-97451413D01*
X108696648Y-97451631D01*
X108696647Y-97451631D01*
X108687514Y-97451974D01*
X108682921Y-97453947D01*
X108667971Y-97455611D01*
X108418989Y-97455611D01*
X108360798Y-97436704D01*
X108348985Y-97426614D01*
X108149581Y-97227209D01*
X108121804Y-97172693D01*
X108112588Y-97114507D01*
X108122159Y-97054075D01*
X108165424Y-97010811D01*
X108210369Y-97000020D01*
X108934041Y-97000020D01*
X108992232Y-97018927D01*
G37*
%TD.AperFunction*%
%TD*%
M02*
