%TF.GenerationSoftware,KiCad,Pcbnew,(6.0.0)*%
%TF.CreationDate,2022-02-03T22:20:29+01:00*%
%TF.ProjectId,ESP31_V3,45535033-315f-4563-932e-6b696361645f,rev?*%
%TF.SameCoordinates,Original*%
%TF.FileFunction,Copper,L1,Top*%
%TF.FilePolarity,Positive*%
%FSLAX46Y46*%
G04 Gerber Fmt 4.6, Leading zero omitted, Abs format (unit mm)*
G04 Created by KiCad (PCBNEW (6.0.0)) date 2022-02-03 22:20:29*
%MOMM*%
%LPD*%
G01*
G04 APERTURE LIST*
G04 Aperture macros list*
%AMRoundRect*
0 Rectangle with rounded corners*
0 $1 Rounding radius*
0 $2 $3 $4 $5 $6 $7 $8 $9 X,Y pos of 4 corners*
0 Add a 4 corners polygon primitive as box body*
4,1,4,$2,$3,$4,$5,$6,$7,$8,$9,$2,$3,0*
0 Add four circle primitives for the rounded corners*
1,1,$1+$1,$2,$3*
1,1,$1+$1,$4,$5*
1,1,$1+$1,$6,$7*
1,1,$1+$1,$8,$9*
0 Add four rect primitives between the rounded corners*
20,1,$1+$1,$2,$3,$4,$5,0*
20,1,$1+$1,$4,$5,$6,$7,0*
20,1,$1+$1,$6,$7,$8,$9,0*
20,1,$1+$1,$8,$9,$2,$3,0*%
%AMRotRect*
0 Rectangle, with rotation*
0 The origin of the aperture is its center*
0 $1 length*
0 $2 width*
0 $3 Rotation angle, in degrees counterclockwise*
0 Add horizontal line*
21,1,$1,$2,0,0,$3*%
%AMOutline5P*
0 Free polygon, 5 corners , with rotation*
0 The origin of the aperture is its center*
0 number of corners: always 5*
0 $1 to $10 corner X, Y*
0 $11 Rotation angle, in degrees counterclockwise*
0 create outline with 5 corners*
4,1,5,$1,$2,$3,$4,$5,$6,$7,$8,$9,$10,$1,$2,$11*%
%AMOutline6P*
0 Free polygon, 6 corners , with rotation*
0 The origin of the aperture is its center*
0 number of corners: always 6*
0 $1 to $12 corner X, Y*
0 $13 Rotation angle, in degrees counterclockwise*
0 create outline with 6 corners*
4,1,6,$1,$2,$3,$4,$5,$6,$7,$8,$9,$10,$11,$12,$1,$2,$13*%
%AMOutline7P*
0 Free polygon, 7 corners , with rotation*
0 The origin of the aperture is its center*
0 number of corners: always 7*
0 $1 to $14 corner X, Y*
0 $15 Rotation angle, in degrees counterclockwise*
0 create outline with 7 corners*
4,1,7,$1,$2,$3,$4,$5,$6,$7,$8,$9,$10,$11,$12,$13,$14,$1,$2,$15*%
%AMOutline8P*
0 Free polygon, 8 corners , with rotation*
0 The origin of the aperture is its center*
0 number of corners: always 8*
0 $1 to $16 corner X, Y*
0 $17 Rotation angle, in degrees counterclockwise*
0 create outline with 8 corners*
4,1,8,$1,$2,$3,$4,$5,$6,$7,$8,$9,$10,$11,$12,$13,$14,$15,$16,$1,$2,$17*%
%AMFreePoly0*
4,1,5,0.110000,-0.125000,-0.110000,-0.125000,-0.110000,0.125000,0.360000,0.125000,0.110000,-0.125000,0.110000,-0.125000,$1*%
%AMFreePoly1*
4,1,6,0.290000,-0.055000,0.290000,-0.125000,-0.110000,-0.125000,-0.110000,0.125000,0.110000,0.125000,0.290000,-0.055000,0.290000,-0.055000,$1*%
%AMFreePoly2*
4,1,6,0.110000,-0.125000,-0.290000,-0.125000,-0.290000,-0.055000,-0.110000,0.125000,0.110000,0.125000,0.110000,-0.125000,0.110000,-0.125000,$1*%
%AMFreePoly3*
4,1,6,0.110000,-0.125000,-0.110000,-0.125000,-0.290000,0.055000,-0.290000,0.125000,0.110000,0.125000,0.110000,-0.125000,0.110000,-0.125000,$1*%
G04 Aperture macros list end*
%TA.AperFunction,ComponentPad*%
%ADD10Outline6P,-0.500000X0.500000X0.250000X0.500000X0.500000X0.250000X0.500000X-0.250000X0.250000X-0.500000X-0.500000X-0.500000X180.000000*%
%TD*%
%TA.AperFunction,ComponentPad*%
%ADD11Outline6P,-0.500000X0.500000X0.250000X0.500000X0.500000X0.250000X0.500000X-0.250000X0.250000X-0.500000X-0.500000X-0.500000X0.000000*%
%TD*%
%TA.AperFunction,SMDPad,CuDef*%
%ADD12RoundRect,0.225000X-0.225000X-0.250000X0.225000X-0.250000X0.225000X0.250000X-0.225000X0.250000X0*%
%TD*%
%TA.AperFunction,WasherPad*%
%ADD13C,1.300000*%
%TD*%
%TA.AperFunction,SMDPad,CuDef*%
%ADD14FreePoly0,180.000000*%
%TD*%
%TA.AperFunction,SMDPad,CuDef*%
%ADD15FreePoly1,180.000000*%
%TD*%
%TA.AperFunction,SMDPad,CuDef*%
%ADD16FreePoly2,180.000000*%
%TD*%
%TA.AperFunction,SMDPad,CuDef*%
%ADD17FreePoly3,180.000000*%
%TD*%
%TA.AperFunction,SMDPad,CuDef*%
%ADD18RotRect,0.480000X0.480000X225.000000*%
%TD*%
%TA.AperFunction,SMDPad,CuDef*%
%ADD19RoundRect,0.225000X-0.250000X0.225000X-0.250000X-0.225000X0.250000X-0.225000X0.250000X0.225000X0*%
%TD*%
%TA.AperFunction,SMDPad,CuDef*%
%ADD20RoundRect,0.062500X-0.062500X0.337500X-0.062500X-0.337500X0.062500X-0.337500X0.062500X0.337500X0*%
%TD*%
%TA.AperFunction,SMDPad,CuDef*%
%ADD21RoundRect,0.062500X-0.337500X0.062500X-0.337500X-0.062500X0.337500X-0.062500X0.337500X0.062500X0*%
%TD*%
%TA.AperFunction,SMDPad,CuDef*%
%ADD22R,5.300000X5.300000*%
%TD*%
%TA.AperFunction,ConnectorPad*%
%ADD23R,0.500000X0.500000*%
%TD*%
%TA.AperFunction,ComponentPad*%
%ADD24R,0.900000X0.500000*%
%TD*%
%TA.AperFunction,SMDPad,CuDef*%
%ADD25RoundRect,0.200000X0.200000X0.275000X-0.200000X0.275000X-0.200000X-0.275000X0.200000X-0.275000X0*%
%TD*%
%TA.AperFunction,SMDPad,CuDef*%
%ADD26R,0.600000X0.600000*%
%TD*%
%TA.AperFunction,SMDPad,CuDef*%
%ADD27R,0.800000X1.000000*%
%TD*%
%TA.AperFunction,ComponentPad*%
%ADD28R,1.700000X1.700000*%
%TD*%
%TA.AperFunction,ComponentPad*%
%ADD29O,1.700000X1.700000*%
%TD*%
%TA.AperFunction,ViaPad*%
%ADD30C,0.400000*%
%TD*%
%TA.AperFunction,ViaPad*%
%ADD31C,0.800000*%
%TD*%
%TA.AperFunction,Conductor*%
%ADD32C,0.200000*%
%TD*%
%TA.AperFunction,Conductor*%
%ADD33C,0.250000*%
%TD*%
%TA.AperFunction,Conductor*%
%ADD34C,0.500000*%
%TD*%
%TA.AperFunction,Conductor*%
%ADD35C,0.350000*%
%TD*%
G04 APERTURE END LIST*
%TO.C,AE1*%
G36*
X117700000Y-95875000D02*
G01*
X117700000Y-95616842D01*
X118001778Y-95616842D01*
X118008309Y-95666368D01*
X118028868Y-95711553D01*
X118062511Y-95746787D01*
X118081122Y-95757400D01*
X118126637Y-95770300D01*
X118175156Y-95771043D01*
X118217819Y-95758935D01*
X118225731Y-95754581D01*
X118263674Y-95721797D01*
X118287742Y-95679395D01*
X118297583Y-95631785D01*
X118292847Y-95583378D01*
X118273185Y-95538584D01*
X118238245Y-95501814D01*
X118205353Y-95484908D01*
X118157267Y-95477018D01*
X118107682Y-95483592D01*
X118062372Y-95503687D01*
X118027112Y-95536357D01*
X118010218Y-95568583D01*
X118001778Y-95616842D01*
X117700000Y-95616842D01*
X117700000Y-90975000D01*
X116300000Y-90975000D01*
X116300000Y-95875000D01*
X115800000Y-95875000D01*
X115800000Y-90975000D01*
X114100000Y-90975000D01*
X114100000Y-93615000D01*
X111100000Y-93615000D01*
X111100000Y-90975000D01*
X109400000Y-90975000D01*
X109400000Y-93615000D01*
X106400000Y-93615000D01*
X106400000Y-90975000D01*
X104700000Y-90975000D01*
X104700000Y-94915000D01*
X104200000Y-94915000D01*
X104200000Y-90475000D01*
X106900000Y-90475000D01*
X106900000Y-93115000D01*
X108900000Y-93115000D01*
X108900000Y-90475000D01*
X111600000Y-90475000D01*
X111600000Y-93115000D01*
X113600000Y-93115000D01*
X113600000Y-90475000D01*
X118600000Y-90475000D01*
X118600000Y-95875000D01*
X117700000Y-95875000D01*
G37*
%TD*%
D10*
%TO.P,J5,1,Pin_1*%
%TO.N,/IO5*%
X118500000Y-107780000D03*
%TD*%
%TO.P,J10,1,Pin_1*%
%TO.N,/IO21*%
X118500000Y-101180000D03*
%TD*%
%TO.P,J7,1,Pin_1*%
%TO.N,/IO10*%
X118500000Y-109230000D03*
%TD*%
D11*
%TO.P,J18,1,Pin_1*%
%TO.N,/IO34*%
X104500000Y-102870000D03*
%TD*%
D10*
%TO.P,J9,1,Pin_1*%
%TO.N,/IO19*%
X118500000Y-103720000D03*
%TD*%
D12*
%TO.P,C2,1*%
%TO.N,/EN*%
X107725000Y-96500000D03*
%TO.P,C2,2*%
%TO.N,GND*%
X109275000Y-96500000D03*
%TD*%
D10*
%TO.P,J6,1,Pin_1*%
%TO.N,/IO9*%
X118500000Y-110500000D03*
%TD*%
%TO.P,J12,1,Pin_1*%
%TO.N,/IO23*%
X118500000Y-104990000D03*
%TD*%
D11*
%TO.P,J19,1,Pin_1*%
%TO.N,/IO35*%
X104500000Y-100330000D03*
%TD*%
D12*
%TO.P,C1,1*%
%TO.N,GND*%
X108725000Y-108300000D03*
%TO.P,C1,2*%
%TO.N,Net-(C1-Pad2)*%
X110275000Y-108300000D03*
%TD*%
D13*
%TO.P,REF\u002A\u002A,*%
%TO.N,*%
X106000000Y-94800000D03*
%TD*%
D14*
%TO.P,U1,1,VOUT*%
%TO.N,+3V3*%
X112340000Y-108825000D03*
D15*
%TO.P,U1,2,GND*%
%TO.N,GND*%
X112340000Y-108175000D03*
D16*
%TO.P,U1,3,EN*%
%TO.N,Net-(C1-Pad2)*%
X111260000Y-108175000D03*
D17*
%TO.P,U1,4,Vin*%
X111260000Y-108825000D03*
D18*
%TO.P,U1,5,EP*%
%TO.N,GND*%
X111800000Y-108500000D03*
%TD*%
D11*
%TO.P,J13,1,Pin_1*%
%TO.N,/IO25*%
X104500000Y-107950000D03*
%TD*%
D19*
%TO.P,C3,1*%
%TO.N,GND*%
X111000000Y-96225000D03*
%TO.P,C3,2*%
%TO.N,+3V3*%
X111000000Y-97775000D03*
%TD*%
D13*
%TO.P,,*%
%TO.N,*%
X122800000Y-91000000D03*
%TD*%
D19*
%TO.P,C4,1*%
%TO.N,GND*%
X112500000Y-96225000D03*
%TO.P,C4,2*%
%TO.N,+3V3*%
X112500000Y-97775000D03*
%TD*%
D11*
%TO.P,J15,1,Pin_1*%
%TO.N,/IO27*%
X104500000Y-110490000D03*
%TD*%
%TO.P,J17,1,Pin_1*%
%TO.N,/IO33*%
X104500000Y-106680000D03*
%TD*%
%TO.P,J14,1,Pin_1*%
%TO.N,/IO26*%
X104500000Y-109220000D03*
%TD*%
D10*
%TO.P,J8,1,Pin_1*%
%TO.N,/IO18*%
X118500000Y-106260000D03*
%TD*%
D20*
%TO.P,U2,1,VDDA*%
%TO.N,+3V3*%
X114250000Y-99550000D03*
%TO.P,U2,2,LNA_IN*%
%TO.N,Net-(AE1-Pad1)*%
X113750000Y-99550000D03*
%TO.P,U2,3,VDDA3P3*%
%TO.N,+3V3*%
X113250000Y-99550000D03*
%TO.P,U2,4,VDDA3P3*%
X112750000Y-99550000D03*
%TO.P,U2,5,SENSOR_VP*%
%TO.N,/SENS_VP*%
X112250000Y-99550000D03*
%TO.P,U2,6,SENSOR_CAPP*%
%TO.N,/CAPP*%
X111750000Y-99550000D03*
%TO.P,U2,7,SENSOR_CAPN*%
%TO.N,/CAPN*%
X111250000Y-99550000D03*
%TO.P,U2,8,SENSOR_VN*%
%TO.N,/SENS_VN*%
X110750000Y-99550000D03*
%TO.P,U2,9,EN*%
%TO.N,/EN*%
X110250000Y-99550000D03*
%TO.P,U2,10,IO34*%
%TO.N,/IO34*%
X109750000Y-99550000D03*
%TO.P,U2,11,IO35*%
%TO.N,/IO35*%
X109250000Y-99550000D03*
%TO.P,U2,12,IO32*%
%TO.N,/IO32*%
X108750000Y-99550000D03*
D21*
%TO.P,U2,13,IO33*%
%TO.N,/IO33*%
X108050000Y-100250000D03*
%TO.P,U2,14,IO25*%
%TO.N,/IO25*%
X108050000Y-100750000D03*
%TO.P,U2,15,IO26*%
%TO.N,/IO26*%
X108050000Y-101250000D03*
%TO.P,U2,16,IO27*%
%TO.N,/IO27*%
X108050000Y-101750000D03*
%TO.P,U2,17,IO14*%
%TO.N,unconnected-(U2-Pad17)*%
X108050000Y-102250000D03*
%TO.P,U2,18,IO12*%
%TO.N,unconnected-(U2-Pad18)*%
X108050000Y-102750000D03*
%TO.P,U2,19,VDD3P3_RTC*%
%TO.N,+3V3*%
X108050000Y-103250000D03*
%TO.P,U2,20,IO13*%
%TO.N,unconnected-(U2-Pad20)*%
X108050000Y-103750000D03*
%TO.P,U2,21,IO15*%
%TO.N,unconnected-(U2-Pad21)*%
X108050000Y-104250000D03*
%TO.P,U2,22,IO2*%
%TO.N,/IO2*%
X108050000Y-104750000D03*
%TO.P,U2,23,IO0*%
%TO.N,/IO0*%
X108050000Y-105250000D03*
%TO.P,U2,24,IO4*%
%TO.N,/IO4*%
X108050000Y-105750000D03*
D20*
%TO.P,U2,25,IO16*%
%TO.N,unconnected-(U2-Pad25)*%
X108750000Y-106450000D03*
%TO.P,U2,26,VDD_SDIO*%
%TO.N,unconnected-(U2-Pad26)*%
X109250000Y-106450000D03*
%TO.P,U2,27,IO17*%
%TO.N,unconnected-(U2-Pad27)*%
X109750000Y-106450000D03*
%TO.P,U2,28,SD2/IO9*%
%TO.N,/IO9*%
X110250000Y-106450000D03*
%TO.P,U2,29,SD3/IO10*%
%TO.N,/IO10*%
X110750000Y-106450000D03*
%TO.P,U2,30,CMD*%
%TO.N,unconnected-(U2-Pad30)*%
X111250000Y-106450000D03*
%TO.P,U2,31,CLK*%
%TO.N,unconnected-(U2-Pad31)*%
X111750000Y-106450000D03*
%TO.P,U2,32,SD0*%
%TO.N,unconnected-(U2-Pad32)*%
X112250000Y-106450000D03*
%TO.P,U2,33,SD1*%
%TO.N,unconnected-(U2-Pad33)*%
X112750000Y-106450000D03*
%TO.P,U2,34,IO5*%
%TO.N,/IO5*%
X113250000Y-106450000D03*
%TO.P,U2,35,IO18*%
%TO.N,/IO18*%
X113750000Y-106450000D03*
%TO.P,U2,36,IO23*%
%TO.N,/IO23*%
X114250000Y-106450000D03*
D21*
%TO.P,U2,37,VDD3P3_CPU*%
%TO.N,+3V3*%
X114950000Y-105750000D03*
%TO.P,U2,38,IO19*%
%TO.N,/IO19*%
X114950000Y-105250000D03*
%TO.P,U2,39,IO22*%
%TO.N,/IO22*%
X114950000Y-104750000D03*
%TO.P,U2,40,U0RXD/IO3*%
%TO.N,/IO3*%
X114950000Y-104250000D03*
%TO.P,U2,41,U0TXD/IO1*%
%TO.N,/IO1*%
X114950000Y-103750000D03*
%TO.P,U2,42,IO21*%
%TO.N,/IO21*%
X114950000Y-103250000D03*
%TO.P,U2,43,VDDA*%
%TO.N,+3V3*%
X114950000Y-102750000D03*
%TO.P,U2,44,XTAL_N_NC*%
%TO.N,unconnected-(U2-Pad44)*%
X114950000Y-102250000D03*
%TO.P,U2,45,XTAL_P_NC*%
%TO.N,unconnected-(U2-Pad45)*%
X114950000Y-101750000D03*
%TO.P,U2,46,VDDA*%
%TO.N,+3V3*%
X114950000Y-101250000D03*
%TO.P,U2,47,CAP2_NC*%
%TO.N,unconnected-(U2-Pad47)*%
X114950000Y-100750000D03*
%TO.P,U2,48,CAP1_NC*%
%TO.N,unconnected-(U2-Pad48)*%
X114950000Y-100250000D03*
D22*
%TO.P,U2,49,GND*%
%TO.N,GND*%
X111500000Y-103000000D03*
%TD*%
D23*
%TO.P,AE1,1,A*%
%TO.N,Net-(AE1-Pad1)*%
X116050000Y-95625000D03*
D24*
%TO.P,AE1,2,Shield*%
%TO.N,GND*%
X118150000Y-95625000D03*
%TD*%
D11*
%TO.P,J3,1,Pin_1*%
%TO.N,/CAPN*%
X104500000Y-105410000D03*
%TD*%
%TO.P,J4,1,Pin_1*%
%TO.N,/SENS_VN*%
X104500000Y-104140000D03*
%TD*%
D10*
%TO.P,J11,1,Pin_1*%
%TO.N,/IO22*%
X118500000Y-102450000D03*
%TD*%
D25*
%TO.P,R1,1*%
%TO.N,+3V3*%
X109325000Y-98000000D03*
%TO.P,R1,2*%
%TO.N,/EN*%
X107675000Y-98000000D03*
%TD*%
D13*
%TO.P,,*%
%TO.N,*%
X121400000Y-113600000D03*
%TD*%
D26*
%TO.P,SW1,1,1*%
%TO.N,GND*%
X118456000Y-111984000D03*
X118456000Y-114584000D03*
%TO.P,SW1,2,2*%
%TO.N,/EN*%
X117256000Y-114584000D03*
X117256000Y-111984000D03*
%TD*%
%TO.P,SW2,1,1*%
%TO.N,GND*%
X104556000Y-111984000D03*
X104556000Y-114584000D03*
%TO.P,SW2,2,2*%
%TO.N,/IO0*%
X105756000Y-114584000D03*
X105756000Y-111984000D03*
%TD*%
D11*
%TO.P,J1,1,Pin_1*%
%TO.N,/SENS_VP*%
X104500000Y-97790000D03*
%TD*%
%TO.P,J16,1,Pin_1*%
%TO.N,/IO32*%
X104500000Y-101600000D03*
%TD*%
D27*
%TO.P,D1,1,DOUT*%
%TO.N,unconnected-(D1-Pad1)*%
X117550000Y-98590000D03*
%TO.P,D1,2,VSS*%
%TO.N,GND*%
X116450000Y-98590000D03*
%TO.P,D1,3,DIN*%
%TO.N,/IO2*%
X116450000Y-100090000D03*
%TO.P,D1,4,VDD*%
%TO.N,+3V3*%
X117550000Y-100090000D03*
%TD*%
D11*
%TO.P,J2,1,Pin_1*%
%TO.N,/CAPP*%
X104500000Y-99060000D03*
%TD*%
D28*
%TO.P,J20,1,Pin_1*%
%TO.N,GND*%
X107500000Y-110725000D03*
D29*
%TO.P,J20,2,Pin_2*%
%TO.N,/IO1*%
X107500000Y-113265000D03*
%TO.P,J20,3,Pin_3*%
%TO.N,/IO2*%
X110040000Y-110725000D03*
%TO.P,J20,4,Pin_4*%
%TO.N,/IO4*%
X110040000Y-113265000D03*
%TO.P,J20,5,Pin_5*%
%TO.N,/IO0*%
X112580000Y-110725000D03*
%TO.P,J20,6,Pin_6*%
%TO.N,/EN*%
X112580000Y-113265000D03*
%TO.P,J20,7,Pin_7*%
%TO.N,/IO3*%
X115120000Y-110725000D03*
%TO.P,J20,8,Pin_8*%
%TO.N,VIN*%
X115120000Y-113265000D03*
%TD*%
D30*
%TO.N,/IO2*%
X115544600Y-99644200D03*
%TO.N,GND*%
X117350000Y-96150000D03*
X112889765Y-108410228D03*
X116130000Y-97680000D03*
X105500000Y-99300000D03*
X109100000Y-109150000D03*
X113900000Y-97100000D03*
X104550000Y-96200000D03*
X113550000Y-96200000D03*
X114850000Y-98150000D03*
X108580000Y-107330000D03*
X118500000Y-98500000D03*
X116530000Y-97200000D03*
X116750000Y-96050000D03*
X111500000Y-103000000D03*
X106650000Y-98200000D03*
X114200000Y-108900000D03*
X108508800Y-97256600D03*
X116500000Y-111100000D03*
X104500000Y-113750000D03*
X110500000Y-102000000D03*
X108740000Y-113670000D03*
X118450000Y-97825000D03*
X118500000Y-100000000D03*
X115350000Y-96050000D03*
X116750000Y-96600000D03*
X115150000Y-96600000D03*
X109900000Y-107400000D03*
X112500000Y-102000000D03*
X112500000Y-104000000D03*
X118450000Y-96250000D03*
X111750000Y-96200000D03*
X118500000Y-99250000D03*
X114503200Y-96800000D03*
X114400000Y-96200000D03*
X113374500Y-97587566D03*
X110150000Y-96200000D03*
X118500000Y-112750000D03*
X104500000Y-112750000D03*
X113621581Y-109899011D03*
X118425000Y-97000000D03*
X110500000Y-104000000D03*
X118500000Y-113750000D03*
X115450000Y-98050000D03*
X114450000Y-98700000D03*
%TO.N,/EN*%
X107725000Y-97227600D03*
X110162095Y-98373291D03*
%TO.N,+3V3*%
X110124000Y-97775000D03*
X114750000Y-99500000D03*
X113400000Y-108900000D03*
X116396800Y-101896800D03*
X115750000Y-101250000D03*
X107100000Y-104400000D03*
X117495701Y-105195701D03*
%TO.N,/IO1*%
X116464297Y-103214297D03*
%TO.N,/IO2*%
X107069740Y-108169740D03*
%TO.N,/IO4*%
X107542579Y-109142578D03*
%TO.N,/IO3*%
X117211935Y-103241894D03*
D31*
%TO.N,Net-(C1-Pad2)*%
X116700000Y-110200000D03*
D30*
%TO.N,/SENS_VN*%
X110808929Y-98625870D03*
%TO.N,/SENS_VP*%
X112700500Y-98625000D03*
%TO.N,/CAPP*%
X112057502Y-98617052D03*
%TO.N,/CAPN*%
X111408098Y-98605879D03*
%TO.N,/IO34*%
X109668798Y-98858724D03*
%TD*%
D32*
%TO.N,/IO2*%
X116004200Y-99644200D02*
X115544600Y-99644200D01*
X116450000Y-100090000D02*
X116004200Y-99644200D01*
%TO.N,GND*%
X112340000Y-108175000D02*
X112654537Y-108175000D01*
D33*
X118700000Y-95900000D02*
X118425000Y-95625000D01*
X118425000Y-95625000D02*
X118150000Y-95625000D01*
X118150000Y-95625000D02*
X118347200Y-95427800D01*
X118150000Y-95625000D02*
X117975000Y-95625000D01*
X118700000Y-96000000D02*
X118700000Y-95900000D01*
X117500000Y-95900000D02*
X117600000Y-96000000D01*
D32*
X111800000Y-108500000D02*
X112125000Y-108175000D01*
D33*
X118150000Y-95625000D02*
X118150000Y-95650000D01*
D32*
X112654537Y-108175000D02*
X112889765Y-108410228D01*
X116550000Y-98590000D02*
X116550000Y-98370000D01*
D33*
X117600000Y-96000000D02*
X118700000Y-96000000D01*
D32*
X108725000Y-108300000D02*
X108725000Y-108775000D01*
D33*
X117500000Y-95800000D02*
X117500000Y-95900000D01*
X118150000Y-95625000D02*
X118375000Y-95625000D01*
X118150000Y-95625000D02*
X117675000Y-95625000D01*
D32*
X108725000Y-108775000D02*
X109100000Y-109150000D01*
D33*
X117500000Y-95800000D02*
X117975000Y-95800000D01*
D32*
X116550000Y-98590000D02*
X116550000Y-98440000D01*
D33*
X117975000Y-95800000D02*
X118150000Y-95625000D01*
X117675000Y-95625000D02*
X117500000Y-95800000D01*
D32*
X112125000Y-108175000D02*
X112340000Y-108175000D01*
D33*
%TO.N,Net-(AE1-Pad1)*%
X114985800Y-97409000D02*
X115011948Y-97409000D01*
D34*
X116050000Y-96374625D02*
X116050000Y-95625000D01*
X113750000Y-98627249D02*
X113750000Y-98918822D01*
D33*
X114096800Y-97790000D02*
X114118589Y-97768211D01*
D35*
X113750000Y-99550000D02*
X113750000Y-98918822D01*
D34*
X115747800Y-97104200D02*
G75*
G02*
X115011948Y-97409000I-735848J735842D01*
G01*
X116049999Y-96374625D02*
G75*
G02*
X115747799Y-97104199I-1031767J-3D01*
G01*
X114985800Y-97409000D02*
G75*
G03*
X114118589Y-97768211I-1J-1226418D01*
G01*
X114096800Y-97790000D02*
G75*
G03*
X113750000Y-98627249I837188J-837224D01*
G01*
D32*
%TO.N,/EN*%
X110250000Y-98461196D02*
X110162095Y-98373291D01*
X113821000Y-111984000D02*
X112540000Y-113265000D01*
X110250000Y-99550000D02*
X110250000Y-98461196D01*
X107725000Y-96500000D02*
X107725000Y-97950000D01*
X117256000Y-111984000D02*
X113821000Y-111984000D01*
X117256000Y-114584000D02*
X117256000Y-111984000D01*
X110250000Y-99550000D02*
X110250000Y-98665365D01*
X107725000Y-97950000D02*
X107675000Y-98000000D01*
%TO.N,+3V3*%
X116396800Y-101303200D02*
X116450000Y-101250000D01*
X113200011Y-98385234D02*
X112589777Y-97775000D01*
X114250000Y-99550000D02*
X114700000Y-99550000D01*
X114950000Y-102750000D02*
X115543600Y-102750000D01*
X112750000Y-99550000D02*
X113250000Y-99550000D01*
X108050000Y-103250000D02*
X107630954Y-103250000D01*
X117299511Y-100829609D02*
X116879120Y-101250000D01*
X114950000Y-105750000D02*
X116941402Y-105750000D01*
X116941402Y-105750000D02*
X117495701Y-105195701D01*
X117700000Y-100090000D02*
X117299511Y-100490489D01*
X114700000Y-99550000D02*
X114750000Y-99500000D01*
X112450000Y-108935000D02*
X112340000Y-108825000D01*
X115543600Y-102750000D02*
X116396800Y-101896800D01*
X112500000Y-97775000D02*
X111000000Y-97775000D01*
X113200011Y-99500011D02*
X113200011Y-98385234D01*
X113250000Y-99550000D02*
X113200011Y-99500011D01*
X114950000Y-101250000D02*
X115750000Y-101250000D01*
X107630954Y-103250000D02*
X107100000Y-103780954D01*
X116450000Y-101250000D02*
X115750000Y-101250000D01*
X107100000Y-103780954D02*
X107100000Y-104400000D01*
X110124000Y-97775000D02*
X109550000Y-97775000D01*
X112589777Y-97775000D02*
X112500000Y-97775000D01*
X116396800Y-101896800D02*
X116396800Y-101303200D01*
X109550000Y-97775000D02*
X109325000Y-98000000D01*
X113365000Y-108935000D02*
X112450000Y-108935000D01*
X113400000Y-108900000D02*
X113365000Y-108935000D01*
X117299511Y-100490489D02*
X117299511Y-100829609D01*
X116879120Y-101250000D02*
X116450000Y-101250000D01*
X111000000Y-97775000D02*
X110124000Y-97775000D01*
%TO.N,/IO1*%
X116252491Y-103750000D02*
X114950000Y-103750000D01*
X116464297Y-103538194D02*
X116252491Y-103750000D01*
X116464297Y-103214297D02*
X116464297Y-103538194D01*
%TO.N,/IO2*%
X107565948Y-104750000D02*
X108050000Y-104750000D01*
X106950961Y-105364987D02*
X107565948Y-104750000D01*
X106950961Y-108050961D02*
X106950961Y-105364987D01*
X107069740Y-108169740D02*
X106950961Y-108050961D01*
%TO.N,/IO4*%
X107968771Y-105831229D02*
X108050000Y-105750000D01*
X107968771Y-108716386D02*
X107968771Y-105831229D01*
X107542579Y-109142578D02*
X107968771Y-108716386D01*
%TO.N,/IO0*%
X106184000Y-109794757D02*
X106184000Y-111984000D01*
X112540000Y-110725000D02*
X111281000Y-111984000D01*
X107569251Y-108409506D02*
X106184000Y-109794757D01*
X106184000Y-111984000D02*
X105756000Y-111984000D01*
X107350481Y-105530473D02*
X107350481Y-107711204D01*
X111281000Y-111984000D02*
X106184000Y-111984000D01*
X105756000Y-114584000D02*
X105756000Y-111984000D01*
X107630954Y-105250000D02*
X107350481Y-105530473D01*
X107350481Y-107711204D02*
X107569251Y-107929974D01*
X107569251Y-107929974D02*
X107569251Y-108409506D01*
X108050000Y-105250000D02*
X107630954Y-105250000D01*
%TO.N,/IO3*%
X117211935Y-103241894D02*
X117211935Y-103355562D01*
X116317497Y-104250000D02*
X114950000Y-104250000D01*
X117211935Y-103355562D02*
X116317497Y-104250000D01*
%TO.N,Net-(C1-Pad2)*%
X111260000Y-108825000D02*
X111161069Y-108726069D01*
X111174511Y-109399511D02*
X110275000Y-108500000D01*
X111135000Y-108300000D02*
X111260000Y-108175000D01*
X115899511Y-109399511D02*
X111174511Y-109399511D01*
X110275000Y-108500000D02*
X110275000Y-108300000D01*
X116700000Y-110200000D02*
X115899511Y-109399511D01*
X111161069Y-108726069D02*
X111161069Y-108375935D01*
X110275000Y-108300000D02*
X111135000Y-108300000D01*
%TO.N,/SENS_VN*%
X110808929Y-98625870D02*
X110808929Y-98897645D01*
X110808929Y-98897645D02*
X110750000Y-98956574D01*
X110750000Y-98956574D02*
X110750000Y-99550000D01*
%TO.N,/SENS_VP*%
X112700500Y-98625000D02*
X112700500Y-98680454D01*
X112700500Y-98680454D02*
X112250000Y-99130954D01*
X112250000Y-99130954D02*
X112250000Y-99550000D01*
%TO.N,/CAPP*%
X111750000Y-99065948D02*
X111750000Y-99550000D01*
X112057502Y-98758446D02*
X111750000Y-99065948D01*
X112057502Y-98617052D02*
X112057502Y-98758446D01*
%TO.N,/CAPN*%
X111408098Y-98772132D02*
X111250000Y-98930230D01*
X111408098Y-98605879D02*
X111408098Y-98772132D01*
X111250000Y-98930230D02*
X111250000Y-99550000D01*
%TO.N,/IO5*%
X113250000Y-106934052D02*
X113864988Y-107549040D01*
X114635013Y-107549039D02*
X114935012Y-107249040D01*
X113250000Y-106450000D02*
X113250000Y-106934052D01*
X117969040Y-107249040D02*
X118500000Y-107780000D01*
X113864988Y-107549040D02*
X114635013Y-107549039D01*
X114935012Y-107249040D02*
X117969040Y-107249040D01*
%TO.N,/IO9*%
X113534017Y-108348080D02*
X117053074Y-108348080D01*
X117700480Y-109700480D02*
X118500000Y-110500000D01*
X110250000Y-106934052D02*
X110864988Y-107549040D01*
X112734977Y-107549040D02*
X113534017Y-108348080D01*
X117700480Y-108995486D02*
X117700480Y-109700480D01*
X110864988Y-107549040D02*
X112734977Y-107549040D01*
X117053074Y-108348080D02*
X117700480Y-108995486D01*
X110250000Y-106450000D02*
X110250000Y-106934052D01*
%TO.N,/IO10*%
X116918560Y-107648560D02*
X118500000Y-109230000D01*
X110750000Y-106869046D02*
X111030474Y-107149520D01*
X115100498Y-107648560D02*
X116918560Y-107648560D01*
X113699502Y-107948560D02*
X114800500Y-107948558D01*
X112900462Y-107149520D02*
X113699502Y-107948560D01*
X114800500Y-107948558D02*
X115100498Y-107648560D01*
X110750000Y-106450000D02*
X110750000Y-106869046D01*
X111030474Y-107149520D02*
X112900462Y-107149520D01*
%TO.N,/IO18*%
X113750000Y-106869046D02*
X114030474Y-107149520D01*
X114469526Y-107149520D02*
X114769526Y-106849520D01*
X114030474Y-107149520D02*
X114469526Y-107149520D01*
X117910480Y-106849520D02*
X118500000Y-106260000D01*
X114769526Y-106849520D02*
X117910480Y-106849520D01*
X113750000Y-106450000D02*
X113750000Y-106869046D01*
%TO.N,/IO19*%
X116735000Y-105250000D02*
X118265000Y-103720000D01*
X114950000Y-105250000D02*
X116735000Y-105250000D01*
X118265000Y-103720000D02*
X118500000Y-103720000D01*
%TO.N,/IO21*%
X115964786Y-103035214D02*
X115750000Y-103250000D01*
X117820000Y-101180000D02*
X116285214Y-102714786D01*
X115964786Y-102974531D02*
X115964786Y-103035214D01*
X116224531Y-102714786D02*
X115964786Y-102974531D01*
X115750000Y-103250000D02*
X114950000Y-103250000D01*
X116285214Y-102714786D02*
X116224531Y-102714786D01*
X118500000Y-101180000D02*
X117820000Y-101180000D01*
%TO.N,/IO22*%
X117700480Y-103345934D02*
X118500000Y-102546414D01*
X117700480Y-103549520D02*
X117700480Y-103345934D01*
X118500000Y-102546414D02*
X118500000Y-102450000D01*
X114950000Y-104750000D02*
X116500000Y-104750000D01*
X116500000Y-104750000D02*
X117700480Y-103549520D01*
%TO.N,/IO23*%
X117040000Y-106450000D02*
X118500000Y-104990000D01*
X114250000Y-106450000D02*
X117040000Y-106450000D01*
%TO.N,/IO25*%
X105752402Y-102498540D02*
X107500942Y-100750000D01*
X107500942Y-100750000D02*
X108050000Y-100750000D01*
X104500000Y-107950000D02*
X105550000Y-107950000D01*
X105752401Y-107747599D02*
X105752402Y-102498540D01*
X105550000Y-107950000D02*
X105752401Y-107747599D01*
%TO.N,/IO26*%
X107565948Y-101250000D02*
X106151921Y-102664027D01*
X105595868Y-109220000D02*
X106151921Y-108663947D01*
X104500000Y-109220000D02*
X105595868Y-109220000D01*
X106151921Y-108663947D02*
X106151921Y-107543796D01*
X106151921Y-102664027D02*
X106151921Y-107500000D01*
X108050000Y-101250000D02*
X107565948Y-101250000D01*
%TO.N,/IO27*%
X108050000Y-101750000D02*
X107630954Y-101750000D01*
X106551441Y-102829513D02*
X106551441Y-108829433D01*
X106551441Y-108829433D02*
X104890874Y-110490000D01*
X104890874Y-110490000D02*
X104500000Y-110490000D01*
X107630954Y-101750000D02*
X106551441Y-102829513D01*
%TO.N,/IO32*%
X107550000Y-99550000D02*
X105500000Y-101600000D01*
X105500000Y-101600000D02*
X104500000Y-101600000D01*
X108750000Y-99550000D02*
X107550000Y-99550000D01*
%TO.N,/IO33*%
X107435936Y-100250000D02*
X108050000Y-100250000D01*
X104500000Y-106680000D02*
X105352883Y-105827117D01*
X105352883Y-105827117D02*
X105352883Y-102333053D01*
X105352883Y-102333053D02*
X107435936Y-100250000D01*
%TO.N,/IO34*%
X109750000Y-98939926D02*
X109668798Y-98858724D01*
X109750000Y-99550000D02*
X109750000Y-98939926D01*
%TO.N,/IO35*%
X108969526Y-98850480D02*
X107684514Y-98850480D01*
X106204994Y-100330000D02*
X104500000Y-100330000D01*
X109250000Y-99550000D02*
X109250000Y-99130954D01*
X107684514Y-98850480D02*
X106204994Y-100330000D01*
X109250000Y-99130954D02*
X108969526Y-98850480D01*
%TD*%
%TA.AperFunction,Conductor*%
%TO.N,GND*%
G36*
X105829445Y-110073143D02*
G01*
X105872710Y-110116408D01*
X105883500Y-110161353D01*
X105883500Y-111384500D01*
X105864593Y-111442691D01*
X105815093Y-111478655D01*
X105784500Y-111483500D01*
X105436252Y-111483500D01*
X105412488Y-111488227D01*
X105387334Y-111493230D01*
X105387332Y-111493231D01*
X105377769Y-111495133D01*
X105311448Y-111539448D01*
X105267133Y-111605769D01*
X105265231Y-111615332D01*
X105265230Y-111615334D01*
X105261312Y-111635034D01*
X105255500Y-111664252D01*
X105255500Y-112303748D01*
X105256448Y-112308512D01*
X105264302Y-112347997D01*
X105267133Y-112362231D01*
X105311448Y-112428552D01*
X105377769Y-112472867D01*
X105387333Y-112474769D01*
X105394386Y-112477691D01*
X105440912Y-112517428D01*
X105455500Y-112569155D01*
X105455500Y-113998845D01*
X105436593Y-114057036D01*
X105394386Y-114090309D01*
X105387333Y-114093231D01*
X105377769Y-114095133D01*
X105311448Y-114139448D01*
X105267133Y-114205769D01*
X105255500Y-114264252D01*
X105255500Y-114701000D01*
X105236593Y-114759191D01*
X105187093Y-114795155D01*
X105156500Y-114800000D01*
X104299000Y-114800000D01*
X104240809Y-114781093D01*
X104204845Y-114731593D01*
X104200000Y-114701000D01*
X104200000Y-111289500D01*
X104218907Y-111231309D01*
X104268407Y-111195345D01*
X104298999Y-111190500D01*
X104742967Y-111190501D01*
X104769841Y-111190501D01*
X104774644Y-111189538D01*
X104774647Y-111189538D01*
X104819015Y-111180645D01*
X104819018Y-111180644D01*
X104828561Y-111178731D01*
X104877745Y-111145805D01*
X105155804Y-110867746D01*
X105189003Y-110817901D01*
X105200500Y-110759838D01*
X105200500Y-110646353D01*
X105219407Y-110588162D01*
X105229496Y-110576349D01*
X105714496Y-110091349D01*
X105769013Y-110063572D01*
X105829445Y-110073143D01*
G37*
%TD.AperFunction*%
%TA.AperFunction,Conductor*%
G36*
X116945787Y-108667487D02*
G01*
X116957600Y-108677577D01*
X117370984Y-109090962D01*
X117398761Y-109145478D01*
X117399980Y-109160965D01*
X117399980Y-109646972D01*
X117399677Y-109651097D01*
X117398055Y-109655822D01*
X117398398Y-109664956D01*
X117399910Y-109705241D01*
X117399980Y-109708954D01*
X117399980Y-109728428D01*
X117400805Y-109732858D01*
X117401141Y-109738051D01*
X117402254Y-109767688D01*
X117405860Y-109776082D01*
X117405861Y-109776085D01*
X117406797Y-109778263D01*
X117413163Y-109799214D01*
X117415271Y-109810533D01*
X117429248Y-109833208D01*
X117435931Y-109846075D01*
X117446444Y-109870543D01*
X117450458Y-109875429D01*
X117454822Y-109879793D01*
X117469093Y-109897848D01*
X117474012Y-109905828D01*
X117497249Y-109923498D01*
X117507319Y-109932290D01*
X117770504Y-110195475D01*
X117798281Y-110249992D01*
X117799500Y-110265478D01*
X117799499Y-110769841D01*
X117800462Y-110774644D01*
X117800462Y-110774647D01*
X117809355Y-110819015D01*
X117809356Y-110819018D01*
X117811269Y-110828561D01*
X117844195Y-110877745D01*
X118122254Y-111155804D01*
X118126329Y-111158518D01*
X118126330Y-111158519D01*
X118156677Y-111178731D01*
X118172099Y-111189003D01*
X118230162Y-111200500D01*
X118701000Y-111200500D01*
X118759191Y-111219407D01*
X118795155Y-111268907D01*
X118800000Y-111299500D01*
X118800000Y-111466040D01*
X118797482Y-111488227D01*
X118794857Y-111499642D01*
X118796199Y-111505572D01*
X118797309Y-111515423D01*
X118797309Y-111515431D01*
X118809343Y-111622226D01*
X118813233Y-111656750D01*
X118847424Y-111754463D01*
X118857667Y-111783737D01*
X118859039Y-111844907D01*
X118824195Y-111895201D01*
X118811237Y-111903558D01*
X118782206Y-111919222D01*
X118702999Y-112004907D01*
X118655818Y-112111629D01*
X118645749Y-112227880D01*
X118647722Y-112235822D01*
X118647722Y-112235823D01*
X118670289Y-112326667D01*
X118673880Y-112341125D01*
X118678317Y-112347996D01*
X118678317Y-112347997D01*
X118730331Y-112428552D01*
X118737175Y-112439152D01*
X118737684Y-112439553D01*
X118761216Y-112491665D01*
X118748811Y-112551580D01*
X118735512Y-112569735D01*
X118702999Y-112604907D01*
X118655818Y-112711629D01*
X118655112Y-112719777D01*
X118655112Y-112719778D01*
X118647798Y-112804226D01*
X118645749Y-112827880D01*
X118647722Y-112835822D01*
X118647722Y-112835823D01*
X118652183Y-112853779D01*
X118673880Y-112941125D01*
X118678317Y-112947996D01*
X118678317Y-112947997D01*
X118708727Y-112995093D01*
X118737175Y-113039152D01*
X118737684Y-113039553D01*
X118761216Y-113091665D01*
X118748811Y-113151580D01*
X118735512Y-113169735D01*
X118702999Y-113204907D01*
X118655818Y-113311629D01*
X118655112Y-113319777D01*
X118655112Y-113319778D01*
X118646455Y-113419727D01*
X118645749Y-113427880D01*
X118673880Y-113541125D01*
X118678317Y-113547996D01*
X118678317Y-113547997D01*
X118708727Y-113595093D01*
X118737175Y-113639152D01*
X118737684Y-113639553D01*
X118761216Y-113691665D01*
X118748811Y-113751580D01*
X118735512Y-113769735D01*
X118702999Y-113804907D01*
X118655818Y-113911629D01*
X118655112Y-113919777D01*
X118655112Y-113919778D01*
X118648264Y-113998845D01*
X118645749Y-114027880D01*
X118647722Y-114035822D01*
X118647722Y-114035823D01*
X118652992Y-114057036D01*
X118673880Y-114141125D01*
X118678317Y-114147996D01*
X118678317Y-114147997D01*
X118708727Y-114195093D01*
X118737175Y-114239152D01*
X118828811Y-114311392D01*
X118836529Y-114314102D01*
X118836530Y-114314103D01*
X118933803Y-114348263D01*
X118982442Y-114385384D01*
X118999000Y-114438465D01*
X118999000Y-114447121D01*
X118981093Y-114502234D01*
X118971004Y-114514047D01*
X118949255Y-114535796D01*
X118865331Y-114669360D01*
X118863495Y-114674608D01*
X118842819Y-114733697D01*
X118805754Y-114782378D01*
X118749374Y-114800000D01*
X117855500Y-114800000D01*
X117797309Y-114781093D01*
X117761345Y-114731593D01*
X117756500Y-114701000D01*
X117756500Y-114264252D01*
X117744867Y-114205769D01*
X117700552Y-114139448D01*
X117634231Y-114095133D01*
X117624667Y-114093231D01*
X117617614Y-114090309D01*
X117571088Y-114050572D01*
X117556500Y-113998845D01*
X117556500Y-112569155D01*
X117575407Y-112510964D01*
X117617614Y-112477691D01*
X117624667Y-112474769D01*
X117634231Y-112472867D01*
X117700552Y-112428552D01*
X117744867Y-112362231D01*
X117747699Y-112347997D01*
X117755552Y-112308512D01*
X117756500Y-112303748D01*
X117756500Y-111664252D01*
X117750688Y-111635034D01*
X117746770Y-111615334D01*
X117746769Y-111615332D01*
X117744867Y-111605769D01*
X117700552Y-111539448D01*
X117634231Y-111495133D01*
X117624668Y-111493231D01*
X117624666Y-111493230D01*
X117599512Y-111488227D01*
X117575748Y-111483500D01*
X116936252Y-111483500D01*
X116912488Y-111488227D01*
X116887334Y-111493230D01*
X116887332Y-111493231D01*
X116877769Y-111495133D01*
X116811448Y-111539448D01*
X116767133Y-111605769D01*
X116765231Y-111615333D01*
X116762309Y-111622386D01*
X116722572Y-111668912D01*
X116670845Y-111683500D01*
X115887061Y-111683500D01*
X115828870Y-111664593D01*
X115792906Y-111615093D01*
X115792906Y-111553907D01*
X115826109Y-111506489D01*
X115847951Y-111489424D01*
X115852247Y-111484448D01*
X115938518Y-111384500D01*
X115982564Y-111333472D01*
X116001559Y-111300035D01*
X116081934Y-111158550D01*
X116081935Y-111158547D01*
X116084323Y-111154344D01*
X116086268Y-111148499D01*
X116147824Y-110963454D01*
X116147824Y-110963452D01*
X116149351Y-110958863D01*
X116159167Y-110881165D01*
X116174823Y-110757228D01*
X116175171Y-110754474D01*
X116175210Y-110751699D01*
X116175402Y-110748951D01*
X116176714Y-110749043D01*
X116194925Y-110695618D01*
X116244937Y-110660369D01*
X116306116Y-110661248D01*
X116334441Y-110676411D01*
X116397159Y-110724536D01*
X116543238Y-110785044D01*
X116700000Y-110805682D01*
X116856762Y-110785044D01*
X117002841Y-110724536D01*
X117128282Y-110628282D01*
X117224536Y-110502841D01*
X117285044Y-110356762D01*
X117305682Y-110200000D01*
X117285044Y-110043238D01*
X117224536Y-109897159D01*
X117128282Y-109771718D01*
X117002841Y-109675464D01*
X116856762Y-109614956D01*
X116700000Y-109594318D01*
X116588716Y-109608969D01*
X116528557Y-109597819D01*
X116505791Y-109580820D01*
X116149831Y-109224860D01*
X116147131Y-109221731D01*
X116144936Y-109217242D01*
X116108689Y-109183618D01*
X116106013Y-109181042D01*
X116092234Y-109167263D01*
X116088524Y-109164718D01*
X116084611Y-109161282D01*
X116069566Y-109147326D01*
X116062865Y-109141110D01*
X116052175Y-109136845D01*
X116032859Y-109126531D01*
X116030904Y-109125190D01*
X116030901Y-109125189D01*
X116023365Y-109120019D01*
X115997452Y-109113870D01*
X115983627Y-109109497D01*
X115965379Y-109102217D01*
X115965377Y-109102217D01*
X115958889Y-109099628D01*
X115952596Y-109099011D01*
X115946427Y-109099011D01*
X115923568Y-109096336D01*
X115923338Y-109096281D01*
X115923336Y-109096281D01*
X115914445Y-109094171D01*
X115885524Y-109098107D01*
X115872174Y-109099011D01*
X113889886Y-109099011D01*
X113831695Y-109080104D01*
X113795731Y-109030604D01*
X113792105Y-108984524D01*
X113804273Y-108907697D01*
X113805492Y-108900000D01*
X113789065Y-108796281D01*
X113786865Y-108782392D01*
X113786865Y-108782391D01*
X113785646Y-108774696D01*
X113785493Y-108774396D01*
X113785496Y-108716984D01*
X113821461Y-108667485D01*
X113879649Y-108648580D01*
X116887596Y-108648580D01*
X116945787Y-108667487D01*
G37*
%TD.AperFunction*%
%TA.AperFunction,Conductor*%
G36*
X114495324Y-109718918D02*
G01*
X114531288Y-109768418D01*
X114531288Y-109829604D01*
X114499167Y-109876166D01*
X114385220Y-109967781D01*
X114385217Y-109967783D01*
X114381447Y-109970815D01*
X114378333Y-109974526D01*
X114378332Y-109974527D01*
X114259280Y-110116408D01*
X114249024Y-110128630D01*
X114246689Y-110132878D01*
X114246688Y-110132879D01*
X114239955Y-110145126D01*
X114149776Y-110309162D01*
X114087484Y-110505532D01*
X114086944Y-110510344D01*
X114086944Y-110510345D01*
X114066163Y-110695618D01*
X114064520Y-110710262D01*
X114081759Y-110915553D01*
X114138544Y-111113586D01*
X114232712Y-111296818D01*
X114360677Y-111458270D01*
X114420414Y-111509110D01*
X114452472Y-111561220D01*
X114447778Y-111622226D01*
X114408123Y-111668821D01*
X114356248Y-111683500D01*
X113874514Y-111683500D01*
X113870385Y-111683197D01*
X113865658Y-111681574D01*
X113824266Y-111683128D01*
X113816223Y-111683430D01*
X113812509Y-111683500D01*
X113793052Y-111683500D01*
X113788622Y-111684325D01*
X113783436Y-111684661D01*
X113762925Y-111685431D01*
X113762924Y-111685431D01*
X113753792Y-111685774D01*
X113745398Y-111689380D01*
X113745395Y-111689381D01*
X113743217Y-111690317D01*
X113722266Y-111696683D01*
X113710947Y-111698791D01*
X113688269Y-111712770D01*
X113675410Y-111719450D01*
X113650938Y-111729964D01*
X113646051Y-111733977D01*
X113641685Y-111738343D01*
X113623629Y-111752615D01*
X113623432Y-111752736D01*
X113623431Y-111752737D01*
X113615652Y-111757532D01*
X113610120Y-111764807D01*
X113610119Y-111764808D01*
X113597993Y-111780755D01*
X113589193Y-111790835D01*
X113105488Y-112274540D01*
X113050971Y-112302317D01*
X112997115Y-112295798D01*
X112993316Y-112294201D01*
X112989055Y-112291897D01*
X112890655Y-112261437D01*
X112796875Y-112232407D01*
X112796871Y-112232406D01*
X112792254Y-112230977D01*
X112787446Y-112230472D01*
X112787443Y-112230471D01*
X112592185Y-112209949D01*
X112592183Y-112209949D01*
X112587369Y-112209443D01*
X112527354Y-112214905D01*
X112387022Y-112227675D01*
X112387017Y-112227676D01*
X112382203Y-112228114D01*
X112184572Y-112286280D01*
X112180288Y-112288519D01*
X112180287Y-112288520D01*
X112153896Y-112302317D01*
X112002002Y-112381726D01*
X111998231Y-112384758D01*
X111845220Y-112507781D01*
X111845217Y-112507783D01*
X111841447Y-112510815D01*
X111838333Y-112514526D01*
X111838332Y-112514527D01*
X111792494Y-112569155D01*
X111709024Y-112668630D01*
X111706689Y-112672878D01*
X111706688Y-112672879D01*
X111699955Y-112685126D01*
X111609776Y-112849162D01*
X111547484Y-113045532D01*
X111546944Y-113050344D01*
X111546944Y-113050345D01*
X111543531Y-113080778D01*
X111524520Y-113250262D01*
X111525526Y-113262244D01*
X111538751Y-113419727D01*
X111541759Y-113455553D01*
X111598544Y-113653586D01*
X111692712Y-113836818D01*
X111820677Y-113998270D01*
X111824357Y-114001402D01*
X111824359Y-114001404D01*
X111882132Y-114050572D01*
X111977564Y-114131791D01*
X111981787Y-114134151D01*
X111981791Y-114134154D01*
X112021342Y-114156258D01*
X112157398Y-114232297D01*
X112161996Y-114233791D01*
X112348724Y-114294463D01*
X112348726Y-114294464D01*
X112353329Y-114295959D01*
X112557894Y-114320351D01*
X112562716Y-114319980D01*
X112562719Y-114319980D01*
X112630541Y-114314761D01*
X112763300Y-114304546D01*
X112961725Y-114249145D01*
X112966038Y-114246966D01*
X112966044Y-114246964D01*
X113141289Y-114158441D01*
X113141291Y-114158440D01*
X113145610Y-114156258D01*
X113156746Y-114147558D01*
X113304135Y-114032406D01*
X113304139Y-114032402D01*
X113307951Y-114029424D01*
X113316322Y-114019727D01*
X113416086Y-113904147D01*
X113442564Y-113873472D01*
X113444957Y-113869260D01*
X113541934Y-113698550D01*
X113541935Y-113698547D01*
X113544323Y-113694344D01*
X113557882Y-113653586D01*
X113607824Y-113503454D01*
X113607824Y-113503452D01*
X113609351Y-113498863D01*
X113610677Y-113488371D01*
X113634823Y-113297228D01*
X113635171Y-113294474D01*
X113635583Y-113265000D01*
X113635313Y-113262244D01*
X113615952Y-113064780D01*
X113615951Y-113064776D01*
X113615480Y-113059970D01*
X113608214Y-113035902D01*
X113557333Y-112867380D01*
X113555935Y-112862749D01*
X113524818Y-112804225D01*
X113514194Y-112743971D01*
X113542226Y-112687745D01*
X113916475Y-112313496D01*
X113970992Y-112285719D01*
X113986479Y-112284500D01*
X114381800Y-112284500D01*
X114439991Y-112303407D01*
X114475955Y-112352907D01*
X114475955Y-112414093D01*
X114443833Y-112460655D01*
X114385225Y-112507777D01*
X114385223Y-112507779D01*
X114381447Y-112510815D01*
X114378333Y-112514526D01*
X114378332Y-112514527D01*
X114332494Y-112569155D01*
X114249024Y-112668630D01*
X114246689Y-112672878D01*
X114246688Y-112672879D01*
X114239955Y-112685126D01*
X114149776Y-112849162D01*
X114087484Y-113045532D01*
X114086944Y-113050344D01*
X114086944Y-113050345D01*
X114083531Y-113080778D01*
X114064520Y-113250262D01*
X114065526Y-113262244D01*
X114078751Y-113419727D01*
X114081759Y-113455553D01*
X114138544Y-113653586D01*
X114232712Y-113836818D01*
X114360677Y-113998270D01*
X114364357Y-114001402D01*
X114364359Y-114001404D01*
X114422132Y-114050572D01*
X114517564Y-114131791D01*
X114521787Y-114134151D01*
X114521791Y-114134154D01*
X114561342Y-114156258D01*
X114697398Y-114232297D01*
X114701996Y-114233791D01*
X114888724Y-114294463D01*
X114888726Y-114294464D01*
X114893329Y-114295959D01*
X115097894Y-114320351D01*
X115102716Y-114319980D01*
X115102719Y-114319980D01*
X115170541Y-114314761D01*
X115303300Y-114304546D01*
X115501725Y-114249145D01*
X115506038Y-114246966D01*
X115506044Y-114246964D01*
X115681289Y-114158441D01*
X115681291Y-114158440D01*
X115685610Y-114156258D01*
X115696746Y-114147558D01*
X115844135Y-114032406D01*
X115844139Y-114032402D01*
X115847951Y-114029424D01*
X115856322Y-114019727D01*
X115956086Y-113904147D01*
X115982564Y-113873472D01*
X115984957Y-113869260D01*
X116081934Y-113698550D01*
X116081935Y-113698547D01*
X116084323Y-113694344D01*
X116097882Y-113653586D01*
X116147824Y-113503454D01*
X116147824Y-113503452D01*
X116149351Y-113498863D01*
X116150677Y-113488371D01*
X116174823Y-113297228D01*
X116175171Y-113294474D01*
X116175583Y-113265000D01*
X116175313Y-113262244D01*
X116155952Y-113064780D01*
X116155951Y-113064776D01*
X116155480Y-113059970D01*
X116148214Y-113035902D01*
X116097333Y-112867380D01*
X116095935Y-112862749D01*
X115999218Y-112680849D01*
X115869011Y-112521200D01*
X115864452Y-112517428D01*
X115816418Y-112477691D01*
X115794768Y-112459781D01*
X115761983Y-112408120D01*
X115765825Y-112347056D01*
X115804826Y-112299912D01*
X115857873Y-112284500D01*
X116670845Y-112284500D01*
X116729036Y-112303407D01*
X116762309Y-112345614D01*
X116765230Y-112352666D01*
X116767133Y-112362231D01*
X116811448Y-112428552D01*
X116877769Y-112472867D01*
X116887333Y-112474769D01*
X116894386Y-112477691D01*
X116940912Y-112517428D01*
X116955500Y-112569155D01*
X116955500Y-113998845D01*
X116936593Y-114057036D01*
X116894386Y-114090309D01*
X116887333Y-114093231D01*
X116877769Y-114095133D01*
X116811448Y-114139448D01*
X116767133Y-114205769D01*
X116755500Y-114264252D01*
X116755500Y-114701000D01*
X116736593Y-114759191D01*
X116687093Y-114795155D01*
X116656500Y-114800000D01*
X106355500Y-114800000D01*
X106297309Y-114781093D01*
X106261345Y-114731593D01*
X106256500Y-114701000D01*
X106256500Y-114264252D01*
X106244867Y-114205769D01*
X106200552Y-114139448D01*
X106134231Y-114095133D01*
X106124667Y-114093231D01*
X106117614Y-114090309D01*
X106071088Y-114050572D01*
X106056500Y-113998845D01*
X106056500Y-112569155D01*
X106075407Y-112510964D01*
X106117614Y-112477691D01*
X106124667Y-112474769D01*
X106134231Y-112472867D01*
X106200552Y-112428552D01*
X106244867Y-112362231D01*
X106246770Y-112352666D01*
X106249691Y-112345614D01*
X106289428Y-112299088D01*
X106341155Y-112284500D01*
X106761800Y-112284500D01*
X106819991Y-112303407D01*
X106855955Y-112352907D01*
X106855955Y-112414093D01*
X106823833Y-112460655D01*
X106765225Y-112507777D01*
X106765223Y-112507779D01*
X106761447Y-112510815D01*
X106758333Y-112514526D01*
X106758332Y-112514527D01*
X106712494Y-112569155D01*
X106629024Y-112668630D01*
X106626689Y-112672878D01*
X106626688Y-112672879D01*
X106619955Y-112685126D01*
X106529776Y-112849162D01*
X106467484Y-113045532D01*
X106466944Y-113050344D01*
X106466944Y-113050345D01*
X106463531Y-113080778D01*
X106444520Y-113250262D01*
X106445526Y-113262244D01*
X106458751Y-113419727D01*
X106461759Y-113455553D01*
X106518544Y-113653586D01*
X106612712Y-113836818D01*
X106740677Y-113998270D01*
X106744357Y-114001402D01*
X106744359Y-114001404D01*
X106802132Y-114050572D01*
X106897564Y-114131791D01*
X106901787Y-114134151D01*
X106901791Y-114134154D01*
X106941342Y-114156258D01*
X107077398Y-114232297D01*
X107081996Y-114233791D01*
X107268724Y-114294463D01*
X107268726Y-114294464D01*
X107273329Y-114295959D01*
X107477894Y-114320351D01*
X107482716Y-114319980D01*
X107482719Y-114319980D01*
X107550541Y-114314761D01*
X107683300Y-114304546D01*
X107881725Y-114249145D01*
X107886038Y-114246966D01*
X107886044Y-114246964D01*
X108061289Y-114158441D01*
X108061291Y-114158440D01*
X108065610Y-114156258D01*
X108076746Y-114147558D01*
X108224135Y-114032406D01*
X108224139Y-114032402D01*
X108227951Y-114029424D01*
X108236322Y-114019727D01*
X108336086Y-113904147D01*
X108362564Y-113873472D01*
X108364957Y-113869260D01*
X108461934Y-113698550D01*
X108461935Y-113698547D01*
X108464323Y-113694344D01*
X108477882Y-113653586D01*
X108527824Y-113503454D01*
X108527824Y-113503452D01*
X108529351Y-113498863D01*
X108530677Y-113488371D01*
X108554823Y-113297228D01*
X108555171Y-113294474D01*
X108555583Y-113265000D01*
X108555313Y-113262244D01*
X108535952Y-113064780D01*
X108535951Y-113064776D01*
X108535480Y-113059970D01*
X108528214Y-113035902D01*
X108477333Y-112867380D01*
X108475935Y-112862749D01*
X108379218Y-112680849D01*
X108249011Y-112521200D01*
X108244452Y-112517428D01*
X108196418Y-112477691D01*
X108174768Y-112459781D01*
X108141983Y-112408120D01*
X108145825Y-112347056D01*
X108184826Y-112299912D01*
X108237873Y-112284500D01*
X109301800Y-112284500D01*
X109359991Y-112303407D01*
X109395955Y-112352907D01*
X109395955Y-112414093D01*
X109363833Y-112460655D01*
X109305225Y-112507777D01*
X109305223Y-112507779D01*
X109301447Y-112510815D01*
X109298333Y-112514526D01*
X109298332Y-112514527D01*
X109252494Y-112569155D01*
X109169024Y-112668630D01*
X109166689Y-112672878D01*
X109166688Y-112672879D01*
X109159955Y-112685126D01*
X109069776Y-112849162D01*
X109007484Y-113045532D01*
X109006944Y-113050344D01*
X109006944Y-113050345D01*
X109003531Y-113080778D01*
X108984520Y-113250262D01*
X108985526Y-113262244D01*
X108998751Y-113419727D01*
X109001759Y-113455553D01*
X109058544Y-113653586D01*
X109152712Y-113836818D01*
X109280677Y-113998270D01*
X109284357Y-114001402D01*
X109284359Y-114001404D01*
X109342132Y-114050572D01*
X109437564Y-114131791D01*
X109441787Y-114134151D01*
X109441791Y-114134154D01*
X109481342Y-114156258D01*
X109617398Y-114232297D01*
X109621996Y-114233791D01*
X109808724Y-114294463D01*
X109808726Y-114294464D01*
X109813329Y-114295959D01*
X110017894Y-114320351D01*
X110022716Y-114319980D01*
X110022719Y-114319980D01*
X110090541Y-114314761D01*
X110223300Y-114304546D01*
X110421725Y-114249145D01*
X110426038Y-114246966D01*
X110426044Y-114246964D01*
X110601289Y-114158441D01*
X110601291Y-114158440D01*
X110605610Y-114156258D01*
X110616746Y-114147558D01*
X110764135Y-114032406D01*
X110764139Y-114032402D01*
X110767951Y-114029424D01*
X110776322Y-114019727D01*
X110876086Y-113904147D01*
X110902564Y-113873472D01*
X110904957Y-113869260D01*
X111001934Y-113698550D01*
X111001935Y-113698547D01*
X111004323Y-113694344D01*
X111017882Y-113653586D01*
X111067824Y-113503454D01*
X111067824Y-113503452D01*
X111069351Y-113498863D01*
X111070677Y-113488371D01*
X111094823Y-113297228D01*
X111095171Y-113294474D01*
X111095583Y-113265000D01*
X111095313Y-113262244D01*
X111075952Y-113064780D01*
X111075951Y-113064776D01*
X111075480Y-113059970D01*
X111068214Y-113035902D01*
X111017333Y-112867380D01*
X111015935Y-112862749D01*
X110919218Y-112680849D01*
X110789011Y-112521200D01*
X110784452Y-112517428D01*
X110736418Y-112477691D01*
X110714768Y-112459781D01*
X110681983Y-112408120D01*
X110685825Y-112347056D01*
X110724826Y-112299912D01*
X110777873Y-112284500D01*
X111227492Y-112284500D01*
X111231617Y-112284803D01*
X111236342Y-112286425D01*
X111285761Y-112284570D01*
X111289474Y-112284500D01*
X111308948Y-112284500D01*
X111313378Y-112283675D01*
X111318571Y-112283339D01*
X111334602Y-112282737D01*
X111339075Y-112282569D01*
X111348208Y-112282226D01*
X111356602Y-112278620D01*
X111356605Y-112278619D01*
X111358783Y-112277683D01*
X111379734Y-112271317D01*
X111391053Y-112269209D01*
X111413729Y-112255232D01*
X111426596Y-112248548D01*
X111444642Y-112240795D01*
X111444643Y-112240794D01*
X111451063Y-112238036D01*
X111455949Y-112234022D01*
X111460313Y-112229658D01*
X111478368Y-112215387D01*
X111486348Y-112210468D01*
X111504018Y-112187231D01*
X111512810Y-112177161D01*
X112001994Y-111687977D01*
X112056511Y-111660200D01*
X112120295Y-111671561D01*
X112157398Y-111692297D01*
X112161996Y-111693791D01*
X112348724Y-111754463D01*
X112348726Y-111754464D01*
X112353329Y-111755959D01*
X112557894Y-111780351D01*
X112562716Y-111779980D01*
X112562719Y-111779980D01*
X112630541Y-111774761D01*
X112763300Y-111764546D01*
X112961725Y-111709145D01*
X112966038Y-111706966D01*
X112966044Y-111706964D01*
X113141289Y-111618441D01*
X113141291Y-111618440D01*
X113145610Y-111616258D01*
X113149427Y-111613276D01*
X113304135Y-111492406D01*
X113304139Y-111492402D01*
X113307951Y-111489424D01*
X113312247Y-111484448D01*
X113398518Y-111384500D01*
X113442564Y-111333472D01*
X113461559Y-111300035D01*
X113541934Y-111158550D01*
X113541935Y-111158547D01*
X113544323Y-111154344D01*
X113546268Y-111148499D01*
X113607824Y-110963454D01*
X113607824Y-110963452D01*
X113609351Y-110958863D01*
X113619167Y-110881165D01*
X113634823Y-110757228D01*
X113635171Y-110754474D01*
X113635583Y-110725000D01*
X113615480Y-110519970D01*
X113610309Y-110502841D01*
X113557333Y-110327380D01*
X113555935Y-110322749D01*
X113459218Y-110140849D01*
X113329011Y-109981200D01*
X113200990Y-109875291D01*
X113168205Y-109823631D01*
X113172047Y-109762567D01*
X113211048Y-109715423D01*
X113264095Y-109700011D01*
X114437133Y-109700011D01*
X114495324Y-109718918D01*
G37*
%TD.AperFunction*%
%TA.AperFunction,Conductor*%
G36*
X108450587Y-106906321D02*
G01*
X108486788Y-106960500D01*
X108497888Y-106977112D01*
X108584883Y-107035240D01*
X108661599Y-107050500D01*
X108750000Y-107050500D01*
X108838400Y-107050499D01*
X108870547Y-107044105D01*
X108905551Y-107037143D01*
X108905553Y-107037142D01*
X108915117Y-107035240D01*
X108945001Y-107015272D01*
X109003886Y-106998664D01*
X109054999Y-107015272D01*
X109084883Y-107035240D01*
X109161599Y-107050500D01*
X109250000Y-107050500D01*
X109338400Y-107050499D01*
X109370547Y-107044105D01*
X109405551Y-107037143D01*
X109405553Y-107037142D01*
X109415117Y-107035240D01*
X109445001Y-107015272D01*
X109503886Y-106998664D01*
X109554999Y-107015272D01*
X109584883Y-107035240D01*
X109661599Y-107050500D01*
X109750000Y-107050500D01*
X109838400Y-107050499D01*
X109843164Y-107049551D01*
X109843168Y-107049551D01*
X109883711Y-107041487D01*
X109944472Y-107048679D01*
X109989401Y-107090213D01*
X109992601Y-107096702D01*
X109993206Y-107097696D01*
X109995964Y-107104115D01*
X109999978Y-107109001D01*
X110004342Y-107113365D01*
X110018613Y-107131420D01*
X110023532Y-107139400D01*
X110030807Y-107144932D01*
X110030808Y-107144933D01*
X110046764Y-107157066D01*
X110056844Y-107165867D01*
X110346473Y-107455497D01*
X110374250Y-107510013D01*
X110364679Y-107570445D01*
X110321414Y-107613710D01*
X110276469Y-107624500D01*
X110016512Y-107624500D01*
X110012668Y-107625109D01*
X110012666Y-107625109D01*
X109924569Y-107639062D01*
X109924568Y-107639062D01*
X109916874Y-107640281D01*
X109909935Y-107643817D01*
X109909934Y-107643817D01*
X109803719Y-107697936D01*
X109803717Y-107697937D01*
X109796780Y-107701472D01*
X109701472Y-107796780D01*
X109697937Y-107803717D01*
X109697936Y-107803719D01*
X109668682Y-107861133D01*
X109640281Y-107916874D01*
X109639062Y-107924568D01*
X109639062Y-107924569D01*
X109627194Y-107999500D01*
X109624500Y-108016512D01*
X109624500Y-108583488D01*
X109625109Y-108587332D01*
X109625109Y-108587334D01*
X109637804Y-108667485D01*
X109640281Y-108683126D01*
X109643817Y-108690065D01*
X109643817Y-108690066D01*
X109690860Y-108782392D01*
X109701472Y-108803220D01*
X109796780Y-108898528D01*
X109803717Y-108902063D01*
X109803719Y-108902064D01*
X109849841Y-108925564D01*
X109916874Y-108959719D01*
X109924568Y-108960938D01*
X109924569Y-108960938D01*
X110012666Y-108974891D01*
X110012668Y-108974891D01*
X110016512Y-108975500D01*
X110284521Y-108975500D01*
X110342712Y-108994407D01*
X110354525Y-109004496D01*
X110924191Y-109574162D01*
X110926891Y-109577291D01*
X110929086Y-109581780D01*
X110935789Y-109587998D01*
X110965333Y-109615404D01*
X110968009Y-109617980D01*
X110981788Y-109631759D01*
X110985498Y-109634304D01*
X110989411Y-109637740D01*
X111011157Y-109657912D01*
X111019643Y-109661298D01*
X111019645Y-109661299D01*
X111021848Y-109662178D01*
X111041159Y-109672489D01*
X111043118Y-109673833D01*
X111043121Y-109673834D01*
X111050657Y-109679004D01*
X111059549Y-109681114D01*
X111059551Y-109681115D01*
X111076577Y-109685155D01*
X111090396Y-109689525D01*
X111115133Y-109699394D01*
X111121426Y-109700011D01*
X111127596Y-109700011D01*
X111150452Y-109702686D01*
X111159577Y-109704851D01*
X111188499Y-109700915D01*
X111201848Y-109700011D01*
X111897133Y-109700011D01*
X111955324Y-109718918D01*
X111991288Y-109768418D01*
X111991288Y-109829604D01*
X111959167Y-109876166D01*
X111845220Y-109967781D01*
X111845217Y-109967783D01*
X111841447Y-109970815D01*
X111838333Y-109974526D01*
X111838332Y-109974527D01*
X111719280Y-110116408D01*
X111709024Y-110128630D01*
X111706689Y-110132878D01*
X111706688Y-110132879D01*
X111699955Y-110145126D01*
X111609776Y-110309162D01*
X111547484Y-110505532D01*
X111546944Y-110510344D01*
X111546944Y-110510345D01*
X111526163Y-110695618D01*
X111524520Y-110710262D01*
X111541759Y-110915553D01*
X111598544Y-111113586D01*
X111600756Y-111117891D01*
X111600758Y-111117895D01*
X111608962Y-111133858D01*
X111618745Y-111194256D01*
X111590914Y-111249115D01*
X111185525Y-111654504D01*
X111131008Y-111682281D01*
X111115521Y-111683500D01*
X110807061Y-111683500D01*
X110748870Y-111664593D01*
X110712906Y-111615093D01*
X110712906Y-111553907D01*
X110746109Y-111506489D01*
X110767951Y-111489424D01*
X110772247Y-111484448D01*
X110858518Y-111384500D01*
X110902564Y-111333472D01*
X110921559Y-111300035D01*
X111001934Y-111158550D01*
X111001935Y-111158547D01*
X111004323Y-111154344D01*
X111006268Y-111148499D01*
X111067824Y-110963454D01*
X111067824Y-110963452D01*
X111069351Y-110958863D01*
X111079167Y-110881165D01*
X111094823Y-110757228D01*
X111095171Y-110754474D01*
X111095583Y-110725000D01*
X111075480Y-110519970D01*
X111070309Y-110502841D01*
X111017333Y-110327380D01*
X111015935Y-110322749D01*
X110919218Y-110140849D01*
X110789011Y-109981200D01*
X110763670Y-109960236D01*
X110634002Y-109852965D01*
X110634000Y-109852964D01*
X110630275Y-109849882D01*
X110479610Y-109768418D01*
X110453309Y-109754197D01*
X110453308Y-109754197D01*
X110449055Y-109751897D01*
X110342517Y-109718918D01*
X110256875Y-109692407D01*
X110256871Y-109692406D01*
X110252254Y-109690977D01*
X110247446Y-109690472D01*
X110247443Y-109690471D01*
X110052185Y-109669949D01*
X110052183Y-109669949D01*
X110047369Y-109669443D01*
X110008492Y-109672981D01*
X109847022Y-109687675D01*
X109847017Y-109687676D01*
X109842203Y-109688114D01*
X109644572Y-109746280D01*
X109640288Y-109748519D01*
X109640287Y-109748520D01*
X109603477Y-109767764D01*
X109462002Y-109841726D01*
X109458231Y-109844758D01*
X109305220Y-109967781D01*
X109305217Y-109967783D01*
X109301447Y-109970815D01*
X109298333Y-109974526D01*
X109298332Y-109974527D01*
X109179280Y-110116408D01*
X109169024Y-110128630D01*
X109166689Y-110132878D01*
X109166688Y-110132879D01*
X109159955Y-110145126D01*
X109069776Y-110309162D01*
X109007484Y-110505532D01*
X109006944Y-110510344D01*
X109006944Y-110510345D01*
X108986163Y-110695618D01*
X108984520Y-110710262D01*
X109001759Y-110915553D01*
X109058544Y-111113586D01*
X109152712Y-111296818D01*
X109280677Y-111458270D01*
X109340414Y-111509110D01*
X109372472Y-111561220D01*
X109367778Y-111622226D01*
X109328123Y-111668821D01*
X109276248Y-111683500D01*
X106583500Y-111683500D01*
X106525309Y-111664593D01*
X106489345Y-111615093D01*
X106484500Y-111584500D01*
X106484500Y-109960236D01*
X106503407Y-109902045D01*
X106513496Y-109890232D01*
X107053463Y-109350265D01*
X107107980Y-109322488D01*
X107168412Y-109332059D01*
X107205033Y-109368677D01*
X107206412Y-109367675D01*
X107210993Y-109373981D01*
X107214529Y-109380920D01*
X107304237Y-109470628D01*
X107311174Y-109474163D01*
X107311176Y-109474164D01*
X107402116Y-109520500D01*
X107417275Y-109528224D01*
X107424969Y-109529443D01*
X107424970Y-109529443D01*
X107534882Y-109546851D01*
X107542579Y-109548070D01*
X107550276Y-109546851D01*
X107660188Y-109529443D01*
X107660189Y-109529443D01*
X107667883Y-109528224D01*
X107683042Y-109520500D01*
X107773982Y-109474164D01*
X107773984Y-109474163D01*
X107780921Y-109470628D01*
X107870629Y-109380920D01*
X107876868Y-109368677D01*
X107924689Y-109274822D01*
X107924689Y-109274821D01*
X107928225Y-109267882D01*
X107936246Y-109217242D01*
X107939373Y-109197495D01*
X107967150Y-109142978D01*
X108143422Y-108966706D01*
X108146551Y-108964006D01*
X108151040Y-108961811D01*
X108184664Y-108925564D01*
X108187240Y-108922888D01*
X108201019Y-108909109D01*
X108203564Y-108905399D01*
X108207000Y-108901486D01*
X108220958Y-108886439D01*
X108227172Y-108879740D01*
X108230559Y-108871252D01*
X108231438Y-108869049D01*
X108241749Y-108849738D01*
X108243093Y-108847779D01*
X108243094Y-108847776D01*
X108248264Y-108840240D01*
X108254415Y-108814320D01*
X108258785Y-108800501D01*
X108268654Y-108775764D01*
X108269271Y-108769471D01*
X108269271Y-108763301D01*
X108271946Y-108740442D01*
X108272001Y-108740212D01*
X108274111Y-108731320D01*
X108270175Y-108702398D01*
X108269271Y-108689049D01*
X108269271Y-106961322D01*
X108288178Y-106903131D01*
X108337678Y-106867167D01*
X108398864Y-106867167D01*
X108450587Y-106906321D01*
G37*
%TD.AperFunction*%
%TA.AperFunction,Conductor*%
G36*
X112627689Y-107868447D02*
G01*
X112639502Y-107878536D01*
X113179757Y-108418792D01*
X113207534Y-108473309D01*
X113197963Y-108533741D01*
X113168159Y-108568638D01*
X113161658Y-108571950D01*
X113128104Y-108605504D01*
X113073587Y-108633281D01*
X113058100Y-108634500D01*
X112700290Y-108634500D01*
X112642099Y-108615593D01*
X112617975Y-108590503D01*
X112594552Y-108555448D01*
X112528231Y-108511133D01*
X112518668Y-108509231D01*
X112518666Y-108509230D01*
X112485577Y-108502649D01*
X112450000Y-108495572D01*
X112230000Y-108495572D01*
X112194423Y-108502649D01*
X112161334Y-108509230D01*
X112161332Y-108509231D01*
X112151769Y-108511133D01*
X112122861Y-108530449D01*
X112089488Y-108552748D01*
X112089485Y-108552751D01*
X112085448Y-108555448D01*
X111864325Y-108776571D01*
X111809808Y-108804348D01*
X111749376Y-108794777D01*
X111712006Y-108761570D01*
X111694552Y-108735448D01*
X111529108Y-108570004D01*
X111501331Y-108515487D01*
X111510902Y-108455055D01*
X111529108Y-108429996D01*
X111694552Y-108264552D01*
X111697249Y-108260515D01*
X111697252Y-108260512D01*
X111723498Y-108221232D01*
X111738867Y-108198231D01*
X111754428Y-108120000D01*
X111754428Y-108050000D01*
X111738867Y-107971769D01*
X111741683Y-107971209D01*
X111738077Y-107925436D01*
X111770042Y-107873265D01*
X111826568Y-107849846D01*
X111834343Y-107849540D01*
X112569498Y-107849540D01*
X112627689Y-107868447D01*
G37*
%TD.AperFunction*%
%TA.AperFunction,Conductor*%
G36*
X114054999Y-100115272D02*
G01*
X114084883Y-100135240D01*
X114161599Y-100150500D01*
X114170858Y-100150500D01*
X114250501Y-100150499D01*
X114308690Y-100169406D01*
X114344654Y-100218905D01*
X114349500Y-100249498D01*
X114349501Y-100329139D01*
X114349501Y-100338400D01*
X114364760Y-100415117D01*
X114384728Y-100445001D01*
X114401336Y-100503886D01*
X114384728Y-100554999D01*
X114364760Y-100584883D01*
X114349500Y-100661599D01*
X114349501Y-100838400D01*
X114364760Y-100915117D01*
X114384728Y-100945001D01*
X114401336Y-101003886D01*
X114384728Y-101054999D01*
X114364760Y-101084883D01*
X114349500Y-101161599D01*
X114349501Y-101338400D01*
X114364760Y-101415117D01*
X114384728Y-101445001D01*
X114401336Y-101503886D01*
X114384728Y-101554999D01*
X114364760Y-101584883D01*
X114349500Y-101661599D01*
X114349501Y-101838400D01*
X114350449Y-101843165D01*
X114350449Y-101843166D01*
X114361853Y-101900500D01*
X114364760Y-101915117D01*
X114384728Y-101945001D01*
X114401336Y-102003886D01*
X114384728Y-102054999D01*
X114364760Y-102084883D01*
X114349500Y-102161599D01*
X114349501Y-102338400D01*
X114364760Y-102415117D01*
X114384728Y-102445001D01*
X114401336Y-102503886D01*
X114384728Y-102554999D01*
X114364760Y-102584883D01*
X114349500Y-102661599D01*
X114349501Y-102838400D01*
X114350449Y-102843165D01*
X114350449Y-102843166D01*
X114352809Y-102855029D01*
X114364760Y-102915117D01*
X114384728Y-102945001D01*
X114401336Y-103003886D01*
X114384728Y-103054999D01*
X114364760Y-103084883D01*
X114349500Y-103161599D01*
X114349501Y-103338400D01*
X114364760Y-103415117D01*
X114384728Y-103445001D01*
X114401336Y-103503886D01*
X114384728Y-103554999D01*
X114364760Y-103584883D01*
X114349500Y-103661599D01*
X114349501Y-103838400D01*
X114364760Y-103915117D01*
X114384728Y-103945001D01*
X114401336Y-104003886D01*
X114384728Y-104054999D01*
X114364760Y-104084883D01*
X114349500Y-104161599D01*
X114349501Y-104338400D01*
X114364760Y-104415117D01*
X114384728Y-104445001D01*
X114401336Y-104503886D01*
X114384728Y-104554999D01*
X114364760Y-104584883D01*
X114349500Y-104661599D01*
X114349501Y-104838400D01*
X114364760Y-104915117D01*
X114384728Y-104945001D01*
X114401336Y-105003886D01*
X114384728Y-105054999D01*
X114364760Y-105084883D01*
X114349500Y-105161599D01*
X114349501Y-105338400D01*
X114364760Y-105415117D01*
X114384728Y-105445001D01*
X114401336Y-105503886D01*
X114384728Y-105554999D01*
X114364760Y-105584883D01*
X114349500Y-105661599D01*
X114349501Y-105740252D01*
X114349501Y-105750499D01*
X114330594Y-105808690D01*
X114281095Y-105844654D01*
X114250502Y-105849500D01*
X114170861Y-105849501D01*
X114161600Y-105849501D01*
X114156834Y-105850449D01*
X114094449Y-105862857D01*
X114094447Y-105862858D01*
X114084883Y-105864760D01*
X114054999Y-105884728D01*
X113996114Y-105901336D01*
X113945001Y-105884728D01*
X113915117Y-105864760D01*
X113838401Y-105849500D01*
X113833542Y-105849500D01*
X113750001Y-105849501D01*
X113661600Y-105849501D01*
X113656834Y-105850449D01*
X113594449Y-105862857D01*
X113594447Y-105862858D01*
X113584883Y-105864760D01*
X113554999Y-105884728D01*
X113496114Y-105901336D01*
X113445001Y-105884728D01*
X113415117Y-105864760D01*
X113338401Y-105849500D01*
X113333542Y-105849500D01*
X113250001Y-105849501D01*
X113161600Y-105849501D01*
X113156834Y-105850449D01*
X113094449Y-105862857D01*
X113094447Y-105862858D01*
X113084883Y-105864760D01*
X113054999Y-105884728D01*
X112996114Y-105901336D01*
X112945001Y-105884728D01*
X112915117Y-105864760D01*
X112838401Y-105849500D01*
X112833542Y-105849500D01*
X112750001Y-105849501D01*
X112661600Y-105849501D01*
X112656834Y-105850449D01*
X112594449Y-105862857D01*
X112594447Y-105862858D01*
X112584883Y-105864760D01*
X112554999Y-105884728D01*
X112496114Y-105901336D01*
X112445001Y-105884728D01*
X112415117Y-105864760D01*
X112338401Y-105849500D01*
X112333542Y-105849500D01*
X112250001Y-105849501D01*
X112161600Y-105849501D01*
X112156834Y-105850449D01*
X112094449Y-105862857D01*
X112094447Y-105862858D01*
X112084883Y-105864760D01*
X112054999Y-105884728D01*
X111996114Y-105901336D01*
X111945001Y-105884728D01*
X111915117Y-105864760D01*
X111838401Y-105849500D01*
X111833542Y-105849500D01*
X111750001Y-105849501D01*
X111661600Y-105849501D01*
X111656834Y-105850449D01*
X111594449Y-105862857D01*
X111594447Y-105862858D01*
X111584883Y-105864760D01*
X111554999Y-105884728D01*
X111496114Y-105901336D01*
X111445001Y-105884728D01*
X111415117Y-105864760D01*
X111338401Y-105849500D01*
X111333542Y-105849500D01*
X111250001Y-105849501D01*
X111161600Y-105849501D01*
X111156834Y-105850449D01*
X111094449Y-105862857D01*
X111094447Y-105862858D01*
X111084883Y-105864760D01*
X111054999Y-105884728D01*
X110996114Y-105901336D01*
X110945001Y-105884728D01*
X110915117Y-105864760D01*
X110838401Y-105849500D01*
X110833542Y-105849500D01*
X110750001Y-105849501D01*
X110661600Y-105849501D01*
X110656834Y-105850449D01*
X110594449Y-105862857D01*
X110594447Y-105862858D01*
X110584883Y-105864760D01*
X110554999Y-105884728D01*
X110496114Y-105901336D01*
X110445001Y-105884728D01*
X110415117Y-105864760D01*
X110338401Y-105849500D01*
X110333542Y-105849500D01*
X110250001Y-105849501D01*
X110161600Y-105849501D01*
X110156834Y-105850449D01*
X110094449Y-105862857D01*
X110094447Y-105862858D01*
X110084883Y-105864760D01*
X110054999Y-105884728D01*
X109996114Y-105901336D01*
X109945001Y-105884728D01*
X109915117Y-105864760D01*
X109838401Y-105849500D01*
X109833542Y-105849500D01*
X109750001Y-105849501D01*
X109661600Y-105849501D01*
X109656834Y-105850449D01*
X109594449Y-105862857D01*
X109594447Y-105862858D01*
X109584883Y-105864760D01*
X109554999Y-105884728D01*
X109496114Y-105901336D01*
X109445001Y-105884728D01*
X109415117Y-105864760D01*
X109338401Y-105849500D01*
X109333542Y-105849500D01*
X109250001Y-105849501D01*
X109161600Y-105849501D01*
X109156834Y-105850449D01*
X109094449Y-105862857D01*
X109094447Y-105862858D01*
X109084883Y-105864760D01*
X109054999Y-105884728D01*
X108996114Y-105901336D01*
X108945001Y-105884728D01*
X108915117Y-105864760D01*
X108838401Y-105849500D01*
X108829142Y-105849500D01*
X108749499Y-105849501D01*
X108691310Y-105830594D01*
X108655346Y-105781095D01*
X108650500Y-105750502D01*
X108650499Y-105666459D01*
X108650499Y-105661600D01*
X108635240Y-105584883D01*
X108615272Y-105554999D01*
X108598664Y-105496114D01*
X108615272Y-105445001D01*
X108635240Y-105415117D01*
X108650500Y-105338401D01*
X108650499Y-105161600D01*
X108635240Y-105084883D01*
X108615272Y-105054999D01*
X108598664Y-104996114D01*
X108615272Y-104945001D01*
X108635240Y-104915117D01*
X108650500Y-104838401D01*
X108650499Y-104661600D01*
X108635240Y-104584883D01*
X108615272Y-104554999D01*
X108598664Y-104496114D01*
X108615272Y-104445001D01*
X108635240Y-104415117D01*
X108650500Y-104338401D01*
X108650499Y-104161600D01*
X108635240Y-104084883D01*
X108615272Y-104054999D01*
X108598664Y-103996114D01*
X108615272Y-103945001D01*
X108635240Y-103915117D01*
X108650500Y-103838401D01*
X108650499Y-103661600D01*
X108635240Y-103584883D01*
X108615272Y-103554999D01*
X108598664Y-103496114D01*
X108615272Y-103445001D01*
X108635240Y-103415117D01*
X108650500Y-103338401D01*
X108650499Y-103161600D01*
X108635240Y-103084883D01*
X108615272Y-103054999D01*
X108598664Y-102996114D01*
X108615272Y-102945001D01*
X108635240Y-102915117D01*
X108650500Y-102838401D01*
X108650499Y-102661600D01*
X108635240Y-102584883D01*
X108615272Y-102554999D01*
X108598664Y-102496114D01*
X108615272Y-102445001D01*
X108635240Y-102415117D01*
X108650500Y-102338401D01*
X108650499Y-102161600D01*
X108644542Y-102131650D01*
X108637143Y-102094449D01*
X108637142Y-102094446D01*
X108635240Y-102084883D01*
X108615272Y-102054999D01*
X108598664Y-101996114D01*
X108615272Y-101945001D01*
X108635240Y-101915117D01*
X108650500Y-101838401D01*
X108650499Y-101661600D01*
X108642876Y-101623275D01*
X108637143Y-101594449D01*
X108637142Y-101594446D01*
X108635240Y-101584883D01*
X108615272Y-101554999D01*
X108598664Y-101496114D01*
X108615272Y-101445001D01*
X108635240Y-101415117D01*
X108650500Y-101338401D01*
X108650499Y-101161600D01*
X108635240Y-101084883D01*
X108615272Y-101054999D01*
X108598664Y-100996114D01*
X108615272Y-100945001D01*
X108635240Y-100915117D01*
X108650500Y-100838401D01*
X108650499Y-100661600D01*
X108648074Y-100649407D01*
X108637143Y-100594449D01*
X108637142Y-100594446D01*
X108635240Y-100584883D01*
X108615272Y-100554999D01*
X108598664Y-100496114D01*
X108615272Y-100445001D01*
X108635240Y-100415117D01*
X108650500Y-100338401D01*
X108650499Y-100249499D01*
X108669406Y-100191310D01*
X108718905Y-100155346D01*
X108749498Y-100150500D01*
X108829139Y-100150499D01*
X108838400Y-100150499D01*
X108852256Y-100147743D01*
X108905551Y-100137143D01*
X108905553Y-100137142D01*
X108915117Y-100135240D01*
X108945001Y-100115272D01*
X109003886Y-100098664D01*
X109054999Y-100115272D01*
X109084883Y-100135240D01*
X109161599Y-100150500D01*
X109250000Y-100150500D01*
X109338400Y-100150499D01*
X109352256Y-100147743D01*
X109405551Y-100137143D01*
X109405553Y-100137142D01*
X109415117Y-100135240D01*
X109445001Y-100115272D01*
X109503886Y-100098664D01*
X109554999Y-100115272D01*
X109584883Y-100135240D01*
X109661599Y-100150500D01*
X109750000Y-100150500D01*
X109838400Y-100150499D01*
X109852256Y-100147743D01*
X109905551Y-100137143D01*
X109905553Y-100137142D01*
X109915117Y-100135240D01*
X109945001Y-100115272D01*
X110003886Y-100098664D01*
X110054999Y-100115272D01*
X110084883Y-100135240D01*
X110161599Y-100150500D01*
X110250000Y-100150500D01*
X110338400Y-100150499D01*
X110352256Y-100147743D01*
X110405551Y-100137143D01*
X110405553Y-100137142D01*
X110415117Y-100135240D01*
X110445001Y-100115272D01*
X110503886Y-100098664D01*
X110554999Y-100115272D01*
X110584883Y-100135240D01*
X110661599Y-100150500D01*
X110750000Y-100150500D01*
X110838400Y-100150499D01*
X110852256Y-100147743D01*
X110905551Y-100137143D01*
X110905553Y-100137142D01*
X110915117Y-100135240D01*
X110945001Y-100115272D01*
X111003886Y-100098664D01*
X111054999Y-100115272D01*
X111084883Y-100135240D01*
X111161599Y-100150500D01*
X111250000Y-100150500D01*
X111338400Y-100150499D01*
X111352256Y-100147743D01*
X111405551Y-100137143D01*
X111405553Y-100137142D01*
X111415117Y-100135240D01*
X111445001Y-100115272D01*
X111503886Y-100098664D01*
X111554999Y-100115272D01*
X111584883Y-100135240D01*
X111661599Y-100150500D01*
X111750000Y-100150500D01*
X111838400Y-100150499D01*
X111852256Y-100147743D01*
X111905551Y-100137143D01*
X111905553Y-100137142D01*
X111915117Y-100135240D01*
X111945001Y-100115272D01*
X112003886Y-100098664D01*
X112054999Y-100115272D01*
X112084883Y-100135240D01*
X112161599Y-100150500D01*
X112250000Y-100150500D01*
X112338400Y-100150499D01*
X112352256Y-100147743D01*
X112405551Y-100137143D01*
X112405553Y-100137142D01*
X112415117Y-100135240D01*
X112445001Y-100115272D01*
X112503886Y-100098664D01*
X112554999Y-100115272D01*
X112584883Y-100135240D01*
X112661599Y-100150500D01*
X112750000Y-100150500D01*
X112838400Y-100150499D01*
X112852256Y-100147743D01*
X112905551Y-100137143D01*
X112905553Y-100137142D01*
X112915117Y-100135240D01*
X112945001Y-100115272D01*
X113003886Y-100098664D01*
X113054999Y-100115272D01*
X113084883Y-100135240D01*
X113161599Y-100150500D01*
X113250000Y-100150500D01*
X113338400Y-100150499D01*
X113352256Y-100147743D01*
X113405551Y-100137143D01*
X113405553Y-100137142D01*
X113415117Y-100135240D01*
X113445001Y-100115272D01*
X113503886Y-100098664D01*
X113554999Y-100115272D01*
X113584883Y-100135240D01*
X113661599Y-100150500D01*
X113750000Y-100150500D01*
X113838400Y-100150499D01*
X113852256Y-100147743D01*
X113905551Y-100137143D01*
X113905553Y-100137142D01*
X113915117Y-100135240D01*
X113945001Y-100115272D01*
X114003886Y-100098664D01*
X114054999Y-100115272D01*
G37*
%TD.AperFunction*%
%TA.AperFunction,Conductor*%
G36*
X117445945Y-95750798D02*
G01*
X117489210Y-95794063D01*
X117500000Y-95839008D01*
X117500000Y-95868889D01*
X117499955Y-95920449D01*
X117504781Y-95930498D01*
X117504781Y-95930500D01*
X117505185Y-95931341D01*
X117512463Y-95952183D01*
X117512670Y-95953093D01*
X117512672Y-95953096D01*
X117515150Y-95963962D01*
X117522097Y-95972680D01*
X117522520Y-95973211D01*
X117534334Y-95992046D01*
X117534625Y-95992653D01*
X117534628Y-95992657D01*
X117539453Y-96002705D01*
X117548893Y-96010254D01*
X117564484Y-96025872D01*
X117572015Y-96035323D01*
X117582058Y-96040167D01*
X117582663Y-96040459D01*
X117601478Y-96052308D01*
X117602005Y-96052730D01*
X117602010Y-96052732D01*
X117610715Y-96059694D01*
X117622405Y-96062382D01*
X117622492Y-96062402D01*
X117643318Y-96069715D01*
X117654202Y-96074965D01*
X117665347Y-96074975D01*
X117665348Y-96074975D01*
X117677213Y-96074985D01*
X117677211Y-96076730D01*
X117677277Y-96076724D01*
X117677277Y-96075000D01*
X117694123Y-96075000D01*
X117745160Y-96075045D01*
X117745449Y-96075045D01*
X117745537Y-96075003D01*
X117745561Y-96075000D01*
X118594222Y-96075000D01*
X118608504Y-96075013D01*
X118666677Y-96093973D01*
X118702596Y-96143505D01*
X118702541Y-96204691D01*
X118698960Y-96214043D01*
X118696147Y-96220405D01*
X118655818Y-96311629D01*
X118655112Y-96319777D01*
X118655112Y-96319778D01*
X118647921Y-96402801D01*
X118645749Y-96427880D01*
X118673880Y-96541125D01*
X118678317Y-96547996D01*
X118678317Y-96547997D01*
X118708727Y-96595093D01*
X118737175Y-96639152D01*
X118737684Y-96639553D01*
X118761216Y-96691665D01*
X118748811Y-96751580D01*
X118735512Y-96769735D01*
X118702999Y-96804907D01*
X118655818Y-96911629D01*
X118655112Y-96919777D01*
X118655112Y-96919778D01*
X118648486Y-96996281D01*
X118645749Y-97027880D01*
X118647722Y-97035822D01*
X118647722Y-97035823D01*
X118668647Y-97120057D01*
X118673880Y-97141125D01*
X118678317Y-97147996D01*
X118678317Y-97147997D01*
X118716401Y-97206978D01*
X118737175Y-97239152D01*
X118737684Y-97239553D01*
X118761216Y-97291665D01*
X118748811Y-97351580D01*
X118735512Y-97369735D01*
X118702999Y-97404907D01*
X118655818Y-97511629D01*
X118655112Y-97519777D01*
X118655112Y-97519778D01*
X118646455Y-97619727D01*
X118645749Y-97627880D01*
X118673880Y-97741125D01*
X118678317Y-97747996D01*
X118678317Y-97747997D01*
X118719911Y-97812414D01*
X118737175Y-97839152D01*
X118737684Y-97839553D01*
X118761216Y-97891665D01*
X118748811Y-97951580D01*
X118735512Y-97969735D01*
X118702999Y-98004907D01*
X118655818Y-98111629D01*
X118655112Y-98119777D01*
X118655112Y-98119778D01*
X118650442Y-98173693D01*
X118645749Y-98227880D01*
X118647722Y-98235822D01*
X118647722Y-98235823D01*
X118668131Y-98317980D01*
X118673880Y-98341125D01*
X118678317Y-98347996D01*
X118678317Y-98347997D01*
X118725059Y-98420387D01*
X118737175Y-98439152D01*
X118737684Y-98439553D01*
X118761216Y-98491665D01*
X118748811Y-98551580D01*
X118735512Y-98569735D01*
X118702999Y-98604907D01*
X118655818Y-98711629D01*
X118655112Y-98719777D01*
X118655112Y-98719778D01*
X118649432Y-98785353D01*
X118645749Y-98827880D01*
X118647722Y-98835822D01*
X118647722Y-98835823D01*
X118658968Y-98881093D01*
X118673880Y-98941125D01*
X118678317Y-98947996D01*
X118678317Y-98947997D01*
X118726674Y-99022888D01*
X118737175Y-99039152D01*
X118737684Y-99039553D01*
X118761216Y-99091665D01*
X118748811Y-99151580D01*
X118735512Y-99169735D01*
X118702999Y-99204907D01*
X118655818Y-99311629D01*
X118655112Y-99319777D01*
X118655112Y-99319778D01*
X118650393Y-99374264D01*
X118645749Y-99427880D01*
X118673880Y-99541125D01*
X118678317Y-99547996D01*
X118678317Y-99547997D01*
X118728035Y-99624996D01*
X118737175Y-99639152D01*
X118828811Y-99711392D01*
X118836531Y-99714103D01*
X118843704Y-99718047D01*
X118843013Y-99719303D01*
X118884556Y-99751007D01*
X118902089Y-99809627D01*
X118886941Y-99859968D01*
X118872757Y-99882542D01*
X118865331Y-99894360D01*
X118813233Y-100043250D01*
X118796336Y-100193210D01*
X118794857Y-100199642D01*
X118797318Y-100210516D01*
X118797559Y-100211583D01*
X118800000Y-100233432D01*
X118800000Y-100380500D01*
X118781093Y-100438691D01*
X118731593Y-100474655D01*
X118701001Y-100479500D01*
X118323291Y-100479499D01*
X118249500Y-100479499D01*
X118191309Y-100460592D01*
X118155345Y-100411091D01*
X118150500Y-100380499D01*
X118150500Y-99570252D01*
X118138867Y-99511769D01*
X118094552Y-99445448D01*
X118059930Y-99422314D01*
X118022053Y-99374264D01*
X118019651Y-99313126D01*
X118053645Y-99262253D01*
X118059924Y-99257690D01*
X118094552Y-99234552D01*
X118138867Y-99168231D01*
X118142299Y-99150980D01*
X118145279Y-99135995D01*
X118150500Y-99109748D01*
X118150500Y-98070252D01*
X118138867Y-98011769D01*
X118094552Y-97945448D01*
X118028231Y-97901133D01*
X118018668Y-97899231D01*
X118018666Y-97899230D01*
X117995995Y-97894721D01*
X117969748Y-97889500D01*
X117130252Y-97889500D01*
X117104005Y-97894721D01*
X117081334Y-97899230D01*
X117081332Y-97899231D01*
X117071769Y-97901133D01*
X117005448Y-97945448D01*
X116961133Y-98011769D01*
X116949500Y-98070252D01*
X116949500Y-99109748D01*
X116954721Y-99135995D01*
X116957702Y-99150980D01*
X116961133Y-99168231D01*
X117005448Y-99234552D01*
X117007307Y-99235794D01*
X117032929Y-99286082D01*
X117023358Y-99346514D01*
X116980093Y-99389779D01*
X116915834Y-99398667D01*
X116869748Y-99389500D01*
X116195851Y-99389500D01*
X116159166Y-99382452D01*
X116156865Y-99381534D01*
X116137548Y-99371220D01*
X116135593Y-99369879D01*
X116135590Y-99369878D01*
X116128054Y-99364708D01*
X116102141Y-99358559D01*
X116088316Y-99354186D01*
X116070068Y-99346906D01*
X116070066Y-99346906D01*
X116063578Y-99344317D01*
X116057285Y-99343700D01*
X116051116Y-99343700D01*
X116028257Y-99341025D01*
X116028027Y-99340970D01*
X116028025Y-99340970D01*
X116019134Y-99338860D01*
X115990213Y-99342796D01*
X115976863Y-99343700D01*
X115850956Y-99343700D01*
X115792767Y-99324794D01*
X115788448Y-99321656D01*
X115782942Y-99316150D01*
X115726423Y-99287352D01*
X115676844Y-99262090D01*
X115676843Y-99262090D01*
X115669904Y-99258554D01*
X115662210Y-99257335D01*
X115662209Y-99257335D01*
X115552297Y-99239927D01*
X115544600Y-99238708D01*
X115536903Y-99239927D01*
X115426991Y-99257335D01*
X115426990Y-99257335D01*
X115419296Y-99258554D01*
X115412357Y-99262090D01*
X115412356Y-99262090D01*
X115313197Y-99312614D01*
X115313195Y-99312615D01*
X115306258Y-99316150D01*
X115269825Y-99352583D01*
X115215308Y-99380360D01*
X115154876Y-99370789D01*
X115111612Y-99327525D01*
X115081588Y-99268600D01*
X115081585Y-99268596D01*
X115078050Y-99261658D01*
X114988342Y-99171950D01*
X114981405Y-99168415D01*
X114981403Y-99168414D01*
X114882244Y-99117890D01*
X114882243Y-99117890D01*
X114875304Y-99114354D01*
X114867610Y-99113135D01*
X114867609Y-99113135D01*
X114757697Y-99095727D01*
X114750000Y-99094508D01*
X114742303Y-99095727D01*
X114631704Y-99113244D01*
X114571272Y-99103673D01*
X114533901Y-99070464D01*
X114507531Y-99030998D01*
X114502112Y-99022888D01*
X114415117Y-98964760D01*
X114338401Y-98949500D01*
X114299500Y-98949500D01*
X114241309Y-98930593D01*
X114205345Y-98881093D01*
X114200500Y-98850500D01*
X114200500Y-98670003D01*
X114201678Y-98654774D01*
X114204014Y-98639769D01*
X114205099Y-98632799D01*
X114203634Y-98621598D01*
X114203275Y-98599058D01*
X114211137Y-98519222D01*
X114213636Y-98493839D01*
X114217422Y-98474805D01*
X114253504Y-98355860D01*
X114260931Y-98337930D01*
X114319522Y-98228314D01*
X114330302Y-98212179D01*
X114393671Y-98134969D01*
X114404151Y-98125063D01*
X114403922Y-98124828D01*
X114408967Y-98119904D01*
X114414665Y-98115742D01*
X114418965Y-98110148D01*
X114424011Y-98105224D01*
X114424440Y-98105664D01*
X114426409Y-98103741D01*
X114425718Y-98103033D01*
X114430765Y-98098108D01*
X114436462Y-98093946D01*
X114443349Y-98084987D01*
X114459031Y-98068797D01*
X114547185Y-97996451D01*
X114563322Y-97985669D01*
X114680268Y-97923160D01*
X114698198Y-97915733D01*
X114813429Y-97880778D01*
X114825097Y-97877239D01*
X114844129Y-97873453D01*
X114867078Y-97871193D01*
X114951788Y-97862850D01*
X114966216Y-97863255D01*
X114966220Y-97862927D01*
X114973269Y-97863013D01*
X114980240Y-97864099D01*
X114987234Y-97863185D01*
X114992487Y-97863249D01*
X114998072Y-97863534D01*
X115000826Y-97863997D01*
X115004634Y-97864044D01*
X115004639Y-97864044D01*
X115006862Y-97864071D01*
X115011946Y-97864133D01*
X115026662Y-97862026D01*
X115034192Y-97861241D01*
X115122803Y-97855433D01*
X115203770Y-97850127D01*
X115203776Y-97850126D01*
X115206999Y-97849915D01*
X115398714Y-97811781D01*
X115409217Y-97808216D01*
X115448635Y-97794835D01*
X115583812Y-97748949D01*
X115759124Y-97662494D01*
X115921652Y-97553896D01*
X116041592Y-97448711D01*
X116049440Y-97442501D01*
X116054895Y-97438617D01*
X116061668Y-97433795D01*
X116066283Y-97429292D01*
X116066885Y-97428705D01*
X116066888Y-97428702D01*
X116069627Y-97426029D01*
X116071925Y-97422963D01*
X116078689Y-97413938D01*
X116083477Y-97408036D01*
X116131826Y-97352904D01*
X116196715Y-97278913D01*
X116199866Y-97274198D01*
X116289346Y-97140281D01*
X116304666Y-97117353D01*
X116308390Y-97109803D01*
X116377688Y-96969279D01*
X116390606Y-96943084D01*
X116453064Y-96759089D01*
X116490971Y-96568515D01*
X116492767Y-96541125D01*
X116498435Y-96454642D01*
X116499283Y-96448099D01*
X116499980Y-96445895D01*
X116500500Y-96439288D01*
X116500500Y-96426370D01*
X116500712Y-96419896D01*
X116501316Y-96410679D01*
X116502476Y-96400729D01*
X116504997Y-96385744D01*
X116505133Y-96374624D01*
X116501500Y-96349255D01*
X116500500Y-96335221D01*
X116500500Y-95899000D01*
X116519407Y-95840809D01*
X116568907Y-95804845D01*
X116599500Y-95800000D01*
X117300000Y-95800000D01*
X117330996Y-95769004D01*
X117385513Y-95741227D01*
X117445945Y-95750798D01*
G37*
%TD.AperFunction*%
%TA.AperFunction,Conductor*%
G36*
X107167435Y-95818907D02*
G01*
X107203399Y-95868407D01*
X107203399Y-95929593D01*
X107179248Y-95969004D01*
X107151472Y-95996780D01*
X107147937Y-96003717D01*
X107147936Y-96003719D01*
X107093817Y-96109934D01*
X107090281Y-96116874D01*
X107074500Y-96216512D01*
X107074500Y-96783488D01*
X107075109Y-96787332D01*
X107075109Y-96787334D01*
X107085487Y-96852855D01*
X107090281Y-96883126D01*
X107093817Y-96890065D01*
X107093817Y-96890066D01*
X107144991Y-96990500D01*
X107151472Y-97003220D01*
X107246780Y-97098528D01*
X107253718Y-97102063D01*
X107253722Y-97102066D01*
X107268907Y-97109803D01*
X107312171Y-97153068D01*
X107321741Y-97213498D01*
X107319508Y-97227600D01*
X107326889Y-97274201D01*
X107317318Y-97334631D01*
X107274054Y-97377895D01*
X107243600Y-97393412D01*
X107243596Y-97393415D01*
X107236658Y-97396950D01*
X107146950Y-97486658D01*
X107143415Y-97493595D01*
X107143414Y-97493597D01*
X107103405Y-97572120D01*
X107089354Y-97599696D01*
X107088135Y-97607390D01*
X107088135Y-97607391D01*
X107079408Y-97662494D01*
X107074500Y-97693481D01*
X107074501Y-98306518D01*
X107075110Y-98310361D01*
X107075110Y-98310366D01*
X107079476Y-98337930D01*
X107089354Y-98400304D01*
X107105645Y-98432276D01*
X107139586Y-98498889D01*
X107146950Y-98513342D01*
X107236658Y-98603050D01*
X107243595Y-98606585D01*
X107243597Y-98606586D01*
X107268846Y-98619451D01*
X107294321Y-98632431D01*
X107337584Y-98675695D01*
X107347156Y-98736127D01*
X107319379Y-98790644D01*
X106109519Y-100000504D01*
X106055002Y-100028281D01*
X106039515Y-100029500D01*
X105260377Y-100029500D01*
X105202186Y-100010593D01*
X105178110Y-99985574D01*
X105155805Y-99952255D01*
X104968554Y-99765004D01*
X104940777Y-99710487D01*
X104950348Y-99650055D01*
X104968554Y-99624996D01*
X105155804Y-99437746D01*
X105166082Y-99422315D01*
X105183607Y-99396003D01*
X105183607Y-99396002D01*
X105189003Y-99387901D01*
X105200500Y-99329838D01*
X105200501Y-98790159D01*
X105199538Y-98785353D01*
X105190645Y-98740985D01*
X105190644Y-98740982D01*
X105188731Y-98731439D01*
X105155805Y-98682255D01*
X104968554Y-98495004D01*
X104940777Y-98440487D01*
X104950348Y-98380055D01*
X104968554Y-98354996D01*
X105155804Y-98167746D01*
X105159998Y-98161449D01*
X105183607Y-98126003D01*
X105183607Y-98126002D01*
X105189003Y-98117901D01*
X105200500Y-98059838D01*
X105200501Y-97520159D01*
X105198999Y-97512666D01*
X105190645Y-97470985D01*
X105190644Y-97470982D01*
X105188731Y-97461439D01*
X105155805Y-97412255D01*
X104877746Y-97134196D01*
X104864103Y-97125109D01*
X104836003Y-97106393D01*
X104836002Y-97106393D01*
X104827901Y-97100997D01*
X104769838Y-97089500D01*
X104299000Y-97089500D01*
X104240809Y-97070593D01*
X104204845Y-97021093D01*
X104200000Y-96990500D01*
X104200000Y-95899000D01*
X104218907Y-95840809D01*
X104268407Y-95804845D01*
X104299000Y-95800000D01*
X107109244Y-95800000D01*
X107167435Y-95818907D01*
G37*
%TD.AperFunction*%
%TA.AperFunction,Conductor*%
G36*
X115558691Y-95818907D02*
G01*
X115594655Y-95868407D01*
X115599500Y-95899000D01*
X115599500Y-96331869D01*
X115598321Y-96347099D01*
X115594901Y-96369066D01*
X115595816Y-96376063D01*
X115595816Y-96376064D01*
X115596365Y-96380262D01*
X115596724Y-96402801D01*
X115589286Y-96478322D01*
X115585500Y-96497357D01*
X115558084Y-96587736D01*
X115550657Y-96605667D01*
X115506133Y-96688965D01*
X115495351Y-96705101D01*
X115450927Y-96759232D01*
X115435776Y-96773553D01*
X115435920Y-96773722D01*
X115433015Y-96776209D01*
X115429929Y-96778464D01*
X115429927Y-96778466D01*
X115423111Y-96787334D01*
X115423043Y-96787422D01*
X115407362Y-96803611D01*
X115347353Y-96852859D01*
X115331223Y-96863636D01*
X115246388Y-96908982D01*
X115228459Y-96916408D01*
X115136408Y-96944332D01*
X115117379Y-96948117D01*
X115100349Y-96949794D01*
X115045962Y-96955150D01*
X115031538Y-96954745D01*
X115031534Y-96955073D01*
X115024483Y-96954987D01*
X115017510Y-96953901D01*
X115010514Y-96954816D01*
X115005266Y-96954752D01*
X114999681Y-96954468D01*
X114996920Y-96954003D01*
X114993097Y-96953956D01*
X114993094Y-96953956D01*
X114991688Y-96953939D01*
X114985800Y-96953867D01*
X114982024Y-96954408D01*
X114982018Y-96954408D01*
X114976230Y-96955237D01*
X114968674Y-96956024D01*
X114769677Y-96969067D01*
X114769672Y-96969068D01*
X114766448Y-96969279D01*
X114550849Y-97012164D01*
X114342693Y-97082824D01*
X114145540Y-97180049D01*
X114142836Y-97181856D01*
X113970840Y-97296780D01*
X113962764Y-97302176D01*
X113821580Y-97425993D01*
X113813738Y-97432197D01*
X113804720Y-97438617D01*
X113796761Y-97446384D01*
X113794470Y-97449441D01*
X113793901Y-97450089D01*
X113784407Y-97459354D01*
X113782939Y-97460399D01*
X113774979Y-97468165D01*
X113768464Y-97476858D01*
X113763683Y-97482751D01*
X113634494Y-97630057D01*
X113632695Y-97632750D01*
X113632693Y-97632752D01*
X113600581Y-97680810D01*
X113515449Y-97808216D01*
X113422154Y-97997397D01*
X113379461Y-98041223D01*
X113319159Y-98051584D01*
X113263361Y-98023613D01*
X113204496Y-97964748D01*
X113176719Y-97910231D01*
X113175500Y-97894744D01*
X113175500Y-97516512D01*
X113168846Y-97474500D01*
X113160938Y-97424569D01*
X113160938Y-97424568D01*
X113159719Y-97416874D01*
X113135709Y-97369751D01*
X113102064Y-97303719D01*
X113102063Y-97303717D01*
X113098528Y-97296780D01*
X113003220Y-97201472D01*
X112996283Y-97197937D01*
X112996281Y-97197936D01*
X112890066Y-97143817D01*
X112890065Y-97143817D01*
X112883126Y-97140281D01*
X112875432Y-97139062D01*
X112875431Y-97139062D01*
X112787334Y-97125109D01*
X112787332Y-97125109D01*
X112783488Y-97124500D01*
X112216512Y-97124500D01*
X112212668Y-97125109D01*
X112212666Y-97125109D01*
X112124569Y-97139062D01*
X112124568Y-97139062D01*
X112116874Y-97140281D01*
X112109935Y-97143817D01*
X112109934Y-97143817D01*
X112003719Y-97197936D01*
X112003717Y-97197937D01*
X111996780Y-97201472D01*
X111901472Y-97296780D01*
X111897937Y-97303717D01*
X111897936Y-97303719D01*
X111842565Y-97412392D01*
X111840281Y-97416874D01*
X111838055Y-97415740D01*
X111809108Y-97455588D01*
X111750911Y-97474500D01*
X111749089Y-97474500D01*
X111690898Y-97455593D01*
X111661945Y-97415740D01*
X111659719Y-97416874D01*
X111602064Y-97303719D01*
X111602063Y-97303717D01*
X111598528Y-97296780D01*
X111503220Y-97201472D01*
X111496283Y-97197937D01*
X111496281Y-97197936D01*
X111390066Y-97143817D01*
X111390065Y-97143817D01*
X111383126Y-97140281D01*
X111375432Y-97139062D01*
X111375431Y-97139062D01*
X111287334Y-97125109D01*
X111287332Y-97125109D01*
X111283488Y-97124500D01*
X110716512Y-97124500D01*
X110712668Y-97125109D01*
X110712666Y-97125109D01*
X110624569Y-97139062D01*
X110624568Y-97139062D01*
X110616874Y-97140281D01*
X110609935Y-97143817D01*
X110609934Y-97143817D01*
X110503719Y-97197936D01*
X110503717Y-97197937D01*
X110496780Y-97201472D01*
X110401472Y-97296780D01*
X110397937Y-97303717D01*
X110397936Y-97303719D01*
X110377216Y-97344385D01*
X110333951Y-97387650D01*
X110273519Y-97397221D01*
X110258417Y-97393596D01*
X110256243Y-97392890D01*
X110249304Y-97389354D01*
X110241609Y-97388135D01*
X110241608Y-97388135D01*
X110131697Y-97370727D01*
X110124000Y-97369508D01*
X110116303Y-97370727D01*
X110006391Y-97388135D01*
X110006390Y-97388135D01*
X109998696Y-97389354D01*
X109991756Y-97392890D01*
X109991750Y-97392892D01*
X109901840Y-97438704D01*
X109841408Y-97448276D01*
X109786891Y-97420499D01*
X109763342Y-97396950D01*
X109756405Y-97393415D01*
X109756403Y-97393414D01*
X109657244Y-97342890D01*
X109657243Y-97342890D01*
X109650304Y-97339354D01*
X109642610Y-97338135D01*
X109642609Y-97338135D01*
X109560365Y-97325109D01*
X109560363Y-97325109D01*
X109556519Y-97324500D01*
X109325030Y-97324500D01*
X109093482Y-97324501D01*
X109089639Y-97325110D01*
X109089634Y-97325110D01*
X109052783Y-97330947D01*
X108999696Y-97339354D01*
X108973103Y-97352904D01*
X108893597Y-97393414D01*
X108893595Y-97393415D01*
X108886658Y-97396950D01*
X108796950Y-97486658D01*
X108793415Y-97493595D01*
X108793414Y-97493597D01*
X108753405Y-97572120D01*
X108739354Y-97599696D01*
X108738135Y-97607390D01*
X108738135Y-97607391D01*
X108729408Y-97662494D01*
X108724500Y-97693481D01*
X108724501Y-98306518D01*
X108725110Y-98310361D01*
X108725110Y-98310366D01*
X108729476Y-98337930D01*
X108739354Y-98400304D01*
X108742890Y-98407243D01*
X108745299Y-98414659D01*
X108743721Y-98415172D01*
X108751845Y-98466468D01*
X108724067Y-98520984D01*
X108669550Y-98548761D01*
X108654064Y-98549980D01*
X108345936Y-98549980D01*
X108287745Y-98531073D01*
X108251781Y-98481573D01*
X108251781Y-98420387D01*
X108256689Y-98408539D01*
X108257110Y-98407243D01*
X108260646Y-98400304D01*
X108272170Y-98327548D01*
X108274891Y-98310365D01*
X108274891Y-98310363D01*
X108275500Y-98306519D01*
X108275499Y-97693482D01*
X108270592Y-97662494D01*
X108265454Y-97630057D01*
X108260646Y-97599696D01*
X108231848Y-97543177D01*
X108206586Y-97493597D01*
X108206585Y-97493595D01*
X108203050Y-97486658D01*
X108140660Y-97424268D01*
X108112883Y-97369751D01*
X108112883Y-97338777D01*
X108115145Y-97324501D01*
X108130492Y-97227600D01*
X108128259Y-97213498D01*
X108137828Y-97153070D01*
X108181093Y-97109803D01*
X108196278Y-97102066D01*
X108196282Y-97102063D01*
X108203220Y-97098528D01*
X108298528Y-97003220D01*
X108305010Y-96990500D01*
X108356183Y-96890066D01*
X108356183Y-96890065D01*
X108359719Y-96883126D01*
X108364514Y-96852855D01*
X108374891Y-96787334D01*
X108374891Y-96787332D01*
X108375500Y-96783488D01*
X108375500Y-96216512D01*
X108359719Y-96116874D01*
X108356183Y-96109934D01*
X108302064Y-96003719D01*
X108302063Y-96003717D01*
X108298528Y-95996780D01*
X108270752Y-95969004D01*
X108242975Y-95914487D01*
X108252546Y-95854055D01*
X108295811Y-95810790D01*
X108340756Y-95800000D01*
X115500500Y-95800000D01*
X115558691Y-95818907D01*
G37*
%TD.AperFunction*%
%TA.AperFunction,Conductor*%
G36*
X118959191Y-95818907D02*
G01*
X118995155Y-95868407D01*
X118999000Y-95892686D01*
X118999000Y-95963847D01*
X118981093Y-96018960D01*
X118931593Y-96054924D01*
X118917255Y-96058425D01*
X118905642Y-96060358D01*
X118845137Y-96051262D01*
X118801533Y-96008339D01*
X118791487Y-95947984D01*
X118792886Y-95940599D01*
X118795121Y-95930840D01*
X118799965Y-95920798D01*
X118799984Y-95898914D01*
X118818942Y-95840740D01*
X118868473Y-95804819D01*
X118898984Y-95800000D01*
X118901000Y-95800000D01*
X118959191Y-95818907D01*
G37*
%TD.AperFunction*%
%TD*%
%TA.AperFunction,NonConductor*%
G36*
X122546312Y-90019407D02*
G01*
X122582276Y-90068907D01*
X122582276Y-90130093D01*
X122546312Y-90179593D01*
X122528388Y-90189941D01*
X122377142Y-90257280D01*
X122377140Y-90257281D01*
X122372408Y-90259388D01*
X122227770Y-90364474D01*
X122224304Y-90368324D01*
X122224300Y-90368327D01*
X122116036Y-90488567D01*
X122108141Y-90497335D01*
X122018750Y-90652165D01*
X122017149Y-90657094D01*
X122017148Y-90657095D01*
X121965105Y-90817265D01*
X121965104Y-90817270D01*
X121963503Y-90822197D01*
X121944815Y-91000000D01*
X121963503Y-91177803D01*
X121965104Y-91182730D01*
X121965105Y-91182735D01*
X122017148Y-91342905D01*
X122018750Y-91347835D01*
X122108141Y-91502665D01*
X122227770Y-91635526D01*
X122372407Y-91740612D01*
X122454070Y-91776970D01*
X122530995Y-91811220D01*
X122530999Y-91811221D01*
X122535733Y-91813329D01*
X122540803Y-91814407D01*
X122540804Y-91814407D01*
X122574728Y-91821618D01*
X122710609Y-91850500D01*
X122889391Y-91850500D01*
X123025272Y-91821618D01*
X123059196Y-91814407D01*
X123059197Y-91814407D01*
X123064267Y-91813329D01*
X123069001Y-91811221D01*
X123069005Y-91811220D01*
X123145930Y-91776970D01*
X123227593Y-91740612D01*
X123372230Y-91635526D01*
X123491859Y-91502665D01*
X123581250Y-91347835D01*
X123582852Y-91342905D01*
X123634895Y-91182735D01*
X123634896Y-91182730D01*
X123636497Y-91177803D01*
X123655185Y-91000000D01*
X123636497Y-90822197D01*
X123634896Y-90817270D01*
X123634895Y-90817265D01*
X123582852Y-90657095D01*
X123582851Y-90657094D01*
X123581250Y-90652165D01*
X123491859Y-90497335D01*
X123372230Y-90364474D01*
X123227593Y-90259388D01*
X123071612Y-90189941D01*
X123026143Y-90149000D01*
X123013421Y-90089152D01*
X123038308Y-90033256D01*
X123091296Y-90002663D01*
X123111879Y-90000500D01*
X123900500Y-90000500D01*
X123958691Y-90019407D01*
X123994655Y-90068907D01*
X123999500Y-90099500D01*
X123999500Y-114900500D01*
X123980593Y-114958691D01*
X123931093Y-114994655D01*
X123900500Y-114999500D01*
X120094865Y-114999500D01*
X120036674Y-114980593D01*
X120000710Y-114931093D01*
X119996712Y-114913422D01*
X119988465Y-114850779D01*
X119987618Y-114844343D01*
X119937186Y-114722591D01*
X119856961Y-114618039D01*
X119752410Y-114537814D01*
X119750291Y-114536936D01*
X119715318Y-114501806D01*
X119271335Y-113724835D01*
X119258880Y-113664930D01*
X119284593Y-113608516D01*
X119291447Y-113601102D01*
X119291449Y-113601099D01*
X119292465Y-113600000D01*
X120544815Y-113600000D01*
X120563503Y-113777803D01*
X120565104Y-113782730D01*
X120565105Y-113782735D01*
X120589845Y-113858875D01*
X120618750Y-113947835D01*
X120708141Y-114102665D01*
X120827770Y-114235526D01*
X120831968Y-114238576D01*
X120831969Y-114238577D01*
X120865289Y-114262785D01*
X120972407Y-114340612D01*
X121054070Y-114376970D01*
X121130995Y-114411220D01*
X121130999Y-114411221D01*
X121135733Y-114413329D01*
X121140803Y-114414407D01*
X121140804Y-114414407D01*
X121174728Y-114421618D01*
X121310609Y-114450500D01*
X121489391Y-114450500D01*
X121625272Y-114421618D01*
X121659196Y-114414407D01*
X121659197Y-114414407D01*
X121664267Y-114413329D01*
X121669001Y-114411221D01*
X121669005Y-114411220D01*
X121745930Y-114376970D01*
X121827593Y-114340612D01*
X121934711Y-114262785D01*
X121968031Y-114238577D01*
X121968032Y-114238576D01*
X121972230Y-114235526D01*
X122091859Y-114102665D01*
X122181250Y-113947835D01*
X122210155Y-113858875D01*
X122234895Y-113782735D01*
X122234896Y-113782730D01*
X122236497Y-113777803D01*
X122255185Y-113600000D01*
X122236497Y-113422197D01*
X122234896Y-113417270D01*
X122234895Y-113417265D01*
X122182852Y-113257095D01*
X122182851Y-113257094D01*
X122181250Y-113252165D01*
X122104496Y-113119222D01*
X122094452Y-113101826D01*
X122094451Y-113101825D01*
X122091859Y-113097335D01*
X121972230Y-112964474D01*
X121827593Y-112859388D01*
X121745930Y-112823029D01*
X121669005Y-112788780D01*
X121669001Y-112788779D01*
X121664267Y-112786671D01*
X121659197Y-112785593D01*
X121659196Y-112785593D01*
X121625272Y-112778382D01*
X121489391Y-112749500D01*
X121310609Y-112749500D01*
X121174728Y-112778382D01*
X121140804Y-112785593D01*
X121140803Y-112785593D01*
X121135733Y-112786671D01*
X121130999Y-112788779D01*
X121130995Y-112788780D01*
X120977142Y-112857280D01*
X120977140Y-112857281D01*
X120972408Y-112859388D01*
X120827770Y-112964474D01*
X120824304Y-112968324D01*
X120824300Y-112968327D01*
X120768531Y-113030265D01*
X120708141Y-113097335D01*
X120705549Y-113101825D01*
X120705548Y-113101826D01*
X120695505Y-113119222D01*
X120618750Y-113252165D01*
X120617149Y-113257094D01*
X120617148Y-113257095D01*
X120565105Y-113417265D01*
X120565104Y-113417270D01*
X120563503Y-113422197D01*
X120544815Y-113600000D01*
X119292465Y-113600000D01*
X119297001Y-113595093D01*
X119344182Y-113488371D01*
X119349422Y-113427880D01*
X119353545Y-113380273D01*
X119353545Y-113380272D01*
X119354251Y-113372120D01*
X119326120Y-113258875D01*
X119318888Y-113247675D01*
X119267265Y-113167724D01*
X119267264Y-113167723D01*
X119262825Y-113160848D01*
X119262316Y-113160447D01*
X119238784Y-113108335D01*
X119251189Y-113048420D01*
X119264488Y-113030265D01*
X119291447Y-113001101D01*
X119297001Y-112995093D01*
X119344182Y-112888371D01*
X119346693Y-112859388D01*
X119353545Y-112780273D01*
X119353545Y-112780272D01*
X119354251Y-112772120D01*
X119326120Y-112658875D01*
X119321683Y-112652003D01*
X119267265Y-112567724D01*
X119267264Y-112567723D01*
X119262825Y-112560848D01*
X119262316Y-112560447D01*
X119238784Y-112508335D01*
X119251189Y-112448420D01*
X119264488Y-112430265D01*
X119291447Y-112401101D01*
X119297001Y-112395093D01*
X119344182Y-112288371D01*
X119349422Y-112227880D01*
X119353545Y-112180273D01*
X119353545Y-112180272D01*
X119354251Y-112172120D01*
X119341380Y-112120306D01*
X119345701Y-112059275D01*
X119385070Y-112012438D01*
X119450381Y-111998287D01*
X119493565Y-112003972D01*
X119493566Y-112003972D01*
X119500000Y-112004819D01*
X119630657Y-111987618D01*
X119752410Y-111937186D01*
X119856961Y-111856961D01*
X119937186Y-111752410D01*
X119987618Y-111630657D01*
X120004819Y-111500000D01*
X120001034Y-111500000D01*
X120000500Y-111494188D01*
X120000500Y-100224868D01*
X120000915Y-100215810D01*
X120002367Y-100200000D01*
X120004819Y-100200000D01*
X119987618Y-100069343D01*
X119937186Y-99947591D01*
X119856961Y-99843039D01*
X119752410Y-99762814D01*
X119630657Y-99712382D01*
X119500000Y-99695181D01*
X119412200Y-99706740D01*
X119352039Y-99695590D01*
X119309922Y-99651208D01*
X119301936Y-99590546D01*
X119308732Y-99568557D01*
X119340874Y-99495853D01*
X119344182Y-99488371D01*
X119349422Y-99427880D01*
X119353545Y-99380273D01*
X119353545Y-99380272D01*
X119354251Y-99372120D01*
X119326120Y-99258875D01*
X119321683Y-99252003D01*
X119267265Y-99167724D01*
X119267264Y-99167723D01*
X119262825Y-99160848D01*
X119262316Y-99160447D01*
X119238784Y-99108335D01*
X119251189Y-99048420D01*
X119264488Y-99030265D01*
X119291447Y-99001101D01*
X119297001Y-98995093D01*
X119344182Y-98888371D01*
X119349422Y-98827880D01*
X119353545Y-98780273D01*
X119353545Y-98780272D01*
X119354251Y-98772120D01*
X119326120Y-98658875D01*
X119321683Y-98652003D01*
X119267265Y-98567724D01*
X119267264Y-98567723D01*
X119262825Y-98560848D01*
X119262316Y-98560447D01*
X119238784Y-98508335D01*
X119251189Y-98448420D01*
X119264488Y-98430265D01*
X119291447Y-98401101D01*
X119297001Y-98395093D01*
X119344182Y-98288371D01*
X119349422Y-98227880D01*
X119353545Y-98180273D01*
X119353545Y-98180272D01*
X119354251Y-98172120D01*
X119326120Y-98058875D01*
X119263167Y-97961377D01*
X119247782Y-97898290D01*
X119249917Y-97875872D01*
X119275774Y-97818056D01*
X119291446Y-97801102D01*
X119297001Y-97795093D01*
X119344182Y-97688371D01*
X119349422Y-97627880D01*
X119353545Y-97580273D01*
X119353545Y-97580272D01*
X119354251Y-97572120D01*
X119326120Y-97458875D01*
X119312964Y-97438500D01*
X119297580Y-97375413D01*
X119318107Y-97159881D01*
X119326115Y-97129237D01*
X119344182Y-97088371D01*
X119344888Y-97080221D01*
X119353545Y-96980273D01*
X119353545Y-96980272D01*
X119354251Y-96972120D01*
X119352278Y-96964176D01*
X119345128Y-96935392D01*
X119342654Y-96902140D01*
X119443838Y-95839706D01*
X119468177Y-95783570D01*
X119520864Y-95752461D01*
X119529464Y-95750940D01*
X119630657Y-95737618D01*
X119752410Y-95687186D01*
X119856961Y-95606961D01*
X119937186Y-95502410D01*
X119987618Y-95380657D01*
X120004819Y-95250000D01*
X120001034Y-95250000D01*
X120000500Y-95244188D01*
X120000500Y-90099500D01*
X120019407Y-90041309D01*
X120068907Y-90005345D01*
X120099500Y-90000500D01*
X122488121Y-90000500D01*
X122546312Y-90019407D01*
G37*
%TD.AperFunction*%
%TA.AperFunction,Conductor*%
%TO.N,GND*%
G36*
X105829445Y-110073143D02*
G01*
X105872710Y-110116408D01*
X105883500Y-110161353D01*
X105883500Y-111384500D01*
X105864593Y-111442691D01*
X105815093Y-111478655D01*
X105784500Y-111483500D01*
X105436252Y-111483500D01*
X105412488Y-111488227D01*
X105387334Y-111493230D01*
X105387332Y-111493231D01*
X105377769Y-111495133D01*
X105311448Y-111539448D01*
X105267133Y-111605769D01*
X105265231Y-111615332D01*
X105265230Y-111615334D01*
X105261312Y-111635034D01*
X105255500Y-111664252D01*
X105255500Y-112303748D01*
X105256448Y-112308512D01*
X105264302Y-112347997D01*
X105267133Y-112362231D01*
X105311448Y-112428552D01*
X105377769Y-112472867D01*
X105387333Y-112474769D01*
X105394386Y-112477691D01*
X105440912Y-112517428D01*
X105455500Y-112569155D01*
X105455500Y-113998845D01*
X105436593Y-114057036D01*
X105394386Y-114090309D01*
X105387333Y-114093231D01*
X105377769Y-114095133D01*
X105311448Y-114139448D01*
X105267133Y-114205769D01*
X105255500Y-114264252D01*
X105255500Y-114701000D01*
X105236593Y-114759191D01*
X105187093Y-114795155D01*
X105156500Y-114800000D01*
X104299000Y-114800000D01*
X104240809Y-114781093D01*
X104204845Y-114731593D01*
X104200000Y-114701000D01*
X104200000Y-111289500D01*
X104218907Y-111231309D01*
X104268407Y-111195345D01*
X104298999Y-111190500D01*
X104742967Y-111190501D01*
X104769841Y-111190501D01*
X104774644Y-111189538D01*
X104774647Y-111189538D01*
X104819015Y-111180645D01*
X104819018Y-111180644D01*
X104828561Y-111178731D01*
X104877745Y-111145805D01*
X105155804Y-110867746D01*
X105189003Y-110817901D01*
X105200500Y-110759838D01*
X105200500Y-110646353D01*
X105219407Y-110588162D01*
X105229496Y-110576349D01*
X105714496Y-110091349D01*
X105769013Y-110063572D01*
X105829445Y-110073143D01*
G37*
%TD.AperFunction*%
%TA.AperFunction,Conductor*%
G36*
X116945787Y-108667487D02*
G01*
X116957600Y-108677577D01*
X117370984Y-109090962D01*
X117398761Y-109145478D01*
X117399980Y-109160965D01*
X117399980Y-109646972D01*
X117399677Y-109651097D01*
X117398055Y-109655822D01*
X117398398Y-109664956D01*
X117399910Y-109705241D01*
X117399980Y-109708954D01*
X117399980Y-109728428D01*
X117400805Y-109732858D01*
X117401141Y-109738051D01*
X117402254Y-109767688D01*
X117405860Y-109776082D01*
X117405861Y-109776085D01*
X117406797Y-109778263D01*
X117413163Y-109799214D01*
X117415271Y-109810533D01*
X117429248Y-109833208D01*
X117435931Y-109846075D01*
X117446444Y-109870543D01*
X117450458Y-109875429D01*
X117454822Y-109879793D01*
X117469093Y-109897848D01*
X117474012Y-109905828D01*
X117497249Y-109923498D01*
X117507319Y-109932290D01*
X117770504Y-110195475D01*
X117798281Y-110249992D01*
X117799500Y-110265478D01*
X117799499Y-110769841D01*
X117800462Y-110774644D01*
X117800462Y-110774647D01*
X117809355Y-110819015D01*
X117809356Y-110819018D01*
X117811269Y-110828561D01*
X117844195Y-110877745D01*
X118122254Y-111155804D01*
X118126329Y-111158518D01*
X118126330Y-111158519D01*
X118156677Y-111178731D01*
X118172099Y-111189003D01*
X118230162Y-111200500D01*
X118701000Y-111200500D01*
X118759191Y-111219407D01*
X118795155Y-111268907D01*
X118800000Y-111299500D01*
X118800000Y-111466040D01*
X118797482Y-111488227D01*
X118794857Y-111499642D01*
X118796199Y-111505572D01*
X118797309Y-111515423D01*
X118797309Y-111515431D01*
X118809343Y-111622226D01*
X118813233Y-111656750D01*
X118847424Y-111754463D01*
X118857667Y-111783737D01*
X118859039Y-111844907D01*
X118824195Y-111895201D01*
X118811237Y-111903558D01*
X118782206Y-111919222D01*
X118702999Y-112004907D01*
X118655818Y-112111629D01*
X118645749Y-112227880D01*
X118647722Y-112235822D01*
X118647722Y-112235823D01*
X118670289Y-112326667D01*
X118673880Y-112341125D01*
X118678317Y-112347996D01*
X118678317Y-112347997D01*
X118730331Y-112428552D01*
X118737175Y-112439152D01*
X118737684Y-112439553D01*
X118761216Y-112491665D01*
X118748811Y-112551580D01*
X118735512Y-112569735D01*
X118702999Y-112604907D01*
X118655818Y-112711629D01*
X118655112Y-112719777D01*
X118655112Y-112719778D01*
X118647798Y-112804226D01*
X118645749Y-112827880D01*
X118647722Y-112835822D01*
X118647722Y-112835823D01*
X118652183Y-112853779D01*
X118673880Y-112941125D01*
X118678317Y-112947996D01*
X118678317Y-112947997D01*
X118708727Y-112995093D01*
X118737175Y-113039152D01*
X118737684Y-113039553D01*
X118761216Y-113091665D01*
X118748811Y-113151580D01*
X118735512Y-113169735D01*
X118702999Y-113204907D01*
X118655818Y-113311629D01*
X118655112Y-113319777D01*
X118655112Y-113319778D01*
X118646455Y-113419727D01*
X118645749Y-113427880D01*
X118673880Y-113541125D01*
X118678317Y-113547996D01*
X118678317Y-113547997D01*
X118708727Y-113595093D01*
X118737175Y-113639152D01*
X118737684Y-113639553D01*
X118761216Y-113691665D01*
X118748811Y-113751580D01*
X118735512Y-113769735D01*
X118702999Y-113804907D01*
X118655818Y-113911629D01*
X118655112Y-113919777D01*
X118655112Y-113919778D01*
X118648264Y-113998845D01*
X118645749Y-114027880D01*
X118647722Y-114035822D01*
X118647722Y-114035823D01*
X118652992Y-114057036D01*
X118673880Y-114141125D01*
X118678317Y-114147996D01*
X118678317Y-114147997D01*
X118708727Y-114195093D01*
X118737175Y-114239152D01*
X118828811Y-114311392D01*
X118836529Y-114314102D01*
X118836530Y-114314103D01*
X118933803Y-114348263D01*
X118982442Y-114385384D01*
X119000000Y-114441671D01*
X119000000Y-114444043D01*
X118981093Y-114502234D01*
X118971004Y-114514047D01*
X118949255Y-114535796D01*
X118865331Y-114669360D01*
X118863495Y-114674608D01*
X118842819Y-114733697D01*
X118805754Y-114782378D01*
X118749374Y-114800000D01*
X117855500Y-114800000D01*
X117797309Y-114781093D01*
X117761345Y-114731593D01*
X117756500Y-114701000D01*
X117756500Y-114264252D01*
X117744867Y-114205769D01*
X117700552Y-114139448D01*
X117634231Y-114095133D01*
X117624667Y-114093231D01*
X117617614Y-114090309D01*
X117571088Y-114050572D01*
X117556500Y-113998845D01*
X117556500Y-112569155D01*
X117575407Y-112510964D01*
X117617614Y-112477691D01*
X117624667Y-112474769D01*
X117634231Y-112472867D01*
X117700552Y-112428552D01*
X117744867Y-112362231D01*
X117747699Y-112347997D01*
X117755552Y-112308512D01*
X117756500Y-112303748D01*
X117756500Y-111664252D01*
X117750688Y-111635034D01*
X117746770Y-111615334D01*
X117746769Y-111615332D01*
X117744867Y-111605769D01*
X117700552Y-111539448D01*
X117634231Y-111495133D01*
X117624668Y-111493231D01*
X117624666Y-111493230D01*
X117599512Y-111488227D01*
X117575748Y-111483500D01*
X116936252Y-111483500D01*
X116912488Y-111488227D01*
X116887334Y-111493230D01*
X116887332Y-111493231D01*
X116877769Y-111495133D01*
X116811448Y-111539448D01*
X116767133Y-111605769D01*
X116765231Y-111615333D01*
X116762309Y-111622386D01*
X116722572Y-111668912D01*
X116670845Y-111683500D01*
X115887061Y-111683500D01*
X115828870Y-111664593D01*
X115792906Y-111615093D01*
X115792906Y-111553907D01*
X115826109Y-111506489D01*
X115847951Y-111489424D01*
X115852247Y-111484448D01*
X115938518Y-111384500D01*
X115982564Y-111333472D01*
X116001559Y-111300035D01*
X116081934Y-111158550D01*
X116081935Y-111158547D01*
X116084323Y-111154344D01*
X116086268Y-111148499D01*
X116147824Y-110963454D01*
X116147824Y-110963452D01*
X116149351Y-110958863D01*
X116159167Y-110881165D01*
X116174823Y-110757228D01*
X116175171Y-110754474D01*
X116175210Y-110751699D01*
X116175402Y-110748951D01*
X116176714Y-110749043D01*
X116194925Y-110695618D01*
X116244937Y-110660369D01*
X116306116Y-110661248D01*
X116334441Y-110676411D01*
X116397159Y-110724536D01*
X116543238Y-110785044D01*
X116700000Y-110805682D01*
X116856762Y-110785044D01*
X117002841Y-110724536D01*
X117128282Y-110628282D01*
X117224536Y-110502841D01*
X117285044Y-110356762D01*
X117305682Y-110200000D01*
X117285044Y-110043238D01*
X117224536Y-109897159D01*
X117128282Y-109771718D01*
X117002841Y-109675464D01*
X116856762Y-109614956D01*
X116700000Y-109594318D01*
X116588716Y-109608969D01*
X116528557Y-109597819D01*
X116505791Y-109580820D01*
X116149831Y-109224860D01*
X116147131Y-109221731D01*
X116144936Y-109217242D01*
X116108689Y-109183618D01*
X116106013Y-109181042D01*
X116092234Y-109167263D01*
X116088524Y-109164718D01*
X116084611Y-109161282D01*
X116069566Y-109147326D01*
X116062865Y-109141110D01*
X116052175Y-109136845D01*
X116032859Y-109126531D01*
X116030904Y-109125190D01*
X116030901Y-109125189D01*
X116023365Y-109120019D01*
X115997452Y-109113870D01*
X115983627Y-109109497D01*
X115965379Y-109102217D01*
X115965377Y-109102217D01*
X115958889Y-109099628D01*
X115952596Y-109099011D01*
X115946427Y-109099011D01*
X115923568Y-109096336D01*
X115923338Y-109096281D01*
X115923336Y-109096281D01*
X115914445Y-109094171D01*
X115885524Y-109098107D01*
X115872174Y-109099011D01*
X113889886Y-109099011D01*
X113831695Y-109080104D01*
X113795731Y-109030604D01*
X113792105Y-108984524D01*
X113804273Y-108907697D01*
X113805492Y-108900000D01*
X113789065Y-108796281D01*
X113786865Y-108782392D01*
X113786865Y-108782391D01*
X113785646Y-108774696D01*
X113785493Y-108774396D01*
X113785496Y-108716984D01*
X113821461Y-108667485D01*
X113879649Y-108648580D01*
X116887596Y-108648580D01*
X116945787Y-108667487D01*
G37*
%TD.AperFunction*%
%TA.AperFunction,Conductor*%
G36*
X114495324Y-109718918D02*
G01*
X114531288Y-109768418D01*
X114531288Y-109829604D01*
X114499167Y-109876166D01*
X114385220Y-109967781D01*
X114385217Y-109967783D01*
X114381447Y-109970815D01*
X114378333Y-109974526D01*
X114378332Y-109974527D01*
X114259280Y-110116408D01*
X114249024Y-110128630D01*
X114246689Y-110132878D01*
X114246688Y-110132879D01*
X114239955Y-110145126D01*
X114149776Y-110309162D01*
X114087484Y-110505532D01*
X114086944Y-110510344D01*
X114086944Y-110510345D01*
X114066163Y-110695618D01*
X114064520Y-110710262D01*
X114081759Y-110915553D01*
X114138544Y-111113586D01*
X114232712Y-111296818D01*
X114360677Y-111458270D01*
X114420414Y-111509110D01*
X114452472Y-111561220D01*
X114447778Y-111622226D01*
X114408123Y-111668821D01*
X114356248Y-111683500D01*
X113874514Y-111683500D01*
X113870385Y-111683197D01*
X113865658Y-111681574D01*
X113824266Y-111683128D01*
X113816223Y-111683430D01*
X113812509Y-111683500D01*
X113793052Y-111683500D01*
X113788622Y-111684325D01*
X113783436Y-111684661D01*
X113762925Y-111685431D01*
X113762924Y-111685431D01*
X113753792Y-111685774D01*
X113745398Y-111689380D01*
X113745395Y-111689381D01*
X113743217Y-111690317D01*
X113722266Y-111696683D01*
X113710947Y-111698791D01*
X113688269Y-111712770D01*
X113675410Y-111719450D01*
X113650938Y-111729964D01*
X113646051Y-111733977D01*
X113641685Y-111738343D01*
X113623629Y-111752615D01*
X113623432Y-111752736D01*
X113623431Y-111752737D01*
X113615652Y-111757532D01*
X113610120Y-111764807D01*
X113610119Y-111764808D01*
X113597993Y-111780755D01*
X113589193Y-111790835D01*
X113105488Y-112274540D01*
X113050971Y-112302317D01*
X112997115Y-112295798D01*
X112993316Y-112294201D01*
X112989055Y-112291897D01*
X112890655Y-112261437D01*
X112796875Y-112232407D01*
X112796871Y-112232406D01*
X112792254Y-112230977D01*
X112787446Y-112230472D01*
X112787443Y-112230471D01*
X112592185Y-112209949D01*
X112592183Y-112209949D01*
X112587369Y-112209443D01*
X112527354Y-112214905D01*
X112387022Y-112227675D01*
X112387017Y-112227676D01*
X112382203Y-112228114D01*
X112184572Y-112286280D01*
X112180288Y-112288519D01*
X112180287Y-112288520D01*
X112153896Y-112302317D01*
X112002002Y-112381726D01*
X111998231Y-112384758D01*
X111845220Y-112507781D01*
X111845217Y-112507783D01*
X111841447Y-112510815D01*
X111838333Y-112514526D01*
X111838332Y-112514527D01*
X111792494Y-112569155D01*
X111709024Y-112668630D01*
X111706689Y-112672878D01*
X111706688Y-112672879D01*
X111699955Y-112685126D01*
X111609776Y-112849162D01*
X111547484Y-113045532D01*
X111546944Y-113050344D01*
X111546944Y-113050345D01*
X111543531Y-113080778D01*
X111524520Y-113250262D01*
X111525526Y-113262244D01*
X111538751Y-113419727D01*
X111541759Y-113455553D01*
X111598544Y-113653586D01*
X111692712Y-113836818D01*
X111820677Y-113998270D01*
X111824357Y-114001402D01*
X111824359Y-114001404D01*
X111882132Y-114050572D01*
X111977564Y-114131791D01*
X111981787Y-114134151D01*
X111981791Y-114134154D01*
X112021342Y-114156258D01*
X112157398Y-114232297D01*
X112161996Y-114233791D01*
X112348724Y-114294463D01*
X112348726Y-114294464D01*
X112353329Y-114295959D01*
X112557894Y-114320351D01*
X112562716Y-114319980D01*
X112562719Y-114319980D01*
X112630541Y-114314761D01*
X112763300Y-114304546D01*
X112961725Y-114249145D01*
X112966038Y-114246966D01*
X112966044Y-114246964D01*
X113141289Y-114158441D01*
X113141291Y-114158440D01*
X113145610Y-114156258D01*
X113156746Y-114147558D01*
X113304135Y-114032406D01*
X113304139Y-114032402D01*
X113307951Y-114029424D01*
X113316322Y-114019727D01*
X113416086Y-113904147D01*
X113442564Y-113873472D01*
X113444957Y-113869260D01*
X113541934Y-113698550D01*
X113541935Y-113698547D01*
X113544323Y-113694344D01*
X113557882Y-113653586D01*
X113607824Y-113503454D01*
X113607824Y-113503452D01*
X113609351Y-113498863D01*
X113610677Y-113488371D01*
X113634823Y-113297228D01*
X113635171Y-113294474D01*
X113635583Y-113265000D01*
X113635313Y-113262244D01*
X113615952Y-113064780D01*
X113615951Y-113064776D01*
X113615480Y-113059970D01*
X113608214Y-113035902D01*
X113557333Y-112867380D01*
X113555935Y-112862749D01*
X113524818Y-112804225D01*
X113514194Y-112743971D01*
X113542226Y-112687745D01*
X113916475Y-112313496D01*
X113970992Y-112285719D01*
X113986479Y-112284500D01*
X114381800Y-112284500D01*
X114439991Y-112303407D01*
X114475955Y-112352907D01*
X114475955Y-112414093D01*
X114443833Y-112460655D01*
X114385225Y-112507777D01*
X114385223Y-112507779D01*
X114381447Y-112510815D01*
X114378333Y-112514526D01*
X114378332Y-112514527D01*
X114332494Y-112569155D01*
X114249024Y-112668630D01*
X114246689Y-112672878D01*
X114246688Y-112672879D01*
X114239955Y-112685126D01*
X114149776Y-112849162D01*
X114087484Y-113045532D01*
X114086944Y-113050344D01*
X114086944Y-113050345D01*
X114083531Y-113080778D01*
X114064520Y-113250262D01*
X114065526Y-113262244D01*
X114078751Y-113419727D01*
X114081759Y-113455553D01*
X114138544Y-113653586D01*
X114232712Y-113836818D01*
X114360677Y-113998270D01*
X114364357Y-114001402D01*
X114364359Y-114001404D01*
X114422132Y-114050572D01*
X114517564Y-114131791D01*
X114521787Y-114134151D01*
X114521791Y-114134154D01*
X114561342Y-114156258D01*
X114697398Y-114232297D01*
X114701996Y-114233791D01*
X114888724Y-114294463D01*
X114888726Y-114294464D01*
X114893329Y-114295959D01*
X115097894Y-114320351D01*
X115102716Y-114319980D01*
X115102719Y-114319980D01*
X115170541Y-114314761D01*
X115303300Y-114304546D01*
X115501725Y-114249145D01*
X115506038Y-114246966D01*
X115506044Y-114246964D01*
X115681289Y-114158441D01*
X115681291Y-114158440D01*
X115685610Y-114156258D01*
X115696746Y-114147558D01*
X115844135Y-114032406D01*
X115844139Y-114032402D01*
X115847951Y-114029424D01*
X115856322Y-114019727D01*
X115956086Y-113904147D01*
X115982564Y-113873472D01*
X115984957Y-113869260D01*
X116081934Y-113698550D01*
X116081935Y-113698547D01*
X116084323Y-113694344D01*
X116097882Y-113653586D01*
X116147824Y-113503454D01*
X116147824Y-113503452D01*
X116149351Y-113498863D01*
X116150677Y-113488371D01*
X116174823Y-113297228D01*
X116175171Y-113294474D01*
X116175583Y-113265000D01*
X116175313Y-113262244D01*
X116155952Y-113064780D01*
X116155951Y-113064776D01*
X116155480Y-113059970D01*
X116148214Y-113035902D01*
X116097333Y-112867380D01*
X116095935Y-112862749D01*
X115999218Y-112680849D01*
X115869011Y-112521200D01*
X115864452Y-112517428D01*
X115816418Y-112477691D01*
X115794768Y-112459781D01*
X115761983Y-112408120D01*
X115765825Y-112347056D01*
X115804826Y-112299912D01*
X115857873Y-112284500D01*
X116670845Y-112284500D01*
X116729036Y-112303407D01*
X116762309Y-112345614D01*
X116765230Y-112352666D01*
X116767133Y-112362231D01*
X116811448Y-112428552D01*
X116877769Y-112472867D01*
X116887333Y-112474769D01*
X116894386Y-112477691D01*
X116940912Y-112517428D01*
X116955500Y-112569155D01*
X116955500Y-113998845D01*
X116936593Y-114057036D01*
X116894386Y-114090309D01*
X116887333Y-114093231D01*
X116877769Y-114095133D01*
X116811448Y-114139448D01*
X116767133Y-114205769D01*
X116755500Y-114264252D01*
X116755500Y-114701000D01*
X116736593Y-114759191D01*
X116687093Y-114795155D01*
X116656500Y-114800000D01*
X106355500Y-114800000D01*
X106297309Y-114781093D01*
X106261345Y-114731593D01*
X106256500Y-114701000D01*
X106256500Y-114264252D01*
X106244867Y-114205769D01*
X106200552Y-114139448D01*
X106134231Y-114095133D01*
X106124667Y-114093231D01*
X106117614Y-114090309D01*
X106071088Y-114050572D01*
X106056500Y-113998845D01*
X106056500Y-112569155D01*
X106075407Y-112510964D01*
X106117614Y-112477691D01*
X106124667Y-112474769D01*
X106134231Y-112472867D01*
X106200552Y-112428552D01*
X106244867Y-112362231D01*
X106246770Y-112352666D01*
X106249691Y-112345614D01*
X106289428Y-112299088D01*
X106341155Y-112284500D01*
X106761800Y-112284500D01*
X106819991Y-112303407D01*
X106855955Y-112352907D01*
X106855955Y-112414093D01*
X106823833Y-112460655D01*
X106765225Y-112507777D01*
X106765223Y-112507779D01*
X106761447Y-112510815D01*
X106758333Y-112514526D01*
X106758332Y-112514527D01*
X106712494Y-112569155D01*
X106629024Y-112668630D01*
X106626689Y-112672878D01*
X106626688Y-112672879D01*
X106619955Y-112685126D01*
X106529776Y-112849162D01*
X106467484Y-113045532D01*
X106466944Y-113050344D01*
X106466944Y-113050345D01*
X106463531Y-113080778D01*
X106444520Y-113250262D01*
X106445526Y-113262244D01*
X106458751Y-113419727D01*
X106461759Y-113455553D01*
X106518544Y-113653586D01*
X106612712Y-113836818D01*
X106740677Y-113998270D01*
X106744357Y-114001402D01*
X106744359Y-114001404D01*
X106802132Y-114050572D01*
X106897564Y-114131791D01*
X106901787Y-114134151D01*
X106901791Y-114134154D01*
X106941342Y-114156258D01*
X107077398Y-114232297D01*
X107081996Y-114233791D01*
X107268724Y-114294463D01*
X107268726Y-114294464D01*
X107273329Y-114295959D01*
X107477894Y-114320351D01*
X107482716Y-114319980D01*
X107482719Y-114319980D01*
X107550541Y-114314761D01*
X107683300Y-114304546D01*
X107881725Y-114249145D01*
X107886038Y-114246966D01*
X107886044Y-114246964D01*
X108061289Y-114158441D01*
X108061291Y-114158440D01*
X108065610Y-114156258D01*
X108076746Y-114147558D01*
X108224135Y-114032406D01*
X108224139Y-114032402D01*
X108227951Y-114029424D01*
X108236322Y-114019727D01*
X108336086Y-113904147D01*
X108362564Y-113873472D01*
X108364957Y-113869260D01*
X108461934Y-113698550D01*
X108461935Y-113698547D01*
X108464323Y-113694344D01*
X108477882Y-113653586D01*
X108527824Y-113503454D01*
X108527824Y-113503452D01*
X108529351Y-113498863D01*
X108530677Y-113488371D01*
X108554823Y-113297228D01*
X108555171Y-113294474D01*
X108555583Y-113265000D01*
X108555313Y-113262244D01*
X108535952Y-113064780D01*
X108535951Y-113064776D01*
X108535480Y-113059970D01*
X108528214Y-113035902D01*
X108477333Y-112867380D01*
X108475935Y-112862749D01*
X108379218Y-112680849D01*
X108249011Y-112521200D01*
X108244452Y-112517428D01*
X108196418Y-112477691D01*
X108174768Y-112459781D01*
X108141983Y-112408120D01*
X108145825Y-112347056D01*
X108184826Y-112299912D01*
X108237873Y-112284500D01*
X109301800Y-112284500D01*
X109359991Y-112303407D01*
X109395955Y-112352907D01*
X109395955Y-112414093D01*
X109363833Y-112460655D01*
X109305225Y-112507777D01*
X109305223Y-112507779D01*
X109301447Y-112510815D01*
X109298333Y-112514526D01*
X109298332Y-112514527D01*
X109252494Y-112569155D01*
X109169024Y-112668630D01*
X109166689Y-112672878D01*
X109166688Y-112672879D01*
X109159955Y-112685126D01*
X109069776Y-112849162D01*
X109007484Y-113045532D01*
X109006944Y-113050344D01*
X109006944Y-113050345D01*
X109003531Y-113080778D01*
X108984520Y-113250262D01*
X108985526Y-113262244D01*
X108998751Y-113419727D01*
X109001759Y-113455553D01*
X109058544Y-113653586D01*
X109152712Y-113836818D01*
X109280677Y-113998270D01*
X109284357Y-114001402D01*
X109284359Y-114001404D01*
X109342132Y-114050572D01*
X109437564Y-114131791D01*
X109441787Y-114134151D01*
X109441791Y-114134154D01*
X109481342Y-114156258D01*
X109617398Y-114232297D01*
X109621996Y-114233791D01*
X109808724Y-114294463D01*
X109808726Y-114294464D01*
X109813329Y-114295959D01*
X110017894Y-114320351D01*
X110022716Y-114319980D01*
X110022719Y-114319980D01*
X110090541Y-114314761D01*
X110223300Y-114304546D01*
X110421725Y-114249145D01*
X110426038Y-114246966D01*
X110426044Y-114246964D01*
X110601289Y-114158441D01*
X110601291Y-114158440D01*
X110605610Y-114156258D01*
X110616746Y-114147558D01*
X110764135Y-114032406D01*
X110764139Y-114032402D01*
X110767951Y-114029424D01*
X110776322Y-114019727D01*
X110876086Y-113904147D01*
X110902564Y-113873472D01*
X110904957Y-113869260D01*
X111001934Y-113698550D01*
X111001935Y-113698547D01*
X111004323Y-113694344D01*
X111017882Y-113653586D01*
X111067824Y-113503454D01*
X111067824Y-113503452D01*
X111069351Y-113498863D01*
X111070677Y-113488371D01*
X111094823Y-113297228D01*
X111095171Y-113294474D01*
X111095583Y-113265000D01*
X111095313Y-113262244D01*
X111075952Y-113064780D01*
X111075951Y-113064776D01*
X111075480Y-113059970D01*
X111068214Y-113035902D01*
X111017333Y-112867380D01*
X111015935Y-112862749D01*
X110919218Y-112680849D01*
X110789011Y-112521200D01*
X110784452Y-112517428D01*
X110736418Y-112477691D01*
X110714768Y-112459781D01*
X110681983Y-112408120D01*
X110685825Y-112347056D01*
X110724826Y-112299912D01*
X110777873Y-112284500D01*
X111227492Y-112284500D01*
X111231617Y-112284803D01*
X111236342Y-112286425D01*
X111285761Y-112284570D01*
X111289474Y-112284500D01*
X111308948Y-112284500D01*
X111313378Y-112283675D01*
X111318571Y-112283339D01*
X111334602Y-112282737D01*
X111339075Y-112282569D01*
X111348208Y-112282226D01*
X111356602Y-112278620D01*
X111356605Y-112278619D01*
X111358783Y-112277683D01*
X111379734Y-112271317D01*
X111391053Y-112269209D01*
X111413729Y-112255232D01*
X111426596Y-112248548D01*
X111444642Y-112240795D01*
X111444643Y-112240794D01*
X111451063Y-112238036D01*
X111455949Y-112234022D01*
X111460313Y-112229658D01*
X111478368Y-112215387D01*
X111486348Y-112210468D01*
X111504018Y-112187231D01*
X111512810Y-112177161D01*
X112001994Y-111687977D01*
X112056511Y-111660200D01*
X112120295Y-111671561D01*
X112157398Y-111692297D01*
X112161996Y-111693791D01*
X112348724Y-111754463D01*
X112348726Y-111754464D01*
X112353329Y-111755959D01*
X112557894Y-111780351D01*
X112562716Y-111779980D01*
X112562719Y-111779980D01*
X112630541Y-111774761D01*
X112763300Y-111764546D01*
X112961725Y-111709145D01*
X112966038Y-111706966D01*
X112966044Y-111706964D01*
X113141289Y-111618441D01*
X113141291Y-111618440D01*
X113145610Y-111616258D01*
X113149427Y-111613276D01*
X113304135Y-111492406D01*
X113304139Y-111492402D01*
X113307951Y-111489424D01*
X113312247Y-111484448D01*
X113398518Y-111384500D01*
X113442564Y-111333472D01*
X113461559Y-111300035D01*
X113541934Y-111158550D01*
X113541935Y-111158547D01*
X113544323Y-111154344D01*
X113546268Y-111148499D01*
X113607824Y-110963454D01*
X113607824Y-110963452D01*
X113609351Y-110958863D01*
X113619167Y-110881165D01*
X113634823Y-110757228D01*
X113635171Y-110754474D01*
X113635583Y-110725000D01*
X113615480Y-110519970D01*
X113610309Y-110502841D01*
X113557333Y-110327380D01*
X113555935Y-110322749D01*
X113459218Y-110140849D01*
X113329011Y-109981200D01*
X113200990Y-109875291D01*
X113168205Y-109823631D01*
X113172047Y-109762567D01*
X113211048Y-109715423D01*
X113264095Y-109700011D01*
X114437133Y-109700011D01*
X114495324Y-109718918D01*
G37*
%TD.AperFunction*%
%TA.AperFunction,Conductor*%
G36*
X108450587Y-106906321D02*
G01*
X108486788Y-106960500D01*
X108497888Y-106977112D01*
X108584883Y-107035240D01*
X108661599Y-107050500D01*
X108750000Y-107050500D01*
X108838400Y-107050499D01*
X108870547Y-107044105D01*
X108905551Y-107037143D01*
X108905553Y-107037142D01*
X108915117Y-107035240D01*
X108945001Y-107015272D01*
X109003886Y-106998664D01*
X109054999Y-107015272D01*
X109084883Y-107035240D01*
X109161599Y-107050500D01*
X109250000Y-107050500D01*
X109338400Y-107050499D01*
X109370547Y-107044105D01*
X109405551Y-107037143D01*
X109405553Y-107037142D01*
X109415117Y-107035240D01*
X109445001Y-107015272D01*
X109503886Y-106998664D01*
X109554999Y-107015272D01*
X109584883Y-107035240D01*
X109661599Y-107050500D01*
X109750000Y-107050500D01*
X109838400Y-107050499D01*
X109843164Y-107049551D01*
X109843168Y-107049551D01*
X109883711Y-107041487D01*
X109944472Y-107048679D01*
X109989401Y-107090213D01*
X109992601Y-107096702D01*
X109993206Y-107097696D01*
X109995964Y-107104115D01*
X109999978Y-107109001D01*
X110004342Y-107113365D01*
X110018613Y-107131420D01*
X110023532Y-107139400D01*
X110030807Y-107144932D01*
X110030808Y-107144933D01*
X110046764Y-107157066D01*
X110056844Y-107165867D01*
X110346473Y-107455497D01*
X110374250Y-107510013D01*
X110364679Y-107570445D01*
X110321414Y-107613710D01*
X110276469Y-107624500D01*
X110016512Y-107624500D01*
X110012668Y-107625109D01*
X110012666Y-107625109D01*
X109924569Y-107639062D01*
X109924568Y-107639062D01*
X109916874Y-107640281D01*
X109909935Y-107643817D01*
X109909934Y-107643817D01*
X109803719Y-107697936D01*
X109803717Y-107697937D01*
X109796780Y-107701472D01*
X109701472Y-107796780D01*
X109697937Y-107803717D01*
X109697936Y-107803719D01*
X109668682Y-107861133D01*
X109640281Y-107916874D01*
X109639062Y-107924568D01*
X109639062Y-107924569D01*
X109627194Y-107999500D01*
X109624500Y-108016512D01*
X109624500Y-108583488D01*
X109625109Y-108587332D01*
X109625109Y-108587334D01*
X109637804Y-108667485D01*
X109640281Y-108683126D01*
X109643817Y-108690065D01*
X109643817Y-108690066D01*
X109690860Y-108782392D01*
X109701472Y-108803220D01*
X109796780Y-108898528D01*
X109803717Y-108902063D01*
X109803719Y-108902064D01*
X109849841Y-108925564D01*
X109916874Y-108959719D01*
X109924568Y-108960938D01*
X109924569Y-108960938D01*
X110012666Y-108974891D01*
X110012668Y-108974891D01*
X110016512Y-108975500D01*
X110284521Y-108975500D01*
X110342712Y-108994407D01*
X110354525Y-109004496D01*
X110924191Y-109574162D01*
X110926891Y-109577291D01*
X110929086Y-109581780D01*
X110935789Y-109587998D01*
X110965333Y-109615404D01*
X110968009Y-109617980D01*
X110981788Y-109631759D01*
X110985498Y-109634304D01*
X110989411Y-109637740D01*
X111011157Y-109657912D01*
X111019643Y-109661298D01*
X111019645Y-109661299D01*
X111021848Y-109662178D01*
X111041159Y-109672489D01*
X111043118Y-109673833D01*
X111043121Y-109673834D01*
X111050657Y-109679004D01*
X111059549Y-109681114D01*
X111059551Y-109681115D01*
X111076577Y-109685155D01*
X111090396Y-109689525D01*
X111115133Y-109699394D01*
X111121426Y-109700011D01*
X111127596Y-109700011D01*
X111150452Y-109702686D01*
X111159577Y-109704851D01*
X111188499Y-109700915D01*
X111201848Y-109700011D01*
X111897133Y-109700011D01*
X111955324Y-109718918D01*
X111991288Y-109768418D01*
X111991288Y-109829604D01*
X111959167Y-109876166D01*
X111845220Y-109967781D01*
X111845217Y-109967783D01*
X111841447Y-109970815D01*
X111838333Y-109974526D01*
X111838332Y-109974527D01*
X111719280Y-110116408D01*
X111709024Y-110128630D01*
X111706689Y-110132878D01*
X111706688Y-110132879D01*
X111699955Y-110145126D01*
X111609776Y-110309162D01*
X111547484Y-110505532D01*
X111546944Y-110510344D01*
X111546944Y-110510345D01*
X111526163Y-110695618D01*
X111524520Y-110710262D01*
X111541759Y-110915553D01*
X111598544Y-111113586D01*
X111600756Y-111117891D01*
X111600758Y-111117895D01*
X111608962Y-111133858D01*
X111618745Y-111194256D01*
X111590914Y-111249115D01*
X111185525Y-111654504D01*
X111131008Y-111682281D01*
X111115521Y-111683500D01*
X110807061Y-111683500D01*
X110748870Y-111664593D01*
X110712906Y-111615093D01*
X110712906Y-111553907D01*
X110746109Y-111506489D01*
X110767951Y-111489424D01*
X110772247Y-111484448D01*
X110858518Y-111384500D01*
X110902564Y-111333472D01*
X110921559Y-111300035D01*
X111001934Y-111158550D01*
X111001935Y-111158547D01*
X111004323Y-111154344D01*
X111006268Y-111148499D01*
X111067824Y-110963454D01*
X111067824Y-110963452D01*
X111069351Y-110958863D01*
X111079167Y-110881165D01*
X111094823Y-110757228D01*
X111095171Y-110754474D01*
X111095583Y-110725000D01*
X111075480Y-110519970D01*
X111070309Y-110502841D01*
X111017333Y-110327380D01*
X111015935Y-110322749D01*
X110919218Y-110140849D01*
X110789011Y-109981200D01*
X110763670Y-109960236D01*
X110634002Y-109852965D01*
X110634000Y-109852964D01*
X110630275Y-109849882D01*
X110479610Y-109768418D01*
X110453309Y-109754197D01*
X110453308Y-109754197D01*
X110449055Y-109751897D01*
X110342517Y-109718918D01*
X110256875Y-109692407D01*
X110256871Y-109692406D01*
X110252254Y-109690977D01*
X110247446Y-109690472D01*
X110247443Y-109690471D01*
X110052185Y-109669949D01*
X110052183Y-109669949D01*
X110047369Y-109669443D01*
X110008492Y-109672981D01*
X109847022Y-109687675D01*
X109847017Y-109687676D01*
X109842203Y-109688114D01*
X109644572Y-109746280D01*
X109640288Y-109748519D01*
X109640287Y-109748520D01*
X109603477Y-109767764D01*
X109462002Y-109841726D01*
X109458231Y-109844758D01*
X109305220Y-109967781D01*
X109305217Y-109967783D01*
X109301447Y-109970815D01*
X109298333Y-109974526D01*
X109298332Y-109974527D01*
X109179280Y-110116408D01*
X109169024Y-110128630D01*
X109166689Y-110132878D01*
X109166688Y-110132879D01*
X109159955Y-110145126D01*
X109069776Y-110309162D01*
X109007484Y-110505532D01*
X109006944Y-110510344D01*
X109006944Y-110510345D01*
X108986163Y-110695618D01*
X108984520Y-110710262D01*
X109001759Y-110915553D01*
X109058544Y-111113586D01*
X109152712Y-111296818D01*
X109280677Y-111458270D01*
X109340414Y-111509110D01*
X109372472Y-111561220D01*
X109367778Y-111622226D01*
X109328123Y-111668821D01*
X109276248Y-111683500D01*
X106583500Y-111683500D01*
X106525309Y-111664593D01*
X106489345Y-111615093D01*
X106484500Y-111584500D01*
X106484500Y-109960236D01*
X106503407Y-109902045D01*
X106513496Y-109890232D01*
X107053463Y-109350265D01*
X107107980Y-109322488D01*
X107168412Y-109332059D01*
X107205033Y-109368677D01*
X107206412Y-109367675D01*
X107210993Y-109373981D01*
X107214529Y-109380920D01*
X107304237Y-109470628D01*
X107311174Y-109474163D01*
X107311176Y-109474164D01*
X107402116Y-109520500D01*
X107417275Y-109528224D01*
X107424969Y-109529443D01*
X107424970Y-109529443D01*
X107534882Y-109546851D01*
X107542579Y-109548070D01*
X107550276Y-109546851D01*
X107660188Y-109529443D01*
X107660189Y-109529443D01*
X107667883Y-109528224D01*
X107683042Y-109520500D01*
X107773982Y-109474164D01*
X107773984Y-109474163D01*
X107780921Y-109470628D01*
X107870629Y-109380920D01*
X107876868Y-109368677D01*
X107924689Y-109274822D01*
X107924689Y-109274821D01*
X107928225Y-109267882D01*
X107936246Y-109217242D01*
X107939373Y-109197495D01*
X107967150Y-109142978D01*
X108143422Y-108966706D01*
X108146551Y-108964006D01*
X108151040Y-108961811D01*
X108184664Y-108925564D01*
X108187240Y-108922888D01*
X108201019Y-108909109D01*
X108203564Y-108905399D01*
X108207000Y-108901486D01*
X108220958Y-108886439D01*
X108227172Y-108879740D01*
X108230559Y-108871252D01*
X108231438Y-108869049D01*
X108241749Y-108849738D01*
X108243093Y-108847779D01*
X108243094Y-108847776D01*
X108248264Y-108840240D01*
X108254415Y-108814320D01*
X108258785Y-108800501D01*
X108268654Y-108775764D01*
X108269271Y-108769471D01*
X108269271Y-108763301D01*
X108271946Y-108740442D01*
X108272001Y-108740212D01*
X108274111Y-108731320D01*
X108270175Y-108702398D01*
X108269271Y-108689049D01*
X108269271Y-106961322D01*
X108288178Y-106903131D01*
X108337678Y-106867167D01*
X108398864Y-106867167D01*
X108450587Y-106906321D01*
G37*
%TD.AperFunction*%
%TA.AperFunction,Conductor*%
G36*
X112627689Y-107868447D02*
G01*
X112639502Y-107878536D01*
X113179757Y-108418792D01*
X113207534Y-108473309D01*
X113197963Y-108533741D01*
X113168159Y-108568638D01*
X113161658Y-108571950D01*
X113128104Y-108605504D01*
X113073587Y-108633281D01*
X113058100Y-108634500D01*
X112700290Y-108634500D01*
X112642099Y-108615593D01*
X112617975Y-108590503D01*
X112594552Y-108555448D01*
X112528231Y-108511133D01*
X112518668Y-108509231D01*
X112518666Y-108509230D01*
X112485577Y-108502649D01*
X112450000Y-108495572D01*
X112230000Y-108495572D01*
X112194423Y-108502649D01*
X112161334Y-108509230D01*
X112161332Y-108509231D01*
X112151769Y-108511133D01*
X112122861Y-108530449D01*
X112089488Y-108552748D01*
X112089485Y-108552751D01*
X112085448Y-108555448D01*
X111864325Y-108776571D01*
X111809808Y-108804348D01*
X111749376Y-108794777D01*
X111712006Y-108761570D01*
X111694552Y-108735448D01*
X111529108Y-108570004D01*
X111501331Y-108515487D01*
X111510902Y-108455055D01*
X111529108Y-108429996D01*
X111694552Y-108264552D01*
X111697249Y-108260515D01*
X111697252Y-108260512D01*
X111723498Y-108221232D01*
X111738867Y-108198231D01*
X111754428Y-108120000D01*
X111754428Y-108050000D01*
X111738867Y-107971769D01*
X111741683Y-107971209D01*
X111738077Y-107925436D01*
X111770042Y-107873265D01*
X111826568Y-107849846D01*
X111834343Y-107849540D01*
X112569498Y-107849540D01*
X112627689Y-107868447D01*
G37*
%TD.AperFunction*%
%TA.AperFunction,Conductor*%
G36*
X114054999Y-100115272D02*
G01*
X114084883Y-100135240D01*
X114161599Y-100150500D01*
X114170858Y-100150500D01*
X114250501Y-100150499D01*
X114308690Y-100169406D01*
X114344654Y-100218905D01*
X114349500Y-100249498D01*
X114349501Y-100329139D01*
X114349501Y-100338400D01*
X114364760Y-100415117D01*
X114384728Y-100445001D01*
X114401336Y-100503886D01*
X114384728Y-100554999D01*
X114364760Y-100584883D01*
X114349500Y-100661599D01*
X114349501Y-100838400D01*
X114364760Y-100915117D01*
X114384728Y-100945001D01*
X114401336Y-101003886D01*
X114384728Y-101054999D01*
X114364760Y-101084883D01*
X114349500Y-101161599D01*
X114349501Y-101338400D01*
X114364760Y-101415117D01*
X114384728Y-101445001D01*
X114401336Y-101503886D01*
X114384728Y-101554999D01*
X114364760Y-101584883D01*
X114349500Y-101661599D01*
X114349501Y-101838400D01*
X114350449Y-101843165D01*
X114350449Y-101843166D01*
X114361853Y-101900500D01*
X114364760Y-101915117D01*
X114384728Y-101945001D01*
X114401336Y-102003886D01*
X114384728Y-102054999D01*
X114364760Y-102084883D01*
X114349500Y-102161599D01*
X114349501Y-102338400D01*
X114364760Y-102415117D01*
X114384728Y-102445001D01*
X114401336Y-102503886D01*
X114384728Y-102554999D01*
X114364760Y-102584883D01*
X114349500Y-102661599D01*
X114349501Y-102838400D01*
X114350449Y-102843165D01*
X114350449Y-102843166D01*
X114352809Y-102855029D01*
X114364760Y-102915117D01*
X114384728Y-102945001D01*
X114401336Y-103003886D01*
X114384728Y-103054999D01*
X114364760Y-103084883D01*
X114349500Y-103161599D01*
X114349501Y-103338400D01*
X114364760Y-103415117D01*
X114384728Y-103445001D01*
X114401336Y-103503886D01*
X114384728Y-103554999D01*
X114364760Y-103584883D01*
X114349500Y-103661599D01*
X114349501Y-103838400D01*
X114364760Y-103915117D01*
X114384728Y-103945001D01*
X114401336Y-104003886D01*
X114384728Y-104054999D01*
X114364760Y-104084883D01*
X114349500Y-104161599D01*
X114349501Y-104338400D01*
X114364760Y-104415117D01*
X114384728Y-104445001D01*
X114401336Y-104503886D01*
X114384728Y-104554999D01*
X114364760Y-104584883D01*
X114349500Y-104661599D01*
X114349501Y-104838400D01*
X114364760Y-104915117D01*
X114384728Y-104945001D01*
X114401336Y-105003886D01*
X114384728Y-105054999D01*
X114364760Y-105084883D01*
X114349500Y-105161599D01*
X114349501Y-105338400D01*
X114364760Y-105415117D01*
X114384728Y-105445001D01*
X114401336Y-105503886D01*
X114384728Y-105554999D01*
X114364760Y-105584883D01*
X114349500Y-105661599D01*
X114349501Y-105740252D01*
X114349501Y-105750499D01*
X114330594Y-105808690D01*
X114281095Y-105844654D01*
X114250502Y-105849500D01*
X114170861Y-105849501D01*
X114161600Y-105849501D01*
X114156834Y-105850449D01*
X114094449Y-105862857D01*
X114094447Y-105862858D01*
X114084883Y-105864760D01*
X114054999Y-105884728D01*
X113996114Y-105901336D01*
X113945001Y-105884728D01*
X113915117Y-105864760D01*
X113838401Y-105849500D01*
X113833542Y-105849500D01*
X113750001Y-105849501D01*
X113661600Y-105849501D01*
X113656834Y-105850449D01*
X113594449Y-105862857D01*
X113594447Y-105862858D01*
X113584883Y-105864760D01*
X113554999Y-105884728D01*
X113496114Y-105901336D01*
X113445001Y-105884728D01*
X113415117Y-105864760D01*
X113338401Y-105849500D01*
X113333542Y-105849500D01*
X113250001Y-105849501D01*
X113161600Y-105849501D01*
X113156834Y-105850449D01*
X113094449Y-105862857D01*
X113094447Y-105862858D01*
X113084883Y-105864760D01*
X113054999Y-105884728D01*
X112996114Y-105901336D01*
X112945001Y-105884728D01*
X112915117Y-105864760D01*
X112838401Y-105849500D01*
X112833542Y-105849500D01*
X112750001Y-105849501D01*
X112661600Y-105849501D01*
X112656834Y-105850449D01*
X112594449Y-105862857D01*
X112594447Y-105862858D01*
X112584883Y-105864760D01*
X112554999Y-105884728D01*
X112496114Y-105901336D01*
X112445001Y-105884728D01*
X112415117Y-105864760D01*
X112338401Y-105849500D01*
X112333542Y-105849500D01*
X112250001Y-105849501D01*
X112161600Y-105849501D01*
X112156834Y-105850449D01*
X112094449Y-105862857D01*
X112094447Y-105862858D01*
X112084883Y-105864760D01*
X112054999Y-105884728D01*
X111996114Y-105901336D01*
X111945001Y-105884728D01*
X111915117Y-105864760D01*
X111838401Y-105849500D01*
X111833542Y-105849500D01*
X111750001Y-105849501D01*
X111661600Y-105849501D01*
X111656834Y-105850449D01*
X111594449Y-105862857D01*
X111594447Y-105862858D01*
X111584883Y-105864760D01*
X111554999Y-105884728D01*
X111496114Y-105901336D01*
X111445001Y-105884728D01*
X111415117Y-105864760D01*
X111338401Y-105849500D01*
X111333542Y-105849500D01*
X111250001Y-105849501D01*
X111161600Y-105849501D01*
X111156834Y-105850449D01*
X111094449Y-105862857D01*
X111094447Y-105862858D01*
X111084883Y-105864760D01*
X111054999Y-105884728D01*
X110996114Y-105901336D01*
X110945001Y-105884728D01*
X110915117Y-105864760D01*
X110838401Y-105849500D01*
X110833542Y-105849500D01*
X110750001Y-105849501D01*
X110661600Y-105849501D01*
X110656834Y-105850449D01*
X110594449Y-105862857D01*
X110594447Y-105862858D01*
X110584883Y-105864760D01*
X110554999Y-105884728D01*
X110496114Y-105901336D01*
X110445001Y-105884728D01*
X110415117Y-105864760D01*
X110338401Y-105849500D01*
X110333542Y-105849500D01*
X110250001Y-105849501D01*
X110161600Y-105849501D01*
X110156834Y-105850449D01*
X110094449Y-105862857D01*
X110094447Y-105862858D01*
X110084883Y-105864760D01*
X110054999Y-105884728D01*
X109996114Y-105901336D01*
X109945001Y-105884728D01*
X109915117Y-105864760D01*
X109838401Y-105849500D01*
X109833542Y-105849500D01*
X109750001Y-105849501D01*
X109661600Y-105849501D01*
X109656834Y-105850449D01*
X109594449Y-105862857D01*
X109594447Y-105862858D01*
X109584883Y-105864760D01*
X109554999Y-105884728D01*
X109496114Y-105901336D01*
X109445001Y-105884728D01*
X109415117Y-105864760D01*
X109338401Y-105849500D01*
X109333542Y-105849500D01*
X109250001Y-105849501D01*
X109161600Y-105849501D01*
X109156834Y-105850449D01*
X109094449Y-105862857D01*
X109094447Y-105862858D01*
X109084883Y-105864760D01*
X109054999Y-105884728D01*
X108996114Y-105901336D01*
X108945001Y-105884728D01*
X108915117Y-105864760D01*
X108838401Y-105849500D01*
X108829142Y-105849500D01*
X108749499Y-105849501D01*
X108691310Y-105830594D01*
X108655346Y-105781095D01*
X108650500Y-105750502D01*
X108650499Y-105666459D01*
X108650499Y-105661600D01*
X108635240Y-105584883D01*
X108615272Y-105554999D01*
X108598664Y-105496114D01*
X108615272Y-105445001D01*
X108635240Y-105415117D01*
X108650500Y-105338401D01*
X108650499Y-105161600D01*
X108635240Y-105084883D01*
X108615272Y-105054999D01*
X108598664Y-104996114D01*
X108615272Y-104945001D01*
X108635240Y-104915117D01*
X108650500Y-104838401D01*
X108650499Y-104661600D01*
X108635240Y-104584883D01*
X108615272Y-104554999D01*
X108598664Y-104496114D01*
X108615272Y-104445001D01*
X108635240Y-104415117D01*
X108650500Y-104338401D01*
X108650499Y-104161600D01*
X108635240Y-104084883D01*
X108615272Y-104054999D01*
X108598664Y-103996114D01*
X108615272Y-103945001D01*
X108635240Y-103915117D01*
X108650500Y-103838401D01*
X108650499Y-103661600D01*
X108635240Y-103584883D01*
X108615272Y-103554999D01*
X108598664Y-103496114D01*
X108615272Y-103445001D01*
X108635240Y-103415117D01*
X108650500Y-103338401D01*
X108650499Y-103161600D01*
X108635240Y-103084883D01*
X108615272Y-103054999D01*
X108598664Y-102996114D01*
X108615272Y-102945001D01*
X108635240Y-102915117D01*
X108650500Y-102838401D01*
X108650499Y-102661600D01*
X108635240Y-102584883D01*
X108615272Y-102554999D01*
X108598664Y-102496114D01*
X108615272Y-102445001D01*
X108635240Y-102415117D01*
X108650500Y-102338401D01*
X108650499Y-102161600D01*
X108644542Y-102131650D01*
X108637143Y-102094449D01*
X108637142Y-102094446D01*
X108635240Y-102084883D01*
X108615272Y-102054999D01*
X108598664Y-101996114D01*
X108615272Y-101945001D01*
X108635240Y-101915117D01*
X108650500Y-101838401D01*
X108650499Y-101661600D01*
X108642876Y-101623275D01*
X108637143Y-101594449D01*
X108637142Y-101594446D01*
X108635240Y-101584883D01*
X108615272Y-101554999D01*
X108598664Y-101496114D01*
X108615272Y-101445001D01*
X108635240Y-101415117D01*
X108650500Y-101338401D01*
X108650499Y-101161600D01*
X108635240Y-101084883D01*
X108615272Y-101054999D01*
X108598664Y-100996114D01*
X108615272Y-100945001D01*
X108635240Y-100915117D01*
X108650500Y-100838401D01*
X108650499Y-100661600D01*
X108648074Y-100649407D01*
X108637143Y-100594449D01*
X108637142Y-100594446D01*
X108635240Y-100584883D01*
X108615272Y-100554999D01*
X108598664Y-100496114D01*
X108615272Y-100445001D01*
X108635240Y-100415117D01*
X108650500Y-100338401D01*
X108650499Y-100249499D01*
X108669406Y-100191310D01*
X108718905Y-100155346D01*
X108749498Y-100150500D01*
X108829139Y-100150499D01*
X108838400Y-100150499D01*
X108852256Y-100147743D01*
X108905551Y-100137143D01*
X108905553Y-100137142D01*
X108915117Y-100135240D01*
X108945001Y-100115272D01*
X109003886Y-100098664D01*
X109054999Y-100115272D01*
X109084883Y-100135240D01*
X109161599Y-100150500D01*
X109250000Y-100150500D01*
X109338400Y-100150499D01*
X109352256Y-100147743D01*
X109405551Y-100137143D01*
X109405553Y-100137142D01*
X109415117Y-100135240D01*
X109445001Y-100115272D01*
X109503886Y-100098664D01*
X109554999Y-100115272D01*
X109584883Y-100135240D01*
X109661599Y-100150500D01*
X109750000Y-100150500D01*
X109838400Y-100150499D01*
X109852256Y-100147743D01*
X109905551Y-100137143D01*
X109905553Y-100137142D01*
X109915117Y-100135240D01*
X109945001Y-100115272D01*
X110003886Y-100098664D01*
X110054999Y-100115272D01*
X110084883Y-100135240D01*
X110161599Y-100150500D01*
X110250000Y-100150500D01*
X110338400Y-100150499D01*
X110352256Y-100147743D01*
X110405551Y-100137143D01*
X110405553Y-100137142D01*
X110415117Y-100135240D01*
X110445001Y-100115272D01*
X110503886Y-100098664D01*
X110554999Y-100115272D01*
X110584883Y-100135240D01*
X110661599Y-100150500D01*
X110750000Y-100150500D01*
X110838400Y-100150499D01*
X110852256Y-100147743D01*
X110905551Y-100137143D01*
X110905553Y-100137142D01*
X110915117Y-100135240D01*
X110945001Y-100115272D01*
X111003886Y-100098664D01*
X111054999Y-100115272D01*
X111084883Y-100135240D01*
X111161599Y-100150500D01*
X111250000Y-100150500D01*
X111338400Y-100150499D01*
X111352256Y-100147743D01*
X111405551Y-100137143D01*
X111405553Y-100137142D01*
X111415117Y-100135240D01*
X111445001Y-100115272D01*
X111503886Y-100098664D01*
X111554999Y-100115272D01*
X111584883Y-100135240D01*
X111661599Y-100150500D01*
X111750000Y-100150500D01*
X111838400Y-100150499D01*
X111852256Y-100147743D01*
X111905551Y-100137143D01*
X111905553Y-100137142D01*
X111915117Y-100135240D01*
X111945001Y-100115272D01*
X112003886Y-100098664D01*
X112054999Y-100115272D01*
X112084883Y-100135240D01*
X112161599Y-100150500D01*
X112250000Y-100150500D01*
X112338400Y-100150499D01*
X112352256Y-100147743D01*
X112405551Y-100137143D01*
X112405553Y-100137142D01*
X112415117Y-100135240D01*
X112445001Y-100115272D01*
X112503886Y-100098664D01*
X112554999Y-100115272D01*
X112584883Y-100135240D01*
X112661599Y-100150500D01*
X112750000Y-100150500D01*
X112838400Y-100150499D01*
X112852256Y-100147743D01*
X112905551Y-100137143D01*
X112905553Y-100137142D01*
X112915117Y-100135240D01*
X112945001Y-100115272D01*
X113003886Y-100098664D01*
X113054999Y-100115272D01*
X113084883Y-100135240D01*
X113161599Y-100150500D01*
X113250000Y-100150500D01*
X113338400Y-100150499D01*
X113352256Y-100147743D01*
X113405551Y-100137143D01*
X113405553Y-100137142D01*
X113415117Y-100135240D01*
X113445001Y-100115272D01*
X113503886Y-100098664D01*
X113554999Y-100115272D01*
X113584883Y-100135240D01*
X113661599Y-100150500D01*
X113750000Y-100150500D01*
X113838400Y-100150499D01*
X113852256Y-100147743D01*
X113905551Y-100137143D01*
X113905553Y-100137142D01*
X113915117Y-100135240D01*
X113945001Y-100115272D01*
X114003886Y-100098664D01*
X114054999Y-100115272D01*
G37*
%TD.AperFunction*%
%TA.AperFunction,Conductor*%
G36*
X117445945Y-95750798D02*
G01*
X117489210Y-95794063D01*
X117500000Y-95839008D01*
X117500000Y-95868889D01*
X117499955Y-95920449D01*
X117504781Y-95930498D01*
X117504781Y-95930500D01*
X117505185Y-95931341D01*
X117512463Y-95952183D01*
X117512670Y-95953093D01*
X117512672Y-95953096D01*
X117515150Y-95963962D01*
X117522097Y-95972680D01*
X117522520Y-95973211D01*
X117534334Y-95992046D01*
X117534625Y-95992653D01*
X117534628Y-95992657D01*
X117539453Y-96002705D01*
X117548893Y-96010254D01*
X117564484Y-96025872D01*
X117572015Y-96035323D01*
X117582058Y-96040167D01*
X117582663Y-96040459D01*
X117601478Y-96052308D01*
X117602005Y-96052730D01*
X117602010Y-96052732D01*
X117610715Y-96059694D01*
X117622405Y-96062382D01*
X117622492Y-96062402D01*
X117643318Y-96069715D01*
X117654202Y-96074965D01*
X117665347Y-96074975D01*
X117665348Y-96074975D01*
X117677213Y-96074985D01*
X117677211Y-96076730D01*
X117677277Y-96076724D01*
X117677277Y-96075000D01*
X117694123Y-96075000D01*
X117745160Y-96075045D01*
X117745449Y-96075045D01*
X117745537Y-96075003D01*
X117745561Y-96075000D01*
X118594222Y-96075000D01*
X118608504Y-96075013D01*
X118666677Y-96093973D01*
X118702596Y-96143505D01*
X118702541Y-96204691D01*
X118698960Y-96214043D01*
X118696147Y-96220405D01*
X118655818Y-96311629D01*
X118655112Y-96319777D01*
X118655112Y-96319778D01*
X118647921Y-96402801D01*
X118645749Y-96427880D01*
X118673880Y-96541125D01*
X118678317Y-96547996D01*
X118678317Y-96547997D01*
X118708727Y-96595093D01*
X118737175Y-96639152D01*
X118737684Y-96639553D01*
X118761216Y-96691665D01*
X118748811Y-96751580D01*
X118735512Y-96769735D01*
X118702999Y-96804907D01*
X118655818Y-96911629D01*
X118655112Y-96919777D01*
X118655112Y-96919778D01*
X118648486Y-96996281D01*
X118645749Y-97027880D01*
X118647722Y-97035822D01*
X118647722Y-97035823D01*
X118668647Y-97120057D01*
X118673880Y-97141125D01*
X118678317Y-97147996D01*
X118678317Y-97147997D01*
X118716401Y-97206978D01*
X118737175Y-97239152D01*
X118737684Y-97239553D01*
X118761216Y-97291665D01*
X118748811Y-97351580D01*
X118735512Y-97369735D01*
X118702999Y-97404907D01*
X118655818Y-97511629D01*
X118655112Y-97519777D01*
X118655112Y-97519778D01*
X118646455Y-97619727D01*
X118645749Y-97627880D01*
X118673880Y-97741125D01*
X118678317Y-97747996D01*
X118678317Y-97747997D01*
X118719911Y-97812414D01*
X118737175Y-97839152D01*
X118737684Y-97839553D01*
X118761216Y-97891665D01*
X118748811Y-97951580D01*
X118735512Y-97969735D01*
X118702999Y-98004907D01*
X118655818Y-98111629D01*
X118655112Y-98119777D01*
X118655112Y-98119778D01*
X118650442Y-98173693D01*
X118645749Y-98227880D01*
X118647722Y-98235822D01*
X118647722Y-98235823D01*
X118668131Y-98317980D01*
X118673880Y-98341125D01*
X118678317Y-98347996D01*
X118678317Y-98347997D01*
X118725059Y-98420387D01*
X118737175Y-98439152D01*
X118737684Y-98439553D01*
X118761216Y-98491665D01*
X118748811Y-98551580D01*
X118735512Y-98569735D01*
X118702999Y-98604907D01*
X118655818Y-98711629D01*
X118655112Y-98719777D01*
X118655112Y-98719778D01*
X118649432Y-98785353D01*
X118645749Y-98827880D01*
X118647722Y-98835822D01*
X118647722Y-98835823D01*
X118658968Y-98881093D01*
X118673880Y-98941125D01*
X118678317Y-98947996D01*
X118678317Y-98947997D01*
X118726674Y-99022888D01*
X118737175Y-99039152D01*
X118737684Y-99039553D01*
X118761216Y-99091665D01*
X118748811Y-99151580D01*
X118735512Y-99169735D01*
X118702999Y-99204907D01*
X118655818Y-99311629D01*
X118655112Y-99319777D01*
X118655112Y-99319778D01*
X118650393Y-99374264D01*
X118645749Y-99427880D01*
X118673880Y-99541125D01*
X118678317Y-99547996D01*
X118678317Y-99547997D01*
X118728035Y-99624996D01*
X118737175Y-99639152D01*
X118828811Y-99711392D01*
X118836531Y-99714103D01*
X118843704Y-99718047D01*
X118843013Y-99719303D01*
X118884556Y-99751007D01*
X118902089Y-99809627D01*
X118886941Y-99859968D01*
X118872757Y-99882542D01*
X118865331Y-99894360D01*
X118813233Y-100043250D01*
X118796336Y-100193210D01*
X118794857Y-100199642D01*
X118797318Y-100210516D01*
X118797559Y-100211583D01*
X118800000Y-100233432D01*
X118800000Y-100380500D01*
X118781093Y-100438691D01*
X118731593Y-100474655D01*
X118701001Y-100479500D01*
X118323291Y-100479499D01*
X118249500Y-100479499D01*
X118191309Y-100460592D01*
X118155345Y-100411091D01*
X118150500Y-100380499D01*
X118150500Y-99570252D01*
X118138867Y-99511769D01*
X118094552Y-99445448D01*
X118059930Y-99422314D01*
X118022053Y-99374264D01*
X118019651Y-99313126D01*
X118053645Y-99262253D01*
X118059924Y-99257690D01*
X118094552Y-99234552D01*
X118138867Y-99168231D01*
X118142299Y-99150980D01*
X118145279Y-99135995D01*
X118150500Y-99109748D01*
X118150500Y-98070252D01*
X118138867Y-98011769D01*
X118094552Y-97945448D01*
X118028231Y-97901133D01*
X118018668Y-97899231D01*
X118018666Y-97899230D01*
X117995995Y-97894721D01*
X117969748Y-97889500D01*
X117130252Y-97889500D01*
X117104005Y-97894721D01*
X117081334Y-97899230D01*
X117081332Y-97899231D01*
X117071769Y-97901133D01*
X117005448Y-97945448D01*
X116961133Y-98011769D01*
X116949500Y-98070252D01*
X116949500Y-99109748D01*
X116954721Y-99135995D01*
X116957702Y-99150980D01*
X116961133Y-99168231D01*
X117005448Y-99234552D01*
X117007307Y-99235794D01*
X117032929Y-99286082D01*
X117023358Y-99346514D01*
X116980093Y-99389779D01*
X116915834Y-99398667D01*
X116869748Y-99389500D01*
X116195851Y-99389500D01*
X116159166Y-99382452D01*
X116156865Y-99381534D01*
X116137548Y-99371220D01*
X116135593Y-99369879D01*
X116135590Y-99369878D01*
X116128054Y-99364708D01*
X116102141Y-99358559D01*
X116088316Y-99354186D01*
X116070068Y-99346906D01*
X116070066Y-99346906D01*
X116063578Y-99344317D01*
X116057285Y-99343700D01*
X116051116Y-99343700D01*
X116028257Y-99341025D01*
X116028027Y-99340970D01*
X116028025Y-99340970D01*
X116019134Y-99338860D01*
X115990213Y-99342796D01*
X115976863Y-99343700D01*
X115850956Y-99343700D01*
X115792767Y-99324794D01*
X115788448Y-99321656D01*
X115782942Y-99316150D01*
X115726423Y-99287352D01*
X115676844Y-99262090D01*
X115676843Y-99262090D01*
X115669904Y-99258554D01*
X115662210Y-99257335D01*
X115662209Y-99257335D01*
X115552297Y-99239927D01*
X115544600Y-99238708D01*
X115536903Y-99239927D01*
X115426991Y-99257335D01*
X115426990Y-99257335D01*
X115419296Y-99258554D01*
X115412357Y-99262090D01*
X115412356Y-99262090D01*
X115313197Y-99312614D01*
X115313195Y-99312615D01*
X115306258Y-99316150D01*
X115269825Y-99352583D01*
X115215308Y-99380360D01*
X115154876Y-99370789D01*
X115111612Y-99327525D01*
X115081588Y-99268600D01*
X115081585Y-99268596D01*
X115078050Y-99261658D01*
X114988342Y-99171950D01*
X114981405Y-99168415D01*
X114981403Y-99168414D01*
X114882244Y-99117890D01*
X114882243Y-99117890D01*
X114875304Y-99114354D01*
X114867610Y-99113135D01*
X114867609Y-99113135D01*
X114757697Y-99095727D01*
X114750000Y-99094508D01*
X114742303Y-99095727D01*
X114631704Y-99113244D01*
X114571272Y-99103673D01*
X114533901Y-99070464D01*
X114507531Y-99030998D01*
X114502112Y-99022888D01*
X114415117Y-98964760D01*
X114338401Y-98949500D01*
X114299500Y-98949500D01*
X114241309Y-98930593D01*
X114205345Y-98881093D01*
X114200500Y-98850500D01*
X114200500Y-98670003D01*
X114201678Y-98654774D01*
X114204014Y-98639769D01*
X114205099Y-98632799D01*
X114203634Y-98621598D01*
X114203275Y-98599058D01*
X114211137Y-98519222D01*
X114213636Y-98493839D01*
X114217422Y-98474805D01*
X114253504Y-98355860D01*
X114260931Y-98337930D01*
X114319522Y-98228314D01*
X114330302Y-98212179D01*
X114393671Y-98134969D01*
X114404151Y-98125063D01*
X114403922Y-98124828D01*
X114408967Y-98119904D01*
X114414665Y-98115742D01*
X114418965Y-98110148D01*
X114424011Y-98105224D01*
X114424440Y-98105664D01*
X114426409Y-98103741D01*
X114425718Y-98103033D01*
X114430765Y-98098108D01*
X114436462Y-98093946D01*
X114443349Y-98084987D01*
X114459031Y-98068797D01*
X114547185Y-97996451D01*
X114563322Y-97985669D01*
X114680268Y-97923160D01*
X114698198Y-97915733D01*
X114813429Y-97880778D01*
X114825097Y-97877239D01*
X114844129Y-97873453D01*
X114867078Y-97871193D01*
X114951788Y-97862850D01*
X114966216Y-97863255D01*
X114966220Y-97862927D01*
X114973269Y-97863013D01*
X114980240Y-97864099D01*
X114987234Y-97863185D01*
X114992487Y-97863249D01*
X114998072Y-97863534D01*
X115000826Y-97863997D01*
X115004634Y-97864044D01*
X115004639Y-97864044D01*
X115006862Y-97864071D01*
X115011946Y-97864133D01*
X115026662Y-97862026D01*
X115034192Y-97861241D01*
X115122803Y-97855433D01*
X115203770Y-97850127D01*
X115203776Y-97850126D01*
X115206999Y-97849915D01*
X115398714Y-97811781D01*
X115409217Y-97808216D01*
X115448635Y-97794835D01*
X115583812Y-97748949D01*
X115759124Y-97662494D01*
X115921652Y-97553896D01*
X116041592Y-97448711D01*
X116049440Y-97442501D01*
X116054895Y-97438617D01*
X116061668Y-97433795D01*
X116066283Y-97429292D01*
X116066885Y-97428705D01*
X116066888Y-97428702D01*
X116069627Y-97426029D01*
X116071925Y-97422963D01*
X116078689Y-97413938D01*
X116083477Y-97408036D01*
X116131826Y-97352904D01*
X116196715Y-97278913D01*
X116199866Y-97274198D01*
X116289346Y-97140281D01*
X116304666Y-97117353D01*
X116308390Y-97109803D01*
X116377688Y-96969279D01*
X116390606Y-96943084D01*
X116453064Y-96759089D01*
X116490971Y-96568515D01*
X116492767Y-96541125D01*
X116498435Y-96454642D01*
X116499283Y-96448099D01*
X116499980Y-96445895D01*
X116500500Y-96439288D01*
X116500500Y-96426370D01*
X116500712Y-96419896D01*
X116501316Y-96410679D01*
X116502476Y-96400729D01*
X116504997Y-96385744D01*
X116505133Y-96374624D01*
X116501500Y-96349255D01*
X116500500Y-96335221D01*
X116500500Y-95899000D01*
X116519407Y-95840809D01*
X116568907Y-95804845D01*
X116599500Y-95800000D01*
X117300000Y-95800000D01*
X117330996Y-95769004D01*
X117385513Y-95741227D01*
X117445945Y-95750798D01*
G37*
%TD.AperFunction*%
%TA.AperFunction,Conductor*%
G36*
X107167435Y-95818907D02*
G01*
X107203399Y-95868407D01*
X107203399Y-95929593D01*
X107179248Y-95969004D01*
X107151472Y-95996780D01*
X107147937Y-96003717D01*
X107147936Y-96003719D01*
X107093817Y-96109934D01*
X107090281Y-96116874D01*
X107074500Y-96216512D01*
X107074500Y-96783488D01*
X107075109Y-96787332D01*
X107075109Y-96787334D01*
X107085487Y-96852855D01*
X107090281Y-96883126D01*
X107093817Y-96890065D01*
X107093817Y-96890066D01*
X107144991Y-96990500D01*
X107151472Y-97003220D01*
X107246780Y-97098528D01*
X107253718Y-97102063D01*
X107253722Y-97102066D01*
X107268907Y-97109803D01*
X107312171Y-97153068D01*
X107321741Y-97213498D01*
X107319508Y-97227600D01*
X107326889Y-97274201D01*
X107317318Y-97334631D01*
X107274054Y-97377895D01*
X107243600Y-97393412D01*
X107243596Y-97393415D01*
X107236658Y-97396950D01*
X107146950Y-97486658D01*
X107143415Y-97493595D01*
X107143414Y-97493597D01*
X107103405Y-97572120D01*
X107089354Y-97599696D01*
X107088135Y-97607390D01*
X107088135Y-97607391D01*
X107079408Y-97662494D01*
X107074500Y-97693481D01*
X107074501Y-98306518D01*
X107075110Y-98310361D01*
X107075110Y-98310366D01*
X107079476Y-98337930D01*
X107089354Y-98400304D01*
X107105645Y-98432276D01*
X107139586Y-98498889D01*
X107146950Y-98513342D01*
X107236658Y-98603050D01*
X107243595Y-98606585D01*
X107243597Y-98606586D01*
X107268846Y-98619451D01*
X107294321Y-98632431D01*
X107337584Y-98675695D01*
X107347156Y-98736127D01*
X107319379Y-98790644D01*
X106109519Y-100000504D01*
X106055002Y-100028281D01*
X106039515Y-100029500D01*
X105260377Y-100029500D01*
X105202186Y-100010593D01*
X105178110Y-99985574D01*
X105155805Y-99952255D01*
X104968554Y-99765004D01*
X104940777Y-99710487D01*
X104950348Y-99650055D01*
X104968554Y-99624996D01*
X105155804Y-99437746D01*
X105166082Y-99422315D01*
X105183607Y-99396003D01*
X105183607Y-99396002D01*
X105189003Y-99387901D01*
X105200500Y-99329838D01*
X105200501Y-98790159D01*
X105199538Y-98785353D01*
X105190645Y-98740985D01*
X105190644Y-98740982D01*
X105188731Y-98731439D01*
X105155805Y-98682255D01*
X104968554Y-98495004D01*
X104940777Y-98440487D01*
X104950348Y-98380055D01*
X104968554Y-98354996D01*
X105155804Y-98167746D01*
X105159998Y-98161449D01*
X105183607Y-98126003D01*
X105183607Y-98126002D01*
X105189003Y-98117901D01*
X105200500Y-98059838D01*
X105200501Y-97520159D01*
X105198999Y-97512666D01*
X105190645Y-97470985D01*
X105190644Y-97470982D01*
X105188731Y-97461439D01*
X105155805Y-97412255D01*
X104877746Y-97134196D01*
X104864103Y-97125109D01*
X104836003Y-97106393D01*
X104836002Y-97106393D01*
X104827901Y-97100997D01*
X104769838Y-97089500D01*
X104299000Y-97089500D01*
X104240809Y-97070593D01*
X104204845Y-97021093D01*
X104200000Y-96990500D01*
X104200000Y-95899000D01*
X104218907Y-95840809D01*
X104268407Y-95804845D01*
X104299000Y-95800000D01*
X107109244Y-95800000D01*
X107167435Y-95818907D01*
G37*
%TD.AperFunction*%
%TA.AperFunction,Conductor*%
G36*
X115558691Y-95818907D02*
G01*
X115594655Y-95868407D01*
X115599500Y-95899000D01*
X115599500Y-96331869D01*
X115598321Y-96347099D01*
X115594901Y-96369066D01*
X115595816Y-96376063D01*
X115595816Y-96376064D01*
X115596365Y-96380262D01*
X115596724Y-96402801D01*
X115589286Y-96478322D01*
X115585500Y-96497357D01*
X115558084Y-96587736D01*
X115550657Y-96605667D01*
X115506133Y-96688965D01*
X115495351Y-96705101D01*
X115450927Y-96759232D01*
X115435776Y-96773553D01*
X115435920Y-96773722D01*
X115433015Y-96776209D01*
X115429929Y-96778464D01*
X115429927Y-96778466D01*
X115423111Y-96787334D01*
X115423043Y-96787422D01*
X115407362Y-96803611D01*
X115347353Y-96852859D01*
X115331223Y-96863636D01*
X115246388Y-96908982D01*
X115228459Y-96916408D01*
X115136408Y-96944332D01*
X115117379Y-96948117D01*
X115100349Y-96949794D01*
X115045962Y-96955150D01*
X115031538Y-96954745D01*
X115031534Y-96955073D01*
X115024483Y-96954987D01*
X115017510Y-96953901D01*
X115010514Y-96954816D01*
X115005266Y-96954752D01*
X114999681Y-96954468D01*
X114996920Y-96954003D01*
X114993097Y-96953956D01*
X114993094Y-96953956D01*
X114991688Y-96953939D01*
X114985800Y-96953867D01*
X114982024Y-96954408D01*
X114982018Y-96954408D01*
X114976230Y-96955237D01*
X114968674Y-96956024D01*
X114769677Y-96969067D01*
X114769672Y-96969068D01*
X114766448Y-96969279D01*
X114550849Y-97012164D01*
X114342693Y-97082824D01*
X114145540Y-97180049D01*
X114142836Y-97181856D01*
X113970840Y-97296780D01*
X113962764Y-97302176D01*
X113821580Y-97425993D01*
X113813738Y-97432197D01*
X113804720Y-97438617D01*
X113796761Y-97446384D01*
X113794470Y-97449441D01*
X113793901Y-97450089D01*
X113784407Y-97459354D01*
X113782939Y-97460399D01*
X113774979Y-97468165D01*
X113768464Y-97476858D01*
X113763683Y-97482751D01*
X113634494Y-97630057D01*
X113632695Y-97632750D01*
X113632693Y-97632752D01*
X113600581Y-97680810D01*
X113515449Y-97808216D01*
X113422154Y-97997397D01*
X113379461Y-98041223D01*
X113319159Y-98051584D01*
X113263361Y-98023613D01*
X113204496Y-97964748D01*
X113176719Y-97910231D01*
X113175500Y-97894744D01*
X113175500Y-97516512D01*
X113168846Y-97474500D01*
X113160938Y-97424569D01*
X113160938Y-97424568D01*
X113159719Y-97416874D01*
X113135709Y-97369751D01*
X113102064Y-97303719D01*
X113102063Y-97303717D01*
X113098528Y-97296780D01*
X113003220Y-97201472D01*
X112996283Y-97197937D01*
X112996281Y-97197936D01*
X112890066Y-97143817D01*
X112890065Y-97143817D01*
X112883126Y-97140281D01*
X112875432Y-97139062D01*
X112875431Y-97139062D01*
X112787334Y-97125109D01*
X112787332Y-97125109D01*
X112783488Y-97124500D01*
X112216512Y-97124500D01*
X112212668Y-97125109D01*
X112212666Y-97125109D01*
X112124569Y-97139062D01*
X112124568Y-97139062D01*
X112116874Y-97140281D01*
X112109935Y-97143817D01*
X112109934Y-97143817D01*
X112003719Y-97197936D01*
X112003717Y-97197937D01*
X111996780Y-97201472D01*
X111901472Y-97296780D01*
X111897937Y-97303717D01*
X111897936Y-97303719D01*
X111842565Y-97412392D01*
X111840281Y-97416874D01*
X111838055Y-97415740D01*
X111809108Y-97455588D01*
X111750911Y-97474500D01*
X111749089Y-97474500D01*
X111690898Y-97455593D01*
X111661945Y-97415740D01*
X111659719Y-97416874D01*
X111602064Y-97303719D01*
X111602063Y-97303717D01*
X111598528Y-97296780D01*
X111503220Y-97201472D01*
X111496283Y-97197937D01*
X111496281Y-97197936D01*
X111390066Y-97143817D01*
X111390065Y-97143817D01*
X111383126Y-97140281D01*
X111375432Y-97139062D01*
X111375431Y-97139062D01*
X111287334Y-97125109D01*
X111287332Y-97125109D01*
X111283488Y-97124500D01*
X110716512Y-97124500D01*
X110712668Y-97125109D01*
X110712666Y-97125109D01*
X110624569Y-97139062D01*
X110624568Y-97139062D01*
X110616874Y-97140281D01*
X110609935Y-97143817D01*
X110609934Y-97143817D01*
X110503719Y-97197936D01*
X110503717Y-97197937D01*
X110496780Y-97201472D01*
X110401472Y-97296780D01*
X110397937Y-97303717D01*
X110397936Y-97303719D01*
X110377216Y-97344385D01*
X110333951Y-97387650D01*
X110273519Y-97397221D01*
X110258417Y-97393596D01*
X110256243Y-97392890D01*
X110249304Y-97389354D01*
X110241609Y-97388135D01*
X110241608Y-97388135D01*
X110131697Y-97370727D01*
X110124000Y-97369508D01*
X110116303Y-97370727D01*
X110006391Y-97388135D01*
X110006390Y-97388135D01*
X109998696Y-97389354D01*
X109991756Y-97392890D01*
X109991750Y-97392892D01*
X109901840Y-97438704D01*
X109841408Y-97448276D01*
X109786891Y-97420499D01*
X109763342Y-97396950D01*
X109756405Y-97393415D01*
X109756403Y-97393414D01*
X109657244Y-97342890D01*
X109657243Y-97342890D01*
X109650304Y-97339354D01*
X109642610Y-97338135D01*
X109642609Y-97338135D01*
X109560365Y-97325109D01*
X109560363Y-97325109D01*
X109556519Y-97324500D01*
X109325030Y-97324500D01*
X109093482Y-97324501D01*
X109089639Y-97325110D01*
X109089634Y-97325110D01*
X109052783Y-97330947D01*
X108999696Y-97339354D01*
X108973103Y-97352904D01*
X108893597Y-97393414D01*
X108893595Y-97393415D01*
X108886658Y-97396950D01*
X108796950Y-97486658D01*
X108793415Y-97493595D01*
X108793414Y-97493597D01*
X108753405Y-97572120D01*
X108739354Y-97599696D01*
X108738135Y-97607390D01*
X108738135Y-97607391D01*
X108729408Y-97662494D01*
X108724500Y-97693481D01*
X108724501Y-98306518D01*
X108725110Y-98310361D01*
X108725110Y-98310366D01*
X108729476Y-98337930D01*
X108739354Y-98400304D01*
X108742890Y-98407243D01*
X108745299Y-98414659D01*
X108743721Y-98415172D01*
X108751845Y-98466468D01*
X108724067Y-98520984D01*
X108669550Y-98548761D01*
X108654064Y-98549980D01*
X108345936Y-98549980D01*
X108287745Y-98531073D01*
X108251781Y-98481573D01*
X108251781Y-98420387D01*
X108256689Y-98408539D01*
X108257110Y-98407243D01*
X108260646Y-98400304D01*
X108272170Y-98327548D01*
X108274891Y-98310365D01*
X108274891Y-98310363D01*
X108275500Y-98306519D01*
X108275499Y-97693482D01*
X108270592Y-97662494D01*
X108265454Y-97630057D01*
X108260646Y-97599696D01*
X108231848Y-97543177D01*
X108206586Y-97493597D01*
X108206585Y-97493595D01*
X108203050Y-97486658D01*
X108140660Y-97424268D01*
X108112883Y-97369751D01*
X108112883Y-97338777D01*
X108115145Y-97324501D01*
X108130492Y-97227600D01*
X108128259Y-97213498D01*
X108137828Y-97153070D01*
X108181093Y-97109803D01*
X108196278Y-97102066D01*
X108196282Y-97102063D01*
X108203220Y-97098528D01*
X108298528Y-97003220D01*
X108305010Y-96990500D01*
X108356183Y-96890066D01*
X108356183Y-96890065D01*
X108359719Y-96883126D01*
X108364514Y-96852855D01*
X108374891Y-96787334D01*
X108374891Y-96787332D01*
X108375500Y-96783488D01*
X108375500Y-96216512D01*
X108359719Y-96116874D01*
X108356183Y-96109934D01*
X108302064Y-96003719D01*
X108302063Y-96003717D01*
X108298528Y-95996780D01*
X108270752Y-95969004D01*
X108242975Y-95914487D01*
X108252546Y-95854055D01*
X108295811Y-95810790D01*
X108340756Y-95800000D01*
X115500500Y-95800000D01*
X115558691Y-95818907D01*
G37*
%TD.AperFunction*%
%TA.AperFunction,Conductor*%
G36*
X118959191Y-95818907D02*
G01*
X118995155Y-95868407D01*
X119000000Y-95899000D01*
X119000000Y-95960769D01*
X118981093Y-96018960D01*
X118931593Y-96054924D01*
X118917255Y-96058425D01*
X118905642Y-96060358D01*
X118845137Y-96051262D01*
X118801533Y-96008339D01*
X118791487Y-95947984D01*
X118792886Y-95940599D01*
X118795121Y-95930840D01*
X118799965Y-95920798D01*
X118799984Y-95898914D01*
X118818942Y-95840740D01*
X118868473Y-95804819D01*
X118898984Y-95800000D01*
X118901000Y-95800000D01*
X118959191Y-95818907D01*
G37*
%TD.AperFunction*%
%TD*%
M02*
