M48
; DRILL file {KiCad (6.0.0)} date Thu Feb  3 22:25:16 2022
; FORMAT={-:-/ absolute / metric / decimal}
; #@! TF.CreationDate,2022-02-03T22:25:16+01:00
; #@! TF.GenerationSoftware,Kicad,Pcbnew,(6.0.0)
; #@! TF.FileFunction,MixedPlating,1,4
FMAT,2
METRIC
; #@! TA.AperFunction,Plated,PTH,ViaDrill
T1C0.300
; #@! TA.AperFunction,Plated,PTH,ComponentDrill
T2C0.300
; #@! TA.AperFunction,Plated,PTH,ViaDrill
T3C0.400
; #@! TA.AperFunction,Plated,PTH,ComponentDrill
T4C0.700
; #@! TA.AperFunction,Plated,PTH,ComponentDrill
T5C1.000
; #@! TA.AperFunction,NonPlated,NPTH,ComponentDrill
T6C0.300
; #@! TA.AperFunction,NonPlated,NPTH,ComponentDrill
T7C1.152
%
G90
G05
T1
X104.5Y-112.75
X104.5Y-113.75
X104.55Y-96.2
X105.5Y-99.3
X106.65Y-98.2
X107.07Y-108.17
X107.1Y-104.4
X107.543Y-109.143
X107.725Y-97.228
X108.509Y-97.257
X108.58Y-107.33
X108.74Y-113.67
X109.1Y-109.15
X109.669Y-98.859
X109.9Y-107.4
X110.124Y-97.775
X110.15Y-96.2
X110.162Y-98.373
X110.5Y-102.0
X110.5Y-104.0
X110.809Y-98.626
X111.408Y-98.606
X111.5Y-103.0
X111.75Y-96.2
X112.058Y-98.617
X112.5Y-102.0
X112.5Y-104.0
X112.7Y-98.625
X112.89Y-108.41
X113.374Y-97.588
X113.4Y-108.9
X113.55Y-96.2
X113.622Y-109.899
X113.9Y-97.1
X114.2Y-108.9
X114.4Y-96.2
X114.45Y-98.7
X114.503Y-96.8
X114.75Y-99.5
X114.85Y-98.15
X115.15Y-96.6
X115.35Y-96.05
X115.45Y-98.05
X115.545Y-99.644
X115.75Y-101.25
X116.13Y-97.68
X116.397Y-101.897
X116.464Y-103.214
X116.5Y-111.1
X116.53Y-97.2
X116.75Y-96.05
X116.75Y-96.6
X117.212Y-103.242
X117.35Y-96.15
X117.496Y-105.196
X118.425Y-97.0
X118.45Y-96.25
X118.45Y-97.825
X118.5Y-98.5
X118.5Y-99.25
X118.5Y-100.0
X118.5Y-112.75
X118.5Y-113.75
T2
X118.15Y-95.625
T3
X116.7Y-110.2
T4
X104.5Y-97.79
X104.5Y-99.06
X104.5Y-100.33
X104.5Y-101.6
X104.5Y-102.87
X104.5Y-104.14
X104.5Y-105.41
X104.5Y-106.68
X104.5Y-107.95
X104.5Y-109.22
X104.5Y-110.49
X118.5Y-101.18
X118.5Y-102.45
X118.5Y-103.72
X118.5Y-104.99
X118.5Y-106.26
X118.5Y-107.78
X118.5Y-109.23
X118.5Y-110.5
T5
X107.5Y-110.725
X107.5Y-113.265
X110.04Y-110.725
X110.04Y-113.265
X112.58Y-110.725
X112.58Y-113.265
X115.12Y-110.725
X115.12Y-113.265
T6
X119.0Y-96.4
X119.0Y-97.0
X119.0Y-97.6
X119.0Y-98.2
X119.0Y-98.8
X119.0Y-99.4
X119.0Y-112.2
X119.0Y-112.8
X119.0Y-113.4
X119.0Y-114.0
T7
X106.0Y-94.8
X121.4Y-113.6
X122.8Y-91.0
T0
M30
