M48
; DRILL file {KiCad (6.0.7)} date Thu Feb  2 23:10:38 2023
; FORMAT={-:-/ absolute / inch / decimal}
; #@! TF.CreationDate,2023-02-02T23:10:38+01:00
; #@! TF.GenerationSoftware,Kicad,Pcbnew,(6.0.7)
; #@! TF.FileFunction,Plated,1,4,PTH
FMAT,2
INCH
; #@! TA.AperFunction,Plated,PTH,ViaDrill
T1C0.0118
; #@! TA.AperFunction,Plated,PTH,ComponentDrill
T2C0.0118
; #@! TA.AperFunction,Plated,PTH,ComponentDrill
T3C0.0276
; #@! TA.AperFunction,Plated,PTH,ComponentDrill
T4C0.0394
%
G90
G05
T1
X4.1142Y-4.439
X4.1142Y-4.4783
X4.1161Y-3.7874
X4.1535Y-3.9094
X4.1988Y-3.8661
X4.2153Y-4.2587
X4.2165Y-4.1102
X4.234Y-4.297
X4.2411Y-3.8279
X4.272Y-3.829
X4.2733Y-4.2215
X4.2811Y-4.4752
X4.3177Y-3.8921
X4.3356Y-3.8494
X4.3366Y-3.7874
X4.3371Y-3.873
X4.3504Y-4.0157
X4.3504Y-4.0945
X4.3626Y-3.8829
X4.3861Y-3.8821
X4.3898Y-4.0551
X4.3996Y-3.7874
X4.4117Y-3.8826
X4.4291Y-4.0157
X4.4291Y-4.0945
X4.4363Y-4.2608
X4.437Y-3.8829
X4.4636Y-3.842
X4.4646Y-4.2874
X4.4705Y-3.7874
X4.4843Y-3.8228
X4.5039Y-3.7874
X4.5059Y-3.8858
X4.508Y-3.811
X4.5177Y-3.9173
X4.5217Y-3.8642
X4.5335Y-3.8031
X4.5413Y-3.7815
X4.5453Y-3.8602
X4.5571Y-3.9213
X4.5571Y-3.9862
X4.572Y-3.8457
X4.5826Y-4.0117
X4.5852Y-4.0636
X4.5866Y-4.374
X4.5878Y-3.8268
X4.5886Y-4.3307
X4.5965Y-3.7815
X4.5965Y-3.8031
X4.6146Y-4.0646
X4.6201Y-3.7854
X4.6258Y-4.1416
X4.6624Y-3.8189
X4.6634Y-3.7894
X4.6634Y-3.8514
X4.6654Y-3.878
X4.6654Y-3.9075
X4.6654Y-3.937
X4.6654Y-4.439
X4.6654Y-4.4783
T2
X4.6516Y-3.7648
T3
X4.1142Y-3.85
X4.1142Y-3.9
X4.1142Y-3.95
X4.1142Y-4.0
X4.1142Y-4.05
X4.1142Y-4.1
X4.1142Y-4.15
X4.1142Y-4.2
X4.1142Y-4.25
X4.1142Y-4.3
X4.1142Y-4.35
X4.6654Y-3.9835
X4.6654Y-4.0335
X4.6654Y-4.0835
X4.6654Y-4.1335
X4.6654Y-4.1835
X4.6654Y-4.2433
X4.6654Y-4.3004
X4.6654Y-4.3504
T4
X4.2323Y-4.3593
X4.2323Y-4.4593
X4.3323Y-4.3593
X4.3323Y-4.4593
X4.4323Y-4.3593
X4.4323Y-4.4593
X4.5323Y-4.3593
X4.5323Y-4.4593
T0
M30
