%TF.GenerationSoftware,KiCad,Pcbnew,(6.0.7)*%
%TF.CreationDate,2023-02-02T23:10:42+01:00*%
%TF.ProjectId,ESP31-01_V4,45535033-312d-4303-915f-56342e6b6963,rev?*%
%TF.SameCoordinates,Original*%
%TF.FileFunction,Copper,L2,Inr*%
%TF.FilePolarity,Positive*%
%FSLAX46Y46*%
G04 Gerber Fmt 4.6, Leading zero omitted, Abs format (unit mm)*
G04 Created by KiCad (PCBNEW (6.0.7)) date 2023-02-02 23:10:42*
%MOMM*%
%LPD*%
G01*
G04 APERTURE LIST*
G04 Aperture macros list*
%AMOutline5P*
0 Free polygon, 5 corners , with rotation*
0 The origin of the aperture is its center*
0 number of corners: always 5*
0 $1 to $10 corner X, Y*
0 $11 Rotation angle, in degrees counterclockwise*
0 create outline with 5 corners*
4,1,5,$1,$2,$3,$4,$5,$6,$7,$8,$9,$10,$1,$2,$11*%
%AMOutline6P*
0 Free polygon, 6 corners , with rotation*
0 The origin of the aperture is its center*
0 number of corners: always 6*
0 $1 to $12 corner X, Y*
0 $13 Rotation angle, in degrees counterclockwise*
0 create outline with 6 corners*
4,1,6,$1,$2,$3,$4,$5,$6,$7,$8,$9,$10,$11,$12,$1,$2,$13*%
%AMOutline7P*
0 Free polygon, 7 corners , with rotation*
0 The origin of the aperture is its center*
0 number of corners: always 7*
0 $1 to $14 corner X, Y*
0 $15 Rotation angle, in degrees counterclockwise*
0 create outline with 7 corners*
4,1,7,$1,$2,$3,$4,$5,$6,$7,$8,$9,$10,$11,$12,$13,$14,$1,$2,$15*%
%AMOutline8P*
0 Free polygon, 8 corners , with rotation*
0 The origin of the aperture is its center*
0 number of corners: always 8*
0 $1 to $16 corner X, Y*
0 $17 Rotation angle, in degrees counterclockwise*
0 create outline with 8 corners*
4,1,8,$1,$2,$3,$4,$5,$6,$7,$8,$9,$10,$11,$12,$13,$14,$15,$16,$1,$2,$17*%
G04 Aperture macros list end*
%TA.AperFunction,ComponentPad*%
%ADD10Outline6P,-0.500000X0.500000X0.250000X0.500000X0.500000X0.250000X0.500000X-0.250000X0.250000X-0.500000X-0.500000X-0.500000X180.000000*%
%TD*%
%TA.AperFunction,ComponentPad*%
%ADD11Outline6P,-0.500000X0.500000X0.250000X0.500000X0.500000X0.250000X0.500000X-0.250000X0.250000X-0.500000X-0.500000X-0.500000X0.000000*%
%TD*%
%TA.AperFunction,ComponentPad*%
%ADD12R,0.900000X0.500000*%
%TD*%
%TA.AperFunction,ComponentPad*%
%ADD13R,1.700000X1.700000*%
%TD*%
%TA.AperFunction,ComponentPad*%
%ADD14O,1.700000X1.700000*%
%TD*%
%TA.AperFunction,ViaPad*%
%ADD15C,0.400000*%
%TD*%
G04 APERTURE END LIST*
D10*
%TO.N,/IO5*%
%TO.C,J5*%
X118500000Y-107780000D03*
%TD*%
%TO.N,/IO21*%
%TO.C,J10*%
X118500000Y-101180000D03*
%TD*%
%TO.N,/IO10*%
%TO.C,J7*%
X118500000Y-109230000D03*
%TD*%
D11*
%TO.N,/IO34*%
%TO.C,J18*%
X104500000Y-102870000D03*
%TD*%
D10*
%TO.N,/IO19*%
%TO.C,J9*%
X118500000Y-103720000D03*
%TD*%
%TO.N,/IO9*%
%TO.C,J6*%
X118500000Y-110500000D03*
%TD*%
%TO.N,/IO23*%
%TO.C,J12*%
X118500000Y-104990000D03*
%TD*%
D11*
%TO.N,/IO35*%
%TO.C,J19*%
X104500000Y-100330000D03*
%TD*%
%TO.N,/IO25*%
%TO.C,J13*%
X104500000Y-107950000D03*
%TD*%
%TO.N,/IO27*%
%TO.C,J15*%
X104500000Y-110490000D03*
%TD*%
%TO.N,/IO33*%
%TO.C,J17*%
X104500000Y-106680000D03*
%TD*%
%TO.N,/IO26*%
%TO.C,J14*%
X104500000Y-109220000D03*
%TD*%
D10*
%TO.N,/IO18*%
%TO.C,J8*%
X118500000Y-106260000D03*
%TD*%
D12*
%TO.N,GND*%
%TO.C,AE1*%
X118150000Y-95625000D03*
%TD*%
D11*
%TO.N,/CAPN*%
%TO.C,J3*%
X104500000Y-105410000D03*
%TD*%
%TO.N,/SENS_VN*%
%TO.C,J4*%
X104500000Y-104140000D03*
%TD*%
D10*
%TO.N,/IO22*%
%TO.C,J11*%
X118500000Y-102450000D03*
%TD*%
D11*
%TO.N,/SENS_VP*%
%TO.C,J1*%
X104500000Y-97790000D03*
%TD*%
%TO.N,/IO32*%
%TO.C,J16*%
X104500000Y-101600000D03*
%TD*%
%TO.N,/CAPP*%
%TO.C,J2*%
X104500000Y-99060000D03*
%TD*%
D13*
%TO.N,GND*%
%TO.C,J20*%
X107500000Y-110725000D03*
D14*
%TO.N,/IO1*%
X107500000Y-113265000D03*
%TO.N,/IO2*%
X110040000Y-110725000D03*
%TO.N,/IO4*%
X110040000Y-113265000D03*
%TO.N,/IO0*%
X112580000Y-110725000D03*
%TO.N,/EN*%
X112580000Y-113265000D03*
%TO.N,/IO3*%
X115120000Y-110725000D03*
%TO.N,VIN*%
X115120000Y-113265000D03*
%TD*%
D15*
%TO.N,GND*%
X112681885Y-108225484D03*
%TO.N,Net-(D1-Pad3)*%
X115750000Y-99600000D03*
%TO.N,Net-(C1-Pad2)*%
X108541403Y-107225792D03*
X116550000Y-110000000D03*
%TO.N,+3V3*%
X113400000Y-108900000D03*
%TO.N,GND*%
X117350000Y-96150000D03*
X116130000Y-97680000D03*
X105500000Y-99300000D03*
X113900000Y-97100000D03*
X104550000Y-96200000D03*
X113550000Y-96200000D03*
X114850000Y-98150000D03*
X118500000Y-98500000D03*
X116530000Y-97200000D03*
X116750000Y-96050000D03*
X111500000Y-103000000D03*
X106650000Y-98200000D03*
X108508800Y-97256600D03*
X116500000Y-111100000D03*
X104500000Y-113750000D03*
X110500000Y-102000000D03*
X108740000Y-113670000D03*
X118450000Y-97825000D03*
X118500000Y-100000000D03*
X115350000Y-96050000D03*
X116750000Y-96600000D03*
X115150000Y-96600000D03*
X112500000Y-102000000D03*
X112500000Y-104000000D03*
X118450000Y-96250000D03*
X111750000Y-96200000D03*
X118500000Y-99250000D03*
X114503200Y-96800000D03*
X114400000Y-96200000D03*
X113374500Y-97587566D03*
X110150000Y-96200000D03*
X118500000Y-112750000D03*
X104500000Y-112750000D03*
X118425000Y-97000000D03*
X110500000Y-104000000D03*
X118500000Y-113750000D03*
X115450000Y-98050000D03*
X114450000Y-98700000D03*
%TO.N,/EN*%
X107725000Y-97227600D03*
X110162095Y-98373291D03*
%TO.N,+3V3*%
X110124000Y-97775000D03*
X114750000Y-99500000D03*
X116396800Y-101896800D03*
X115750000Y-101250000D03*
X107100000Y-104400000D03*
X117495701Y-105195701D03*
%TO.N,/IO1*%
X116464297Y-103214297D03*
%TO.N,/IO2*%
X107069740Y-108169740D03*
%TO.N,/IO4*%
X107542579Y-109142578D03*
%TO.N,/IO3*%
X117211935Y-103241894D03*
%TO.N,/SENS_VN*%
X110808929Y-98625870D03*
%TO.N,/SENS_VP*%
X112700500Y-98625000D03*
%TO.N,/CAPP*%
X112057502Y-98617052D03*
%TO.N,/CAPN*%
X111408098Y-98605879D03*
%TO.N,/IO34*%
X109668798Y-98858724D03*
%TD*%
%TA.AperFunction,NonConductor*%
G36*
X123958191Y-90019907D02*
G01*
X123994155Y-90069407D01*
X123999000Y-90100000D01*
X123999000Y-114900000D01*
X123980093Y-114958191D01*
X123930593Y-114994155D01*
X123900000Y-114999000D01*
X120095303Y-114999000D01*
X120037112Y-114980093D01*
X120001148Y-114930593D01*
X119997150Y-114912921D01*
X119988952Y-114850649D01*
X119988105Y-114844213D01*
X119937623Y-114722339D01*
X119933677Y-114717197D01*
X119933675Y-114717193D01*
X119861266Y-114622829D01*
X119861265Y-114622828D01*
X119857317Y-114617683D01*
X119804989Y-114577530D01*
X119757810Y-114541327D01*
X119757809Y-114541326D01*
X119752662Y-114537377D01*
X119750002Y-114536275D01*
X119714821Y-114500937D01*
X119643492Y-114376110D01*
X119543771Y-114201599D01*
X119271335Y-113724835D01*
X119258880Y-113664930D01*
X119284593Y-113608516D01*
X119291447Y-113601102D01*
X119291449Y-113601099D01*
X119297001Y-113595093D01*
X119297243Y-113594545D01*
X120618606Y-113594545D01*
X120636816Y-113767797D01*
X120638601Y-113773039D01*
X120685780Y-113911629D01*
X120692956Y-113932709D01*
X120695854Y-113937419D01*
X120695856Y-113937424D01*
X120781341Y-114076377D01*
X120784238Y-114081086D01*
X120906124Y-114205552D01*
X121052556Y-114299921D01*
X121216257Y-114359503D01*
X121350801Y-114376500D01*
X121443800Y-114376500D01*
X121467300Y-114373864D01*
X121567624Y-114362611D01*
X121567627Y-114362610D01*
X121573121Y-114361994D01*
X121737637Y-114304704D01*
X121885373Y-114212388D01*
X122008985Y-114089636D01*
X122083563Y-113972120D01*
X122099366Y-113947219D01*
X122099368Y-113947214D01*
X122102329Y-113942549D01*
X122160767Y-113778436D01*
X122162692Y-113762293D01*
X122180739Y-113610951D01*
X122180739Y-113610948D01*
X122181394Y-113605455D01*
X122163184Y-113432203D01*
X122107044Y-113267291D01*
X122104146Y-113262581D01*
X122104144Y-113262576D01*
X122018659Y-113123623D01*
X122015762Y-113118914D01*
X121893876Y-112994448D01*
X121747444Y-112900079D01*
X121583743Y-112840497D01*
X121449199Y-112823500D01*
X121356200Y-112823500D01*
X121332700Y-112826136D01*
X121232376Y-112837389D01*
X121232373Y-112837390D01*
X121226879Y-112838006D01*
X121062363Y-112895296D01*
X120914627Y-112987612D01*
X120791015Y-113110364D01*
X120788053Y-113115032D01*
X120700634Y-113252781D01*
X120700632Y-113252786D01*
X120697671Y-113257451D01*
X120639233Y-113421564D01*
X120638579Y-113427051D01*
X120638578Y-113427054D01*
X120631267Y-113488371D01*
X120618606Y-113594545D01*
X119297243Y-113594545D01*
X119344182Y-113488371D01*
X119349422Y-113427880D01*
X119353545Y-113380273D01*
X119353545Y-113380272D01*
X119354251Y-113372120D01*
X119326120Y-113258875D01*
X119321683Y-113252003D01*
X119267265Y-113167724D01*
X119267264Y-113167723D01*
X119262825Y-113160848D01*
X119262316Y-113160447D01*
X119238784Y-113108335D01*
X119251189Y-113048420D01*
X119264488Y-113030265D01*
X119291447Y-113001101D01*
X119297001Y-112995093D01*
X119344182Y-112888371D01*
X119348545Y-112838006D01*
X119353545Y-112780273D01*
X119353545Y-112780272D01*
X119354251Y-112772120D01*
X119326120Y-112658875D01*
X119321683Y-112652003D01*
X119267265Y-112567724D01*
X119267264Y-112567723D01*
X119262825Y-112560848D01*
X119262316Y-112560447D01*
X119238784Y-112508335D01*
X119251189Y-112448420D01*
X119264488Y-112430265D01*
X119291447Y-112401101D01*
X119297001Y-112395093D01*
X119344182Y-112288371D01*
X119349422Y-112227880D01*
X119353545Y-112180273D01*
X119353545Y-112180272D01*
X119354251Y-112172120D01*
X119352278Y-112164176D01*
X119341510Y-112120827D01*
X119345831Y-112059795D01*
X119385201Y-112012958D01*
X119450512Y-111998808D01*
X119493566Y-112004476D01*
X119500000Y-112005323D01*
X119506434Y-112004476D01*
X119624356Y-111988952D01*
X119624359Y-111988951D01*
X119630787Y-111988105D01*
X119752662Y-111937623D01*
X119759799Y-111932147D01*
X119852164Y-111861271D01*
X119857317Y-111857317D01*
X119937623Y-111752662D01*
X119988105Y-111630787D01*
X120005323Y-111500000D01*
X120001536Y-111500000D01*
X120001000Y-111494167D01*
X120001000Y-100224911D01*
X120001415Y-100215853D01*
X120002871Y-100200000D01*
X120005323Y-100200000D01*
X119988105Y-100069213D01*
X119937623Y-99947339D01*
X119933677Y-99942197D01*
X119933675Y-99942193D01*
X119861266Y-99847829D01*
X119861265Y-99847828D01*
X119857317Y-99842683D01*
X119804989Y-99802530D01*
X119757810Y-99766327D01*
X119757809Y-99766326D01*
X119752662Y-99762377D01*
X119630787Y-99711895D01*
X119624359Y-99711049D01*
X119624356Y-99711048D01*
X119506434Y-99695524D01*
X119500000Y-99694677D01*
X119412436Y-99706205D01*
X119352276Y-99695055D01*
X119310159Y-99650673D01*
X119302173Y-99590011D01*
X119308969Y-99568022D01*
X119340874Y-99495854D01*
X119340874Y-99495853D01*
X119344182Y-99488371D01*
X119349422Y-99427880D01*
X119353545Y-99380273D01*
X119353545Y-99380272D01*
X119354251Y-99372120D01*
X119326120Y-99258875D01*
X119321683Y-99252003D01*
X119267265Y-99167724D01*
X119267264Y-99167723D01*
X119262825Y-99160848D01*
X119262316Y-99160447D01*
X119238784Y-99108335D01*
X119251189Y-99048420D01*
X119264488Y-99030265D01*
X119291447Y-99001101D01*
X119297001Y-98995093D01*
X119344182Y-98888371D01*
X119349422Y-98827880D01*
X119353545Y-98780273D01*
X119353545Y-98780272D01*
X119354251Y-98772120D01*
X119326120Y-98658875D01*
X119321683Y-98652003D01*
X119267265Y-98567724D01*
X119267264Y-98567723D01*
X119262825Y-98560848D01*
X119262316Y-98560447D01*
X119238784Y-98508335D01*
X119251189Y-98448420D01*
X119264488Y-98430265D01*
X119291447Y-98401101D01*
X119297001Y-98395093D01*
X119344182Y-98288371D01*
X119349422Y-98227880D01*
X119353545Y-98180273D01*
X119353545Y-98180272D01*
X119354251Y-98172120D01*
X119326120Y-98058875D01*
X119263167Y-97961377D01*
X119247782Y-97898290D01*
X119249917Y-97875872D01*
X119275774Y-97818056D01*
X119291446Y-97801102D01*
X119297001Y-97795093D01*
X119344182Y-97688371D01*
X119349422Y-97627880D01*
X119353545Y-97580273D01*
X119353545Y-97580272D01*
X119354251Y-97572120D01*
X119326120Y-97458875D01*
X119312964Y-97438500D01*
X119297580Y-97375413D01*
X119318107Y-97159881D01*
X119326115Y-97129237D01*
X119344182Y-97088371D01*
X119344888Y-97080221D01*
X119353545Y-96980273D01*
X119353545Y-96980272D01*
X119354251Y-96972120D01*
X119352278Y-96964176D01*
X119345128Y-96935392D01*
X119342654Y-96902140D01*
X119443789Y-95840217D01*
X119468128Y-95784081D01*
X119520815Y-95752972D01*
X119529421Y-95751450D01*
X119624356Y-95738952D01*
X119624359Y-95738951D01*
X119630787Y-95738105D01*
X119752662Y-95687623D01*
X119759799Y-95682147D01*
X119852164Y-95611271D01*
X119857317Y-95607317D01*
X119937623Y-95502662D01*
X119988105Y-95380787D01*
X120005323Y-95250000D01*
X120001536Y-95250000D01*
X120001000Y-95244167D01*
X120001000Y-90994545D01*
X122018606Y-90994545D01*
X122036816Y-91167797D01*
X122092956Y-91332709D01*
X122095854Y-91337419D01*
X122095856Y-91337424D01*
X122181341Y-91476377D01*
X122184238Y-91481086D01*
X122306124Y-91605552D01*
X122452556Y-91699921D01*
X122616257Y-91759503D01*
X122750801Y-91776500D01*
X122843800Y-91776500D01*
X122867300Y-91773864D01*
X122967624Y-91762611D01*
X122967627Y-91762610D01*
X122973121Y-91761994D01*
X123137637Y-91704704D01*
X123285373Y-91612388D01*
X123408985Y-91489636D01*
X123444546Y-91433600D01*
X123499366Y-91347219D01*
X123499368Y-91347214D01*
X123502329Y-91342549D01*
X123560767Y-91178436D01*
X123581394Y-91005455D01*
X123563184Y-90832203D01*
X123507044Y-90667291D01*
X123504146Y-90662581D01*
X123504144Y-90662576D01*
X123418659Y-90523623D01*
X123415762Y-90518914D01*
X123293876Y-90394448D01*
X123147444Y-90300079D01*
X122983743Y-90240497D01*
X122849199Y-90223500D01*
X122756200Y-90223500D01*
X122732700Y-90226136D01*
X122632376Y-90237389D01*
X122632373Y-90237390D01*
X122626879Y-90238006D01*
X122462363Y-90295296D01*
X122314627Y-90387612D01*
X122191015Y-90510364D01*
X122188053Y-90515032D01*
X122100634Y-90652781D01*
X122100632Y-90652786D01*
X122097671Y-90657451D01*
X122039233Y-90821564D01*
X122018606Y-90994545D01*
X120001000Y-90994545D01*
X120001000Y-90100000D01*
X120019907Y-90041809D01*
X120069407Y-90005845D01*
X120100000Y-90001000D01*
X123900000Y-90001000D01*
X123958191Y-90019907D01*
G37*
%TD.AperFunction*%
%TA.AperFunction,Conductor*%
%TO.N,GND*%
G36*
X118417774Y-95418907D02*
G01*
X118428869Y-95428286D01*
X118808247Y-95800000D01*
X118901000Y-95800000D01*
X118959191Y-95818907D01*
X118995155Y-95868407D01*
X119000000Y-95899000D01*
X119000000Y-95960769D01*
X118981093Y-96018960D01*
X118931593Y-96054924D01*
X118917255Y-96058425D01*
X118892973Y-96062467D01*
X118892968Y-96062469D01*
X118884897Y-96063812D01*
X118782206Y-96119222D01*
X118702999Y-96204907D01*
X118655818Y-96311629D01*
X118655112Y-96319777D01*
X118655112Y-96319778D01*
X118646455Y-96419727D01*
X118645749Y-96427880D01*
X118673880Y-96541125D01*
X118678317Y-96547996D01*
X118678317Y-96547997D01*
X118708727Y-96595093D01*
X118737175Y-96639152D01*
X118737684Y-96639553D01*
X118761216Y-96691665D01*
X118748811Y-96751580D01*
X118735512Y-96769735D01*
X118702999Y-96804907D01*
X118655818Y-96911629D01*
X118655112Y-96919777D01*
X118655112Y-96919778D01*
X118648493Y-96996197D01*
X118645749Y-97027880D01*
X118647722Y-97035822D01*
X118647722Y-97035823D01*
X118664235Y-97102296D01*
X118673880Y-97141125D01*
X118678317Y-97147996D01*
X118678317Y-97147997D01*
X118708727Y-97195093D01*
X118737175Y-97239152D01*
X118737684Y-97239553D01*
X118761216Y-97291665D01*
X118748811Y-97351580D01*
X118735512Y-97369735D01*
X118702999Y-97404907D01*
X118655818Y-97511629D01*
X118655112Y-97519777D01*
X118655112Y-97519778D01*
X118646911Y-97614465D01*
X118645749Y-97627880D01*
X118673880Y-97741125D01*
X118678317Y-97747996D01*
X118678317Y-97747997D01*
X118708727Y-97795093D01*
X118737175Y-97839152D01*
X118737684Y-97839553D01*
X118761216Y-97891665D01*
X118748811Y-97951580D01*
X118735512Y-97969735D01*
X118702999Y-98004907D01*
X118655818Y-98111629D01*
X118655112Y-98119777D01*
X118655112Y-98119778D01*
X118647057Y-98212779D01*
X118645749Y-98227880D01*
X118647722Y-98235822D01*
X118647722Y-98235823D01*
X118668131Y-98317980D01*
X118673880Y-98341125D01*
X118678317Y-98347996D01*
X118678317Y-98347997D01*
X118708727Y-98395093D01*
X118737175Y-98439152D01*
X118737684Y-98439553D01*
X118761216Y-98491665D01*
X118748811Y-98551580D01*
X118735512Y-98569735D01*
X118702999Y-98604907D01*
X118655818Y-98711629D01*
X118655112Y-98719777D01*
X118655112Y-98719778D01*
X118646455Y-98819727D01*
X118645749Y-98827880D01*
X118647722Y-98835822D01*
X118647722Y-98835823D01*
X118669417Y-98923157D01*
X118673880Y-98941125D01*
X118678317Y-98947996D01*
X118678317Y-98947997D01*
X118717048Y-99007980D01*
X118737175Y-99039152D01*
X118737684Y-99039553D01*
X118761216Y-99091665D01*
X118748811Y-99151580D01*
X118735512Y-99169735D01*
X118702999Y-99204907D01*
X118655818Y-99311629D01*
X118655112Y-99319777D01*
X118655112Y-99319778D01*
X118650355Y-99374696D01*
X118645749Y-99427880D01*
X118647722Y-99435822D01*
X118647722Y-99435823D01*
X118655655Y-99467756D01*
X118673880Y-99541125D01*
X118678317Y-99547996D01*
X118678317Y-99547997D01*
X118732715Y-99632244D01*
X118737175Y-99639152D01*
X118828811Y-99711392D01*
X118836531Y-99714103D01*
X118843704Y-99718047D01*
X118842936Y-99719444D01*
X118884072Y-99750836D01*
X118901605Y-99809456D01*
X118886457Y-99859798D01*
X118867837Y-99889430D01*
X118867833Y-99889438D01*
X118864878Y-99894141D01*
X118812742Y-100043138D01*
X118795843Y-100193123D01*
X118794344Y-100199641D01*
X118796805Y-100210515D01*
X118797059Y-100211638D01*
X118799500Y-100233488D01*
X118799500Y-100380500D01*
X118780593Y-100438691D01*
X118731093Y-100474655D01*
X118700501Y-100479500D01*
X118257010Y-100479499D01*
X118230159Y-100479499D01*
X118225356Y-100480462D01*
X118225353Y-100480462D01*
X118180985Y-100489355D01*
X118180982Y-100489356D01*
X118171439Y-100491269D01*
X118122255Y-100524195D01*
X117844196Y-100802254D01*
X117810997Y-100852099D01*
X117799500Y-100910162D01*
X117799499Y-101449841D01*
X117800462Y-101454644D01*
X117800462Y-101454647D01*
X117809355Y-101499015D01*
X117809356Y-101499018D01*
X117811269Y-101508561D01*
X117844195Y-101557745D01*
X118031446Y-101744996D01*
X118059223Y-101799513D01*
X118049652Y-101859945D01*
X118031446Y-101885004D01*
X117844196Y-102072254D01*
X117810997Y-102122099D01*
X117799500Y-102180162D01*
X117799499Y-102719841D01*
X117800462Y-102724644D01*
X117800462Y-102724647D01*
X117809355Y-102769015D01*
X117809356Y-102769018D01*
X117811269Y-102778561D01*
X117844195Y-102827745D01*
X118031446Y-103014996D01*
X118059223Y-103069513D01*
X118049652Y-103129945D01*
X118031446Y-103155004D01*
X117844196Y-103342254D01*
X117841482Y-103346329D01*
X117841481Y-103346330D01*
X117821313Y-103376611D01*
X117810997Y-103392099D01*
X117799500Y-103450162D01*
X117799499Y-103989841D01*
X117800462Y-103994644D01*
X117800462Y-103994647D01*
X117809355Y-104039015D01*
X117809356Y-104039018D01*
X117811269Y-104048561D01*
X117844195Y-104097745D01*
X118031446Y-104284996D01*
X118059223Y-104339513D01*
X118049652Y-104399945D01*
X118031446Y-104425004D01*
X117844196Y-104612254D01*
X117810997Y-104662099D01*
X117799500Y-104720162D01*
X117799500Y-104739449D01*
X117780593Y-104797640D01*
X117731093Y-104833604D01*
X117669907Y-104833604D01*
X117655555Y-104827659D01*
X117627945Y-104813591D01*
X117627944Y-104813591D01*
X117621005Y-104810055D01*
X117613311Y-104808836D01*
X117613310Y-104808836D01*
X117503398Y-104791428D01*
X117495701Y-104790209D01*
X117488004Y-104791428D01*
X117378092Y-104808836D01*
X117378091Y-104808836D01*
X117370397Y-104810055D01*
X117363458Y-104813591D01*
X117363457Y-104813591D01*
X117264298Y-104864115D01*
X117264296Y-104864116D01*
X117257359Y-104867651D01*
X117167651Y-104957359D01*
X117164116Y-104964296D01*
X117164115Y-104964298D01*
X117113591Y-105063457D01*
X117110055Y-105070397D01*
X117090209Y-105195701D01*
X117110055Y-105321005D01*
X117167651Y-105434043D01*
X117257359Y-105523751D01*
X117264296Y-105527286D01*
X117264298Y-105527287D01*
X117318680Y-105554996D01*
X117370397Y-105581347D01*
X117378091Y-105582566D01*
X117378092Y-105582566D01*
X117488004Y-105599974D01*
X117495701Y-105601193D01*
X117503398Y-105599974D01*
X117613310Y-105582566D01*
X117613311Y-105582566D01*
X117621005Y-105581347D01*
X117672722Y-105554996D01*
X117727104Y-105527287D01*
X117727106Y-105527286D01*
X117734043Y-105523751D01*
X117797118Y-105460676D01*
X117851635Y-105432899D01*
X117912067Y-105442470D01*
X117937126Y-105460676D01*
X118031446Y-105554996D01*
X118059223Y-105609513D01*
X118049652Y-105669945D01*
X118031446Y-105695004D01*
X117844196Y-105882254D01*
X117810997Y-105932099D01*
X117799500Y-105990162D01*
X117799499Y-106529841D01*
X117800462Y-106534644D01*
X117800462Y-106534647D01*
X117809355Y-106579015D01*
X117809356Y-106579018D01*
X117811269Y-106588561D01*
X117844195Y-106637745D01*
X118122254Y-106915804D01*
X118126327Y-106918517D01*
X118126337Y-106918525D01*
X118154900Y-106937549D01*
X118192850Y-106985543D01*
X118195342Y-107046677D01*
X118161425Y-107097601D01*
X118155114Y-107102198D01*
X118122255Y-107124195D01*
X117844196Y-107402254D01*
X117810997Y-107452099D01*
X117799500Y-107510162D01*
X117799499Y-108049841D01*
X117800462Y-108054644D01*
X117800462Y-108054647D01*
X117809355Y-108099015D01*
X117809356Y-108099018D01*
X117811269Y-108108561D01*
X117844195Y-108157745D01*
X118121446Y-108434996D01*
X118149223Y-108489513D01*
X118139652Y-108549945D01*
X118121446Y-108575004D01*
X117844196Y-108852254D01*
X117841482Y-108856329D01*
X117841481Y-108856330D01*
X117817522Y-108892303D01*
X117810997Y-108902099D01*
X117799500Y-108960162D01*
X117799499Y-109499841D01*
X117800462Y-109504644D01*
X117800462Y-109504647D01*
X117809355Y-109549015D01*
X117809356Y-109549018D01*
X117811269Y-109558561D01*
X117844195Y-109607745D01*
X118031446Y-109794996D01*
X118059223Y-109849513D01*
X118049652Y-109909945D01*
X118031446Y-109935004D01*
X117844196Y-110122254D01*
X117841482Y-110126329D01*
X117841481Y-110126330D01*
X117834259Y-110137174D01*
X117810997Y-110172099D01*
X117799500Y-110230162D01*
X117799499Y-110769841D01*
X117800462Y-110774644D01*
X117800462Y-110774647D01*
X117809355Y-110819015D01*
X117809356Y-110819018D01*
X117811269Y-110828561D01*
X117844195Y-110877745D01*
X118122254Y-111155804D01*
X118126329Y-111158518D01*
X118126330Y-111158519D01*
X118156677Y-111178731D01*
X118172099Y-111189003D01*
X118230162Y-111200500D01*
X118700500Y-111200500D01*
X118758691Y-111219407D01*
X118794655Y-111268907D01*
X118799500Y-111299500D01*
X118799500Y-111465983D01*
X118796982Y-111488169D01*
X118794344Y-111499641D01*
X118795705Y-111505658D01*
X118796795Y-111515332D01*
X118796795Y-111515333D01*
X118805410Y-111591791D01*
X118812742Y-111656862D01*
X118824315Y-111689936D01*
X118857221Y-111783977D01*
X118858593Y-111845147D01*
X118823749Y-111895441D01*
X118810791Y-111903798D01*
X118782206Y-111919222D01*
X118702999Y-112004907D01*
X118655818Y-112111629D01*
X118655112Y-112119777D01*
X118655112Y-112119778D01*
X118647346Y-112209443D01*
X118645749Y-112227880D01*
X118673880Y-112341125D01*
X118678317Y-112347996D01*
X118678317Y-112347997D01*
X118708727Y-112395093D01*
X118737175Y-112439152D01*
X118737684Y-112439553D01*
X118761216Y-112491665D01*
X118748811Y-112551580D01*
X118735512Y-112569735D01*
X118702999Y-112604907D01*
X118655818Y-112711629D01*
X118655112Y-112719777D01*
X118655112Y-112719778D01*
X118646455Y-112819727D01*
X118645749Y-112827880D01*
X118647722Y-112835822D01*
X118647722Y-112835823D01*
X118652183Y-112853779D01*
X118673880Y-112941125D01*
X118678317Y-112947996D01*
X118678317Y-112947997D01*
X118708727Y-112995093D01*
X118737175Y-113039152D01*
X118737684Y-113039553D01*
X118761216Y-113091665D01*
X118748811Y-113151580D01*
X118735512Y-113169735D01*
X118702999Y-113204907D01*
X118655818Y-113311629D01*
X118655112Y-113319777D01*
X118655112Y-113319778D01*
X118646455Y-113419727D01*
X118645749Y-113427880D01*
X118673880Y-113541125D01*
X118678317Y-113547996D01*
X118678317Y-113547997D01*
X118708727Y-113595093D01*
X118737175Y-113639152D01*
X118737684Y-113639553D01*
X118761216Y-113691665D01*
X118748811Y-113751580D01*
X118735512Y-113769735D01*
X118702999Y-113804907D01*
X118655818Y-113911629D01*
X118655112Y-113919777D01*
X118655112Y-113919778D01*
X118648042Y-114001404D01*
X118645749Y-114027880D01*
X118673880Y-114141125D01*
X118678317Y-114147996D01*
X118678317Y-114147997D01*
X118708727Y-114195093D01*
X118737175Y-114239152D01*
X118828811Y-114311392D01*
X118836529Y-114314102D01*
X118836530Y-114314103D01*
X118933803Y-114348263D01*
X118982442Y-114385384D01*
X119000000Y-114441671D01*
X119000000Y-114443336D01*
X118981093Y-114501527D01*
X118971004Y-114513340D01*
X118948862Y-114535482D01*
X118864878Y-114669141D01*
X118863042Y-114674389D01*
X118842464Y-114733197D01*
X118805398Y-114781878D01*
X118749019Y-114799500D01*
X104299500Y-114799500D01*
X104241309Y-114780593D01*
X104205345Y-114731093D01*
X104200500Y-114700500D01*
X104200500Y-113250262D01*
X106444520Y-113250262D01*
X106445526Y-113262244D01*
X106458751Y-113419727D01*
X106461759Y-113455553D01*
X106518544Y-113653586D01*
X106612712Y-113836818D01*
X106740677Y-113998270D01*
X106744357Y-114001402D01*
X106744359Y-114001404D01*
X106846546Y-114088371D01*
X106897564Y-114131791D01*
X106901787Y-114134151D01*
X106901791Y-114134154D01*
X106941342Y-114156258D01*
X107077398Y-114232297D01*
X107081996Y-114233791D01*
X107268724Y-114294463D01*
X107268726Y-114294464D01*
X107273329Y-114295959D01*
X107477894Y-114320351D01*
X107482716Y-114319980D01*
X107482719Y-114319980D01*
X107550541Y-114314761D01*
X107683300Y-114304546D01*
X107881725Y-114249145D01*
X107886038Y-114246966D01*
X107886044Y-114246964D01*
X108061289Y-114158441D01*
X108061291Y-114158440D01*
X108065610Y-114156258D01*
X108076184Y-114147997D01*
X108224135Y-114032406D01*
X108224139Y-114032402D01*
X108227951Y-114029424D01*
X108236322Y-114019727D01*
X108336086Y-113904147D01*
X108362564Y-113873472D01*
X108364957Y-113869260D01*
X108461934Y-113698550D01*
X108461935Y-113698547D01*
X108464323Y-113694344D01*
X108477882Y-113653586D01*
X108527824Y-113503454D01*
X108527824Y-113503452D01*
X108529351Y-113498863D01*
X108530677Y-113488371D01*
X108554823Y-113297228D01*
X108555171Y-113294474D01*
X108555583Y-113265000D01*
X108555313Y-113262244D01*
X108554138Y-113250262D01*
X108984520Y-113250262D01*
X108985526Y-113262244D01*
X108998751Y-113419727D01*
X109001759Y-113455553D01*
X109058544Y-113653586D01*
X109152712Y-113836818D01*
X109280677Y-113998270D01*
X109284357Y-114001402D01*
X109284359Y-114001404D01*
X109386546Y-114088371D01*
X109437564Y-114131791D01*
X109441787Y-114134151D01*
X109441791Y-114134154D01*
X109481342Y-114156258D01*
X109617398Y-114232297D01*
X109621996Y-114233791D01*
X109808724Y-114294463D01*
X109808726Y-114294464D01*
X109813329Y-114295959D01*
X110017894Y-114320351D01*
X110022716Y-114319980D01*
X110022719Y-114319980D01*
X110090541Y-114314761D01*
X110223300Y-114304546D01*
X110421725Y-114249145D01*
X110426038Y-114246966D01*
X110426044Y-114246964D01*
X110601289Y-114158441D01*
X110601291Y-114158440D01*
X110605610Y-114156258D01*
X110616184Y-114147997D01*
X110764135Y-114032406D01*
X110764139Y-114032402D01*
X110767951Y-114029424D01*
X110776322Y-114019727D01*
X110876086Y-113904147D01*
X110902564Y-113873472D01*
X110904957Y-113869260D01*
X111001934Y-113698550D01*
X111001935Y-113698547D01*
X111004323Y-113694344D01*
X111017882Y-113653586D01*
X111067824Y-113503454D01*
X111067824Y-113503452D01*
X111069351Y-113498863D01*
X111070677Y-113488371D01*
X111094823Y-113297228D01*
X111095171Y-113294474D01*
X111095583Y-113265000D01*
X111095313Y-113262244D01*
X111094138Y-113250262D01*
X111524520Y-113250262D01*
X111525526Y-113262244D01*
X111538751Y-113419727D01*
X111541759Y-113455553D01*
X111598544Y-113653586D01*
X111692712Y-113836818D01*
X111820677Y-113998270D01*
X111824357Y-114001402D01*
X111824359Y-114001404D01*
X111926546Y-114088371D01*
X111977564Y-114131791D01*
X111981787Y-114134151D01*
X111981791Y-114134154D01*
X112021342Y-114156258D01*
X112157398Y-114232297D01*
X112161996Y-114233791D01*
X112348724Y-114294463D01*
X112348726Y-114294464D01*
X112353329Y-114295959D01*
X112557894Y-114320351D01*
X112562716Y-114319980D01*
X112562719Y-114319980D01*
X112630541Y-114314761D01*
X112763300Y-114304546D01*
X112961725Y-114249145D01*
X112966038Y-114246966D01*
X112966044Y-114246964D01*
X113141289Y-114158441D01*
X113141291Y-114158440D01*
X113145610Y-114156258D01*
X113156184Y-114147997D01*
X113304135Y-114032406D01*
X113304139Y-114032402D01*
X113307951Y-114029424D01*
X113316322Y-114019727D01*
X113416086Y-113904147D01*
X113442564Y-113873472D01*
X113444957Y-113869260D01*
X113541934Y-113698550D01*
X113541935Y-113698547D01*
X113544323Y-113694344D01*
X113557882Y-113653586D01*
X113607824Y-113503454D01*
X113607824Y-113503452D01*
X113609351Y-113498863D01*
X113610677Y-113488371D01*
X113634823Y-113297228D01*
X113635171Y-113294474D01*
X113635583Y-113265000D01*
X113635313Y-113262244D01*
X113634138Y-113250262D01*
X114064520Y-113250262D01*
X114065526Y-113262244D01*
X114078751Y-113419727D01*
X114081759Y-113455553D01*
X114138544Y-113653586D01*
X114232712Y-113836818D01*
X114360677Y-113998270D01*
X114364357Y-114001402D01*
X114364359Y-114001404D01*
X114466546Y-114088371D01*
X114517564Y-114131791D01*
X114521787Y-114134151D01*
X114521791Y-114134154D01*
X114561342Y-114156258D01*
X114697398Y-114232297D01*
X114701996Y-114233791D01*
X114888724Y-114294463D01*
X114888726Y-114294464D01*
X114893329Y-114295959D01*
X115097894Y-114320351D01*
X115102716Y-114319980D01*
X115102719Y-114319980D01*
X115170541Y-114314761D01*
X115303300Y-114304546D01*
X115501725Y-114249145D01*
X115506038Y-114246966D01*
X115506044Y-114246964D01*
X115681289Y-114158441D01*
X115681291Y-114158440D01*
X115685610Y-114156258D01*
X115696184Y-114147997D01*
X115844135Y-114032406D01*
X115844139Y-114032402D01*
X115847951Y-114029424D01*
X115856322Y-114019727D01*
X115956086Y-113904147D01*
X115982564Y-113873472D01*
X115984957Y-113869260D01*
X116081934Y-113698550D01*
X116081935Y-113698547D01*
X116084323Y-113694344D01*
X116097882Y-113653586D01*
X116147824Y-113503454D01*
X116147824Y-113503452D01*
X116149351Y-113498863D01*
X116150677Y-113488371D01*
X116174823Y-113297228D01*
X116175171Y-113294474D01*
X116175583Y-113265000D01*
X116175313Y-113262244D01*
X116155952Y-113064780D01*
X116155951Y-113064776D01*
X116155480Y-113059970D01*
X116148214Y-113035902D01*
X116097333Y-112867380D01*
X116095935Y-112862749D01*
X115999218Y-112680849D01*
X115869011Y-112521200D01*
X115842042Y-112498889D01*
X115714002Y-112392965D01*
X115714000Y-112392964D01*
X115710275Y-112389882D01*
X115529055Y-112291897D01*
X115465855Y-112272333D01*
X115336875Y-112232407D01*
X115336871Y-112232406D01*
X115332254Y-112230977D01*
X115327446Y-112230472D01*
X115327443Y-112230471D01*
X115132185Y-112209949D01*
X115132183Y-112209949D01*
X115127369Y-112209443D01*
X115067354Y-112214905D01*
X114927022Y-112227675D01*
X114927017Y-112227676D01*
X114922203Y-112228114D01*
X114724572Y-112286280D01*
X114720288Y-112288519D01*
X114720287Y-112288520D01*
X114709428Y-112294197D01*
X114542002Y-112381726D01*
X114538231Y-112384758D01*
X114385220Y-112507781D01*
X114385217Y-112507783D01*
X114381447Y-112510815D01*
X114378333Y-112514526D01*
X114378332Y-112514527D01*
X114369585Y-112524952D01*
X114249024Y-112668630D01*
X114246689Y-112672878D01*
X114246688Y-112672879D01*
X114239955Y-112685126D01*
X114149776Y-112849162D01*
X114087484Y-113045532D01*
X114086944Y-113050344D01*
X114086944Y-113050345D01*
X114083531Y-113080778D01*
X114064520Y-113250262D01*
X113634138Y-113250262D01*
X113615952Y-113064780D01*
X113615951Y-113064776D01*
X113615480Y-113059970D01*
X113608214Y-113035902D01*
X113557333Y-112867380D01*
X113555935Y-112862749D01*
X113459218Y-112680849D01*
X113329011Y-112521200D01*
X113302042Y-112498889D01*
X113174002Y-112392965D01*
X113174000Y-112392964D01*
X113170275Y-112389882D01*
X112989055Y-112291897D01*
X112925855Y-112272333D01*
X112796875Y-112232407D01*
X112796871Y-112232406D01*
X112792254Y-112230977D01*
X112787446Y-112230472D01*
X112787443Y-112230471D01*
X112592185Y-112209949D01*
X112592183Y-112209949D01*
X112587369Y-112209443D01*
X112527354Y-112214905D01*
X112387022Y-112227675D01*
X112387017Y-112227676D01*
X112382203Y-112228114D01*
X112184572Y-112286280D01*
X112180288Y-112288519D01*
X112180287Y-112288520D01*
X112169428Y-112294197D01*
X112002002Y-112381726D01*
X111998231Y-112384758D01*
X111845220Y-112507781D01*
X111845217Y-112507783D01*
X111841447Y-112510815D01*
X111838333Y-112514526D01*
X111838332Y-112514527D01*
X111829585Y-112524952D01*
X111709024Y-112668630D01*
X111706689Y-112672878D01*
X111706688Y-112672879D01*
X111699955Y-112685126D01*
X111609776Y-112849162D01*
X111547484Y-113045532D01*
X111546944Y-113050344D01*
X111546944Y-113050345D01*
X111543531Y-113080778D01*
X111524520Y-113250262D01*
X111094138Y-113250262D01*
X111075952Y-113064780D01*
X111075951Y-113064776D01*
X111075480Y-113059970D01*
X111068214Y-113035902D01*
X111017333Y-112867380D01*
X111015935Y-112862749D01*
X110919218Y-112680849D01*
X110789011Y-112521200D01*
X110762042Y-112498889D01*
X110634002Y-112392965D01*
X110634000Y-112392964D01*
X110630275Y-112389882D01*
X110449055Y-112291897D01*
X110385855Y-112272333D01*
X110256875Y-112232407D01*
X110256871Y-112232406D01*
X110252254Y-112230977D01*
X110247446Y-112230472D01*
X110247443Y-112230471D01*
X110052185Y-112209949D01*
X110052183Y-112209949D01*
X110047369Y-112209443D01*
X109987354Y-112214905D01*
X109847022Y-112227675D01*
X109847017Y-112227676D01*
X109842203Y-112228114D01*
X109644572Y-112286280D01*
X109640288Y-112288519D01*
X109640287Y-112288520D01*
X109629428Y-112294197D01*
X109462002Y-112381726D01*
X109458231Y-112384758D01*
X109305220Y-112507781D01*
X109305217Y-112507783D01*
X109301447Y-112510815D01*
X109298333Y-112514526D01*
X109298332Y-112514527D01*
X109289585Y-112524952D01*
X109169024Y-112668630D01*
X109166689Y-112672878D01*
X109166688Y-112672879D01*
X109159955Y-112685126D01*
X109069776Y-112849162D01*
X109007484Y-113045532D01*
X109006944Y-113050344D01*
X109006944Y-113050345D01*
X109003531Y-113080778D01*
X108984520Y-113250262D01*
X108554138Y-113250262D01*
X108535952Y-113064780D01*
X108535951Y-113064776D01*
X108535480Y-113059970D01*
X108528214Y-113035902D01*
X108477333Y-112867380D01*
X108475935Y-112862749D01*
X108379218Y-112680849D01*
X108249011Y-112521200D01*
X108222042Y-112498889D01*
X108094002Y-112392965D01*
X108094000Y-112392964D01*
X108090275Y-112389882D01*
X107909055Y-112291897D01*
X107845855Y-112272333D01*
X107716875Y-112232407D01*
X107716871Y-112232406D01*
X107712254Y-112230977D01*
X107707446Y-112230472D01*
X107707443Y-112230471D01*
X107512185Y-112209949D01*
X107512183Y-112209949D01*
X107507369Y-112209443D01*
X107447354Y-112214905D01*
X107307022Y-112227675D01*
X107307017Y-112227676D01*
X107302203Y-112228114D01*
X107104572Y-112286280D01*
X107100288Y-112288519D01*
X107100287Y-112288520D01*
X107089428Y-112294197D01*
X106922002Y-112381726D01*
X106918231Y-112384758D01*
X106765220Y-112507781D01*
X106765217Y-112507783D01*
X106761447Y-112510815D01*
X106758333Y-112514526D01*
X106758332Y-112514527D01*
X106749585Y-112524952D01*
X106629024Y-112668630D01*
X106626689Y-112672878D01*
X106626688Y-112672879D01*
X106619955Y-112685126D01*
X106529776Y-112849162D01*
X106467484Y-113045532D01*
X106466944Y-113050344D01*
X106466944Y-113050345D01*
X106463531Y-113080778D01*
X106444520Y-113250262D01*
X104200500Y-113250262D01*
X104200500Y-111289500D01*
X104219407Y-111231309D01*
X104268907Y-111195345D01*
X104299499Y-111190500D01*
X104742990Y-111190501D01*
X104769841Y-111190501D01*
X104774644Y-111189538D01*
X104774647Y-111189538D01*
X104819015Y-111180645D01*
X104819018Y-111180644D01*
X104828561Y-111178731D01*
X104877745Y-111145805D01*
X105155804Y-110867746D01*
X105189003Y-110817901D01*
X105200500Y-110759838D01*
X105200500Y-110710262D01*
X108984520Y-110710262D01*
X109001759Y-110915553D01*
X109058544Y-111113586D01*
X109152712Y-111296818D01*
X109280677Y-111458270D01*
X109284357Y-111461402D01*
X109284359Y-111461404D01*
X109330553Y-111500718D01*
X109437564Y-111591791D01*
X109441787Y-111594151D01*
X109441791Y-111594154D01*
X109481342Y-111616258D01*
X109617398Y-111692297D01*
X109621996Y-111693791D01*
X109808724Y-111754463D01*
X109808726Y-111754464D01*
X109813329Y-111755959D01*
X110017894Y-111780351D01*
X110022716Y-111779980D01*
X110022719Y-111779980D01*
X110090541Y-111774761D01*
X110223300Y-111764546D01*
X110421725Y-111709145D01*
X110426038Y-111706966D01*
X110426044Y-111706964D01*
X110601289Y-111618441D01*
X110601291Y-111618440D01*
X110605610Y-111616258D01*
X110640943Y-111588653D01*
X110764135Y-111492406D01*
X110764139Y-111492402D01*
X110767951Y-111489424D01*
X110778333Y-111477397D01*
X110897554Y-111339276D01*
X110902564Y-111333472D01*
X110921863Y-111299500D01*
X111001934Y-111158550D01*
X111001935Y-111158547D01*
X111004323Y-111154344D01*
X111006268Y-111148499D01*
X111067824Y-110963454D01*
X111067824Y-110963452D01*
X111069351Y-110958863D01*
X111079167Y-110881165D01*
X111094823Y-110757228D01*
X111095171Y-110754474D01*
X111095583Y-110725000D01*
X111094138Y-110710262D01*
X111524520Y-110710262D01*
X111541759Y-110915553D01*
X111598544Y-111113586D01*
X111692712Y-111296818D01*
X111820677Y-111458270D01*
X111824357Y-111461402D01*
X111824359Y-111461404D01*
X111870553Y-111500718D01*
X111977564Y-111591791D01*
X111981787Y-111594151D01*
X111981791Y-111594154D01*
X112021342Y-111616258D01*
X112157398Y-111692297D01*
X112161996Y-111693791D01*
X112348724Y-111754463D01*
X112348726Y-111754464D01*
X112353329Y-111755959D01*
X112557894Y-111780351D01*
X112562716Y-111779980D01*
X112562719Y-111779980D01*
X112630541Y-111774761D01*
X112763300Y-111764546D01*
X112961725Y-111709145D01*
X112966038Y-111706966D01*
X112966044Y-111706964D01*
X113141289Y-111618441D01*
X113141291Y-111618440D01*
X113145610Y-111616258D01*
X113180943Y-111588653D01*
X113304135Y-111492406D01*
X113304139Y-111492402D01*
X113307951Y-111489424D01*
X113318333Y-111477397D01*
X113437554Y-111339276D01*
X113442564Y-111333472D01*
X113461863Y-111299500D01*
X113541934Y-111158550D01*
X113541935Y-111158547D01*
X113544323Y-111154344D01*
X113546268Y-111148499D01*
X113607824Y-110963454D01*
X113607824Y-110963452D01*
X113609351Y-110958863D01*
X113619167Y-110881165D01*
X113634823Y-110757228D01*
X113635171Y-110754474D01*
X113635583Y-110725000D01*
X113634138Y-110710262D01*
X114064520Y-110710262D01*
X114081759Y-110915553D01*
X114138544Y-111113586D01*
X114232712Y-111296818D01*
X114360677Y-111458270D01*
X114364357Y-111461402D01*
X114364359Y-111461404D01*
X114410553Y-111500718D01*
X114517564Y-111591791D01*
X114521787Y-111594151D01*
X114521791Y-111594154D01*
X114561342Y-111616258D01*
X114697398Y-111692297D01*
X114701996Y-111693791D01*
X114888724Y-111754463D01*
X114888726Y-111754464D01*
X114893329Y-111755959D01*
X115097894Y-111780351D01*
X115102716Y-111779980D01*
X115102719Y-111779980D01*
X115170541Y-111774761D01*
X115303300Y-111764546D01*
X115501725Y-111709145D01*
X115506038Y-111706966D01*
X115506044Y-111706964D01*
X115681289Y-111618441D01*
X115681291Y-111618440D01*
X115685610Y-111616258D01*
X115720943Y-111588653D01*
X115844135Y-111492406D01*
X115844139Y-111492402D01*
X115847951Y-111489424D01*
X115858333Y-111477397D01*
X115977554Y-111339276D01*
X115982564Y-111333472D01*
X116001863Y-111299500D01*
X116081934Y-111158550D01*
X116081935Y-111158547D01*
X116084323Y-111154344D01*
X116086268Y-111148499D01*
X116147824Y-110963454D01*
X116147824Y-110963452D01*
X116149351Y-110958863D01*
X116159167Y-110881165D01*
X116174823Y-110757228D01*
X116175171Y-110754474D01*
X116175583Y-110725000D01*
X116155480Y-110519970D01*
X116118847Y-110398636D01*
X116120129Y-110337464D01*
X116157121Y-110288728D01*
X116215695Y-110271044D01*
X116273477Y-110291165D01*
X116283626Y-110300018D01*
X116311658Y-110328050D01*
X116318595Y-110331585D01*
X116318597Y-110331586D01*
X116417756Y-110382110D01*
X116424696Y-110385646D01*
X116432390Y-110386865D01*
X116432391Y-110386865D01*
X116542303Y-110404273D01*
X116550000Y-110405492D01*
X116557697Y-110404273D01*
X116667609Y-110386865D01*
X116667610Y-110386865D01*
X116675304Y-110385646D01*
X116682244Y-110382110D01*
X116781403Y-110331586D01*
X116781405Y-110331585D01*
X116788342Y-110328050D01*
X116878050Y-110238342D01*
X116884639Y-110225412D01*
X116932110Y-110132244D01*
X116932110Y-110132243D01*
X116935646Y-110125304D01*
X116938255Y-110108835D01*
X116954273Y-110007697D01*
X116955492Y-110000000D01*
X116935646Y-109874696D01*
X116925610Y-109855000D01*
X116881586Y-109768597D01*
X116881585Y-109768595D01*
X116878050Y-109761658D01*
X116788342Y-109671950D01*
X116781405Y-109668415D01*
X116781403Y-109668414D01*
X116682244Y-109617890D01*
X116682243Y-109617890D01*
X116675304Y-109614354D01*
X116667610Y-109613135D01*
X116667609Y-109613135D01*
X116557697Y-109595727D01*
X116550000Y-109594508D01*
X116542303Y-109595727D01*
X116432391Y-109613135D01*
X116432390Y-109613135D01*
X116424696Y-109614354D01*
X116417757Y-109617890D01*
X116417756Y-109617890D01*
X116318597Y-109668414D01*
X116318595Y-109668415D01*
X116311658Y-109671950D01*
X116221950Y-109761658D01*
X116218415Y-109768595D01*
X116218414Y-109768597D01*
X116174390Y-109855000D01*
X116164354Y-109874696D01*
X116144508Y-110000000D01*
X116145727Y-110007697D01*
X116145727Y-110007698D01*
X116149810Y-110033478D01*
X116140238Y-110093910D01*
X116096973Y-110137174D01*
X116036541Y-110146745D01*
X115982025Y-110118967D01*
X115975310Y-110111535D01*
X115890622Y-110007698D01*
X115869011Y-109981200D01*
X115710275Y-109849882D01*
X115547108Y-109761658D01*
X115533309Y-109754197D01*
X115533308Y-109754197D01*
X115529055Y-109751897D01*
X115465855Y-109732333D01*
X115336875Y-109692407D01*
X115336871Y-109692406D01*
X115332254Y-109690977D01*
X115327446Y-109690472D01*
X115327443Y-109690471D01*
X115132185Y-109669949D01*
X115132183Y-109669949D01*
X115127369Y-109669443D01*
X115067354Y-109674905D01*
X114927022Y-109687675D01*
X114927017Y-109687676D01*
X114922203Y-109688114D01*
X114724572Y-109746280D01*
X114720288Y-109748519D01*
X114720287Y-109748520D01*
X114709428Y-109754197D01*
X114542002Y-109841726D01*
X114538231Y-109844758D01*
X114385220Y-109967781D01*
X114385217Y-109967783D01*
X114381447Y-109970815D01*
X114378333Y-109974526D01*
X114378332Y-109974527D01*
X114258272Y-110117609D01*
X114249024Y-110128630D01*
X114246689Y-110132878D01*
X114246688Y-110132879D01*
X114239955Y-110145126D01*
X114149776Y-110309162D01*
X114148313Y-110313775D01*
X114148311Y-110313779D01*
X114125514Y-110385646D01*
X114087484Y-110505532D01*
X114086944Y-110510344D01*
X114086944Y-110510345D01*
X114085865Y-110519970D01*
X114064520Y-110710262D01*
X113634138Y-110710262D01*
X113615480Y-110519970D01*
X113555935Y-110322749D01*
X113459218Y-110140849D01*
X113329011Y-109981200D01*
X113170275Y-109849882D01*
X113007108Y-109761658D01*
X112993309Y-109754197D01*
X112993308Y-109754197D01*
X112989055Y-109751897D01*
X112925855Y-109732333D01*
X112796875Y-109692407D01*
X112796871Y-109692406D01*
X112792254Y-109690977D01*
X112787446Y-109690472D01*
X112787443Y-109690471D01*
X112592185Y-109669949D01*
X112592183Y-109669949D01*
X112587369Y-109669443D01*
X112527354Y-109674905D01*
X112387022Y-109687675D01*
X112387017Y-109687676D01*
X112382203Y-109688114D01*
X112184572Y-109746280D01*
X112180288Y-109748519D01*
X112180287Y-109748520D01*
X112169428Y-109754197D01*
X112002002Y-109841726D01*
X111998231Y-109844758D01*
X111845220Y-109967781D01*
X111845217Y-109967783D01*
X111841447Y-109970815D01*
X111838333Y-109974526D01*
X111838332Y-109974527D01*
X111718272Y-110117609D01*
X111709024Y-110128630D01*
X111706689Y-110132878D01*
X111706688Y-110132879D01*
X111699955Y-110145126D01*
X111609776Y-110309162D01*
X111608313Y-110313775D01*
X111608311Y-110313779D01*
X111585514Y-110385646D01*
X111547484Y-110505532D01*
X111546944Y-110510344D01*
X111546944Y-110510345D01*
X111545865Y-110519970D01*
X111524520Y-110710262D01*
X111094138Y-110710262D01*
X111075480Y-110519970D01*
X111015935Y-110322749D01*
X110919218Y-110140849D01*
X110789011Y-109981200D01*
X110630275Y-109849882D01*
X110467108Y-109761658D01*
X110453309Y-109754197D01*
X110453308Y-109754197D01*
X110449055Y-109751897D01*
X110385855Y-109732333D01*
X110256875Y-109692407D01*
X110256871Y-109692406D01*
X110252254Y-109690977D01*
X110247446Y-109690472D01*
X110247443Y-109690471D01*
X110052185Y-109669949D01*
X110052183Y-109669949D01*
X110047369Y-109669443D01*
X109987354Y-109674905D01*
X109847022Y-109687675D01*
X109847017Y-109687676D01*
X109842203Y-109688114D01*
X109644572Y-109746280D01*
X109640288Y-109748519D01*
X109640287Y-109748520D01*
X109629428Y-109754197D01*
X109462002Y-109841726D01*
X109458231Y-109844758D01*
X109305220Y-109967781D01*
X109305217Y-109967783D01*
X109301447Y-109970815D01*
X109298333Y-109974526D01*
X109298332Y-109974527D01*
X109178272Y-110117609D01*
X109169024Y-110128630D01*
X109166689Y-110132878D01*
X109166688Y-110132879D01*
X109159955Y-110145126D01*
X109069776Y-110309162D01*
X109068313Y-110313775D01*
X109068311Y-110313779D01*
X109045514Y-110385646D01*
X109007484Y-110505532D01*
X109006944Y-110510344D01*
X109006944Y-110510345D01*
X109005865Y-110519970D01*
X108984520Y-110710262D01*
X105200500Y-110710262D01*
X105200501Y-110220159D01*
X105199538Y-110215353D01*
X105190645Y-110170985D01*
X105190644Y-110170982D01*
X105188731Y-110161439D01*
X105155805Y-110112255D01*
X104968554Y-109925004D01*
X104940777Y-109870487D01*
X104950348Y-109810055D01*
X104968554Y-109784996D01*
X105155804Y-109597746D01*
X105189003Y-109547901D01*
X105200500Y-109489838D01*
X105200501Y-109142578D01*
X107137087Y-109142578D01*
X107156933Y-109267882D01*
X107160469Y-109274821D01*
X107160469Y-109274822D01*
X107164183Y-109282110D01*
X107214529Y-109380920D01*
X107304237Y-109470628D01*
X107311174Y-109474163D01*
X107311176Y-109474164D01*
X107410335Y-109524688D01*
X107417275Y-109528224D01*
X107424969Y-109529443D01*
X107424970Y-109529443D01*
X107534882Y-109546851D01*
X107542579Y-109548070D01*
X107550276Y-109546851D01*
X107660188Y-109529443D01*
X107660189Y-109529443D01*
X107667883Y-109528224D01*
X107674823Y-109524688D01*
X107773982Y-109474164D01*
X107773984Y-109474163D01*
X107780921Y-109470628D01*
X107870629Y-109380920D01*
X107920976Y-109282110D01*
X107924689Y-109274822D01*
X107924689Y-109274821D01*
X107928225Y-109267882D01*
X107948071Y-109142578D01*
X107928225Y-109017274D01*
X107894028Y-108950159D01*
X107874165Y-108911175D01*
X107874164Y-108911173D01*
X107870629Y-108904236D01*
X107866393Y-108900000D01*
X112994508Y-108900000D01*
X112995727Y-108907697D01*
X113004037Y-108960162D01*
X113014354Y-109025304D01*
X113071950Y-109138342D01*
X113161658Y-109228050D01*
X113168595Y-109231585D01*
X113168597Y-109231586D01*
X113267756Y-109282110D01*
X113274696Y-109285646D01*
X113282390Y-109286865D01*
X113282391Y-109286865D01*
X113392303Y-109304273D01*
X113400000Y-109305492D01*
X113407697Y-109304273D01*
X113517609Y-109286865D01*
X113517610Y-109286865D01*
X113525304Y-109285646D01*
X113532244Y-109282110D01*
X113631403Y-109231586D01*
X113631405Y-109231585D01*
X113638342Y-109228050D01*
X113728050Y-109138342D01*
X113785646Y-109025304D01*
X113795964Y-108960162D01*
X113804273Y-108907697D01*
X113805492Y-108900000D01*
X113802855Y-108883348D01*
X113786865Y-108782391D01*
X113786865Y-108782390D01*
X113785646Y-108774696D01*
X113782110Y-108767756D01*
X113731586Y-108668597D01*
X113731585Y-108668595D01*
X113728050Y-108661658D01*
X113638342Y-108571950D01*
X113631405Y-108568415D01*
X113631403Y-108568414D01*
X113532244Y-108517890D01*
X113532243Y-108517890D01*
X113525304Y-108514354D01*
X113517610Y-108513135D01*
X113517609Y-108513135D01*
X113407697Y-108495727D01*
X113400000Y-108494508D01*
X113392303Y-108495727D01*
X113282391Y-108513135D01*
X113282390Y-108513135D01*
X113274696Y-108514354D01*
X113267757Y-108517890D01*
X113267756Y-108517890D01*
X113168597Y-108568414D01*
X113168595Y-108568415D01*
X113161658Y-108571950D01*
X113071950Y-108661658D01*
X113068415Y-108668595D01*
X113068414Y-108668597D01*
X113017890Y-108767756D01*
X113014354Y-108774696D01*
X113013135Y-108782390D01*
X113013135Y-108782391D01*
X112997145Y-108883348D01*
X112994508Y-108900000D01*
X107866393Y-108900000D01*
X107780921Y-108814528D01*
X107773984Y-108810993D01*
X107773982Y-108810992D01*
X107674823Y-108760468D01*
X107674822Y-108760468D01*
X107667883Y-108756932D01*
X107660189Y-108755713D01*
X107660188Y-108755713D01*
X107550276Y-108738305D01*
X107542579Y-108737086D01*
X107534882Y-108738305D01*
X107424970Y-108755713D01*
X107424969Y-108755713D01*
X107417275Y-108756932D01*
X107410336Y-108760468D01*
X107410335Y-108760468D01*
X107311176Y-108810992D01*
X107311174Y-108810993D01*
X107304237Y-108814528D01*
X107214529Y-108904236D01*
X107210994Y-108911173D01*
X107210993Y-108911175D01*
X107191130Y-108950159D01*
X107156933Y-109017274D01*
X107137087Y-109142578D01*
X105200501Y-109142578D01*
X105200501Y-108950159D01*
X105199538Y-108945353D01*
X105190645Y-108900985D01*
X105190644Y-108900982D01*
X105188731Y-108891439D01*
X105155805Y-108842255D01*
X104968554Y-108655004D01*
X104940777Y-108600487D01*
X104950348Y-108540055D01*
X104968554Y-108514996D01*
X105155804Y-108327746D01*
X105177585Y-108295044D01*
X105183607Y-108286003D01*
X105183607Y-108286002D01*
X105189003Y-108277901D01*
X105200500Y-108219838D01*
X105200500Y-108169740D01*
X106664248Y-108169740D01*
X106684094Y-108295044D01*
X106687630Y-108301983D01*
X106687630Y-108301984D01*
X106700757Y-108327746D01*
X106741690Y-108408082D01*
X106831398Y-108497790D01*
X106838335Y-108501325D01*
X106838337Y-108501326D01*
X106870846Y-108517890D01*
X106944436Y-108555386D01*
X106952130Y-108556605D01*
X106952131Y-108556605D01*
X107062043Y-108574013D01*
X107069740Y-108575232D01*
X107077437Y-108574013D01*
X107187349Y-108556605D01*
X107187350Y-108556605D01*
X107195044Y-108555386D01*
X107268634Y-108517890D01*
X107301143Y-108501326D01*
X107301145Y-108501325D01*
X107308082Y-108497790D01*
X107397790Y-108408082D01*
X107438724Y-108327746D01*
X107451850Y-108301984D01*
X107451850Y-108301983D01*
X107455386Y-108295044D01*
X107475232Y-108169740D01*
X107465542Y-108108561D01*
X107456605Y-108052131D01*
X107456605Y-108052130D01*
X107455386Y-108044436D01*
X107397790Y-107931398D01*
X107308082Y-107841690D01*
X107301145Y-107838155D01*
X107301143Y-107838154D01*
X107201984Y-107787630D01*
X107201983Y-107787630D01*
X107195044Y-107784094D01*
X107187350Y-107782875D01*
X107187349Y-107782875D01*
X107077437Y-107765467D01*
X107069740Y-107764248D01*
X107062043Y-107765467D01*
X106952131Y-107782875D01*
X106952130Y-107782875D01*
X106944436Y-107784094D01*
X106937497Y-107787630D01*
X106937496Y-107787630D01*
X106838337Y-107838154D01*
X106838335Y-107838155D01*
X106831398Y-107841690D01*
X106741690Y-107931398D01*
X106684094Y-108044436D01*
X106682875Y-108052130D01*
X106682875Y-108052131D01*
X106673938Y-108108561D01*
X106664248Y-108169740D01*
X105200500Y-108169740D01*
X105200501Y-107680159D01*
X105199538Y-107675353D01*
X105190645Y-107630985D01*
X105190644Y-107630982D01*
X105188731Y-107621439D01*
X105155805Y-107572255D01*
X104968554Y-107385004D01*
X104940777Y-107330487D01*
X104950348Y-107270055D01*
X104968554Y-107244996D01*
X104987758Y-107225792D01*
X108135911Y-107225792D01*
X108137130Y-107233489D01*
X108138953Y-107244996D01*
X108155757Y-107351096D01*
X108159293Y-107358035D01*
X108159293Y-107358036D01*
X108207221Y-107452099D01*
X108213353Y-107464134D01*
X108303061Y-107553842D01*
X108309998Y-107557377D01*
X108310000Y-107557378D01*
X108409159Y-107607902D01*
X108416099Y-107611438D01*
X108423793Y-107612657D01*
X108423794Y-107612657D01*
X108533706Y-107630065D01*
X108541403Y-107631284D01*
X108549100Y-107630065D01*
X108659012Y-107612657D01*
X108659013Y-107612657D01*
X108666707Y-107611438D01*
X108673647Y-107607902D01*
X108772806Y-107557378D01*
X108772808Y-107557377D01*
X108779745Y-107553842D01*
X108869453Y-107464134D01*
X108875586Y-107452099D01*
X108923513Y-107358036D01*
X108923513Y-107358035D01*
X108927049Y-107351096D01*
X108943854Y-107244996D01*
X108945676Y-107233489D01*
X108946895Y-107225792D01*
X108945676Y-107218095D01*
X108928268Y-107108183D01*
X108928268Y-107108182D01*
X108927049Y-107100488D01*
X108884002Y-107016003D01*
X108872989Y-106994389D01*
X108872988Y-106994387D01*
X108869453Y-106987450D01*
X108779745Y-106897742D01*
X108772808Y-106894207D01*
X108772806Y-106894206D01*
X108673647Y-106843682D01*
X108673646Y-106843682D01*
X108666707Y-106840146D01*
X108659013Y-106838927D01*
X108659012Y-106838927D01*
X108549100Y-106821519D01*
X108541403Y-106820300D01*
X108533706Y-106821519D01*
X108423794Y-106838927D01*
X108423793Y-106838927D01*
X108416099Y-106840146D01*
X108409160Y-106843682D01*
X108409159Y-106843682D01*
X108310000Y-106894206D01*
X108309998Y-106894207D01*
X108303061Y-106897742D01*
X108213353Y-106987450D01*
X108209818Y-106994387D01*
X108209817Y-106994389D01*
X108198804Y-107016003D01*
X108155757Y-107100488D01*
X108154538Y-107108182D01*
X108154538Y-107108183D01*
X108137130Y-107218095D01*
X108135911Y-107225792D01*
X104987758Y-107225792D01*
X105155804Y-107057746D01*
X105158519Y-107053670D01*
X105183607Y-107016003D01*
X105183607Y-107016002D01*
X105189003Y-107007901D01*
X105200500Y-106949838D01*
X105200501Y-106410159D01*
X105199538Y-106405353D01*
X105190645Y-106360985D01*
X105190644Y-106360982D01*
X105188731Y-106351439D01*
X105155805Y-106302255D01*
X104968554Y-106115004D01*
X104940777Y-106060487D01*
X104950348Y-106000055D01*
X104968554Y-105974996D01*
X105155804Y-105787746D01*
X105189003Y-105737901D01*
X105200500Y-105679838D01*
X105200501Y-105140159D01*
X105199538Y-105135353D01*
X105190645Y-105090985D01*
X105190644Y-105090982D01*
X105188731Y-105081439D01*
X105155805Y-105032255D01*
X104968554Y-104845004D01*
X104940777Y-104790487D01*
X104950348Y-104730055D01*
X104968554Y-104704996D01*
X105155804Y-104517746D01*
X105189003Y-104467901D01*
X105200500Y-104409838D01*
X105200500Y-104400000D01*
X106694508Y-104400000D01*
X106695727Y-104407697D01*
X106706546Y-104476003D01*
X106714354Y-104525304D01*
X106771950Y-104638342D01*
X106861658Y-104728050D01*
X106868595Y-104731585D01*
X106868597Y-104731586D01*
X106953802Y-104775000D01*
X106974696Y-104785646D01*
X106982390Y-104786865D01*
X106982391Y-104786865D01*
X107092303Y-104804273D01*
X107100000Y-104805492D01*
X107107697Y-104804273D01*
X107217609Y-104786865D01*
X107217610Y-104786865D01*
X107225304Y-104785646D01*
X107246198Y-104775000D01*
X107331403Y-104731586D01*
X107331405Y-104731585D01*
X107338342Y-104728050D01*
X107428050Y-104638342D01*
X107485646Y-104525304D01*
X107493455Y-104476003D01*
X107504273Y-104407697D01*
X107505492Y-104400000D01*
X107495912Y-104339513D01*
X107486865Y-104282391D01*
X107486865Y-104282390D01*
X107485646Y-104274696D01*
X107428050Y-104161658D01*
X107338342Y-104071950D01*
X107331405Y-104068415D01*
X107331403Y-104068414D01*
X107232244Y-104017890D01*
X107232243Y-104017890D01*
X107225304Y-104014354D01*
X107217610Y-104013135D01*
X107217609Y-104013135D01*
X107107697Y-103995727D01*
X107100000Y-103994508D01*
X107092303Y-103995727D01*
X106982391Y-104013135D01*
X106982390Y-104013135D01*
X106974696Y-104014354D01*
X106967757Y-104017890D01*
X106967756Y-104017890D01*
X106868597Y-104068414D01*
X106868595Y-104068415D01*
X106861658Y-104071950D01*
X106771950Y-104161658D01*
X106714354Y-104274696D01*
X106713135Y-104282390D01*
X106713135Y-104282391D01*
X106704088Y-104339513D01*
X106694508Y-104400000D01*
X105200500Y-104400000D01*
X105200501Y-103870159D01*
X105199538Y-103865353D01*
X105190645Y-103820985D01*
X105190644Y-103820982D01*
X105188731Y-103811439D01*
X105155805Y-103762255D01*
X104968554Y-103575004D01*
X104940777Y-103520487D01*
X104950348Y-103460055D01*
X104968554Y-103434996D01*
X105155804Y-103247746D01*
X105178083Y-103214297D01*
X116058805Y-103214297D01*
X116078651Y-103339601D01*
X116082187Y-103346540D01*
X116082187Y-103346541D01*
X116132565Y-103445412D01*
X116136247Y-103452639D01*
X116225955Y-103542347D01*
X116232892Y-103545882D01*
X116232894Y-103545883D01*
X116332053Y-103596407D01*
X116338993Y-103599943D01*
X116346687Y-103601162D01*
X116346688Y-103601162D01*
X116456600Y-103618570D01*
X116464297Y-103619789D01*
X116471994Y-103618570D01*
X116581906Y-103601162D01*
X116581907Y-103601162D01*
X116589601Y-103599943D01*
X116596541Y-103596407D01*
X116695700Y-103545883D01*
X116695702Y-103545882D01*
X116702639Y-103542347D01*
X116708145Y-103536841D01*
X116708149Y-103536838D01*
X116754315Y-103490673D01*
X116808832Y-103462896D01*
X116869264Y-103472468D01*
X116894322Y-103490673D01*
X116973593Y-103569944D01*
X116980530Y-103573479D01*
X116980532Y-103573480D01*
X117025529Y-103596407D01*
X117086631Y-103627540D01*
X117094325Y-103628759D01*
X117094326Y-103628759D01*
X117204238Y-103646167D01*
X117211935Y-103647386D01*
X117219632Y-103646167D01*
X117329544Y-103628759D01*
X117329545Y-103628759D01*
X117337239Y-103627540D01*
X117398341Y-103596407D01*
X117443338Y-103573480D01*
X117443340Y-103573479D01*
X117450277Y-103569944D01*
X117539985Y-103480236D01*
X117548821Y-103462896D01*
X117594045Y-103374138D01*
X117594045Y-103374137D01*
X117597581Y-103367198D01*
X117617427Y-103241894D01*
X117611837Y-103206600D01*
X117598800Y-103124285D01*
X117598800Y-103124284D01*
X117597581Y-103116590D01*
X117594045Y-103109650D01*
X117543521Y-103010491D01*
X117543520Y-103010489D01*
X117539985Y-103003552D01*
X117450277Y-102913844D01*
X117443340Y-102910309D01*
X117443338Y-102910308D01*
X117344179Y-102859784D01*
X117344178Y-102859784D01*
X117337239Y-102856248D01*
X117329545Y-102855029D01*
X117329544Y-102855029D01*
X117219632Y-102837621D01*
X117211935Y-102836402D01*
X117204238Y-102837621D01*
X117094326Y-102855029D01*
X117094325Y-102855029D01*
X117086631Y-102856248D01*
X117079692Y-102859784D01*
X117079691Y-102859784D01*
X116980532Y-102910308D01*
X116980530Y-102910309D01*
X116973593Y-102913844D01*
X116968087Y-102919350D01*
X116968083Y-102919353D01*
X116921919Y-102965518D01*
X116867403Y-102993296D01*
X116806971Y-102983725D01*
X116781911Y-102965519D01*
X116702639Y-102886247D01*
X116695702Y-102882712D01*
X116695700Y-102882711D01*
X116596541Y-102832187D01*
X116596540Y-102832187D01*
X116589601Y-102828651D01*
X116581907Y-102827432D01*
X116581906Y-102827432D01*
X116471994Y-102810024D01*
X116464297Y-102808805D01*
X116456600Y-102810024D01*
X116346688Y-102827432D01*
X116346687Y-102827432D01*
X116338993Y-102828651D01*
X116332054Y-102832187D01*
X116332053Y-102832187D01*
X116232894Y-102882711D01*
X116232892Y-102882712D01*
X116225955Y-102886247D01*
X116136247Y-102975955D01*
X116132712Y-102982892D01*
X116132711Y-102982894D01*
X116083447Y-103079580D01*
X116078651Y-103088993D01*
X116077432Y-103096687D01*
X116077432Y-103096688D01*
X116061402Y-103197901D01*
X116058805Y-103214297D01*
X105178083Y-103214297D01*
X105189003Y-103197901D01*
X105200500Y-103139838D01*
X105200501Y-102600159D01*
X105199538Y-102595353D01*
X105190645Y-102550985D01*
X105190644Y-102550982D01*
X105188731Y-102541439D01*
X105155805Y-102492255D01*
X104968554Y-102305004D01*
X104940777Y-102250487D01*
X104950348Y-102190055D01*
X104968554Y-102164996D01*
X105155804Y-101977746D01*
X105189003Y-101927901D01*
X105200500Y-101869838D01*
X105200501Y-101330159D01*
X105199538Y-101325353D01*
X105190645Y-101280985D01*
X105190644Y-101280982D01*
X105188731Y-101271439D01*
X105174379Y-101250000D01*
X115344508Y-101250000D01*
X115345727Y-101257697D01*
X115356443Y-101325353D01*
X115364354Y-101375304D01*
X115367890Y-101382243D01*
X115367890Y-101382244D01*
X115402333Y-101449841D01*
X115421950Y-101488342D01*
X115511658Y-101578050D01*
X115518595Y-101581585D01*
X115518597Y-101581586D01*
X115613028Y-101629701D01*
X115624696Y-101635646D01*
X115632390Y-101636865D01*
X115632391Y-101636865D01*
X115742303Y-101654273D01*
X115750000Y-101655492D01*
X115757697Y-101654273D01*
X115867609Y-101636865D01*
X115867610Y-101636865D01*
X115875304Y-101635646D01*
X115882244Y-101632110D01*
X115889658Y-101629701D01*
X115890196Y-101631358D01*
X115941229Y-101623275D01*
X115995746Y-101651051D01*
X116023525Y-101705567D01*
X116015442Y-101756604D01*
X116017099Y-101757142D01*
X116014690Y-101764556D01*
X116011154Y-101771496D01*
X116009935Y-101779190D01*
X116009935Y-101779191D01*
X116004264Y-101815000D01*
X115991308Y-101896800D01*
X116011154Y-102022104D01*
X116014690Y-102029043D01*
X116014690Y-102029044D01*
X116038784Y-102076330D01*
X116068750Y-102135142D01*
X116158458Y-102224850D01*
X116165395Y-102228385D01*
X116165397Y-102228386D01*
X116178378Y-102235000D01*
X116271496Y-102282446D01*
X116279190Y-102283665D01*
X116279191Y-102283665D01*
X116389103Y-102301073D01*
X116396800Y-102302292D01*
X116404497Y-102301073D01*
X116514409Y-102283665D01*
X116514410Y-102283665D01*
X116522104Y-102282446D01*
X116615222Y-102235000D01*
X116628203Y-102228386D01*
X116628205Y-102228385D01*
X116635142Y-102224850D01*
X116724850Y-102135142D01*
X116754817Y-102076330D01*
X116778910Y-102029044D01*
X116778910Y-102029043D01*
X116782446Y-102022104D01*
X116802292Y-101896800D01*
X116789336Y-101815000D01*
X116783665Y-101779191D01*
X116783665Y-101779190D01*
X116782446Y-101771496D01*
X116768944Y-101744996D01*
X116728386Y-101665397D01*
X116728385Y-101665395D01*
X116724850Y-101658458D01*
X116635142Y-101568750D01*
X116628205Y-101565215D01*
X116628203Y-101565214D01*
X116529044Y-101514690D01*
X116529043Y-101514690D01*
X116522104Y-101511154D01*
X116514410Y-101509935D01*
X116514409Y-101509935D01*
X116404497Y-101492527D01*
X116396800Y-101491308D01*
X116389103Y-101492527D01*
X116279191Y-101509935D01*
X116279190Y-101509935D01*
X116271496Y-101511154D01*
X116264556Y-101514690D01*
X116257142Y-101517099D01*
X116256604Y-101515442D01*
X116205571Y-101523525D01*
X116151054Y-101495749D01*
X116123275Y-101441233D01*
X116131358Y-101390196D01*
X116129701Y-101389658D01*
X116132110Y-101382244D01*
X116135646Y-101375304D01*
X116143558Y-101325353D01*
X116154273Y-101257697D01*
X116155492Y-101250000D01*
X116135646Y-101124696D01*
X116132110Y-101117756D01*
X116081586Y-101018597D01*
X116081585Y-101018595D01*
X116078050Y-101011658D01*
X115988342Y-100921950D01*
X115981405Y-100918415D01*
X115981403Y-100918414D01*
X115882244Y-100867890D01*
X115882243Y-100867890D01*
X115875304Y-100864354D01*
X115867610Y-100863135D01*
X115867609Y-100863135D01*
X115757697Y-100845727D01*
X115750000Y-100844508D01*
X115742303Y-100845727D01*
X115632391Y-100863135D01*
X115632390Y-100863135D01*
X115624696Y-100864354D01*
X115617757Y-100867890D01*
X115617756Y-100867890D01*
X115518597Y-100918414D01*
X115518595Y-100918415D01*
X115511658Y-100921950D01*
X115421950Y-101011658D01*
X115418415Y-101018595D01*
X115418414Y-101018597D01*
X115367890Y-101117756D01*
X115364354Y-101124696D01*
X115344508Y-101250000D01*
X105174379Y-101250000D01*
X105155805Y-101222255D01*
X104968554Y-101035004D01*
X104940777Y-100980487D01*
X104950348Y-100920055D01*
X104968554Y-100894996D01*
X105155804Y-100707746D01*
X105189003Y-100657901D01*
X105200500Y-100599838D01*
X105200501Y-100060159D01*
X105198196Y-100048659D01*
X105190645Y-100010985D01*
X105190644Y-100010982D01*
X105188731Y-100001439D01*
X105155805Y-99952255D01*
X104968554Y-99765004D01*
X104940777Y-99710487D01*
X104950348Y-99650055D01*
X104968554Y-99624996D01*
X105093550Y-99500000D01*
X114344508Y-99500000D01*
X114345727Y-99507697D01*
X114354784Y-99564878D01*
X114364354Y-99625304D01*
X114367890Y-99632243D01*
X114367890Y-99632244D01*
X114415307Y-99725304D01*
X114421950Y-99738342D01*
X114511658Y-99828050D01*
X114518595Y-99831585D01*
X114518597Y-99831586D01*
X114617756Y-99882110D01*
X114624696Y-99885646D01*
X114632390Y-99886865D01*
X114632391Y-99886865D01*
X114742303Y-99904273D01*
X114750000Y-99905492D01*
X114757697Y-99904273D01*
X114867609Y-99886865D01*
X114867610Y-99886865D01*
X114875304Y-99885646D01*
X114882244Y-99882110D01*
X114981403Y-99831586D01*
X114981405Y-99831585D01*
X114988342Y-99828050D01*
X115078050Y-99738342D01*
X115084694Y-99725304D01*
X115132110Y-99632244D01*
X115132110Y-99632243D01*
X115135646Y-99625304D01*
X115139654Y-99600000D01*
X115344508Y-99600000D01*
X115345727Y-99607697D01*
X115362151Y-99711392D01*
X115364354Y-99725304D01*
X115367890Y-99732243D01*
X115367890Y-99732244D01*
X115407232Y-99809456D01*
X115421950Y-99838342D01*
X115511658Y-99928050D01*
X115518595Y-99931585D01*
X115518597Y-99931586D01*
X115567062Y-99956280D01*
X115624696Y-99985646D01*
X115632390Y-99986865D01*
X115632391Y-99986865D01*
X115742303Y-100004273D01*
X115750000Y-100005492D01*
X115757697Y-100004273D01*
X115867609Y-99986865D01*
X115867610Y-99986865D01*
X115875304Y-99985646D01*
X115932938Y-99956280D01*
X115981403Y-99931586D01*
X115981405Y-99931585D01*
X115988342Y-99928050D01*
X116078050Y-99838342D01*
X116092769Y-99809456D01*
X116132110Y-99732244D01*
X116132110Y-99732243D01*
X116135646Y-99725304D01*
X116137850Y-99711392D01*
X116154273Y-99607697D01*
X116155492Y-99600000D01*
X116135646Y-99474696D01*
X116132110Y-99467756D01*
X116081586Y-99368597D01*
X116081585Y-99368595D01*
X116078050Y-99361658D01*
X115988342Y-99271950D01*
X115981405Y-99268415D01*
X115981403Y-99268414D01*
X115882244Y-99217890D01*
X115882243Y-99217890D01*
X115875304Y-99214354D01*
X115867610Y-99213135D01*
X115867609Y-99213135D01*
X115757697Y-99195727D01*
X115750000Y-99194508D01*
X115742303Y-99195727D01*
X115632391Y-99213135D01*
X115632390Y-99213135D01*
X115624696Y-99214354D01*
X115617757Y-99217890D01*
X115617756Y-99217890D01*
X115518597Y-99268414D01*
X115518595Y-99268415D01*
X115511658Y-99271950D01*
X115421950Y-99361658D01*
X115418415Y-99368595D01*
X115418414Y-99368597D01*
X115367890Y-99467756D01*
X115364354Y-99474696D01*
X115344508Y-99600000D01*
X115139654Y-99600000D01*
X115145217Y-99564878D01*
X115154273Y-99507697D01*
X115155492Y-99500000D01*
X115145632Y-99437746D01*
X115136865Y-99382391D01*
X115136865Y-99382390D01*
X115135646Y-99374696D01*
X115112790Y-99329838D01*
X115081586Y-99268597D01*
X115081585Y-99268595D01*
X115078050Y-99261658D01*
X114988342Y-99171950D01*
X114981405Y-99168415D01*
X114981403Y-99168414D01*
X114882244Y-99117890D01*
X114882243Y-99117890D01*
X114875304Y-99114354D01*
X114867610Y-99113135D01*
X114867609Y-99113135D01*
X114757697Y-99095727D01*
X114750000Y-99094508D01*
X114742303Y-99095727D01*
X114632391Y-99113135D01*
X114632390Y-99113135D01*
X114624696Y-99114354D01*
X114617757Y-99117890D01*
X114617756Y-99117890D01*
X114518597Y-99168414D01*
X114518595Y-99168415D01*
X114511658Y-99171950D01*
X114421950Y-99261658D01*
X114418415Y-99268595D01*
X114418414Y-99268597D01*
X114387210Y-99329838D01*
X114364354Y-99374696D01*
X114363135Y-99382390D01*
X114363135Y-99382391D01*
X114354368Y-99437746D01*
X114344508Y-99500000D01*
X105093550Y-99500000D01*
X105155804Y-99437746D01*
X105162375Y-99427880D01*
X105183607Y-99396003D01*
X105183607Y-99396002D01*
X105189003Y-99387901D01*
X105200500Y-99329838D01*
X105200501Y-98858724D01*
X109263306Y-98858724D01*
X109264525Y-98866421D01*
X109278806Y-98956586D01*
X109283152Y-98984028D01*
X109286688Y-98990967D01*
X109286688Y-98990968D01*
X109332449Y-99080778D01*
X109340748Y-99097066D01*
X109430456Y-99186774D01*
X109437393Y-99190309D01*
X109437395Y-99190310D01*
X109491524Y-99217890D01*
X109543494Y-99244370D01*
X109551188Y-99245589D01*
X109551189Y-99245589D01*
X109661101Y-99262997D01*
X109668798Y-99264216D01*
X109676495Y-99262997D01*
X109786407Y-99245589D01*
X109786408Y-99245589D01*
X109794102Y-99244370D01*
X109846072Y-99217890D01*
X109900201Y-99190310D01*
X109900203Y-99190309D01*
X109907140Y-99186774D01*
X109996848Y-99097066D01*
X110005148Y-99080778D01*
X110050908Y-98990968D01*
X110050908Y-98990967D01*
X110054444Y-98984028D01*
X110059351Y-98953050D01*
X110064278Y-98921938D01*
X110073917Y-98861076D01*
X110101694Y-98806561D01*
X110156211Y-98778783D01*
X110160141Y-98778474D01*
X110162095Y-98778783D01*
X110231370Y-98767811D01*
X110279704Y-98760156D01*
X110279705Y-98760156D01*
X110287399Y-98758937D01*
X110294337Y-98755402D01*
X110294343Y-98755400D01*
X110310208Y-98747316D01*
X110370640Y-98737745D01*
X110425156Y-98765523D01*
X110443362Y-98790581D01*
X110474875Y-98852428D01*
X110480879Y-98864212D01*
X110570587Y-98953920D01*
X110577524Y-98957455D01*
X110577526Y-98957456D01*
X110668711Y-99003917D01*
X110683625Y-99011516D01*
X110691319Y-99012735D01*
X110691320Y-99012735D01*
X110801232Y-99030143D01*
X110808929Y-99031362D01*
X110816626Y-99030143D01*
X110926538Y-99012735D01*
X110926539Y-99012735D01*
X110934233Y-99011516D01*
X110949147Y-99003917D01*
X111040332Y-98957456D01*
X111040334Y-98957455D01*
X111047271Y-98953920D01*
X111052777Y-98948414D01*
X111059085Y-98943831D01*
X111060149Y-98945296D01*
X111105993Y-98921938D01*
X111166425Y-98931509D01*
X111168778Y-98932951D01*
X111169756Y-98933929D01*
X111173418Y-98935795D01*
X111173423Y-98935798D01*
X111252978Y-98976333D01*
X111282794Y-98991525D01*
X111290488Y-98992744D01*
X111290489Y-98992744D01*
X111400401Y-99010152D01*
X111408098Y-99011371D01*
X111415795Y-99010152D01*
X111525707Y-98992744D01*
X111525708Y-98992744D01*
X111533402Y-98991525D01*
X111600266Y-98957456D01*
X111639501Y-98937465D01*
X111639503Y-98937464D01*
X111646440Y-98933929D01*
X111651945Y-98928424D01*
X111651952Y-98928419D01*
X111657214Y-98923157D01*
X111711732Y-98895382D01*
X111772163Y-98904956D01*
X111797218Y-98923160D01*
X111819160Y-98945102D01*
X111826097Y-98948637D01*
X111826099Y-98948638D01*
X111910270Y-98991525D01*
X111932198Y-99002698D01*
X111939892Y-99003917D01*
X111939893Y-99003917D01*
X112049805Y-99021325D01*
X112057502Y-99022544D01*
X112065199Y-99021325D01*
X112175111Y-99003917D01*
X112175112Y-99003917D01*
X112182806Y-99002698D01*
X112204734Y-98991525D01*
X112288905Y-98948638D01*
X112288907Y-98948637D01*
X112295844Y-98945102D01*
X112305023Y-98935923D01*
X112359540Y-98908146D01*
X112419972Y-98917717D01*
X112445031Y-98935923D01*
X112462158Y-98953050D01*
X112469095Y-98956585D01*
X112469097Y-98956586D01*
X112568256Y-99007110D01*
X112575196Y-99010646D01*
X112582890Y-99011865D01*
X112582891Y-99011865D01*
X112692803Y-99029273D01*
X112700500Y-99030492D01*
X112708197Y-99029273D01*
X112818109Y-99011865D01*
X112818110Y-99011865D01*
X112825804Y-99010646D01*
X112832744Y-99007110D01*
X112931903Y-98956586D01*
X112931905Y-98956585D01*
X112938842Y-98953050D01*
X113028550Y-98863342D01*
X113057482Y-98806561D01*
X113082610Y-98757244D01*
X113082610Y-98757243D01*
X113086146Y-98750304D01*
X113087602Y-98741115D01*
X113104773Y-98632697D01*
X113105992Y-98625000D01*
X113097239Y-98569735D01*
X113087365Y-98507391D01*
X113087365Y-98507390D01*
X113086146Y-98499696D01*
X113074385Y-98476614D01*
X113032086Y-98393597D01*
X113032085Y-98393595D01*
X113028550Y-98386658D01*
X112938842Y-98296950D01*
X112931905Y-98293415D01*
X112931903Y-98293414D01*
X112832744Y-98242890D01*
X112832743Y-98242890D01*
X112825804Y-98239354D01*
X112818110Y-98238135D01*
X112818109Y-98238135D01*
X112708197Y-98220727D01*
X112700500Y-98219508D01*
X112692803Y-98220727D01*
X112582891Y-98238135D01*
X112582890Y-98238135D01*
X112575196Y-98239354D01*
X112568257Y-98242890D01*
X112568256Y-98242890D01*
X112469097Y-98293414D01*
X112469095Y-98293415D01*
X112462158Y-98296950D01*
X112452979Y-98306129D01*
X112398462Y-98333906D01*
X112338030Y-98324335D01*
X112312971Y-98306129D01*
X112295844Y-98289002D01*
X112288907Y-98285467D01*
X112288905Y-98285466D01*
X112189746Y-98234942D01*
X112189745Y-98234942D01*
X112182806Y-98231406D01*
X112175112Y-98230187D01*
X112175111Y-98230187D01*
X112065199Y-98212779D01*
X112057502Y-98211560D01*
X112049805Y-98212779D01*
X111939893Y-98230187D01*
X111939892Y-98230187D01*
X111932198Y-98231406D01*
X111925259Y-98234942D01*
X111925258Y-98234942D01*
X111826099Y-98285466D01*
X111826097Y-98285467D01*
X111819160Y-98289002D01*
X111808394Y-98299768D01*
X111753879Y-98327548D01*
X111693446Y-98317980D01*
X111668383Y-98299772D01*
X111646440Y-98277829D01*
X111639503Y-98274294D01*
X111639501Y-98274293D01*
X111540342Y-98223769D01*
X111540341Y-98223769D01*
X111533402Y-98220233D01*
X111525708Y-98219014D01*
X111525707Y-98219014D01*
X111415795Y-98201606D01*
X111408098Y-98200387D01*
X111400401Y-98201606D01*
X111290489Y-98219014D01*
X111290488Y-98219014D01*
X111282794Y-98220233D01*
X111275855Y-98223769D01*
X111275854Y-98223769D01*
X111176695Y-98274293D01*
X111176693Y-98274294D01*
X111169756Y-98277829D01*
X111164250Y-98283335D01*
X111157942Y-98287918D01*
X111156878Y-98286453D01*
X111111034Y-98309811D01*
X111050602Y-98300240D01*
X111048249Y-98298798D01*
X111047271Y-98297820D01*
X111043609Y-98295954D01*
X111043604Y-98295951D01*
X110941173Y-98243760D01*
X110941172Y-98243760D01*
X110934233Y-98240224D01*
X110926539Y-98239005D01*
X110926538Y-98239005D01*
X110816626Y-98221597D01*
X110808929Y-98220378D01*
X110801232Y-98221597D01*
X110691320Y-98239005D01*
X110691319Y-98239005D01*
X110683625Y-98240224D01*
X110676687Y-98243759D01*
X110676681Y-98243761D01*
X110660816Y-98251845D01*
X110600384Y-98261416D01*
X110545868Y-98233638D01*
X110527662Y-98208580D01*
X110493681Y-98141888D01*
X110493680Y-98141886D01*
X110490145Y-98134949D01*
X110474722Y-98119526D01*
X110446945Y-98065009D01*
X110456516Y-98004577D01*
X110506110Y-97907244D01*
X110506110Y-97907243D01*
X110509646Y-97900304D01*
X110511015Y-97891665D01*
X110528273Y-97782697D01*
X110529492Y-97775000D01*
X110522870Y-97733187D01*
X110510865Y-97657391D01*
X110510865Y-97657390D01*
X110509646Y-97649696D01*
X110461727Y-97555650D01*
X110455586Y-97543597D01*
X110455585Y-97543595D01*
X110452050Y-97536658D01*
X110362342Y-97446950D01*
X110355405Y-97443415D01*
X110355403Y-97443414D01*
X110256244Y-97392890D01*
X110256243Y-97392890D01*
X110249304Y-97389354D01*
X110241610Y-97388135D01*
X110241609Y-97388135D01*
X110131697Y-97370727D01*
X110124000Y-97369508D01*
X110116303Y-97370727D01*
X110006391Y-97388135D01*
X110006390Y-97388135D01*
X109998696Y-97389354D01*
X109991757Y-97392890D01*
X109991756Y-97392890D01*
X109892597Y-97443414D01*
X109892595Y-97443415D01*
X109885658Y-97446950D01*
X109795950Y-97536658D01*
X109792415Y-97543595D01*
X109792414Y-97543597D01*
X109786273Y-97555650D01*
X109738354Y-97649696D01*
X109737135Y-97657390D01*
X109737135Y-97657391D01*
X109725130Y-97733187D01*
X109718508Y-97775000D01*
X109719727Y-97782697D01*
X109736986Y-97891665D01*
X109738354Y-97900304D01*
X109741890Y-97907243D01*
X109741890Y-97907244D01*
X109764481Y-97951580D01*
X109795950Y-98013342D01*
X109811373Y-98028765D01*
X109839150Y-98083282D01*
X109829579Y-98143714D01*
X109781026Y-98239005D01*
X109776449Y-98247987D01*
X109775230Y-98255681D01*
X109775230Y-98255682D01*
X109770850Y-98283335D01*
X109757515Y-98367537D01*
X109756976Y-98370938D01*
X109729199Y-98425454D01*
X109674682Y-98453232D01*
X109670752Y-98453541D01*
X109668798Y-98453232D01*
X109599523Y-98464204D01*
X109551189Y-98471859D01*
X109551188Y-98471859D01*
X109543494Y-98473078D01*
X109536555Y-98476614D01*
X109536554Y-98476614D01*
X109437395Y-98527138D01*
X109437393Y-98527139D01*
X109430456Y-98530674D01*
X109340748Y-98620382D01*
X109337213Y-98627319D01*
X109337212Y-98627321D01*
X109299497Y-98701341D01*
X109283152Y-98733420D01*
X109281933Y-98741114D01*
X109281933Y-98741115D01*
X109274099Y-98790581D01*
X109263306Y-98858724D01*
X105200501Y-98858724D01*
X105200501Y-98790159D01*
X105198221Y-98778783D01*
X105190645Y-98740985D01*
X105190644Y-98740982D01*
X105188731Y-98731439D01*
X105155805Y-98682255D01*
X104968554Y-98495004D01*
X104940777Y-98440487D01*
X104950348Y-98380055D01*
X104968554Y-98354996D01*
X105155804Y-98167746D01*
X105158519Y-98163670D01*
X105183607Y-98126003D01*
X105183607Y-98126002D01*
X105189003Y-98117901D01*
X105200500Y-98059838D01*
X105200501Y-97520159D01*
X105199538Y-97515353D01*
X105190645Y-97470985D01*
X105190644Y-97470982D01*
X105188731Y-97461439D01*
X105155805Y-97412255D01*
X104971150Y-97227600D01*
X107319508Y-97227600D01*
X107339354Y-97352904D01*
X107342890Y-97359843D01*
X107342890Y-97359844D01*
X107390079Y-97452456D01*
X107396950Y-97465942D01*
X107486658Y-97555650D01*
X107493595Y-97559185D01*
X107493597Y-97559186D01*
X107592756Y-97609710D01*
X107599696Y-97613246D01*
X107607390Y-97614465D01*
X107607391Y-97614465D01*
X107717303Y-97631873D01*
X107725000Y-97633092D01*
X107732697Y-97631873D01*
X107842609Y-97614465D01*
X107842610Y-97614465D01*
X107850304Y-97613246D01*
X107857244Y-97609710D01*
X107956403Y-97559186D01*
X107956405Y-97559185D01*
X107963342Y-97555650D01*
X108053050Y-97465942D01*
X108059922Y-97452456D01*
X108107110Y-97359844D01*
X108107110Y-97359843D01*
X108110646Y-97352904D01*
X108130492Y-97227600D01*
X108129273Y-97219903D01*
X108111865Y-97109991D01*
X108111865Y-97109990D01*
X108110646Y-97102296D01*
X108103551Y-97088371D01*
X108056586Y-96996197D01*
X108056585Y-96996195D01*
X108053050Y-96989258D01*
X107963342Y-96899550D01*
X107956405Y-96896015D01*
X107956403Y-96896014D01*
X107857244Y-96845490D01*
X107857243Y-96845490D01*
X107850304Y-96841954D01*
X107842610Y-96840735D01*
X107842609Y-96840735D01*
X107732697Y-96823327D01*
X107725000Y-96822108D01*
X107717303Y-96823327D01*
X107607391Y-96840735D01*
X107607390Y-96840735D01*
X107599696Y-96841954D01*
X107592757Y-96845490D01*
X107592756Y-96845490D01*
X107493597Y-96896014D01*
X107493595Y-96896015D01*
X107486658Y-96899550D01*
X107396950Y-96989258D01*
X107393415Y-96996195D01*
X107393414Y-96996197D01*
X107346449Y-97088371D01*
X107339354Y-97102296D01*
X107338135Y-97109990D01*
X107338135Y-97109991D01*
X107320727Y-97219903D01*
X107319508Y-97227600D01*
X104971150Y-97227600D01*
X104877746Y-97134196D01*
X104827901Y-97100997D01*
X104769838Y-97089500D01*
X104299500Y-97089500D01*
X104241309Y-97070593D01*
X104205345Y-97021093D01*
X104200500Y-96990500D01*
X104200500Y-95899000D01*
X104219407Y-95840809D01*
X104268907Y-95804845D01*
X104299500Y-95800000D01*
X117300000Y-95800000D01*
X117671004Y-95428996D01*
X117725521Y-95401219D01*
X117741008Y-95400000D01*
X118359583Y-95400000D01*
X118417774Y-95418907D01*
G37*
%TD.AperFunction*%
%TD*%
M02*
