%TF.GenerationSoftware,KiCad,Pcbnew,(6.0.7)*%
%TF.CreationDate,2023-02-02T23:10:42+01:00*%
%TF.ProjectId,ESP31-01_V4,45535033-312d-4303-915f-56342e6b6963,rev?*%
%TF.SameCoordinates,Original*%
%TF.FileFunction,Legend,Bot*%
%TF.FilePolarity,Positive*%
%FSLAX46Y46*%
G04 Gerber Fmt 4.6, Leading zero omitted, Abs format (unit mm)*
G04 Created by KiCad (PCBNEW (6.0.7)) date 2023-02-02 23:10:42*
%MOMM*%
%LPD*%
G01*
G04 APERTURE LIST*
%ADD10C,0.150000*%
%ADD11C,0.100000*%
%ADD12C,0.300000*%
%ADD13C,0.200000*%
%ADD14C,0.120000*%
G04 APERTURE END LIST*
D10*
X115400000Y-106500000D02*
X115400000Y-105500000D01*
X115400000Y-106500000D02*
X114400000Y-106500000D01*
X114400000Y-106500000D02*
X115400000Y-106500000D01*
X114400000Y-105500000D02*
X108000000Y-105500000D01*
X115400000Y-106500000D02*
X114400000Y-105500000D01*
D11*
X106350907Y-99178571D02*
X106377693Y-99202380D01*
X106452098Y-99226190D01*
X106499717Y-99226190D01*
X106568169Y-99202380D01*
X106609836Y-99154761D01*
X106627693Y-99107142D01*
X106639598Y-99011904D01*
X106630669Y-98940476D01*
X106594955Y-98845238D01*
X106565193Y-98797619D01*
X106511622Y-98750000D01*
X106437217Y-98726190D01*
X106389598Y-98726190D01*
X106321145Y-98750000D01*
X106300312Y-98773809D01*
X106148526Y-99083333D02*
X105910431Y-99083333D01*
X106214002Y-99226190D02*
X105984836Y-98726190D01*
X105880669Y-99226190D01*
X105714002Y-99226190D02*
X105651502Y-98726190D01*
X105461026Y-98726190D01*
X105416383Y-98750000D01*
X105395550Y-98773809D01*
X105377693Y-98821428D01*
X105386622Y-98892857D01*
X105416383Y-98940476D01*
X105443169Y-98964285D01*
X105493764Y-98988095D01*
X105684241Y-98988095D01*
X106785431Y-108226190D02*
X106722931Y-107726190D01*
X106389598Y-107726190D02*
X106294360Y-107726190D01*
X106249717Y-107750000D01*
X106208050Y-107797619D01*
X106196145Y-107892857D01*
X106216979Y-108059523D01*
X106252693Y-108154761D01*
X106306264Y-108202380D01*
X106356860Y-108226190D01*
X106452098Y-108226190D01*
X106496741Y-108202380D01*
X106538407Y-108154761D01*
X106550312Y-108059523D01*
X106529479Y-107892857D01*
X106493764Y-107797619D01*
X106440193Y-107750000D01*
X106389598Y-107726190D01*
X105990788Y-107773809D02*
X105964002Y-107750000D01*
X105913407Y-107726190D01*
X105794360Y-107726190D01*
X105749717Y-107750000D01*
X105728883Y-107773809D01*
X105711026Y-107821428D01*
X105716979Y-107869047D01*
X105749717Y-107940476D01*
X106071145Y-108226190D01*
X105761622Y-108226190D01*
X105246741Y-107726190D02*
X105484836Y-107726190D01*
X105538407Y-107964285D01*
X105511622Y-107940476D01*
X105461026Y-107916666D01*
X105341979Y-107916666D01*
X105297336Y-107940476D01*
X105276502Y-107964285D01*
X105258645Y-108011904D01*
X105273526Y-108130952D01*
X105303288Y-108178571D01*
X105330074Y-108202380D01*
X105380669Y-108226190D01*
X105499717Y-108226190D01*
X105544360Y-108202380D01*
X105565193Y-108178571D01*
X117742574Y-110826190D02*
X117647336Y-110826190D01*
X117596741Y-110802380D01*
X117569955Y-110778571D01*
X117513407Y-110707142D01*
X117477693Y-110611904D01*
X117453883Y-110421428D01*
X117471741Y-110373809D01*
X117492574Y-110350000D01*
X117537217Y-110326190D01*
X117632455Y-110326190D01*
X117683050Y-110350000D01*
X117709836Y-110373809D01*
X117739598Y-110421428D01*
X117754479Y-110540476D01*
X117736622Y-110588095D01*
X117715788Y-110611904D01*
X117671145Y-110635714D01*
X117575907Y-110635714D01*
X117525312Y-110611904D01*
X117498526Y-110588095D01*
X117468764Y-110540476D01*
X106350907Y-105578571D02*
X106377693Y-105602380D01*
X106452098Y-105626190D01*
X106499717Y-105626190D01*
X106568169Y-105602380D01*
X106609836Y-105554761D01*
X106627693Y-105507142D01*
X106639598Y-105411904D01*
X106630669Y-105340476D01*
X106594955Y-105245238D01*
X106565193Y-105197619D01*
X106511622Y-105150000D01*
X106437217Y-105126190D01*
X106389598Y-105126190D01*
X106321145Y-105150000D01*
X106300312Y-105173809D01*
X106148526Y-105483333D02*
X105910431Y-105483333D01*
X106214002Y-105626190D02*
X105984836Y-105126190D01*
X105880669Y-105626190D01*
X105714002Y-105626190D02*
X105651502Y-105126190D01*
X105461026Y-105126190D01*
X105416383Y-105150000D01*
X105395550Y-105173809D01*
X105377693Y-105221428D01*
X105386622Y-105292857D01*
X105416383Y-105340476D01*
X105443169Y-105364285D01*
X105493764Y-105388095D01*
X105684241Y-105388095D01*
X106785431Y-100526190D02*
X106722931Y-100026190D01*
X106389598Y-100026190D02*
X106294360Y-100026190D01*
X106249717Y-100050000D01*
X106208050Y-100097619D01*
X106196145Y-100192857D01*
X106216979Y-100359523D01*
X106252693Y-100454761D01*
X106306264Y-100502380D01*
X106356860Y-100526190D01*
X106452098Y-100526190D01*
X106496741Y-100502380D01*
X106538407Y-100454761D01*
X106550312Y-100359523D01*
X106529479Y-100192857D01*
X106493764Y-100097619D01*
X106440193Y-100050000D01*
X106389598Y-100026190D01*
X106008645Y-100026190D02*
X105699122Y-100026190D01*
X105889598Y-100216666D01*
X105818169Y-100216666D01*
X105773526Y-100240476D01*
X105752693Y-100264285D01*
X105734836Y-100311904D01*
X105749717Y-100430952D01*
X105779479Y-100478571D01*
X105806264Y-100502380D01*
X105856860Y-100526190D01*
X105999717Y-100526190D01*
X106044360Y-100502380D01*
X106065193Y-100478571D01*
X105246741Y-100026190D02*
X105484836Y-100026190D01*
X105538407Y-100264285D01*
X105511622Y-100240476D01*
X105461026Y-100216666D01*
X105341979Y-100216666D01*
X105297336Y-100240476D01*
X105276502Y-100264285D01*
X105258645Y-100311904D01*
X105273526Y-100430952D01*
X105303288Y-100478571D01*
X105330074Y-100502380D01*
X105380669Y-100526190D01*
X105499717Y-100526190D01*
X105544360Y-100502380D01*
X105565193Y-100478571D01*
D12*
X115544107Y-102357142D02*
X114877440Y-102357142D01*
X114722678Y-103404761D02*
X115675059Y-103404761D01*
X115425059Y-101404761D01*
X114472678Y-101404761D01*
X113948869Y-103309523D02*
X113675059Y-103404761D01*
X113198869Y-103404761D01*
X112996488Y-103309523D01*
X112889345Y-103214285D01*
X112770297Y-103023809D01*
X112746488Y-102833333D01*
X112817916Y-102642857D01*
X112901250Y-102547619D01*
X113079821Y-102452380D01*
X113448869Y-102357142D01*
X113627440Y-102261904D01*
X113710773Y-102166666D01*
X113782202Y-101976190D01*
X113758392Y-101785714D01*
X113639345Y-101595238D01*
X113532202Y-101500000D01*
X113329821Y-101404761D01*
X112853630Y-101404761D01*
X112579821Y-101500000D01*
X111960773Y-103404761D02*
X111710773Y-101404761D01*
X110948869Y-101404761D01*
X110770297Y-101500000D01*
X110686964Y-101595238D01*
X110615535Y-101785714D01*
X110651250Y-102071428D01*
X110770297Y-102261904D01*
X110877440Y-102357142D01*
X111079821Y-102452380D01*
X111841726Y-102452380D01*
X109901250Y-101404761D02*
X108663154Y-101404761D01*
X109425059Y-102166666D01*
X109139345Y-102166666D01*
X108960773Y-102261904D01*
X108877440Y-102357142D01*
X108806011Y-102547619D01*
X108865535Y-103023809D01*
X108984583Y-103214285D01*
X109091726Y-103309523D01*
X109294107Y-103404761D01*
X109865535Y-103404761D01*
X110044107Y-103309523D01*
X110127440Y-103214285D01*
X107008392Y-103404761D02*
X108151250Y-103404761D01*
X107579821Y-103404761D02*
X107329821Y-101404761D01*
X107556011Y-101690476D01*
X107770297Y-101880952D01*
X107972678Y-101976190D01*
D13*
X115235148Y-108085714D02*
X114854196Y-108085714D01*
X115050625Y-107752380D02*
X115157767Y-108609523D01*
X115122053Y-108704761D01*
X115032767Y-108752380D01*
X114937529Y-108752380D01*
X114604196Y-108752380D02*
X114479196Y-107752380D01*
X114175625Y-108752380D02*
X114110148Y-108228571D01*
X114145863Y-108133333D01*
X114235148Y-108085714D01*
X114378005Y-108085714D01*
X114479196Y-108133333D01*
X114532767Y-108180952D01*
X113312529Y-108704761D02*
X113413720Y-108752380D01*
X113604196Y-108752380D01*
X113693482Y-108704761D01*
X113729196Y-108609523D01*
X113681577Y-108228571D01*
X113622053Y-108133333D01*
X113520863Y-108085714D01*
X113330386Y-108085714D01*
X113241101Y-108133333D01*
X113205386Y-108228571D01*
X113217291Y-108323809D01*
X113705386Y-108419047D01*
X112443482Y-108228571D02*
X112306577Y-108276190D01*
X112264910Y-108323809D01*
X112229196Y-108419047D01*
X112247053Y-108561904D01*
X112306577Y-108657142D01*
X112360148Y-108704761D01*
X112461339Y-108752380D01*
X112842291Y-108752380D01*
X112717291Y-107752380D01*
X112383958Y-107752380D01*
X112294672Y-107800000D01*
X112253005Y-107847619D01*
X112217291Y-107942857D01*
X112229196Y-108038095D01*
X112288720Y-108133333D01*
X112342291Y-108180952D01*
X112443482Y-108228571D01*
X112776815Y-108228571D01*
X111842291Y-108752380D02*
X111758958Y-108085714D01*
X111782767Y-108276190D02*
X111723244Y-108180952D01*
X111669672Y-108133333D01*
X111568482Y-108085714D01*
X111473244Y-108085714D01*
X110711339Y-108085714D02*
X110794672Y-108752380D01*
X111139910Y-108085714D02*
X111205386Y-108609523D01*
X111169672Y-108704761D01*
X111080386Y-108752380D01*
X110937529Y-108752380D01*
X110836339Y-108704761D01*
X110782767Y-108657142D01*
X110378005Y-108085714D02*
X109997053Y-108085714D01*
X110193482Y-107752380D02*
X110300625Y-108609523D01*
X110264910Y-108704761D01*
X110175625Y-108752380D01*
X110080386Y-108752380D01*
X109758958Y-108085714D02*
X109235148Y-108085714D01*
X109842291Y-108752380D01*
X109318482Y-108752380D01*
X108794672Y-108752380D02*
X108883958Y-108704761D01*
X108919672Y-108609523D01*
X108812529Y-107752380D01*
X108026815Y-108704761D02*
X108128005Y-108752380D01*
X108318482Y-108752380D01*
X108407767Y-108704761D01*
X108443482Y-108609523D01*
X108395863Y-108228571D01*
X108336339Y-108133333D01*
X108235148Y-108085714D01*
X108044672Y-108085714D01*
X107955386Y-108133333D01*
X107919672Y-108228571D01*
X107931577Y-108323809D01*
X108419672Y-108419047D01*
X107556577Y-108752380D02*
X107473244Y-108085714D01*
X107497053Y-108276190D02*
X107437529Y-108180952D01*
X107383958Y-108133333D01*
X107282767Y-108085714D01*
X107187529Y-108085714D01*
D11*
X117842574Y-107226190D02*
X118128288Y-107226190D01*
X117985431Y-107226190D02*
X117922931Y-106726190D01*
X117979479Y-106797619D01*
X118033050Y-106845238D01*
X118083645Y-106869047D01*
X117521145Y-106940476D02*
X117565788Y-106916666D01*
X117586622Y-106892857D01*
X117604479Y-106845238D01*
X117601502Y-106821428D01*
X117571741Y-106773809D01*
X117544955Y-106750000D01*
X117494360Y-106726190D01*
X117399122Y-106726190D01*
X117354479Y-106750000D01*
X117333645Y-106773809D01*
X117315788Y-106821428D01*
X117318764Y-106845238D01*
X117348526Y-106892857D01*
X117375312Y-106916666D01*
X117425907Y-106940476D01*
X117521145Y-106940476D01*
X117571741Y-106964285D01*
X117598526Y-106988095D01*
X117628288Y-107035714D01*
X117640193Y-107130952D01*
X117622336Y-107178571D01*
X117601502Y-107202380D01*
X117556860Y-107226190D01*
X117461622Y-107226190D01*
X117411026Y-107202380D01*
X117384241Y-107178571D01*
X117354479Y-107130952D01*
X117342574Y-107035714D01*
X117360431Y-106988095D01*
X117381264Y-106964285D01*
X117425907Y-106940476D01*
X106985431Y-101826190D02*
X106922931Y-101326190D01*
X106589598Y-101326190D02*
X106494360Y-101326190D01*
X106449717Y-101350000D01*
X106408050Y-101397619D01*
X106396145Y-101492857D01*
X106416979Y-101659523D01*
X106452693Y-101754761D01*
X106506264Y-101802380D01*
X106556860Y-101826190D01*
X106652098Y-101826190D01*
X106696741Y-101802380D01*
X106738407Y-101754761D01*
X106750312Y-101659523D01*
X106729479Y-101492857D01*
X106693764Y-101397619D01*
X106640193Y-101350000D01*
X106589598Y-101326190D01*
X106208645Y-101326190D02*
X105899122Y-101326190D01*
X106089598Y-101516666D01*
X106018169Y-101516666D01*
X105973526Y-101540476D01*
X105952693Y-101564285D01*
X105934836Y-101611904D01*
X105949717Y-101730952D01*
X105979479Y-101778571D01*
X106006264Y-101802380D01*
X106056860Y-101826190D01*
X106199717Y-101826190D01*
X106244360Y-101802380D01*
X106265193Y-101778571D01*
X105714598Y-101373809D02*
X105687812Y-101350000D01*
X105637217Y-101326190D01*
X105518169Y-101326190D01*
X105473526Y-101350000D01*
X105452693Y-101373809D01*
X105434836Y-101421428D01*
X105440788Y-101469047D01*
X105473526Y-101540476D01*
X105794955Y-101826190D01*
X105485431Y-101826190D01*
X106985431Y-103026190D02*
X106922931Y-102526190D01*
X106589598Y-102526190D02*
X106494360Y-102526190D01*
X106449717Y-102550000D01*
X106408050Y-102597619D01*
X106396145Y-102692857D01*
X106416979Y-102859523D01*
X106452693Y-102954761D01*
X106506264Y-103002380D01*
X106556860Y-103026190D01*
X106652098Y-103026190D01*
X106696741Y-103002380D01*
X106738407Y-102954761D01*
X106750312Y-102859523D01*
X106729479Y-102692857D01*
X106693764Y-102597619D01*
X106640193Y-102550000D01*
X106589598Y-102526190D01*
X106208645Y-102526190D02*
X105899122Y-102526190D01*
X106089598Y-102716666D01*
X106018169Y-102716666D01*
X105973526Y-102740476D01*
X105952693Y-102764285D01*
X105934836Y-102811904D01*
X105949717Y-102930952D01*
X105979479Y-102978571D01*
X106006264Y-103002380D01*
X106056860Y-103026190D01*
X106199717Y-103026190D01*
X106244360Y-103002380D01*
X106265193Y-102978571D01*
X105491383Y-102692857D02*
X105533050Y-103026190D01*
X105586622Y-102502380D02*
X105750312Y-102859523D01*
X105440788Y-102859523D01*
X117642574Y-109526190D02*
X117928288Y-109526190D01*
X117785431Y-109526190D02*
X117722931Y-109026190D01*
X117779479Y-109097619D01*
X117833050Y-109145238D01*
X117883645Y-109169047D01*
X117270550Y-109026190D02*
X117222931Y-109026190D01*
X117178288Y-109050000D01*
X117157455Y-109073809D01*
X117139598Y-109121428D01*
X117127693Y-109216666D01*
X117142574Y-109335714D01*
X117178288Y-109430952D01*
X117208050Y-109478571D01*
X117234836Y-109502380D01*
X117285431Y-109526190D01*
X117333050Y-109526190D01*
X117377693Y-109502380D01*
X117398526Y-109478571D01*
X117416383Y-109430952D01*
X117428288Y-109335714D01*
X117413407Y-109216666D01*
X117377693Y-109121428D01*
X117347931Y-109073809D01*
X117321145Y-109050000D01*
X117270550Y-109026190D01*
X106201502Y-97526190D02*
X106097336Y-98026190D01*
X105868169Y-97526190D01*
X105764002Y-98026190D02*
X105701502Y-97526190D01*
X105511026Y-97526190D01*
X105466383Y-97550000D01*
X105445550Y-97573809D01*
X105427693Y-97621428D01*
X105436622Y-97692857D01*
X105466383Y-97740476D01*
X105493169Y-97764285D01*
X105543764Y-97788095D01*
X105734241Y-97788095D01*
D13*
X112149151Y-105278571D02*
X112559866Y-104564285D01*
X113006294Y-105278571D02*
X112818794Y-103778571D01*
X112247366Y-103778571D01*
X112113437Y-103850000D01*
X112050937Y-103921428D01*
X111997366Y-104064285D01*
X112024151Y-104278571D01*
X112113437Y-104421428D01*
X112193794Y-104492857D01*
X112345580Y-104564285D01*
X112917008Y-104564285D01*
X111533080Y-103778571D02*
X110675937Y-103778571D01*
X111292008Y-105278571D02*
X111104508Y-103778571D01*
X109765223Y-104492857D02*
X110265223Y-104492857D01*
X110363437Y-105278571D02*
X110175937Y-103778571D01*
X109461651Y-103778571D01*
X109077723Y-105278571D02*
X108890223Y-103778571D01*
X108524151Y-104850000D01*
X107890223Y-103778571D01*
X108077723Y-105278571D01*
X114258958Y-106785714D02*
X113878005Y-106785714D01*
X114074434Y-106452380D02*
X114181577Y-107309523D01*
X114145863Y-107404761D01*
X114056577Y-107452380D01*
X113961339Y-107452380D01*
X113639910Y-106785714D02*
X113532767Y-107452380D01*
X113282767Y-106976190D01*
X113151815Y-107452380D01*
X112878005Y-106785714D01*
X112580386Y-107452380D02*
X112497053Y-106785714D01*
X112455386Y-106452380D02*
X112508958Y-106500000D01*
X112467291Y-106547619D01*
X112413720Y-106500000D01*
X112455386Y-106452380D01*
X112467291Y-106547619D01*
X112163720Y-106785714D02*
X111782767Y-106785714D01*
X111979196Y-106452380D02*
X112086339Y-107309523D01*
X112050625Y-107404761D01*
X111961339Y-107452380D01*
X111866101Y-107452380D01*
X111098244Y-107404761D02*
X111199434Y-107452380D01*
X111389910Y-107452380D01*
X111479196Y-107404761D01*
X111520863Y-107357142D01*
X111556577Y-107261904D01*
X111520863Y-106976190D01*
X111461339Y-106880952D01*
X111407767Y-106833333D01*
X111306577Y-106785714D01*
X111116101Y-106785714D01*
X111026815Y-106833333D01*
X110675624Y-107452380D02*
X110550624Y-106452380D01*
X110247053Y-107452380D02*
X110181577Y-106928571D01*
X110217291Y-106833333D01*
X110306577Y-106785714D01*
X110449434Y-106785714D01*
X110550624Y-106833333D01*
X110604196Y-106880952D01*
X109758958Y-107357142D02*
X109717291Y-107404761D01*
X109770863Y-107452380D01*
X109812529Y-107404761D01*
X109758958Y-107357142D01*
X109770863Y-107452380D01*
X109354196Y-106785714D02*
X108973244Y-106785714D01*
X109169672Y-106452380D02*
X109276815Y-107309523D01*
X109241101Y-107404761D01*
X109151815Y-107452380D01*
X109056577Y-107452380D01*
X108735148Y-106785714D02*
X108580386Y-107452380D01*
X108258958Y-106785714D01*
X107116101Y-106404761D02*
X108133958Y-107690476D01*
D11*
X105891741Y-108973809D02*
X105864955Y-108950000D01*
X105814360Y-108926190D01*
X105695312Y-108926190D01*
X105650669Y-108950000D01*
X105629836Y-108973809D01*
X105611979Y-109021428D01*
X105617931Y-109069047D01*
X105650669Y-109140476D01*
X105972098Y-109426190D01*
X105662574Y-109426190D01*
X105171502Y-108926190D02*
X105266741Y-108926190D01*
X105317336Y-108950000D01*
X105344122Y-108973809D01*
X105400669Y-109045238D01*
X105436383Y-109140476D01*
X105460193Y-109330952D01*
X105442336Y-109378571D01*
X105421502Y-109402380D01*
X105376860Y-109426190D01*
X105281622Y-109426190D01*
X105231026Y-109402380D01*
X105204241Y-109378571D01*
X105174479Y-109330952D01*
X105159598Y-109211904D01*
X105177455Y-109164285D01*
X105198288Y-109140476D01*
X105242931Y-109116666D01*
X105338169Y-109116666D01*
X105388764Y-109140476D01*
X105415550Y-109164285D01*
X105445312Y-109211904D01*
X105901741Y-110183809D02*
X105874955Y-110160000D01*
X105824360Y-110136190D01*
X105705312Y-110136190D01*
X105660669Y-110160000D01*
X105639836Y-110183809D01*
X105621979Y-110231428D01*
X105627931Y-110279047D01*
X105660669Y-110350476D01*
X105982098Y-110636190D01*
X105672574Y-110636190D01*
X105443407Y-110136190D02*
X105110074Y-110136190D01*
X105386860Y-110636190D01*
X117565788Y-107626190D02*
X117803883Y-107626190D01*
X117857455Y-107864285D01*
X117830669Y-107840476D01*
X117780074Y-107816666D01*
X117661026Y-107816666D01*
X117616383Y-107840476D01*
X117595550Y-107864285D01*
X117577693Y-107911904D01*
X117592574Y-108030952D01*
X117622336Y-108078571D01*
X117649122Y-108102380D01*
X117699717Y-108126190D01*
X117818764Y-108126190D01*
X117863407Y-108102380D01*
X117884241Y-108078571D01*
X117685431Y-102276190D02*
X117622931Y-101776190D01*
X117289598Y-101776190D02*
X117194360Y-101776190D01*
X117149717Y-101800000D01*
X117108050Y-101847619D01*
X117096145Y-101942857D01*
X117116979Y-102109523D01*
X117152693Y-102204761D01*
X117206264Y-102252380D01*
X117256860Y-102276190D01*
X117352098Y-102276190D01*
X117396741Y-102252380D01*
X117438407Y-102204761D01*
X117450312Y-102109523D01*
X117429479Y-101942857D01*
X117393764Y-101847619D01*
X117340193Y-101800000D01*
X117289598Y-101776190D01*
X116890788Y-101823809D02*
X116864002Y-101800000D01*
X116813407Y-101776190D01*
X116694360Y-101776190D01*
X116649717Y-101800000D01*
X116628883Y-101823809D01*
X116611026Y-101871428D01*
X116616979Y-101919047D01*
X116649717Y-101990476D01*
X116971145Y-102276190D01*
X116661622Y-102276190D01*
X116185431Y-102276190D02*
X116471145Y-102276190D01*
X116328288Y-102276190D02*
X116265788Y-101776190D01*
X116322336Y-101847619D01*
X116375907Y-101895238D01*
X116426502Y-101919047D01*
X117835431Y-104126190D02*
X117772931Y-103626190D01*
X117439598Y-103626190D02*
X117344360Y-103626190D01*
X117299717Y-103650000D01*
X117258050Y-103697619D01*
X117246145Y-103792857D01*
X117266979Y-103959523D01*
X117302693Y-104054761D01*
X117356264Y-104102380D01*
X117406860Y-104126190D01*
X117502098Y-104126190D01*
X117546741Y-104102380D01*
X117588407Y-104054761D01*
X117600312Y-103959523D01*
X117579479Y-103792857D01*
X117543764Y-103697619D01*
X117490193Y-103650000D01*
X117439598Y-103626190D01*
X116811622Y-104126190D02*
X117097336Y-104126190D01*
X116954479Y-104126190D02*
X116891979Y-103626190D01*
X116948526Y-103697619D01*
X117002098Y-103745238D01*
X117052693Y-103769047D01*
X116573526Y-104126190D02*
X116478288Y-104126190D01*
X116427693Y-104102380D01*
X116400907Y-104078571D01*
X116344360Y-104007142D01*
X116308645Y-103911904D01*
X116284836Y-103721428D01*
X116302693Y-103673809D01*
X116323526Y-103650000D01*
X116368169Y-103626190D01*
X116463407Y-103626190D01*
X116514002Y-103650000D01*
X116540788Y-103673809D01*
X116570550Y-103721428D01*
X116585431Y-103840476D01*
X116567574Y-103888095D01*
X116546741Y-103911904D01*
X116502098Y-103935714D01*
X116406860Y-103935714D01*
X116356264Y-103911904D01*
X116329479Y-103888095D01*
X116299717Y-103840476D01*
D10*
X120778013Y-91291280D02*
X120811215Y-91670783D01*
X121454593Y-91375490D02*
X120600712Y-91450195D01*
X120509987Y-91505933D01*
X120470849Y-91604959D01*
X120479150Y-91699835D01*
X121516847Y-92087057D02*
X121461109Y-91996332D01*
X121409521Y-91953044D01*
X121310495Y-91913907D01*
X121025868Y-91938809D01*
X120935143Y-91994547D01*
X120891855Y-92046135D01*
X120852718Y-92145161D01*
X120865168Y-92287475D01*
X120920907Y-92378200D01*
X120972495Y-92421488D01*
X121071521Y-92460625D01*
X121356148Y-92435723D01*
X121446873Y-92379985D01*
X121490161Y-92328397D01*
X121529298Y-92229371D01*
X121516847Y-92087057D01*
X121595703Y-92988376D02*
X121539964Y-92897651D01*
X121440938Y-92858514D01*
X120587057Y-92933219D01*
X121641356Y-93510193D02*
X121585617Y-93419467D01*
X121486591Y-93380330D01*
X120632710Y-93455035D01*
X121687009Y-94032009D02*
X121631270Y-93941283D01*
X121579682Y-93897996D01*
X121480656Y-93858859D01*
X121196029Y-93883760D01*
X121105304Y-93939499D01*
X121062016Y-93991087D01*
X121022879Y-94090113D01*
X121035330Y-94232426D01*
X121091068Y-94323152D01*
X121142656Y-94366439D01*
X121241682Y-94405576D01*
X121526309Y-94380675D01*
X121617035Y-94324936D01*
X121660322Y-94273348D01*
X121699460Y-94174322D01*
X121687009Y-94032009D01*
X121080983Y-94754242D02*
X121761714Y-94885890D01*
X121303936Y-95117144D01*
X121794916Y-95265393D01*
X121147387Y-95513248D01*
X121923574Y-96735966D02*
X121867836Y-96645240D01*
X121816248Y-96601953D01*
X121717222Y-96562816D01*
X121432595Y-96587717D01*
X121341869Y-96643456D01*
X121298582Y-96695044D01*
X121259444Y-96794070D01*
X121271895Y-96936383D01*
X121327634Y-97027109D01*
X121379222Y-97070396D01*
X121478248Y-97109534D01*
X121762875Y-97084632D01*
X121853600Y-97028893D01*
X121896888Y-96977305D01*
X121936025Y-96878279D01*
X121923574Y-96735966D01*
X121325849Y-97553075D02*
X121989979Y-97494971D01*
X121420725Y-97544775D02*
X121377437Y-97596363D01*
X121338300Y-97695389D01*
X121350750Y-97837702D01*
X121406489Y-97928428D01*
X121505515Y-97967565D01*
X122027331Y-97921912D01*
X121458658Y-99071086D02*
X121491860Y-99450589D01*
X121139044Y-99242452D02*
X121992925Y-99167747D01*
X122091951Y-99206884D01*
X122147689Y-99297609D01*
X122155990Y-99392485D01*
X121512611Y-99687778D02*
X122193342Y-99819426D01*
X121735565Y-100050680D01*
X122226544Y-100198928D01*
X121579016Y-100446784D01*
X122276348Y-100768183D02*
X121612218Y-100826286D01*
X121280153Y-100855338D02*
X121323440Y-100803750D01*
X121375029Y-100847038D01*
X121331741Y-100898626D01*
X121280153Y-100855338D01*
X121375029Y-100847038D01*
X121641270Y-101158351D02*
X121674472Y-101537854D01*
X121321656Y-101329717D02*
X122175537Y-101255012D01*
X122274563Y-101294149D01*
X122330301Y-101384874D01*
X122338602Y-101479750D01*
X122357568Y-102242906D02*
X122396705Y-102143880D01*
X122380104Y-101954129D01*
X122324366Y-101863403D01*
X122272778Y-101820116D01*
X122173752Y-101780978D01*
X121889125Y-101805880D01*
X121798399Y-101861618D01*
X121755112Y-101913206D01*
X121715975Y-102012232D01*
X121732576Y-102201984D01*
X121788314Y-102292709D01*
X122442358Y-102665696D02*
X121446164Y-102752852D01*
X122479711Y-103092637D02*
X121957895Y-103138290D01*
X121858869Y-103099153D01*
X121803130Y-103008427D01*
X121790679Y-102866114D01*
X121829817Y-102767088D01*
X121873104Y-102715499D01*
X122426338Y-103575316D02*
X122477926Y-103618603D01*
X122521214Y-103567015D01*
X122469626Y-103523728D01*
X122426338Y-103575316D01*
X122521214Y-103567015D01*
X121886136Y-103957184D02*
X121919338Y-104336687D01*
X121566522Y-104128549D02*
X122420403Y-104053844D01*
X122519429Y-104092982D01*
X122575167Y-104183707D01*
X122583468Y-104278583D01*
X121940089Y-104573876D02*
X122624970Y-104752961D01*
X121981592Y-105048254D01*
X121697546Y-106172527D02*
X122903662Y-105206588D01*
X122093649Y-106329076D02*
X122126852Y-106708579D01*
X121774035Y-106500442D02*
X122627917Y-106425737D01*
X122726942Y-106464874D01*
X122782681Y-106555599D01*
X122790981Y-106650475D01*
X122820033Y-106982540D02*
X121823839Y-107069696D01*
X122857386Y-107409480D02*
X122335570Y-107455134D01*
X122236544Y-107415996D01*
X122180805Y-107325271D01*
X122168354Y-107182957D01*
X122207492Y-107083931D01*
X122250779Y-107032343D01*
X122884653Y-108267512D02*
X122923790Y-108168486D01*
X122907189Y-107978735D01*
X122851451Y-107888009D01*
X122752425Y-107848872D01*
X122372922Y-107882074D01*
X122282197Y-107937812D01*
X122243059Y-108036838D01*
X122259660Y-108226590D01*
X122315399Y-108317315D01*
X122414425Y-108356453D01*
X122509300Y-108348152D01*
X122562673Y-107865473D01*
X122480829Y-109115458D02*
X122540718Y-109253621D01*
X122592306Y-109296909D01*
X122691332Y-109336046D01*
X122833645Y-109323595D01*
X122924371Y-109267857D01*
X122967658Y-109216269D01*
X123006796Y-109117243D01*
X122973593Y-108737740D01*
X121977399Y-108824896D01*
X122006451Y-109156961D01*
X122062189Y-109247686D01*
X122113777Y-109290974D01*
X122212803Y-109330111D01*
X122307679Y-109321810D01*
X122398404Y-109266072D01*
X122441692Y-109214484D01*
X122480829Y-109115458D01*
X122451777Y-108783393D01*
X123060749Y-109733935D02*
X122396619Y-109792039D01*
X122586371Y-109775438D02*
X122495645Y-109831176D01*
X122452358Y-109882764D01*
X122413221Y-109981790D01*
X122421521Y-110076666D01*
X122487925Y-110835671D02*
X123152055Y-110777567D01*
X122450573Y-110408731D02*
X122972389Y-110363078D01*
X123071415Y-110402215D01*
X123127154Y-110492940D01*
X123139604Y-110635254D01*
X123100467Y-110734280D01*
X123057180Y-110785868D01*
X122516977Y-111167736D02*
X122550180Y-111547239D01*
X122197363Y-111339102D02*
X123051244Y-111264397D01*
X123150270Y-111303534D01*
X123206009Y-111394259D01*
X123214309Y-111489135D01*
X122570931Y-111784428D02*
X122616584Y-112306244D01*
X123235061Y-111726324D01*
X123280714Y-112248140D01*
X123326367Y-112769957D02*
X123270628Y-112679231D01*
X123171602Y-112640094D01*
X122317721Y-112714799D01*
X123345333Y-113533112D02*
X123384471Y-113434087D01*
X123367869Y-113244335D01*
X123312131Y-113153610D01*
X123213105Y-113114472D01*
X122833602Y-113147675D01*
X122742877Y-113203413D01*
X122703740Y-113302439D01*
X122720341Y-113492190D01*
X122776079Y-113582916D01*
X122875105Y-113622053D01*
X122969981Y-113613753D01*
X123023354Y-113131074D01*
X123434274Y-114003341D02*
X122770144Y-114061444D01*
X122959895Y-114044843D02*
X122869170Y-114100582D01*
X122825882Y-114152170D01*
X122786745Y-114251196D01*
X122795046Y-114346072D01*
D11*
X117835431Y-104876190D02*
X117772931Y-104376190D01*
X117439598Y-104376190D02*
X117344360Y-104376190D01*
X117299717Y-104400000D01*
X117258050Y-104447619D01*
X117246145Y-104542857D01*
X117266979Y-104709523D01*
X117302693Y-104804761D01*
X117356264Y-104852380D01*
X117406860Y-104876190D01*
X117502098Y-104876190D01*
X117546741Y-104852380D01*
X117588407Y-104804761D01*
X117600312Y-104709523D01*
X117579479Y-104542857D01*
X117543764Y-104447619D01*
X117490193Y-104400000D01*
X117439598Y-104376190D01*
X117040788Y-104423809D02*
X117014002Y-104400000D01*
X116963407Y-104376190D01*
X116844360Y-104376190D01*
X116799717Y-104400000D01*
X116778883Y-104423809D01*
X116761026Y-104471428D01*
X116766979Y-104519047D01*
X116799717Y-104590476D01*
X117121145Y-104876190D01*
X116811622Y-104876190D01*
X116582455Y-104376190D02*
X116272931Y-104376190D01*
X116463407Y-104566666D01*
X116391979Y-104566666D01*
X116347336Y-104590476D01*
X116326502Y-104614285D01*
X116308645Y-104661904D01*
X116323526Y-104780952D01*
X116353288Y-104828571D01*
X116380074Y-104852380D01*
X116430669Y-104876190D01*
X116573526Y-104876190D01*
X116618169Y-104852380D01*
X116639002Y-104828571D01*
X117735431Y-102926190D02*
X117672931Y-102426190D01*
X117339598Y-102426190D02*
X117244360Y-102426190D01*
X117199717Y-102450000D01*
X117158050Y-102497619D01*
X117146145Y-102592857D01*
X117166979Y-102759523D01*
X117202693Y-102854761D01*
X117256264Y-102902380D01*
X117306860Y-102926190D01*
X117402098Y-102926190D01*
X117446741Y-102902380D01*
X117488407Y-102854761D01*
X117500312Y-102759523D01*
X117479479Y-102592857D01*
X117443764Y-102497619D01*
X117390193Y-102450000D01*
X117339598Y-102426190D01*
X116940788Y-102473809D02*
X116914002Y-102450000D01*
X116863407Y-102426190D01*
X116744360Y-102426190D01*
X116699717Y-102450000D01*
X116678883Y-102473809D01*
X116661026Y-102521428D01*
X116666979Y-102569047D01*
X116699717Y-102640476D01*
X117021145Y-102926190D01*
X116711622Y-102926190D01*
X116464598Y-102473809D02*
X116437812Y-102450000D01*
X116387217Y-102426190D01*
X116268169Y-102426190D01*
X116223526Y-102450000D01*
X116202693Y-102473809D01*
X116184836Y-102521428D01*
X116190788Y-102569047D01*
X116223526Y-102640476D01*
X116544955Y-102926190D01*
X116235431Y-102926190D01*
X106413407Y-103926190D02*
X106309241Y-104426190D01*
X106080074Y-103926190D01*
X105975907Y-104426190D02*
X105913407Y-103926190D01*
X105690193Y-104426190D01*
X105627693Y-103926190D01*
X106785431Y-107026190D02*
X106722931Y-106526190D01*
X106389598Y-106526190D02*
X106294360Y-106526190D01*
X106249717Y-106550000D01*
X106208050Y-106597619D01*
X106196145Y-106692857D01*
X106216979Y-106859523D01*
X106252693Y-106954761D01*
X106306264Y-107002380D01*
X106356860Y-107026190D01*
X106452098Y-107026190D01*
X106496741Y-107002380D01*
X106538407Y-106954761D01*
X106550312Y-106859523D01*
X106529479Y-106692857D01*
X106493764Y-106597619D01*
X106440193Y-106550000D01*
X106389598Y-106526190D01*
X106008645Y-106526190D02*
X105699122Y-106526190D01*
X105889598Y-106716666D01*
X105818169Y-106716666D01*
X105773526Y-106740476D01*
X105752693Y-106764285D01*
X105734836Y-106811904D01*
X105749717Y-106930952D01*
X105779479Y-106978571D01*
X105806264Y-107002380D01*
X105856860Y-107026190D01*
X105999717Y-107026190D01*
X106044360Y-107002380D01*
X106065193Y-106978571D01*
X105532455Y-106526190D02*
X105222931Y-106526190D01*
X105413407Y-106716666D01*
X105341979Y-106716666D01*
X105297336Y-106740476D01*
X105276502Y-106764285D01*
X105258645Y-106811904D01*
X105273526Y-106930952D01*
X105303288Y-106978571D01*
X105330074Y-107002380D01*
X105380669Y-107026190D01*
X105523526Y-107026190D01*
X105568169Y-107002380D01*
X105589002Y-106978571D01*
D10*
%TO.C,SM3*%
X107026500Y-99882500D02*
X107026500Y-96326500D01*
X110328500Y-100644500D02*
X110836500Y-100136500D01*
X108550500Y-100644500D02*
X108550500Y-99120500D01*
X107026500Y-96326500D02*
X110582500Y-96326500D01*
X108042500Y-97342500D02*
X107026500Y-96326500D01*
X108042500Y-97342500D02*
X111598500Y-97342500D01*
X110328500Y-98612500D02*
X110328500Y-100644500D01*
X110328500Y-100644500D02*
X109820500Y-100136500D01*
X111090500Y-97850500D02*
X111090500Y-99374500D01*
X107026500Y-96326500D02*
X108042500Y-97342500D01*
X109312500Y-99882500D02*
X109312500Y-97850500D01*
X109312500Y-97850500D02*
X108804500Y-98358500D01*
X111598500Y-99755500D02*
X111598500Y-100898500D01*
X110582500Y-96326500D02*
X111598500Y-97342500D01*
X111598500Y-100898500D02*
X108042500Y-100898500D01*
X111598500Y-97342500D02*
X111598500Y-99755500D01*
X111090500Y-99374500D02*
X110328500Y-98612500D01*
X109312500Y-97850500D02*
X109820500Y-98358500D01*
X108042500Y-100898500D02*
X107026500Y-99882500D01*
X108550500Y-99120500D02*
X109312500Y-99882500D01*
X108042500Y-100898500D02*
X108042500Y-97342500D01*
D14*
%TO.C,J20*%
X106170000Y-111995000D02*
X106170000Y-114595000D01*
X116450000Y-109395000D02*
X116450000Y-114595000D01*
X108770000Y-109395000D02*
X116450000Y-109395000D01*
X106170000Y-109395000D02*
X106170000Y-110725000D01*
X108770000Y-109395000D02*
X108770000Y-111995000D01*
X108770000Y-111995000D02*
X106170000Y-111995000D01*
X107500000Y-109395000D02*
X106170000Y-109395000D01*
X106170000Y-114595000D02*
X116450000Y-114595000D01*
%TD*%
M02*
