%TF.GenerationSoftware,KiCad,Pcbnew,(6.0.7)*%
%TF.CreationDate,2023-02-02T23:10:42+01:00*%
%TF.ProjectId,ESP31-01_V4,45535033-312d-4303-915f-56342e6b6963,rev?*%
%TF.SameCoordinates,Original*%
%TF.FileFunction,Copper,L4,Bot*%
%TF.FilePolarity,Positive*%
%FSLAX46Y46*%
G04 Gerber Fmt 4.6, Leading zero omitted, Abs format (unit mm)*
G04 Created by KiCad (PCBNEW (6.0.7)) date 2023-02-02 23:10:42*
%MOMM*%
%LPD*%
G01*
G04 APERTURE LIST*
G04 Aperture macros list*
%AMOutline5P*
0 Free polygon, 5 corners , with rotation*
0 The origin of the aperture is its center*
0 number of corners: always 5*
0 $1 to $10 corner X, Y*
0 $11 Rotation angle, in degrees counterclockwise*
0 create outline with 5 corners*
4,1,5,$1,$2,$3,$4,$5,$6,$7,$8,$9,$10,$1,$2,$11*%
%AMOutline6P*
0 Free polygon, 6 corners , with rotation*
0 The origin of the aperture is its center*
0 number of corners: always 6*
0 $1 to $12 corner X, Y*
0 $13 Rotation angle, in degrees counterclockwise*
0 create outline with 6 corners*
4,1,6,$1,$2,$3,$4,$5,$6,$7,$8,$9,$10,$11,$12,$1,$2,$13*%
%AMOutline7P*
0 Free polygon, 7 corners , with rotation*
0 The origin of the aperture is its center*
0 number of corners: always 7*
0 $1 to $14 corner X, Y*
0 $15 Rotation angle, in degrees counterclockwise*
0 create outline with 7 corners*
4,1,7,$1,$2,$3,$4,$5,$6,$7,$8,$9,$10,$11,$12,$13,$14,$1,$2,$15*%
%AMOutline8P*
0 Free polygon, 8 corners , with rotation*
0 The origin of the aperture is its center*
0 number of corners: always 8*
0 $1 to $16 corner X, Y*
0 $17 Rotation angle, in degrees counterclockwise*
0 create outline with 8 corners*
4,1,8,$1,$2,$3,$4,$5,$6,$7,$8,$9,$10,$11,$12,$13,$14,$15,$16,$1,$2,$17*%
%AMFreePoly0*
4,1,22,0.550000,-0.750000,0.000000,-0.750000,0.000000,-0.745033,-0.079941,-0.743568,-0.215256,-0.701293,-0.333266,-0.622738,-0.424486,-0.514219,-0.481581,-0.384460,-0.499164,-0.250000,-0.500000,-0.250000,-0.500000,0.250000,-0.499164,0.250000,-0.499963,0.256109,-0.478152,0.396186,-0.417904,0.524511,-0.324060,0.630769,-0.204165,0.706417,-0.067858,0.745374,0.000000,0.744959,0.000000,0.750000,
0.550000,0.750000,0.550000,-0.750000,0.550000,-0.750000,$1*%
%AMFreePoly1*
4,1,20,0.000000,0.744959,0.073905,0.744508,0.209726,0.703889,0.328688,0.626782,0.421226,0.519385,0.479903,0.390333,0.500000,0.250000,0.500000,-0.250000,0.499851,-0.262216,0.476331,-0.402017,0.414519,-0.529596,0.319384,-0.634700,0.198574,-0.708877,0.061801,-0.746166,0.000000,-0.745033,0.000000,-0.750000,-0.550000,-0.750000,-0.550000,0.750000,0.000000,0.750000,0.000000,0.744959,
0.000000,0.744959,$1*%
G04 Aperture macros list end*
%TA.AperFunction,SMDPad,CuDef*%
%ADD10FreePoly0,90.000000*%
%TD*%
%TA.AperFunction,SMDPad,CuDef*%
%ADD11R,1.500000X1.000000*%
%TD*%
%TA.AperFunction,SMDPad,CuDef*%
%ADD12FreePoly1,90.000000*%
%TD*%
%TA.AperFunction,SMDPad,CuDef*%
%ADD13FreePoly0,270.000000*%
%TD*%
%TA.AperFunction,SMDPad,CuDef*%
%ADD14FreePoly1,270.000000*%
%TD*%
%TA.AperFunction,ComponentPad*%
%ADD15Outline6P,-0.500000X0.500000X0.250000X0.500000X0.500000X0.250000X0.500000X-0.250000X0.250000X-0.500000X-0.500000X-0.500000X180.000000*%
%TD*%
%TA.AperFunction,ComponentPad*%
%ADD16Outline6P,-0.500000X0.500000X0.250000X0.500000X0.500000X0.250000X0.500000X-0.250000X0.250000X-0.500000X-0.500000X-0.500000X0.000000*%
%TD*%
%TA.AperFunction,WasherPad*%
%ADD17C,1.300000*%
%TD*%
%TA.AperFunction,ComponentPad*%
%ADD18R,0.900000X0.500000*%
%TD*%
%TA.AperFunction,ComponentPad*%
%ADD19R,1.700000X1.700000*%
%TD*%
%TA.AperFunction,ComponentPad*%
%ADD20O,1.700000X1.700000*%
%TD*%
%TA.AperFunction,ViaPad*%
%ADD21C,0.400000*%
%TD*%
%TA.AperFunction,Conductor*%
%ADD22C,0.200000*%
%TD*%
G04 APERTURE END LIST*
%TO.C,JP1*%
G36*
X116600000Y-108400000D02*
G01*
X116000000Y-108400000D01*
X116000000Y-107900000D01*
X116600000Y-107900000D01*
X116600000Y-108400000D01*
G37*
%TO.C,JP2*%
G36*
X117250000Y-99200000D02*
G01*
X116650000Y-99200000D01*
X116650000Y-98700000D01*
X117250000Y-98700000D01*
X117250000Y-99200000D01*
G37*
%TD*%
D10*
%TO.P,JP1,1,A*%
%TO.N,Net-(C1-Pad2)*%
X116300000Y-108800000D03*
D11*
%TO.P,JP1,2,C*%
%TO.N,VIN*%
X116300000Y-107500000D03*
D12*
%TO.P,JP1,3,B*%
%TO.N,+3V3*%
X116300000Y-106200000D03*
%TD*%
D13*
%TO.P,JP2,1,A*%
%TO.N,/IO2*%
X116950000Y-98300000D03*
D11*
%TO.P,JP2,2,C*%
%TO.N,Net-(D1-Pad3)*%
X116950000Y-99600000D03*
D14*
%TO.P,JP2,3,B*%
%TO.N,/IO21*%
X116950000Y-100900000D03*
%TD*%
D15*
%TO.P,J5,1,Pin_1*%
%TO.N,/IO5*%
X118500000Y-107780000D03*
%TD*%
%TO.P,J10,1,Pin_1*%
%TO.N,/IO21*%
X118500000Y-101180000D03*
%TD*%
%TO.P,J7,1,Pin_1*%
%TO.N,/IO10*%
X118500000Y-109230000D03*
%TD*%
D16*
%TO.P,J18,1,Pin_1*%
%TO.N,/IO34*%
X104500000Y-102870000D03*
%TD*%
D15*
%TO.P,J9,1,Pin_1*%
%TO.N,/IO19*%
X118500000Y-103720000D03*
%TD*%
%TO.P,J6,1,Pin_1*%
%TO.N,/IO9*%
X118500000Y-110500000D03*
%TD*%
%TO.P,J12,1,Pin_1*%
%TO.N,/IO23*%
X118500000Y-104990000D03*
%TD*%
D16*
%TO.P,J19,1,Pin_1*%
%TO.N,/IO35*%
X104500000Y-100330000D03*
%TD*%
D17*
%TO.P,REF\u002A\u002A,*%
%TO.N,*%
X106000000Y-94800000D03*
%TD*%
D16*
%TO.P,J13,1,Pin_1*%
%TO.N,/IO25*%
X104500000Y-107950000D03*
%TD*%
D17*
%TO.P,,*%
%TO.N,*%
X122800000Y-91000000D03*
%TD*%
D16*
%TO.P,J15,1,Pin_1*%
%TO.N,/IO27*%
X104500000Y-110490000D03*
%TD*%
%TO.P,J17,1,Pin_1*%
%TO.N,/IO33*%
X104500000Y-106680000D03*
%TD*%
%TO.P,J14,1,Pin_1*%
%TO.N,/IO26*%
X104500000Y-109220000D03*
%TD*%
D15*
%TO.P,J8,1,Pin_1*%
%TO.N,/IO18*%
X118500000Y-106260000D03*
%TD*%
D18*
%TO.P,AE1,2,Shield*%
%TO.N,GND*%
X118150000Y-95625000D03*
%TD*%
D16*
%TO.P,J3,1,Pin_1*%
%TO.N,/CAPN*%
X104500000Y-105410000D03*
%TD*%
%TO.P,J4,1,Pin_1*%
%TO.N,/SENS_VN*%
X104500000Y-104140000D03*
%TD*%
D15*
%TO.P,J11,1,Pin_1*%
%TO.N,/IO22*%
X118500000Y-102450000D03*
%TD*%
D17*
%TO.P,,*%
%TO.N,*%
X121400000Y-113600000D03*
%TD*%
D16*
%TO.P,J1,1,Pin_1*%
%TO.N,/SENS_VP*%
X104500000Y-97790000D03*
%TD*%
%TO.P,J16,1,Pin_1*%
%TO.N,/IO32*%
X104500000Y-101600000D03*
%TD*%
%TO.P,J2,1,Pin_1*%
%TO.N,/CAPP*%
X104500000Y-99060000D03*
%TD*%
D19*
%TO.P,J20,1,Pin_1*%
%TO.N,GND*%
X107500000Y-110725000D03*
D20*
%TO.P,J20,2,Pin_2*%
%TO.N,/IO1*%
X107500000Y-113265000D03*
%TO.P,J20,3,Pin_3*%
%TO.N,/IO2*%
X110040000Y-110725000D03*
%TO.P,J20,4,Pin_4*%
%TO.N,/IO4*%
X110040000Y-113265000D03*
%TO.P,J20,5,Pin_5*%
%TO.N,/IO0*%
X112580000Y-110725000D03*
%TO.P,J20,6,Pin_6*%
%TO.N,/EN*%
X112580000Y-113265000D03*
%TO.P,J20,7,Pin_7*%
%TO.N,/IO3*%
X115120000Y-110725000D03*
%TO.P,J20,8,Pin_8*%
%TO.N,VIN*%
X115120000Y-113265000D03*
%TD*%
D21*
%TO.N,GND*%
X112681885Y-108225484D03*
%TO.N,Net-(D1-Pad3)*%
X115750000Y-99600000D03*
%TO.N,Net-(C1-Pad2)*%
X108541403Y-107225792D03*
X116550000Y-110000000D03*
%TO.N,+3V3*%
X113400000Y-108900000D03*
%TO.N,GND*%
X117350000Y-96150000D03*
X116130000Y-97680000D03*
X105500000Y-99300000D03*
X113900000Y-97100000D03*
X104550000Y-96200000D03*
X113550000Y-96200000D03*
X114850000Y-98150000D03*
X118500000Y-98500000D03*
X116530000Y-97200000D03*
X116750000Y-96050000D03*
X111500000Y-103000000D03*
X106650000Y-98200000D03*
X108508800Y-97256600D03*
X116500000Y-111100000D03*
X104500000Y-113750000D03*
X110500000Y-102000000D03*
X108740000Y-113670000D03*
X118450000Y-97825000D03*
X118500000Y-100000000D03*
X115350000Y-96050000D03*
X116750000Y-96600000D03*
X115150000Y-96600000D03*
X112500000Y-102000000D03*
X112500000Y-104000000D03*
X118450000Y-96250000D03*
X111750000Y-96200000D03*
X118500000Y-99250000D03*
X114503200Y-96800000D03*
X114400000Y-96200000D03*
X113374500Y-97587566D03*
X110150000Y-96200000D03*
X118500000Y-112750000D03*
X104500000Y-112750000D03*
X118425000Y-97000000D03*
X110500000Y-104000000D03*
X118500000Y-113750000D03*
X115450000Y-98050000D03*
X114450000Y-98700000D03*
%TO.N,/EN*%
X107725000Y-97227600D03*
X110162095Y-98373291D03*
%TO.N,+3V3*%
X110124000Y-97775000D03*
X114750000Y-99500000D03*
X116396800Y-101896800D03*
X115750000Y-101250000D03*
X107100000Y-104400000D03*
X117495701Y-105195701D03*
%TO.N,/IO1*%
X116464297Y-103214297D03*
%TO.N,/IO2*%
X107069740Y-108169740D03*
%TO.N,/IO4*%
X107542579Y-109142578D03*
%TO.N,/IO3*%
X117211935Y-103241894D03*
%TO.N,/SENS_VN*%
X110808929Y-98625870D03*
%TO.N,/SENS_VP*%
X112700500Y-98625000D03*
%TO.N,/CAPP*%
X112057502Y-98617052D03*
%TO.N,/CAPN*%
X111408098Y-98605879D03*
%TO.N,/IO34*%
X109668798Y-98858724D03*
%TD*%
D22*
%TO.N,/IO21*%
X117230000Y-101180000D02*
X116950000Y-100900000D01*
X118500000Y-101180000D02*
X117230000Y-101180000D01*
%TO.N,Net-(D1-Pad3)*%
X116950000Y-99600000D02*
X115750000Y-99600000D01*
%TO.N,/IO2*%
X116050000Y-98300000D02*
X116950000Y-98300000D01*
X108910000Y-101180000D02*
X109210000Y-100880000D01*
X115250000Y-99938800D02*
X115250000Y-99100000D01*
X108910000Y-105690000D02*
X108910000Y-101180000D01*
X107069740Y-107530260D02*
X108910000Y-105690000D01*
X115250000Y-99100000D02*
X116050000Y-98300000D01*
X107069740Y-108169740D02*
X107069740Y-107530260D01*
X109210000Y-100880000D02*
X114308800Y-100880000D01*
X114308800Y-100880000D02*
X115250000Y-99938800D01*
%TO.N,Net-(C1-Pad2)*%
X116300000Y-108800000D02*
X116300000Y-109750000D01*
X116300000Y-109750000D02*
X116550000Y-110000000D01*
%TO.N,+3V3*%
X116491402Y-106200000D02*
X117495701Y-105195701D01*
X116300000Y-106200000D02*
X116491402Y-106200000D01*
%TO.N,/EN*%
X109983014Y-98373291D02*
X109359723Y-97750000D01*
X108253511Y-97756111D02*
X107725000Y-97227600D01*
X110162095Y-98373291D02*
X109983014Y-98373291D01*
X108748566Y-97756111D02*
X108253511Y-97756111D01*
X108754677Y-97750000D02*
X108748566Y-97756111D01*
X109359723Y-97750000D02*
X108754677Y-97750000D01*
%TO.N,/IO1*%
X114849832Y-105698512D02*
X114900000Y-105648344D01*
X114900000Y-105100000D02*
X116464297Y-103535703D01*
X114849832Y-109293892D02*
X114849832Y-105698512D01*
X113970489Y-111629511D02*
X113970489Y-110268788D01*
X114900000Y-105648344D02*
X114900000Y-105100000D01*
X107460000Y-113265000D02*
X108725000Y-112000000D01*
X108725000Y-112000000D02*
X113600000Y-112000000D01*
X116464297Y-103535703D02*
X116464297Y-103214297D01*
X113970489Y-110268788D02*
X114099511Y-110139766D01*
X114099511Y-110139766D02*
X114099511Y-110044213D01*
X114099511Y-110044213D02*
X114849832Y-109293892D01*
X113600000Y-112000000D02*
X113970489Y-111629511D01*
%TO.N,/IO2*%
X107069740Y-108169740D02*
X107400000Y-108500000D01*
X110040000Y-109350723D02*
X110040000Y-110725000D01*
X109189277Y-108500000D02*
X110040000Y-109350723D01*
X107400000Y-108500000D02*
X109189277Y-108500000D01*
%TO.N,/IO4*%
X106080000Y-113800000D02*
X106694511Y-114414511D01*
X106694511Y-114414511D02*
X108850489Y-114414511D01*
X106080000Y-109865880D02*
X106080000Y-113800000D01*
X107542579Y-109142578D02*
X106803302Y-109142578D01*
X108850489Y-114414511D02*
X110000000Y-113265000D01*
X106803302Y-109142578D02*
X106080000Y-109865880D01*
%TO.N,/IO3*%
X115249352Y-105863998D02*
X115249352Y-110555648D01*
X115300000Y-105265006D02*
X115300000Y-105813350D01*
X117211935Y-103353071D02*
X115300000Y-105265006D01*
X115300000Y-105813350D02*
X115249352Y-105863998D01*
X115249352Y-110555648D02*
X115080000Y-110725000D01*
X117211935Y-103241894D02*
X117211935Y-103353071D01*
%TO.N,/SENS_VN*%
X106658201Y-99466799D02*
X105699040Y-100425960D01*
X105699040Y-103200960D02*
X104760000Y-104140000D01*
X110808929Y-98625870D02*
X110640929Y-98625870D01*
X104760000Y-104140000D02*
X104500000Y-104140000D01*
X109800000Y-99466799D02*
X106658201Y-99466799D01*
X105699040Y-100425960D02*
X105699040Y-103200960D01*
X110640929Y-98625870D02*
X109800000Y-99466799D01*
%TO.N,/SENS_VP*%
X111499511Y-96699511D02*
X110199511Y-96699511D01*
X105610000Y-97790000D02*
X104500000Y-97790000D01*
X107100000Y-96300000D02*
X105610000Y-97790000D01*
X109510723Y-96300000D02*
X107100000Y-96300000D01*
X112700500Y-98625000D02*
X112700500Y-97900500D01*
X110199511Y-96699511D02*
X109910234Y-96699511D01*
X109910234Y-96699511D02*
X109510723Y-96300000D01*
X112700500Y-97900500D02*
X111499511Y-96699511D01*
X110325511Y-96699511D02*
X110199511Y-96699511D01*
%TO.N,/CAPP*%
X109499030Y-97099030D02*
X109099520Y-96699520D01*
X111099031Y-97099031D02*
X109499030Y-97099030D01*
X107265486Y-96699520D02*
X104905006Y-99060000D01*
X104905006Y-99060000D02*
X104500000Y-99060000D01*
X109099520Y-96699520D02*
X107265486Y-96699520D01*
X112057502Y-98617052D02*
X112057502Y-98057502D01*
X112057502Y-98057502D02*
X111099031Y-97099031D01*
%TO.N,/CAPN*%
X104765000Y-105410000D02*
X106125000Y-104050000D01*
X106125000Y-104050000D02*
X106125000Y-100675000D01*
X106875000Y-99925000D02*
X110249076Y-99925000D01*
X106125000Y-100675000D02*
X106875000Y-99925000D01*
X110249076Y-99925000D02*
X111408098Y-98765978D01*
X104500000Y-105410000D02*
X104765000Y-105410000D01*
X111408098Y-98765978D02*
X111408098Y-98605879D01*
%TO.N,/IO34*%
X106701270Y-98858724D02*
X105299521Y-100260473D01*
X105299521Y-100260473D02*
X105299520Y-102070480D01*
X109668798Y-98858724D02*
X106701270Y-98858724D01*
X105299520Y-102070480D02*
X104500000Y-102870000D01*
%TO.N,VIN*%
X117500000Y-107750000D02*
X117500000Y-111500000D01*
X115735000Y-113265000D02*
X115120000Y-113265000D01*
X117500000Y-111500000D02*
X115735000Y-113265000D01*
X117250000Y-107500000D02*
X117500000Y-107750000D01*
X116300000Y-107500000D02*
X117250000Y-107500000D01*
%TD*%
%TA.AperFunction,Conductor*%
%TO.N,GND*%
G36*
X118417774Y-95418907D02*
G01*
X118428869Y-95428286D01*
X118808247Y-95800000D01*
X118901000Y-95800000D01*
X118959191Y-95818907D01*
X118995155Y-95868407D01*
X118999000Y-95892686D01*
X118999000Y-95963847D01*
X118981093Y-96018960D01*
X118931593Y-96054924D01*
X118917255Y-96058425D01*
X118892973Y-96062467D01*
X118892968Y-96062469D01*
X118884897Y-96063812D01*
X118782206Y-96119222D01*
X118702999Y-96204907D01*
X118655818Y-96311629D01*
X118655112Y-96319777D01*
X118655112Y-96319778D01*
X118646455Y-96419727D01*
X118645749Y-96427880D01*
X118647722Y-96435822D01*
X118647722Y-96435823D01*
X118669271Y-96522569D01*
X118673880Y-96541125D01*
X118678317Y-96547996D01*
X118678317Y-96547997D01*
X118708727Y-96595093D01*
X118737175Y-96639152D01*
X118737684Y-96639553D01*
X118761216Y-96691665D01*
X118748811Y-96751580D01*
X118735512Y-96769735D01*
X118702999Y-96804907D01*
X118655818Y-96911629D01*
X118655112Y-96919777D01*
X118655112Y-96919778D01*
X118646524Y-97018927D01*
X118645749Y-97027880D01*
X118647722Y-97035822D01*
X118647722Y-97035823D01*
X118664235Y-97102296D01*
X118673880Y-97141125D01*
X118678317Y-97147996D01*
X118678317Y-97147997D01*
X118729458Y-97227200D01*
X118737175Y-97239152D01*
X118737684Y-97239553D01*
X118761216Y-97291665D01*
X118748811Y-97351580D01*
X118735512Y-97369735D01*
X118702999Y-97404907D01*
X118655818Y-97511629D01*
X118655112Y-97519777D01*
X118655112Y-97519778D01*
X118646917Y-97614394D01*
X118645749Y-97627880D01*
X118647722Y-97635822D01*
X118647722Y-97635823D01*
X118666844Y-97712799D01*
X118673880Y-97741125D01*
X118678317Y-97747996D01*
X118678317Y-97747997D01*
X118722903Y-97817048D01*
X118737175Y-97839152D01*
X118737684Y-97839553D01*
X118761216Y-97891665D01*
X118748811Y-97951580D01*
X118735512Y-97969735D01*
X118702999Y-98004907D01*
X118655818Y-98111629D01*
X118655112Y-98119777D01*
X118655112Y-98119778D01*
X118646517Y-98219014D01*
X118645749Y-98227880D01*
X118647722Y-98235822D01*
X118647722Y-98235823D01*
X118668296Y-98318644D01*
X118673880Y-98341125D01*
X118678317Y-98347996D01*
X118678317Y-98347997D01*
X118708727Y-98395093D01*
X118737175Y-98439152D01*
X118737684Y-98439553D01*
X118761216Y-98491665D01*
X118748811Y-98551580D01*
X118735512Y-98569735D01*
X118702999Y-98604907D01*
X118655818Y-98711629D01*
X118655112Y-98719777D01*
X118655112Y-98719778D01*
X118646455Y-98819727D01*
X118645749Y-98827880D01*
X118647722Y-98835822D01*
X118647722Y-98835823D01*
X118670951Y-98929332D01*
X118673880Y-98941125D01*
X118678317Y-98947996D01*
X118678317Y-98947997D01*
X118725945Y-99021759D01*
X118737175Y-99039152D01*
X118737684Y-99039553D01*
X118761216Y-99091665D01*
X118748811Y-99151580D01*
X118735512Y-99169735D01*
X118702999Y-99204907D01*
X118655818Y-99311629D01*
X118655112Y-99319777D01*
X118655112Y-99319778D01*
X118650355Y-99374696D01*
X118645749Y-99427880D01*
X118673880Y-99541125D01*
X118678317Y-99547996D01*
X118678317Y-99547997D01*
X118732715Y-99632244D01*
X118737175Y-99639152D01*
X118828811Y-99711392D01*
X118836531Y-99714103D01*
X118843704Y-99718047D01*
X118842936Y-99719444D01*
X118884072Y-99750836D01*
X118901605Y-99809456D01*
X118886457Y-99859798D01*
X118867837Y-99889430D01*
X118867833Y-99889438D01*
X118864878Y-99894141D01*
X118812742Y-100043138D01*
X118795843Y-100193123D01*
X118794344Y-100199641D01*
X118796805Y-100210515D01*
X118797059Y-100211638D01*
X118799500Y-100233488D01*
X118799500Y-100380500D01*
X118780593Y-100438691D01*
X118731093Y-100474655D01*
X118700501Y-100479500D01*
X118257010Y-100479499D01*
X118230159Y-100479499D01*
X118225356Y-100480462D01*
X118225353Y-100480462D01*
X118180985Y-100489355D01*
X118180982Y-100489356D01*
X118171439Y-100491269D01*
X118122255Y-100524195D01*
X118073432Y-100573018D01*
X118018915Y-100600795D01*
X117958483Y-100591224D01*
X117915218Y-100547959D01*
X117904428Y-100503014D01*
X117904428Y-100350000D01*
X117888867Y-100271769D01*
X117883452Y-100263666D01*
X117883129Y-100262885D01*
X117878329Y-100201888D01*
X117883129Y-100187115D01*
X117883452Y-100186334D01*
X117888867Y-100178231D01*
X117892003Y-100162468D01*
X117895637Y-100144195D01*
X117900500Y-100119748D01*
X117900500Y-99080252D01*
X117892617Y-99040621D01*
X117890769Y-99031329D01*
X117890768Y-99031327D01*
X117888867Y-99021769D01*
X117883452Y-99013666D01*
X117883129Y-99012885D01*
X117878329Y-98951888D01*
X117883129Y-98937115D01*
X117883452Y-98936334D01*
X117888867Y-98928231D01*
X117890959Y-98917717D01*
X117900679Y-98868848D01*
X117904428Y-98850000D01*
X117904428Y-98308919D01*
X117904430Y-98308314D01*
X117904494Y-98297820D01*
X117904892Y-98232693D01*
X117903752Y-98224364D01*
X117897504Y-98178757D01*
X117897504Y-98178756D01*
X117897026Y-98175268D01*
X117857669Y-98037559D01*
X117834001Y-97984649D01*
X117757575Y-97863521D01*
X117748583Y-97852955D01*
X117722291Y-97822062D01*
X117722288Y-97822059D01*
X117720008Y-97819380D01*
X117612657Y-97724572D01*
X117564215Y-97692752D01*
X117561024Y-97691254D01*
X117561019Y-97691251D01*
X117437769Y-97633385D01*
X117437770Y-97633385D01*
X117434570Y-97631883D01*
X117379139Y-97614936D01*
X117332564Y-97607684D01*
X117241104Y-97593444D01*
X117241100Y-97593444D01*
X117237621Y-97592902D01*
X117234102Y-97592859D01*
X117217074Y-97592651D01*
X117179665Y-97592194D01*
X117174251Y-97592902D01*
X117160225Y-97594736D01*
X117147389Y-97595572D01*
X116762427Y-97595572D01*
X116747199Y-97594393D01*
X116744478Y-97593970D01*
X116741104Y-97593444D01*
X116741100Y-97593444D01*
X116737621Y-97592902D01*
X116679665Y-97592194D01*
X116537651Y-97610764D01*
X116534257Y-97611712D01*
X116534255Y-97611712D01*
X116485225Y-97625401D01*
X116485223Y-97625402D01*
X116481823Y-97626351D01*
X116478596Y-97627771D01*
X116478593Y-97627772D01*
X116353959Y-97682613D01*
X116350730Y-97684034D01*
X116301524Y-97714662D01*
X116298830Y-97716927D01*
X116298828Y-97716928D01*
X116275118Y-97736858D01*
X116191889Y-97806819D01*
X116153255Y-97850029D01*
X116107196Y-97919222D01*
X116082097Y-97956928D01*
X116034114Y-97994891D01*
X116003402Y-98001000D01*
X115991925Y-98001431D01*
X115982792Y-98001774D01*
X115974398Y-98005380D01*
X115974395Y-98005381D01*
X115972217Y-98006317D01*
X115951266Y-98012683D01*
X115939947Y-98014791D01*
X115932164Y-98019588D01*
X115932165Y-98019588D01*
X115917272Y-98028768D01*
X115904405Y-98035451D01*
X115899500Y-98037559D01*
X115886358Y-98043205D01*
X115886357Y-98043206D01*
X115879937Y-98045964D01*
X115875051Y-98049978D01*
X115870687Y-98054342D01*
X115852632Y-98068613D01*
X115844652Y-98073532D01*
X115826982Y-98096769D01*
X115818190Y-98106839D01*
X115075349Y-98849680D01*
X115072220Y-98852380D01*
X115067731Y-98854575D01*
X115061513Y-98861278D01*
X115034107Y-98890822D01*
X115031531Y-98893498D01*
X115017752Y-98907277D01*
X115015207Y-98910987D01*
X115011771Y-98914900D01*
X114991599Y-98936646D01*
X114988212Y-98945134D01*
X114988212Y-98945135D01*
X114987334Y-98947336D01*
X114977020Y-98966652D01*
X114975679Y-98968607D01*
X114975678Y-98968610D01*
X114970508Y-98976146D01*
X114968398Y-98985038D01*
X114964359Y-99002058D01*
X114959986Y-99015884D01*
X114952784Y-99033937D01*
X114950117Y-99040621D01*
X114949102Y-99040216D01*
X114920479Y-99086605D01*
X114863880Y-99109846D01*
X114840929Y-99108909D01*
X114757698Y-99095727D01*
X114757697Y-99095727D01*
X114750000Y-99094508D01*
X114742303Y-99095727D01*
X114632391Y-99113135D01*
X114632390Y-99113135D01*
X114624696Y-99114354D01*
X114617757Y-99117890D01*
X114617756Y-99117890D01*
X114518597Y-99168414D01*
X114518595Y-99168415D01*
X114511658Y-99171950D01*
X114421950Y-99261658D01*
X114418415Y-99268595D01*
X114418414Y-99268597D01*
X114387210Y-99329838D01*
X114364354Y-99374696D01*
X114363135Y-99382390D01*
X114363135Y-99382391D01*
X114354368Y-99437746D01*
X114344508Y-99500000D01*
X114345727Y-99507697D01*
X114354784Y-99564878D01*
X114364354Y-99625304D01*
X114421950Y-99738342D01*
X114511658Y-99828050D01*
X114518595Y-99831585D01*
X114518597Y-99831586D01*
X114617756Y-99882110D01*
X114624696Y-99885646D01*
X114632390Y-99886865D01*
X114632391Y-99886865D01*
X114651617Y-99889910D01*
X114706134Y-99917688D01*
X114733911Y-99972204D01*
X114724339Y-100032636D01*
X114706134Y-100057695D01*
X114213325Y-100550504D01*
X114158808Y-100578281D01*
X114143321Y-100579500D01*
X109263508Y-100579500D01*
X109259383Y-100579197D01*
X109254658Y-100577575D01*
X109205239Y-100579430D01*
X109201526Y-100579500D01*
X109182052Y-100579500D01*
X109177622Y-100580325D01*
X109172429Y-100580661D01*
X109156398Y-100581263D01*
X109151925Y-100581431D01*
X109142792Y-100581774D01*
X109134398Y-100585380D01*
X109134395Y-100585381D01*
X109132217Y-100586317D01*
X109111266Y-100592683D01*
X109099947Y-100594791D01*
X109092164Y-100599588D01*
X109092165Y-100599588D01*
X109077272Y-100608768D01*
X109064404Y-100615452D01*
X109046358Y-100623205D01*
X109046357Y-100623206D01*
X109039937Y-100625964D01*
X109035051Y-100629978D01*
X109030687Y-100634342D01*
X109012632Y-100648613D01*
X109004652Y-100653532D01*
X108986982Y-100676769D01*
X108978190Y-100686839D01*
X108735349Y-100929680D01*
X108732220Y-100932380D01*
X108727731Y-100934575D01*
X108721513Y-100941278D01*
X108694107Y-100970822D01*
X108691531Y-100973498D01*
X108677752Y-100987277D01*
X108675207Y-100990987D01*
X108671771Y-100994900D01*
X108651599Y-101016646D01*
X108648212Y-101025134D01*
X108648212Y-101025135D01*
X108647334Y-101027336D01*
X108637020Y-101046652D01*
X108635679Y-101048607D01*
X108635678Y-101048610D01*
X108630508Y-101056146D01*
X108628398Y-101065038D01*
X108624359Y-101082058D01*
X108619986Y-101095884D01*
X108613801Y-101111387D01*
X108610117Y-101120622D01*
X108609500Y-101126915D01*
X108609500Y-101133084D01*
X108606825Y-101155943D01*
X108604660Y-101165066D01*
X108608596Y-101193987D01*
X108609500Y-101207337D01*
X108609500Y-105524520D01*
X108590593Y-105582711D01*
X108580504Y-105594524D01*
X106895089Y-107279940D01*
X106891960Y-107282640D01*
X106887471Y-107284835D01*
X106881253Y-107291538D01*
X106853847Y-107321082D01*
X106851271Y-107323758D01*
X106837492Y-107337537D01*
X106834947Y-107341247D01*
X106831511Y-107345160D01*
X106811339Y-107366906D01*
X106807952Y-107375394D01*
X106807952Y-107375395D01*
X106807074Y-107377596D01*
X106796760Y-107396912D01*
X106795419Y-107398867D01*
X106795418Y-107398870D01*
X106790248Y-107406406D01*
X106788138Y-107415298D01*
X106784099Y-107432318D01*
X106779726Y-107446144D01*
X106772549Y-107464134D01*
X106769857Y-107470882D01*
X106769240Y-107477175D01*
X106769240Y-107483344D01*
X106766565Y-107506203D01*
X106764400Y-107515326D01*
X106768336Y-107544247D01*
X106769240Y-107557597D01*
X106769240Y-107863384D01*
X106750334Y-107921573D01*
X106747197Y-107925891D01*
X106741690Y-107931398D01*
X106684094Y-108044436D01*
X106664248Y-108169740D01*
X106665467Y-108177437D01*
X106682159Y-108282825D01*
X106684094Y-108295044D01*
X106687630Y-108301983D01*
X106687630Y-108301984D01*
X106713654Y-108353058D01*
X106741690Y-108408082D01*
X106831398Y-108497790D01*
X106838335Y-108501325D01*
X106838337Y-108501326D01*
X106870846Y-108517890D01*
X106944436Y-108555386D01*
X106952129Y-108556604D01*
X106952131Y-108556605D01*
X107014823Y-108566534D01*
X107069340Y-108594311D01*
X107148103Y-108673074D01*
X107175880Y-108727591D01*
X107166309Y-108788023D01*
X107123044Y-108831288D01*
X107078099Y-108842078D01*
X106856809Y-108842078D01*
X106852685Y-108841775D01*
X106847960Y-108840153D01*
X106806634Y-108841705D01*
X106798552Y-108842008D01*
X106794838Y-108842078D01*
X106775354Y-108842078D01*
X106770922Y-108842903D01*
X106765732Y-108843240D01*
X106736093Y-108844353D01*
X106725521Y-108848895D01*
X106704568Y-108855261D01*
X106702236Y-108855695D01*
X106702234Y-108855696D01*
X106693249Y-108857369D01*
X106670570Y-108871349D01*
X106657709Y-108878029D01*
X106645329Y-108883348D01*
X106633239Y-108888542D01*
X106628353Y-108892556D01*
X106623989Y-108896920D01*
X106605934Y-108911191D01*
X106597954Y-108916110D01*
X106580284Y-108939347D01*
X106571492Y-108949417D01*
X105905349Y-109615560D01*
X105902220Y-109618260D01*
X105897731Y-109620455D01*
X105891513Y-109627158D01*
X105864107Y-109656702D01*
X105861531Y-109659378D01*
X105847752Y-109673157D01*
X105845207Y-109676867D01*
X105841771Y-109680780D01*
X105821599Y-109702526D01*
X105818212Y-109711014D01*
X105818212Y-109711015D01*
X105817334Y-109713216D01*
X105807020Y-109732532D01*
X105805679Y-109734487D01*
X105805678Y-109734490D01*
X105800508Y-109742026D01*
X105798398Y-109750918D01*
X105794359Y-109767938D01*
X105789986Y-109781764D01*
X105782706Y-109800012D01*
X105780117Y-109806502D01*
X105779500Y-109812795D01*
X105779500Y-109818964D01*
X105776825Y-109841823D01*
X105774660Y-109850946D01*
X105777819Y-109874158D01*
X105778596Y-109879867D01*
X105779500Y-109893217D01*
X105779500Y-113746492D01*
X105779197Y-113750617D01*
X105777575Y-113755342D01*
X105777918Y-113764476D01*
X105779430Y-113804761D01*
X105779500Y-113808474D01*
X105779500Y-113827948D01*
X105780325Y-113832378D01*
X105780661Y-113837571D01*
X105781774Y-113867208D01*
X105785380Y-113875602D01*
X105785381Y-113875605D01*
X105786317Y-113877783D01*
X105792683Y-113898734D01*
X105794791Y-113910053D01*
X105799588Y-113917835D01*
X105808768Y-113932728D01*
X105815451Y-113945595D01*
X105825964Y-113970063D01*
X105829978Y-113974949D01*
X105834342Y-113979313D01*
X105848613Y-113997368D01*
X105853532Y-114005348D01*
X105876769Y-114023018D01*
X105886839Y-114031810D01*
X106444191Y-114589162D01*
X106446891Y-114592291D01*
X106449086Y-114596780D01*
X106455789Y-114602998D01*
X106482655Y-114627920D01*
X106512458Y-114681356D01*
X106505160Y-114742105D01*
X106463549Y-114786962D01*
X106415327Y-114799500D01*
X104299500Y-114799500D01*
X104241309Y-114780593D01*
X104205345Y-114731093D01*
X104200500Y-114700500D01*
X104200500Y-111289500D01*
X104219407Y-111231309D01*
X104268907Y-111195345D01*
X104299499Y-111190500D01*
X104742990Y-111190501D01*
X104769841Y-111190501D01*
X104774644Y-111189538D01*
X104774647Y-111189538D01*
X104819015Y-111180645D01*
X104819018Y-111180644D01*
X104828561Y-111178731D01*
X104877745Y-111145805D01*
X105155804Y-110867746D01*
X105189003Y-110817901D01*
X105200500Y-110759838D01*
X105200501Y-110220159D01*
X105199538Y-110215353D01*
X105190645Y-110170985D01*
X105190644Y-110170982D01*
X105188731Y-110161439D01*
X105155805Y-110112255D01*
X104968554Y-109925004D01*
X104940777Y-109870487D01*
X104950348Y-109810055D01*
X104968554Y-109784996D01*
X105155804Y-109597746D01*
X105161049Y-109589871D01*
X105183607Y-109556003D01*
X105183607Y-109556002D01*
X105189003Y-109547901D01*
X105200500Y-109489838D01*
X105200501Y-108950159D01*
X105195134Y-108923383D01*
X105190645Y-108900985D01*
X105190644Y-108900982D01*
X105188731Y-108891439D01*
X105155805Y-108842255D01*
X104968554Y-108655004D01*
X104940777Y-108600487D01*
X104950348Y-108540055D01*
X104968554Y-108514996D01*
X105155804Y-108327746D01*
X105158519Y-108323670D01*
X105183607Y-108286003D01*
X105183607Y-108286002D01*
X105189003Y-108277901D01*
X105200500Y-108219838D01*
X105200501Y-107680159D01*
X105196880Y-107662093D01*
X105190645Y-107630985D01*
X105190644Y-107630982D01*
X105188731Y-107621439D01*
X105155805Y-107572255D01*
X104968554Y-107385004D01*
X104940777Y-107330487D01*
X104950348Y-107270055D01*
X104968554Y-107244996D01*
X105155804Y-107057746D01*
X105158519Y-107053670D01*
X105183607Y-107016003D01*
X105183607Y-107016002D01*
X105189003Y-107007901D01*
X105200500Y-106949838D01*
X105200501Y-106410159D01*
X105199538Y-106405353D01*
X105190645Y-106360985D01*
X105190644Y-106360982D01*
X105188731Y-106351439D01*
X105155805Y-106302255D01*
X104968554Y-106115004D01*
X104940777Y-106060487D01*
X104950348Y-106000055D01*
X104968554Y-105974996D01*
X105155804Y-105787746D01*
X105158519Y-105783670D01*
X105183607Y-105746003D01*
X105183607Y-105746002D01*
X105189003Y-105737901D01*
X105200500Y-105679838D01*
X105200500Y-105565164D01*
X105200501Y-105440478D01*
X105219409Y-105382287D01*
X105229497Y-105370474D01*
X106199971Y-104400000D01*
X106694508Y-104400000D01*
X106714354Y-104525304D01*
X106771950Y-104638342D01*
X106861658Y-104728050D01*
X106868595Y-104731585D01*
X106868597Y-104731586D01*
X106953802Y-104775000D01*
X106974696Y-104785646D01*
X106982390Y-104786865D01*
X106982391Y-104786865D01*
X107092303Y-104804273D01*
X107100000Y-104805492D01*
X107107697Y-104804273D01*
X107217609Y-104786865D01*
X107217610Y-104786865D01*
X107225304Y-104785646D01*
X107246198Y-104775000D01*
X107331403Y-104731586D01*
X107331405Y-104731585D01*
X107338342Y-104728050D01*
X107428050Y-104638342D01*
X107485646Y-104525304D01*
X107505492Y-104400000D01*
X107504273Y-104392303D01*
X107486865Y-104282391D01*
X107486865Y-104282390D01*
X107485646Y-104274696D01*
X107470997Y-104245945D01*
X107431586Y-104168597D01*
X107431585Y-104168595D01*
X107428050Y-104161658D01*
X107338342Y-104071950D01*
X107331405Y-104068415D01*
X107331403Y-104068414D01*
X107232244Y-104017890D01*
X107232243Y-104017890D01*
X107225304Y-104014354D01*
X107217610Y-104013135D01*
X107217609Y-104013135D01*
X107107697Y-103995727D01*
X107100000Y-103994508D01*
X107092303Y-103995727D01*
X106982391Y-104013135D01*
X106982390Y-104013135D01*
X106974696Y-104014354D01*
X106967757Y-104017890D01*
X106967756Y-104017890D01*
X106868597Y-104068414D01*
X106868595Y-104068415D01*
X106861658Y-104071950D01*
X106771950Y-104161658D01*
X106768415Y-104168595D01*
X106768414Y-104168597D01*
X106729003Y-104245945D01*
X106714354Y-104274696D01*
X106713135Y-104282390D01*
X106713135Y-104282391D01*
X106695727Y-104392303D01*
X106694508Y-104400000D01*
X106199971Y-104400000D01*
X106299651Y-104300320D01*
X106302780Y-104297620D01*
X106307269Y-104295425D01*
X106340893Y-104259178D01*
X106343469Y-104256502D01*
X106357247Y-104242724D01*
X106359792Y-104239013D01*
X106363220Y-104235108D01*
X106383401Y-104213354D01*
X106387666Y-104202664D01*
X106397980Y-104183348D01*
X106399321Y-104181393D01*
X106399322Y-104181390D01*
X106404492Y-104173854D01*
X106410641Y-104147941D01*
X106415014Y-104134116D01*
X106422294Y-104115868D01*
X106422294Y-104115866D01*
X106424883Y-104109378D01*
X106425500Y-104103085D01*
X106425500Y-104096916D01*
X106428175Y-104074057D01*
X106428230Y-104073827D01*
X106428230Y-104073825D01*
X106430340Y-104064934D01*
X106426404Y-104036012D01*
X106425500Y-104022663D01*
X106425500Y-100840479D01*
X106444407Y-100782288D01*
X106454496Y-100770475D01*
X106970475Y-100254496D01*
X107024992Y-100226719D01*
X107040479Y-100225500D01*
X110195568Y-100225500D01*
X110199693Y-100225803D01*
X110204418Y-100227425D01*
X110253837Y-100225570D01*
X110257550Y-100225500D01*
X110277024Y-100225500D01*
X110281454Y-100224675D01*
X110286647Y-100224339D01*
X110302678Y-100223737D01*
X110307151Y-100223569D01*
X110316284Y-100223226D01*
X110324678Y-100219620D01*
X110324681Y-100219619D01*
X110326859Y-100218683D01*
X110347810Y-100212317D01*
X110359129Y-100210209D01*
X110381805Y-100196232D01*
X110394672Y-100189548D01*
X110412718Y-100181795D01*
X110412719Y-100181794D01*
X110419139Y-100179036D01*
X110424025Y-100175022D01*
X110428389Y-100170658D01*
X110446444Y-100156387D01*
X110454424Y-100151468D01*
X110472094Y-100128231D01*
X110480886Y-100118161D01*
X111582749Y-99016298D01*
X111585878Y-99013598D01*
X111590367Y-99011403D01*
X111623991Y-98975156D01*
X111626567Y-98972480D01*
X111640346Y-98958701D01*
X111642891Y-98954991D01*
X111646326Y-98951079D01*
X111651870Y-98945102D01*
X111662471Y-98933675D01*
X111715906Y-98903871D01*
X111776655Y-98911168D01*
X111805056Y-98930998D01*
X111819160Y-98945102D01*
X111826097Y-98948637D01*
X111826099Y-98948638D01*
X111878144Y-98975156D01*
X111932198Y-99002698D01*
X111939892Y-99003917D01*
X111939893Y-99003917D01*
X112049805Y-99021325D01*
X112057502Y-99022544D01*
X112065199Y-99021325D01*
X112175111Y-99003917D01*
X112175112Y-99003917D01*
X112182806Y-99002698D01*
X112236860Y-98975156D01*
X112288905Y-98948638D01*
X112288907Y-98948637D01*
X112295844Y-98945102D01*
X112305023Y-98935923D01*
X112359540Y-98908146D01*
X112419972Y-98917717D01*
X112445031Y-98935923D01*
X112462158Y-98953050D01*
X112469095Y-98956585D01*
X112469097Y-98956586D01*
X112563526Y-99004700D01*
X112575196Y-99010646D01*
X112582890Y-99011865D01*
X112582891Y-99011865D01*
X112692803Y-99029273D01*
X112700500Y-99030492D01*
X112708197Y-99029273D01*
X112818109Y-99011865D01*
X112818110Y-99011865D01*
X112825804Y-99010646D01*
X112837474Y-99004700D01*
X112931903Y-98956586D01*
X112931905Y-98956585D01*
X112938842Y-98953050D01*
X113028550Y-98863342D01*
X113035512Y-98849680D01*
X113082610Y-98757244D01*
X113082610Y-98757243D01*
X113086146Y-98750304D01*
X113092272Y-98711629D01*
X113104773Y-98632697D01*
X113105992Y-98625000D01*
X113097838Y-98573515D01*
X113087365Y-98507391D01*
X113087365Y-98507390D01*
X113086146Y-98499696D01*
X113028550Y-98386658D01*
X113023043Y-98381151D01*
X113019906Y-98376833D01*
X113001000Y-98318644D01*
X113001000Y-97954008D01*
X113001303Y-97949883D01*
X113002925Y-97945158D01*
X113001070Y-97895739D01*
X113001000Y-97892026D01*
X113001000Y-97872552D01*
X113000175Y-97868122D01*
X112999838Y-97862917D01*
X112999069Y-97842425D01*
X112998726Y-97833292D01*
X112995120Y-97824898D01*
X112995119Y-97824895D01*
X112994183Y-97822717D01*
X112987817Y-97801766D01*
X112985709Y-97790447D01*
X112971732Y-97767771D01*
X112965048Y-97754904D01*
X112957295Y-97736858D01*
X112957294Y-97736857D01*
X112954536Y-97730437D01*
X112950522Y-97725551D01*
X112946158Y-97721187D01*
X112931887Y-97703132D01*
X112931764Y-97702933D01*
X112926968Y-97695152D01*
X112903731Y-97677482D01*
X112893661Y-97668690D01*
X111749831Y-96524860D01*
X111747131Y-96521731D01*
X111744936Y-96517242D01*
X111708689Y-96483618D01*
X111706013Y-96481042D01*
X111692234Y-96467263D01*
X111688524Y-96464718D01*
X111684611Y-96461282D01*
X111669566Y-96447326D01*
X111662865Y-96441110D01*
X111652175Y-96436845D01*
X111632859Y-96426531D01*
X111630904Y-96425190D01*
X111630901Y-96425189D01*
X111623365Y-96420019D01*
X111597452Y-96413870D01*
X111583627Y-96409497D01*
X111565379Y-96402217D01*
X111565377Y-96402217D01*
X111558889Y-96399628D01*
X111552596Y-96399011D01*
X111546427Y-96399011D01*
X111523568Y-96396336D01*
X111523338Y-96396281D01*
X111523336Y-96396281D01*
X111514445Y-96394171D01*
X111485524Y-96398107D01*
X111472174Y-96399011D01*
X110075713Y-96399011D01*
X110017522Y-96380104D01*
X110005709Y-96370015D01*
X109761043Y-96125349D01*
X109758343Y-96122220D01*
X109756148Y-96117731D01*
X109719901Y-96084107D01*
X109717225Y-96081531D01*
X109703446Y-96067752D01*
X109699736Y-96065207D01*
X109695823Y-96061771D01*
X109680778Y-96047815D01*
X109674077Y-96041599D01*
X109663387Y-96037334D01*
X109644071Y-96027020D01*
X109642116Y-96025679D01*
X109642113Y-96025678D01*
X109634577Y-96020508D01*
X109608664Y-96014359D01*
X109594839Y-96009986D01*
X109576591Y-96002706D01*
X109576589Y-96002706D01*
X109570101Y-96000117D01*
X109563808Y-95999500D01*
X109557639Y-95999500D01*
X109534781Y-95996825D01*
X109528460Y-95995325D01*
X109521988Y-95991383D01*
X109507758Y-95997096D01*
X109496734Y-95998596D01*
X109483386Y-95999500D01*
X107153508Y-95999500D01*
X107149383Y-95999197D01*
X107144658Y-95997575D01*
X107135524Y-95997918D01*
X107135322Y-95997888D01*
X107135200Y-95997930D01*
X107095238Y-95999430D01*
X107091525Y-95999500D01*
X107072052Y-95999500D01*
X107067622Y-96000325D01*
X107062429Y-96000661D01*
X107043298Y-96001379D01*
X107041926Y-96001431D01*
X107032791Y-96001774D01*
X107024394Y-96005382D01*
X107024393Y-96005382D01*
X107022212Y-96006319D01*
X107001263Y-96012683D01*
X106998936Y-96013116D01*
X106998931Y-96013118D01*
X106989947Y-96014791D01*
X106970108Y-96027020D01*
X106967272Y-96028768D01*
X106954404Y-96035452D01*
X106936358Y-96043205D01*
X106936357Y-96043206D01*
X106929937Y-96045964D01*
X106925051Y-96049978D01*
X106920687Y-96054342D01*
X106902632Y-96068613D01*
X106894652Y-96073532D01*
X106876982Y-96096769D01*
X106868190Y-96106839D01*
X105514525Y-97460504D01*
X105460008Y-97488281D01*
X105444521Y-97489500D01*
X105260377Y-97489500D01*
X105202186Y-97470593D01*
X105178110Y-97445574D01*
X105166698Y-97428527D01*
X105155805Y-97412255D01*
X104877746Y-97134196D01*
X104827901Y-97100997D01*
X104769838Y-97089500D01*
X104299500Y-97089500D01*
X104241309Y-97070593D01*
X104205345Y-97021093D01*
X104200500Y-96990500D01*
X104200500Y-95899000D01*
X104219407Y-95840809D01*
X104268907Y-95804845D01*
X104299500Y-95800000D01*
X107131487Y-95800000D01*
X107136594Y-95801659D01*
X107143349Y-95800000D01*
X109494407Y-95800000D01*
X109516110Y-95807052D01*
X109551318Y-95800000D01*
X117300000Y-95800000D01*
X117671004Y-95428996D01*
X117725521Y-95401219D01*
X117741008Y-95400000D01*
X118359583Y-95400000D01*
X118417774Y-95418907D01*
G37*
%TD.AperFunction*%
%TA.AperFunction,Conductor*%
G36*
X117152889Y-109302877D02*
G01*
X117192259Y-109349713D01*
X117199500Y-109386879D01*
X117199500Y-111334521D01*
X117180593Y-111392712D01*
X117170504Y-111404525D01*
X116029508Y-112545521D01*
X115974991Y-112573298D01*
X115914559Y-112563727D01*
X115882786Y-112538089D01*
X115872073Y-112524954D01*
X115872071Y-112524952D01*
X115869011Y-112521200D01*
X115852790Y-112507781D01*
X115714002Y-112392965D01*
X115714000Y-112392964D01*
X115710275Y-112389882D01*
X115547892Y-112302082D01*
X115533309Y-112294197D01*
X115533308Y-112294197D01*
X115529055Y-112291897D01*
X115393753Y-112250014D01*
X115336875Y-112232407D01*
X115336871Y-112232406D01*
X115332254Y-112230977D01*
X115327446Y-112230472D01*
X115327443Y-112230471D01*
X115132185Y-112209949D01*
X115132183Y-112209949D01*
X115127369Y-112209443D01*
X115067354Y-112214905D01*
X114927022Y-112227675D01*
X114927017Y-112227676D01*
X114922203Y-112228114D01*
X114724572Y-112286280D01*
X114720288Y-112288519D01*
X114720287Y-112288520D01*
X114661206Y-112319407D01*
X114542002Y-112381726D01*
X114538231Y-112384758D01*
X114385220Y-112507781D01*
X114385217Y-112507783D01*
X114381447Y-112510815D01*
X114378333Y-112514526D01*
X114378332Y-112514527D01*
X114369585Y-112524952D01*
X114249024Y-112668630D01*
X114246689Y-112672878D01*
X114246688Y-112672879D01*
X114239955Y-112685126D01*
X114149776Y-112849162D01*
X114087484Y-113045532D01*
X114086944Y-113050344D01*
X114086944Y-113050345D01*
X114083531Y-113080778D01*
X114064520Y-113250262D01*
X114065526Y-113262244D01*
X114078751Y-113419727D01*
X114081759Y-113455553D01*
X114138544Y-113653586D01*
X114232712Y-113836818D01*
X114360677Y-113998270D01*
X114364357Y-114001402D01*
X114364359Y-114001404D01*
X114416294Y-114045604D01*
X114517564Y-114131791D01*
X114521787Y-114134151D01*
X114521791Y-114134154D01*
X114561342Y-114156258D01*
X114697398Y-114232297D01*
X114701996Y-114233791D01*
X114888724Y-114294463D01*
X114888726Y-114294464D01*
X114893329Y-114295959D01*
X115097894Y-114320351D01*
X115102716Y-114319980D01*
X115102719Y-114319980D01*
X115170541Y-114314761D01*
X115303300Y-114304546D01*
X115501725Y-114249145D01*
X115506038Y-114246966D01*
X115506044Y-114246964D01*
X115681289Y-114158441D01*
X115681291Y-114158440D01*
X115685610Y-114156258D01*
X115696184Y-114147997D01*
X115844135Y-114032406D01*
X115844139Y-114032402D01*
X115847951Y-114029424D01*
X115853489Y-114023009D01*
X115907313Y-113960651D01*
X115982564Y-113873472D01*
X115984957Y-113869260D01*
X116081934Y-113698550D01*
X116081935Y-113698547D01*
X116084323Y-113694344D01*
X116097882Y-113653586D01*
X116147824Y-113503454D01*
X116147824Y-113503452D01*
X116149351Y-113498863D01*
X116150677Y-113488371D01*
X116174823Y-113297228D01*
X116175171Y-113294474D01*
X116175242Y-113289371D01*
X116194955Y-113231449D01*
X116204228Y-113220743D01*
X117674651Y-111750320D01*
X117677780Y-111747620D01*
X117682269Y-111745425D01*
X117715893Y-111709178D01*
X117718469Y-111706502D01*
X117732248Y-111692723D01*
X117734793Y-111689013D01*
X117738229Y-111685100D01*
X117752185Y-111670055D01*
X117758401Y-111663354D01*
X117762398Y-111653337D01*
X117762666Y-111652664D01*
X117772980Y-111633348D01*
X117774321Y-111631393D01*
X117774322Y-111631390D01*
X117779492Y-111623854D01*
X117785641Y-111597941D01*
X117790014Y-111584116D01*
X117797294Y-111565868D01*
X117797294Y-111565866D01*
X117799883Y-111559378D01*
X117800500Y-111553085D01*
X117800500Y-111546916D01*
X117803175Y-111524057D01*
X117803230Y-111523827D01*
X117803230Y-111523825D01*
X117805340Y-111514934D01*
X117801404Y-111486012D01*
X117800500Y-111472663D01*
X117800500Y-111073058D01*
X117819407Y-111014867D01*
X117868907Y-110978903D01*
X117930093Y-110978903D01*
X117969504Y-111003054D01*
X118122254Y-111155804D01*
X118126329Y-111158518D01*
X118126330Y-111158519D01*
X118156677Y-111178731D01*
X118172099Y-111189003D01*
X118230162Y-111200500D01*
X118700500Y-111200500D01*
X118758691Y-111219407D01*
X118794655Y-111268907D01*
X118799500Y-111299500D01*
X118799500Y-111465983D01*
X118796982Y-111488169D01*
X118794344Y-111499641D01*
X118795705Y-111505658D01*
X118796795Y-111515332D01*
X118796795Y-111515333D01*
X118805306Y-111590867D01*
X118812742Y-111656862D01*
X118831037Y-111709145D01*
X118857221Y-111783977D01*
X118858593Y-111845147D01*
X118823749Y-111895441D01*
X118810791Y-111903798D01*
X118782206Y-111919222D01*
X118702999Y-112004907D01*
X118655818Y-112111629D01*
X118655112Y-112119777D01*
X118655112Y-112119778D01*
X118647346Y-112209443D01*
X118645749Y-112227880D01*
X118647722Y-112235822D01*
X118647722Y-112235823D01*
X118670289Y-112326667D01*
X118673880Y-112341125D01*
X118678317Y-112347996D01*
X118678317Y-112347997D01*
X118731326Y-112430093D01*
X118737175Y-112439152D01*
X118737684Y-112439553D01*
X118761216Y-112491665D01*
X118748811Y-112551580D01*
X118735512Y-112569735D01*
X118702999Y-112604907D01*
X118655818Y-112711629D01*
X118655112Y-112719777D01*
X118655112Y-112719778D01*
X118649653Y-112782808D01*
X118645749Y-112827880D01*
X118647722Y-112835822D01*
X118647722Y-112835823D01*
X118652183Y-112853779D01*
X118673880Y-112941125D01*
X118678317Y-112947996D01*
X118678317Y-112947997D01*
X118708727Y-112995093D01*
X118737175Y-113039152D01*
X118737684Y-113039553D01*
X118761216Y-113091665D01*
X118748811Y-113151580D01*
X118735512Y-113169735D01*
X118702999Y-113204907D01*
X118655818Y-113311629D01*
X118655112Y-113319777D01*
X118655112Y-113319778D01*
X118646455Y-113419727D01*
X118645749Y-113427880D01*
X118673880Y-113541125D01*
X118678317Y-113547996D01*
X118678317Y-113547997D01*
X118708727Y-113595093D01*
X118737175Y-113639152D01*
X118737684Y-113639553D01*
X118761216Y-113691665D01*
X118748811Y-113751580D01*
X118735512Y-113769735D01*
X118702999Y-113804907D01*
X118655818Y-113911629D01*
X118655112Y-113919777D01*
X118655112Y-113919778D01*
X118646455Y-114019727D01*
X118645749Y-114027880D01*
X118673880Y-114141125D01*
X118678317Y-114147996D01*
X118678317Y-114147997D01*
X118731226Y-114229938D01*
X118737175Y-114239152D01*
X118828811Y-114311392D01*
X118836529Y-114314102D01*
X118836530Y-114314103D01*
X118933803Y-114348263D01*
X118982442Y-114385384D01*
X118999000Y-114438465D01*
X118999000Y-114446414D01*
X118981093Y-114501527D01*
X118971004Y-114513340D01*
X118948862Y-114535482D01*
X118945904Y-114540190D01*
X118945903Y-114540191D01*
X118875662Y-114651979D01*
X118864878Y-114669141D01*
X118848828Y-114715011D01*
X118842464Y-114733197D01*
X118805398Y-114781878D01*
X118749019Y-114799500D01*
X109134947Y-114799500D01*
X109076756Y-114780593D01*
X109040792Y-114731093D01*
X109040792Y-114669907D01*
X109056140Y-114640580D01*
X109073506Y-114617743D01*
X109082299Y-114607672D01*
X109461994Y-114227977D01*
X109516511Y-114200200D01*
X109580295Y-114211561D01*
X109617398Y-114232297D01*
X109621996Y-114233791D01*
X109808724Y-114294463D01*
X109808726Y-114294464D01*
X109813329Y-114295959D01*
X110017894Y-114320351D01*
X110022716Y-114319980D01*
X110022719Y-114319980D01*
X110090541Y-114314761D01*
X110223300Y-114304546D01*
X110421725Y-114249145D01*
X110426038Y-114246966D01*
X110426044Y-114246964D01*
X110601289Y-114158441D01*
X110601291Y-114158440D01*
X110605610Y-114156258D01*
X110616184Y-114147997D01*
X110764135Y-114032406D01*
X110764139Y-114032402D01*
X110767951Y-114029424D01*
X110773489Y-114023009D01*
X110827313Y-113960651D01*
X110902564Y-113873472D01*
X110904957Y-113869260D01*
X111001934Y-113698550D01*
X111001935Y-113698547D01*
X111004323Y-113694344D01*
X111017882Y-113653586D01*
X111067824Y-113503454D01*
X111067824Y-113503452D01*
X111069351Y-113498863D01*
X111070677Y-113488371D01*
X111094823Y-113297228D01*
X111095171Y-113294474D01*
X111095583Y-113265000D01*
X111095313Y-113262244D01*
X111075952Y-113064780D01*
X111075951Y-113064776D01*
X111075480Y-113059970D01*
X111068214Y-113035902D01*
X111017333Y-112867380D01*
X111015935Y-112862749D01*
X110919218Y-112680849D01*
X110789011Y-112521200D01*
X110772786Y-112507777D01*
X110734109Y-112475781D01*
X110701324Y-112424120D01*
X110705166Y-112363056D01*
X110744167Y-112315911D01*
X110797214Y-112300500D01*
X111821900Y-112300500D01*
X111880091Y-112319407D01*
X111916055Y-112368907D01*
X111916055Y-112430093D01*
X111883933Y-112476655D01*
X111845225Y-112507777D01*
X111845223Y-112507779D01*
X111841447Y-112510815D01*
X111838333Y-112514526D01*
X111838332Y-112514527D01*
X111829585Y-112524952D01*
X111709024Y-112668630D01*
X111706689Y-112672878D01*
X111706688Y-112672879D01*
X111699955Y-112685126D01*
X111609776Y-112849162D01*
X111547484Y-113045532D01*
X111546944Y-113050344D01*
X111546944Y-113050345D01*
X111543531Y-113080778D01*
X111524520Y-113250262D01*
X111525526Y-113262244D01*
X111538751Y-113419727D01*
X111541759Y-113455553D01*
X111598544Y-113653586D01*
X111692712Y-113836818D01*
X111820677Y-113998270D01*
X111824357Y-114001402D01*
X111824359Y-114001404D01*
X111876294Y-114045604D01*
X111977564Y-114131791D01*
X111981787Y-114134151D01*
X111981791Y-114134154D01*
X112021342Y-114156258D01*
X112157398Y-114232297D01*
X112161996Y-114233791D01*
X112348724Y-114294463D01*
X112348726Y-114294464D01*
X112353329Y-114295959D01*
X112557894Y-114320351D01*
X112562716Y-114319980D01*
X112562719Y-114319980D01*
X112630541Y-114314761D01*
X112763300Y-114304546D01*
X112961725Y-114249145D01*
X112966038Y-114246966D01*
X112966044Y-114246964D01*
X113141289Y-114158441D01*
X113141291Y-114158440D01*
X113145610Y-114156258D01*
X113156184Y-114147997D01*
X113304135Y-114032406D01*
X113304139Y-114032402D01*
X113307951Y-114029424D01*
X113313489Y-114023009D01*
X113367313Y-113960651D01*
X113442564Y-113873472D01*
X113444957Y-113869260D01*
X113541934Y-113698550D01*
X113541935Y-113698547D01*
X113544323Y-113694344D01*
X113557882Y-113653586D01*
X113607824Y-113503454D01*
X113607824Y-113503452D01*
X113609351Y-113498863D01*
X113610677Y-113488371D01*
X113634823Y-113297228D01*
X113635171Y-113294474D01*
X113635583Y-113265000D01*
X113635313Y-113262244D01*
X113615952Y-113064780D01*
X113615951Y-113064776D01*
X113615480Y-113059970D01*
X113608214Y-113035902D01*
X113557333Y-112867380D01*
X113555935Y-112862749D01*
X113459218Y-112680849D01*
X113329011Y-112521200D01*
X113312786Y-112507777D01*
X113274109Y-112475781D01*
X113241324Y-112424120D01*
X113245166Y-112363056D01*
X113284167Y-112315911D01*
X113337214Y-112300500D01*
X113546492Y-112300500D01*
X113550617Y-112300803D01*
X113555342Y-112302425D01*
X113604761Y-112300570D01*
X113608474Y-112300500D01*
X113627948Y-112300500D01*
X113632378Y-112299675D01*
X113637571Y-112299339D01*
X113653602Y-112298737D01*
X113658075Y-112298569D01*
X113667208Y-112298226D01*
X113675602Y-112294620D01*
X113675605Y-112294619D01*
X113677783Y-112293683D01*
X113698734Y-112287317D01*
X113710053Y-112285209D01*
X113732729Y-112271232D01*
X113745596Y-112264548D01*
X113763642Y-112256795D01*
X113763643Y-112256794D01*
X113770063Y-112254036D01*
X113774949Y-112250022D01*
X113779313Y-112245658D01*
X113797368Y-112231387D01*
X113805348Y-112226468D01*
X113823018Y-112203231D01*
X113831810Y-112193161D01*
X114145140Y-111879831D01*
X114148269Y-111877131D01*
X114152758Y-111874936D01*
X114186382Y-111838689D01*
X114188958Y-111836013D01*
X114202737Y-111822234D01*
X114205282Y-111818524D01*
X114208718Y-111814611D01*
X114222676Y-111799564D01*
X114228890Y-111792865D01*
X114232277Y-111784377D01*
X114233156Y-111782174D01*
X114243467Y-111762863D01*
X114244811Y-111760904D01*
X114244812Y-111760901D01*
X114249982Y-111753365D01*
X114256133Y-111727445D01*
X114260503Y-111713626D01*
X114270372Y-111688889D01*
X114270989Y-111682596D01*
X114270989Y-111676426D01*
X114273664Y-111653567D01*
X114273719Y-111653337D01*
X114275829Y-111644445D01*
X114274597Y-111635391D01*
X114274597Y-111635387D01*
X114271893Y-111615521D01*
X114270989Y-111602172D01*
X114270989Y-111596195D01*
X114289896Y-111538004D01*
X114339396Y-111502040D01*
X114400582Y-111502040D01*
X114434153Y-111520803D01*
X114513876Y-111588653D01*
X114513881Y-111588656D01*
X114517564Y-111591791D01*
X114521787Y-111594151D01*
X114521791Y-111594154D01*
X114611777Y-111644445D01*
X114697398Y-111692297D01*
X114701996Y-111693791D01*
X114888724Y-111754463D01*
X114888726Y-111754464D01*
X114893329Y-111755959D01*
X115097894Y-111780351D01*
X115102716Y-111779980D01*
X115102719Y-111779980D01*
X115170541Y-111774761D01*
X115303300Y-111764546D01*
X115501725Y-111709145D01*
X115506038Y-111706966D01*
X115506044Y-111706964D01*
X115681289Y-111618441D01*
X115681291Y-111618440D01*
X115685610Y-111616258D01*
X115695052Y-111608881D01*
X115844135Y-111492406D01*
X115844139Y-111492402D01*
X115847951Y-111489424D01*
X115856630Y-111479370D01*
X115931430Y-111392712D01*
X115982564Y-111333472D01*
X116001863Y-111299500D01*
X116081934Y-111158550D01*
X116081935Y-111158547D01*
X116084323Y-111154344D01*
X116086268Y-111148499D01*
X116147824Y-110963454D01*
X116147824Y-110963452D01*
X116149351Y-110958863D01*
X116159599Y-110877745D01*
X116174823Y-110757228D01*
X116175171Y-110754474D01*
X116175583Y-110725000D01*
X116155480Y-110519970D01*
X116118847Y-110398636D01*
X116120129Y-110337464D01*
X116157121Y-110288728D01*
X116215695Y-110271044D01*
X116273477Y-110291165D01*
X116283626Y-110300018D01*
X116311658Y-110328050D01*
X116318595Y-110331585D01*
X116318597Y-110331586D01*
X116417756Y-110382110D01*
X116424696Y-110385646D01*
X116432390Y-110386865D01*
X116432391Y-110386865D01*
X116542303Y-110404273D01*
X116550000Y-110405492D01*
X116557697Y-110404273D01*
X116667609Y-110386865D01*
X116667610Y-110386865D01*
X116675304Y-110385646D01*
X116682244Y-110382110D01*
X116781403Y-110331586D01*
X116781405Y-110331585D01*
X116788342Y-110328050D01*
X116878050Y-110238342D01*
X116889586Y-110215703D01*
X116932110Y-110132244D01*
X116932110Y-110132243D01*
X116935646Y-110125304D01*
X116938255Y-110108835D01*
X116954273Y-110007697D01*
X116955492Y-110000000D01*
X116942878Y-109920359D01*
X116936865Y-109882391D01*
X116936865Y-109882390D01*
X116935646Y-109874696D01*
X116925610Y-109855000D01*
X116881586Y-109768597D01*
X116881585Y-109768595D01*
X116878050Y-109761658D01*
X116788342Y-109671950D01*
X116781405Y-109668415D01*
X116781403Y-109668414D01*
X116763018Y-109659047D01*
X116755474Y-109655203D01*
X116712209Y-109611938D01*
X116702638Y-109551506D01*
X116730415Y-109496990D01*
X116766578Y-109474095D01*
X116768177Y-109473649D01*
X116771402Y-109472230D01*
X116896041Y-109417387D01*
X116896043Y-109417386D01*
X116899270Y-109415966D01*
X116948476Y-109385338D01*
X116960266Y-109375428D01*
X116995320Y-109345962D01*
X117036799Y-109311096D01*
X117093508Y-109288126D01*
X117152889Y-109302877D01*
G37*
%TD.AperFunction*%
%TA.AperFunction,Conductor*%
G36*
X109340091Y-112319407D02*
G01*
X109376055Y-112368907D01*
X109376055Y-112430093D01*
X109343933Y-112476655D01*
X109305225Y-112507777D01*
X109305223Y-112507779D01*
X109301447Y-112510815D01*
X109298333Y-112514526D01*
X109298332Y-112514527D01*
X109289585Y-112524952D01*
X109169024Y-112668630D01*
X109166689Y-112672878D01*
X109166688Y-112672879D01*
X109159955Y-112685126D01*
X109069776Y-112849162D01*
X109007484Y-113045532D01*
X109006944Y-113050344D01*
X109006944Y-113050345D01*
X109003531Y-113080778D01*
X108984520Y-113250262D01*
X108985526Y-113262244D01*
X108998751Y-113419727D01*
X109001759Y-113455553D01*
X109058544Y-113653586D01*
X109060756Y-113657891D01*
X109060758Y-113657895D01*
X109068962Y-113673858D01*
X109078745Y-113734256D01*
X109050914Y-113789115D01*
X108755014Y-114085015D01*
X108700497Y-114112792D01*
X108685010Y-114114011D01*
X108371172Y-114114011D01*
X108312981Y-114095104D01*
X108277017Y-114045604D01*
X108277017Y-113984418D01*
X108296229Y-113950323D01*
X108338743Y-113901069D01*
X108362564Y-113873472D01*
X108364957Y-113869260D01*
X108461934Y-113698550D01*
X108461935Y-113698547D01*
X108464323Y-113694344D01*
X108477882Y-113653586D01*
X108527824Y-113503454D01*
X108527824Y-113503452D01*
X108529351Y-113498863D01*
X108530677Y-113488371D01*
X108554823Y-113297228D01*
X108555171Y-113294474D01*
X108555583Y-113265000D01*
X108555313Y-113262244D01*
X108535952Y-113064780D01*
X108535951Y-113064776D01*
X108535480Y-113059970D01*
X108528214Y-113035902D01*
X108477333Y-112867380D01*
X108475935Y-112862749D01*
X108444818Y-112804225D01*
X108434194Y-112743971D01*
X108462226Y-112687745D01*
X108820475Y-112329496D01*
X108874992Y-112301719D01*
X108890479Y-112300500D01*
X109281900Y-112300500D01*
X109340091Y-112319407D01*
G37*
%TD.AperFunction*%
%TA.AperFunction,Conductor*%
G36*
X109081989Y-108819407D02*
G01*
X109093802Y-108829496D01*
X109710504Y-109446198D01*
X109738281Y-109500715D01*
X109739500Y-109516202D01*
X109739500Y-109644280D01*
X109720593Y-109702471D01*
X109668451Y-109739252D01*
X109644572Y-109746280D01*
X109640288Y-109748519D01*
X109640287Y-109748520D01*
X109629428Y-109754197D01*
X109462002Y-109841726D01*
X109458233Y-109844756D01*
X109458232Y-109844757D01*
X109305220Y-109967781D01*
X109305217Y-109967783D01*
X109301447Y-109970815D01*
X109298333Y-109974526D01*
X109298332Y-109974527D01*
X109178272Y-110117609D01*
X109169024Y-110128630D01*
X109166689Y-110132878D01*
X109166688Y-110132879D01*
X109160061Y-110144934D01*
X109069776Y-110309162D01*
X109068313Y-110313775D01*
X109068311Y-110313779D01*
X109045514Y-110385646D01*
X109007484Y-110505532D01*
X109006944Y-110510344D01*
X109006944Y-110510345D01*
X109005865Y-110519970D01*
X108984520Y-110710262D01*
X109001759Y-110915553D01*
X109058544Y-111113586D01*
X109152712Y-111296818D01*
X109280677Y-111458270D01*
X109359214Y-111525110D01*
X109391272Y-111577221D01*
X109386578Y-111638226D01*
X109346923Y-111684821D01*
X109295048Y-111699500D01*
X108778508Y-111699500D01*
X108774383Y-111699197D01*
X108769658Y-111697575D01*
X108720239Y-111699430D01*
X108716526Y-111699500D01*
X108697052Y-111699500D01*
X108692622Y-111700325D01*
X108687429Y-111700661D01*
X108671398Y-111701263D01*
X108666925Y-111701431D01*
X108657792Y-111701774D01*
X108649398Y-111705380D01*
X108649395Y-111705381D01*
X108647217Y-111706317D01*
X108626266Y-111712683D01*
X108614947Y-111714791D01*
X108607164Y-111719588D01*
X108607165Y-111719588D01*
X108592272Y-111728768D01*
X108579404Y-111735452D01*
X108561358Y-111743205D01*
X108561357Y-111743206D01*
X108554937Y-111745964D01*
X108550051Y-111749978D01*
X108545687Y-111754342D01*
X108527632Y-111768613D01*
X108519652Y-111773532D01*
X108501982Y-111796769D01*
X108493190Y-111806839D01*
X108025490Y-112274539D01*
X107970973Y-112302316D01*
X107917125Y-112295801D01*
X107913308Y-112294197D01*
X107909055Y-112291897D01*
X107904435Y-112290467D01*
X107904433Y-112290466D01*
X107716875Y-112232407D01*
X107716871Y-112232406D01*
X107712254Y-112230977D01*
X107707446Y-112230472D01*
X107707443Y-112230471D01*
X107512185Y-112209949D01*
X107512183Y-112209949D01*
X107507369Y-112209443D01*
X107447354Y-112214905D01*
X107307022Y-112227675D01*
X107307017Y-112227676D01*
X107302203Y-112228114D01*
X107104572Y-112286280D01*
X107100288Y-112288519D01*
X107100287Y-112288520D01*
X107041206Y-112319407D01*
X106922002Y-112381726D01*
X106918231Y-112384758D01*
X106765220Y-112507781D01*
X106765217Y-112507783D01*
X106761447Y-112510815D01*
X106758333Y-112514526D01*
X106758332Y-112514527D01*
X106749585Y-112524952D01*
X106629024Y-112668630D01*
X106566254Y-112782809D01*
X106521652Y-112824693D01*
X106460950Y-112832361D01*
X106407332Y-112802885D01*
X106381281Y-112747523D01*
X106380500Y-112735115D01*
X106380500Y-110031359D01*
X106399407Y-109973168D01*
X106409496Y-109961355D01*
X106898777Y-109472074D01*
X106953294Y-109444297D01*
X106968781Y-109443078D01*
X107236223Y-109443078D01*
X107294412Y-109461984D01*
X107298730Y-109465121D01*
X107304237Y-109470628D01*
X107311178Y-109474164D01*
X107311177Y-109474164D01*
X107393681Y-109516202D01*
X107417275Y-109528224D01*
X107424969Y-109529443D01*
X107424970Y-109529443D01*
X107534882Y-109546851D01*
X107542579Y-109548070D01*
X107550276Y-109546851D01*
X107660188Y-109529443D01*
X107660189Y-109529443D01*
X107667883Y-109528224D01*
X107684644Y-109519684D01*
X107773982Y-109474164D01*
X107773984Y-109474163D01*
X107780921Y-109470628D01*
X107870629Y-109380920D01*
X107889392Y-109344097D01*
X107924689Y-109274822D01*
X107924689Y-109274821D01*
X107928225Y-109267882D01*
X107930744Y-109251982D01*
X107946852Y-109150275D01*
X107948071Y-109142578D01*
X107928225Y-109017274D01*
X107893650Y-108949417D01*
X107891117Y-108944445D01*
X107881546Y-108884013D01*
X107909324Y-108829496D01*
X107963840Y-108801719D01*
X107979327Y-108800500D01*
X109023798Y-108800500D01*
X109081989Y-108819407D01*
G37*
%TD.AperFunction*%
%TA.AperFunction,Conductor*%
G36*
X115875379Y-99986117D02*
G01*
X115931098Y-99986120D01*
X115980596Y-100022087D01*
X115999500Y-100080273D01*
X115999500Y-100119748D01*
X116004363Y-100144195D01*
X116007998Y-100162468D01*
X116011133Y-100178231D01*
X116016548Y-100186334D01*
X116016871Y-100187115D01*
X116021671Y-100248112D01*
X116016871Y-100262885D01*
X116016548Y-100263666D01*
X116011133Y-100271769D01*
X115995572Y-100350000D01*
X115995572Y-100768451D01*
X115976665Y-100826642D01*
X115927165Y-100862606D01*
X115875581Y-100862607D01*
X115875304Y-100864354D01*
X115757697Y-100845727D01*
X115750000Y-100844508D01*
X115742303Y-100845727D01*
X115632391Y-100863135D01*
X115632390Y-100863135D01*
X115624696Y-100864354D01*
X115617757Y-100867890D01*
X115617756Y-100867890D01*
X115518597Y-100918414D01*
X115518595Y-100918415D01*
X115511658Y-100921950D01*
X115421950Y-101011658D01*
X115418415Y-101018595D01*
X115418414Y-101018597D01*
X115377347Y-101099195D01*
X115364354Y-101124696D01*
X115363135Y-101132390D01*
X115363135Y-101132391D01*
X115355265Y-101182082D01*
X115344508Y-101250000D01*
X115364354Y-101375304D01*
X115367890Y-101382243D01*
X115367890Y-101382244D01*
X115412779Y-101470342D01*
X115421950Y-101488342D01*
X115511658Y-101578050D01*
X115518595Y-101581585D01*
X115518597Y-101581586D01*
X115613028Y-101629701D01*
X115624696Y-101635646D01*
X115632390Y-101636865D01*
X115632391Y-101636865D01*
X115742303Y-101654273D01*
X115750000Y-101655492D01*
X115757697Y-101654273D01*
X115867609Y-101636865D01*
X115867610Y-101636865D01*
X115875304Y-101635646D01*
X115882244Y-101632110D01*
X115889658Y-101629701D01*
X115890196Y-101631358D01*
X115941229Y-101623275D01*
X115995746Y-101651051D01*
X116023525Y-101705567D01*
X116015442Y-101756604D01*
X116017099Y-101757142D01*
X116014690Y-101764556D01*
X116011154Y-101771496D01*
X116009935Y-101779190D01*
X116009935Y-101779191D01*
X116004264Y-101815000D01*
X115991308Y-101896800D01*
X116011154Y-102022104D01*
X116014690Y-102029043D01*
X116014690Y-102029044D01*
X116038784Y-102076330D01*
X116068750Y-102135142D01*
X116158458Y-102224850D01*
X116165395Y-102228385D01*
X116165397Y-102228386D01*
X116264556Y-102278910D01*
X116271496Y-102282446D01*
X116279190Y-102283665D01*
X116279191Y-102283665D01*
X116389103Y-102301073D01*
X116396800Y-102302292D01*
X116404497Y-102301073D01*
X116514409Y-102283665D01*
X116514410Y-102283665D01*
X116522104Y-102282446D01*
X116529044Y-102278910D01*
X116628203Y-102228386D01*
X116628205Y-102228385D01*
X116635142Y-102224850D01*
X116724850Y-102135142D01*
X116754817Y-102076330D01*
X116778910Y-102029044D01*
X116778910Y-102029043D01*
X116782446Y-102022104D01*
X116802292Y-101896800D01*
X116789336Y-101815000D01*
X116783665Y-101779191D01*
X116783665Y-101779190D01*
X116782446Y-101771496D01*
X116778910Y-101764557D01*
X116778909Y-101764553D01*
X116770665Y-101748374D01*
X116761093Y-101687942D01*
X116788870Y-101633425D01*
X116843386Y-101605647D01*
X116858874Y-101604428D01*
X117132645Y-101604428D01*
X117149070Y-101605800D01*
X117151867Y-101606271D01*
X117151878Y-101606272D01*
X117153742Y-101606586D01*
X117155637Y-101606756D01*
X117183247Y-101609233D01*
X117183256Y-101609233D01*
X117185157Y-101609404D01*
X117193362Y-101609504D01*
X117195608Y-101609532D01*
X117195612Y-101609532D01*
X117197499Y-101609555D01*
X117228981Y-101607505D01*
X117370758Y-101587201D01*
X117402052Y-101578050D01*
X117423016Y-101571920D01*
X117423021Y-101571918D01*
X117426390Y-101570933D01*
X117556769Y-101511653D01*
X117581095Y-101496096D01*
X117634431Y-101480500D01*
X117739623Y-101480500D01*
X117797814Y-101499407D01*
X117821889Y-101524425D01*
X117844195Y-101557745D01*
X118031446Y-101744996D01*
X118059223Y-101799513D01*
X118049652Y-101859945D01*
X118031446Y-101885004D01*
X117844196Y-102072254D01*
X117810997Y-102122099D01*
X117799500Y-102180162D01*
X117799499Y-102719841D01*
X117800462Y-102724644D01*
X117800462Y-102724647D01*
X117809355Y-102769015D01*
X117809356Y-102769018D01*
X117811269Y-102778561D01*
X117844195Y-102827745D01*
X118031446Y-103014996D01*
X118059223Y-103069513D01*
X118049652Y-103129945D01*
X118031446Y-103155004D01*
X117844196Y-103342254D01*
X117810997Y-103392099D01*
X117799500Y-103450162D01*
X117799499Y-103989841D01*
X117800462Y-103994644D01*
X117800462Y-103994647D01*
X117809355Y-104039015D01*
X117809356Y-104039018D01*
X117811269Y-104048561D01*
X117844195Y-104097745D01*
X118031446Y-104284996D01*
X118059223Y-104339513D01*
X118049652Y-104399945D01*
X118031446Y-104425004D01*
X117844196Y-104612254D01*
X117810997Y-104662099D01*
X117799500Y-104720162D01*
X117799500Y-104739449D01*
X117780593Y-104797640D01*
X117731093Y-104833604D01*
X117669907Y-104833604D01*
X117655555Y-104827659D01*
X117627945Y-104813591D01*
X117627944Y-104813591D01*
X117621005Y-104810055D01*
X117613311Y-104808836D01*
X117613310Y-104808836D01*
X117503398Y-104791428D01*
X117495701Y-104790209D01*
X117488004Y-104791428D01*
X117378092Y-104808836D01*
X117378091Y-104808836D01*
X117370397Y-104810055D01*
X117363458Y-104813591D01*
X117363457Y-104813591D01*
X117264298Y-104864115D01*
X117264296Y-104864116D01*
X117257359Y-104867651D01*
X117167651Y-104957359D01*
X117164116Y-104964296D01*
X117164115Y-104964298D01*
X117137831Y-105015884D01*
X117110055Y-105070397D01*
X117108837Y-105078090D01*
X117108836Y-105078092D01*
X117098907Y-105140784D01*
X117071130Y-105195301D01*
X116783654Y-105482777D01*
X116729137Y-105510554D01*
X116697226Y-105510401D01*
X116664083Y-105504825D01*
X116598133Y-105493729D01*
X116598122Y-105493728D01*
X116596258Y-105493414D01*
X116594363Y-105493244D01*
X116566753Y-105490767D01*
X116566744Y-105490767D01*
X116564843Y-105490596D01*
X116556638Y-105490496D01*
X116554392Y-105490468D01*
X116554388Y-105490468D01*
X116552501Y-105490445D01*
X116521019Y-105492495D01*
X116506516Y-105494572D01*
X116492481Y-105495572D01*
X116117355Y-105495572D01*
X116100930Y-105494200D01*
X116098133Y-105493729D01*
X116098122Y-105493728D01*
X116096258Y-105493414D01*
X116094363Y-105493244D01*
X116066753Y-105490767D01*
X116066744Y-105490767D01*
X116064843Y-105490596D01*
X116056638Y-105490496D01*
X116054392Y-105490468D01*
X116054388Y-105490468D01*
X116052501Y-105490445D01*
X116021019Y-105492495D01*
X115879242Y-105512799D01*
X115854545Y-105520021D01*
X115826984Y-105528080D01*
X115826979Y-105528082D01*
X115823610Y-105529067D01*
X115764194Y-105556082D01*
X115740476Y-105566866D01*
X115679678Y-105573739D01*
X115626451Y-105543564D01*
X115601127Y-105487866D01*
X115600500Y-105476744D01*
X115600500Y-105430485D01*
X115619407Y-105372294D01*
X115629496Y-105360481D01*
X117377529Y-103612449D01*
X117402588Y-103594244D01*
X117443333Y-103573483D01*
X117443337Y-103573480D01*
X117450277Y-103569944D01*
X117539985Y-103480236D01*
X117552843Y-103455002D01*
X117594045Y-103374138D01*
X117594045Y-103374137D01*
X117597581Y-103367198D01*
X117603171Y-103331907D01*
X117616208Y-103249591D01*
X117617427Y-103241894D01*
X117597581Y-103116590D01*
X117591923Y-103105486D01*
X117543521Y-103010491D01*
X117543520Y-103010489D01*
X117539985Y-103003552D01*
X117450277Y-102913844D01*
X117443340Y-102910309D01*
X117443338Y-102910308D01*
X117344179Y-102859784D01*
X117344178Y-102859784D01*
X117337239Y-102856248D01*
X117329545Y-102855029D01*
X117329544Y-102855029D01*
X117219632Y-102837621D01*
X117211935Y-102836402D01*
X117204238Y-102837621D01*
X117094326Y-102855029D01*
X117094325Y-102855029D01*
X117086631Y-102856248D01*
X117079692Y-102859784D01*
X117079691Y-102859784D01*
X116980532Y-102910308D01*
X116980530Y-102910309D01*
X116973593Y-102913844D01*
X116968087Y-102919350D01*
X116968083Y-102919353D01*
X116921919Y-102965518D01*
X116867403Y-102993296D01*
X116806971Y-102983725D01*
X116781911Y-102965519D01*
X116702639Y-102886247D01*
X116695702Y-102882712D01*
X116695700Y-102882711D01*
X116596541Y-102832187D01*
X116596540Y-102832187D01*
X116589601Y-102828651D01*
X116581907Y-102827432D01*
X116581906Y-102827432D01*
X116471994Y-102810024D01*
X116464297Y-102808805D01*
X116456600Y-102810024D01*
X116346688Y-102827432D01*
X116346687Y-102827432D01*
X116338993Y-102828651D01*
X116332054Y-102832187D01*
X116332053Y-102832187D01*
X116232894Y-102882711D01*
X116232892Y-102882712D01*
X116225955Y-102886247D01*
X116136247Y-102975955D01*
X116132712Y-102982892D01*
X116132711Y-102982894D01*
X116085022Y-103076489D01*
X116078651Y-103088993D01*
X116058805Y-103214297D01*
X116078651Y-103339601D01*
X116082187Y-103346540D01*
X116098915Y-103379371D01*
X116108486Y-103439804D01*
X116080709Y-103494320D01*
X114725349Y-104849680D01*
X114722220Y-104852380D01*
X114717731Y-104854575D01*
X114711513Y-104861278D01*
X114684107Y-104890822D01*
X114681531Y-104893498D01*
X114667752Y-104907277D01*
X114665207Y-104910987D01*
X114661771Y-104914900D01*
X114641599Y-104936646D01*
X114638212Y-104945134D01*
X114638212Y-104945135D01*
X114637334Y-104947336D01*
X114627020Y-104966652D01*
X114625679Y-104968607D01*
X114625678Y-104968610D01*
X114620508Y-104976146D01*
X114618398Y-104985038D01*
X114614359Y-105002058D01*
X114609986Y-105015884D01*
X114602706Y-105034132D01*
X114600117Y-105040622D01*
X114599500Y-105046915D01*
X114599500Y-105053084D01*
X114596825Y-105075943D01*
X114594660Y-105085066D01*
X114598596Y-105113987D01*
X114599500Y-105127337D01*
X114599500Y-105496857D01*
X114588721Y-105534077D01*
X114591431Y-105535158D01*
X114587166Y-105545848D01*
X114576852Y-105565164D01*
X114575511Y-105567119D01*
X114575510Y-105567122D01*
X114570340Y-105574658D01*
X114568230Y-105583550D01*
X114564191Y-105600570D01*
X114559818Y-105614396D01*
X114557474Y-105620272D01*
X114549949Y-105639134D01*
X114549332Y-105645427D01*
X114549332Y-105651596D01*
X114546657Y-105674455D01*
X114544492Y-105683578D01*
X114548428Y-105712499D01*
X114549332Y-105725849D01*
X114549332Y-109128413D01*
X114530425Y-109186604D01*
X114520336Y-109198417D01*
X113924860Y-109793893D01*
X113921731Y-109796593D01*
X113917242Y-109798788D01*
X113911024Y-109805491D01*
X113883618Y-109835035D01*
X113881042Y-109837711D01*
X113867263Y-109851490D01*
X113864718Y-109855200D01*
X113861282Y-109859113D01*
X113841110Y-109880859D01*
X113837723Y-109889347D01*
X113837723Y-109889348D01*
X113836845Y-109891549D01*
X113826531Y-109910865D01*
X113825190Y-109912820D01*
X113825189Y-109912823D01*
X113820019Y-109920359D01*
X113817909Y-109929251D01*
X113813870Y-109946271D01*
X113809497Y-109960097D01*
X113802309Y-109978115D01*
X113799628Y-109984835D01*
X113799011Y-109991128D01*
X113799011Y-109991520D01*
X113798436Y-109993883D01*
X113774825Y-110037803D01*
X113754570Y-110059638D01*
X113752021Y-110062285D01*
X113738241Y-110076065D01*
X113735696Y-110079775D01*
X113732260Y-110083688D01*
X113712088Y-110105434D01*
X113708701Y-110113922D01*
X113708701Y-110113923D01*
X113707823Y-110116124D01*
X113697509Y-110135440D01*
X113696168Y-110137395D01*
X113696167Y-110137398D01*
X113690997Y-110144934D01*
X113688887Y-110153826D01*
X113684848Y-110170846D01*
X113680476Y-110184671D01*
X113674738Y-110199054D01*
X113635614Y-110246096D01*
X113576311Y-110261158D01*
X113519482Y-110238486D01*
X113495373Y-110208848D01*
X113459218Y-110140849D01*
X113329011Y-109981200D01*
X113286789Y-109946271D01*
X113174002Y-109852965D01*
X113174000Y-109852964D01*
X113170275Y-109849882D01*
X113044293Y-109781764D01*
X112993309Y-109754197D01*
X112993308Y-109754197D01*
X112989055Y-109751897D01*
X112925855Y-109732333D01*
X112796875Y-109692407D01*
X112796871Y-109692406D01*
X112792254Y-109690977D01*
X112787446Y-109690472D01*
X112787443Y-109690471D01*
X112592185Y-109669949D01*
X112592183Y-109669949D01*
X112587369Y-109669443D01*
X112546558Y-109673157D01*
X112387022Y-109687675D01*
X112387017Y-109687676D01*
X112382203Y-109688114D01*
X112184572Y-109746280D01*
X112180288Y-109748519D01*
X112180287Y-109748520D01*
X112169428Y-109754197D01*
X112002002Y-109841726D01*
X111998233Y-109844756D01*
X111998232Y-109844757D01*
X111845220Y-109967781D01*
X111845217Y-109967783D01*
X111841447Y-109970815D01*
X111838333Y-109974526D01*
X111838332Y-109974527D01*
X111718272Y-110117609D01*
X111709024Y-110128630D01*
X111706689Y-110132878D01*
X111706688Y-110132879D01*
X111700061Y-110144934D01*
X111609776Y-110309162D01*
X111608313Y-110313775D01*
X111608311Y-110313779D01*
X111585514Y-110385646D01*
X111547484Y-110505532D01*
X111546944Y-110510344D01*
X111546944Y-110510345D01*
X111545865Y-110519970D01*
X111524520Y-110710262D01*
X111541759Y-110915553D01*
X111598544Y-111113586D01*
X111692712Y-111296818D01*
X111820677Y-111458270D01*
X111899214Y-111525110D01*
X111931272Y-111577221D01*
X111926578Y-111638226D01*
X111886923Y-111684821D01*
X111835048Y-111699500D01*
X110786582Y-111699500D01*
X110728391Y-111680593D01*
X110692427Y-111631093D01*
X110692427Y-111569907D01*
X110725632Y-111522487D01*
X110764135Y-111492406D01*
X110764139Y-111492402D01*
X110767951Y-111489424D01*
X110776630Y-111479370D01*
X110851430Y-111392712D01*
X110902564Y-111333472D01*
X110921863Y-111299500D01*
X111001934Y-111158550D01*
X111001935Y-111158547D01*
X111004323Y-111154344D01*
X111006268Y-111148499D01*
X111067824Y-110963454D01*
X111067824Y-110963452D01*
X111069351Y-110958863D01*
X111079599Y-110877745D01*
X111094823Y-110757228D01*
X111095171Y-110754474D01*
X111095583Y-110725000D01*
X111075480Y-110519970D01*
X111015935Y-110322749D01*
X110919218Y-110140849D01*
X110789011Y-109981200D01*
X110746789Y-109946271D01*
X110634002Y-109852965D01*
X110634000Y-109852964D01*
X110630275Y-109849882D01*
X110504293Y-109781764D01*
X110453309Y-109754197D01*
X110453308Y-109754197D01*
X110449055Y-109751897D01*
X110444438Y-109750468D01*
X110444429Y-109750464D01*
X110410225Y-109739876D01*
X110360227Y-109704607D01*
X110340500Y-109645304D01*
X110340500Y-109404231D01*
X110340803Y-109400106D01*
X110342425Y-109395381D01*
X110340570Y-109345962D01*
X110340500Y-109342249D01*
X110340500Y-109322775D01*
X110339675Y-109318345D01*
X110339338Y-109313140D01*
X110339262Y-109311096D01*
X110338226Y-109283515D01*
X110334620Y-109275121D01*
X110334619Y-109275118D01*
X110333683Y-109272940D01*
X110327317Y-109251989D01*
X110325209Y-109240670D01*
X110311232Y-109217994D01*
X110304548Y-109205127D01*
X110296795Y-109187081D01*
X110296794Y-109187080D01*
X110294036Y-109180660D01*
X110290022Y-109175774D01*
X110285658Y-109171410D01*
X110271387Y-109153355D01*
X110271264Y-109153156D01*
X110266468Y-109145375D01*
X110243231Y-109127705D01*
X110233161Y-109118913D01*
X110014248Y-108900000D01*
X112994508Y-108900000D01*
X112995727Y-108907697D01*
X113001585Y-108944680D01*
X113014354Y-109025304D01*
X113017890Y-109032243D01*
X113017890Y-109032244D01*
X113068080Y-109130746D01*
X113071950Y-109138342D01*
X113161658Y-109228050D01*
X113168595Y-109231585D01*
X113168597Y-109231586D01*
X113267756Y-109282110D01*
X113274696Y-109285646D01*
X113282390Y-109286865D01*
X113282391Y-109286865D01*
X113392303Y-109304273D01*
X113400000Y-109305492D01*
X113407697Y-109304273D01*
X113517609Y-109286865D01*
X113517610Y-109286865D01*
X113525304Y-109285646D01*
X113532244Y-109282110D01*
X113631403Y-109231586D01*
X113631405Y-109231585D01*
X113638342Y-109228050D01*
X113728050Y-109138342D01*
X113731921Y-109130746D01*
X113782110Y-109032244D01*
X113782110Y-109032243D01*
X113785646Y-109025304D01*
X113798416Y-108944680D01*
X113804273Y-108907697D01*
X113805492Y-108900000D01*
X113796984Y-108846280D01*
X113786865Y-108782391D01*
X113786865Y-108782390D01*
X113785646Y-108774696D01*
X113761316Y-108726946D01*
X113731586Y-108668597D01*
X113731585Y-108668595D01*
X113728050Y-108661658D01*
X113638342Y-108571950D01*
X113631405Y-108568415D01*
X113631403Y-108568414D01*
X113532244Y-108517890D01*
X113532243Y-108517890D01*
X113525304Y-108514354D01*
X113517610Y-108513135D01*
X113517609Y-108513135D01*
X113407697Y-108495727D01*
X113400000Y-108494508D01*
X113392303Y-108495727D01*
X113282391Y-108513135D01*
X113282390Y-108513135D01*
X113274696Y-108514354D01*
X113267757Y-108517890D01*
X113267756Y-108517890D01*
X113168597Y-108568414D01*
X113168595Y-108568415D01*
X113161658Y-108571950D01*
X113071950Y-108661658D01*
X113068415Y-108668595D01*
X113068414Y-108668597D01*
X113038684Y-108726946D01*
X113014354Y-108774696D01*
X113013135Y-108782390D01*
X113013135Y-108782391D01*
X113003016Y-108846280D01*
X112994508Y-108900000D01*
X110014248Y-108900000D01*
X109439597Y-108325349D01*
X109436897Y-108322220D01*
X109434702Y-108317731D01*
X109398455Y-108284107D01*
X109395779Y-108281531D01*
X109382000Y-108267752D01*
X109378290Y-108265207D01*
X109374377Y-108261771D01*
X109359332Y-108247815D01*
X109352631Y-108241599D01*
X109341941Y-108237334D01*
X109322625Y-108227020D01*
X109320670Y-108225679D01*
X109320667Y-108225678D01*
X109313131Y-108220508D01*
X109287218Y-108214359D01*
X109273393Y-108209986D01*
X109255145Y-108202706D01*
X109255143Y-108202706D01*
X109248655Y-108200117D01*
X109242362Y-108199500D01*
X109236193Y-108199500D01*
X109213334Y-108196825D01*
X109213104Y-108196770D01*
X109213102Y-108196770D01*
X109204211Y-108194660D01*
X109175290Y-108198596D01*
X109161940Y-108199500D01*
X107565479Y-108199500D01*
X107507288Y-108180593D01*
X107495475Y-108170504D01*
X107494311Y-108169340D01*
X107466534Y-108114823D01*
X107456605Y-108052131D01*
X107456604Y-108052129D01*
X107455386Y-108044436D01*
X107397790Y-107931398D01*
X107392283Y-107925891D01*
X107389146Y-107921573D01*
X107370240Y-107863384D01*
X107370240Y-107695739D01*
X107389147Y-107637548D01*
X107399236Y-107625735D01*
X107983831Y-107041140D01*
X108038348Y-107013363D01*
X108098780Y-107022934D01*
X108142045Y-107066199D01*
X108151616Y-107126630D01*
X108137722Y-107214359D01*
X108135911Y-107225792D01*
X108137130Y-107233489D01*
X108153100Y-107334318D01*
X108155757Y-107351096D01*
X108159293Y-107358035D01*
X108159293Y-107358036D01*
X108207221Y-107452099D01*
X108213353Y-107464134D01*
X108303061Y-107553842D01*
X108309998Y-107557377D01*
X108310000Y-107557378D01*
X108354275Y-107579937D01*
X108416099Y-107611438D01*
X108423793Y-107612657D01*
X108423794Y-107612657D01*
X108533706Y-107630065D01*
X108541403Y-107631284D01*
X108549100Y-107630065D01*
X108659012Y-107612657D01*
X108659013Y-107612657D01*
X108666707Y-107611438D01*
X108728531Y-107579937D01*
X108772806Y-107557378D01*
X108772808Y-107557377D01*
X108779745Y-107553842D01*
X108869453Y-107464134D01*
X108875586Y-107452099D01*
X108923513Y-107358036D01*
X108923513Y-107358035D01*
X108927049Y-107351096D01*
X108929707Y-107334318D01*
X108945676Y-107233489D01*
X108946895Y-107225792D01*
X108936849Y-107162365D01*
X108928268Y-107108183D01*
X108928268Y-107108182D01*
X108927049Y-107100488D01*
X108884002Y-107016003D01*
X108872989Y-106994389D01*
X108872988Y-106994387D01*
X108869453Y-106987450D01*
X108779745Y-106897742D01*
X108772808Y-106894207D01*
X108772806Y-106894206D01*
X108673647Y-106843682D01*
X108673646Y-106843682D01*
X108666707Y-106840146D01*
X108659013Y-106838927D01*
X108659012Y-106838927D01*
X108549100Y-106821519D01*
X108541403Y-106820300D01*
X108533706Y-106821519D01*
X108533705Y-106821519D01*
X108442241Y-106836005D01*
X108381809Y-106826433D01*
X108338545Y-106783169D01*
X108328974Y-106722736D01*
X108356751Y-106668220D01*
X109084651Y-105940320D01*
X109087780Y-105937620D01*
X109092269Y-105935425D01*
X109125893Y-105899178D01*
X109128469Y-105896502D01*
X109142248Y-105882723D01*
X109144793Y-105879013D01*
X109148229Y-105875100D01*
X109162187Y-105860053D01*
X109168401Y-105853354D01*
X109171788Y-105844866D01*
X109172667Y-105842663D01*
X109182978Y-105823352D01*
X109184322Y-105821393D01*
X109184323Y-105821390D01*
X109189493Y-105813854D01*
X109195644Y-105787934D01*
X109200014Y-105774115D01*
X109209883Y-105749378D01*
X109210500Y-105743085D01*
X109210500Y-105736915D01*
X109213175Y-105714056D01*
X109213230Y-105713826D01*
X109215340Y-105704934D01*
X109211404Y-105676012D01*
X109210500Y-105662663D01*
X109210500Y-101345479D01*
X109229407Y-101287288D01*
X109239496Y-101275475D01*
X109305475Y-101209496D01*
X109359992Y-101181719D01*
X109375479Y-101180500D01*
X114255292Y-101180500D01*
X114259417Y-101180803D01*
X114264142Y-101182425D01*
X114313561Y-101180570D01*
X114317274Y-101180500D01*
X114336748Y-101180500D01*
X114341178Y-101179675D01*
X114346371Y-101179339D01*
X114362402Y-101178737D01*
X114366875Y-101178569D01*
X114376008Y-101178226D01*
X114384402Y-101174620D01*
X114384405Y-101174619D01*
X114386583Y-101173683D01*
X114407534Y-101167317D01*
X114418853Y-101165209D01*
X114441529Y-101151232D01*
X114454396Y-101144548D01*
X114472442Y-101136795D01*
X114472443Y-101136794D01*
X114478863Y-101134036D01*
X114483749Y-101130022D01*
X114488113Y-101125658D01*
X114506168Y-101111387D01*
X114514148Y-101106468D01*
X114531818Y-101083231D01*
X114540610Y-101073161D01*
X115424651Y-100189120D01*
X115427780Y-100186420D01*
X115432269Y-100184225D01*
X115440814Y-100175014D01*
X115465893Y-100147978D01*
X115468469Y-100145302D01*
X115482248Y-100131523D01*
X115484793Y-100127813D01*
X115488229Y-100123900D01*
X115502187Y-100108853D01*
X115508401Y-100102154D01*
X115511788Y-100093666D01*
X115512667Y-100091463D01*
X115522978Y-100072152D01*
X115524324Y-100070190D01*
X115524325Y-100070187D01*
X115529493Y-100062654D01*
X115531602Y-100053765D01*
X115535082Y-100045913D01*
X115575944Y-100000372D01*
X115641080Y-99988241D01*
X115703821Y-99998178D01*
X115750000Y-100005492D01*
X115875304Y-99985646D01*
X115875379Y-99986117D01*
G37*
%TD.AperFunction*%
%TA.AperFunction,Conductor*%
G36*
X107275583Y-97211137D02*
G01*
X107318848Y-97254402D01*
X107328419Y-97283860D01*
X107329625Y-97291476D01*
X107333542Y-97316205D01*
X107339354Y-97352904D01*
X107342890Y-97359843D01*
X107342890Y-97359844D01*
X107388987Y-97450313D01*
X107396950Y-97465942D01*
X107486658Y-97555650D01*
X107493595Y-97559185D01*
X107493597Y-97559186D01*
X107562695Y-97594393D01*
X107599696Y-97613246D01*
X107607389Y-97614464D01*
X107607391Y-97614465D01*
X107640616Y-97619727D01*
X107670084Y-97624394D01*
X107724601Y-97652172D01*
X107867521Y-97795093D01*
X108003192Y-97930764D01*
X108005892Y-97933892D01*
X108008086Y-97938380D01*
X108014788Y-97944597D01*
X108044320Y-97971992D01*
X108046996Y-97974568D01*
X108060787Y-97988359D01*
X108064498Y-97990904D01*
X108068417Y-97994345D01*
X108076426Y-98001774D01*
X108090157Y-98014512D01*
X108098645Y-98017898D01*
X108098648Y-98017900D01*
X108100849Y-98018778D01*
X108120165Y-98029092D01*
X108122120Y-98030433D01*
X108122122Y-98030434D01*
X108129657Y-98035603D01*
X108138545Y-98037712D01*
X108138547Y-98037713D01*
X108155569Y-98041752D01*
X108169395Y-98046125D01*
X108187643Y-98053405D01*
X108187645Y-98053405D01*
X108194133Y-98055994D01*
X108200426Y-98056611D01*
X108206595Y-98056611D01*
X108229454Y-98059286D01*
X108229684Y-98059341D01*
X108229686Y-98059341D01*
X108238577Y-98061451D01*
X108267499Y-98057515D01*
X108280848Y-98056611D01*
X108695058Y-98056611D01*
X108699183Y-98056914D01*
X108703908Y-98058536D01*
X108753327Y-98056681D01*
X108757040Y-98056611D01*
X108776514Y-98056611D01*
X108780944Y-98055786D01*
X108786137Y-98055450D01*
X108802168Y-98054848D01*
X108806641Y-98054680D01*
X108815774Y-98054337D01*
X108820685Y-98052227D01*
X108836205Y-98050500D01*
X109194244Y-98050500D01*
X109252435Y-98069407D01*
X109264248Y-98079496D01*
X109522885Y-98338133D01*
X109550662Y-98392650D01*
X109541091Y-98453082D01*
X109497826Y-98496347D01*
X109430456Y-98530674D01*
X109424949Y-98536181D01*
X109420631Y-98539318D01*
X109362442Y-98558224D01*
X106754778Y-98558224D01*
X106750653Y-98557921D01*
X106745928Y-98556299D01*
X106696508Y-98558154D01*
X106692795Y-98558224D01*
X106673322Y-98558224D01*
X106668892Y-98559049D01*
X106663699Y-98559385D01*
X106644568Y-98560103D01*
X106643196Y-98560155D01*
X106634061Y-98560498D01*
X106625664Y-98564106D01*
X106625663Y-98564106D01*
X106623482Y-98565043D01*
X106602533Y-98571407D01*
X106600206Y-98571840D01*
X106600201Y-98571842D01*
X106591217Y-98573515D01*
X106568542Y-98587492D01*
X106555674Y-98594176D01*
X106537628Y-98601929D01*
X106537627Y-98601930D01*
X106531207Y-98604688D01*
X106526321Y-98608702D01*
X106521957Y-98613066D01*
X106503902Y-98627337D01*
X106495922Y-98632256D01*
X106478252Y-98655493D01*
X106469460Y-98665563D01*
X105239289Y-99895734D01*
X105184774Y-99923510D01*
X105124342Y-99913939D01*
X105099283Y-99895733D01*
X104968554Y-99765004D01*
X104940777Y-99710487D01*
X104950348Y-99650055D01*
X104968554Y-99624996D01*
X105155804Y-99437746D01*
X105162375Y-99427880D01*
X105183607Y-99396003D01*
X105183607Y-99396002D01*
X105189003Y-99387901D01*
X105200500Y-99329838D01*
X105200500Y-99230485D01*
X105219407Y-99172294D01*
X105229496Y-99160481D01*
X107160634Y-97229343D01*
X107215151Y-97201566D01*
X107275583Y-97211137D01*
G37*
%TD.AperFunction*%
%TA.AperFunction,Conductor*%
G36*
X108992232Y-97018927D02*
G01*
X109004045Y-97029016D01*
X109248710Y-97273681D01*
X109251411Y-97276811D01*
X109253605Y-97281299D01*
X109260304Y-97287514D01*
X109263247Y-97291476D01*
X109282762Y-97349466D01*
X109264463Y-97407851D01*
X109215342Y-97444330D01*
X109183767Y-97449500D01*
X108808185Y-97449500D01*
X108804060Y-97449197D01*
X108799335Y-97447575D01*
X108749915Y-97449430D01*
X108746202Y-97449500D01*
X108726729Y-97449500D01*
X108722299Y-97450325D01*
X108717106Y-97450661D01*
X108701412Y-97451250D01*
X108696601Y-97451431D01*
X108696600Y-97451431D01*
X108687468Y-97451774D01*
X108682557Y-97453884D01*
X108667037Y-97455611D01*
X108418990Y-97455611D01*
X108360799Y-97436704D01*
X108348986Y-97426615D01*
X108149571Y-97227200D01*
X108121794Y-97172683D01*
X108112580Y-97114507D01*
X108122151Y-97054075D01*
X108165416Y-97010810D01*
X108210361Y-97000020D01*
X108934041Y-97000020D01*
X108992232Y-97018927D01*
G37*
%TD.AperFunction*%
%TD*%
%TA.AperFunction,NonConductor*%
G36*
X122545189Y-90019907D02*
G01*
X122581153Y-90069407D01*
X122581153Y-90130593D01*
X122545189Y-90180093D01*
X122527265Y-90190441D01*
X122377142Y-90257280D01*
X122377140Y-90257281D01*
X122372408Y-90259388D01*
X122227770Y-90364474D01*
X122224304Y-90368324D01*
X122224300Y-90368327D01*
X122116036Y-90488567D01*
X122108141Y-90497335D01*
X122018750Y-90652165D01*
X122017149Y-90657094D01*
X122017148Y-90657095D01*
X121965105Y-90817265D01*
X121965104Y-90817270D01*
X121963503Y-90822197D01*
X121944815Y-91000000D01*
X121963503Y-91177803D01*
X121965104Y-91182730D01*
X121965105Y-91182735D01*
X122017148Y-91342905D01*
X122018750Y-91347835D01*
X122108141Y-91502665D01*
X122227770Y-91635526D01*
X122372407Y-91740612D01*
X122454070Y-91776970D01*
X122530995Y-91811220D01*
X122530999Y-91811221D01*
X122535733Y-91813329D01*
X122540803Y-91814407D01*
X122540804Y-91814407D01*
X122574728Y-91821618D01*
X122710609Y-91850500D01*
X122889391Y-91850500D01*
X123025272Y-91821618D01*
X123059196Y-91814407D01*
X123059197Y-91814407D01*
X123064267Y-91813329D01*
X123069001Y-91811221D01*
X123069005Y-91811220D01*
X123145930Y-91776970D01*
X123227593Y-91740612D01*
X123372230Y-91635526D01*
X123491859Y-91502665D01*
X123581250Y-91347835D01*
X123582852Y-91342905D01*
X123634895Y-91182735D01*
X123634896Y-91182730D01*
X123636497Y-91177803D01*
X123655185Y-91000000D01*
X123636497Y-90822197D01*
X123634896Y-90817270D01*
X123634895Y-90817265D01*
X123582852Y-90657095D01*
X123582851Y-90657094D01*
X123581250Y-90652165D01*
X123491859Y-90497335D01*
X123372230Y-90364474D01*
X123227593Y-90259388D01*
X123072735Y-90190441D01*
X123027266Y-90149500D01*
X123014544Y-90089652D01*
X123039431Y-90033756D01*
X123092419Y-90003163D01*
X123113002Y-90001000D01*
X123900000Y-90001000D01*
X123958191Y-90019907D01*
X123994155Y-90069407D01*
X123999000Y-90100000D01*
X123999000Y-114900000D01*
X123980093Y-114958191D01*
X123930593Y-114994155D01*
X123900000Y-114999000D01*
X120095303Y-114999000D01*
X120037112Y-114980093D01*
X120001148Y-114930593D01*
X119997150Y-114912921D01*
X119988952Y-114850649D01*
X119988105Y-114844213D01*
X119937623Y-114722339D01*
X119933677Y-114717197D01*
X119933675Y-114717193D01*
X119861266Y-114622829D01*
X119861265Y-114622828D01*
X119857317Y-114617683D01*
X119804989Y-114577530D01*
X119757810Y-114541327D01*
X119757809Y-114541326D01*
X119752662Y-114537377D01*
X119750002Y-114536275D01*
X119714821Y-114500937D01*
X119685384Y-114449421D01*
X119395946Y-113942905D01*
X119271335Y-113724835D01*
X119258880Y-113664930D01*
X119284593Y-113608516D01*
X119291447Y-113601102D01*
X119291449Y-113601099D01*
X119292465Y-113600000D01*
X120544815Y-113600000D01*
X120563503Y-113777803D01*
X120565104Y-113782730D01*
X120565105Y-113782735D01*
X120589845Y-113858875D01*
X120618750Y-113947835D01*
X120708141Y-114102665D01*
X120827770Y-114235526D01*
X120831968Y-114238576D01*
X120831969Y-114238577D01*
X120865289Y-114262785D01*
X120972407Y-114340612D01*
X121054070Y-114376970D01*
X121130995Y-114411220D01*
X121130999Y-114411221D01*
X121135733Y-114413329D01*
X121140803Y-114414407D01*
X121140804Y-114414407D01*
X121174728Y-114421618D01*
X121310609Y-114450500D01*
X121489391Y-114450500D01*
X121625272Y-114421618D01*
X121659196Y-114414407D01*
X121659197Y-114414407D01*
X121664267Y-114413329D01*
X121669001Y-114411221D01*
X121669005Y-114411220D01*
X121745930Y-114376970D01*
X121827593Y-114340612D01*
X121934711Y-114262785D01*
X121968031Y-114238577D01*
X121968032Y-114238576D01*
X121972230Y-114235526D01*
X122091859Y-114102665D01*
X122181250Y-113947835D01*
X122210155Y-113858875D01*
X122234895Y-113782735D01*
X122234896Y-113782730D01*
X122236497Y-113777803D01*
X122255185Y-113600000D01*
X122236497Y-113422197D01*
X122234896Y-113417270D01*
X122234895Y-113417265D01*
X122182852Y-113257095D01*
X122182851Y-113257094D01*
X122181250Y-113252165D01*
X122104496Y-113119222D01*
X122094452Y-113101826D01*
X122094451Y-113101825D01*
X122091859Y-113097335D01*
X121972230Y-112964474D01*
X121827593Y-112859388D01*
X121745930Y-112823029D01*
X121669005Y-112788780D01*
X121669001Y-112788779D01*
X121664267Y-112786671D01*
X121659197Y-112785593D01*
X121659196Y-112785593D01*
X121625272Y-112778382D01*
X121489391Y-112749500D01*
X121310609Y-112749500D01*
X121174728Y-112778382D01*
X121140804Y-112785593D01*
X121140803Y-112785593D01*
X121135733Y-112786671D01*
X121130999Y-112788779D01*
X121130995Y-112788780D01*
X120977142Y-112857280D01*
X120977140Y-112857281D01*
X120972408Y-112859388D01*
X120827770Y-112964474D01*
X120824304Y-112968324D01*
X120824300Y-112968327D01*
X120768531Y-113030265D01*
X120708141Y-113097335D01*
X120705549Y-113101825D01*
X120705548Y-113101826D01*
X120695505Y-113119222D01*
X120618750Y-113252165D01*
X120617149Y-113257094D01*
X120617148Y-113257095D01*
X120565105Y-113417265D01*
X120565104Y-113417270D01*
X120563503Y-113422197D01*
X120544815Y-113600000D01*
X119292465Y-113600000D01*
X119297001Y-113595093D01*
X119344182Y-113488371D01*
X119349422Y-113427880D01*
X119353545Y-113380273D01*
X119353545Y-113380272D01*
X119354251Y-113372120D01*
X119326120Y-113258875D01*
X119318888Y-113247675D01*
X119267265Y-113167724D01*
X119267264Y-113167723D01*
X119262825Y-113160848D01*
X119262316Y-113160447D01*
X119238784Y-113108335D01*
X119251189Y-113048420D01*
X119264488Y-113030265D01*
X119291447Y-113001101D01*
X119297001Y-112995093D01*
X119344182Y-112888371D01*
X119346693Y-112859388D01*
X119353545Y-112780273D01*
X119353545Y-112780272D01*
X119354251Y-112772120D01*
X119326120Y-112658875D01*
X119321683Y-112652003D01*
X119267265Y-112567724D01*
X119267264Y-112567723D01*
X119262825Y-112560848D01*
X119262316Y-112560447D01*
X119238784Y-112508335D01*
X119251189Y-112448420D01*
X119264488Y-112430265D01*
X119291447Y-112401101D01*
X119297001Y-112395093D01*
X119344182Y-112288371D01*
X119349422Y-112227880D01*
X119353545Y-112180273D01*
X119353545Y-112180272D01*
X119354251Y-112172120D01*
X119352278Y-112164176D01*
X119341510Y-112120827D01*
X119345831Y-112059795D01*
X119385201Y-112012958D01*
X119450512Y-111998808D01*
X119493566Y-112004476D01*
X119500000Y-112005323D01*
X119506434Y-112004476D01*
X119624356Y-111988952D01*
X119624359Y-111988951D01*
X119630787Y-111988105D01*
X119752662Y-111937623D01*
X119759799Y-111932147D01*
X119852164Y-111861271D01*
X119857317Y-111857317D01*
X119937623Y-111752662D01*
X119988105Y-111630787D01*
X120005323Y-111500000D01*
X120001536Y-111500000D01*
X120001000Y-111494167D01*
X120001000Y-100224911D01*
X120001415Y-100215853D01*
X120002871Y-100200000D01*
X120005323Y-100200000D01*
X119988105Y-100069213D01*
X119937623Y-99947339D01*
X119933677Y-99942197D01*
X119933675Y-99942193D01*
X119861266Y-99847829D01*
X119861265Y-99847828D01*
X119857317Y-99842683D01*
X119804989Y-99802530D01*
X119757810Y-99766327D01*
X119757809Y-99766326D01*
X119752662Y-99762377D01*
X119630787Y-99711895D01*
X119624359Y-99711049D01*
X119624356Y-99711048D01*
X119506434Y-99695524D01*
X119500000Y-99694677D01*
X119412436Y-99706205D01*
X119352276Y-99695055D01*
X119310159Y-99650673D01*
X119302173Y-99590011D01*
X119308969Y-99568022D01*
X119340874Y-99495854D01*
X119340874Y-99495853D01*
X119344182Y-99488371D01*
X119349422Y-99427880D01*
X119353545Y-99380273D01*
X119353545Y-99380272D01*
X119354251Y-99372120D01*
X119326120Y-99258875D01*
X119321683Y-99252003D01*
X119267265Y-99167724D01*
X119267264Y-99167723D01*
X119262825Y-99160848D01*
X119262316Y-99160447D01*
X119238784Y-99108335D01*
X119251189Y-99048420D01*
X119264488Y-99030265D01*
X119291447Y-99001101D01*
X119297001Y-98995093D01*
X119344182Y-98888371D01*
X119349422Y-98827880D01*
X119353545Y-98780273D01*
X119353545Y-98780272D01*
X119354251Y-98772120D01*
X119326120Y-98658875D01*
X119321683Y-98652003D01*
X119267265Y-98567724D01*
X119267264Y-98567723D01*
X119262825Y-98560848D01*
X119262316Y-98560447D01*
X119238784Y-98508335D01*
X119251189Y-98448420D01*
X119264488Y-98430265D01*
X119291447Y-98401101D01*
X119297001Y-98395093D01*
X119344182Y-98288371D01*
X119349422Y-98227880D01*
X119353545Y-98180273D01*
X119353545Y-98180272D01*
X119354251Y-98172120D01*
X119326120Y-98058875D01*
X119263167Y-97961377D01*
X119247782Y-97898290D01*
X119249917Y-97875872D01*
X119275774Y-97818056D01*
X119291446Y-97801102D01*
X119297001Y-97795093D01*
X119344182Y-97688371D01*
X119349422Y-97627880D01*
X119353545Y-97580273D01*
X119353545Y-97580272D01*
X119354251Y-97572120D01*
X119326120Y-97458875D01*
X119312964Y-97438500D01*
X119297580Y-97375413D01*
X119318107Y-97159881D01*
X119326115Y-97129237D01*
X119344182Y-97088371D01*
X119344888Y-97080221D01*
X119353545Y-96980273D01*
X119353545Y-96980272D01*
X119354251Y-96972120D01*
X119352278Y-96964176D01*
X119345128Y-96935392D01*
X119342654Y-96902140D01*
X119443789Y-95840217D01*
X119468128Y-95784081D01*
X119520815Y-95752972D01*
X119529421Y-95751450D01*
X119624356Y-95738952D01*
X119624359Y-95738951D01*
X119630787Y-95738105D01*
X119752662Y-95687623D01*
X119759799Y-95682147D01*
X119852164Y-95611271D01*
X119857317Y-95607317D01*
X119937623Y-95502662D01*
X119988105Y-95380787D01*
X120005323Y-95250000D01*
X120001536Y-95250000D01*
X120001000Y-95244167D01*
X120001000Y-90100000D01*
X120019907Y-90041809D01*
X120069407Y-90005845D01*
X120100000Y-90001000D01*
X122486998Y-90001000D01*
X122545189Y-90019907D01*
G37*
%TD.AperFunction*%
%TA.AperFunction,Conductor*%
%TO.N,GND*%
G36*
X118417774Y-95418907D02*
G01*
X118428869Y-95428286D01*
X118808247Y-95800000D01*
X118901000Y-95800000D01*
X118959191Y-95818907D01*
X118995155Y-95868407D01*
X119000000Y-95899000D01*
X119000000Y-95960769D01*
X118981093Y-96018960D01*
X118931593Y-96054924D01*
X118917255Y-96058425D01*
X118892973Y-96062467D01*
X118892968Y-96062469D01*
X118884897Y-96063812D01*
X118782206Y-96119222D01*
X118702999Y-96204907D01*
X118655818Y-96311629D01*
X118655112Y-96319777D01*
X118655112Y-96319778D01*
X118646455Y-96419727D01*
X118645749Y-96427880D01*
X118647722Y-96435822D01*
X118647722Y-96435823D01*
X118669271Y-96522569D01*
X118673880Y-96541125D01*
X118678317Y-96547996D01*
X118678317Y-96547997D01*
X118708727Y-96595093D01*
X118737175Y-96639152D01*
X118737684Y-96639553D01*
X118761216Y-96691665D01*
X118748811Y-96751580D01*
X118735512Y-96769735D01*
X118702999Y-96804907D01*
X118655818Y-96911629D01*
X118655112Y-96919777D01*
X118655112Y-96919778D01*
X118646524Y-97018927D01*
X118645749Y-97027880D01*
X118647722Y-97035822D01*
X118647722Y-97035823D01*
X118664235Y-97102296D01*
X118673880Y-97141125D01*
X118678317Y-97147996D01*
X118678317Y-97147997D01*
X118729458Y-97227200D01*
X118737175Y-97239152D01*
X118737684Y-97239553D01*
X118761216Y-97291665D01*
X118748811Y-97351580D01*
X118735512Y-97369735D01*
X118702999Y-97404907D01*
X118655818Y-97511629D01*
X118655112Y-97519777D01*
X118655112Y-97519778D01*
X118646917Y-97614394D01*
X118645749Y-97627880D01*
X118647722Y-97635822D01*
X118647722Y-97635823D01*
X118666844Y-97712799D01*
X118673880Y-97741125D01*
X118678317Y-97747996D01*
X118678317Y-97747997D01*
X118722903Y-97817048D01*
X118737175Y-97839152D01*
X118737684Y-97839553D01*
X118761216Y-97891665D01*
X118748811Y-97951580D01*
X118735512Y-97969735D01*
X118702999Y-98004907D01*
X118655818Y-98111629D01*
X118655112Y-98119777D01*
X118655112Y-98119778D01*
X118646517Y-98219014D01*
X118645749Y-98227880D01*
X118647722Y-98235822D01*
X118647722Y-98235823D01*
X118668296Y-98318644D01*
X118673880Y-98341125D01*
X118678317Y-98347996D01*
X118678317Y-98347997D01*
X118708727Y-98395093D01*
X118737175Y-98439152D01*
X118737684Y-98439553D01*
X118761216Y-98491665D01*
X118748811Y-98551580D01*
X118735512Y-98569735D01*
X118702999Y-98604907D01*
X118655818Y-98711629D01*
X118655112Y-98719777D01*
X118655112Y-98719778D01*
X118646455Y-98819727D01*
X118645749Y-98827880D01*
X118647722Y-98835822D01*
X118647722Y-98835823D01*
X118670951Y-98929332D01*
X118673880Y-98941125D01*
X118678317Y-98947996D01*
X118678317Y-98947997D01*
X118725945Y-99021759D01*
X118737175Y-99039152D01*
X118737684Y-99039553D01*
X118761216Y-99091665D01*
X118748811Y-99151580D01*
X118735512Y-99169735D01*
X118702999Y-99204907D01*
X118655818Y-99311629D01*
X118655112Y-99319777D01*
X118655112Y-99319778D01*
X118650355Y-99374696D01*
X118645749Y-99427880D01*
X118673880Y-99541125D01*
X118678317Y-99547996D01*
X118678317Y-99547997D01*
X118732715Y-99632244D01*
X118737175Y-99639152D01*
X118828811Y-99711392D01*
X118836531Y-99714103D01*
X118843704Y-99718047D01*
X118842936Y-99719444D01*
X118884072Y-99750836D01*
X118901605Y-99809456D01*
X118886457Y-99859798D01*
X118867837Y-99889430D01*
X118867833Y-99889438D01*
X118864878Y-99894141D01*
X118812742Y-100043138D01*
X118795843Y-100193123D01*
X118794344Y-100199641D01*
X118796805Y-100210515D01*
X118797059Y-100211638D01*
X118799500Y-100233488D01*
X118799500Y-100380500D01*
X118780593Y-100438691D01*
X118731093Y-100474655D01*
X118700501Y-100479500D01*
X118257010Y-100479499D01*
X118230159Y-100479499D01*
X118225356Y-100480462D01*
X118225353Y-100480462D01*
X118180985Y-100489355D01*
X118180982Y-100489356D01*
X118171439Y-100491269D01*
X118122255Y-100524195D01*
X118073432Y-100573018D01*
X118018915Y-100600795D01*
X117958483Y-100591224D01*
X117915218Y-100547959D01*
X117904428Y-100503014D01*
X117904428Y-100350000D01*
X117888867Y-100271769D01*
X117883452Y-100263666D01*
X117883129Y-100262885D01*
X117878329Y-100201888D01*
X117883129Y-100187115D01*
X117883452Y-100186334D01*
X117888867Y-100178231D01*
X117892003Y-100162468D01*
X117895637Y-100144195D01*
X117900500Y-100119748D01*
X117900500Y-99080252D01*
X117892617Y-99040621D01*
X117890769Y-99031329D01*
X117890768Y-99031327D01*
X117888867Y-99021769D01*
X117883452Y-99013666D01*
X117883129Y-99012885D01*
X117878329Y-98951888D01*
X117883129Y-98937115D01*
X117883452Y-98936334D01*
X117888867Y-98928231D01*
X117890959Y-98917717D01*
X117900679Y-98868848D01*
X117904428Y-98850000D01*
X117904428Y-98308919D01*
X117904430Y-98308314D01*
X117904494Y-98297820D01*
X117904892Y-98232693D01*
X117903752Y-98224364D01*
X117897504Y-98178757D01*
X117897504Y-98178756D01*
X117897026Y-98175268D01*
X117857669Y-98037559D01*
X117834001Y-97984649D01*
X117757575Y-97863521D01*
X117748583Y-97852955D01*
X117722291Y-97822062D01*
X117722288Y-97822059D01*
X117720008Y-97819380D01*
X117612657Y-97724572D01*
X117564215Y-97692752D01*
X117561024Y-97691254D01*
X117561019Y-97691251D01*
X117437769Y-97633385D01*
X117437770Y-97633385D01*
X117434570Y-97631883D01*
X117379139Y-97614936D01*
X117332564Y-97607684D01*
X117241104Y-97593444D01*
X117241100Y-97593444D01*
X117237621Y-97592902D01*
X117234102Y-97592859D01*
X117217074Y-97592651D01*
X117179665Y-97592194D01*
X117174251Y-97592902D01*
X117160225Y-97594736D01*
X117147389Y-97595572D01*
X116762427Y-97595572D01*
X116747199Y-97594393D01*
X116744478Y-97593970D01*
X116741104Y-97593444D01*
X116741100Y-97593444D01*
X116737621Y-97592902D01*
X116679665Y-97592194D01*
X116537651Y-97610764D01*
X116534257Y-97611712D01*
X116534255Y-97611712D01*
X116485225Y-97625401D01*
X116485223Y-97625402D01*
X116481823Y-97626351D01*
X116478596Y-97627771D01*
X116478593Y-97627772D01*
X116353959Y-97682613D01*
X116350730Y-97684034D01*
X116301524Y-97714662D01*
X116298830Y-97716927D01*
X116298828Y-97716928D01*
X116275118Y-97736858D01*
X116191889Y-97806819D01*
X116153255Y-97850029D01*
X116107196Y-97919222D01*
X116082097Y-97956928D01*
X116034114Y-97994891D01*
X116003402Y-98001000D01*
X115991925Y-98001431D01*
X115982792Y-98001774D01*
X115974398Y-98005380D01*
X115974395Y-98005381D01*
X115972217Y-98006317D01*
X115951266Y-98012683D01*
X115939947Y-98014791D01*
X115932164Y-98019588D01*
X115932165Y-98019588D01*
X115917272Y-98028768D01*
X115904405Y-98035451D01*
X115899500Y-98037559D01*
X115886358Y-98043205D01*
X115886357Y-98043206D01*
X115879937Y-98045964D01*
X115875051Y-98049978D01*
X115870687Y-98054342D01*
X115852632Y-98068613D01*
X115844652Y-98073532D01*
X115826982Y-98096769D01*
X115818190Y-98106839D01*
X115075349Y-98849680D01*
X115072220Y-98852380D01*
X115067731Y-98854575D01*
X115061513Y-98861278D01*
X115034107Y-98890822D01*
X115031531Y-98893498D01*
X115017752Y-98907277D01*
X115015207Y-98910987D01*
X115011771Y-98914900D01*
X114991599Y-98936646D01*
X114988212Y-98945134D01*
X114988212Y-98945135D01*
X114987334Y-98947336D01*
X114977020Y-98966652D01*
X114975679Y-98968607D01*
X114975678Y-98968610D01*
X114970508Y-98976146D01*
X114968398Y-98985038D01*
X114964359Y-99002058D01*
X114959986Y-99015884D01*
X114952784Y-99033937D01*
X114950117Y-99040621D01*
X114949102Y-99040216D01*
X114920479Y-99086605D01*
X114863880Y-99109846D01*
X114840929Y-99108909D01*
X114757698Y-99095727D01*
X114757697Y-99095727D01*
X114750000Y-99094508D01*
X114742303Y-99095727D01*
X114632391Y-99113135D01*
X114632390Y-99113135D01*
X114624696Y-99114354D01*
X114617757Y-99117890D01*
X114617756Y-99117890D01*
X114518597Y-99168414D01*
X114518595Y-99168415D01*
X114511658Y-99171950D01*
X114421950Y-99261658D01*
X114418415Y-99268595D01*
X114418414Y-99268597D01*
X114387210Y-99329838D01*
X114364354Y-99374696D01*
X114363135Y-99382390D01*
X114363135Y-99382391D01*
X114354368Y-99437746D01*
X114344508Y-99500000D01*
X114345727Y-99507697D01*
X114354784Y-99564878D01*
X114364354Y-99625304D01*
X114421950Y-99738342D01*
X114511658Y-99828050D01*
X114518595Y-99831585D01*
X114518597Y-99831586D01*
X114617756Y-99882110D01*
X114624696Y-99885646D01*
X114632390Y-99886865D01*
X114632391Y-99886865D01*
X114651617Y-99889910D01*
X114706134Y-99917688D01*
X114733911Y-99972204D01*
X114724339Y-100032636D01*
X114706134Y-100057695D01*
X114213325Y-100550504D01*
X114158808Y-100578281D01*
X114143321Y-100579500D01*
X109263508Y-100579500D01*
X109259383Y-100579197D01*
X109254658Y-100577575D01*
X109205239Y-100579430D01*
X109201526Y-100579500D01*
X109182052Y-100579500D01*
X109177622Y-100580325D01*
X109172429Y-100580661D01*
X109156398Y-100581263D01*
X109151925Y-100581431D01*
X109142792Y-100581774D01*
X109134398Y-100585380D01*
X109134395Y-100585381D01*
X109132217Y-100586317D01*
X109111266Y-100592683D01*
X109099947Y-100594791D01*
X109092164Y-100599588D01*
X109092165Y-100599588D01*
X109077272Y-100608768D01*
X109064404Y-100615452D01*
X109046358Y-100623205D01*
X109046357Y-100623206D01*
X109039937Y-100625964D01*
X109035051Y-100629978D01*
X109030687Y-100634342D01*
X109012632Y-100648613D01*
X109004652Y-100653532D01*
X108986982Y-100676769D01*
X108978190Y-100686839D01*
X108735349Y-100929680D01*
X108732220Y-100932380D01*
X108727731Y-100934575D01*
X108721513Y-100941278D01*
X108694107Y-100970822D01*
X108691531Y-100973498D01*
X108677752Y-100987277D01*
X108675207Y-100990987D01*
X108671771Y-100994900D01*
X108651599Y-101016646D01*
X108648212Y-101025134D01*
X108648212Y-101025135D01*
X108647334Y-101027336D01*
X108637020Y-101046652D01*
X108635679Y-101048607D01*
X108635678Y-101048610D01*
X108630508Y-101056146D01*
X108628398Y-101065038D01*
X108624359Y-101082058D01*
X108619986Y-101095884D01*
X108613801Y-101111387D01*
X108610117Y-101120622D01*
X108609500Y-101126915D01*
X108609500Y-101133084D01*
X108606825Y-101155943D01*
X108604660Y-101165066D01*
X108608596Y-101193987D01*
X108609500Y-101207337D01*
X108609500Y-105524520D01*
X108590593Y-105582711D01*
X108580504Y-105594524D01*
X106895089Y-107279940D01*
X106891960Y-107282640D01*
X106887471Y-107284835D01*
X106881253Y-107291538D01*
X106853847Y-107321082D01*
X106851271Y-107323758D01*
X106837492Y-107337537D01*
X106834947Y-107341247D01*
X106831511Y-107345160D01*
X106811339Y-107366906D01*
X106807952Y-107375394D01*
X106807952Y-107375395D01*
X106807074Y-107377596D01*
X106796760Y-107396912D01*
X106795419Y-107398867D01*
X106795418Y-107398870D01*
X106790248Y-107406406D01*
X106788138Y-107415298D01*
X106784099Y-107432318D01*
X106779726Y-107446144D01*
X106772549Y-107464134D01*
X106769857Y-107470882D01*
X106769240Y-107477175D01*
X106769240Y-107483344D01*
X106766565Y-107506203D01*
X106764400Y-107515326D01*
X106768336Y-107544247D01*
X106769240Y-107557597D01*
X106769240Y-107863384D01*
X106750334Y-107921573D01*
X106747197Y-107925891D01*
X106741690Y-107931398D01*
X106684094Y-108044436D01*
X106664248Y-108169740D01*
X106665467Y-108177437D01*
X106682159Y-108282825D01*
X106684094Y-108295044D01*
X106687630Y-108301983D01*
X106687630Y-108301984D01*
X106713654Y-108353058D01*
X106741690Y-108408082D01*
X106831398Y-108497790D01*
X106838335Y-108501325D01*
X106838337Y-108501326D01*
X106870846Y-108517890D01*
X106944436Y-108555386D01*
X106952129Y-108556604D01*
X106952131Y-108556605D01*
X107014823Y-108566534D01*
X107069340Y-108594311D01*
X107148103Y-108673074D01*
X107175880Y-108727591D01*
X107166309Y-108788023D01*
X107123044Y-108831288D01*
X107078099Y-108842078D01*
X106856809Y-108842078D01*
X106852685Y-108841775D01*
X106847960Y-108840153D01*
X106806634Y-108841705D01*
X106798552Y-108842008D01*
X106794838Y-108842078D01*
X106775354Y-108842078D01*
X106770922Y-108842903D01*
X106765732Y-108843240D01*
X106736093Y-108844353D01*
X106725521Y-108848895D01*
X106704568Y-108855261D01*
X106702236Y-108855695D01*
X106702234Y-108855696D01*
X106693249Y-108857369D01*
X106670570Y-108871349D01*
X106657709Y-108878029D01*
X106645329Y-108883348D01*
X106633239Y-108888542D01*
X106628353Y-108892556D01*
X106623989Y-108896920D01*
X106605934Y-108911191D01*
X106597954Y-108916110D01*
X106580284Y-108939347D01*
X106571492Y-108949417D01*
X105905349Y-109615560D01*
X105902220Y-109618260D01*
X105897731Y-109620455D01*
X105891513Y-109627158D01*
X105864107Y-109656702D01*
X105861531Y-109659378D01*
X105847752Y-109673157D01*
X105845207Y-109676867D01*
X105841771Y-109680780D01*
X105821599Y-109702526D01*
X105818212Y-109711014D01*
X105818212Y-109711015D01*
X105817334Y-109713216D01*
X105807020Y-109732532D01*
X105805679Y-109734487D01*
X105805678Y-109734490D01*
X105800508Y-109742026D01*
X105798398Y-109750918D01*
X105794359Y-109767938D01*
X105789986Y-109781764D01*
X105782706Y-109800012D01*
X105780117Y-109806502D01*
X105779500Y-109812795D01*
X105779500Y-109818964D01*
X105776825Y-109841823D01*
X105774660Y-109850946D01*
X105777819Y-109874158D01*
X105778596Y-109879867D01*
X105779500Y-109893217D01*
X105779500Y-113746492D01*
X105779197Y-113750617D01*
X105777575Y-113755342D01*
X105777918Y-113764476D01*
X105779430Y-113804761D01*
X105779500Y-113808474D01*
X105779500Y-113827948D01*
X105780325Y-113832378D01*
X105780661Y-113837571D01*
X105781774Y-113867208D01*
X105785380Y-113875602D01*
X105785381Y-113875605D01*
X105786317Y-113877783D01*
X105792683Y-113898734D01*
X105794791Y-113910053D01*
X105799588Y-113917835D01*
X105808768Y-113932728D01*
X105815451Y-113945595D01*
X105825964Y-113970063D01*
X105829978Y-113974949D01*
X105834342Y-113979313D01*
X105848613Y-113997368D01*
X105853532Y-114005348D01*
X105876769Y-114023018D01*
X105886839Y-114031810D01*
X106444191Y-114589162D01*
X106446891Y-114592291D01*
X106449086Y-114596780D01*
X106455789Y-114602998D01*
X106482655Y-114627920D01*
X106512458Y-114681356D01*
X106505160Y-114742105D01*
X106463549Y-114786962D01*
X106415327Y-114799500D01*
X104299500Y-114799500D01*
X104241309Y-114780593D01*
X104205345Y-114731093D01*
X104200500Y-114700500D01*
X104200500Y-111289500D01*
X104219407Y-111231309D01*
X104268907Y-111195345D01*
X104299499Y-111190500D01*
X104742990Y-111190501D01*
X104769841Y-111190501D01*
X104774644Y-111189538D01*
X104774647Y-111189538D01*
X104819015Y-111180645D01*
X104819018Y-111180644D01*
X104828561Y-111178731D01*
X104877745Y-111145805D01*
X105155804Y-110867746D01*
X105189003Y-110817901D01*
X105200500Y-110759838D01*
X105200501Y-110220159D01*
X105199538Y-110215353D01*
X105190645Y-110170985D01*
X105190644Y-110170982D01*
X105188731Y-110161439D01*
X105155805Y-110112255D01*
X104968554Y-109925004D01*
X104940777Y-109870487D01*
X104950348Y-109810055D01*
X104968554Y-109784996D01*
X105155804Y-109597746D01*
X105161049Y-109589871D01*
X105183607Y-109556003D01*
X105183607Y-109556002D01*
X105189003Y-109547901D01*
X105200500Y-109489838D01*
X105200501Y-108950159D01*
X105195134Y-108923383D01*
X105190645Y-108900985D01*
X105190644Y-108900982D01*
X105188731Y-108891439D01*
X105155805Y-108842255D01*
X104968554Y-108655004D01*
X104940777Y-108600487D01*
X104950348Y-108540055D01*
X104968554Y-108514996D01*
X105155804Y-108327746D01*
X105158519Y-108323670D01*
X105183607Y-108286003D01*
X105183607Y-108286002D01*
X105189003Y-108277901D01*
X105200500Y-108219838D01*
X105200501Y-107680159D01*
X105196880Y-107662093D01*
X105190645Y-107630985D01*
X105190644Y-107630982D01*
X105188731Y-107621439D01*
X105155805Y-107572255D01*
X104968554Y-107385004D01*
X104940777Y-107330487D01*
X104950348Y-107270055D01*
X104968554Y-107244996D01*
X105155804Y-107057746D01*
X105158519Y-107053670D01*
X105183607Y-107016003D01*
X105183607Y-107016002D01*
X105189003Y-107007901D01*
X105200500Y-106949838D01*
X105200501Y-106410159D01*
X105199538Y-106405353D01*
X105190645Y-106360985D01*
X105190644Y-106360982D01*
X105188731Y-106351439D01*
X105155805Y-106302255D01*
X104968554Y-106115004D01*
X104940777Y-106060487D01*
X104950348Y-106000055D01*
X104968554Y-105974996D01*
X105155804Y-105787746D01*
X105158519Y-105783670D01*
X105183607Y-105746003D01*
X105183607Y-105746002D01*
X105189003Y-105737901D01*
X105200500Y-105679838D01*
X105200500Y-105565164D01*
X105200501Y-105440478D01*
X105219409Y-105382287D01*
X105229497Y-105370474D01*
X106199971Y-104400000D01*
X106694508Y-104400000D01*
X106714354Y-104525304D01*
X106771950Y-104638342D01*
X106861658Y-104728050D01*
X106868595Y-104731585D01*
X106868597Y-104731586D01*
X106953802Y-104775000D01*
X106974696Y-104785646D01*
X106982390Y-104786865D01*
X106982391Y-104786865D01*
X107092303Y-104804273D01*
X107100000Y-104805492D01*
X107107697Y-104804273D01*
X107217609Y-104786865D01*
X107217610Y-104786865D01*
X107225304Y-104785646D01*
X107246198Y-104775000D01*
X107331403Y-104731586D01*
X107331405Y-104731585D01*
X107338342Y-104728050D01*
X107428050Y-104638342D01*
X107485646Y-104525304D01*
X107505492Y-104400000D01*
X107504273Y-104392303D01*
X107486865Y-104282391D01*
X107486865Y-104282390D01*
X107485646Y-104274696D01*
X107470997Y-104245945D01*
X107431586Y-104168597D01*
X107431585Y-104168595D01*
X107428050Y-104161658D01*
X107338342Y-104071950D01*
X107331405Y-104068415D01*
X107331403Y-104068414D01*
X107232244Y-104017890D01*
X107232243Y-104017890D01*
X107225304Y-104014354D01*
X107217610Y-104013135D01*
X107217609Y-104013135D01*
X107107697Y-103995727D01*
X107100000Y-103994508D01*
X107092303Y-103995727D01*
X106982391Y-104013135D01*
X106982390Y-104013135D01*
X106974696Y-104014354D01*
X106967757Y-104017890D01*
X106967756Y-104017890D01*
X106868597Y-104068414D01*
X106868595Y-104068415D01*
X106861658Y-104071950D01*
X106771950Y-104161658D01*
X106768415Y-104168595D01*
X106768414Y-104168597D01*
X106729003Y-104245945D01*
X106714354Y-104274696D01*
X106713135Y-104282390D01*
X106713135Y-104282391D01*
X106695727Y-104392303D01*
X106694508Y-104400000D01*
X106199971Y-104400000D01*
X106299651Y-104300320D01*
X106302780Y-104297620D01*
X106307269Y-104295425D01*
X106340893Y-104259178D01*
X106343469Y-104256502D01*
X106357247Y-104242724D01*
X106359792Y-104239013D01*
X106363220Y-104235108D01*
X106383401Y-104213354D01*
X106387666Y-104202664D01*
X106397980Y-104183348D01*
X106399321Y-104181393D01*
X106399322Y-104181390D01*
X106404492Y-104173854D01*
X106410641Y-104147941D01*
X106415014Y-104134116D01*
X106422294Y-104115868D01*
X106422294Y-104115866D01*
X106424883Y-104109378D01*
X106425500Y-104103085D01*
X106425500Y-104096916D01*
X106428175Y-104074057D01*
X106428230Y-104073827D01*
X106428230Y-104073825D01*
X106430340Y-104064934D01*
X106426404Y-104036012D01*
X106425500Y-104022663D01*
X106425500Y-100840479D01*
X106444407Y-100782288D01*
X106454496Y-100770475D01*
X106970475Y-100254496D01*
X107024992Y-100226719D01*
X107040479Y-100225500D01*
X110195568Y-100225500D01*
X110199693Y-100225803D01*
X110204418Y-100227425D01*
X110253837Y-100225570D01*
X110257550Y-100225500D01*
X110277024Y-100225500D01*
X110281454Y-100224675D01*
X110286647Y-100224339D01*
X110302678Y-100223737D01*
X110307151Y-100223569D01*
X110316284Y-100223226D01*
X110324678Y-100219620D01*
X110324681Y-100219619D01*
X110326859Y-100218683D01*
X110347810Y-100212317D01*
X110359129Y-100210209D01*
X110381805Y-100196232D01*
X110394672Y-100189548D01*
X110412718Y-100181795D01*
X110412719Y-100181794D01*
X110419139Y-100179036D01*
X110424025Y-100175022D01*
X110428389Y-100170658D01*
X110446444Y-100156387D01*
X110454424Y-100151468D01*
X110472094Y-100128231D01*
X110480886Y-100118161D01*
X111582749Y-99016298D01*
X111585878Y-99013598D01*
X111590367Y-99011403D01*
X111623991Y-98975156D01*
X111626567Y-98972480D01*
X111640346Y-98958701D01*
X111642891Y-98954991D01*
X111646326Y-98951079D01*
X111651870Y-98945102D01*
X111662471Y-98933675D01*
X111715906Y-98903871D01*
X111776655Y-98911168D01*
X111805056Y-98930998D01*
X111819160Y-98945102D01*
X111826097Y-98948637D01*
X111826099Y-98948638D01*
X111878144Y-98975156D01*
X111932198Y-99002698D01*
X111939892Y-99003917D01*
X111939893Y-99003917D01*
X112049805Y-99021325D01*
X112057502Y-99022544D01*
X112065199Y-99021325D01*
X112175111Y-99003917D01*
X112175112Y-99003917D01*
X112182806Y-99002698D01*
X112236860Y-98975156D01*
X112288905Y-98948638D01*
X112288907Y-98948637D01*
X112295844Y-98945102D01*
X112305023Y-98935923D01*
X112359540Y-98908146D01*
X112419972Y-98917717D01*
X112445031Y-98935923D01*
X112462158Y-98953050D01*
X112469095Y-98956585D01*
X112469097Y-98956586D01*
X112563526Y-99004700D01*
X112575196Y-99010646D01*
X112582890Y-99011865D01*
X112582891Y-99011865D01*
X112692803Y-99029273D01*
X112700500Y-99030492D01*
X112708197Y-99029273D01*
X112818109Y-99011865D01*
X112818110Y-99011865D01*
X112825804Y-99010646D01*
X112837474Y-99004700D01*
X112931903Y-98956586D01*
X112931905Y-98956585D01*
X112938842Y-98953050D01*
X113028550Y-98863342D01*
X113035512Y-98849680D01*
X113082610Y-98757244D01*
X113082610Y-98757243D01*
X113086146Y-98750304D01*
X113092272Y-98711629D01*
X113104773Y-98632697D01*
X113105992Y-98625000D01*
X113097838Y-98573515D01*
X113087365Y-98507391D01*
X113087365Y-98507390D01*
X113086146Y-98499696D01*
X113028550Y-98386658D01*
X113023043Y-98381151D01*
X113019906Y-98376833D01*
X113001000Y-98318644D01*
X113001000Y-97954008D01*
X113001303Y-97949883D01*
X113002925Y-97945158D01*
X113001070Y-97895739D01*
X113001000Y-97892026D01*
X113001000Y-97872552D01*
X113000175Y-97868122D01*
X112999838Y-97862917D01*
X112999069Y-97842425D01*
X112998726Y-97833292D01*
X112995120Y-97824898D01*
X112995119Y-97824895D01*
X112994183Y-97822717D01*
X112987817Y-97801766D01*
X112985709Y-97790447D01*
X112971732Y-97767771D01*
X112965048Y-97754904D01*
X112957295Y-97736858D01*
X112957294Y-97736857D01*
X112954536Y-97730437D01*
X112950522Y-97725551D01*
X112946158Y-97721187D01*
X112931887Y-97703132D01*
X112931764Y-97702933D01*
X112926968Y-97695152D01*
X112903731Y-97677482D01*
X112893661Y-97668690D01*
X111749831Y-96524860D01*
X111747131Y-96521731D01*
X111744936Y-96517242D01*
X111708689Y-96483618D01*
X111706013Y-96481042D01*
X111692234Y-96467263D01*
X111688524Y-96464718D01*
X111684611Y-96461282D01*
X111669566Y-96447326D01*
X111662865Y-96441110D01*
X111652175Y-96436845D01*
X111632859Y-96426531D01*
X111630904Y-96425190D01*
X111630901Y-96425189D01*
X111623365Y-96420019D01*
X111597452Y-96413870D01*
X111583627Y-96409497D01*
X111565379Y-96402217D01*
X111565377Y-96402217D01*
X111558889Y-96399628D01*
X111552596Y-96399011D01*
X111546427Y-96399011D01*
X111523568Y-96396336D01*
X111523338Y-96396281D01*
X111523336Y-96396281D01*
X111514445Y-96394171D01*
X111485524Y-96398107D01*
X111472174Y-96399011D01*
X110075713Y-96399011D01*
X110017522Y-96380104D01*
X110005709Y-96370015D01*
X109761043Y-96125349D01*
X109758343Y-96122220D01*
X109756148Y-96117731D01*
X109719901Y-96084107D01*
X109717225Y-96081531D01*
X109703446Y-96067752D01*
X109699736Y-96065207D01*
X109695823Y-96061771D01*
X109680778Y-96047815D01*
X109674077Y-96041599D01*
X109663387Y-96037334D01*
X109644071Y-96027020D01*
X109642116Y-96025679D01*
X109642113Y-96025678D01*
X109634577Y-96020508D01*
X109608664Y-96014359D01*
X109594839Y-96009986D01*
X109576591Y-96002706D01*
X109576589Y-96002706D01*
X109570101Y-96000117D01*
X109563808Y-95999500D01*
X109557639Y-95999500D01*
X109534781Y-95996825D01*
X109528460Y-95995325D01*
X109521988Y-95991383D01*
X109507758Y-95997096D01*
X109496734Y-95998596D01*
X109483386Y-95999500D01*
X107153508Y-95999500D01*
X107149383Y-95999197D01*
X107144658Y-95997575D01*
X107135524Y-95997918D01*
X107135322Y-95997888D01*
X107135200Y-95997930D01*
X107095238Y-95999430D01*
X107091525Y-95999500D01*
X107072052Y-95999500D01*
X107067622Y-96000325D01*
X107062429Y-96000661D01*
X107043298Y-96001379D01*
X107041926Y-96001431D01*
X107032791Y-96001774D01*
X107024394Y-96005382D01*
X107024393Y-96005382D01*
X107022212Y-96006319D01*
X107001263Y-96012683D01*
X106998936Y-96013116D01*
X106998931Y-96013118D01*
X106989947Y-96014791D01*
X106970108Y-96027020D01*
X106967272Y-96028768D01*
X106954404Y-96035452D01*
X106936358Y-96043205D01*
X106936357Y-96043206D01*
X106929937Y-96045964D01*
X106925051Y-96049978D01*
X106920687Y-96054342D01*
X106902632Y-96068613D01*
X106894652Y-96073532D01*
X106876982Y-96096769D01*
X106868190Y-96106839D01*
X105514525Y-97460504D01*
X105460008Y-97488281D01*
X105444521Y-97489500D01*
X105260377Y-97489500D01*
X105202186Y-97470593D01*
X105178110Y-97445574D01*
X105166698Y-97428527D01*
X105155805Y-97412255D01*
X104877746Y-97134196D01*
X104827901Y-97100997D01*
X104769838Y-97089500D01*
X104299500Y-97089500D01*
X104241309Y-97070593D01*
X104205345Y-97021093D01*
X104200500Y-96990500D01*
X104200500Y-95899000D01*
X104219407Y-95840809D01*
X104268907Y-95804845D01*
X104299500Y-95800000D01*
X107131487Y-95800000D01*
X107136594Y-95801659D01*
X107143349Y-95800000D01*
X109494407Y-95800000D01*
X109516110Y-95807052D01*
X109551318Y-95800000D01*
X117300000Y-95800000D01*
X117671004Y-95428996D01*
X117725521Y-95401219D01*
X117741008Y-95400000D01*
X118359583Y-95400000D01*
X118417774Y-95418907D01*
G37*
%TD.AperFunction*%
%TA.AperFunction,Conductor*%
G36*
X117152889Y-109302877D02*
G01*
X117192259Y-109349713D01*
X117199500Y-109386879D01*
X117199500Y-111334521D01*
X117180593Y-111392712D01*
X117170504Y-111404525D01*
X116029508Y-112545521D01*
X115974991Y-112573298D01*
X115914559Y-112563727D01*
X115882786Y-112538089D01*
X115872073Y-112524954D01*
X115872071Y-112524952D01*
X115869011Y-112521200D01*
X115852790Y-112507781D01*
X115714002Y-112392965D01*
X115714000Y-112392964D01*
X115710275Y-112389882D01*
X115547892Y-112302082D01*
X115533309Y-112294197D01*
X115533308Y-112294197D01*
X115529055Y-112291897D01*
X115393753Y-112250014D01*
X115336875Y-112232407D01*
X115336871Y-112232406D01*
X115332254Y-112230977D01*
X115327446Y-112230472D01*
X115327443Y-112230471D01*
X115132185Y-112209949D01*
X115132183Y-112209949D01*
X115127369Y-112209443D01*
X115067354Y-112214905D01*
X114927022Y-112227675D01*
X114927017Y-112227676D01*
X114922203Y-112228114D01*
X114724572Y-112286280D01*
X114720288Y-112288519D01*
X114720287Y-112288520D01*
X114661206Y-112319407D01*
X114542002Y-112381726D01*
X114538231Y-112384758D01*
X114385220Y-112507781D01*
X114385217Y-112507783D01*
X114381447Y-112510815D01*
X114378333Y-112514526D01*
X114378332Y-112514527D01*
X114369585Y-112524952D01*
X114249024Y-112668630D01*
X114246689Y-112672878D01*
X114246688Y-112672879D01*
X114239955Y-112685126D01*
X114149776Y-112849162D01*
X114087484Y-113045532D01*
X114086944Y-113050344D01*
X114086944Y-113050345D01*
X114083531Y-113080778D01*
X114064520Y-113250262D01*
X114065526Y-113262244D01*
X114078751Y-113419727D01*
X114081759Y-113455553D01*
X114138544Y-113653586D01*
X114232712Y-113836818D01*
X114360677Y-113998270D01*
X114364357Y-114001402D01*
X114364359Y-114001404D01*
X114416294Y-114045604D01*
X114517564Y-114131791D01*
X114521787Y-114134151D01*
X114521791Y-114134154D01*
X114561342Y-114156258D01*
X114697398Y-114232297D01*
X114701996Y-114233791D01*
X114888724Y-114294463D01*
X114888726Y-114294464D01*
X114893329Y-114295959D01*
X115097894Y-114320351D01*
X115102716Y-114319980D01*
X115102719Y-114319980D01*
X115170541Y-114314761D01*
X115303300Y-114304546D01*
X115501725Y-114249145D01*
X115506038Y-114246966D01*
X115506044Y-114246964D01*
X115681289Y-114158441D01*
X115681291Y-114158440D01*
X115685610Y-114156258D01*
X115696184Y-114147997D01*
X115844135Y-114032406D01*
X115844139Y-114032402D01*
X115847951Y-114029424D01*
X115853489Y-114023009D01*
X115907313Y-113960651D01*
X115982564Y-113873472D01*
X115984957Y-113869260D01*
X116081934Y-113698550D01*
X116081935Y-113698547D01*
X116084323Y-113694344D01*
X116097882Y-113653586D01*
X116147824Y-113503454D01*
X116147824Y-113503452D01*
X116149351Y-113498863D01*
X116150677Y-113488371D01*
X116174823Y-113297228D01*
X116175171Y-113294474D01*
X116175242Y-113289371D01*
X116194955Y-113231449D01*
X116204228Y-113220743D01*
X117674651Y-111750320D01*
X117677780Y-111747620D01*
X117682269Y-111745425D01*
X117715893Y-111709178D01*
X117718469Y-111706502D01*
X117732248Y-111692723D01*
X117734793Y-111689013D01*
X117738229Y-111685100D01*
X117752185Y-111670055D01*
X117758401Y-111663354D01*
X117762398Y-111653337D01*
X117762666Y-111652664D01*
X117772980Y-111633348D01*
X117774321Y-111631393D01*
X117774322Y-111631390D01*
X117779492Y-111623854D01*
X117785641Y-111597941D01*
X117790014Y-111584116D01*
X117797294Y-111565868D01*
X117797294Y-111565866D01*
X117799883Y-111559378D01*
X117800500Y-111553085D01*
X117800500Y-111546916D01*
X117803175Y-111524057D01*
X117803230Y-111523827D01*
X117803230Y-111523825D01*
X117805340Y-111514934D01*
X117801404Y-111486012D01*
X117800500Y-111472663D01*
X117800500Y-111073058D01*
X117819407Y-111014867D01*
X117868907Y-110978903D01*
X117930093Y-110978903D01*
X117969504Y-111003054D01*
X118122254Y-111155804D01*
X118126329Y-111158518D01*
X118126330Y-111158519D01*
X118156677Y-111178731D01*
X118172099Y-111189003D01*
X118230162Y-111200500D01*
X118700500Y-111200500D01*
X118758691Y-111219407D01*
X118794655Y-111268907D01*
X118799500Y-111299500D01*
X118799500Y-111465983D01*
X118796982Y-111488169D01*
X118794344Y-111499641D01*
X118795705Y-111505658D01*
X118796795Y-111515332D01*
X118796795Y-111515333D01*
X118805306Y-111590867D01*
X118812742Y-111656862D01*
X118831037Y-111709145D01*
X118857221Y-111783977D01*
X118858593Y-111845147D01*
X118823749Y-111895441D01*
X118810791Y-111903798D01*
X118782206Y-111919222D01*
X118702999Y-112004907D01*
X118655818Y-112111629D01*
X118655112Y-112119777D01*
X118655112Y-112119778D01*
X118647346Y-112209443D01*
X118645749Y-112227880D01*
X118647722Y-112235822D01*
X118647722Y-112235823D01*
X118670289Y-112326667D01*
X118673880Y-112341125D01*
X118678317Y-112347996D01*
X118678317Y-112347997D01*
X118731326Y-112430093D01*
X118737175Y-112439152D01*
X118737684Y-112439553D01*
X118761216Y-112491665D01*
X118748811Y-112551580D01*
X118735512Y-112569735D01*
X118702999Y-112604907D01*
X118655818Y-112711629D01*
X118655112Y-112719777D01*
X118655112Y-112719778D01*
X118649653Y-112782808D01*
X118645749Y-112827880D01*
X118647722Y-112835822D01*
X118647722Y-112835823D01*
X118652183Y-112853779D01*
X118673880Y-112941125D01*
X118678317Y-112947996D01*
X118678317Y-112947997D01*
X118708727Y-112995093D01*
X118737175Y-113039152D01*
X118737684Y-113039553D01*
X118761216Y-113091665D01*
X118748811Y-113151580D01*
X118735512Y-113169735D01*
X118702999Y-113204907D01*
X118655818Y-113311629D01*
X118655112Y-113319777D01*
X118655112Y-113319778D01*
X118646455Y-113419727D01*
X118645749Y-113427880D01*
X118673880Y-113541125D01*
X118678317Y-113547996D01*
X118678317Y-113547997D01*
X118708727Y-113595093D01*
X118737175Y-113639152D01*
X118737684Y-113639553D01*
X118761216Y-113691665D01*
X118748811Y-113751580D01*
X118735512Y-113769735D01*
X118702999Y-113804907D01*
X118655818Y-113911629D01*
X118655112Y-113919777D01*
X118655112Y-113919778D01*
X118646455Y-114019727D01*
X118645749Y-114027880D01*
X118673880Y-114141125D01*
X118678317Y-114147996D01*
X118678317Y-114147997D01*
X118731226Y-114229938D01*
X118737175Y-114239152D01*
X118828811Y-114311392D01*
X118836529Y-114314102D01*
X118836530Y-114314103D01*
X118933803Y-114348263D01*
X118982442Y-114385384D01*
X119000000Y-114441671D01*
X119000000Y-114443336D01*
X118981093Y-114501527D01*
X118971004Y-114513340D01*
X118948862Y-114535482D01*
X118945904Y-114540190D01*
X118945903Y-114540191D01*
X118875662Y-114651979D01*
X118864878Y-114669141D01*
X118848828Y-114715011D01*
X118842464Y-114733197D01*
X118805398Y-114781878D01*
X118749019Y-114799500D01*
X109134947Y-114799500D01*
X109076756Y-114780593D01*
X109040792Y-114731093D01*
X109040792Y-114669907D01*
X109056140Y-114640580D01*
X109073506Y-114617743D01*
X109082299Y-114607672D01*
X109461994Y-114227977D01*
X109516511Y-114200200D01*
X109580295Y-114211561D01*
X109617398Y-114232297D01*
X109621996Y-114233791D01*
X109808724Y-114294463D01*
X109808726Y-114294464D01*
X109813329Y-114295959D01*
X110017894Y-114320351D01*
X110022716Y-114319980D01*
X110022719Y-114319980D01*
X110090541Y-114314761D01*
X110223300Y-114304546D01*
X110421725Y-114249145D01*
X110426038Y-114246966D01*
X110426044Y-114246964D01*
X110601289Y-114158441D01*
X110601291Y-114158440D01*
X110605610Y-114156258D01*
X110616184Y-114147997D01*
X110764135Y-114032406D01*
X110764139Y-114032402D01*
X110767951Y-114029424D01*
X110773489Y-114023009D01*
X110827313Y-113960651D01*
X110902564Y-113873472D01*
X110904957Y-113869260D01*
X111001934Y-113698550D01*
X111001935Y-113698547D01*
X111004323Y-113694344D01*
X111017882Y-113653586D01*
X111067824Y-113503454D01*
X111067824Y-113503452D01*
X111069351Y-113498863D01*
X111070677Y-113488371D01*
X111094823Y-113297228D01*
X111095171Y-113294474D01*
X111095583Y-113265000D01*
X111095313Y-113262244D01*
X111075952Y-113064780D01*
X111075951Y-113064776D01*
X111075480Y-113059970D01*
X111068214Y-113035902D01*
X111017333Y-112867380D01*
X111015935Y-112862749D01*
X110919218Y-112680849D01*
X110789011Y-112521200D01*
X110772786Y-112507777D01*
X110734109Y-112475781D01*
X110701324Y-112424120D01*
X110705166Y-112363056D01*
X110744167Y-112315911D01*
X110797214Y-112300500D01*
X111821900Y-112300500D01*
X111880091Y-112319407D01*
X111916055Y-112368907D01*
X111916055Y-112430093D01*
X111883933Y-112476655D01*
X111845225Y-112507777D01*
X111845223Y-112507779D01*
X111841447Y-112510815D01*
X111838333Y-112514526D01*
X111838332Y-112514527D01*
X111829585Y-112524952D01*
X111709024Y-112668630D01*
X111706689Y-112672878D01*
X111706688Y-112672879D01*
X111699955Y-112685126D01*
X111609776Y-112849162D01*
X111547484Y-113045532D01*
X111546944Y-113050344D01*
X111546944Y-113050345D01*
X111543531Y-113080778D01*
X111524520Y-113250262D01*
X111525526Y-113262244D01*
X111538751Y-113419727D01*
X111541759Y-113455553D01*
X111598544Y-113653586D01*
X111692712Y-113836818D01*
X111820677Y-113998270D01*
X111824357Y-114001402D01*
X111824359Y-114001404D01*
X111876294Y-114045604D01*
X111977564Y-114131791D01*
X111981787Y-114134151D01*
X111981791Y-114134154D01*
X112021342Y-114156258D01*
X112157398Y-114232297D01*
X112161996Y-114233791D01*
X112348724Y-114294463D01*
X112348726Y-114294464D01*
X112353329Y-114295959D01*
X112557894Y-114320351D01*
X112562716Y-114319980D01*
X112562719Y-114319980D01*
X112630541Y-114314761D01*
X112763300Y-114304546D01*
X112961725Y-114249145D01*
X112966038Y-114246966D01*
X112966044Y-114246964D01*
X113141289Y-114158441D01*
X113141291Y-114158440D01*
X113145610Y-114156258D01*
X113156184Y-114147997D01*
X113304135Y-114032406D01*
X113304139Y-114032402D01*
X113307951Y-114029424D01*
X113313489Y-114023009D01*
X113367313Y-113960651D01*
X113442564Y-113873472D01*
X113444957Y-113869260D01*
X113541934Y-113698550D01*
X113541935Y-113698547D01*
X113544323Y-113694344D01*
X113557882Y-113653586D01*
X113607824Y-113503454D01*
X113607824Y-113503452D01*
X113609351Y-113498863D01*
X113610677Y-113488371D01*
X113634823Y-113297228D01*
X113635171Y-113294474D01*
X113635583Y-113265000D01*
X113635313Y-113262244D01*
X113615952Y-113064780D01*
X113615951Y-113064776D01*
X113615480Y-113059970D01*
X113608214Y-113035902D01*
X113557333Y-112867380D01*
X113555935Y-112862749D01*
X113459218Y-112680849D01*
X113329011Y-112521200D01*
X113312786Y-112507777D01*
X113274109Y-112475781D01*
X113241324Y-112424120D01*
X113245166Y-112363056D01*
X113284167Y-112315911D01*
X113337214Y-112300500D01*
X113546492Y-112300500D01*
X113550617Y-112300803D01*
X113555342Y-112302425D01*
X113604761Y-112300570D01*
X113608474Y-112300500D01*
X113627948Y-112300500D01*
X113632378Y-112299675D01*
X113637571Y-112299339D01*
X113653602Y-112298737D01*
X113658075Y-112298569D01*
X113667208Y-112298226D01*
X113675602Y-112294620D01*
X113675605Y-112294619D01*
X113677783Y-112293683D01*
X113698734Y-112287317D01*
X113710053Y-112285209D01*
X113732729Y-112271232D01*
X113745596Y-112264548D01*
X113763642Y-112256795D01*
X113763643Y-112256794D01*
X113770063Y-112254036D01*
X113774949Y-112250022D01*
X113779313Y-112245658D01*
X113797368Y-112231387D01*
X113805348Y-112226468D01*
X113823018Y-112203231D01*
X113831810Y-112193161D01*
X114145140Y-111879831D01*
X114148269Y-111877131D01*
X114152758Y-111874936D01*
X114186382Y-111838689D01*
X114188958Y-111836013D01*
X114202737Y-111822234D01*
X114205282Y-111818524D01*
X114208718Y-111814611D01*
X114222676Y-111799564D01*
X114228890Y-111792865D01*
X114232277Y-111784377D01*
X114233156Y-111782174D01*
X114243467Y-111762863D01*
X114244811Y-111760904D01*
X114244812Y-111760901D01*
X114249982Y-111753365D01*
X114256133Y-111727445D01*
X114260503Y-111713626D01*
X114270372Y-111688889D01*
X114270989Y-111682596D01*
X114270989Y-111676426D01*
X114273664Y-111653567D01*
X114273719Y-111653337D01*
X114275829Y-111644445D01*
X114274597Y-111635391D01*
X114274597Y-111635387D01*
X114271893Y-111615521D01*
X114270989Y-111602172D01*
X114270989Y-111596195D01*
X114289896Y-111538004D01*
X114339396Y-111502040D01*
X114400582Y-111502040D01*
X114434153Y-111520803D01*
X114513876Y-111588653D01*
X114513881Y-111588656D01*
X114517564Y-111591791D01*
X114521787Y-111594151D01*
X114521791Y-111594154D01*
X114611777Y-111644445D01*
X114697398Y-111692297D01*
X114701996Y-111693791D01*
X114888724Y-111754463D01*
X114888726Y-111754464D01*
X114893329Y-111755959D01*
X115097894Y-111780351D01*
X115102716Y-111779980D01*
X115102719Y-111779980D01*
X115170541Y-111774761D01*
X115303300Y-111764546D01*
X115501725Y-111709145D01*
X115506038Y-111706966D01*
X115506044Y-111706964D01*
X115681289Y-111618441D01*
X115681291Y-111618440D01*
X115685610Y-111616258D01*
X115695052Y-111608881D01*
X115844135Y-111492406D01*
X115844139Y-111492402D01*
X115847951Y-111489424D01*
X115856630Y-111479370D01*
X115931430Y-111392712D01*
X115982564Y-111333472D01*
X116001863Y-111299500D01*
X116081934Y-111158550D01*
X116081935Y-111158547D01*
X116084323Y-111154344D01*
X116086268Y-111148499D01*
X116147824Y-110963454D01*
X116147824Y-110963452D01*
X116149351Y-110958863D01*
X116159599Y-110877745D01*
X116174823Y-110757228D01*
X116175171Y-110754474D01*
X116175583Y-110725000D01*
X116155480Y-110519970D01*
X116118847Y-110398636D01*
X116120129Y-110337464D01*
X116157121Y-110288728D01*
X116215695Y-110271044D01*
X116273477Y-110291165D01*
X116283626Y-110300018D01*
X116311658Y-110328050D01*
X116318595Y-110331585D01*
X116318597Y-110331586D01*
X116417756Y-110382110D01*
X116424696Y-110385646D01*
X116432390Y-110386865D01*
X116432391Y-110386865D01*
X116542303Y-110404273D01*
X116550000Y-110405492D01*
X116557697Y-110404273D01*
X116667609Y-110386865D01*
X116667610Y-110386865D01*
X116675304Y-110385646D01*
X116682244Y-110382110D01*
X116781403Y-110331586D01*
X116781405Y-110331585D01*
X116788342Y-110328050D01*
X116878050Y-110238342D01*
X116889586Y-110215703D01*
X116932110Y-110132244D01*
X116932110Y-110132243D01*
X116935646Y-110125304D01*
X116938255Y-110108835D01*
X116954273Y-110007697D01*
X116955492Y-110000000D01*
X116942878Y-109920359D01*
X116936865Y-109882391D01*
X116936865Y-109882390D01*
X116935646Y-109874696D01*
X116925610Y-109855000D01*
X116881586Y-109768597D01*
X116881585Y-109768595D01*
X116878050Y-109761658D01*
X116788342Y-109671950D01*
X116781405Y-109668415D01*
X116781403Y-109668414D01*
X116763018Y-109659047D01*
X116755474Y-109655203D01*
X116712209Y-109611938D01*
X116702638Y-109551506D01*
X116730415Y-109496990D01*
X116766578Y-109474095D01*
X116768177Y-109473649D01*
X116771402Y-109472230D01*
X116896041Y-109417387D01*
X116896043Y-109417386D01*
X116899270Y-109415966D01*
X116948476Y-109385338D01*
X116960266Y-109375428D01*
X116995320Y-109345962D01*
X117036799Y-109311096D01*
X117093508Y-109288126D01*
X117152889Y-109302877D01*
G37*
%TD.AperFunction*%
%TA.AperFunction,Conductor*%
G36*
X109340091Y-112319407D02*
G01*
X109376055Y-112368907D01*
X109376055Y-112430093D01*
X109343933Y-112476655D01*
X109305225Y-112507777D01*
X109305223Y-112507779D01*
X109301447Y-112510815D01*
X109298333Y-112514526D01*
X109298332Y-112514527D01*
X109289585Y-112524952D01*
X109169024Y-112668630D01*
X109166689Y-112672878D01*
X109166688Y-112672879D01*
X109159955Y-112685126D01*
X109069776Y-112849162D01*
X109007484Y-113045532D01*
X109006944Y-113050344D01*
X109006944Y-113050345D01*
X109003531Y-113080778D01*
X108984520Y-113250262D01*
X108985526Y-113262244D01*
X108998751Y-113419727D01*
X109001759Y-113455553D01*
X109058544Y-113653586D01*
X109060756Y-113657891D01*
X109060758Y-113657895D01*
X109068962Y-113673858D01*
X109078745Y-113734256D01*
X109050914Y-113789115D01*
X108755014Y-114085015D01*
X108700497Y-114112792D01*
X108685010Y-114114011D01*
X108371172Y-114114011D01*
X108312981Y-114095104D01*
X108277017Y-114045604D01*
X108277017Y-113984418D01*
X108296229Y-113950323D01*
X108338743Y-113901069D01*
X108362564Y-113873472D01*
X108364957Y-113869260D01*
X108461934Y-113698550D01*
X108461935Y-113698547D01*
X108464323Y-113694344D01*
X108477882Y-113653586D01*
X108527824Y-113503454D01*
X108527824Y-113503452D01*
X108529351Y-113498863D01*
X108530677Y-113488371D01*
X108554823Y-113297228D01*
X108555171Y-113294474D01*
X108555583Y-113265000D01*
X108555313Y-113262244D01*
X108535952Y-113064780D01*
X108535951Y-113064776D01*
X108535480Y-113059970D01*
X108528214Y-113035902D01*
X108477333Y-112867380D01*
X108475935Y-112862749D01*
X108444818Y-112804225D01*
X108434194Y-112743971D01*
X108462226Y-112687745D01*
X108820475Y-112329496D01*
X108874992Y-112301719D01*
X108890479Y-112300500D01*
X109281900Y-112300500D01*
X109340091Y-112319407D01*
G37*
%TD.AperFunction*%
%TA.AperFunction,Conductor*%
G36*
X109081989Y-108819407D02*
G01*
X109093802Y-108829496D01*
X109710504Y-109446198D01*
X109738281Y-109500715D01*
X109739500Y-109516202D01*
X109739500Y-109644280D01*
X109720593Y-109702471D01*
X109668451Y-109739252D01*
X109644572Y-109746280D01*
X109640288Y-109748519D01*
X109640287Y-109748520D01*
X109629428Y-109754197D01*
X109462002Y-109841726D01*
X109458233Y-109844756D01*
X109458232Y-109844757D01*
X109305220Y-109967781D01*
X109305217Y-109967783D01*
X109301447Y-109970815D01*
X109298333Y-109974526D01*
X109298332Y-109974527D01*
X109178272Y-110117609D01*
X109169024Y-110128630D01*
X109166689Y-110132878D01*
X109166688Y-110132879D01*
X109160061Y-110144934D01*
X109069776Y-110309162D01*
X109068313Y-110313775D01*
X109068311Y-110313779D01*
X109045514Y-110385646D01*
X109007484Y-110505532D01*
X109006944Y-110510344D01*
X109006944Y-110510345D01*
X109005865Y-110519970D01*
X108984520Y-110710262D01*
X109001759Y-110915553D01*
X109058544Y-111113586D01*
X109152712Y-111296818D01*
X109280677Y-111458270D01*
X109359214Y-111525110D01*
X109391272Y-111577221D01*
X109386578Y-111638226D01*
X109346923Y-111684821D01*
X109295048Y-111699500D01*
X108778508Y-111699500D01*
X108774383Y-111699197D01*
X108769658Y-111697575D01*
X108720239Y-111699430D01*
X108716526Y-111699500D01*
X108697052Y-111699500D01*
X108692622Y-111700325D01*
X108687429Y-111700661D01*
X108671398Y-111701263D01*
X108666925Y-111701431D01*
X108657792Y-111701774D01*
X108649398Y-111705380D01*
X108649395Y-111705381D01*
X108647217Y-111706317D01*
X108626266Y-111712683D01*
X108614947Y-111714791D01*
X108607164Y-111719588D01*
X108607165Y-111719588D01*
X108592272Y-111728768D01*
X108579404Y-111735452D01*
X108561358Y-111743205D01*
X108561357Y-111743206D01*
X108554937Y-111745964D01*
X108550051Y-111749978D01*
X108545687Y-111754342D01*
X108527632Y-111768613D01*
X108519652Y-111773532D01*
X108501982Y-111796769D01*
X108493190Y-111806839D01*
X108025490Y-112274539D01*
X107970973Y-112302316D01*
X107917125Y-112295801D01*
X107913308Y-112294197D01*
X107909055Y-112291897D01*
X107904435Y-112290467D01*
X107904433Y-112290466D01*
X107716875Y-112232407D01*
X107716871Y-112232406D01*
X107712254Y-112230977D01*
X107707446Y-112230472D01*
X107707443Y-112230471D01*
X107512185Y-112209949D01*
X107512183Y-112209949D01*
X107507369Y-112209443D01*
X107447354Y-112214905D01*
X107307022Y-112227675D01*
X107307017Y-112227676D01*
X107302203Y-112228114D01*
X107104572Y-112286280D01*
X107100288Y-112288519D01*
X107100287Y-112288520D01*
X107041206Y-112319407D01*
X106922002Y-112381726D01*
X106918231Y-112384758D01*
X106765220Y-112507781D01*
X106765217Y-112507783D01*
X106761447Y-112510815D01*
X106758333Y-112514526D01*
X106758332Y-112514527D01*
X106749585Y-112524952D01*
X106629024Y-112668630D01*
X106566254Y-112782809D01*
X106521652Y-112824693D01*
X106460950Y-112832361D01*
X106407332Y-112802885D01*
X106381281Y-112747523D01*
X106380500Y-112735115D01*
X106380500Y-110031359D01*
X106399407Y-109973168D01*
X106409496Y-109961355D01*
X106898777Y-109472074D01*
X106953294Y-109444297D01*
X106968781Y-109443078D01*
X107236223Y-109443078D01*
X107294412Y-109461984D01*
X107298730Y-109465121D01*
X107304237Y-109470628D01*
X107311178Y-109474164D01*
X107311177Y-109474164D01*
X107393681Y-109516202D01*
X107417275Y-109528224D01*
X107424969Y-109529443D01*
X107424970Y-109529443D01*
X107534882Y-109546851D01*
X107542579Y-109548070D01*
X107550276Y-109546851D01*
X107660188Y-109529443D01*
X107660189Y-109529443D01*
X107667883Y-109528224D01*
X107684644Y-109519684D01*
X107773982Y-109474164D01*
X107773984Y-109474163D01*
X107780921Y-109470628D01*
X107870629Y-109380920D01*
X107889392Y-109344097D01*
X107924689Y-109274822D01*
X107924689Y-109274821D01*
X107928225Y-109267882D01*
X107930744Y-109251982D01*
X107946852Y-109150275D01*
X107948071Y-109142578D01*
X107928225Y-109017274D01*
X107893650Y-108949417D01*
X107891117Y-108944445D01*
X107881546Y-108884013D01*
X107909324Y-108829496D01*
X107963840Y-108801719D01*
X107979327Y-108800500D01*
X109023798Y-108800500D01*
X109081989Y-108819407D01*
G37*
%TD.AperFunction*%
%TA.AperFunction,Conductor*%
G36*
X115875379Y-99986117D02*
G01*
X115931098Y-99986120D01*
X115980596Y-100022087D01*
X115999500Y-100080273D01*
X115999500Y-100119748D01*
X116004363Y-100144195D01*
X116007998Y-100162468D01*
X116011133Y-100178231D01*
X116016548Y-100186334D01*
X116016871Y-100187115D01*
X116021671Y-100248112D01*
X116016871Y-100262885D01*
X116016548Y-100263666D01*
X116011133Y-100271769D01*
X115995572Y-100350000D01*
X115995572Y-100768451D01*
X115976665Y-100826642D01*
X115927165Y-100862606D01*
X115875581Y-100862607D01*
X115875304Y-100864354D01*
X115757697Y-100845727D01*
X115750000Y-100844508D01*
X115742303Y-100845727D01*
X115632391Y-100863135D01*
X115632390Y-100863135D01*
X115624696Y-100864354D01*
X115617757Y-100867890D01*
X115617756Y-100867890D01*
X115518597Y-100918414D01*
X115518595Y-100918415D01*
X115511658Y-100921950D01*
X115421950Y-101011658D01*
X115418415Y-101018595D01*
X115418414Y-101018597D01*
X115377347Y-101099195D01*
X115364354Y-101124696D01*
X115363135Y-101132390D01*
X115363135Y-101132391D01*
X115355265Y-101182082D01*
X115344508Y-101250000D01*
X115364354Y-101375304D01*
X115367890Y-101382243D01*
X115367890Y-101382244D01*
X115412779Y-101470342D01*
X115421950Y-101488342D01*
X115511658Y-101578050D01*
X115518595Y-101581585D01*
X115518597Y-101581586D01*
X115613028Y-101629701D01*
X115624696Y-101635646D01*
X115632390Y-101636865D01*
X115632391Y-101636865D01*
X115742303Y-101654273D01*
X115750000Y-101655492D01*
X115757697Y-101654273D01*
X115867609Y-101636865D01*
X115867610Y-101636865D01*
X115875304Y-101635646D01*
X115882244Y-101632110D01*
X115889658Y-101629701D01*
X115890196Y-101631358D01*
X115941229Y-101623275D01*
X115995746Y-101651051D01*
X116023525Y-101705567D01*
X116015442Y-101756604D01*
X116017099Y-101757142D01*
X116014690Y-101764556D01*
X116011154Y-101771496D01*
X116009935Y-101779190D01*
X116009935Y-101779191D01*
X116004264Y-101815000D01*
X115991308Y-101896800D01*
X116011154Y-102022104D01*
X116014690Y-102029043D01*
X116014690Y-102029044D01*
X116038784Y-102076330D01*
X116068750Y-102135142D01*
X116158458Y-102224850D01*
X116165395Y-102228385D01*
X116165397Y-102228386D01*
X116264556Y-102278910D01*
X116271496Y-102282446D01*
X116279190Y-102283665D01*
X116279191Y-102283665D01*
X116389103Y-102301073D01*
X116396800Y-102302292D01*
X116404497Y-102301073D01*
X116514409Y-102283665D01*
X116514410Y-102283665D01*
X116522104Y-102282446D01*
X116529044Y-102278910D01*
X116628203Y-102228386D01*
X116628205Y-102228385D01*
X116635142Y-102224850D01*
X116724850Y-102135142D01*
X116754817Y-102076330D01*
X116778910Y-102029044D01*
X116778910Y-102029043D01*
X116782446Y-102022104D01*
X116802292Y-101896800D01*
X116789336Y-101815000D01*
X116783665Y-101779191D01*
X116783665Y-101779190D01*
X116782446Y-101771496D01*
X116778910Y-101764557D01*
X116778909Y-101764553D01*
X116770665Y-101748374D01*
X116761093Y-101687942D01*
X116788870Y-101633425D01*
X116843386Y-101605647D01*
X116858874Y-101604428D01*
X117132645Y-101604428D01*
X117149070Y-101605800D01*
X117151867Y-101606271D01*
X117151878Y-101606272D01*
X117153742Y-101606586D01*
X117155637Y-101606756D01*
X117183247Y-101609233D01*
X117183256Y-101609233D01*
X117185157Y-101609404D01*
X117193362Y-101609504D01*
X117195608Y-101609532D01*
X117195612Y-101609532D01*
X117197499Y-101609555D01*
X117228981Y-101607505D01*
X117370758Y-101587201D01*
X117402052Y-101578050D01*
X117423016Y-101571920D01*
X117423021Y-101571918D01*
X117426390Y-101570933D01*
X117556769Y-101511653D01*
X117581095Y-101496096D01*
X117634431Y-101480500D01*
X117739623Y-101480500D01*
X117797814Y-101499407D01*
X117821889Y-101524425D01*
X117844195Y-101557745D01*
X118031446Y-101744996D01*
X118059223Y-101799513D01*
X118049652Y-101859945D01*
X118031446Y-101885004D01*
X117844196Y-102072254D01*
X117810997Y-102122099D01*
X117799500Y-102180162D01*
X117799499Y-102719841D01*
X117800462Y-102724644D01*
X117800462Y-102724647D01*
X117809355Y-102769015D01*
X117809356Y-102769018D01*
X117811269Y-102778561D01*
X117844195Y-102827745D01*
X118031446Y-103014996D01*
X118059223Y-103069513D01*
X118049652Y-103129945D01*
X118031446Y-103155004D01*
X117844196Y-103342254D01*
X117810997Y-103392099D01*
X117799500Y-103450162D01*
X117799499Y-103989841D01*
X117800462Y-103994644D01*
X117800462Y-103994647D01*
X117809355Y-104039015D01*
X117809356Y-104039018D01*
X117811269Y-104048561D01*
X117844195Y-104097745D01*
X118031446Y-104284996D01*
X118059223Y-104339513D01*
X118049652Y-104399945D01*
X118031446Y-104425004D01*
X117844196Y-104612254D01*
X117810997Y-104662099D01*
X117799500Y-104720162D01*
X117799500Y-104739449D01*
X117780593Y-104797640D01*
X117731093Y-104833604D01*
X117669907Y-104833604D01*
X117655555Y-104827659D01*
X117627945Y-104813591D01*
X117627944Y-104813591D01*
X117621005Y-104810055D01*
X117613311Y-104808836D01*
X117613310Y-104808836D01*
X117503398Y-104791428D01*
X117495701Y-104790209D01*
X117488004Y-104791428D01*
X117378092Y-104808836D01*
X117378091Y-104808836D01*
X117370397Y-104810055D01*
X117363458Y-104813591D01*
X117363457Y-104813591D01*
X117264298Y-104864115D01*
X117264296Y-104864116D01*
X117257359Y-104867651D01*
X117167651Y-104957359D01*
X117164116Y-104964296D01*
X117164115Y-104964298D01*
X117137831Y-105015884D01*
X117110055Y-105070397D01*
X117108837Y-105078090D01*
X117108836Y-105078092D01*
X117098907Y-105140784D01*
X117071130Y-105195301D01*
X116783654Y-105482777D01*
X116729137Y-105510554D01*
X116697226Y-105510401D01*
X116664083Y-105504825D01*
X116598133Y-105493729D01*
X116598122Y-105493728D01*
X116596258Y-105493414D01*
X116594363Y-105493244D01*
X116566753Y-105490767D01*
X116566744Y-105490767D01*
X116564843Y-105490596D01*
X116556638Y-105490496D01*
X116554392Y-105490468D01*
X116554388Y-105490468D01*
X116552501Y-105490445D01*
X116521019Y-105492495D01*
X116506516Y-105494572D01*
X116492481Y-105495572D01*
X116117355Y-105495572D01*
X116100930Y-105494200D01*
X116098133Y-105493729D01*
X116098122Y-105493728D01*
X116096258Y-105493414D01*
X116094363Y-105493244D01*
X116066753Y-105490767D01*
X116066744Y-105490767D01*
X116064843Y-105490596D01*
X116056638Y-105490496D01*
X116054392Y-105490468D01*
X116054388Y-105490468D01*
X116052501Y-105490445D01*
X116021019Y-105492495D01*
X115879242Y-105512799D01*
X115854545Y-105520021D01*
X115826984Y-105528080D01*
X115826979Y-105528082D01*
X115823610Y-105529067D01*
X115764194Y-105556082D01*
X115740476Y-105566866D01*
X115679678Y-105573739D01*
X115626451Y-105543564D01*
X115601127Y-105487866D01*
X115600500Y-105476744D01*
X115600500Y-105430485D01*
X115619407Y-105372294D01*
X115629496Y-105360481D01*
X117377529Y-103612449D01*
X117402588Y-103594244D01*
X117443333Y-103573483D01*
X117443337Y-103573480D01*
X117450277Y-103569944D01*
X117539985Y-103480236D01*
X117552843Y-103455002D01*
X117594045Y-103374138D01*
X117594045Y-103374137D01*
X117597581Y-103367198D01*
X117603171Y-103331907D01*
X117616208Y-103249591D01*
X117617427Y-103241894D01*
X117597581Y-103116590D01*
X117591923Y-103105486D01*
X117543521Y-103010491D01*
X117543520Y-103010489D01*
X117539985Y-103003552D01*
X117450277Y-102913844D01*
X117443340Y-102910309D01*
X117443338Y-102910308D01*
X117344179Y-102859784D01*
X117344178Y-102859784D01*
X117337239Y-102856248D01*
X117329545Y-102855029D01*
X117329544Y-102855029D01*
X117219632Y-102837621D01*
X117211935Y-102836402D01*
X117204238Y-102837621D01*
X117094326Y-102855029D01*
X117094325Y-102855029D01*
X117086631Y-102856248D01*
X117079692Y-102859784D01*
X117079691Y-102859784D01*
X116980532Y-102910308D01*
X116980530Y-102910309D01*
X116973593Y-102913844D01*
X116968087Y-102919350D01*
X116968083Y-102919353D01*
X116921919Y-102965518D01*
X116867403Y-102993296D01*
X116806971Y-102983725D01*
X116781911Y-102965519D01*
X116702639Y-102886247D01*
X116695702Y-102882712D01*
X116695700Y-102882711D01*
X116596541Y-102832187D01*
X116596540Y-102832187D01*
X116589601Y-102828651D01*
X116581907Y-102827432D01*
X116581906Y-102827432D01*
X116471994Y-102810024D01*
X116464297Y-102808805D01*
X116456600Y-102810024D01*
X116346688Y-102827432D01*
X116346687Y-102827432D01*
X116338993Y-102828651D01*
X116332054Y-102832187D01*
X116332053Y-102832187D01*
X116232894Y-102882711D01*
X116232892Y-102882712D01*
X116225955Y-102886247D01*
X116136247Y-102975955D01*
X116132712Y-102982892D01*
X116132711Y-102982894D01*
X116085022Y-103076489D01*
X116078651Y-103088993D01*
X116058805Y-103214297D01*
X116078651Y-103339601D01*
X116082187Y-103346540D01*
X116098915Y-103379371D01*
X116108486Y-103439804D01*
X116080709Y-103494320D01*
X114725349Y-104849680D01*
X114722220Y-104852380D01*
X114717731Y-104854575D01*
X114711513Y-104861278D01*
X114684107Y-104890822D01*
X114681531Y-104893498D01*
X114667752Y-104907277D01*
X114665207Y-104910987D01*
X114661771Y-104914900D01*
X114641599Y-104936646D01*
X114638212Y-104945134D01*
X114638212Y-104945135D01*
X114637334Y-104947336D01*
X114627020Y-104966652D01*
X114625679Y-104968607D01*
X114625678Y-104968610D01*
X114620508Y-104976146D01*
X114618398Y-104985038D01*
X114614359Y-105002058D01*
X114609986Y-105015884D01*
X114602706Y-105034132D01*
X114600117Y-105040622D01*
X114599500Y-105046915D01*
X114599500Y-105053084D01*
X114596825Y-105075943D01*
X114594660Y-105085066D01*
X114598596Y-105113987D01*
X114599500Y-105127337D01*
X114599500Y-105496857D01*
X114588721Y-105534077D01*
X114591431Y-105535158D01*
X114587166Y-105545848D01*
X114576852Y-105565164D01*
X114575511Y-105567119D01*
X114575510Y-105567122D01*
X114570340Y-105574658D01*
X114568230Y-105583550D01*
X114564191Y-105600570D01*
X114559818Y-105614396D01*
X114557474Y-105620272D01*
X114549949Y-105639134D01*
X114549332Y-105645427D01*
X114549332Y-105651596D01*
X114546657Y-105674455D01*
X114544492Y-105683578D01*
X114548428Y-105712499D01*
X114549332Y-105725849D01*
X114549332Y-109128413D01*
X114530425Y-109186604D01*
X114520336Y-109198417D01*
X113924860Y-109793893D01*
X113921731Y-109796593D01*
X113917242Y-109798788D01*
X113911024Y-109805491D01*
X113883618Y-109835035D01*
X113881042Y-109837711D01*
X113867263Y-109851490D01*
X113864718Y-109855200D01*
X113861282Y-109859113D01*
X113841110Y-109880859D01*
X113837723Y-109889347D01*
X113837723Y-109889348D01*
X113836845Y-109891549D01*
X113826531Y-109910865D01*
X113825190Y-109912820D01*
X113825189Y-109912823D01*
X113820019Y-109920359D01*
X113817909Y-109929251D01*
X113813870Y-109946271D01*
X113809497Y-109960097D01*
X113802309Y-109978115D01*
X113799628Y-109984835D01*
X113799011Y-109991128D01*
X113799011Y-109991520D01*
X113798436Y-109993883D01*
X113774825Y-110037803D01*
X113754570Y-110059638D01*
X113752021Y-110062285D01*
X113738241Y-110076065D01*
X113735696Y-110079775D01*
X113732260Y-110083688D01*
X113712088Y-110105434D01*
X113708701Y-110113922D01*
X113708701Y-110113923D01*
X113707823Y-110116124D01*
X113697509Y-110135440D01*
X113696168Y-110137395D01*
X113696167Y-110137398D01*
X113690997Y-110144934D01*
X113688887Y-110153826D01*
X113684848Y-110170846D01*
X113680476Y-110184671D01*
X113674738Y-110199054D01*
X113635614Y-110246096D01*
X113576311Y-110261158D01*
X113519482Y-110238486D01*
X113495373Y-110208848D01*
X113459218Y-110140849D01*
X113329011Y-109981200D01*
X113286789Y-109946271D01*
X113174002Y-109852965D01*
X113174000Y-109852964D01*
X113170275Y-109849882D01*
X113044293Y-109781764D01*
X112993309Y-109754197D01*
X112993308Y-109754197D01*
X112989055Y-109751897D01*
X112925855Y-109732333D01*
X112796875Y-109692407D01*
X112796871Y-109692406D01*
X112792254Y-109690977D01*
X112787446Y-109690472D01*
X112787443Y-109690471D01*
X112592185Y-109669949D01*
X112592183Y-109669949D01*
X112587369Y-109669443D01*
X112546558Y-109673157D01*
X112387022Y-109687675D01*
X112387017Y-109687676D01*
X112382203Y-109688114D01*
X112184572Y-109746280D01*
X112180288Y-109748519D01*
X112180287Y-109748520D01*
X112169428Y-109754197D01*
X112002002Y-109841726D01*
X111998233Y-109844756D01*
X111998232Y-109844757D01*
X111845220Y-109967781D01*
X111845217Y-109967783D01*
X111841447Y-109970815D01*
X111838333Y-109974526D01*
X111838332Y-109974527D01*
X111718272Y-110117609D01*
X111709024Y-110128630D01*
X111706689Y-110132878D01*
X111706688Y-110132879D01*
X111700061Y-110144934D01*
X111609776Y-110309162D01*
X111608313Y-110313775D01*
X111608311Y-110313779D01*
X111585514Y-110385646D01*
X111547484Y-110505532D01*
X111546944Y-110510344D01*
X111546944Y-110510345D01*
X111545865Y-110519970D01*
X111524520Y-110710262D01*
X111541759Y-110915553D01*
X111598544Y-111113586D01*
X111692712Y-111296818D01*
X111820677Y-111458270D01*
X111899214Y-111525110D01*
X111931272Y-111577221D01*
X111926578Y-111638226D01*
X111886923Y-111684821D01*
X111835048Y-111699500D01*
X110786582Y-111699500D01*
X110728391Y-111680593D01*
X110692427Y-111631093D01*
X110692427Y-111569907D01*
X110725632Y-111522487D01*
X110764135Y-111492406D01*
X110764139Y-111492402D01*
X110767951Y-111489424D01*
X110776630Y-111479370D01*
X110851430Y-111392712D01*
X110902564Y-111333472D01*
X110921863Y-111299500D01*
X111001934Y-111158550D01*
X111001935Y-111158547D01*
X111004323Y-111154344D01*
X111006268Y-111148499D01*
X111067824Y-110963454D01*
X111067824Y-110963452D01*
X111069351Y-110958863D01*
X111079599Y-110877745D01*
X111094823Y-110757228D01*
X111095171Y-110754474D01*
X111095583Y-110725000D01*
X111075480Y-110519970D01*
X111015935Y-110322749D01*
X110919218Y-110140849D01*
X110789011Y-109981200D01*
X110746789Y-109946271D01*
X110634002Y-109852965D01*
X110634000Y-109852964D01*
X110630275Y-109849882D01*
X110504293Y-109781764D01*
X110453309Y-109754197D01*
X110453308Y-109754197D01*
X110449055Y-109751897D01*
X110444438Y-109750468D01*
X110444429Y-109750464D01*
X110410225Y-109739876D01*
X110360227Y-109704607D01*
X110340500Y-109645304D01*
X110340500Y-109404231D01*
X110340803Y-109400106D01*
X110342425Y-109395381D01*
X110340570Y-109345962D01*
X110340500Y-109342249D01*
X110340500Y-109322775D01*
X110339675Y-109318345D01*
X110339338Y-109313140D01*
X110339262Y-109311096D01*
X110338226Y-109283515D01*
X110334620Y-109275121D01*
X110334619Y-109275118D01*
X110333683Y-109272940D01*
X110327317Y-109251989D01*
X110325209Y-109240670D01*
X110311232Y-109217994D01*
X110304548Y-109205127D01*
X110296795Y-109187081D01*
X110296794Y-109187080D01*
X110294036Y-109180660D01*
X110290022Y-109175774D01*
X110285658Y-109171410D01*
X110271387Y-109153355D01*
X110271264Y-109153156D01*
X110266468Y-109145375D01*
X110243231Y-109127705D01*
X110233161Y-109118913D01*
X110014248Y-108900000D01*
X112994508Y-108900000D01*
X112995727Y-108907697D01*
X113001585Y-108944680D01*
X113014354Y-109025304D01*
X113017890Y-109032243D01*
X113017890Y-109032244D01*
X113068080Y-109130746D01*
X113071950Y-109138342D01*
X113161658Y-109228050D01*
X113168595Y-109231585D01*
X113168597Y-109231586D01*
X113267756Y-109282110D01*
X113274696Y-109285646D01*
X113282390Y-109286865D01*
X113282391Y-109286865D01*
X113392303Y-109304273D01*
X113400000Y-109305492D01*
X113407697Y-109304273D01*
X113517609Y-109286865D01*
X113517610Y-109286865D01*
X113525304Y-109285646D01*
X113532244Y-109282110D01*
X113631403Y-109231586D01*
X113631405Y-109231585D01*
X113638342Y-109228050D01*
X113728050Y-109138342D01*
X113731921Y-109130746D01*
X113782110Y-109032244D01*
X113782110Y-109032243D01*
X113785646Y-109025304D01*
X113798416Y-108944680D01*
X113804273Y-108907697D01*
X113805492Y-108900000D01*
X113796984Y-108846280D01*
X113786865Y-108782391D01*
X113786865Y-108782390D01*
X113785646Y-108774696D01*
X113761316Y-108726946D01*
X113731586Y-108668597D01*
X113731585Y-108668595D01*
X113728050Y-108661658D01*
X113638342Y-108571950D01*
X113631405Y-108568415D01*
X113631403Y-108568414D01*
X113532244Y-108517890D01*
X113532243Y-108517890D01*
X113525304Y-108514354D01*
X113517610Y-108513135D01*
X113517609Y-108513135D01*
X113407697Y-108495727D01*
X113400000Y-108494508D01*
X113392303Y-108495727D01*
X113282391Y-108513135D01*
X113282390Y-108513135D01*
X113274696Y-108514354D01*
X113267757Y-108517890D01*
X113267756Y-108517890D01*
X113168597Y-108568414D01*
X113168595Y-108568415D01*
X113161658Y-108571950D01*
X113071950Y-108661658D01*
X113068415Y-108668595D01*
X113068414Y-108668597D01*
X113038684Y-108726946D01*
X113014354Y-108774696D01*
X113013135Y-108782390D01*
X113013135Y-108782391D01*
X113003016Y-108846280D01*
X112994508Y-108900000D01*
X110014248Y-108900000D01*
X109439597Y-108325349D01*
X109436897Y-108322220D01*
X109434702Y-108317731D01*
X109398455Y-108284107D01*
X109395779Y-108281531D01*
X109382000Y-108267752D01*
X109378290Y-108265207D01*
X109374377Y-108261771D01*
X109359332Y-108247815D01*
X109352631Y-108241599D01*
X109341941Y-108237334D01*
X109322625Y-108227020D01*
X109320670Y-108225679D01*
X109320667Y-108225678D01*
X109313131Y-108220508D01*
X109287218Y-108214359D01*
X109273393Y-108209986D01*
X109255145Y-108202706D01*
X109255143Y-108202706D01*
X109248655Y-108200117D01*
X109242362Y-108199500D01*
X109236193Y-108199500D01*
X109213334Y-108196825D01*
X109213104Y-108196770D01*
X109213102Y-108196770D01*
X109204211Y-108194660D01*
X109175290Y-108198596D01*
X109161940Y-108199500D01*
X107565479Y-108199500D01*
X107507288Y-108180593D01*
X107495475Y-108170504D01*
X107494311Y-108169340D01*
X107466534Y-108114823D01*
X107456605Y-108052131D01*
X107456604Y-108052129D01*
X107455386Y-108044436D01*
X107397790Y-107931398D01*
X107392283Y-107925891D01*
X107389146Y-107921573D01*
X107370240Y-107863384D01*
X107370240Y-107695739D01*
X107389147Y-107637548D01*
X107399236Y-107625735D01*
X107983831Y-107041140D01*
X108038348Y-107013363D01*
X108098780Y-107022934D01*
X108142045Y-107066199D01*
X108151616Y-107126630D01*
X108137722Y-107214359D01*
X108135911Y-107225792D01*
X108137130Y-107233489D01*
X108153100Y-107334318D01*
X108155757Y-107351096D01*
X108159293Y-107358035D01*
X108159293Y-107358036D01*
X108207221Y-107452099D01*
X108213353Y-107464134D01*
X108303061Y-107553842D01*
X108309998Y-107557377D01*
X108310000Y-107557378D01*
X108354275Y-107579937D01*
X108416099Y-107611438D01*
X108423793Y-107612657D01*
X108423794Y-107612657D01*
X108533706Y-107630065D01*
X108541403Y-107631284D01*
X108549100Y-107630065D01*
X108659012Y-107612657D01*
X108659013Y-107612657D01*
X108666707Y-107611438D01*
X108728531Y-107579937D01*
X108772806Y-107557378D01*
X108772808Y-107557377D01*
X108779745Y-107553842D01*
X108869453Y-107464134D01*
X108875586Y-107452099D01*
X108923513Y-107358036D01*
X108923513Y-107358035D01*
X108927049Y-107351096D01*
X108929707Y-107334318D01*
X108945676Y-107233489D01*
X108946895Y-107225792D01*
X108936849Y-107162365D01*
X108928268Y-107108183D01*
X108928268Y-107108182D01*
X108927049Y-107100488D01*
X108884002Y-107016003D01*
X108872989Y-106994389D01*
X108872988Y-106994387D01*
X108869453Y-106987450D01*
X108779745Y-106897742D01*
X108772808Y-106894207D01*
X108772806Y-106894206D01*
X108673647Y-106843682D01*
X108673646Y-106843682D01*
X108666707Y-106840146D01*
X108659013Y-106838927D01*
X108659012Y-106838927D01*
X108549100Y-106821519D01*
X108541403Y-106820300D01*
X108533706Y-106821519D01*
X108533705Y-106821519D01*
X108442241Y-106836005D01*
X108381809Y-106826433D01*
X108338545Y-106783169D01*
X108328974Y-106722736D01*
X108356751Y-106668220D01*
X109084651Y-105940320D01*
X109087780Y-105937620D01*
X109092269Y-105935425D01*
X109125893Y-105899178D01*
X109128469Y-105896502D01*
X109142248Y-105882723D01*
X109144793Y-105879013D01*
X109148229Y-105875100D01*
X109162187Y-105860053D01*
X109168401Y-105853354D01*
X109171788Y-105844866D01*
X109172667Y-105842663D01*
X109182978Y-105823352D01*
X109184322Y-105821393D01*
X109184323Y-105821390D01*
X109189493Y-105813854D01*
X109195644Y-105787934D01*
X109200014Y-105774115D01*
X109209883Y-105749378D01*
X109210500Y-105743085D01*
X109210500Y-105736915D01*
X109213175Y-105714056D01*
X109213230Y-105713826D01*
X109215340Y-105704934D01*
X109211404Y-105676012D01*
X109210500Y-105662663D01*
X109210500Y-101345479D01*
X109229407Y-101287288D01*
X109239496Y-101275475D01*
X109305475Y-101209496D01*
X109359992Y-101181719D01*
X109375479Y-101180500D01*
X114255292Y-101180500D01*
X114259417Y-101180803D01*
X114264142Y-101182425D01*
X114313561Y-101180570D01*
X114317274Y-101180500D01*
X114336748Y-101180500D01*
X114341178Y-101179675D01*
X114346371Y-101179339D01*
X114362402Y-101178737D01*
X114366875Y-101178569D01*
X114376008Y-101178226D01*
X114384402Y-101174620D01*
X114384405Y-101174619D01*
X114386583Y-101173683D01*
X114407534Y-101167317D01*
X114418853Y-101165209D01*
X114441529Y-101151232D01*
X114454396Y-101144548D01*
X114472442Y-101136795D01*
X114472443Y-101136794D01*
X114478863Y-101134036D01*
X114483749Y-101130022D01*
X114488113Y-101125658D01*
X114506168Y-101111387D01*
X114514148Y-101106468D01*
X114531818Y-101083231D01*
X114540610Y-101073161D01*
X115424651Y-100189120D01*
X115427780Y-100186420D01*
X115432269Y-100184225D01*
X115440814Y-100175014D01*
X115465893Y-100147978D01*
X115468469Y-100145302D01*
X115482248Y-100131523D01*
X115484793Y-100127813D01*
X115488229Y-100123900D01*
X115502187Y-100108853D01*
X115508401Y-100102154D01*
X115511788Y-100093666D01*
X115512667Y-100091463D01*
X115522978Y-100072152D01*
X115524324Y-100070190D01*
X115524325Y-100070187D01*
X115529493Y-100062654D01*
X115531602Y-100053765D01*
X115535082Y-100045913D01*
X115575944Y-100000372D01*
X115641080Y-99988241D01*
X115703821Y-99998178D01*
X115750000Y-100005492D01*
X115875304Y-99985646D01*
X115875379Y-99986117D01*
G37*
%TD.AperFunction*%
%TA.AperFunction,Conductor*%
G36*
X107275583Y-97211137D02*
G01*
X107318848Y-97254402D01*
X107328419Y-97283860D01*
X107329625Y-97291476D01*
X107333542Y-97316205D01*
X107339354Y-97352904D01*
X107342890Y-97359843D01*
X107342890Y-97359844D01*
X107388987Y-97450313D01*
X107396950Y-97465942D01*
X107486658Y-97555650D01*
X107493595Y-97559185D01*
X107493597Y-97559186D01*
X107562695Y-97594393D01*
X107599696Y-97613246D01*
X107607389Y-97614464D01*
X107607391Y-97614465D01*
X107640616Y-97619727D01*
X107670084Y-97624394D01*
X107724601Y-97652172D01*
X107867521Y-97795093D01*
X108003192Y-97930764D01*
X108005892Y-97933892D01*
X108008086Y-97938380D01*
X108014788Y-97944597D01*
X108044320Y-97971992D01*
X108046996Y-97974568D01*
X108060787Y-97988359D01*
X108064498Y-97990904D01*
X108068417Y-97994345D01*
X108076426Y-98001774D01*
X108090157Y-98014512D01*
X108098645Y-98017898D01*
X108098648Y-98017900D01*
X108100849Y-98018778D01*
X108120165Y-98029092D01*
X108122120Y-98030433D01*
X108122122Y-98030434D01*
X108129657Y-98035603D01*
X108138545Y-98037712D01*
X108138547Y-98037713D01*
X108155569Y-98041752D01*
X108169395Y-98046125D01*
X108187643Y-98053405D01*
X108187645Y-98053405D01*
X108194133Y-98055994D01*
X108200426Y-98056611D01*
X108206595Y-98056611D01*
X108229454Y-98059286D01*
X108229684Y-98059341D01*
X108229686Y-98059341D01*
X108238577Y-98061451D01*
X108267499Y-98057515D01*
X108280848Y-98056611D01*
X108695058Y-98056611D01*
X108699183Y-98056914D01*
X108703908Y-98058536D01*
X108753327Y-98056681D01*
X108757040Y-98056611D01*
X108776514Y-98056611D01*
X108780944Y-98055786D01*
X108786137Y-98055450D01*
X108802168Y-98054848D01*
X108806641Y-98054680D01*
X108815774Y-98054337D01*
X108820685Y-98052227D01*
X108836205Y-98050500D01*
X109194244Y-98050500D01*
X109252435Y-98069407D01*
X109264248Y-98079496D01*
X109522885Y-98338133D01*
X109550662Y-98392650D01*
X109541091Y-98453082D01*
X109497826Y-98496347D01*
X109430456Y-98530674D01*
X109424949Y-98536181D01*
X109420631Y-98539318D01*
X109362442Y-98558224D01*
X106754778Y-98558224D01*
X106750653Y-98557921D01*
X106745928Y-98556299D01*
X106696508Y-98558154D01*
X106692795Y-98558224D01*
X106673322Y-98558224D01*
X106668892Y-98559049D01*
X106663699Y-98559385D01*
X106644568Y-98560103D01*
X106643196Y-98560155D01*
X106634061Y-98560498D01*
X106625664Y-98564106D01*
X106625663Y-98564106D01*
X106623482Y-98565043D01*
X106602533Y-98571407D01*
X106600206Y-98571840D01*
X106600201Y-98571842D01*
X106591217Y-98573515D01*
X106568542Y-98587492D01*
X106555674Y-98594176D01*
X106537628Y-98601929D01*
X106537627Y-98601930D01*
X106531207Y-98604688D01*
X106526321Y-98608702D01*
X106521957Y-98613066D01*
X106503902Y-98627337D01*
X106495922Y-98632256D01*
X106478252Y-98655493D01*
X106469460Y-98665563D01*
X105239289Y-99895734D01*
X105184774Y-99923510D01*
X105124342Y-99913939D01*
X105099283Y-99895733D01*
X104968554Y-99765004D01*
X104940777Y-99710487D01*
X104950348Y-99650055D01*
X104968554Y-99624996D01*
X105155804Y-99437746D01*
X105162375Y-99427880D01*
X105183607Y-99396003D01*
X105183607Y-99396002D01*
X105189003Y-99387901D01*
X105200500Y-99329838D01*
X105200500Y-99230485D01*
X105219407Y-99172294D01*
X105229496Y-99160481D01*
X107160634Y-97229343D01*
X107215151Y-97201566D01*
X107275583Y-97211137D01*
G37*
%TD.AperFunction*%
%TA.AperFunction,Conductor*%
G36*
X108992232Y-97018927D02*
G01*
X109004045Y-97029016D01*
X109248710Y-97273681D01*
X109251411Y-97276811D01*
X109253605Y-97281299D01*
X109260304Y-97287514D01*
X109263247Y-97291476D01*
X109282762Y-97349466D01*
X109264463Y-97407851D01*
X109215342Y-97444330D01*
X109183767Y-97449500D01*
X108808185Y-97449500D01*
X108804060Y-97449197D01*
X108799335Y-97447575D01*
X108749915Y-97449430D01*
X108746202Y-97449500D01*
X108726729Y-97449500D01*
X108722299Y-97450325D01*
X108717106Y-97450661D01*
X108701412Y-97451250D01*
X108696601Y-97451431D01*
X108696600Y-97451431D01*
X108687468Y-97451774D01*
X108682557Y-97453884D01*
X108667037Y-97455611D01*
X108418990Y-97455611D01*
X108360799Y-97436704D01*
X108348986Y-97426615D01*
X108149571Y-97227200D01*
X108121794Y-97172683D01*
X108112580Y-97114507D01*
X108122151Y-97054075D01*
X108165416Y-97010810D01*
X108210361Y-97000020D01*
X108934041Y-97000020D01*
X108992232Y-97018927D01*
G37*
%TD.AperFunction*%
%TD*%
M02*
