%TF.GenerationSoftware,KiCad,Pcbnew,(6.0.7)*%
%TF.CreationDate,2023-02-02T23:10:42+01:00*%
%TF.ProjectId,ESP31-01_V4,45535033-312d-4303-915f-56342e6b6963,rev?*%
%TF.SameCoordinates,Original*%
%TF.FileFunction,Copper,L3,Inr*%
%TF.FilePolarity,Positive*%
%FSLAX46Y46*%
G04 Gerber Fmt 4.6, Leading zero omitted, Abs format (unit mm)*
G04 Created by KiCad (PCBNEW (6.0.7)) date 2023-02-02 23:10:42*
%MOMM*%
%LPD*%
G01*
G04 APERTURE LIST*
G04 Aperture macros list*
%AMOutline5P*
0 Free polygon, 5 corners , with rotation*
0 The origin of the aperture is its center*
0 number of corners: always 5*
0 $1 to $10 corner X, Y*
0 $11 Rotation angle, in degrees counterclockwise*
0 create outline with 5 corners*
4,1,5,$1,$2,$3,$4,$5,$6,$7,$8,$9,$10,$1,$2,$11*%
%AMOutline6P*
0 Free polygon, 6 corners , with rotation*
0 The origin of the aperture is its center*
0 number of corners: always 6*
0 $1 to $12 corner X, Y*
0 $13 Rotation angle, in degrees counterclockwise*
0 create outline with 6 corners*
4,1,6,$1,$2,$3,$4,$5,$6,$7,$8,$9,$10,$11,$12,$1,$2,$13*%
%AMOutline7P*
0 Free polygon, 7 corners , with rotation*
0 The origin of the aperture is its center*
0 number of corners: always 7*
0 $1 to $14 corner X, Y*
0 $15 Rotation angle, in degrees counterclockwise*
0 create outline with 7 corners*
4,1,7,$1,$2,$3,$4,$5,$6,$7,$8,$9,$10,$11,$12,$13,$14,$1,$2,$15*%
%AMOutline8P*
0 Free polygon, 8 corners , with rotation*
0 The origin of the aperture is its center*
0 number of corners: always 8*
0 $1 to $16 corner X, Y*
0 $17 Rotation angle, in degrees counterclockwise*
0 create outline with 8 corners*
4,1,8,$1,$2,$3,$4,$5,$6,$7,$8,$9,$10,$11,$12,$13,$14,$15,$16,$1,$2,$17*%
G04 Aperture macros list end*
%TA.AperFunction,ComponentPad*%
%ADD10Outline6P,-0.500000X0.500000X0.250000X0.500000X0.500000X0.250000X0.500000X-0.250000X0.250000X-0.500000X-0.500000X-0.500000X180.000000*%
%TD*%
%TA.AperFunction,ComponentPad*%
%ADD11Outline6P,-0.500000X0.500000X0.250000X0.500000X0.500000X0.250000X0.500000X-0.250000X0.250000X-0.500000X-0.500000X-0.500000X0.000000*%
%TD*%
%TA.AperFunction,ComponentPad*%
%ADD12R,0.900000X0.500000*%
%TD*%
%TA.AperFunction,ComponentPad*%
%ADD13R,1.700000X1.700000*%
%TD*%
%TA.AperFunction,ComponentPad*%
%ADD14O,1.700000X1.700000*%
%TD*%
%TA.AperFunction,ViaPad*%
%ADD15C,0.400000*%
%TD*%
%TA.AperFunction,Conductor*%
%ADD16C,0.200000*%
%TD*%
G04 APERTURE END LIST*
D10*
%TO.N,/IO5*%
%TO.C,J5*%
X118500000Y-107780000D03*
%TD*%
%TO.N,/IO21*%
%TO.C,J10*%
X118500000Y-101180000D03*
%TD*%
%TO.N,/IO10*%
%TO.C,J7*%
X118500000Y-109230000D03*
%TD*%
D11*
%TO.N,/IO34*%
%TO.C,J18*%
X104500000Y-102870000D03*
%TD*%
D10*
%TO.N,/IO19*%
%TO.C,J9*%
X118500000Y-103720000D03*
%TD*%
%TO.N,/IO9*%
%TO.C,J6*%
X118500000Y-110500000D03*
%TD*%
%TO.N,/IO23*%
%TO.C,J12*%
X118500000Y-104990000D03*
%TD*%
D11*
%TO.N,/IO35*%
%TO.C,J19*%
X104500000Y-100330000D03*
%TD*%
%TO.N,/IO25*%
%TO.C,J13*%
X104500000Y-107950000D03*
%TD*%
%TO.N,/IO27*%
%TO.C,J15*%
X104500000Y-110490000D03*
%TD*%
%TO.N,/IO33*%
%TO.C,J17*%
X104500000Y-106680000D03*
%TD*%
%TO.N,/IO26*%
%TO.C,J14*%
X104500000Y-109220000D03*
%TD*%
D10*
%TO.N,/IO18*%
%TO.C,J8*%
X118500000Y-106260000D03*
%TD*%
D12*
%TO.N,GND*%
%TO.C,AE1*%
X118150000Y-95625000D03*
%TD*%
D11*
%TO.N,/CAPN*%
%TO.C,J3*%
X104500000Y-105410000D03*
%TD*%
%TO.N,/SENS_VN*%
%TO.C,J4*%
X104500000Y-104140000D03*
%TD*%
D10*
%TO.N,/IO22*%
%TO.C,J11*%
X118500000Y-102450000D03*
%TD*%
D11*
%TO.N,/SENS_VP*%
%TO.C,J1*%
X104500000Y-97790000D03*
%TD*%
%TO.N,/IO32*%
%TO.C,J16*%
X104500000Y-101600000D03*
%TD*%
%TO.N,/CAPP*%
%TO.C,J2*%
X104500000Y-99060000D03*
%TD*%
D13*
%TO.N,GND*%
%TO.C,J20*%
X107500000Y-110725000D03*
D14*
%TO.N,/IO1*%
X107500000Y-113265000D03*
%TO.N,/IO2*%
X110040000Y-110725000D03*
%TO.N,/IO4*%
X110040000Y-113265000D03*
%TO.N,/IO0*%
X112580000Y-110725000D03*
%TO.N,/EN*%
X112580000Y-113265000D03*
%TO.N,/IO3*%
X115120000Y-110725000D03*
%TO.N,VIN*%
X115120000Y-113265000D03*
%TD*%
D15*
%TO.N,GND*%
X112681885Y-108225484D03*
%TO.N,Net-(D1-Pad3)*%
X115750000Y-99600000D03*
%TO.N,Net-(C1-Pad2)*%
X108541403Y-107225792D03*
X116550000Y-110000000D03*
%TO.N,+3V3*%
X113400000Y-108900000D03*
%TO.N,GND*%
X117350000Y-96150000D03*
X116130000Y-97680000D03*
X105500000Y-99300000D03*
X113900000Y-97100000D03*
X104550000Y-96200000D03*
X113550000Y-96200000D03*
X114850000Y-98150000D03*
X118500000Y-98500000D03*
X116530000Y-97200000D03*
X116750000Y-96050000D03*
X111500000Y-103000000D03*
X106650000Y-98200000D03*
X108508800Y-97256600D03*
X116500000Y-111100000D03*
X104500000Y-113750000D03*
X110500000Y-102000000D03*
X108740000Y-113670000D03*
X118450000Y-97825000D03*
X118500000Y-100000000D03*
X115350000Y-96050000D03*
X116750000Y-96600000D03*
X115150000Y-96600000D03*
X112500000Y-102000000D03*
X112500000Y-104000000D03*
X118450000Y-96250000D03*
X111750000Y-96200000D03*
X118500000Y-99250000D03*
X114503200Y-96800000D03*
X114400000Y-96200000D03*
X113374500Y-97587566D03*
X110150000Y-96200000D03*
X118500000Y-112750000D03*
X104500000Y-112750000D03*
X118425000Y-97000000D03*
X110500000Y-104000000D03*
X118500000Y-113750000D03*
X115450000Y-98050000D03*
X114450000Y-98700000D03*
%TO.N,/EN*%
X107725000Y-97227600D03*
X110162095Y-98373291D03*
%TO.N,+3V3*%
X110124000Y-97775000D03*
X114750000Y-99500000D03*
X116396800Y-101896800D03*
X115750000Y-101250000D03*
X107100000Y-104400000D03*
X117495701Y-105195701D03*
%TO.N,/IO1*%
X116464297Y-103214297D03*
%TO.N,/IO2*%
X107069740Y-108169740D03*
%TO.N,/IO4*%
X107542579Y-109142578D03*
%TO.N,/IO3*%
X117211935Y-103241894D03*
%TO.N,/SENS_VN*%
X110808929Y-98625870D03*
%TO.N,/SENS_VP*%
X112700500Y-98625000D03*
%TO.N,/CAPP*%
X112057502Y-98617052D03*
%TO.N,/CAPN*%
X111408098Y-98605879D03*
%TO.N,/IO34*%
X109668798Y-98858724D03*
%TD*%
D16*
%TO.N,Net-(C1-Pad2)*%
X108450000Y-107317195D02*
X108541403Y-107225792D01*
X108450000Y-109200000D02*
X108450000Y-108900000D01*
X108800000Y-109550000D02*
X108450000Y-109200000D01*
X108450000Y-108900000D02*
X108450000Y-107317195D01*
X108825000Y-109575000D02*
X108800000Y-109550000D01*
X116125000Y-109575000D02*
X108825000Y-109575000D01*
X116550000Y-110000000D02*
X116125000Y-109575000D01*
%TO.N,/EN*%
X110750000Y-112000000D02*
X106495880Y-112000000D01*
X105960000Y-100190000D02*
X105960000Y-111440000D01*
X112015000Y-113265000D02*
X110750000Y-112000000D01*
X112540000Y-113265000D02*
X112015000Y-113265000D01*
X110148017Y-98359213D02*
X107790787Y-98359213D01*
X107790787Y-98359213D02*
X105960000Y-100190000D01*
X106495880Y-112000000D02*
X105960000Y-111464120D01*
X110162095Y-98373291D02*
X110148017Y-98359213D01*
X105960000Y-111464120D02*
X105960000Y-111440000D01*
%TD*%
%TA.AperFunction,NonConductor*%
G36*
X123958191Y-90019907D02*
G01*
X123994155Y-90069407D01*
X123999000Y-90100000D01*
X123999000Y-114900000D01*
X123980093Y-114958191D01*
X123930593Y-114994155D01*
X123900000Y-114999000D01*
X120095303Y-114999000D01*
X120037112Y-114980093D01*
X120001148Y-114930593D01*
X119997150Y-114912921D01*
X119988952Y-114850649D01*
X119988105Y-114844213D01*
X119937623Y-114722339D01*
X119933677Y-114717197D01*
X119933675Y-114717193D01*
X119861266Y-114622829D01*
X119861265Y-114622828D01*
X119857317Y-114617683D01*
X119804989Y-114577530D01*
X119757810Y-114541327D01*
X119757809Y-114541326D01*
X119752662Y-114537377D01*
X119750002Y-114536275D01*
X119714821Y-114500937D01*
X119643492Y-114376110D01*
X119543771Y-114201599D01*
X119271335Y-113724835D01*
X119258880Y-113664930D01*
X119284593Y-113608516D01*
X119291447Y-113601102D01*
X119291449Y-113601099D01*
X119297001Y-113595093D01*
X119297243Y-113594545D01*
X120618606Y-113594545D01*
X120636816Y-113767797D01*
X120638601Y-113773039D01*
X120685780Y-113911629D01*
X120692956Y-113932709D01*
X120695854Y-113937419D01*
X120695856Y-113937424D01*
X120781341Y-114076377D01*
X120784238Y-114081086D01*
X120906124Y-114205552D01*
X121052556Y-114299921D01*
X121216257Y-114359503D01*
X121350801Y-114376500D01*
X121443800Y-114376500D01*
X121467300Y-114373864D01*
X121567624Y-114362611D01*
X121567627Y-114362610D01*
X121573121Y-114361994D01*
X121737637Y-114304704D01*
X121885373Y-114212388D01*
X122008985Y-114089636D01*
X122083563Y-113972120D01*
X122099366Y-113947219D01*
X122099368Y-113947214D01*
X122102329Y-113942549D01*
X122160767Y-113778436D01*
X122162692Y-113762293D01*
X122180739Y-113610951D01*
X122180739Y-113610948D01*
X122181394Y-113605455D01*
X122163184Y-113432203D01*
X122107044Y-113267291D01*
X122104146Y-113262581D01*
X122104144Y-113262576D01*
X122018659Y-113123623D01*
X122015762Y-113118914D01*
X121893876Y-112994448D01*
X121747444Y-112900079D01*
X121583743Y-112840497D01*
X121449199Y-112823500D01*
X121356200Y-112823500D01*
X121332700Y-112826136D01*
X121232376Y-112837389D01*
X121232373Y-112837390D01*
X121226879Y-112838006D01*
X121062363Y-112895296D01*
X120914627Y-112987612D01*
X120791015Y-113110364D01*
X120788053Y-113115032D01*
X120700634Y-113252781D01*
X120700632Y-113252786D01*
X120697671Y-113257451D01*
X120639233Y-113421564D01*
X120638579Y-113427051D01*
X120638578Y-113427054D01*
X120631267Y-113488371D01*
X120618606Y-113594545D01*
X119297243Y-113594545D01*
X119344182Y-113488371D01*
X119349422Y-113427880D01*
X119353545Y-113380273D01*
X119353545Y-113380272D01*
X119354251Y-113372120D01*
X119326120Y-113258875D01*
X119321683Y-113252003D01*
X119267265Y-113167724D01*
X119267264Y-113167723D01*
X119262825Y-113160848D01*
X119262316Y-113160447D01*
X119238784Y-113108335D01*
X119251189Y-113048420D01*
X119264488Y-113030265D01*
X119291447Y-113001101D01*
X119297001Y-112995093D01*
X119344182Y-112888371D01*
X119348545Y-112838006D01*
X119353545Y-112780273D01*
X119353545Y-112780272D01*
X119354251Y-112772120D01*
X119326120Y-112658875D01*
X119321683Y-112652003D01*
X119267265Y-112567724D01*
X119267264Y-112567723D01*
X119262825Y-112560848D01*
X119262316Y-112560447D01*
X119238784Y-112508335D01*
X119251189Y-112448420D01*
X119264488Y-112430265D01*
X119291447Y-112401101D01*
X119297001Y-112395093D01*
X119344182Y-112288371D01*
X119349422Y-112227880D01*
X119353545Y-112180273D01*
X119353545Y-112180272D01*
X119354251Y-112172120D01*
X119352278Y-112164176D01*
X119341510Y-112120827D01*
X119345831Y-112059795D01*
X119385201Y-112012958D01*
X119450512Y-111998808D01*
X119493566Y-112004476D01*
X119500000Y-112005323D01*
X119506434Y-112004476D01*
X119624356Y-111988952D01*
X119624359Y-111988951D01*
X119630787Y-111988105D01*
X119752662Y-111937623D01*
X119759799Y-111932147D01*
X119852164Y-111861271D01*
X119857317Y-111857317D01*
X119937623Y-111752662D01*
X119988105Y-111630787D01*
X120005323Y-111500000D01*
X120001536Y-111500000D01*
X120001000Y-111494167D01*
X120001000Y-100224911D01*
X120001415Y-100215853D01*
X120002871Y-100200000D01*
X120005323Y-100200000D01*
X119988105Y-100069213D01*
X119937623Y-99947339D01*
X119933677Y-99942197D01*
X119933675Y-99942193D01*
X119861266Y-99847829D01*
X119861265Y-99847828D01*
X119857317Y-99842683D01*
X119804989Y-99802530D01*
X119757810Y-99766327D01*
X119757809Y-99766326D01*
X119752662Y-99762377D01*
X119630787Y-99711895D01*
X119624359Y-99711049D01*
X119624356Y-99711048D01*
X119506434Y-99695524D01*
X119500000Y-99694677D01*
X119412436Y-99706205D01*
X119352276Y-99695055D01*
X119310159Y-99650673D01*
X119302173Y-99590011D01*
X119308969Y-99568022D01*
X119340874Y-99495854D01*
X119340874Y-99495853D01*
X119344182Y-99488371D01*
X119349422Y-99427880D01*
X119353545Y-99380273D01*
X119353545Y-99380272D01*
X119354251Y-99372120D01*
X119326120Y-99258875D01*
X119321683Y-99252003D01*
X119267265Y-99167724D01*
X119267264Y-99167723D01*
X119262825Y-99160848D01*
X119262316Y-99160447D01*
X119238784Y-99108335D01*
X119251189Y-99048420D01*
X119264488Y-99030265D01*
X119291447Y-99001101D01*
X119297001Y-98995093D01*
X119344182Y-98888371D01*
X119349422Y-98827880D01*
X119353545Y-98780273D01*
X119353545Y-98780272D01*
X119354251Y-98772120D01*
X119326120Y-98658875D01*
X119321683Y-98652003D01*
X119267265Y-98567724D01*
X119267264Y-98567723D01*
X119262825Y-98560848D01*
X119262316Y-98560447D01*
X119238784Y-98508335D01*
X119251189Y-98448420D01*
X119264488Y-98430265D01*
X119291447Y-98401101D01*
X119297001Y-98395093D01*
X119344182Y-98288371D01*
X119349422Y-98227880D01*
X119353545Y-98180273D01*
X119353545Y-98180272D01*
X119354251Y-98172120D01*
X119326120Y-98058875D01*
X119263167Y-97961377D01*
X119247782Y-97898290D01*
X119249917Y-97875872D01*
X119275774Y-97818056D01*
X119291446Y-97801102D01*
X119297001Y-97795093D01*
X119344182Y-97688371D01*
X119349422Y-97627880D01*
X119353545Y-97580273D01*
X119353545Y-97580272D01*
X119354251Y-97572120D01*
X119326120Y-97458875D01*
X119312964Y-97438500D01*
X119297580Y-97375413D01*
X119318107Y-97159881D01*
X119326115Y-97129237D01*
X119344182Y-97088371D01*
X119344888Y-97080221D01*
X119353545Y-96980273D01*
X119353545Y-96980272D01*
X119354251Y-96972120D01*
X119352278Y-96964176D01*
X119345128Y-96935392D01*
X119342654Y-96902140D01*
X119443789Y-95840217D01*
X119468128Y-95784081D01*
X119520815Y-95752972D01*
X119529421Y-95751450D01*
X119624356Y-95738952D01*
X119624359Y-95738951D01*
X119630787Y-95738105D01*
X119752662Y-95687623D01*
X119759799Y-95682147D01*
X119852164Y-95611271D01*
X119857317Y-95607317D01*
X119937623Y-95502662D01*
X119988105Y-95380787D01*
X120005323Y-95250000D01*
X120001536Y-95250000D01*
X120001000Y-95244167D01*
X120001000Y-90994545D01*
X122018606Y-90994545D01*
X122036816Y-91167797D01*
X122092956Y-91332709D01*
X122095854Y-91337419D01*
X122095856Y-91337424D01*
X122181341Y-91476377D01*
X122184238Y-91481086D01*
X122306124Y-91605552D01*
X122452556Y-91699921D01*
X122616257Y-91759503D01*
X122750801Y-91776500D01*
X122843800Y-91776500D01*
X122867300Y-91773864D01*
X122967624Y-91762611D01*
X122967627Y-91762610D01*
X122973121Y-91761994D01*
X123137637Y-91704704D01*
X123285373Y-91612388D01*
X123408985Y-91489636D01*
X123444546Y-91433600D01*
X123499366Y-91347219D01*
X123499368Y-91347214D01*
X123502329Y-91342549D01*
X123560767Y-91178436D01*
X123581394Y-91005455D01*
X123563184Y-90832203D01*
X123507044Y-90667291D01*
X123504146Y-90662581D01*
X123504144Y-90662576D01*
X123418659Y-90523623D01*
X123415762Y-90518914D01*
X123293876Y-90394448D01*
X123147444Y-90300079D01*
X122983743Y-90240497D01*
X122849199Y-90223500D01*
X122756200Y-90223500D01*
X122732700Y-90226136D01*
X122632376Y-90237389D01*
X122632373Y-90237390D01*
X122626879Y-90238006D01*
X122462363Y-90295296D01*
X122314627Y-90387612D01*
X122191015Y-90510364D01*
X122188053Y-90515032D01*
X122100634Y-90652781D01*
X122100632Y-90652786D01*
X122097671Y-90657451D01*
X122039233Y-90821564D01*
X122018606Y-90994545D01*
X120001000Y-90994545D01*
X120001000Y-90100000D01*
X120019907Y-90041809D01*
X120069407Y-90005845D01*
X120100000Y-90001000D01*
X123900000Y-90001000D01*
X123958191Y-90019907D01*
G37*
%TD.AperFunction*%
%TA.AperFunction,Conductor*%
%TO.N,+3V3*%
G36*
X109804800Y-95818907D02*
G01*
X109840764Y-95868407D01*
X109840764Y-95929593D01*
X109826997Y-95956611D01*
X109821950Y-95961658D01*
X109818415Y-95968595D01*
X109818414Y-95968597D01*
X109777192Y-96049500D01*
X109764354Y-96074696D01*
X109763135Y-96082390D01*
X109763135Y-96082391D01*
X109760697Y-96097785D01*
X109744508Y-96200000D01*
X109764354Y-96325304D01*
X109821950Y-96438342D01*
X109911658Y-96528050D01*
X109918595Y-96531585D01*
X109918597Y-96531586D01*
X110009788Y-96578050D01*
X110024696Y-96585646D01*
X110032390Y-96586865D01*
X110032391Y-96586865D01*
X110142303Y-96604273D01*
X110150000Y-96605492D01*
X110157697Y-96604273D01*
X110267609Y-96586865D01*
X110267610Y-96586865D01*
X110275304Y-96585646D01*
X110290212Y-96578050D01*
X110381403Y-96531586D01*
X110381405Y-96531585D01*
X110388342Y-96528050D01*
X110478050Y-96438342D01*
X110535646Y-96325304D01*
X110555492Y-96200000D01*
X110539303Y-96097785D01*
X110536865Y-96082391D01*
X110536865Y-96082390D01*
X110535646Y-96074696D01*
X110522808Y-96049500D01*
X110481586Y-95968597D01*
X110481585Y-95968595D01*
X110478050Y-95961658D01*
X110473161Y-95956769D01*
X110454391Y-95898999D01*
X110473299Y-95840809D01*
X110522799Y-95804845D01*
X110553391Y-95800000D01*
X111346609Y-95800000D01*
X111404800Y-95818907D01*
X111440764Y-95868407D01*
X111440764Y-95929593D01*
X111426997Y-95956611D01*
X111421950Y-95961658D01*
X111418415Y-95968595D01*
X111418414Y-95968597D01*
X111377192Y-96049500D01*
X111364354Y-96074696D01*
X111363135Y-96082390D01*
X111363135Y-96082391D01*
X111360697Y-96097785D01*
X111344508Y-96200000D01*
X111364354Y-96325304D01*
X111421950Y-96438342D01*
X111511658Y-96528050D01*
X111518595Y-96531585D01*
X111518597Y-96531586D01*
X111609788Y-96578050D01*
X111624696Y-96585646D01*
X111632390Y-96586865D01*
X111632391Y-96586865D01*
X111742303Y-96604273D01*
X111750000Y-96605492D01*
X111757697Y-96604273D01*
X111867609Y-96586865D01*
X111867610Y-96586865D01*
X111875304Y-96585646D01*
X111890212Y-96578050D01*
X111981403Y-96531586D01*
X111981405Y-96531585D01*
X111988342Y-96528050D01*
X112078050Y-96438342D01*
X112135646Y-96325304D01*
X112155492Y-96200000D01*
X112139303Y-96097785D01*
X112136865Y-96082391D01*
X112136865Y-96082390D01*
X112135646Y-96074696D01*
X112122808Y-96049500D01*
X112081586Y-95968597D01*
X112081585Y-95968595D01*
X112078050Y-95961658D01*
X112073161Y-95956769D01*
X112054391Y-95898999D01*
X112073299Y-95840809D01*
X112122799Y-95804845D01*
X112153391Y-95800000D01*
X113146609Y-95800000D01*
X113204800Y-95818907D01*
X113240764Y-95868407D01*
X113240764Y-95929593D01*
X113226997Y-95956611D01*
X113221950Y-95961658D01*
X113218415Y-95968595D01*
X113218414Y-95968597D01*
X113177192Y-96049500D01*
X113164354Y-96074696D01*
X113163135Y-96082390D01*
X113163135Y-96082391D01*
X113160697Y-96097785D01*
X113144508Y-96200000D01*
X113164354Y-96325304D01*
X113221950Y-96438342D01*
X113311658Y-96528050D01*
X113318595Y-96531585D01*
X113318597Y-96531586D01*
X113344445Y-96544756D01*
X113385946Y-96565902D01*
X113429210Y-96609166D01*
X113440000Y-96654111D01*
X113440000Y-97087146D01*
X113421093Y-97145337D01*
X113371593Y-97181301D01*
X113356487Y-97184927D01*
X113256891Y-97200701D01*
X113256890Y-97200701D01*
X113249196Y-97201920D01*
X113242257Y-97205456D01*
X113242256Y-97205456D01*
X113143097Y-97255980D01*
X113143095Y-97255981D01*
X113136158Y-97259516D01*
X113046450Y-97349224D01*
X113042915Y-97356161D01*
X113042914Y-97356163D01*
X113002169Y-97436129D01*
X112988854Y-97462262D01*
X112969008Y-97587566D01*
X112970227Y-97595263D01*
X112983692Y-97680275D01*
X112988854Y-97712870D01*
X112992390Y-97719809D01*
X112992390Y-97719810D01*
X113042365Y-97817890D01*
X113046450Y-97825908D01*
X113136158Y-97915616D01*
X113143095Y-97919151D01*
X113143097Y-97919152D01*
X113240965Y-97969018D01*
X113249196Y-97973212D01*
X113256890Y-97974431D01*
X113256891Y-97974431D01*
X113366803Y-97991839D01*
X113374500Y-97993058D01*
X113382197Y-97991839D01*
X113492109Y-97974431D01*
X113492110Y-97974431D01*
X113499804Y-97973212D01*
X113508862Y-97968597D01*
X113525585Y-97960076D01*
X113586017Y-97950505D01*
X113640137Y-97977888D01*
X114072995Y-98405883D01*
X114101080Y-98460242D01*
X114091598Y-98521226D01*
X114067890Y-98567755D01*
X114067889Y-98567758D01*
X114064354Y-98574696D01*
X114063135Y-98582390D01*
X114063135Y-98582391D01*
X114046681Y-98686280D01*
X114044508Y-98700000D01*
X114045727Y-98707697D01*
X114061138Y-98804996D01*
X114064354Y-98825304D01*
X114067890Y-98832243D01*
X114067890Y-98832244D01*
X114117581Y-98929767D01*
X114121950Y-98938342D01*
X114211658Y-99028050D01*
X114218595Y-99031585D01*
X114218597Y-99031586D01*
X114315142Y-99080778D01*
X114324696Y-99085646D01*
X114332390Y-99086865D01*
X114332391Y-99086865D01*
X114442303Y-99104273D01*
X114450000Y-99105492D01*
X114457697Y-99104273D01*
X114567609Y-99086865D01*
X114567610Y-99086865D01*
X114575304Y-99085646D01*
X114584858Y-99080778D01*
X114681403Y-99031586D01*
X114681405Y-99031585D01*
X114688342Y-99028050D01*
X114778050Y-98938342D01*
X114782420Y-98929767D01*
X114832110Y-98832244D01*
X114832110Y-98832243D01*
X114835646Y-98825304D01*
X114838863Y-98804996D01*
X114854273Y-98707697D01*
X114855492Y-98700000D01*
X114852682Y-98682255D01*
X114848517Y-98655961D01*
X114858088Y-98595529D01*
X114901353Y-98552264D01*
X114930811Y-98542693D01*
X114967609Y-98536865D01*
X114967610Y-98536865D01*
X114975304Y-98535646D01*
X115030157Y-98507697D01*
X115081403Y-98481586D01*
X115081405Y-98481585D01*
X115088342Y-98478050D01*
X115145351Y-98421041D01*
X115199868Y-98393264D01*
X115260300Y-98402835D01*
X115317755Y-98432110D01*
X115317758Y-98432111D01*
X115324696Y-98435646D01*
X115332390Y-98436865D01*
X115332391Y-98436865D01*
X115442303Y-98454273D01*
X115450000Y-98455492D01*
X115457697Y-98454273D01*
X115567609Y-98436865D01*
X115567610Y-98436865D01*
X115575304Y-98435646D01*
X115582244Y-98432110D01*
X115681403Y-98381586D01*
X115681405Y-98381585D01*
X115688342Y-98378050D01*
X115778050Y-98288342D01*
X115785209Y-98274293D01*
X115832110Y-98182244D01*
X115832110Y-98182243D01*
X115835646Y-98175304D01*
X115836865Y-98167609D01*
X115843025Y-98128716D01*
X115870803Y-98074199D01*
X115925319Y-98046422D01*
X115985751Y-98055993D01*
X116004696Y-98065646D01*
X116012390Y-98066865D01*
X116012391Y-98066865D01*
X116122303Y-98084273D01*
X116130000Y-98085492D01*
X116137697Y-98084273D01*
X116247609Y-98066865D01*
X116247610Y-98066865D01*
X116255304Y-98065646D01*
X116272689Y-98056788D01*
X116361403Y-98011586D01*
X116361405Y-98011585D01*
X116368342Y-98008050D01*
X116458050Y-97918342D01*
X116462245Y-97910110D01*
X116512110Y-97812244D01*
X116512110Y-97812243D01*
X116515646Y-97805304D01*
X116532373Y-97699696D01*
X116535492Y-97680000D01*
X116537228Y-97680275D01*
X116553180Y-97631178D01*
X116602680Y-97595214D01*
X116617787Y-97591588D01*
X116647609Y-97586865D01*
X116647610Y-97586865D01*
X116655304Y-97585646D01*
X116681850Y-97572120D01*
X116761403Y-97531586D01*
X116761405Y-97531585D01*
X116768342Y-97528050D01*
X116858050Y-97438342D01*
X116867647Y-97419508D01*
X116912110Y-97332244D01*
X116912110Y-97332243D01*
X116915646Y-97325304D01*
X116917514Y-97313508D01*
X116945294Y-97258994D01*
X116999812Y-97231218D01*
X117015295Y-97230000D01*
X118047600Y-97230000D01*
X118105791Y-97248907D01*
X118117602Y-97258994D01*
X118186658Y-97328050D01*
X118195266Y-97332436D01*
X118196590Y-97333760D01*
X118199903Y-97336167D01*
X118199522Y-97336692D01*
X118238531Y-97375698D01*
X118248106Y-97436129D01*
X118220331Y-97490647D01*
X118214864Y-97495317D01*
X118211658Y-97496950D01*
X118121950Y-97586658D01*
X118118415Y-97593595D01*
X118118414Y-97593597D01*
X118070124Y-97688371D01*
X118064354Y-97699696D01*
X118063135Y-97707390D01*
X118063135Y-97707391D01*
X118046528Y-97812244D01*
X118044508Y-97825000D01*
X118064354Y-97950304D01*
X118067890Y-97957243D01*
X118067890Y-97957244D01*
X118117699Y-98054998D01*
X118121950Y-98063342D01*
X118176104Y-98117496D01*
X118203881Y-98172013D01*
X118194310Y-98232445D01*
X118181797Y-98249668D01*
X118182039Y-98249844D01*
X118177456Y-98256152D01*
X118171950Y-98261658D01*
X118168415Y-98268595D01*
X118168414Y-98268597D01*
X118127413Y-98349067D01*
X118114354Y-98374696D01*
X118113135Y-98382390D01*
X118113135Y-98382391D01*
X118097552Y-98480778D01*
X118094508Y-98500000D01*
X118095727Y-98507697D01*
X118106339Y-98574696D01*
X118114354Y-98625304D01*
X118117890Y-98632243D01*
X118117890Y-98632244D01*
X118166742Y-98728120D01*
X118171950Y-98738342D01*
X118238604Y-98804996D01*
X118266381Y-98859513D01*
X118256810Y-98919945D01*
X118238604Y-98945004D01*
X118171950Y-99011658D01*
X118168415Y-99018595D01*
X118168414Y-99018597D01*
X118142938Y-99068597D01*
X118114354Y-99124696D01*
X118094508Y-99250000D01*
X118095727Y-99257697D01*
X118112193Y-99361658D01*
X118114354Y-99375304D01*
X118117890Y-99382243D01*
X118117890Y-99382244D01*
X118143367Y-99432244D01*
X118171950Y-99488342D01*
X118238604Y-99554996D01*
X118266381Y-99609513D01*
X118256810Y-99669945D01*
X118238604Y-99695004D01*
X118171950Y-99761658D01*
X118168415Y-99768595D01*
X118168414Y-99768597D01*
X118117890Y-99867756D01*
X118114354Y-99874696D01*
X118113135Y-99882390D01*
X118113135Y-99882391D01*
X118097122Y-99983498D01*
X118094508Y-100000000D01*
X118095727Y-100007697D01*
X118098303Y-100023958D01*
X118114354Y-100125304D01*
X118117890Y-100132243D01*
X118117890Y-100132244D01*
X118152780Y-100200718D01*
X118171950Y-100238342D01*
X118251823Y-100318215D01*
X118279600Y-100372732D01*
X118270029Y-100433164D01*
X118226764Y-100476429D01*
X118201277Y-100485288D01*
X118195064Y-100486534D01*
X118171439Y-100491269D01*
X118122255Y-100524195D01*
X117844196Y-100802254D01*
X117810997Y-100852099D01*
X117799500Y-100910162D01*
X117799499Y-101449841D01*
X117800462Y-101454644D01*
X117800462Y-101454647D01*
X117809355Y-101499015D01*
X117809356Y-101499018D01*
X117811269Y-101508561D01*
X117844195Y-101557745D01*
X118031446Y-101744996D01*
X118059223Y-101799513D01*
X118049652Y-101859945D01*
X118031446Y-101885004D01*
X117844196Y-102072254D01*
X117810997Y-102122099D01*
X117799500Y-102180162D01*
X117799499Y-102719841D01*
X117800462Y-102724644D01*
X117800462Y-102724647D01*
X117809355Y-102769015D01*
X117809356Y-102769018D01*
X117811269Y-102778561D01*
X117844195Y-102827745D01*
X118031446Y-103014996D01*
X118059223Y-103069513D01*
X118049652Y-103129945D01*
X118031446Y-103155004D01*
X117844196Y-103342254D01*
X117841482Y-103346329D01*
X117841481Y-103346330D01*
X117821313Y-103376611D01*
X117810997Y-103392099D01*
X117799500Y-103450162D01*
X117799499Y-103989841D01*
X117800462Y-103994644D01*
X117800462Y-103994647D01*
X117809355Y-104039015D01*
X117809356Y-104039018D01*
X117811269Y-104048561D01*
X117844195Y-104097745D01*
X118031446Y-104284996D01*
X118059223Y-104339513D01*
X118049652Y-104399945D01*
X118031446Y-104425004D01*
X117844196Y-104612254D01*
X117810997Y-104662099D01*
X117799500Y-104720162D01*
X117799499Y-105259841D01*
X117800462Y-105264644D01*
X117800462Y-105264647D01*
X117809355Y-105309015D01*
X117809356Y-105309018D01*
X117811269Y-105318561D01*
X117844195Y-105367745D01*
X118031446Y-105554996D01*
X118059223Y-105609513D01*
X118049652Y-105669945D01*
X118031446Y-105695004D01*
X117844196Y-105882254D01*
X117810997Y-105932099D01*
X117799500Y-105990162D01*
X117799499Y-106529841D01*
X117800462Y-106534644D01*
X117800462Y-106534647D01*
X117809355Y-106579015D01*
X117809356Y-106579018D01*
X117811269Y-106588561D01*
X117844195Y-106637745D01*
X118122254Y-106915804D01*
X118126327Y-106918517D01*
X118126337Y-106918525D01*
X118154900Y-106937549D01*
X118192850Y-106985543D01*
X118195342Y-107046677D01*
X118161425Y-107097601D01*
X118155114Y-107102198D01*
X118122255Y-107124195D01*
X117844196Y-107402254D01*
X117810997Y-107452099D01*
X117799500Y-107510162D01*
X117799499Y-108049841D01*
X117800462Y-108054644D01*
X117800462Y-108054647D01*
X117809355Y-108099015D01*
X117809356Y-108099018D01*
X117811269Y-108108561D01*
X117844195Y-108157745D01*
X118121446Y-108434996D01*
X118149223Y-108489513D01*
X118139652Y-108549945D01*
X118121446Y-108575004D01*
X117844196Y-108852254D01*
X117810997Y-108902099D01*
X117799500Y-108960162D01*
X117799499Y-109499841D01*
X117800462Y-109504644D01*
X117800462Y-109504647D01*
X117809355Y-109549015D01*
X117809356Y-109549018D01*
X117811269Y-109558561D01*
X117844195Y-109607745D01*
X118031446Y-109794996D01*
X118059223Y-109849513D01*
X118049652Y-109909945D01*
X118031446Y-109935004D01*
X117844196Y-110122254D01*
X117810997Y-110172099D01*
X117799500Y-110230162D01*
X117799499Y-110769841D01*
X117800462Y-110774644D01*
X117800462Y-110774647D01*
X117809355Y-110819015D01*
X117809356Y-110819018D01*
X117811269Y-110828561D01*
X117844195Y-110877745D01*
X118122254Y-111155804D01*
X118126329Y-111158518D01*
X118126330Y-111158519D01*
X118156677Y-111178731D01*
X118172099Y-111189003D01*
X118230162Y-111200500D01*
X118700500Y-111200500D01*
X118758691Y-111219407D01*
X118794655Y-111268907D01*
X118799500Y-111299500D01*
X118799500Y-111465983D01*
X118796982Y-111488169D01*
X118794344Y-111499641D01*
X118795705Y-111505658D01*
X118796795Y-111515332D01*
X118796795Y-111515333D01*
X118805410Y-111591791D01*
X118812742Y-111656862D01*
X118832861Y-111714359D01*
X118857221Y-111783977D01*
X118858593Y-111845147D01*
X118823749Y-111895441D01*
X118810791Y-111903798D01*
X118782206Y-111919222D01*
X118702999Y-112004907D01*
X118655818Y-112111629D01*
X118655112Y-112119777D01*
X118655112Y-112119778D01*
X118647346Y-112209443D01*
X118645749Y-112227880D01*
X118647722Y-112235822D01*
X118648364Y-112243979D01*
X118644715Y-112244266D01*
X118641543Y-112289290D01*
X118602190Y-112336141D01*
X118542814Y-112350912D01*
X118534284Y-112349938D01*
X118507697Y-112345727D01*
X118500000Y-112344508D01*
X118492303Y-112345727D01*
X118382391Y-112363135D01*
X118382390Y-112363135D01*
X118374696Y-112364354D01*
X118367757Y-112367890D01*
X118367756Y-112367890D01*
X118268597Y-112418414D01*
X118268595Y-112418415D01*
X118261658Y-112421950D01*
X118171950Y-112511658D01*
X118168415Y-112518595D01*
X118168414Y-112518597D01*
X118146886Y-112560848D01*
X118114354Y-112624696D01*
X118113135Y-112632390D01*
X118113135Y-112632391D01*
X118106055Y-112677095D01*
X118094508Y-112750000D01*
X118095727Y-112757697D01*
X118112366Y-112862749D01*
X118114354Y-112875304D01*
X118117890Y-112882243D01*
X118117890Y-112882244D01*
X118143614Y-112932729D01*
X118171950Y-112988342D01*
X118261658Y-113078050D01*
X118268595Y-113081585D01*
X118268597Y-113081586D01*
X118342462Y-113119222D01*
X118374696Y-113135646D01*
X118382390Y-113136865D01*
X118382391Y-113136865D01*
X118479335Y-113152219D01*
X118533851Y-113179996D01*
X118561629Y-113234513D01*
X118552058Y-113294945D01*
X118508793Y-113338210D01*
X118479335Y-113347781D01*
X118382391Y-113363135D01*
X118382390Y-113363135D01*
X118374696Y-113364354D01*
X118367757Y-113367890D01*
X118367756Y-113367890D01*
X118268597Y-113418414D01*
X118268595Y-113418415D01*
X118261658Y-113421950D01*
X118171950Y-113511658D01*
X118168415Y-113518595D01*
X118168414Y-113518597D01*
X118117890Y-113617756D01*
X118114354Y-113624696D01*
X118113135Y-113632390D01*
X118113135Y-113632391D01*
X118104050Y-113689755D01*
X118094508Y-113750000D01*
X118095727Y-113757697D01*
X118109417Y-113844130D01*
X118114354Y-113875304D01*
X118117890Y-113882243D01*
X118117890Y-113882244D01*
X118150544Y-113946330D01*
X118171950Y-113988342D01*
X118261658Y-114078050D01*
X118268595Y-114081585D01*
X118268597Y-114081586D01*
X118367130Y-114131791D01*
X118374696Y-114135646D01*
X118382390Y-114136865D01*
X118382391Y-114136865D01*
X118492303Y-114154273D01*
X118500000Y-114155492D01*
X118507697Y-114154273D01*
X118507698Y-114154273D01*
X118602483Y-114139261D01*
X118662915Y-114148833D01*
X118701138Y-114183340D01*
X118737175Y-114239152D01*
X118828811Y-114311392D01*
X118836529Y-114314102D01*
X118836530Y-114314103D01*
X118933803Y-114348263D01*
X118982442Y-114385384D01*
X119000000Y-114441671D01*
X119000000Y-114443336D01*
X118981093Y-114501527D01*
X118971004Y-114513340D01*
X118948862Y-114535482D01*
X118864878Y-114669141D01*
X118863042Y-114674389D01*
X118842464Y-114733197D01*
X118805398Y-114781878D01*
X118749019Y-114799500D01*
X104299500Y-114799500D01*
X104241309Y-114780593D01*
X104205345Y-114731093D01*
X104200500Y-114700500D01*
X104200500Y-114208442D01*
X104219407Y-114150251D01*
X104268907Y-114114287D01*
X104330093Y-114114287D01*
X104344446Y-114120233D01*
X104367753Y-114132109D01*
X104367757Y-114132110D01*
X104374696Y-114135646D01*
X104382390Y-114136865D01*
X104382391Y-114136865D01*
X104492303Y-114154273D01*
X104500000Y-114155492D01*
X104507697Y-114154273D01*
X104617609Y-114136865D01*
X104617610Y-114136865D01*
X104625304Y-114135646D01*
X104632870Y-114131791D01*
X104731403Y-114081586D01*
X104731405Y-114081585D01*
X104738342Y-114078050D01*
X104828050Y-113988342D01*
X104849457Y-113946330D01*
X104882110Y-113882244D01*
X104882110Y-113882243D01*
X104885646Y-113875304D01*
X104890584Y-113844130D01*
X104904273Y-113757697D01*
X104905492Y-113750000D01*
X104895950Y-113689755D01*
X104886865Y-113632391D01*
X104886865Y-113632390D01*
X104885646Y-113624696D01*
X104882110Y-113617756D01*
X104831586Y-113518597D01*
X104831585Y-113518595D01*
X104828050Y-113511658D01*
X104738342Y-113421950D01*
X104731405Y-113418415D01*
X104731403Y-113418414D01*
X104632244Y-113367890D01*
X104632243Y-113367890D01*
X104625304Y-113364354D01*
X104617610Y-113363135D01*
X104617609Y-113363135D01*
X104520665Y-113347781D01*
X104504572Y-113339581D01*
X104479335Y-113347781D01*
X104382391Y-113363135D01*
X104382390Y-113363135D01*
X104374696Y-113364354D01*
X104367757Y-113367890D01*
X104367753Y-113367891D01*
X104344446Y-113379767D01*
X104284014Y-113389339D01*
X104229497Y-113361562D01*
X104201719Y-113307046D01*
X104200500Y-113291558D01*
X104200500Y-113208442D01*
X104219407Y-113150251D01*
X104268907Y-113114287D01*
X104330093Y-113114287D01*
X104344446Y-113120233D01*
X104367753Y-113132109D01*
X104367757Y-113132110D01*
X104374696Y-113135646D01*
X104382390Y-113136865D01*
X104382391Y-113136865D01*
X104479335Y-113152219D01*
X104495428Y-113160419D01*
X104520665Y-113152219D01*
X104617609Y-113136865D01*
X104617610Y-113136865D01*
X104625304Y-113135646D01*
X104657538Y-113119222D01*
X104731403Y-113081586D01*
X104731405Y-113081585D01*
X104738342Y-113078050D01*
X104828050Y-112988342D01*
X104856387Y-112932729D01*
X104882110Y-112882244D01*
X104882110Y-112882243D01*
X104885646Y-112875304D01*
X104887635Y-112862749D01*
X104904273Y-112757697D01*
X104905492Y-112750000D01*
X104893945Y-112677095D01*
X104886865Y-112632391D01*
X104886865Y-112632390D01*
X104885646Y-112624696D01*
X104853114Y-112560848D01*
X104831586Y-112518597D01*
X104831585Y-112518595D01*
X104828050Y-112511658D01*
X104738342Y-112421950D01*
X104731405Y-112418415D01*
X104731403Y-112418414D01*
X104632244Y-112367890D01*
X104632243Y-112367890D01*
X104625304Y-112364354D01*
X104617610Y-112363135D01*
X104617609Y-112363135D01*
X104507697Y-112345727D01*
X104500000Y-112344508D01*
X104492303Y-112345727D01*
X104382391Y-112363135D01*
X104382390Y-112363135D01*
X104374696Y-112364354D01*
X104367757Y-112367890D01*
X104367753Y-112367891D01*
X104344446Y-112379767D01*
X104284014Y-112389339D01*
X104229497Y-112361562D01*
X104201719Y-112307046D01*
X104200500Y-112291558D01*
X104200500Y-111289500D01*
X104219407Y-111231309D01*
X104268907Y-111195345D01*
X104299499Y-111190500D01*
X104742990Y-111190501D01*
X104769841Y-111190501D01*
X104774644Y-111189538D01*
X104774647Y-111189538D01*
X104819015Y-111180645D01*
X104819018Y-111180644D01*
X104828561Y-111178731D01*
X104877745Y-111145805D01*
X105155804Y-110867746D01*
X105189003Y-110817901D01*
X105200500Y-110759838D01*
X105200501Y-110220159D01*
X105199538Y-110215353D01*
X105190645Y-110170985D01*
X105190644Y-110170982D01*
X105188731Y-110161439D01*
X105155805Y-110112255D01*
X104968554Y-109925004D01*
X104940777Y-109870487D01*
X104950348Y-109810055D01*
X104968554Y-109784996D01*
X105155804Y-109597746D01*
X105189003Y-109547901D01*
X105200500Y-109489838D01*
X105200501Y-108950159D01*
X105199538Y-108945353D01*
X105190645Y-108900985D01*
X105190644Y-108900982D01*
X105188731Y-108891439D01*
X105155805Y-108842255D01*
X104968554Y-108655004D01*
X104940777Y-108600487D01*
X104950348Y-108540055D01*
X104968554Y-108514996D01*
X105155804Y-108327746D01*
X105177585Y-108295044D01*
X105183607Y-108286003D01*
X105183607Y-108286002D01*
X105189003Y-108277901D01*
X105200500Y-108219838D01*
X105200501Y-107680159D01*
X105199538Y-107675353D01*
X105190645Y-107630985D01*
X105190644Y-107630982D01*
X105188731Y-107621439D01*
X105155805Y-107572255D01*
X104968554Y-107385004D01*
X104940777Y-107330487D01*
X104950348Y-107270055D01*
X104968554Y-107244996D01*
X105155804Y-107057746D01*
X105158519Y-107053670D01*
X105183607Y-107016003D01*
X105183607Y-107016002D01*
X105189003Y-107007901D01*
X105200500Y-106949838D01*
X105200501Y-106410159D01*
X105199538Y-106405353D01*
X105190645Y-106360985D01*
X105190644Y-106360982D01*
X105188731Y-106351439D01*
X105155805Y-106302255D01*
X104968554Y-106115004D01*
X104940777Y-106060487D01*
X104950348Y-106000055D01*
X104968554Y-105974996D01*
X105155804Y-105787746D01*
X105189003Y-105737901D01*
X105200500Y-105679838D01*
X105200501Y-105140159D01*
X105199538Y-105135353D01*
X105190645Y-105090985D01*
X105190644Y-105090982D01*
X105188731Y-105081439D01*
X105155805Y-105032255D01*
X104968554Y-104845004D01*
X104940777Y-104790487D01*
X104950348Y-104730055D01*
X104968554Y-104704996D01*
X105155804Y-104517746D01*
X105189003Y-104467901D01*
X105200500Y-104409838D01*
X105200501Y-103870159D01*
X105199538Y-103865353D01*
X105190645Y-103820985D01*
X105190644Y-103820982D01*
X105188731Y-103811439D01*
X105155805Y-103762255D01*
X104968554Y-103575004D01*
X104940777Y-103520487D01*
X104950348Y-103460055D01*
X104968554Y-103434996D01*
X105155804Y-103247746D01*
X105159702Y-103241894D01*
X105183607Y-103206003D01*
X105183607Y-103206002D01*
X105189003Y-103197901D01*
X105200500Y-103139838D01*
X105200501Y-102600159D01*
X105199538Y-102595353D01*
X105190645Y-102550985D01*
X105190644Y-102550982D01*
X105188731Y-102541439D01*
X105155805Y-102492255D01*
X104968554Y-102305004D01*
X104940777Y-102250487D01*
X104950348Y-102190055D01*
X104968554Y-102164996D01*
X105155804Y-101977746D01*
X105189003Y-101927901D01*
X105200500Y-101869838D01*
X105200501Y-101330159D01*
X105199538Y-101325353D01*
X105190645Y-101280985D01*
X105190644Y-101280982D01*
X105188731Y-101271439D01*
X105155805Y-101222255D01*
X104968554Y-101035004D01*
X104940777Y-100980487D01*
X104950348Y-100920055D01*
X104968554Y-100894996D01*
X105155804Y-100707746D01*
X105189003Y-100657901D01*
X105200500Y-100599838D01*
X105200501Y-100175066D01*
X105654660Y-100175066D01*
X105658053Y-100200000D01*
X105658596Y-100203987D01*
X105659500Y-100217337D01*
X105659500Y-111410612D01*
X105659197Y-111414737D01*
X105657575Y-111419462D01*
X105657918Y-111428596D01*
X105659430Y-111468881D01*
X105659500Y-111472594D01*
X105659500Y-111492068D01*
X105660325Y-111496498D01*
X105660661Y-111501691D01*
X105661774Y-111531328D01*
X105665380Y-111539722D01*
X105665381Y-111539725D01*
X105666317Y-111541903D01*
X105672683Y-111562854D01*
X105674791Y-111574173D01*
X105688768Y-111596848D01*
X105695452Y-111609716D01*
X105699201Y-111618441D01*
X105705964Y-111634183D01*
X105709978Y-111639069D01*
X105714342Y-111643433D01*
X105728613Y-111661488D01*
X105733532Y-111669468D01*
X105756769Y-111687138D01*
X105766839Y-111695930D01*
X106245560Y-112174651D01*
X106248260Y-112177780D01*
X106250455Y-112182269D01*
X106257158Y-112188487D01*
X106286702Y-112215893D01*
X106289378Y-112218469D01*
X106303157Y-112232248D01*
X106306867Y-112234793D01*
X106310780Y-112238229D01*
X106332526Y-112258401D01*
X106341012Y-112261787D01*
X106341014Y-112261788D01*
X106343217Y-112262667D01*
X106362528Y-112272978D01*
X106364487Y-112274322D01*
X106364490Y-112274323D01*
X106372026Y-112279493D01*
X106380918Y-112281603D01*
X106380920Y-112281604D01*
X106397946Y-112285644D01*
X106411765Y-112290014D01*
X106436502Y-112299883D01*
X106442795Y-112300500D01*
X106448965Y-112300500D01*
X106471821Y-112303175D01*
X106480946Y-112305340D01*
X106509868Y-112301404D01*
X106523217Y-112300500D01*
X106741900Y-112300500D01*
X106800091Y-112319407D01*
X106836055Y-112368907D01*
X106836055Y-112430093D01*
X106803933Y-112476655D01*
X106765225Y-112507777D01*
X106765223Y-112507779D01*
X106761447Y-112510815D01*
X106758333Y-112514526D01*
X106758332Y-112514527D01*
X106671713Y-112617756D01*
X106629024Y-112668630D01*
X106626689Y-112672878D01*
X106626688Y-112672879D01*
X106619955Y-112685126D01*
X106529776Y-112849162D01*
X106528313Y-112853775D01*
X106528311Y-112853779D01*
X106518727Y-112883992D01*
X106467484Y-113045532D01*
X106466944Y-113050344D01*
X106466944Y-113050345D01*
X106445394Y-113242474D01*
X106444520Y-113250262D01*
X106451905Y-113338210D01*
X106459400Y-113427456D01*
X106461759Y-113455553D01*
X106463092Y-113460201D01*
X106463092Y-113460202D01*
X106479837Y-113518597D01*
X106518544Y-113653586D01*
X106612712Y-113836818D01*
X106740677Y-113998270D01*
X106744357Y-114001402D01*
X106744359Y-114001404D01*
X106803939Y-114052110D01*
X106897564Y-114131791D01*
X106901787Y-114134151D01*
X106901791Y-114134154D01*
X107010829Y-114195093D01*
X107077398Y-114232297D01*
X107081996Y-114233791D01*
X107268724Y-114294463D01*
X107268726Y-114294464D01*
X107273329Y-114295959D01*
X107477894Y-114320351D01*
X107482716Y-114319980D01*
X107482719Y-114319980D01*
X107550541Y-114314761D01*
X107683300Y-114304546D01*
X107881725Y-114249145D01*
X107886038Y-114246966D01*
X107886044Y-114246964D01*
X108061289Y-114158441D01*
X108061291Y-114158440D01*
X108065610Y-114156258D01*
X108075114Y-114148833D01*
X108224135Y-114032406D01*
X108224139Y-114032402D01*
X108227951Y-114029424D01*
X108299675Y-113946330D01*
X108352011Y-113914634D01*
X108412982Y-113919753D01*
X108444622Y-113941014D01*
X108501658Y-113998050D01*
X108508595Y-114001585D01*
X108508597Y-114001586D01*
X108569085Y-114032406D01*
X108614696Y-114055646D01*
X108622390Y-114056865D01*
X108622391Y-114056865D01*
X108732303Y-114074273D01*
X108740000Y-114075492D01*
X108747697Y-114074273D01*
X108857609Y-114056865D01*
X108857610Y-114056865D01*
X108865304Y-114055646D01*
X108910915Y-114032406D01*
X108971403Y-114001586D01*
X108971405Y-114001585D01*
X108978342Y-113998050D01*
X109068050Y-113908342D01*
X109070555Y-113910847D01*
X109107715Y-113883855D01*
X109168900Y-113883862D01*
X109215882Y-113916519D01*
X109280677Y-113998270D01*
X109284357Y-114001402D01*
X109284359Y-114001404D01*
X109343939Y-114052110D01*
X109437564Y-114131791D01*
X109441787Y-114134151D01*
X109441791Y-114134154D01*
X109550829Y-114195093D01*
X109617398Y-114232297D01*
X109621996Y-114233791D01*
X109808724Y-114294463D01*
X109808726Y-114294464D01*
X109813329Y-114295959D01*
X110017894Y-114320351D01*
X110022716Y-114319980D01*
X110022719Y-114319980D01*
X110090541Y-114314761D01*
X110223300Y-114304546D01*
X110421725Y-114249145D01*
X110426038Y-114246966D01*
X110426044Y-114246964D01*
X110601289Y-114158441D01*
X110601291Y-114158440D01*
X110605610Y-114156258D01*
X110615114Y-114148833D01*
X110764135Y-114032406D01*
X110764139Y-114032402D01*
X110767951Y-114029424D01*
X110778769Y-114016892D01*
X110844264Y-113941014D01*
X110902564Y-113873472D01*
X110905895Y-113867609D01*
X111001934Y-113698550D01*
X111001935Y-113698547D01*
X111004323Y-113694344D01*
X111017882Y-113653586D01*
X111067824Y-113503454D01*
X111067824Y-113503452D01*
X111069351Y-113498863D01*
X111070677Y-113488371D01*
X111094823Y-113297228D01*
X111095171Y-113294474D01*
X111095275Y-113287078D01*
X111095544Y-113267776D01*
X111095583Y-113265000D01*
X111095313Y-113262244D01*
X111075952Y-113064780D01*
X111075951Y-113064776D01*
X111075480Y-113059970D01*
X111055532Y-112993900D01*
X111056814Y-112932729D01*
X111093806Y-112883992D01*
X111152380Y-112866308D01*
X111210162Y-112886429D01*
X111220311Y-112895282D01*
X111496115Y-113171086D01*
X111523892Y-113225603D01*
X111525101Y-113242474D01*
X111525059Y-113245452D01*
X111524520Y-113250262D01*
X111531905Y-113338210D01*
X111539400Y-113427456D01*
X111541759Y-113455553D01*
X111543092Y-113460201D01*
X111543092Y-113460202D01*
X111559837Y-113518597D01*
X111598544Y-113653586D01*
X111692712Y-113836818D01*
X111820677Y-113998270D01*
X111824357Y-114001402D01*
X111824359Y-114001404D01*
X111883939Y-114052110D01*
X111977564Y-114131791D01*
X111981787Y-114134151D01*
X111981791Y-114134154D01*
X112090829Y-114195093D01*
X112157398Y-114232297D01*
X112161996Y-114233791D01*
X112348724Y-114294463D01*
X112348726Y-114294464D01*
X112353329Y-114295959D01*
X112557894Y-114320351D01*
X112562716Y-114319980D01*
X112562719Y-114319980D01*
X112630541Y-114314761D01*
X112763300Y-114304546D01*
X112961725Y-114249145D01*
X112966038Y-114246966D01*
X112966044Y-114246964D01*
X113141289Y-114158441D01*
X113141291Y-114158440D01*
X113145610Y-114156258D01*
X113155114Y-114148833D01*
X113304135Y-114032406D01*
X113304139Y-114032402D01*
X113307951Y-114029424D01*
X113318769Y-114016892D01*
X113384264Y-113941014D01*
X113442564Y-113873472D01*
X113445895Y-113867609D01*
X113541934Y-113698550D01*
X113541935Y-113698547D01*
X113544323Y-113694344D01*
X113557882Y-113653586D01*
X113607824Y-113503454D01*
X113607824Y-113503452D01*
X113609351Y-113498863D01*
X113610677Y-113488371D01*
X113634823Y-113297228D01*
X113635171Y-113294474D01*
X113635275Y-113287078D01*
X113635544Y-113267776D01*
X113635583Y-113265000D01*
X113635313Y-113262244D01*
X113634138Y-113250262D01*
X114064520Y-113250262D01*
X114071905Y-113338210D01*
X114079400Y-113427456D01*
X114081759Y-113455553D01*
X114083092Y-113460201D01*
X114083092Y-113460202D01*
X114099837Y-113518597D01*
X114138544Y-113653586D01*
X114232712Y-113836818D01*
X114360677Y-113998270D01*
X114364357Y-114001402D01*
X114364359Y-114001404D01*
X114423939Y-114052110D01*
X114517564Y-114131791D01*
X114521787Y-114134151D01*
X114521791Y-114134154D01*
X114630829Y-114195093D01*
X114697398Y-114232297D01*
X114701996Y-114233791D01*
X114888724Y-114294463D01*
X114888726Y-114294464D01*
X114893329Y-114295959D01*
X115097894Y-114320351D01*
X115102716Y-114319980D01*
X115102719Y-114319980D01*
X115170541Y-114314761D01*
X115303300Y-114304546D01*
X115501725Y-114249145D01*
X115506038Y-114246966D01*
X115506044Y-114246964D01*
X115681289Y-114158441D01*
X115681291Y-114158440D01*
X115685610Y-114156258D01*
X115695114Y-114148833D01*
X115844135Y-114032406D01*
X115844139Y-114032402D01*
X115847951Y-114029424D01*
X115858769Y-114016892D01*
X115924264Y-113941014D01*
X115982564Y-113873472D01*
X115985895Y-113867609D01*
X116081934Y-113698550D01*
X116081935Y-113698547D01*
X116084323Y-113694344D01*
X116097882Y-113653586D01*
X116147824Y-113503454D01*
X116147824Y-113503452D01*
X116149351Y-113498863D01*
X116150677Y-113488371D01*
X116174823Y-113297228D01*
X116175171Y-113294474D01*
X116175275Y-113287078D01*
X116175544Y-113267776D01*
X116175583Y-113265000D01*
X116175313Y-113262244D01*
X116155952Y-113064780D01*
X116155951Y-113064776D01*
X116155480Y-113059970D01*
X116135533Y-112993901D01*
X116101821Y-112882244D01*
X116095935Y-112862749D01*
X115999218Y-112680849D01*
X115869011Y-112521200D01*
X115865035Y-112517911D01*
X115714002Y-112392965D01*
X115714000Y-112392964D01*
X115710275Y-112389882D01*
X115557073Y-112307046D01*
X115533309Y-112294197D01*
X115533308Y-112294197D01*
X115529055Y-112291897D01*
X115434628Y-112262667D01*
X115336875Y-112232407D01*
X115336871Y-112232406D01*
X115332254Y-112230977D01*
X115327446Y-112230472D01*
X115327443Y-112230471D01*
X115132185Y-112209949D01*
X115132183Y-112209949D01*
X115127369Y-112209443D01*
X115067354Y-112214905D01*
X114927022Y-112227675D01*
X114927017Y-112227676D01*
X114922203Y-112228114D01*
X114724572Y-112286280D01*
X114720288Y-112288519D01*
X114720287Y-112288520D01*
X114661206Y-112319407D01*
X114542002Y-112381726D01*
X114538231Y-112384758D01*
X114385220Y-112507781D01*
X114385217Y-112507783D01*
X114381447Y-112510815D01*
X114378333Y-112514526D01*
X114378332Y-112514527D01*
X114291713Y-112617756D01*
X114249024Y-112668630D01*
X114246689Y-112672878D01*
X114246688Y-112672879D01*
X114239955Y-112685126D01*
X114149776Y-112849162D01*
X114148313Y-112853775D01*
X114148311Y-112853779D01*
X114138727Y-112883992D01*
X114087484Y-113045532D01*
X114086944Y-113050344D01*
X114086944Y-113050345D01*
X114065394Y-113242474D01*
X114064520Y-113250262D01*
X113634138Y-113250262D01*
X113615952Y-113064780D01*
X113615951Y-113064776D01*
X113615480Y-113059970D01*
X113595533Y-112993901D01*
X113561821Y-112882244D01*
X113555935Y-112862749D01*
X113459218Y-112680849D01*
X113329011Y-112521200D01*
X113325035Y-112517911D01*
X113174002Y-112392965D01*
X113174000Y-112392964D01*
X113170275Y-112389882D01*
X113017073Y-112307046D01*
X112993309Y-112294197D01*
X112993308Y-112294197D01*
X112989055Y-112291897D01*
X112894628Y-112262667D01*
X112796875Y-112232407D01*
X112796871Y-112232406D01*
X112792254Y-112230977D01*
X112787446Y-112230472D01*
X112787443Y-112230471D01*
X112592185Y-112209949D01*
X112592183Y-112209949D01*
X112587369Y-112209443D01*
X112527354Y-112214905D01*
X112387022Y-112227675D01*
X112387017Y-112227676D01*
X112382203Y-112228114D01*
X112184572Y-112286280D01*
X112180288Y-112288519D01*
X112180287Y-112288520D01*
X112121206Y-112319407D01*
X112002002Y-112381726D01*
X111841447Y-112510815D01*
X111838339Y-112514519D01*
X111834875Y-112517911D01*
X111833600Y-112516609D01*
X111787989Y-112545113D01*
X111726952Y-112540848D01*
X111694030Y-112519059D01*
X111000320Y-111825349D01*
X110997620Y-111822220D01*
X110995425Y-111817731D01*
X110959178Y-111784107D01*
X110956502Y-111781531D01*
X110942723Y-111767752D01*
X110939013Y-111765207D01*
X110935100Y-111761771D01*
X110920055Y-111747815D01*
X110913354Y-111741599D01*
X110902664Y-111737334D01*
X110883348Y-111727020D01*
X110881393Y-111725679D01*
X110881390Y-111725678D01*
X110873854Y-111720508D01*
X110847941Y-111714359D01*
X110834116Y-111709986D01*
X110815868Y-111702706D01*
X110815866Y-111702706D01*
X110809378Y-111700117D01*
X110803085Y-111699500D01*
X110796916Y-111699500D01*
X110774058Y-111696825D01*
X110766130Y-111694944D01*
X110713878Y-111663111D01*
X110690316Y-111606644D01*
X110704444Y-111547112D01*
X110728038Y-111520608D01*
X110767951Y-111489424D01*
X110771213Y-111485646D01*
X110836083Y-111410492D01*
X110902564Y-111333472D01*
X110910276Y-111319897D01*
X111001934Y-111158550D01*
X111001935Y-111158547D01*
X111004323Y-111154344D01*
X111006268Y-111148499D01*
X111067824Y-110963454D01*
X111067824Y-110963452D01*
X111069351Y-110958863D01*
X111079167Y-110881165D01*
X111094823Y-110757228D01*
X111095171Y-110754474D01*
X111095583Y-110725000D01*
X111092713Y-110695727D01*
X111075952Y-110524780D01*
X111075951Y-110524776D01*
X111075480Y-110519970D01*
X111015935Y-110322749D01*
X110919218Y-110140849D01*
X110834578Y-110037070D01*
X110812451Y-109980027D01*
X110828081Y-109920871D01*
X110875496Y-109882200D01*
X110911297Y-109875500D01*
X111709120Y-109875500D01*
X111767311Y-109894407D01*
X111803275Y-109943907D01*
X111803275Y-110005093D01*
X111784958Y-110038135D01*
X111709024Y-110128630D01*
X111706689Y-110132878D01*
X111706688Y-110132879D01*
X111699955Y-110145126D01*
X111609776Y-110309162D01*
X111608313Y-110313775D01*
X111608311Y-110313779D01*
X111585514Y-110385646D01*
X111547484Y-110505532D01*
X111546944Y-110510344D01*
X111546944Y-110510345D01*
X111545865Y-110519970D01*
X111524520Y-110710262D01*
X111528000Y-110751699D01*
X111539495Y-110888587D01*
X111541759Y-110915553D01*
X111598544Y-111113586D01*
X111692712Y-111296818D01*
X111820677Y-111458270D01*
X111824357Y-111461402D01*
X111824359Y-111461404D01*
X111918946Y-111541903D01*
X111977564Y-111591791D01*
X111981787Y-111594151D01*
X111981791Y-111594154D01*
X112087498Y-111653231D01*
X112157398Y-111692297D01*
X112161996Y-111693791D01*
X112348724Y-111754463D01*
X112348726Y-111754464D01*
X112353329Y-111755959D01*
X112557894Y-111780351D01*
X112562716Y-111779980D01*
X112562719Y-111779980D01*
X112630541Y-111774761D01*
X112763300Y-111764546D01*
X112961725Y-111709145D01*
X112966038Y-111706966D01*
X112966044Y-111706964D01*
X113141289Y-111618441D01*
X113141291Y-111618440D01*
X113145610Y-111616258D01*
X113149427Y-111613276D01*
X113304135Y-111492406D01*
X113304139Y-111492402D01*
X113307951Y-111489424D01*
X113311213Y-111485646D01*
X113376083Y-111410492D01*
X113442564Y-111333472D01*
X113450276Y-111319897D01*
X113541934Y-111158550D01*
X113541935Y-111158547D01*
X113544323Y-111154344D01*
X113546268Y-111148499D01*
X113607824Y-110963454D01*
X113607824Y-110963452D01*
X113609351Y-110958863D01*
X113619167Y-110881165D01*
X113634823Y-110757228D01*
X113635171Y-110754474D01*
X113635583Y-110725000D01*
X113632713Y-110695727D01*
X113615952Y-110524780D01*
X113615951Y-110524776D01*
X113615480Y-110519970D01*
X113555935Y-110322749D01*
X113459218Y-110140849D01*
X113374578Y-110037070D01*
X113352451Y-109980027D01*
X113368081Y-109920871D01*
X113415496Y-109882200D01*
X113451297Y-109875500D01*
X114249120Y-109875500D01*
X114307311Y-109894407D01*
X114343275Y-109943907D01*
X114343275Y-110005093D01*
X114324958Y-110038135D01*
X114249024Y-110128630D01*
X114246689Y-110132878D01*
X114246688Y-110132879D01*
X114239955Y-110145126D01*
X114149776Y-110309162D01*
X114148313Y-110313775D01*
X114148311Y-110313779D01*
X114125514Y-110385646D01*
X114087484Y-110505532D01*
X114086944Y-110510344D01*
X114086944Y-110510345D01*
X114085865Y-110519970D01*
X114064520Y-110710262D01*
X114068000Y-110751699D01*
X114079495Y-110888587D01*
X114081759Y-110915553D01*
X114138544Y-111113586D01*
X114232712Y-111296818D01*
X114360677Y-111458270D01*
X114364357Y-111461402D01*
X114364359Y-111461404D01*
X114458946Y-111541903D01*
X114517564Y-111591791D01*
X114521787Y-111594151D01*
X114521791Y-111594154D01*
X114627498Y-111653231D01*
X114697398Y-111692297D01*
X114701996Y-111693791D01*
X114888724Y-111754463D01*
X114888726Y-111754464D01*
X114893329Y-111755959D01*
X115097894Y-111780351D01*
X115102716Y-111779980D01*
X115102719Y-111779980D01*
X115170541Y-111774761D01*
X115303300Y-111764546D01*
X115501725Y-111709145D01*
X115506038Y-111706966D01*
X115506044Y-111706964D01*
X115681289Y-111618441D01*
X115681291Y-111618440D01*
X115685610Y-111616258D01*
X115689427Y-111613276D01*
X115844135Y-111492406D01*
X115844139Y-111492402D01*
X115847951Y-111489424D01*
X115851213Y-111485646D01*
X115916083Y-111410492D01*
X115982564Y-111333472D01*
X115990276Y-111319896D01*
X116035457Y-111278639D01*
X116096261Y-111271818D01*
X116149462Y-111302039D01*
X116164564Y-111323849D01*
X116168410Y-111331397D01*
X116168414Y-111331403D01*
X116171950Y-111338342D01*
X116261658Y-111428050D01*
X116268595Y-111431585D01*
X116268597Y-111431586D01*
X116336105Y-111465983D01*
X116374696Y-111485646D01*
X116382390Y-111486865D01*
X116382391Y-111486865D01*
X116492303Y-111504273D01*
X116500000Y-111505492D01*
X116507697Y-111504273D01*
X116617609Y-111486865D01*
X116617610Y-111486865D01*
X116625304Y-111485646D01*
X116663895Y-111465983D01*
X116731403Y-111431586D01*
X116731405Y-111431585D01*
X116738342Y-111428050D01*
X116828050Y-111338342D01*
X116832676Y-111329264D01*
X116882110Y-111232244D01*
X116882110Y-111232243D01*
X116885646Y-111225304D01*
X116891159Y-111190500D01*
X116904273Y-111107697D01*
X116905492Y-111100000D01*
X116885646Y-110974696D01*
X116877579Y-110958863D01*
X116831586Y-110868597D01*
X116831585Y-110868595D01*
X116828050Y-110861658D01*
X116738342Y-110771950D01*
X116731405Y-110768415D01*
X116731403Y-110768414D01*
X116632244Y-110717890D01*
X116632243Y-110717890D01*
X116625304Y-110714354D01*
X116617610Y-110713135D01*
X116617609Y-110713135D01*
X116507697Y-110695727D01*
X116500000Y-110694508D01*
X116492303Y-110695727D01*
X116382391Y-110713135D01*
X116382390Y-110713135D01*
X116374696Y-110714354D01*
X116367757Y-110717890D01*
X116367756Y-110717890D01*
X116313374Y-110745599D01*
X116252942Y-110755170D01*
X116198425Y-110727392D01*
X116169901Y-110667049D01*
X116155952Y-110524781D01*
X116155951Y-110524778D01*
X116155480Y-110519970D01*
X116118847Y-110398636D01*
X116120129Y-110337464D01*
X116157121Y-110288728D01*
X116215695Y-110271044D01*
X116273477Y-110291165D01*
X116283626Y-110300018D01*
X116311658Y-110328050D01*
X116318595Y-110331585D01*
X116318597Y-110331586D01*
X116417756Y-110382110D01*
X116424696Y-110385646D01*
X116432390Y-110386865D01*
X116432391Y-110386865D01*
X116542303Y-110404273D01*
X116550000Y-110405492D01*
X116557697Y-110404273D01*
X116667609Y-110386865D01*
X116667610Y-110386865D01*
X116675304Y-110385646D01*
X116682244Y-110382110D01*
X116781403Y-110331586D01*
X116781405Y-110331585D01*
X116788342Y-110328050D01*
X116878050Y-110238342D01*
X116884639Y-110225412D01*
X116932110Y-110132244D01*
X116932110Y-110132243D01*
X116935646Y-110125304D01*
X116938255Y-110108835D01*
X116954273Y-110007697D01*
X116955492Y-110000000D01*
X116943614Y-109925004D01*
X116936865Y-109882391D01*
X116936865Y-109882390D01*
X116935646Y-109874696D01*
X116907557Y-109819568D01*
X116881586Y-109768597D01*
X116881585Y-109768595D01*
X116878050Y-109761658D01*
X116788342Y-109671950D01*
X116781405Y-109668415D01*
X116781403Y-109668414D01*
X116682244Y-109617890D01*
X116682243Y-109617890D01*
X116675304Y-109614354D01*
X116667611Y-109613136D01*
X116667609Y-109613135D01*
X116604917Y-109603206D01*
X116550400Y-109575429D01*
X116375320Y-109400349D01*
X116372620Y-109397220D01*
X116370425Y-109392731D01*
X116334178Y-109359107D01*
X116331502Y-109356531D01*
X116317723Y-109342752D01*
X116314013Y-109340207D01*
X116310100Y-109336771D01*
X116295055Y-109322815D01*
X116288354Y-109316599D01*
X116277664Y-109312334D01*
X116258348Y-109302020D01*
X116256393Y-109300679D01*
X116256390Y-109300678D01*
X116248854Y-109295508D01*
X116222941Y-109289359D01*
X116209116Y-109284986D01*
X116190868Y-109277706D01*
X116190866Y-109277706D01*
X116184378Y-109275117D01*
X116178085Y-109274500D01*
X116171916Y-109274500D01*
X116149057Y-109271825D01*
X116148827Y-109271770D01*
X116148825Y-109271770D01*
X116139934Y-109269660D01*
X116111013Y-109273596D01*
X116097663Y-109274500D01*
X108990479Y-109274500D01*
X108932288Y-109255593D01*
X108920476Y-109245504D01*
X108779497Y-109104526D01*
X108751719Y-109050009D01*
X108750500Y-109034522D01*
X108750500Y-108225484D01*
X112276393Y-108225484D01*
X112277612Y-108233181D01*
X112292590Y-108327746D01*
X112296239Y-108350788D01*
X112353835Y-108463826D01*
X112443543Y-108553534D01*
X112450480Y-108557069D01*
X112450482Y-108557070D01*
X112505298Y-108585000D01*
X112556581Y-108611130D01*
X112564275Y-108612349D01*
X112564276Y-108612349D01*
X112674188Y-108629757D01*
X112681885Y-108630976D01*
X112689582Y-108629757D01*
X112799494Y-108612349D01*
X112799495Y-108612349D01*
X112807189Y-108611130D01*
X112858472Y-108585000D01*
X112913288Y-108557070D01*
X112913290Y-108557069D01*
X112920227Y-108553534D01*
X113009935Y-108463826D01*
X113067531Y-108350788D01*
X113071181Y-108327746D01*
X113086158Y-108233181D01*
X113087377Y-108225484D01*
X113070140Y-108116652D01*
X113068750Y-108107875D01*
X113068750Y-108107874D01*
X113067531Y-108100180D01*
X113009935Y-107987142D01*
X112920227Y-107897434D01*
X112913290Y-107893899D01*
X112913288Y-107893898D01*
X112814129Y-107843374D01*
X112814128Y-107843374D01*
X112807189Y-107839838D01*
X112799495Y-107838619D01*
X112799494Y-107838619D01*
X112689582Y-107821211D01*
X112681885Y-107819992D01*
X112674188Y-107821211D01*
X112564276Y-107838619D01*
X112564275Y-107838619D01*
X112556581Y-107839838D01*
X112549642Y-107843374D01*
X112549641Y-107843374D01*
X112450482Y-107893898D01*
X112450480Y-107893899D01*
X112443543Y-107897434D01*
X112353835Y-107987142D01*
X112296239Y-108100180D01*
X112295020Y-108107874D01*
X112295020Y-108107875D01*
X112293630Y-108116652D01*
X112276393Y-108225484D01*
X108750500Y-108225484D01*
X108750500Y-107624027D01*
X108769407Y-107565836D01*
X108780572Y-107554669D01*
X108779745Y-107553842D01*
X108869453Y-107464134D01*
X108875586Y-107452099D01*
X108923513Y-107358036D01*
X108923513Y-107358035D01*
X108927049Y-107351096D01*
X108936130Y-107293764D01*
X108945676Y-107233489D01*
X108946895Y-107225792D01*
X108945676Y-107218095D01*
X108928268Y-107108183D01*
X108928268Y-107108182D01*
X108927049Y-107100488D01*
X108884002Y-107016003D01*
X108872989Y-106994389D01*
X108872988Y-106994387D01*
X108869453Y-106987450D01*
X108779745Y-106897742D01*
X108772808Y-106894207D01*
X108772806Y-106894206D01*
X108673647Y-106843682D01*
X108673646Y-106843682D01*
X108666707Y-106840146D01*
X108659013Y-106838927D01*
X108659012Y-106838927D01*
X108549100Y-106821519D01*
X108541403Y-106820300D01*
X108533706Y-106821519D01*
X108423794Y-106838927D01*
X108423793Y-106838927D01*
X108416099Y-106840146D01*
X108409160Y-106843682D01*
X108409159Y-106843682D01*
X108310000Y-106894206D01*
X108309998Y-106894207D01*
X108303061Y-106897742D01*
X108213353Y-106987450D01*
X108209818Y-106994387D01*
X108209817Y-106994389D01*
X108198804Y-107016003D01*
X108155757Y-107100488D01*
X108154538Y-107108182D01*
X108154538Y-107108183D01*
X108137130Y-107218095D01*
X108135911Y-107225792D01*
X108137130Y-107233488D01*
X108137130Y-107233489D01*
X108145133Y-107284019D01*
X108145850Y-107297249D01*
X108144660Y-107302261D01*
X108145893Y-107311319D01*
X108148596Y-107331182D01*
X108149500Y-107344532D01*
X108149500Y-109146492D01*
X108149197Y-109150617D01*
X108147575Y-109155342D01*
X108147918Y-109164476D01*
X108149430Y-109204761D01*
X108149500Y-109208474D01*
X108149500Y-109227948D01*
X108150325Y-109232378D01*
X108150661Y-109237571D01*
X108151774Y-109267208D01*
X108155380Y-109275602D01*
X108155381Y-109275605D01*
X108156317Y-109277783D01*
X108162683Y-109298734D01*
X108164791Y-109310053D01*
X108169588Y-109317835D01*
X108178768Y-109332728D01*
X108185451Y-109345595D01*
X108195964Y-109370063D01*
X108199978Y-109374949D01*
X108204342Y-109379313D01*
X108218613Y-109397368D01*
X108223532Y-109405348D01*
X108246769Y-109423018D01*
X108256839Y-109431810D01*
X108330525Y-109505496D01*
X108358302Y-109560013D01*
X108348731Y-109620445D01*
X108305466Y-109663710D01*
X108260521Y-109674500D01*
X107793165Y-109674500D01*
X107734974Y-109655593D01*
X107699010Y-109606093D01*
X107699010Y-109544907D01*
X107734974Y-109495407D01*
X107748220Y-109487290D01*
X107773982Y-109474164D01*
X107773984Y-109474163D01*
X107780921Y-109470628D01*
X107870629Y-109380920D01*
X107881744Y-109359107D01*
X107924689Y-109274822D01*
X107924689Y-109274821D01*
X107928225Y-109267882D01*
X107929779Y-109258075D01*
X107946852Y-109150275D01*
X107948071Y-109142578D01*
X107928225Y-109017274D01*
X107894028Y-108950159D01*
X107874165Y-108911175D01*
X107874164Y-108911173D01*
X107870629Y-108904236D01*
X107780921Y-108814528D01*
X107773984Y-108810993D01*
X107773982Y-108810992D01*
X107674823Y-108760468D01*
X107674822Y-108760468D01*
X107667883Y-108756932D01*
X107660189Y-108755713D01*
X107660188Y-108755713D01*
X107550276Y-108738305D01*
X107542579Y-108737086D01*
X107534882Y-108738305D01*
X107424970Y-108755713D01*
X107424969Y-108755713D01*
X107417275Y-108756932D01*
X107410336Y-108760468D01*
X107410335Y-108760468D01*
X107311176Y-108810992D01*
X107311174Y-108810993D01*
X107304237Y-108814528D01*
X107214529Y-108904236D01*
X107210994Y-108911173D01*
X107210993Y-108911175D01*
X107191130Y-108950159D01*
X107156933Y-109017274D01*
X107137087Y-109142578D01*
X107138306Y-109150275D01*
X107155380Y-109258075D01*
X107156933Y-109267882D01*
X107160469Y-109274821D01*
X107160469Y-109274822D01*
X107203415Y-109359107D01*
X107214529Y-109380920D01*
X107304237Y-109470628D01*
X107311174Y-109474163D01*
X107311176Y-109474164D01*
X107336938Y-109487290D01*
X107380203Y-109530555D01*
X107389774Y-109590987D01*
X107361997Y-109645504D01*
X107307480Y-109673281D01*
X107291993Y-109674500D01*
X106630252Y-109674500D01*
X106604005Y-109679721D01*
X106581334Y-109684230D01*
X106581332Y-109684231D01*
X106571769Y-109686133D01*
X106505448Y-109730448D01*
X106461133Y-109796769D01*
X106459231Y-109806332D01*
X106459230Y-109806334D01*
X106456598Y-109819568D01*
X106426701Y-109872952D01*
X106371136Y-109898568D01*
X106311127Y-109886631D01*
X106269594Y-109841701D01*
X106260500Y-109800254D01*
X106260500Y-108169740D01*
X106664248Y-108169740D01*
X106684094Y-108295044D01*
X106687630Y-108301983D01*
X106687630Y-108301984D01*
X106700757Y-108327746D01*
X106741690Y-108408082D01*
X106831398Y-108497790D01*
X106838335Y-108501325D01*
X106838337Y-108501326D01*
X106893630Y-108529499D01*
X106944436Y-108555386D01*
X106952130Y-108556605D01*
X106952131Y-108556605D01*
X107062043Y-108574013D01*
X107069740Y-108575232D01*
X107077437Y-108574013D01*
X107187349Y-108556605D01*
X107187350Y-108556605D01*
X107195044Y-108555386D01*
X107245850Y-108529499D01*
X107301143Y-108501326D01*
X107301145Y-108501325D01*
X107308082Y-108497790D01*
X107397790Y-108408082D01*
X107438724Y-108327746D01*
X107451850Y-108301984D01*
X107451850Y-108301983D01*
X107455386Y-108295044D01*
X107475232Y-108169740D01*
X107464215Y-108100180D01*
X107456605Y-108052131D01*
X107456605Y-108052130D01*
X107455386Y-108044436D01*
X107397790Y-107931398D01*
X107308082Y-107841690D01*
X107301145Y-107838155D01*
X107301143Y-107838154D01*
X107201984Y-107787630D01*
X107201983Y-107787630D01*
X107195044Y-107784094D01*
X107187350Y-107782875D01*
X107187349Y-107782875D01*
X107077437Y-107765467D01*
X107069740Y-107764248D01*
X107062043Y-107765467D01*
X106952131Y-107782875D01*
X106952130Y-107782875D01*
X106944436Y-107784094D01*
X106937497Y-107787630D01*
X106937496Y-107787630D01*
X106838337Y-107838154D01*
X106838335Y-107838155D01*
X106831398Y-107841690D01*
X106741690Y-107931398D01*
X106684094Y-108044436D01*
X106682875Y-108052130D01*
X106682875Y-108052131D01*
X106675265Y-108100180D01*
X106664248Y-108169740D01*
X106260500Y-108169740D01*
X106260500Y-104000000D01*
X110094508Y-104000000D01*
X110095727Y-104007697D01*
X110109352Y-104093720D01*
X110114354Y-104125304D01*
X110171950Y-104238342D01*
X110261658Y-104328050D01*
X110268595Y-104331585D01*
X110268597Y-104331586D01*
X110284155Y-104339513D01*
X110374696Y-104385646D01*
X110382390Y-104386865D01*
X110382391Y-104386865D01*
X110492303Y-104404273D01*
X110500000Y-104405492D01*
X110507697Y-104404273D01*
X110617609Y-104386865D01*
X110617610Y-104386865D01*
X110625304Y-104385646D01*
X110715845Y-104339513D01*
X110731403Y-104331586D01*
X110731405Y-104331585D01*
X110738342Y-104328050D01*
X110828050Y-104238342D01*
X110885646Y-104125304D01*
X110890649Y-104093720D01*
X110904273Y-104007697D01*
X110905492Y-104000000D01*
X112094508Y-104000000D01*
X112095727Y-104007697D01*
X112109352Y-104093720D01*
X112114354Y-104125304D01*
X112171950Y-104238342D01*
X112261658Y-104328050D01*
X112268595Y-104331585D01*
X112268597Y-104331586D01*
X112284155Y-104339513D01*
X112374696Y-104385646D01*
X112382390Y-104386865D01*
X112382391Y-104386865D01*
X112492303Y-104404273D01*
X112500000Y-104405492D01*
X112507697Y-104404273D01*
X112617609Y-104386865D01*
X112617610Y-104386865D01*
X112625304Y-104385646D01*
X112715845Y-104339513D01*
X112731403Y-104331586D01*
X112731405Y-104331585D01*
X112738342Y-104328050D01*
X112828050Y-104238342D01*
X112885646Y-104125304D01*
X112890649Y-104093720D01*
X112904273Y-104007697D01*
X112905492Y-104000000D01*
X112885646Y-103874696D01*
X112882110Y-103867756D01*
X112831586Y-103768597D01*
X112831585Y-103768595D01*
X112828050Y-103761658D01*
X112738342Y-103671950D01*
X112731405Y-103668415D01*
X112731403Y-103668414D01*
X112632244Y-103617890D01*
X112632243Y-103617890D01*
X112625304Y-103614354D01*
X112617610Y-103613135D01*
X112617609Y-103613135D01*
X112507697Y-103595727D01*
X112500000Y-103594508D01*
X112492303Y-103595727D01*
X112382391Y-103613135D01*
X112382390Y-103613135D01*
X112374696Y-103614354D01*
X112367757Y-103617890D01*
X112367756Y-103617890D01*
X112268597Y-103668414D01*
X112268595Y-103668415D01*
X112261658Y-103671950D01*
X112171950Y-103761658D01*
X112168415Y-103768595D01*
X112168414Y-103768597D01*
X112117890Y-103867756D01*
X112114354Y-103874696D01*
X112094508Y-104000000D01*
X110905492Y-104000000D01*
X110885646Y-103874696D01*
X110882110Y-103867756D01*
X110831586Y-103768597D01*
X110831585Y-103768595D01*
X110828050Y-103761658D01*
X110738342Y-103671950D01*
X110731405Y-103668415D01*
X110731403Y-103668414D01*
X110632244Y-103617890D01*
X110632243Y-103617890D01*
X110625304Y-103614354D01*
X110617610Y-103613135D01*
X110617609Y-103613135D01*
X110507697Y-103595727D01*
X110500000Y-103594508D01*
X110492303Y-103595727D01*
X110382391Y-103613135D01*
X110382390Y-103613135D01*
X110374696Y-103614354D01*
X110367757Y-103617890D01*
X110367756Y-103617890D01*
X110268597Y-103668414D01*
X110268595Y-103668415D01*
X110261658Y-103671950D01*
X110171950Y-103761658D01*
X110168415Y-103768595D01*
X110168414Y-103768597D01*
X110117890Y-103867756D01*
X110114354Y-103874696D01*
X110094508Y-104000000D01*
X106260500Y-104000000D01*
X106260500Y-103000000D01*
X111094508Y-103000000D01*
X111095727Y-103007697D01*
X111111875Y-103109650D01*
X111114354Y-103125304D01*
X111117890Y-103132243D01*
X111117890Y-103132244D01*
X111155777Y-103206600D01*
X111171950Y-103238342D01*
X111261658Y-103328050D01*
X111268595Y-103331585D01*
X111268597Y-103331586D01*
X111338490Y-103367198D01*
X111374696Y-103385646D01*
X111382390Y-103386865D01*
X111382391Y-103386865D01*
X111492303Y-103404273D01*
X111500000Y-103405492D01*
X111507697Y-103404273D01*
X111617609Y-103386865D01*
X111617610Y-103386865D01*
X111625304Y-103385646D01*
X111661510Y-103367198D01*
X111731403Y-103331586D01*
X111731405Y-103331585D01*
X111738342Y-103328050D01*
X111828050Y-103238342D01*
X111840302Y-103214297D01*
X116058805Y-103214297D01*
X116060024Y-103221994D01*
X116077382Y-103331586D01*
X116078651Y-103339601D01*
X116082187Y-103346540D01*
X116082187Y-103346541D01*
X116132565Y-103445412D01*
X116136247Y-103452639D01*
X116225955Y-103542347D01*
X116232892Y-103545882D01*
X116232894Y-103545883D01*
X116332053Y-103596407D01*
X116338993Y-103599943D01*
X116346687Y-103601162D01*
X116346688Y-103601162D01*
X116456600Y-103618570D01*
X116464297Y-103619789D01*
X116471994Y-103618570D01*
X116581906Y-103601162D01*
X116581907Y-103601162D01*
X116589601Y-103599943D01*
X116596541Y-103596407D01*
X116695700Y-103545883D01*
X116695702Y-103545882D01*
X116702639Y-103542347D01*
X116708145Y-103536841D01*
X116708149Y-103536838D01*
X116754315Y-103490673D01*
X116808832Y-103462896D01*
X116869264Y-103472468D01*
X116894322Y-103490673D01*
X116973593Y-103569944D01*
X116980530Y-103573479D01*
X116980532Y-103573480D01*
X117060752Y-103614354D01*
X117086631Y-103627540D01*
X117094325Y-103628759D01*
X117094326Y-103628759D01*
X117204238Y-103646167D01*
X117211935Y-103647386D01*
X117219632Y-103646167D01*
X117329544Y-103628759D01*
X117329545Y-103628759D01*
X117337239Y-103627540D01*
X117363118Y-103614354D01*
X117443338Y-103573480D01*
X117443340Y-103573479D01*
X117450277Y-103569944D01*
X117539985Y-103480236D01*
X117548821Y-103462896D01*
X117594045Y-103374138D01*
X117594045Y-103374137D01*
X117597581Y-103367198D01*
X117603222Y-103331586D01*
X117616208Y-103249591D01*
X117617427Y-103241894D01*
X117611837Y-103206600D01*
X117598800Y-103124285D01*
X117598800Y-103124284D01*
X117597581Y-103116590D01*
X117594045Y-103109650D01*
X117543521Y-103010491D01*
X117543520Y-103010489D01*
X117539985Y-103003552D01*
X117450277Y-102913844D01*
X117443340Y-102910309D01*
X117443338Y-102910308D01*
X117344179Y-102859784D01*
X117344178Y-102859784D01*
X117337239Y-102856248D01*
X117329545Y-102855029D01*
X117329544Y-102855029D01*
X117219632Y-102837621D01*
X117211935Y-102836402D01*
X117204238Y-102837621D01*
X117094326Y-102855029D01*
X117094325Y-102855029D01*
X117086631Y-102856248D01*
X117079692Y-102859784D01*
X117079691Y-102859784D01*
X116980532Y-102910308D01*
X116980530Y-102910309D01*
X116973593Y-102913844D01*
X116968087Y-102919350D01*
X116968083Y-102919353D01*
X116921919Y-102965518D01*
X116867403Y-102993296D01*
X116806971Y-102983725D01*
X116781911Y-102965519D01*
X116702639Y-102886247D01*
X116695702Y-102882712D01*
X116695700Y-102882711D01*
X116596541Y-102832187D01*
X116596540Y-102832187D01*
X116589601Y-102828651D01*
X116581907Y-102827432D01*
X116581906Y-102827432D01*
X116471994Y-102810024D01*
X116464297Y-102808805D01*
X116456600Y-102810024D01*
X116346688Y-102827432D01*
X116346687Y-102827432D01*
X116338993Y-102828651D01*
X116332054Y-102832187D01*
X116332053Y-102832187D01*
X116232894Y-102882711D01*
X116232892Y-102882712D01*
X116225955Y-102886247D01*
X116136247Y-102975955D01*
X116132712Y-102982892D01*
X116132711Y-102982894D01*
X116083447Y-103079580D01*
X116078651Y-103088993D01*
X116077432Y-103096687D01*
X116077432Y-103096688D01*
X116061402Y-103197901D01*
X116058805Y-103214297D01*
X111840302Y-103214297D01*
X111844224Y-103206600D01*
X111882110Y-103132244D01*
X111882110Y-103132243D01*
X111885646Y-103125304D01*
X111888126Y-103109650D01*
X111904273Y-103007697D01*
X111905492Y-103000000D01*
X111892719Y-102919353D01*
X111886865Y-102882391D01*
X111886865Y-102882390D01*
X111885646Y-102874696D01*
X111866134Y-102836402D01*
X111831586Y-102768597D01*
X111831585Y-102768595D01*
X111828050Y-102761658D01*
X111738342Y-102671950D01*
X111731405Y-102668415D01*
X111731403Y-102668414D01*
X111632244Y-102617890D01*
X111632243Y-102617890D01*
X111625304Y-102614354D01*
X111617610Y-102613135D01*
X111617609Y-102613135D01*
X111507697Y-102595727D01*
X111500000Y-102594508D01*
X111492303Y-102595727D01*
X111382391Y-102613135D01*
X111382390Y-102613135D01*
X111374696Y-102614354D01*
X111367757Y-102617890D01*
X111367756Y-102617890D01*
X111268597Y-102668414D01*
X111268595Y-102668415D01*
X111261658Y-102671950D01*
X111171950Y-102761658D01*
X111168415Y-102768595D01*
X111168414Y-102768597D01*
X111133866Y-102836402D01*
X111114354Y-102874696D01*
X111113135Y-102882390D01*
X111113135Y-102882391D01*
X111107281Y-102919353D01*
X111094508Y-103000000D01*
X106260500Y-103000000D01*
X106260500Y-102000000D01*
X110094508Y-102000000D01*
X110114354Y-102125304D01*
X110117890Y-102132243D01*
X110117890Y-102132244D01*
X110142306Y-102180162D01*
X110171950Y-102238342D01*
X110261658Y-102328050D01*
X110268595Y-102331585D01*
X110268597Y-102331586D01*
X110367756Y-102382110D01*
X110374696Y-102385646D01*
X110382390Y-102386865D01*
X110382391Y-102386865D01*
X110492303Y-102404273D01*
X110500000Y-102405492D01*
X110507697Y-102404273D01*
X110617609Y-102386865D01*
X110617610Y-102386865D01*
X110625304Y-102385646D01*
X110632244Y-102382110D01*
X110731403Y-102331586D01*
X110731405Y-102331585D01*
X110738342Y-102328050D01*
X110828050Y-102238342D01*
X110857695Y-102180162D01*
X110882110Y-102132244D01*
X110882110Y-102132243D01*
X110885646Y-102125304D01*
X110905492Y-102000000D01*
X112094508Y-102000000D01*
X112114354Y-102125304D01*
X112117890Y-102132243D01*
X112117890Y-102132244D01*
X112142306Y-102180162D01*
X112171950Y-102238342D01*
X112261658Y-102328050D01*
X112268595Y-102331585D01*
X112268597Y-102331586D01*
X112367756Y-102382110D01*
X112374696Y-102385646D01*
X112382390Y-102386865D01*
X112382391Y-102386865D01*
X112492303Y-102404273D01*
X112500000Y-102405492D01*
X112507697Y-102404273D01*
X112617609Y-102386865D01*
X112617610Y-102386865D01*
X112625304Y-102385646D01*
X112632244Y-102382110D01*
X112731403Y-102331586D01*
X112731405Y-102331585D01*
X112738342Y-102328050D01*
X112828050Y-102238342D01*
X112857695Y-102180162D01*
X112882110Y-102132244D01*
X112882110Y-102132243D01*
X112885646Y-102125304D01*
X112905492Y-102000000D01*
X112885646Y-101874696D01*
X112828050Y-101761658D01*
X112738342Y-101671950D01*
X112731405Y-101668415D01*
X112731403Y-101668414D01*
X112632244Y-101617890D01*
X112632243Y-101617890D01*
X112625304Y-101614354D01*
X112617610Y-101613135D01*
X112617609Y-101613135D01*
X112507697Y-101595727D01*
X112500000Y-101594508D01*
X112492303Y-101595727D01*
X112382391Y-101613135D01*
X112382390Y-101613135D01*
X112374696Y-101614354D01*
X112367757Y-101617890D01*
X112367756Y-101617890D01*
X112268597Y-101668414D01*
X112268595Y-101668415D01*
X112261658Y-101671950D01*
X112171950Y-101761658D01*
X112114354Y-101874696D01*
X112094508Y-102000000D01*
X110905492Y-102000000D01*
X110885646Y-101874696D01*
X110828050Y-101761658D01*
X110738342Y-101671950D01*
X110731405Y-101668415D01*
X110731403Y-101668414D01*
X110632244Y-101617890D01*
X110632243Y-101617890D01*
X110625304Y-101614354D01*
X110617610Y-101613135D01*
X110617609Y-101613135D01*
X110507697Y-101595727D01*
X110500000Y-101594508D01*
X110492303Y-101595727D01*
X110382391Y-101613135D01*
X110382390Y-101613135D01*
X110374696Y-101614354D01*
X110367757Y-101617890D01*
X110367756Y-101617890D01*
X110268597Y-101668414D01*
X110268595Y-101668415D01*
X110261658Y-101671950D01*
X110171950Y-101761658D01*
X110114354Y-101874696D01*
X110094508Y-102000000D01*
X106260500Y-102000000D01*
X106260500Y-100355479D01*
X106279407Y-100297288D01*
X106289496Y-100285475D01*
X106974971Y-99600000D01*
X115344508Y-99600000D01*
X115345727Y-99607697D01*
X115362151Y-99711392D01*
X115364354Y-99725304D01*
X115421950Y-99838342D01*
X115511658Y-99928050D01*
X115518595Y-99931585D01*
X115518597Y-99931586D01*
X115567062Y-99956280D01*
X115624696Y-99985646D01*
X115632390Y-99986865D01*
X115632391Y-99986865D01*
X115742303Y-100004273D01*
X115750000Y-100005492D01*
X115757697Y-100004273D01*
X115867609Y-99986865D01*
X115867610Y-99986865D01*
X115875304Y-99985646D01*
X115932938Y-99956280D01*
X115981403Y-99931586D01*
X115981405Y-99931585D01*
X115988342Y-99928050D01*
X116078050Y-99838342D01*
X116135646Y-99725304D01*
X116137850Y-99711392D01*
X116154273Y-99607697D01*
X116155492Y-99600000D01*
X116154273Y-99592303D01*
X116136865Y-99482391D01*
X116136865Y-99482390D01*
X116135646Y-99474696D01*
X116114016Y-99432244D01*
X116081586Y-99368597D01*
X116081585Y-99368595D01*
X116078050Y-99361658D01*
X115988342Y-99271950D01*
X115981405Y-99268415D01*
X115981403Y-99268414D01*
X115882244Y-99217890D01*
X115882243Y-99217890D01*
X115875304Y-99214354D01*
X115867610Y-99213135D01*
X115867609Y-99213135D01*
X115757697Y-99195727D01*
X115750000Y-99194508D01*
X115742303Y-99195727D01*
X115632391Y-99213135D01*
X115632390Y-99213135D01*
X115624696Y-99214354D01*
X115617757Y-99217890D01*
X115617756Y-99217890D01*
X115518597Y-99268414D01*
X115518595Y-99268415D01*
X115511658Y-99271950D01*
X115421950Y-99361658D01*
X115418415Y-99368595D01*
X115418414Y-99368597D01*
X115385984Y-99432244D01*
X115364354Y-99474696D01*
X115363135Y-99482390D01*
X115363135Y-99482391D01*
X115345727Y-99592303D01*
X115344508Y-99600000D01*
X106974971Y-99600000D01*
X107886262Y-98688709D01*
X107940779Y-98660932D01*
X107956266Y-98659713D01*
X109178912Y-98659713D01*
X109237103Y-98678620D01*
X109273067Y-98728120D01*
X109276693Y-98774200D01*
X109271568Y-98806561D01*
X109263306Y-98858724D01*
X109264525Y-98866421D01*
X109278806Y-98956586D01*
X109283152Y-98984028D01*
X109286688Y-98990967D01*
X109286688Y-98990968D01*
X109333128Y-99082110D01*
X109340748Y-99097066D01*
X109430456Y-99186774D01*
X109437393Y-99190309D01*
X109437395Y-99190310D01*
X109491524Y-99217890D01*
X109543494Y-99244370D01*
X109551188Y-99245589D01*
X109551189Y-99245589D01*
X109661101Y-99262997D01*
X109668798Y-99264216D01*
X109676495Y-99262997D01*
X109786407Y-99245589D01*
X109786408Y-99245589D01*
X109794102Y-99244370D01*
X109846072Y-99217890D01*
X109900201Y-99190310D01*
X109900203Y-99190309D01*
X109907140Y-99186774D01*
X109996848Y-99097066D01*
X110004469Y-99082110D01*
X110050908Y-98990968D01*
X110050908Y-98990967D01*
X110054444Y-98984028D01*
X110059351Y-98953050D01*
X110064919Y-98917890D01*
X110073917Y-98861076D01*
X110101694Y-98806561D01*
X110156211Y-98778783D01*
X110160141Y-98778474D01*
X110162095Y-98778783D01*
X110231370Y-98767811D01*
X110279704Y-98760156D01*
X110279705Y-98760156D01*
X110287399Y-98758937D01*
X110294337Y-98755402D01*
X110294343Y-98755400D01*
X110310208Y-98747316D01*
X110370640Y-98737745D01*
X110425156Y-98765523D01*
X110443362Y-98790581D01*
X110477227Y-98857044D01*
X110480879Y-98864212D01*
X110570587Y-98953920D01*
X110577524Y-98957455D01*
X110577526Y-98957456D01*
X110674978Y-99007110D01*
X110683625Y-99011516D01*
X110691319Y-99012735D01*
X110691320Y-99012735D01*
X110801232Y-99030143D01*
X110808929Y-99031362D01*
X110816626Y-99030143D01*
X110926538Y-99012735D01*
X110926539Y-99012735D01*
X110934233Y-99011516D01*
X110942880Y-99007110D01*
X111040332Y-98957456D01*
X111040334Y-98957455D01*
X111047271Y-98953920D01*
X111052777Y-98948414D01*
X111059085Y-98943831D01*
X111060149Y-98945296D01*
X111105993Y-98921938D01*
X111166425Y-98931509D01*
X111168778Y-98932951D01*
X111169756Y-98933929D01*
X111173418Y-98935795D01*
X111173423Y-98935798D01*
X111237436Y-98968414D01*
X111282794Y-98991525D01*
X111290488Y-98992744D01*
X111290489Y-98992744D01*
X111400401Y-99010152D01*
X111408098Y-99011371D01*
X111415795Y-99010152D01*
X111525707Y-98992744D01*
X111525708Y-98992744D01*
X111533402Y-98991525D01*
X111600266Y-98957456D01*
X111639501Y-98937465D01*
X111639503Y-98937464D01*
X111646440Y-98933929D01*
X111651945Y-98928424D01*
X111651952Y-98928419D01*
X111657214Y-98923157D01*
X111711732Y-98895382D01*
X111772163Y-98904956D01*
X111797218Y-98923160D01*
X111819160Y-98945102D01*
X111826097Y-98948637D01*
X111826099Y-98948638D01*
X111910270Y-98991525D01*
X111932198Y-99002698D01*
X111939892Y-99003917D01*
X111939893Y-99003917D01*
X112049805Y-99021325D01*
X112057502Y-99022544D01*
X112065199Y-99021325D01*
X112175111Y-99003917D01*
X112175112Y-99003917D01*
X112182806Y-99002698D01*
X112204734Y-98991525D01*
X112288905Y-98948638D01*
X112288907Y-98948637D01*
X112295844Y-98945102D01*
X112305023Y-98935923D01*
X112359540Y-98908146D01*
X112419972Y-98917717D01*
X112445031Y-98935923D01*
X112462158Y-98953050D01*
X112469095Y-98956585D01*
X112469097Y-98956586D01*
X112566376Y-99006152D01*
X112575196Y-99010646D01*
X112582890Y-99011865D01*
X112582891Y-99011865D01*
X112692803Y-99029273D01*
X112700500Y-99030492D01*
X112708197Y-99029273D01*
X112818109Y-99011865D01*
X112818110Y-99011865D01*
X112825804Y-99010646D01*
X112834624Y-99006152D01*
X112931903Y-98956586D01*
X112931905Y-98956585D01*
X112938842Y-98953050D01*
X113028550Y-98863342D01*
X113044396Y-98832244D01*
X113082610Y-98757244D01*
X113082610Y-98757243D01*
X113086146Y-98750304D01*
X113090416Y-98723348D01*
X113104773Y-98632697D01*
X113105992Y-98625000D01*
X113099759Y-98585646D01*
X113087365Y-98507391D01*
X113087365Y-98507390D01*
X113086146Y-98499696D01*
X113082379Y-98492303D01*
X113032086Y-98393597D01*
X113032085Y-98393595D01*
X113028550Y-98386658D01*
X112938842Y-98296950D01*
X112931905Y-98293415D01*
X112931903Y-98293414D01*
X112832744Y-98242890D01*
X112832743Y-98242890D01*
X112825804Y-98239354D01*
X112818110Y-98238135D01*
X112818109Y-98238135D01*
X112708197Y-98220727D01*
X112700500Y-98219508D01*
X112692803Y-98220727D01*
X112582891Y-98238135D01*
X112582890Y-98238135D01*
X112575196Y-98239354D01*
X112568257Y-98242890D01*
X112568256Y-98242890D01*
X112469097Y-98293414D01*
X112469095Y-98293415D01*
X112462158Y-98296950D01*
X112452979Y-98306129D01*
X112398462Y-98333906D01*
X112338030Y-98324335D01*
X112312971Y-98306129D01*
X112295844Y-98289002D01*
X112288907Y-98285467D01*
X112288905Y-98285466D01*
X112189746Y-98234942D01*
X112189745Y-98234942D01*
X112182806Y-98231406D01*
X112175112Y-98230187D01*
X112175111Y-98230187D01*
X112065199Y-98212779D01*
X112057502Y-98211560D01*
X112049805Y-98212779D01*
X111939893Y-98230187D01*
X111939892Y-98230187D01*
X111932198Y-98231406D01*
X111925259Y-98234942D01*
X111925258Y-98234942D01*
X111826099Y-98285466D01*
X111826097Y-98285467D01*
X111819160Y-98289002D01*
X111808394Y-98299768D01*
X111753879Y-98327548D01*
X111693446Y-98317980D01*
X111668383Y-98299772D01*
X111646440Y-98277829D01*
X111639503Y-98274294D01*
X111639501Y-98274293D01*
X111540342Y-98223769D01*
X111540341Y-98223769D01*
X111533402Y-98220233D01*
X111525708Y-98219014D01*
X111525707Y-98219014D01*
X111415795Y-98201606D01*
X111408098Y-98200387D01*
X111400401Y-98201606D01*
X111290489Y-98219014D01*
X111290488Y-98219014D01*
X111282794Y-98220233D01*
X111275855Y-98223769D01*
X111275854Y-98223769D01*
X111176695Y-98274293D01*
X111176693Y-98274294D01*
X111169756Y-98277829D01*
X111164250Y-98283335D01*
X111157942Y-98287918D01*
X111156878Y-98286453D01*
X111111034Y-98309811D01*
X111050602Y-98300240D01*
X111048249Y-98298798D01*
X111047271Y-98297820D01*
X111043609Y-98295954D01*
X111043604Y-98295951D01*
X110941173Y-98243760D01*
X110941172Y-98243760D01*
X110934233Y-98240224D01*
X110926539Y-98239005D01*
X110926538Y-98239005D01*
X110816626Y-98221597D01*
X110808929Y-98220378D01*
X110801232Y-98221597D01*
X110691320Y-98239005D01*
X110691319Y-98239005D01*
X110683625Y-98240224D01*
X110676687Y-98243759D01*
X110676681Y-98243761D01*
X110660816Y-98251845D01*
X110600384Y-98261416D01*
X110545868Y-98233638D01*
X110527662Y-98208580D01*
X110493681Y-98141888D01*
X110493680Y-98141886D01*
X110490145Y-98134949D01*
X110400437Y-98045241D01*
X110393500Y-98041706D01*
X110393498Y-98041705D01*
X110294339Y-97991181D01*
X110294338Y-97991181D01*
X110287399Y-97987645D01*
X110279705Y-97986426D01*
X110279704Y-97986426D01*
X110169792Y-97969018D01*
X110162095Y-97967799D01*
X110154398Y-97969018D01*
X110044486Y-97986426D01*
X110044485Y-97986426D01*
X110036791Y-97987645D01*
X109923753Y-98045241D01*
X109922735Y-98043243D01*
X109875116Y-98058713D01*
X107844295Y-98058713D01*
X107840170Y-98058410D01*
X107835445Y-98056788D01*
X107786026Y-98058643D01*
X107782313Y-98058713D01*
X107762839Y-98058713D01*
X107758409Y-98059538D01*
X107753216Y-98059874D01*
X107737185Y-98060476D01*
X107732712Y-98060644D01*
X107723579Y-98060987D01*
X107715185Y-98064593D01*
X107715182Y-98064594D01*
X107713004Y-98065530D01*
X107692053Y-98071896D01*
X107680734Y-98074004D01*
X107662097Y-98085492D01*
X107658059Y-98087981D01*
X107645191Y-98094665D01*
X107627145Y-98102418D01*
X107627144Y-98102419D01*
X107620724Y-98105177D01*
X107615838Y-98109191D01*
X107611474Y-98113555D01*
X107593419Y-98127826D01*
X107585439Y-98132745D01*
X107567769Y-98155982D01*
X107558977Y-98166052D01*
X105785349Y-99939680D01*
X105782220Y-99942380D01*
X105777731Y-99944575D01*
X105771513Y-99951278D01*
X105744107Y-99980822D01*
X105741531Y-99983498D01*
X105727752Y-99997277D01*
X105725207Y-100000987D01*
X105721771Y-100004900D01*
X105701599Y-100026646D01*
X105698212Y-100035134D01*
X105698212Y-100035135D01*
X105697334Y-100037336D01*
X105687020Y-100056652D01*
X105685679Y-100058607D01*
X105685678Y-100058610D01*
X105680508Y-100066146D01*
X105678398Y-100075038D01*
X105674359Y-100092058D01*
X105669986Y-100105884D01*
X105662706Y-100124132D01*
X105660117Y-100130622D01*
X105659500Y-100136915D01*
X105659500Y-100143084D01*
X105656825Y-100165943D01*
X105654660Y-100175066D01*
X105200501Y-100175066D01*
X105200501Y-100060159D01*
X105197978Y-100047570D01*
X105190645Y-100010985D01*
X105190644Y-100010982D01*
X105188731Y-100001439D01*
X105155805Y-99952255D01*
X104968554Y-99765004D01*
X104940777Y-99710487D01*
X104950348Y-99650055D01*
X104968554Y-99624996D01*
X105043575Y-99549975D01*
X105098092Y-99522198D01*
X105158524Y-99531769D01*
X105183583Y-99549975D01*
X105261658Y-99628050D01*
X105268595Y-99631585D01*
X105268597Y-99631586D01*
X105343881Y-99669945D01*
X105374696Y-99685646D01*
X105382390Y-99686865D01*
X105382391Y-99686865D01*
X105492303Y-99704273D01*
X105500000Y-99705492D01*
X105507697Y-99704273D01*
X105617609Y-99686865D01*
X105617610Y-99686865D01*
X105625304Y-99685646D01*
X105656119Y-99669945D01*
X105731403Y-99631586D01*
X105731405Y-99631585D01*
X105738342Y-99628050D01*
X105828050Y-99538342D01*
X105850100Y-99495068D01*
X105882110Y-99432244D01*
X105882110Y-99432243D01*
X105885646Y-99425304D01*
X105894070Y-99372120D01*
X105904273Y-99307697D01*
X105905492Y-99300000D01*
X105904273Y-99292303D01*
X105886865Y-99182391D01*
X105886865Y-99182390D01*
X105885646Y-99174696D01*
X105878590Y-99160848D01*
X105831586Y-99068597D01*
X105831585Y-99068595D01*
X105828050Y-99061658D01*
X105738342Y-98971950D01*
X105731405Y-98968415D01*
X105731403Y-98968414D01*
X105632244Y-98917890D01*
X105632243Y-98917890D01*
X105625304Y-98914354D01*
X105617610Y-98913135D01*
X105617609Y-98913135D01*
X105507697Y-98895727D01*
X105500000Y-98894508D01*
X105492303Y-98895727D01*
X105382391Y-98913135D01*
X105382390Y-98913135D01*
X105374696Y-98914354D01*
X105367758Y-98917889D01*
X105367755Y-98917890D01*
X105344446Y-98929767D01*
X105284014Y-98939338D01*
X105229497Y-98911560D01*
X105201720Y-98857044D01*
X105200501Y-98841557D01*
X105200501Y-98790159D01*
X105198221Y-98778783D01*
X105190645Y-98740985D01*
X105190644Y-98740982D01*
X105188731Y-98731439D01*
X105155805Y-98682255D01*
X104968554Y-98495004D01*
X104940777Y-98440487D01*
X104950348Y-98380055D01*
X104968554Y-98354996D01*
X105123550Y-98200000D01*
X106244508Y-98200000D01*
X106245727Y-98207697D01*
X106262046Y-98310729D01*
X106264354Y-98325304D01*
X106267890Y-98332243D01*
X106267890Y-98332244D01*
X106313135Y-98421041D01*
X106321950Y-98438342D01*
X106411658Y-98528050D01*
X106418595Y-98531585D01*
X106418597Y-98531586D01*
X106517756Y-98582110D01*
X106524696Y-98585646D01*
X106532390Y-98586865D01*
X106532391Y-98586865D01*
X106642303Y-98604273D01*
X106650000Y-98605492D01*
X106657697Y-98604273D01*
X106767609Y-98586865D01*
X106767610Y-98586865D01*
X106775304Y-98585646D01*
X106782244Y-98582110D01*
X106881403Y-98531586D01*
X106881405Y-98531585D01*
X106888342Y-98528050D01*
X106978050Y-98438342D01*
X106986866Y-98421041D01*
X107032110Y-98332244D01*
X107032110Y-98332243D01*
X107035646Y-98325304D01*
X107037955Y-98310729D01*
X107054273Y-98207697D01*
X107055492Y-98200000D01*
X107052680Y-98182244D01*
X107036865Y-98082391D01*
X107036865Y-98082390D01*
X107035646Y-98074696D01*
X107028094Y-98059875D01*
X106981586Y-97968597D01*
X106981585Y-97968595D01*
X106978050Y-97961658D01*
X106888342Y-97871950D01*
X106881405Y-97868415D01*
X106881403Y-97868414D01*
X106782244Y-97817890D01*
X106782243Y-97817890D01*
X106775304Y-97814354D01*
X106767610Y-97813135D01*
X106767609Y-97813135D01*
X106657697Y-97795727D01*
X106650000Y-97794508D01*
X106642303Y-97795727D01*
X106532391Y-97813135D01*
X106532390Y-97813135D01*
X106524696Y-97814354D01*
X106517757Y-97817890D01*
X106517756Y-97817890D01*
X106418597Y-97868414D01*
X106418595Y-97868415D01*
X106411658Y-97871950D01*
X106321950Y-97961658D01*
X106318415Y-97968595D01*
X106318414Y-97968597D01*
X106271906Y-98059875D01*
X106264354Y-98074696D01*
X106263135Y-98082390D01*
X106263135Y-98082391D01*
X106247320Y-98182244D01*
X106244508Y-98200000D01*
X105123550Y-98200000D01*
X105155804Y-98167746D01*
X105158519Y-98163670D01*
X105183607Y-98126003D01*
X105183607Y-98126002D01*
X105189003Y-98117901D01*
X105200500Y-98059838D01*
X105200501Y-97520159D01*
X105195849Y-97496950D01*
X105190645Y-97470985D01*
X105190644Y-97470982D01*
X105188731Y-97461439D01*
X105155805Y-97412255D01*
X104971150Y-97227600D01*
X107319508Y-97227600D01*
X107320727Y-97235297D01*
X107335418Y-97328050D01*
X107339354Y-97352904D01*
X107342890Y-97359843D01*
X107342890Y-97359844D01*
X107391539Y-97455322D01*
X107396950Y-97465942D01*
X107486658Y-97555650D01*
X107493595Y-97559185D01*
X107493597Y-97559186D01*
X107582466Y-97604467D01*
X107599696Y-97613246D01*
X107607390Y-97614465D01*
X107607391Y-97614465D01*
X107717303Y-97631873D01*
X107725000Y-97633092D01*
X107732697Y-97631873D01*
X107842609Y-97614465D01*
X107842610Y-97614465D01*
X107850304Y-97613246D01*
X107867534Y-97604467D01*
X107956403Y-97559186D01*
X107956405Y-97559185D01*
X107963342Y-97555650D01*
X108033718Y-97485274D01*
X108088235Y-97457497D01*
X108148667Y-97467068D01*
X108180324Y-97494105D01*
X108180750Y-97494942D01*
X108270458Y-97584650D01*
X108277395Y-97588185D01*
X108277397Y-97588186D01*
X108361774Y-97631178D01*
X108383496Y-97642246D01*
X108391190Y-97643465D01*
X108391191Y-97643465D01*
X108501103Y-97660873D01*
X108508800Y-97662092D01*
X108516497Y-97660873D01*
X108626409Y-97643465D01*
X108626410Y-97643465D01*
X108634104Y-97642246D01*
X108655826Y-97631178D01*
X108740203Y-97588186D01*
X108740205Y-97588185D01*
X108747142Y-97584650D01*
X108836850Y-97494942D01*
X108851627Y-97465942D01*
X108890910Y-97388844D01*
X108890910Y-97388843D01*
X108894446Y-97381904D01*
X108903411Y-97325304D01*
X108913073Y-97264297D01*
X108914292Y-97256600D01*
X108905439Y-97200701D01*
X108895665Y-97138991D01*
X108895665Y-97138990D01*
X108894446Y-97131296D01*
X108872575Y-97088371D01*
X108840386Y-97025197D01*
X108840385Y-97025195D01*
X108836850Y-97018258D01*
X108747142Y-96928550D01*
X108740205Y-96925015D01*
X108740203Y-96925014D01*
X108641044Y-96874490D01*
X108641043Y-96874490D01*
X108634104Y-96870954D01*
X108626410Y-96869735D01*
X108626409Y-96869735D01*
X108516497Y-96852327D01*
X108508800Y-96851108D01*
X108501103Y-96852327D01*
X108391191Y-96869735D01*
X108391190Y-96869735D01*
X108383496Y-96870954D01*
X108376557Y-96874490D01*
X108376556Y-96874490D01*
X108277397Y-96925014D01*
X108277395Y-96925015D01*
X108270458Y-96928550D01*
X108200082Y-96998926D01*
X108145565Y-97026703D01*
X108085133Y-97017132D01*
X108053476Y-96990095D01*
X108053050Y-96989258D01*
X107963342Y-96899550D01*
X107956405Y-96896015D01*
X107956403Y-96896014D01*
X107857244Y-96845490D01*
X107857243Y-96845490D01*
X107850304Y-96841954D01*
X107842610Y-96840735D01*
X107842609Y-96840735D01*
X107732697Y-96823327D01*
X107725000Y-96822108D01*
X107717303Y-96823327D01*
X107607391Y-96840735D01*
X107607390Y-96840735D01*
X107599696Y-96841954D01*
X107592757Y-96845490D01*
X107592756Y-96845490D01*
X107493597Y-96896014D01*
X107493595Y-96896015D01*
X107486658Y-96899550D01*
X107396950Y-96989258D01*
X107393415Y-96996195D01*
X107393414Y-96996197D01*
X107347073Y-97087146D01*
X107339354Y-97102296D01*
X107338135Y-97109990D01*
X107338135Y-97109991D01*
X107323768Y-97200701D01*
X107319508Y-97227600D01*
X104971150Y-97227600D01*
X104877746Y-97134196D01*
X104873392Y-97131296D01*
X104836003Y-97106393D01*
X104836002Y-97106393D01*
X104827901Y-97100997D01*
X104769838Y-97089500D01*
X104299500Y-97089500D01*
X104241309Y-97070593D01*
X104205345Y-97021093D01*
X104200500Y-96990500D01*
X104200500Y-96632966D01*
X104219407Y-96574775D01*
X104268907Y-96538811D01*
X104330093Y-96538811D01*
X104344445Y-96544756D01*
X104403361Y-96574775D01*
X104424696Y-96585646D01*
X104432390Y-96586865D01*
X104432391Y-96586865D01*
X104542303Y-96604273D01*
X104550000Y-96605492D01*
X104557697Y-96604273D01*
X104667609Y-96586865D01*
X104667610Y-96586865D01*
X104675304Y-96585646D01*
X104690212Y-96578050D01*
X104781403Y-96531586D01*
X104781405Y-96531585D01*
X104788342Y-96528050D01*
X104878050Y-96438342D01*
X104935646Y-96325304D01*
X104955492Y-96200000D01*
X104939303Y-96097785D01*
X104936865Y-96082391D01*
X104936865Y-96082390D01*
X104935646Y-96074696D01*
X104922808Y-96049500D01*
X104881586Y-95968597D01*
X104881585Y-95968595D01*
X104878050Y-95961658D01*
X104873161Y-95956769D01*
X104854391Y-95898999D01*
X104873299Y-95840809D01*
X104922799Y-95804845D01*
X104953391Y-95800000D01*
X109746609Y-95800000D01*
X109804800Y-95818907D01*
G37*
%TD.AperFunction*%
%TD*%
M02*
