%TF.GenerationSoftware,KiCad,Pcbnew,(5.99.0-10506-gb986797469)*%
%TF.CreationDate,2022-01-12T00:10:24+01:00*%
%TF.ProjectId,ESP31_V3,45535033-315f-4563-932e-6b696361645f,rev?*%
%TF.SameCoordinates,Original*%
%TF.FileFunction,Copper,L1,Top*%
%TF.FilePolarity,Positive*%
%FSLAX46Y46*%
G04 Gerber Fmt 4.6, Leading zero omitted, Abs format (unit mm)*
G04 Created by KiCad (PCBNEW (5.99.0-10506-gb986797469)) date 2022-01-12 00:10:24*
%MOMM*%
%LPD*%
G01*
G04 APERTURE LIST*
G04 Aperture macros list*
%AMRoundRect*
0 Rectangle with rounded corners*
0 $1 Rounding radius*
0 $2 $3 $4 $5 $6 $7 $8 $9 X,Y pos of 4 corners*
0 Add a 4 corners polygon primitive as box body*
4,1,4,$2,$3,$4,$5,$6,$7,$8,$9,$2,$3,0*
0 Add four circle primitives for the rounded corners*
1,1,$1+$1,$2,$3*
1,1,$1+$1,$4,$5*
1,1,$1+$1,$6,$7*
1,1,$1+$1,$8,$9*
0 Add four rect primitives between the rounded corners*
20,1,$1+$1,$2,$3,$4,$5,0*
20,1,$1+$1,$4,$5,$6,$7,0*
20,1,$1+$1,$6,$7,$8,$9,0*
20,1,$1+$1,$8,$9,$2,$3,0*%
%AMRotRect*
0 Rectangle, with rotation*
0 The origin of the aperture is its center*
0 $1 length*
0 $2 width*
0 $3 Rotation angle, in degrees counterclockwise*
0 Add horizontal line*
21,1,$1,$2,0,0,$3*%
%AMOutline5P*
0 Free polygon, 5 corners , with rotation*
0 The origin of the aperture is its center*
0 number of corners: always 8*
0 $1 to $10 corner X, Y*
0 $11 Rotation angle, in degrees counterclockwise*
0 create outline with 8 corners*
4,1,5,$1,$2,$3,$4,$5,$6,$7,$8,$9,$10,$1,$2,$11*%
%AMOutline6P*
0 Free polygon, 6 corners , with rotation*
0 The origin of the aperture is its center*
0 number of corners: always 6*
0 $1 to $12 corner X, Y*
0 $13 Rotation angle, in degrees counterclockwise*
0 create outline with 6 corners*
4,1,6,$1,$2,$3,$4,$5,$6,$7,$8,$9,$10,$11,$12,$1,$2,$13*%
%AMOutline7P*
0 Free polygon, 7 corners , with rotation*
0 The origin of the aperture is its center*
0 number of corners: always 7*
0 $1 to $14 corner X, Y*
0 $15 Rotation angle, in degrees counterclockwise*
0 create outline with 7 corners*
4,1,7,$1,$2,$3,$4,$5,$6,$7,$8,$9,$10,$11,$12,$13,$14,$1,$2,$15*%
%AMOutline8P*
0 Free polygon, 8 corners , with rotation*
0 The origin of the aperture is its center*
0 number of corners: always 8*
0 $1 to $16 corner X, Y*
0 $17 Rotation angle, in degrees counterclockwise*
0 create outline with 8 corners*
4,1,8,$1,$2,$3,$4,$5,$6,$7,$8,$9,$10,$11,$12,$13,$14,$15,$16,$1,$2,$17*%
%AMFreePoly0*
4,1,5,0.110000,-0.125000,-0.110000,-0.125000,-0.110000,0.125000,0.360000,0.125000,0.110000,-0.125000,0.110000,-0.125000,$1*%
%AMFreePoly1*
4,1,6,0.290000,-0.055000,0.290000,-0.125000,-0.110000,-0.125000,-0.110000,0.125000,0.110000,0.125000,0.290000,-0.055000,0.290000,-0.055000,$1*%
%AMFreePoly2*
4,1,6,0.110000,-0.125000,-0.290000,-0.125000,-0.290000,-0.055000,-0.110000,0.125000,0.110000,0.125000,0.110000,-0.125000,0.110000,-0.125000,$1*%
%AMFreePoly3*
4,1,6,0.110000,-0.125000,-0.110000,-0.125000,-0.290000,0.055000,-0.290000,0.125000,0.110000,0.125000,0.110000,-0.125000,0.110000,-0.125000,$1*%
G04 Aperture macros list end*
%TA.AperFunction,ComponentPad*%
%ADD10Outline6P,0.250000X-0.500000X-0.500000X-0.500000X-0.500000X0.500000X0.250000X0.500000X0.500000X0.250000X0.500000X-0.250000X180.000000*%
%TD*%
%TA.AperFunction,ComponentPad*%
%ADD11Outline6P,0.250000X-0.500000X-0.500000X-0.500000X-0.500000X0.500000X0.250000X0.500000X0.500000X0.250000X0.500000X-0.250000X0.000000*%
%TD*%
%TA.AperFunction,SMDPad,CuDef*%
%ADD12RoundRect,0.225000X-0.225000X-0.250000X0.225000X-0.250000X0.225000X0.250000X-0.225000X0.250000X0*%
%TD*%
%TA.AperFunction,WasherPad*%
%ADD13C,1.300000*%
%TD*%
%TA.AperFunction,SMDPad,CuDef*%
%ADD14FreePoly0,180.000000*%
%TD*%
%TA.AperFunction,SMDPad,CuDef*%
%ADD15FreePoly1,180.000000*%
%TD*%
%TA.AperFunction,SMDPad,CuDef*%
%ADD16FreePoly2,180.000000*%
%TD*%
%TA.AperFunction,SMDPad,CuDef*%
%ADD17FreePoly3,180.000000*%
%TD*%
%TA.AperFunction,SMDPad,CuDef*%
%ADD18RotRect,0.480000X0.480000X225.000000*%
%TD*%
%TA.AperFunction,SMDPad,CuDef*%
%ADD19RoundRect,0.225000X-0.250000X0.225000X-0.250000X-0.225000X0.250000X-0.225000X0.250000X0.225000X0*%
%TD*%
%TA.AperFunction,SMDPad,CuDef*%
%ADD20RoundRect,0.062500X-0.062500X0.337500X-0.062500X-0.337500X0.062500X-0.337500X0.062500X0.337500X0*%
%TD*%
%TA.AperFunction,SMDPad,CuDef*%
%ADD21RoundRect,0.062500X-0.337500X0.062500X-0.337500X-0.062500X0.337500X-0.062500X0.337500X0.062500X0*%
%TD*%
%TA.AperFunction,SMDPad,CuDef*%
%ADD22R,5.300000X5.300000*%
%TD*%
%TA.AperFunction,ConnectorPad*%
%ADD23R,0.500000X0.500000*%
%TD*%
%TA.AperFunction,ComponentPad*%
%ADD24R,0.900000X0.500000*%
%TD*%
%TA.AperFunction,SMDPad,CuDef*%
%ADD25RoundRect,0.200000X0.200000X0.275000X-0.200000X0.275000X-0.200000X-0.275000X0.200000X-0.275000X0*%
%TD*%
%TA.AperFunction,SMDPad,CuDef*%
%ADD26R,0.600000X0.600000*%
%TD*%
%TA.AperFunction,SMDPad,CuDef*%
%ADD27R,0.800000X1.000000*%
%TD*%
%TA.AperFunction,ComponentPad*%
%ADD28R,1.700000X1.700000*%
%TD*%
%TA.AperFunction,ComponentPad*%
%ADD29O,1.700000X1.700000*%
%TD*%
%TA.AperFunction,ViaPad*%
%ADD30C,0.400000*%
%TD*%
%TA.AperFunction,ViaPad*%
%ADD31C,0.800000*%
%TD*%
%TA.AperFunction,Conductor*%
%ADD32C,0.200000*%
%TD*%
%TA.AperFunction,Conductor*%
%ADD33C,0.250000*%
%TD*%
%TA.AperFunction,Conductor*%
%ADD34C,0.500000*%
%TD*%
%TA.AperFunction,Conductor*%
%ADD35C,0.350000*%
%TD*%
G04 APERTURE END LIST*
%TO.C,AE1*%
G36*
X117700000Y-95875000D02*
G01*
X117700000Y-95616842D01*
X118001778Y-95616842D01*
X118008309Y-95666368D01*
X118028868Y-95711553D01*
X118062511Y-95746787D01*
X118081122Y-95757400D01*
X118126637Y-95770300D01*
X118175156Y-95771043D01*
X118217819Y-95758935D01*
X118225731Y-95754581D01*
X118263674Y-95721797D01*
X118287742Y-95679395D01*
X118297583Y-95631785D01*
X118292847Y-95583378D01*
X118273185Y-95538584D01*
X118238245Y-95501814D01*
X118205353Y-95484908D01*
X118157267Y-95477018D01*
X118107682Y-95483592D01*
X118062372Y-95503687D01*
X118027112Y-95536357D01*
X118010218Y-95568583D01*
X118001778Y-95616842D01*
X117700000Y-95616842D01*
X117700000Y-90975000D01*
X116300000Y-90975000D01*
X116300000Y-95875000D01*
X115800000Y-95875000D01*
X115800000Y-90975000D01*
X114100000Y-90975000D01*
X114100000Y-93615000D01*
X111100000Y-93615000D01*
X111100000Y-90975000D01*
X109400000Y-90975000D01*
X109400000Y-93615000D01*
X106400000Y-93615000D01*
X106400000Y-90975000D01*
X104700000Y-90975000D01*
X104700000Y-94915000D01*
X104200000Y-94915000D01*
X104200000Y-90475000D01*
X106900000Y-90475000D01*
X106900000Y-93115000D01*
X108900000Y-93115000D01*
X108900000Y-90475000D01*
X111600000Y-90475000D01*
X111600000Y-93115000D01*
X113600000Y-93115000D01*
X113600000Y-90475000D01*
X118600000Y-90475000D01*
X118600000Y-95875000D01*
X117700000Y-95875000D01*
G37*
%TD*%
D10*
%TO.P,J5,1,Pin_1*%
%TO.N,/IO5*%
X118500000Y-107780000D03*
%TD*%
%TO.P,J10,1,Pin_1*%
%TO.N,/IO21*%
X118500000Y-101180000D03*
%TD*%
%TO.P,J7,1,Pin_1*%
%TO.N,/IO10*%
X118500000Y-109230000D03*
%TD*%
D11*
%TO.P,J18,1,Pin_1*%
%TO.N,/IO34*%
X104500000Y-102870000D03*
%TD*%
D10*
%TO.P,J9,1,Pin_1*%
%TO.N,/IO19*%
X118500000Y-103720000D03*
%TD*%
D12*
%TO.P,C2,1*%
%TO.N,/EN*%
X107725000Y-96500000D03*
%TO.P,C2,2*%
%TO.N,GND*%
X109275000Y-96500000D03*
%TD*%
D10*
%TO.P,J6,1,Pin_1*%
%TO.N,/IO9*%
X118500000Y-110500000D03*
%TD*%
%TO.P,J12,1,Pin_1*%
%TO.N,/IO23*%
X118500000Y-104990000D03*
%TD*%
D11*
%TO.P,J19,1,Pin_1*%
%TO.N,/IO35*%
X104500000Y-100330000D03*
%TD*%
D12*
%TO.P,C1,1*%
%TO.N,GND*%
X108725000Y-108300000D03*
%TO.P,C1,2*%
%TO.N,Net-(C1-Pad2)*%
X110275000Y-108300000D03*
%TD*%
D13*
%TO.P,REF\u002A\u002A,*%
%TO.N,*%
X106000000Y-94800000D03*
%TD*%
D14*
%TO.P,U1,1,VOUT*%
%TO.N,+3V3*%
X112340000Y-108825000D03*
D15*
%TO.P,U1,2,GND*%
%TO.N,GND*%
X112340000Y-108175000D03*
D16*
%TO.P,U1,3,EN*%
%TO.N,Net-(C1-Pad2)*%
X111260000Y-108175000D03*
D17*
%TO.P,U1,4,Vin*%
X111260000Y-108825000D03*
D18*
%TO.P,U1,5,EP*%
%TO.N,GND*%
X111800000Y-108500000D03*
%TD*%
D11*
%TO.P,J13,1,Pin_1*%
%TO.N,/IO25*%
X104500000Y-107950000D03*
%TD*%
D19*
%TO.P,C3,1*%
%TO.N,GND*%
X111000000Y-96225000D03*
%TO.P,C3,2*%
%TO.N,+3V3*%
X111000000Y-97775000D03*
%TD*%
D13*
%TO.P,,*%
%TO.N,*%
X122800000Y-91000000D03*
%TD*%
D19*
%TO.P,C4,1*%
%TO.N,GND*%
X112500000Y-96225000D03*
%TO.P,C4,2*%
%TO.N,+3V3*%
X112500000Y-97775000D03*
%TD*%
D11*
%TO.P,J15,1,Pin_1*%
%TO.N,/IO27*%
X104500000Y-110490000D03*
%TD*%
%TO.P,J17,1,Pin_1*%
%TO.N,/IO33*%
X104500000Y-106680000D03*
%TD*%
%TO.P,J14,1,Pin_1*%
%TO.N,/IO26*%
X104500000Y-109220000D03*
%TD*%
D10*
%TO.P,J8,1,Pin_1*%
%TO.N,/IO18*%
X118500000Y-106260000D03*
%TD*%
D20*
%TO.P,U2,1,VDDA*%
%TO.N,+3V3*%
X114250000Y-99550000D03*
%TO.P,U2,2,LNA_IN*%
%TO.N,Net-(AE1-Pad1)*%
X113750000Y-99550000D03*
%TO.P,U2,3,VDDA3P3*%
%TO.N,+3V3*%
X113250000Y-99550000D03*
%TO.P,U2,4,VDDA3P3*%
X112750000Y-99550000D03*
%TO.P,U2,5,SENSOR_VP*%
%TO.N,/SENS_VP*%
X112250000Y-99550000D03*
%TO.P,U2,6,SENSOR_CAPP*%
%TO.N,/CAPP*%
X111750000Y-99550000D03*
%TO.P,U2,7,SENSOR_CAPN*%
%TO.N,/CAPN*%
X111250000Y-99550000D03*
%TO.P,U2,8,SENSOR_VN*%
%TO.N,/SENS_VN*%
X110750000Y-99550000D03*
%TO.P,U2,9,EN*%
%TO.N,/EN*%
X110250000Y-99550000D03*
%TO.P,U2,10,IO34*%
%TO.N,/IO34*%
X109750000Y-99550000D03*
%TO.P,U2,11,IO35*%
%TO.N,/IO35*%
X109250000Y-99550000D03*
%TO.P,U2,12,IO32*%
%TO.N,/IO32*%
X108750000Y-99550000D03*
D21*
%TO.P,U2,13,IO33*%
%TO.N,/IO33*%
X108050000Y-100250000D03*
%TO.P,U2,14,IO25*%
%TO.N,/IO25*%
X108050000Y-100750000D03*
%TO.P,U2,15,IO26*%
%TO.N,/IO26*%
X108050000Y-101250000D03*
%TO.P,U2,16,IO27*%
%TO.N,/IO27*%
X108050000Y-101750000D03*
%TO.P,U2,17,IO14*%
%TO.N,unconnected-(U2-Pad17)*%
X108050000Y-102250000D03*
%TO.P,U2,18,IO12*%
%TO.N,unconnected-(U2-Pad18)*%
X108050000Y-102750000D03*
%TO.P,U2,19,VDD3P3_RTC*%
%TO.N,+3V3*%
X108050000Y-103250000D03*
%TO.P,U2,20,IO13*%
%TO.N,unconnected-(U2-Pad20)*%
X108050000Y-103750000D03*
%TO.P,U2,21,IO15*%
%TO.N,unconnected-(U2-Pad21)*%
X108050000Y-104250000D03*
%TO.P,U2,22,IO2*%
%TO.N,/IO2*%
X108050000Y-104750000D03*
%TO.P,U2,23,IO0*%
%TO.N,/IO0*%
X108050000Y-105250000D03*
%TO.P,U2,24,IO4*%
%TO.N,/IO4*%
X108050000Y-105750000D03*
D20*
%TO.P,U2,25,IO16*%
%TO.N,unconnected-(U2-Pad25)*%
X108750000Y-106450000D03*
%TO.P,U2,26,VDD_SDIO*%
%TO.N,unconnected-(U2-Pad26)*%
X109250000Y-106450000D03*
%TO.P,U2,27,IO17*%
%TO.N,unconnected-(U2-Pad27)*%
X109750000Y-106450000D03*
%TO.P,U2,28,SD2/IO9*%
%TO.N,/IO9*%
X110250000Y-106450000D03*
%TO.P,U2,29,SD3/IO10*%
%TO.N,/IO10*%
X110750000Y-106450000D03*
%TO.P,U2,30,CMD*%
%TO.N,unconnected-(U2-Pad30)*%
X111250000Y-106450000D03*
%TO.P,U2,31,CLK*%
%TO.N,unconnected-(U2-Pad31)*%
X111750000Y-106450000D03*
%TO.P,U2,32,SD0*%
%TO.N,unconnected-(U2-Pad32)*%
X112250000Y-106450000D03*
%TO.P,U2,33,SD1*%
%TO.N,unconnected-(U2-Pad33)*%
X112750000Y-106450000D03*
%TO.P,U2,34,IO5*%
%TO.N,/IO5*%
X113250000Y-106450000D03*
%TO.P,U2,35,IO18*%
%TO.N,/IO18*%
X113750000Y-106450000D03*
%TO.P,U2,36,IO23*%
%TO.N,/IO23*%
X114250000Y-106450000D03*
D21*
%TO.P,U2,37,VDD3P3_CPU*%
%TO.N,+3V3*%
X114950000Y-105750000D03*
%TO.P,U2,38,IO19*%
%TO.N,/IO19*%
X114950000Y-105250000D03*
%TO.P,U2,39,IO22*%
%TO.N,/IO22*%
X114950000Y-104750000D03*
%TO.P,U2,40,U0RXD/IO3*%
%TO.N,/IO3*%
X114950000Y-104250000D03*
%TO.P,U2,41,U0TXD/IO1*%
%TO.N,/IO1*%
X114950000Y-103750000D03*
%TO.P,U2,42,IO21*%
%TO.N,/IO21*%
X114950000Y-103250000D03*
%TO.P,U2,43,VDDA*%
%TO.N,+3V3*%
X114950000Y-102750000D03*
%TO.P,U2,44,XTAL_N_NC*%
%TO.N,unconnected-(U2-Pad44)*%
X114950000Y-102250000D03*
%TO.P,U2,45,XTAL_P_NC*%
%TO.N,unconnected-(U2-Pad45)*%
X114950000Y-101750000D03*
%TO.P,U2,46,VDDA*%
%TO.N,+3V3*%
X114950000Y-101250000D03*
%TO.P,U2,47,CAP2_NC*%
%TO.N,unconnected-(U2-Pad47)*%
X114950000Y-100750000D03*
%TO.P,U2,48,CAP1_NC*%
%TO.N,unconnected-(U2-Pad48)*%
X114950000Y-100250000D03*
D22*
%TO.P,U2,49,GND*%
%TO.N,GND*%
X111500000Y-103000000D03*
%TD*%
D23*
%TO.P,AE1,1,A*%
%TO.N,Net-(AE1-Pad1)*%
X116050000Y-95625000D03*
D24*
%TO.P,AE1,2,Shield*%
%TO.N,GND*%
X118150000Y-95625000D03*
%TD*%
D11*
%TO.P,J3,1,Pin_1*%
%TO.N,/CAPN*%
X104500000Y-105410000D03*
%TD*%
%TO.P,J4,1,Pin_1*%
%TO.N,/SENS_VN*%
X104500000Y-104140000D03*
%TD*%
D10*
%TO.P,J11,1,Pin_1*%
%TO.N,/IO22*%
X118500000Y-102450000D03*
%TD*%
D25*
%TO.P,R1,1*%
%TO.N,+3V3*%
X109325000Y-98000000D03*
%TO.P,R1,2*%
%TO.N,/EN*%
X107675000Y-98000000D03*
%TD*%
D13*
%TO.P,,*%
%TO.N,*%
X121400000Y-113600000D03*
%TD*%
D26*
%TO.P,SW1,1,1*%
%TO.N,GND*%
X118456000Y-111984000D03*
X118456000Y-114584000D03*
%TO.P,SW1,2,2*%
%TO.N,/EN*%
X117256000Y-114584000D03*
X117256000Y-111984000D03*
%TD*%
%TO.P,SW2,1,1*%
%TO.N,GND*%
X104556000Y-111984000D03*
X104556000Y-114584000D03*
%TO.P,SW2,2,2*%
%TO.N,/IO0*%
X105756000Y-114584000D03*
X105756000Y-111984000D03*
%TD*%
D11*
%TO.P,J1,1,Pin_1*%
%TO.N,/SENS_VP*%
X104500000Y-97790000D03*
%TD*%
%TO.P,J16,1,Pin_1*%
%TO.N,/IO32*%
X104500000Y-101600000D03*
%TD*%
D27*
%TO.P,D1,1,DI*%
%TO.N,/IO2*%
X117550000Y-98590000D03*
%TO.P,D1,2,VSS*%
%TO.N,GND*%
X116450000Y-98590000D03*
%TO.P,D1,3,DO*%
%TO.N,unconnected-(D1-Pad3)*%
X116450000Y-100090000D03*
%TO.P,D1,4,VDD*%
%TO.N,+3V3*%
X117550000Y-100090000D03*
%TD*%
D11*
%TO.P,J2,1,Pin_1*%
%TO.N,/CAPP*%
X104500000Y-99060000D03*
%TD*%
D28*
%TO.P,J20,1,Pin_1*%
%TO.N,GND*%
X107500000Y-110725000D03*
D29*
%TO.P,J20,2,Pin_2*%
%TO.N,/IO1*%
X107500000Y-113265000D03*
%TO.P,J20,3,Pin_3*%
%TO.N,/IO2*%
X110040000Y-110725000D03*
%TO.P,J20,4,Pin_4*%
%TO.N,/IO4*%
X110040000Y-113265000D03*
%TO.P,J20,5,Pin_5*%
%TO.N,/IO0*%
X112580000Y-110725000D03*
%TO.P,J20,6,Pin_6*%
%TO.N,/EN*%
X112580000Y-113265000D03*
%TO.P,J20,7,Pin_7*%
%TO.N,/IO3*%
X115120000Y-110725000D03*
%TO.P,J20,8,Pin_8*%
%TO.N,VIN*%
X115120000Y-113265000D03*
%TD*%
D30*
%TO.N,GND*%
X117350000Y-96150000D03*
X112889765Y-108410228D03*
X116130000Y-97680000D03*
X105500000Y-99300000D03*
X109100000Y-109150000D03*
X113900000Y-97100000D03*
X104550000Y-96200000D03*
X113550000Y-96200000D03*
X114850000Y-98150000D03*
X108580000Y-107330000D03*
X118500000Y-98500000D03*
X116530000Y-97200000D03*
X116750000Y-96050000D03*
X111500000Y-103000000D03*
X106650000Y-98200000D03*
X114200000Y-108900000D03*
X108508800Y-97256600D03*
X116500000Y-111100000D03*
X104500000Y-113750000D03*
X110500000Y-102000000D03*
X108740000Y-113670000D03*
X118500000Y-97750000D03*
X118500000Y-100000000D03*
X115350000Y-96050000D03*
X116750000Y-96600000D03*
X115150000Y-96600000D03*
X109900000Y-107400000D03*
X112500000Y-102000000D03*
X112500000Y-104000000D03*
X118500000Y-96250000D03*
X111750000Y-96200000D03*
X118500000Y-99250000D03*
X114503200Y-96800000D03*
X114400000Y-96200000D03*
X113374500Y-97587566D03*
X110150000Y-96200000D03*
X118500000Y-112750000D03*
X104500000Y-112750000D03*
X113621581Y-109899011D03*
X118500000Y-97000000D03*
X110500000Y-104000000D03*
X118500000Y-113750000D03*
X115450000Y-98050000D03*
X114450000Y-98700000D03*
%TO.N,/EN*%
X107725000Y-97227600D03*
X110162095Y-98373291D03*
%TO.N,+3V3*%
X110124000Y-97775000D03*
X114750000Y-99500000D03*
X113400000Y-108900000D03*
X116396800Y-101896800D03*
X115750000Y-101250000D03*
X107100000Y-104400000D03*
X117495701Y-105195701D03*
%TO.N,/IO1*%
X116464297Y-103214297D03*
%TO.N,/IO2*%
X107069740Y-108169740D03*
X117800000Y-97600000D03*
%TO.N,/IO4*%
X107542579Y-109142578D03*
%TO.N,/IO3*%
X117211935Y-103241894D03*
D31*
%TO.N,Net-(C1-Pad2)*%
X116700000Y-110200000D03*
D30*
%TO.N,/SENS_VN*%
X110808929Y-98625870D03*
%TO.N,/SENS_VP*%
X112700500Y-98625000D03*
%TO.N,/CAPP*%
X112057502Y-98617052D03*
%TO.N,/CAPN*%
X111408098Y-98605879D03*
%TO.N,/IO34*%
X109668798Y-98858724D03*
%TD*%
D32*
%TO.N,Net-(C1-Pad2)*%
X110275000Y-108500000D02*
X110275000Y-108300000D01*
X111174511Y-109399511D02*
X110275000Y-108500000D01*
X115899511Y-109399511D02*
X111174511Y-109399511D01*
X116700000Y-110200000D02*
X115899511Y-109399511D01*
%TO.N,GND*%
X112340000Y-108175000D02*
X112654537Y-108175000D01*
D33*
X118700000Y-95900000D02*
X118425000Y-95625000D01*
X118425000Y-95625000D02*
X118150000Y-95625000D01*
X118150000Y-95625000D02*
X118347200Y-95427800D01*
X118150000Y-95625000D02*
X117975000Y-95625000D01*
X118700000Y-96000000D02*
X118700000Y-95900000D01*
X117500000Y-95900000D02*
X117600000Y-96000000D01*
D32*
X111800000Y-108500000D02*
X112125000Y-108175000D01*
D33*
X118150000Y-95625000D02*
X118150000Y-95650000D01*
D32*
X112654537Y-108175000D02*
X112889765Y-108410228D01*
X116550000Y-98590000D02*
X116550000Y-98370000D01*
D33*
X117600000Y-96000000D02*
X118700000Y-96000000D01*
D32*
X108725000Y-108300000D02*
X108725000Y-108775000D01*
D33*
X117500000Y-95800000D02*
X117500000Y-95900000D01*
X118150000Y-95625000D02*
X118375000Y-95625000D01*
X118150000Y-95625000D02*
X117675000Y-95625000D01*
D32*
X108725000Y-108775000D02*
X109100000Y-109150000D01*
D33*
X117500000Y-95800000D02*
X117975000Y-95800000D01*
D32*
X116550000Y-98590000D02*
X116550000Y-98440000D01*
D33*
X117975000Y-95800000D02*
X118150000Y-95625000D01*
X117675000Y-95625000D02*
X117500000Y-95800000D01*
D32*
X112125000Y-108175000D02*
X112340000Y-108175000D01*
D33*
%TO.N,Net-(AE1-Pad1)*%
X114985800Y-97409000D02*
X115011948Y-97409000D01*
D34*
X116050000Y-96374625D02*
X116050000Y-95625000D01*
X113750000Y-98627249D02*
X113750000Y-98918822D01*
D33*
X114096800Y-97790000D02*
X114118589Y-97768211D01*
D35*
X113750000Y-99550000D02*
X113750000Y-98918822D01*
D34*
X115747800Y-97104200D02*
G75*
G02*
X115011948Y-97409000I-735848J735842D01*
G01*
X116049999Y-96374625D02*
G75*
G02*
X115747799Y-97104199I-1031767J-3D01*
G01*
X114985800Y-97409000D02*
G75*
G03*
X114118589Y-97768211I-1J-1226418D01*
G01*
X114096800Y-97790000D02*
G75*
G03*
X113750000Y-98627249I837188J-837224D01*
G01*
D32*
%TO.N,/EN*%
X110250000Y-98461196D02*
X110162095Y-98373291D01*
X113821000Y-111984000D02*
X112540000Y-113265000D01*
X110250000Y-99550000D02*
X110250000Y-98461196D01*
X107725000Y-96500000D02*
X107725000Y-97950000D01*
X117256000Y-111984000D02*
X113821000Y-111984000D01*
X117256000Y-114584000D02*
X117256000Y-111984000D01*
X110250000Y-99550000D02*
X110250000Y-98665365D01*
X107725000Y-97950000D02*
X107675000Y-98000000D01*
%TO.N,+3V3*%
X116396800Y-101303200D02*
X116450000Y-101250000D01*
X113200011Y-98385234D02*
X112589777Y-97775000D01*
X114250000Y-99550000D02*
X114700000Y-99550000D01*
X114950000Y-102750000D02*
X115543600Y-102750000D01*
X112750000Y-99550000D02*
X113250000Y-99550000D01*
X108050000Y-103250000D02*
X107630954Y-103250000D01*
X117299511Y-100829609D02*
X116879120Y-101250000D01*
X114950000Y-105750000D02*
X116941402Y-105750000D01*
X116941402Y-105750000D02*
X117495701Y-105195701D01*
X117700000Y-100090000D02*
X117299511Y-100490489D01*
X114700000Y-99550000D02*
X114750000Y-99500000D01*
X112450000Y-108935000D02*
X112340000Y-108825000D01*
X115543600Y-102750000D02*
X116396800Y-101896800D01*
X112500000Y-97775000D02*
X111000000Y-97775000D01*
X113200011Y-99500011D02*
X113200011Y-98385234D01*
X113250000Y-99550000D02*
X113200011Y-99500011D01*
X114950000Y-101250000D02*
X115750000Y-101250000D01*
X107630954Y-103250000D02*
X107100000Y-103780954D01*
X116450000Y-101250000D02*
X115750000Y-101250000D01*
X107100000Y-103780954D02*
X107100000Y-104400000D01*
X110124000Y-97775000D02*
X109550000Y-97775000D01*
X112589777Y-97775000D02*
X112500000Y-97775000D01*
X116396800Y-101896800D02*
X116396800Y-101303200D01*
X109550000Y-97775000D02*
X109325000Y-98000000D01*
X113365000Y-108935000D02*
X112450000Y-108935000D01*
X113400000Y-108900000D02*
X113365000Y-108935000D01*
X117299511Y-100490489D02*
X117299511Y-100829609D01*
X116879120Y-101250000D02*
X116450000Y-101250000D01*
X111000000Y-97775000D02*
X110124000Y-97775000D01*
%TO.N,/IO1*%
X116252491Y-103750000D02*
X114950000Y-103750000D01*
X116464297Y-103538194D02*
X116252491Y-103750000D01*
X116464297Y-103214297D02*
X116464297Y-103538194D01*
%TO.N,/IO2*%
X107565948Y-104750000D02*
X108050000Y-104750000D01*
X117700000Y-98590000D02*
X117700000Y-97700000D01*
X106950961Y-105364987D02*
X107565948Y-104750000D01*
X106950961Y-108050961D02*
X106950961Y-105364987D01*
X107069740Y-108169740D02*
X106950961Y-108050961D01*
X117700000Y-97700000D02*
X117800000Y-97600000D01*
%TO.N,/IO4*%
X107968771Y-105831229D02*
X108050000Y-105750000D01*
X107968771Y-108716386D02*
X107968771Y-105831229D01*
X107542579Y-109142578D02*
X107968771Y-108716386D01*
%TO.N,/IO0*%
X106184000Y-109794757D02*
X106184000Y-111984000D01*
X112540000Y-110725000D02*
X111281000Y-111984000D01*
X107569251Y-108409506D02*
X106184000Y-109794757D01*
X106184000Y-111984000D02*
X105756000Y-111984000D01*
X107350481Y-105530473D02*
X107350481Y-107711204D01*
X111281000Y-111984000D02*
X106184000Y-111984000D01*
X105756000Y-114584000D02*
X105756000Y-111984000D01*
X107630954Y-105250000D02*
X107350481Y-105530473D01*
X107350481Y-107711204D02*
X107569251Y-107929974D01*
X107569251Y-107929974D02*
X107569251Y-108409506D01*
X108050000Y-105250000D02*
X107630954Y-105250000D01*
%TO.N,/IO3*%
X117211935Y-103241894D02*
X117211935Y-103355562D01*
X116317497Y-104250000D02*
X114950000Y-104250000D01*
X117211935Y-103355562D02*
X116317497Y-104250000D01*
%TO.N,Net-(C1-Pad2)*%
X111260000Y-108825000D02*
X111161069Y-108726069D01*
X111135000Y-108300000D02*
X111260000Y-108175000D01*
X111161069Y-108726069D02*
X111161069Y-108375935D01*
X110275000Y-108300000D02*
X111135000Y-108300000D01*
%TO.N,/SENS_VN*%
X110808929Y-98625870D02*
X110808929Y-98897645D01*
X110808929Y-98897645D02*
X110750000Y-98956574D01*
X110750000Y-98956574D02*
X110750000Y-99550000D01*
%TO.N,/SENS_VP*%
X112700500Y-98625000D02*
X112700500Y-98680454D01*
X112700500Y-98680454D02*
X112250000Y-99130954D01*
X112250000Y-99130954D02*
X112250000Y-99550000D01*
%TO.N,/CAPP*%
X111750000Y-99065948D02*
X111750000Y-99550000D01*
X112057502Y-98758446D02*
X111750000Y-99065948D01*
X112057502Y-98617052D02*
X112057502Y-98758446D01*
%TO.N,/CAPN*%
X111408098Y-98772132D02*
X111250000Y-98930230D01*
X111408098Y-98605879D02*
X111408098Y-98772132D01*
X111250000Y-98930230D02*
X111250000Y-99550000D01*
%TO.N,/IO5*%
X113250000Y-106934052D02*
X113864988Y-107549040D01*
X114635013Y-107549039D02*
X114935012Y-107249040D01*
X113250000Y-106450000D02*
X113250000Y-106934052D01*
X117969040Y-107249040D02*
X118500000Y-107780000D01*
X113864988Y-107549040D02*
X114635013Y-107549039D01*
X114935012Y-107249040D02*
X117969040Y-107249040D01*
%TO.N,/IO9*%
X113534017Y-108348080D02*
X117053074Y-108348080D01*
X117700480Y-109700480D02*
X118500000Y-110500000D01*
X110250000Y-106934052D02*
X110864988Y-107549040D01*
X112734977Y-107549040D02*
X113534017Y-108348080D01*
X117700480Y-108995486D02*
X117700480Y-109700480D01*
X110864988Y-107549040D02*
X112734977Y-107549040D01*
X117053074Y-108348080D02*
X117700480Y-108995486D01*
X110250000Y-106450000D02*
X110250000Y-106934052D01*
%TO.N,/IO10*%
X116918560Y-107648560D02*
X118500000Y-109230000D01*
X110750000Y-106869046D02*
X111030474Y-107149520D01*
X115100498Y-107648560D02*
X116918560Y-107648560D01*
X113699502Y-107948560D02*
X114800500Y-107948558D01*
X112900462Y-107149520D02*
X113699502Y-107948560D01*
X114800500Y-107948558D02*
X115100498Y-107648560D01*
X110750000Y-106450000D02*
X110750000Y-106869046D01*
X111030474Y-107149520D02*
X112900462Y-107149520D01*
%TO.N,/IO18*%
X113750000Y-106869046D02*
X114030474Y-107149520D01*
X114469526Y-107149520D02*
X114769526Y-106849520D01*
X114030474Y-107149520D02*
X114469526Y-107149520D01*
X117910480Y-106849520D02*
X118500000Y-106260000D01*
X114769526Y-106849520D02*
X117910480Y-106849520D01*
X113750000Y-106450000D02*
X113750000Y-106869046D01*
%TO.N,/IO19*%
X116735000Y-105250000D02*
X118265000Y-103720000D01*
X114950000Y-105250000D02*
X116735000Y-105250000D01*
X118265000Y-103720000D02*
X118500000Y-103720000D01*
%TO.N,/IO21*%
X115964786Y-103035214D02*
X115750000Y-103250000D01*
X117820000Y-101180000D02*
X116285214Y-102714786D01*
X115964786Y-102974531D02*
X115964786Y-103035214D01*
X116224531Y-102714786D02*
X115964786Y-102974531D01*
X115750000Y-103250000D02*
X114950000Y-103250000D01*
X116285214Y-102714786D02*
X116224531Y-102714786D01*
X118500000Y-101180000D02*
X117820000Y-101180000D01*
%TO.N,/IO22*%
X117700480Y-103345934D02*
X118500000Y-102546414D01*
X117700480Y-103549520D02*
X117700480Y-103345934D01*
X118500000Y-102546414D02*
X118500000Y-102450000D01*
X114950000Y-104750000D02*
X116500000Y-104750000D01*
X116500000Y-104750000D02*
X117700480Y-103549520D01*
%TO.N,/IO23*%
X117040000Y-106450000D02*
X118500000Y-104990000D01*
X114250000Y-106450000D02*
X117040000Y-106450000D01*
%TO.N,/IO25*%
X105752402Y-102498540D02*
X107500942Y-100750000D01*
X107500942Y-100750000D02*
X108050000Y-100750000D01*
X104500000Y-107950000D02*
X105550000Y-107950000D01*
X105752401Y-107747599D02*
X105752402Y-102498540D01*
X105550000Y-107950000D02*
X105752401Y-107747599D01*
%TO.N,/IO26*%
X107565948Y-101250000D02*
X106151921Y-102664027D01*
X105595868Y-109220000D02*
X106151921Y-108663947D01*
X104500000Y-109220000D02*
X105595868Y-109220000D01*
X106151921Y-108663947D02*
X106151921Y-107543796D01*
X106151921Y-102664027D02*
X106151921Y-107500000D01*
X108050000Y-101250000D02*
X107565948Y-101250000D01*
%TO.N,/IO27*%
X108050000Y-101750000D02*
X107630954Y-101750000D01*
X106551441Y-102829513D02*
X106551441Y-108829433D01*
X106551441Y-108829433D02*
X104890874Y-110490000D01*
X104890874Y-110490000D02*
X104500000Y-110490000D01*
X107630954Y-101750000D02*
X106551441Y-102829513D01*
%TO.N,/IO32*%
X107550000Y-99550000D02*
X105500000Y-101600000D01*
X105500000Y-101600000D02*
X104500000Y-101600000D01*
X108750000Y-99550000D02*
X107550000Y-99550000D01*
%TO.N,/IO33*%
X107435936Y-100250000D02*
X108050000Y-100250000D01*
X104500000Y-106680000D02*
X105352883Y-105827117D01*
X105352883Y-105827117D02*
X105352883Y-102333053D01*
X105352883Y-102333053D02*
X107435936Y-100250000D01*
%TO.N,/IO34*%
X109750000Y-98939926D02*
X109668798Y-98858724D01*
X109750000Y-99550000D02*
X109750000Y-98939926D01*
%TO.N,/IO35*%
X108969526Y-98850480D02*
X107684514Y-98850480D01*
X106204994Y-100330000D02*
X104500000Y-100330000D01*
X109250000Y-99550000D02*
X109250000Y-99130954D01*
X107684514Y-98850480D02*
X106204994Y-100330000D01*
X109250000Y-99130954D02*
X108969526Y-98850480D01*
%TD*%
%TA.AperFunction,Conductor*%
%TO.N,GND*%
G36*
X105829445Y-110073143D02*
G01*
X105872710Y-110116408D01*
X105883500Y-110161353D01*
X105883500Y-111379500D01*
X105864593Y-111437691D01*
X105815093Y-111473655D01*
X105784500Y-111478500D01*
X105456000Y-111478500D01*
X105412200Y-111487213D01*
X105386924Y-111492240D01*
X105386922Y-111492241D01*
X105377359Y-111494143D01*
X105310690Y-111538690D01*
X105266143Y-111605359D01*
X105264241Y-111614922D01*
X105264240Y-111614924D01*
X105262788Y-111622226D01*
X105250500Y-111684000D01*
X105250500Y-112284000D01*
X105256367Y-112313496D01*
X105264207Y-112352907D01*
X105266143Y-112362641D01*
X105310690Y-112429310D01*
X105377359Y-112473857D01*
X105386925Y-112475760D01*
X105394387Y-112478851D01*
X105440912Y-112518589D01*
X105455500Y-112570315D01*
X105455500Y-113997685D01*
X105436593Y-114055876D01*
X105394387Y-114089149D01*
X105386925Y-114092240D01*
X105377359Y-114094143D01*
X105310690Y-114138690D01*
X105305271Y-114146800D01*
X105296811Y-114159461D01*
X105266143Y-114205359D01*
X105264241Y-114214922D01*
X105264240Y-114214924D01*
X105259213Y-114240200D01*
X105250500Y-114284000D01*
X105250500Y-114701000D01*
X105231593Y-114759191D01*
X105182093Y-114795155D01*
X105151500Y-114800000D01*
X104299000Y-114800000D01*
X104240809Y-114781093D01*
X104204845Y-114731593D01*
X104200000Y-114701000D01*
X104200000Y-111289500D01*
X104218907Y-111231309D01*
X104268407Y-111195345D01*
X104299000Y-111190500D01*
X104833050Y-111190500D01*
X105200500Y-110823050D01*
X105200500Y-110646353D01*
X105219407Y-110588162D01*
X105229496Y-110576349D01*
X105714496Y-110091349D01*
X105769013Y-110063572D01*
X105829445Y-110073143D01*
G37*
%TD.AperFunction*%
%TA.AperFunction,Conductor*%
G36*
X116945786Y-108667487D02*
G01*
X116957599Y-108677576D01*
X117370984Y-109090961D01*
X117398761Y-109145478D01*
X117399980Y-109160965D01*
X117399980Y-109648372D01*
X117399750Y-109651504D01*
X117398257Y-109655852D01*
X117398600Y-109664988D01*
X117399910Y-109699881D01*
X117399980Y-109703595D01*
X117399980Y-109727326D01*
X117400815Y-109731810D01*
X117401062Y-109734484D01*
X117401411Y-109739869D01*
X117402079Y-109757650D01*
X117402454Y-109767642D01*
X117406060Y-109776037D01*
X117406061Y-109776039D01*
X117406994Y-109778210D01*
X117413357Y-109799154D01*
X117415463Y-109810459D01*
X117420260Y-109818241D01*
X117420261Y-109818244D01*
X117429428Y-109833116D01*
X117436110Y-109845979D01*
X117446614Y-109870428D01*
X117451935Y-109876906D01*
X117455438Y-109880409D01*
X117468619Y-109897084D01*
X117469367Y-109897909D01*
X117474164Y-109905691D01*
X117481440Y-109911224D01*
X117496188Y-109922439D01*
X117506266Y-109931238D01*
X117648172Y-110073143D01*
X117770503Y-110195474D01*
X117798281Y-110249991D01*
X117799500Y-110265478D01*
X117799500Y-110833050D01*
X118166950Y-111200500D01*
X118701000Y-111200500D01*
X118759191Y-111219407D01*
X118795155Y-111268907D01*
X118800000Y-111299500D01*
X118800000Y-111446418D01*
X118798228Y-111465063D01*
X118794329Y-111485395D01*
X118795196Y-111509107D01*
X118796157Y-111535375D01*
X118793067Y-111535488D01*
X118793232Y-111537213D01*
X118795457Y-111537080D01*
X118795457Y-111537082D01*
X118797360Y-111569002D01*
X118797466Y-111571202D01*
X118798553Y-111600909D01*
X118799467Y-111604335D01*
X118799689Y-111608052D01*
X118801265Y-111613421D01*
X118801266Y-111613424D01*
X118807806Y-111635697D01*
X118808467Y-111638057D01*
X118816842Y-111669434D01*
X118813845Y-111670234D01*
X118814175Y-111672146D01*
X118818164Y-111670974D01*
X118818165Y-111670975D01*
X118834816Y-111727683D01*
X118835009Y-111728619D01*
X118834443Y-111734073D01*
X118845714Y-111765419D01*
X118847537Y-111771008D01*
X118852389Y-111787533D01*
X118851154Y-111787896D01*
X118855744Y-111842741D01*
X118824034Y-111895068D01*
X118813070Y-111903275D01*
X118760744Y-111937061D01*
X118688473Y-112028737D01*
X118685763Y-112036455D01*
X118685761Y-112036458D01*
X118654424Y-112125695D01*
X118649794Y-112138879D01*
X118649656Y-112156484D01*
X118649059Y-112232488D01*
X118648877Y-112255612D01*
X118685821Y-112366349D01*
X118690785Y-112372854D01*
X118690786Y-112372855D01*
X118742284Y-112440333D01*
X118762558Y-112498062D01*
X118741332Y-112561685D01*
X118688473Y-112628737D01*
X118685763Y-112636455D01*
X118685761Y-112636458D01*
X118652505Y-112731159D01*
X118649794Y-112738879D01*
X118648877Y-112855612D01*
X118685821Y-112966349D01*
X118690785Y-112972854D01*
X118690786Y-112972855D01*
X118742284Y-113040333D01*
X118762558Y-113098062D01*
X118741332Y-113161685D01*
X118688473Y-113228737D01*
X118685763Y-113236455D01*
X118685761Y-113236458D01*
X118652505Y-113331159D01*
X118649794Y-113338879D01*
X118648877Y-113455612D01*
X118685821Y-113566349D01*
X118756644Y-113659148D01*
X118789292Y-113680963D01*
X118827171Y-113729013D01*
X118829280Y-113791168D01*
X118818219Y-113828840D01*
X118815264Y-113827972D01*
X118814873Y-113829664D01*
X118817014Y-113830239D01*
X118808707Y-113861145D01*
X118808093Y-113863327D01*
X118799744Y-113891763D01*
X118799527Y-113895303D01*
X118798560Y-113898899D01*
X118798355Y-113904498D01*
X118798355Y-113904500D01*
X118797507Y-113927699D01*
X118797388Y-113930137D01*
X118795397Y-113962555D01*
X118792301Y-113962365D01*
X118792008Y-113964283D01*
X118796164Y-113964435D01*
X118794336Y-114014413D01*
X118795372Y-114019865D01*
X118798261Y-114035074D01*
X118800000Y-114053551D01*
X118800000Y-114701000D01*
X118781093Y-114759191D01*
X118731593Y-114795155D01*
X118701000Y-114800000D01*
X117860500Y-114800000D01*
X117802309Y-114781093D01*
X117766345Y-114731593D01*
X117761500Y-114701000D01*
X117761500Y-114284000D01*
X117752787Y-114240200D01*
X117747760Y-114214924D01*
X117747759Y-114214922D01*
X117745857Y-114205359D01*
X117715189Y-114159461D01*
X117706729Y-114146800D01*
X117701310Y-114138690D01*
X117634641Y-114094143D01*
X117625075Y-114092240D01*
X117617613Y-114089149D01*
X117571088Y-114049411D01*
X117556500Y-113997685D01*
X117556500Y-112570315D01*
X117575407Y-112512124D01*
X117617613Y-112478851D01*
X117625075Y-112475760D01*
X117634641Y-112473857D01*
X117701310Y-112429310D01*
X117745857Y-112362641D01*
X117747794Y-112352907D01*
X117755633Y-112313496D01*
X117761500Y-112284000D01*
X117761500Y-111684000D01*
X117749212Y-111622226D01*
X117747760Y-111614924D01*
X117747759Y-111614922D01*
X117745857Y-111605359D01*
X117701310Y-111538690D01*
X117634641Y-111494143D01*
X117625078Y-111492241D01*
X117625076Y-111492240D01*
X117599800Y-111487213D01*
X117556000Y-111478500D01*
X116956000Y-111478500D01*
X116912200Y-111487213D01*
X116886924Y-111492240D01*
X116886922Y-111492241D01*
X116877359Y-111494143D01*
X116810690Y-111538690D01*
X116766143Y-111605359D01*
X116764240Y-111614924D01*
X116761149Y-111622387D01*
X116721411Y-111668912D01*
X116669685Y-111683500D01*
X115886926Y-111683500D01*
X115828735Y-111664593D01*
X115792771Y-111615093D01*
X115792771Y-111553907D01*
X115825976Y-111506487D01*
X115844072Y-111492349D01*
X115844076Y-111492345D01*
X115847893Y-111489363D01*
X115851055Y-111485700D01*
X115851060Y-111485695D01*
X115979332Y-111337089D01*
X115982496Y-111333424D01*
X116005766Y-111292463D01*
X116081858Y-111158517D01*
X116081859Y-111158514D01*
X116084247Y-111154311D01*
X116091072Y-111133797D01*
X116147743Y-110963435D01*
X116147743Y-110963433D01*
X116149270Y-110958844D01*
X116154154Y-110920187D01*
X116174740Y-110757225D01*
X116175088Y-110754471D01*
X116175127Y-110751696D01*
X116175319Y-110748948D01*
X116176542Y-110749034D01*
X116194841Y-110695336D01*
X116244849Y-110660082D01*
X116306028Y-110660956D01*
X116334358Y-110676119D01*
X116397250Y-110724378D01*
X116543285Y-110784868D01*
X116700000Y-110805500D01*
X116856715Y-110784868D01*
X117002750Y-110724378D01*
X117128153Y-110628153D01*
X117224378Y-110502750D01*
X117284868Y-110356715D01*
X117305500Y-110200000D01*
X117284868Y-110043285D01*
X117224378Y-109897250D01*
X117128153Y-109771847D01*
X117002750Y-109675622D01*
X116856715Y-109615132D01*
X116700000Y-109594500D01*
X116588876Y-109609130D01*
X116528717Y-109597980D01*
X116505951Y-109580980D01*
X116148842Y-109223870D01*
X116146790Y-109221492D01*
X116144772Y-109217364D01*
X116112482Y-109187411D01*
X116109806Y-109184834D01*
X116093014Y-109168042D01*
X116089255Y-109165463D01*
X116087174Y-109163734D01*
X116083117Y-109160171D01*
X116069459Y-109147501D01*
X116069456Y-109147499D01*
X116062756Y-109141284D01*
X116052075Y-109137023D01*
X116032758Y-109126708D01*
X116023282Y-109120207D01*
X115997380Y-109114060D01*
X115983577Y-109109694D01*
X115958850Y-109099829D01*
X115950507Y-109099011D01*
X115945557Y-109099011D01*
X115924438Y-109096540D01*
X115923328Y-109096486D01*
X115914434Y-109094375D01*
X115893036Y-109097287D01*
X115887011Y-109098107D01*
X115873661Y-109099011D01*
X113889893Y-109099011D01*
X113831702Y-109080104D01*
X113795738Y-109030604D01*
X113792112Y-108984525D01*
X113805500Y-108900000D01*
X113785653Y-108774694D01*
X113785502Y-108774398D01*
X113785501Y-108716988D01*
X113821464Y-108667488D01*
X113879656Y-108648580D01*
X116887595Y-108648580D01*
X116945786Y-108667487D01*
G37*
%TD.AperFunction*%
%TA.AperFunction,Conductor*%
G36*
X114495456Y-109718918D02*
G01*
X114531420Y-109768418D01*
X114531420Y-109829604D01*
X114499299Y-109876165D01*
X114445740Y-109919228D01*
X114381505Y-109970874D01*
X114369643Y-109985011D01*
X114252202Y-110124971D01*
X114252199Y-110124975D01*
X114249093Y-110128677D01*
X114149853Y-110309194D01*
X114087565Y-110505549D01*
X114087025Y-110510361D01*
X114087025Y-110510362D01*
X114070134Y-110660956D01*
X114064603Y-110710263D01*
X114081840Y-110915538D01*
X114083173Y-110920186D01*
X114083173Y-110920187D01*
X114110400Y-111015136D01*
X114138621Y-111113555D01*
X114232782Y-111296773D01*
X114360737Y-111458212D01*
X114420542Y-111509110D01*
X114452600Y-111561221D01*
X114447906Y-111622226D01*
X114408251Y-111668821D01*
X114356376Y-111683500D01*
X113873109Y-111683500D01*
X113869977Y-111683270D01*
X113865629Y-111681777D01*
X113852205Y-111682281D01*
X113821600Y-111683430D01*
X113817886Y-111683500D01*
X113794154Y-111683500D01*
X113789670Y-111684335D01*
X113786996Y-111684582D01*
X113781611Y-111684931D01*
X113762971Y-111685631D01*
X113762970Y-111685631D01*
X113753838Y-111685974D01*
X113745443Y-111689580D01*
X113745441Y-111689581D01*
X113743270Y-111690514D01*
X113722326Y-111696877D01*
X113720832Y-111697156D01*
X113720008Y-111697309D01*
X113720007Y-111697309D01*
X113711021Y-111698983D01*
X113703239Y-111703780D01*
X113703236Y-111703781D01*
X113688364Y-111712948D01*
X113675501Y-111719630D01*
X113651052Y-111730134D01*
X113644574Y-111735454D01*
X113641069Y-111738959D01*
X113624404Y-111752131D01*
X113623568Y-111752889D01*
X113615789Y-111757684D01*
X113610257Y-111764959D01*
X113610256Y-111764960D01*
X113599047Y-111779701D01*
X113590247Y-111789781D01*
X113105425Y-112274603D01*
X113050908Y-112302380D01*
X112997052Y-112295861D01*
X112993284Y-112294277D01*
X112989023Y-112291973D01*
X112890631Y-112261516D01*
X112796859Y-112232488D01*
X112796855Y-112232487D01*
X112792238Y-112231058D01*
X112787431Y-112230553D01*
X112787427Y-112230552D01*
X112592185Y-112210032D01*
X112592183Y-112210032D01*
X112587369Y-112209526D01*
X112519372Y-112215714D01*
X112387039Y-112227757D01*
X112387036Y-112227758D01*
X112382219Y-112228196D01*
X112377577Y-112229562D01*
X112377573Y-112229563D01*
X112189250Y-112284989D01*
X112189247Y-112284990D01*
X112184603Y-112286357D01*
X112180309Y-112288602D01*
X112006344Y-112379548D01*
X112006340Y-112379551D01*
X112002047Y-112381795D01*
X111998271Y-112384831D01*
X111998268Y-112384833D01*
X111868212Y-112489401D01*
X111841505Y-112510874D01*
X111768736Y-112597597D01*
X111712202Y-112664971D01*
X111712199Y-112664975D01*
X111709093Y-112668677D01*
X111609853Y-112849194D01*
X111547565Y-113045549D01*
X111547025Y-113050361D01*
X111547025Y-113050362D01*
X111541136Y-113102870D01*
X111524603Y-113250263D01*
X111528548Y-113297240D01*
X111540809Y-113443257D01*
X111541840Y-113455538D01*
X111543173Y-113460186D01*
X111543173Y-113460187D01*
X111566536Y-113541661D01*
X111598621Y-113653555D01*
X111692782Y-113836773D01*
X111820737Y-113998212D01*
X111824417Y-114001344D01*
X111824419Y-114001346D01*
X111885760Y-114053551D01*
X111977612Y-114131723D01*
X111981835Y-114134083D01*
X111981839Y-114134086D01*
X112027243Y-114159461D01*
X112157432Y-114232221D01*
X112162030Y-114233715D01*
X112348742Y-114294382D01*
X112348745Y-114294383D01*
X112353347Y-114295878D01*
X112557895Y-114320269D01*
X112562717Y-114319898D01*
X112562720Y-114319898D01*
X112758458Y-114304837D01*
X112758463Y-114304836D01*
X112763286Y-114304465D01*
X112961695Y-114249068D01*
X112992089Y-114233715D01*
X113141244Y-114158371D01*
X113141246Y-114158370D01*
X113145565Y-114156188D01*
X113307893Y-114029363D01*
X113311055Y-114025700D01*
X113311060Y-114025695D01*
X113420341Y-113899091D01*
X113442496Y-113873424D01*
X113449472Y-113861145D01*
X113541858Y-113698517D01*
X113541859Y-113698514D01*
X113544247Y-113694311D01*
X113548688Y-113680963D01*
X113607743Y-113503435D01*
X113607743Y-113503433D01*
X113609270Y-113498844D01*
X113610133Y-113492018D01*
X113631763Y-113320792D01*
X113635088Y-113294471D01*
X113635131Y-113291440D01*
X113635461Y-113267776D01*
X113635500Y-113265000D01*
X113633584Y-113245455D01*
X113615870Y-113064796D01*
X113615869Y-113064792D01*
X113615398Y-113059986D01*
X113612493Y-113050362D01*
X113557256Y-112867412D01*
X113555858Y-112862780D01*
X113548635Y-112849194D01*
X113524757Y-112804288D01*
X113514132Y-112744032D01*
X113542165Y-112687806D01*
X113916475Y-112313496D01*
X113970992Y-112285719D01*
X113986479Y-112284500D01*
X114381932Y-112284500D01*
X114440123Y-112303407D01*
X114476087Y-112352907D01*
X114476087Y-112414093D01*
X114443966Y-112460654D01*
X114381505Y-112510874D01*
X114308736Y-112597597D01*
X114252202Y-112664971D01*
X114252199Y-112664975D01*
X114249093Y-112668677D01*
X114149853Y-112849194D01*
X114087565Y-113045549D01*
X114087025Y-113050361D01*
X114087025Y-113050362D01*
X114081136Y-113102870D01*
X114064603Y-113250263D01*
X114068548Y-113297240D01*
X114080809Y-113443257D01*
X114081840Y-113455538D01*
X114083173Y-113460186D01*
X114083173Y-113460187D01*
X114106536Y-113541661D01*
X114138621Y-113653555D01*
X114232782Y-113836773D01*
X114360737Y-113998212D01*
X114364417Y-114001344D01*
X114364419Y-114001346D01*
X114425760Y-114053551D01*
X114517612Y-114131723D01*
X114521835Y-114134083D01*
X114521839Y-114134086D01*
X114567243Y-114159461D01*
X114697432Y-114232221D01*
X114702030Y-114233715D01*
X114888742Y-114294382D01*
X114888745Y-114294383D01*
X114893347Y-114295878D01*
X115097895Y-114320269D01*
X115102717Y-114319898D01*
X115102720Y-114319898D01*
X115298458Y-114304837D01*
X115298463Y-114304836D01*
X115303286Y-114304465D01*
X115501695Y-114249068D01*
X115532089Y-114233715D01*
X115681244Y-114158371D01*
X115681246Y-114158370D01*
X115685565Y-114156188D01*
X115847893Y-114029363D01*
X115851055Y-114025700D01*
X115851060Y-114025695D01*
X115960341Y-113899091D01*
X115982496Y-113873424D01*
X115989472Y-113861145D01*
X116081858Y-113698517D01*
X116081859Y-113698514D01*
X116084247Y-113694311D01*
X116088688Y-113680963D01*
X116147743Y-113503435D01*
X116147743Y-113503433D01*
X116149270Y-113498844D01*
X116150133Y-113492018D01*
X116171763Y-113320792D01*
X116175088Y-113294471D01*
X116175131Y-113291440D01*
X116175461Y-113267776D01*
X116175500Y-113265000D01*
X116173584Y-113245455D01*
X116155870Y-113064796D01*
X116155869Y-113064792D01*
X116155398Y-113059986D01*
X116152493Y-113050362D01*
X116097256Y-112867412D01*
X116095858Y-112862780D01*
X115999148Y-112680895D01*
X115868952Y-112521259D01*
X115843447Y-112500159D01*
X115794638Y-112459781D01*
X115761853Y-112408120D01*
X115765695Y-112347056D01*
X115804696Y-112299911D01*
X115857743Y-112284500D01*
X116669685Y-112284500D01*
X116727876Y-112303407D01*
X116761149Y-112345613D01*
X116764240Y-112353075D01*
X116766143Y-112362641D01*
X116810690Y-112429310D01*
X116877359Y-112473857D01*
X116886925Y-112475760D01*
X116894387Y-112478851D01*
X116940912Y-112518589D01*
X116955500Y-112570315D01*
X116955500Y-113997685D01*
X116936593Y-114055876D01*
X116894387Y-114089149D01*
X116886925Y-114092240D01*
X116877359Y-114094143D01*
X116810690Y-114138690D01*
X116805271Y-114146800D01*
X116796811Y-114159461D01*
X116766143Y-114205359D01*
X116764241Y-114214922D01*
X116764240Y-114214924D01*
X116759213Y-114240200D01*
X116750500Y-114284000D01*
X116750500Y-114701000D01*
X116731593Y-114759191D01*
X116682093Y-114795155D01*
X116651500Y-114800000D01*
X106360500Y-114800000D01*
X106302309Y-114781093D01*
X106266345Y-114731593D01*
X106261500Y-114701000D01*
X106261500Y-114284000D01*
X106252787Y-114240200D01*
X106247760Y-114214924D01*
X106247759Y-114214922D01*
X106245857Y-114205359D01*
X106215189Y-114159461D01*
X106206729Y-114146800D01*
X106201310Y-114138690D01*
X106134641Y-114094143D01*
X106125075Y-114092240D01*
X106117613Y-114089149D01*
X106071088Y-114049411D01*
X106056500Y-113997685D01*
X106056500Y-112570315D01*
X106075407Y-112512124D01*
X106117613Y-112478851D01*
X106125075Y-112475760D01*
X106134641Y-112473857D01*
X106201310Y-112429310D01*
X106245857Y-112362641D01*
X106247760Y-112353075D01*
X106250851Y-112345613D01*
X106290589Y-112299088D01*
X106342315Y-112284500D01*
X106761932Y-112284500D01*
X106820123Y-112303407D01*
X106856087Y-112352907D01*
X106856087Y-112414093D01*
X106823966Y-112460654D01*
X106761505Y-112510874D01*
X106688736Y-112597597D01*
X106632202Y-112664971D01*
X106632199Y-112664975D01*
X106629093Y-112668677D01*
X106529853Y-112849194D01*
X106467565Y-113045549D01*
X106467025Y-113050361D01*
X106467025Y-113050362D01*
X106461136Y-113102870D01*
X106444603Y-113250263D01*
X106448548Y-113297240D01*
X106460809Y-113443257D01*
X106461840Y-113455538D01*
X106463173Y-113460186D01*
X106463173Y-113460187D01*
X106486536Y-113541661D01*
X106518621Y-113653555D01*
X106612782Y-113836773D01*
X106740737Y-113998212D01*
X106744417Y-114001344D01*
X106744419Y-114001346D01*
X106805760Y-114053551D01*
X106897612Y-114131723D01*
X106901835Y-114134083D01*
X106901839Y-114134086D01*
X106947243Y-114159461D01*
X107077432Y-114232221D01*
X107082030Y-114233715D01*
X107268742Y-114294382D01*
X107268745Y-114294383D01*
X107273347Y-114295878D01*
X107477895Y-114320269D01*
X107482717Y-114319898D01*
X107482720Y-114319898D01*
X107678458Y-114304837D01*
X107678463Y-114304836D01*
X107683286Y-114304465D01*
X107881695Y-114249068D01*
X107912089Y-114233715D01*
X108061244Y-114158371D01*
X108061246Y-114158370D01*
X108065565Y-114156188D01*
X108227893Y-114029363D01*
X108231055Y-114025700D01*
X108231060Y-114025695D01*
X108340341Y-113899091D01*
X108362496Y-113873424D01*
X108369472Y-113861145D01*
X108461858Y-113698517D01*
X108461859Y-113698514D01*
X108464247Y-113694311D01*
X108468688Y-113680963D01*
X108527743Y-113503435D01*
X108527743Y-113503433D01*
X108529270Y-113498844D01*
X108530133Y-113492018D01*
X108551763Y-113320792D01*
X108555088Y-113294471D01*
X108555131Y-113291440D01*
X108555461Y-113267776D01*
X108555500Y-113265000D01*
X108553584Y-113245455D01*
X108535870Y-113064796D01*
X108535869Y-113064792D01*
X108535398Y-113059986D01*
X108532493Y-113050362D01*
X108477256Y-112867412D01*
X108475858Y-112862780D01*
X108379148Y-112680895D01*
X108248952Y-112521259D01*
X108223447Y-112500159D01*
X108174638Y-112459781D01*
X108141853Y-112408120D01*
X108145695Y-112347056D01*
X108184696Y-112299911D01*
X108237743Y-112284500D01*
X109301932Y-112284500D01*
X109360123Y-112303407D01*
X109396087Y-112352907D01*
X109396087Y-112414093D01*
X109363966Y-112460654D01*
X109301505Y-112510874D01*
X109228736Y-112597597D01*
X109172202Y-112664971D01*
X109172199Y-112664975D01*
X109169093Y-112668677D01*
X109069853Y-112849194D01*
X109007565Y-113045549D01*
X109007025Y-113050361D01*
X109007025Y-113050362D01*
X109001136Y-113102870D01*
X108984603Y-113250263D01*
X108988548Y-113297240D01*
X109000809Y-113443257D01*
X109001840Y-113455538D01*
X109003173Y-113460186D01*
X109003173Y-113460187D01*
X109026536Y-113541661D01*
X109058621Y-113653555D01*
X109152782Y-113836773D01*
X109280737Y-113998212D01*
X109284417Y-114001344D01*
X109284419Y-114001346D01*
X109345760Y-114053551D01*
X109437612Y-114131723D01*
X109441835Y-114134083D01*
X109441839Y-114134086D01*
X109487243Y-114159461D01*
X109617432Y-114232221D01*
X109622030Y-114233715D01*
X109808742Y-114294382D01*
X109808745Y-114294383D01*
X109813347Y-114295878D01*
X110017895Y-114320269D01*
X110022717Y-114319898D01*
X110022720Y-114319898D01*
X110218458Y-114304837D01*
X110218463Y-114304836D01*
X110223286Y-114304465D01*
X110421695Y-114249068D01*
X110452089Y-114233715D01*
X110601244Y-114158371D01*
X110601246Y-114158370D01*
X110605565Y-114156188D01*
X110767893Y-114029363D01*
X110771055Y-114025700D01*
X110771060Y-114025695D01*
X110880341Y-113899091D01*
X110902496Y-113873424D01*
X110909472Y-113861145D01*
X111001858Y-113698517D01*
X111001859Y-113698514D01*
X111004247Y-113694311D01*
X111008688Y-113680963D01*
X111067743Y-113503435D01*
X111067743Y-113503433D01*
X111069270Y-113498844D01*
X111070133Y-113492018D01*
X111091763Y-113320792D01*
X111095088Y-113294471D01*
X111095131Y-113291440D01*
X111095461Y-113267776D01*
X111095500Y-113265000D01*
X111093584Y-113245455D01*
X111075870Y-113064796D01*
X111075869Y-113064792D01*
X111075398Y-113059986D01*
X111072493Y-113050362D01*
X111017256Y-112867412D01*
X111015858Y-112862780D01*
X110919148Y-112680895D01*
X110788952Y-112521259D01*
X110763447Y-112500159D01*
X110714638Y-112459781D01*
X110681853Y-112408120D01*
X110685695Y-112347056D01*
X110724696Y-112299911D01*
X110777743Y-112284500D01*
X111228892Y-112284500D01*
X111232024Y-112284730D01*
X111236372Y-112286223D01*
X111245508Y-112285880D01*
X111280401Y-112284570D01*
X111284115Y-112284500D01*
X111307846Y-112284500D01*
X111312330Y-112283665D01*
X111315004Y-112283418D01*
X111320389Y-112283069D01*
X111339029Y-112282369D01*
X111339030Y-112282369D01*
X111348162Y-112282026D01*
X111356557Y-112278420D01*
X111356559Y-112278419D01*
X111358730Y-112277486D01*
X111379674Y-112271123D01*
X111381168Y-112270844D01*
X111381992Y-112270691D01*
X111381993Y-112270691D01*
X111390979Y-112269017D01*
X111398761Y-112264220D01*
X111398764Y-112264219D01*
X111413636Y-112255052D01*
X111426499Y-112248370D01*
X111450948Y-112237866D01*
X111457426Y-112232545D01*
X111460929Y-112229042D01*
X111477604Y-112215861D01*
X111478429Y-112215113D01*
X111486211Y-112210316D01*
X111492041Y-112202650D01*
X111502956Y-112188295D01*
X111511757Y-112178215D01*
X112002057Y-111687916D01*
X112056573Y-111660139D01*
X112120358Y-111671501D01*
X112157432Y-111692221D01*
X112162030Y-111693715D01*
X112348742Y-111754382D01*
X112348745Y-111754383D01*
X112353347Y-111755878D01*
X112557895Y-111780269D01*
X112562717Y-111779898D01*
X112562720Y-111779898D01*
X112758458Y-111764837D01*
X112758463Y-111764836D01*
X112763286Y-111764465D01*
X112961695Y-111709068D01*
X112966013Y-111706887D01*
X113141244Y-111618371D01*
X113141246Y-111618370D01*
X113145565Y-111616188D01*
X113307893Y-111489363D01*
X113311055Y-111485700D01*
X113311060Y-111485695D01*
X113439332Y-111337089D01*
X113442496Y-111333424D01*
X113465766Y-111292463D01*
X113541858Y-111158517D01*
X113541859Y-111158514D01*
X113544247Y-111154311D01*
X113551072Y-111133797D01*
X113607743Y-110963435D01*
X113607743Y-110963433D01*
X113609270Y-110958844D01*
X113614154Y-110920187D01*
X113634740Y-110757225D01*
X113635088Y-110754471D01*
X113635500Y-110725000D01*
X113633584Y-110705455D01*
X113615870Y-110524796D01*
X113615869Y-110524792D01*
X113615398Y-110519986D01*
X113612493Y-110510362D01*
X113567914Y-110362712D01*
X113555858Y-110322780D01*
X113459148Y-110140895D01*
X113328952Y-109981259D01*
X113253970Y-109919228D01*
X113200860Y-109875292D01*
X113168075Y-109823631D01*
X113171917Y-109762567D01*
X113210918Y-109715423D01*
X113263965Y-109700011D01*
X114437265Y-109700011D01*
X114495456Y-109718918D01*
G37*
%TD.AperFunction*%
%TA.AperFunction,Conductor*%
G36*
X108450587Y-106906053D02*
G01*
X108497995Y-106977005D01*
X108584941Y-107035100D01*
X108662363Y-107050500D01*
X108837637Y-107050500D01*
X108915059Y-107035100D01*
X108944999Y-107015095D01*
X109003887Y-106998487D01*
X109055001Y-107015095D01*
X109084941Y-107035100D01*
X109162363Y-107050500D01*
X109337637Y-107050500D01*
X109415059Y-107035100D01*
X109444999Y-107015095D01*
X109503887Y-106998487D01*
X109555001Y-107015095D01*
X109584941Y-107035100D01*
X109662363Y-107050500D01*
X109837637Y-107050500D01*
X109883853Y-107041307D01*
X109944613Y-107048499D01*
X109989543Y-107090031D01*
X109992794Y-107096624D01*
X109993376Y-107097580D01*
X109996134Y-107104000D01*
X110001455Y-107110478D01*
X110004958Y-107113981D01*
X110018139Y-107130656D01*
X110018887Y-107131481D01*
X110023684Y-107139263D01*
X110030959Y-107144795D01*
X110030960Y-107144796D01*
X110045705Y-107156008D01*
X110055785Y-107164808D01*
X110346473Y-107455496D01*
X110374250Y-107510013D01*
X110364679Y-107570445D01*
X110321414Y-107613710D01*
X110276469Y-107624500D01*
X110018431Y-107624500D01*
X110014587Y-107625109D01*
X110014585Y-107625109D01*
X109924663Y-107639351D01*
X109924662Y-107639351D01*
X109916968Y-107640570D01*
X109910029Y-107644106D01*
X109910028Y-107644106D01*
X109803897Y-107698182D01*
X109803895Y-107698183D01*
X109796958Y-107701718D01*
X109701718Y-107796958D01*
X109698183Y-107803895D01*
X109698182Y-107803897D01*
X109662839Y-107873263D01*
X109640570Y-107916968D01*
X109624500Y-108018431D01*
X109624500Y-108581569D01*
X109640570Y-108683032D01*
X109644106Y-108689971D01*
X109644106Y-108689972D01*
X109679738Y-108759903D01*
X109701718Y-108803042D01*
X109796958Y-108898282D01*
X109803895Y-108901817D01*
X109803897Y-108901818D01*
X109910028Y-108955894D01*
X109916968Y-108959430D01*
X109924662Y-108960649D01*
X109924663Y-108960649D01*
X110014585Y-108974891D01*
X110014587Y-108974891D01*
X110018431Y-108975500D01*
X110284521Y-108975500D01*
X110342712Y-108994407D01*
X110354525Y-109004496D01*
X110925179Y-109575150D01*
X110927231Y-109577528D01*
X110929250Y-109581658D01*
X110935950Y-109587873D01*
X110961553Y-109611623D01*
X110964229Y-109614200D01*
X110981009Y-109630980D01*
X110984766Y-109633558D01*
X110986851Y-109635290D01*
X110990905Y-109638851D01*
X111004563Y-109651521D01*
X111004566Y-109651523D01*
X111011266Y-109657738D01*
X111019757Y-109661126D01*
X111019758Y-109661126D01*
X111021950Y-109662001D01*
X111041261Y-109672313D01*
X111043200Y-109673643D01*
X111050741Y-109678816D01*
X111059635Y-109680927D01*
X111059636Y-109680927D01*
X111076631Y-109684960D01*
X111090460Y-109689334D01*
X111108682Y-109696604D01*
X111108684Y-109696604D01*
X111115172Y-109699193D01*
X111123515Y-109700011D01*
X111128465Y-109700011D01*
X111149584Y-109702482D01*
X111150694Y-109702536D01*
X111159588Y-109704647D01*
X111180986Y-109701735D01*
X111187011Y-109700915D01*
X111200361Y-109700011D01*
X111897265Y-109700011D01*
X111955456Y-109718918D01*
X111991420Y-109768418D01*
X111991420Y-109829604D01*
X111959299Y-109876165D01*
X111905740Y-109919228D01*
X111841505Y-109970874D01*
X111829643Y-109985011D01*
X111712202Y-110124971D01*
X111712199Y-110124975D01*
X111709093Y-110128677D01*
X111609853Y-110309194D01*
X111547565Y-110505549D01*
X111547025Y-110510361D01*
X111547025Y-110510362D01*
X111530134Y-110660956D01*
X111524603Y-110710263D01*
X111541840Y-110915538D01*
X111543173Y-110920186D01*
X111543173Y-110920187D01*
X111570400Y-111015136D01*
X111598621Y-111113555D01*
X111600836Y-111117865D01*
X111609024Y-111133797D01*
X111618807Y-111194196D01*
X111590975Y-111249054D01*
X111385603Y-111454425D01*
X111185524Y-111654504D01*
X111131008Y-111682281D01*
X111115521Y-111683500D01*
X110806926Y-111683500D01*
X110748735Y-111664593D01*
X110712771Y-111615093D01*
X110712771Y-111553907D01*
X110745976Y-111506487D01*
X110764072Y-111492349D01*
X110764076Y-111492345D01*
X110767893Y-111489363D01*
X110771055Y-111485700D01*
X110771060Y-111485695D01*
X110899332Y-111337089D01*
X110902496Y-111333424D01*
X110925766Y-111292463D01*
X111001858Y-111158517D01*
X111001859Y-111158514D01*
X111004247Y-111154311D01*
X111011072Y-111133797D01*
X111067743Y-110963435D01*
X111067743Y-110963433D01*
X111069270Y-110958844D01*
X111074154Y-110920187D01*
X111094740Y-110757225D01*
X111095088Y-110754471D01*
X111095500Y-110725000D01*
X111093584Y-110705455D01*
X111075870Y-110524796D01*
X111075869Y-110524792D01*
X111075398Y-110519986D01*
X111072493Y-110510362D01*
X111027914Y-110362712D01*
X111015858Y-110322780D01*
X110919148Y-110140895D01*
X110788952Y-109981259D01*
X110717737Y-109922345D01*
X110633955Y-109853034D01*
X110633953Y-109853033D01*
X110630228Y-109849951D01*
X110461111Y-109758509D01*
X110453277Y-109754273D01*
X110453276Y-109754272D01*
X110449023Y-109751973D01*
X110354664Y-109722764D01*
X110256859Y-109692488D01*
X110256855Y-109692487D01*
X110252238Y-109691058D01*
X110247431Y-109690553D01*
X110247427Y-109690552D01*
X110052185Y-109670032D01*
X110052183Y-109670032D01*
X110047369Y-109669526D01*
X110007669Y-109673139D01*
X109847039Y-109687757D01*
X109847036Y-109687758D01*
X109842219Y-109688196D01*
X109837577Y-109689562D01*
X109837573Y-109689563D01*
X109649250Y-109744989D01*
X109649247Y-109744990D01*
X109644603Y-109746357D01*
X109613596Y-109762567D01*
X109466344Y-109839548D01*
X109466340Y-109839551D01*
X109462047Y-109841795D01*
X109458271Y-109844831D01*
X109458268Y-109844833D01*
X109361863Y-109922345D01*
X109301505Y-109970874D01*
X109289643Y-109985011D01*
X109172202Y-110124971D01*
X109172199Y-110124975D01*
X109169093Y-110128677D01*
X109069853Y-110309194D01*
X109007565Y-110505549D01*
X109007025Y-110510361D01*
X109007025Y-110510362D01*
X108990134Y-110660956D01*
X108984603Y-110710263D01*
X109001840Y-110915538D01*
X109003173Y-110920186D01*
X109003173Y-110920187D01*
X109030400Y-111015136D01*
X109058621Y-111113555D01*
X109152782Y-111296773D01*
X109280737Y-111458212D01*
X109340542Y-111509110D01*
X109372600Y-111561221D01*
X109367906Y-111622226D01*
X109328251Y-111668821D01*
X109276376Y-111683500D01*
X106583500Y-111683500D01*
X106525309Y-111664593D01*
X106489345Y-111615093D01*
X106484500Y-111584500D01*
X106484500Y-109960236D01*
X106503407Y-109902045D01*
X106513496Y-109890232D01*
X107053458Y-109350270D01*
X107107975Y-109322493D01*
X107168407Y-109332064D01*
X107205025Y-109368683D01*
X107206406Y-109367680D01*
X107210987Y-109373986D01*
X107214523Y-109380925D01*
X107304232Y-109470634D01*
X107311169Y-109474169D01*
X107311171Y-109474170D01*
X107402100Y-109520500D01*
X107417273Y-109528231D01*
X107424967Y-109529450D01*
X107424968Y-109529450D01*
X107534883Y-109546859D01*
X107542579Y-109548078D01*
X107550275Y-109546859D01*
X107660190Y-109529450D01*
X107660191Y-109529450D01*
X107667885Y-109528231D01*
X107683058Y-109520500D01*
X107773987Y-109474170D01*
X107773989Y-109474169D01*
X107780926Y-109470634D01*
X107870635Y-109380925D01*
X107886255Y-109350270D01*
X107924695Y-109274826D01*
X107924695Y-109274825D01*
X107928232Y-109267884D01*
X107931115Y-109249685D01*
X107939383Y-109197484D01*
X107967160Y-109142968D01*
X108144410Y-108965718D01*
X108146788Y-108963666D01*
X108150918Y-108961647D01*
X108180883Y-108929344D01*
X108183460Y-108926668D01*
X108200240Y-108909888D01*
X108202818Y-108906131D01*
X108204550Y-108904046D01*
X108208111Y-108899992D01*
X108220781Y-108886334D01*
X108220783Y-108886331D01*
X108226998Y-108879631D01*
X108230386Y-108871139D01*
X108231261Y-108868947D01*
X108241573Y-108849636D01*
X108242903Y-108847697D01*
X108242904Y-108847696D01*
X108248076Y-108840156D01*
X108254220Y-108814266D01*
X108258594Y-108800437D01*
X108265864Y-108782215D01*
X108265864Y-108782213D01*
X108268453Y-108775725D01*
X108269271Y-108767382D01*
X108269271Y-108762432D01*
X108271742Y-108741313D01*
X108271796Y-108740203D01*
X108273907Y-108731309D01*
X108270175Y-108703886D01*
X108269271Y-108690536D01*
X108269271Y-106961054D01*
X108288178Y-106902863D01*
X108337678Y-106866899D01*
X108398864Y-106866899D01*
X108450587Y-106906053D01*
G37*
%TD.AperFunction*%
%TA.AperFunction,Conductor*%
G36*
X112627689Y-107868447D02*
G01*
X112639502Y-107878536D01*
X113179752Y-108418786D01*
X113207529Y-108473303D01*
X113197958Y-108533735D01*
X113168154Y-108568632D01*
X113161653Y-108571944D01*
X113128093Y-108605504D01*
X113073576Y-108633281D01*
X113058089Y-108634500D01*
X112701554Y-108634500D01*
X112643363Y-108615593D01*
X112619239Y-108590502D01*
X112600729Y-108562800D01*
X112595310Y-108554690D01*
X112528641Y-108510143D01*
X112519078Y-108508241D01*
X112519076Y-108508240D01*
X112493800Y-108503213D01*
X112450000Y-108494500D01*
X112230000Y-108494500D01*
X112186200Y-108503213D01*
X112160924Y-108508240D01*
X112160922Y-108508241D01*
X112151359Y-108510143D01*
X112084690Y-108554690D01*
X111864476Y-108774904D01*
X111809959Y-108802681D01*
X111749527Y-108793110D01*
X111712158Y-108759903D01*
X111698012Y-108738733D01*
X111698009Y-108738729D01*
X111695310Y-108734690D01*
X111530624Y-108570004D01*
X111502847Y-108515487D01*
X111512418Y-108455055D01*
X111530624Y-108429996D01*
X111695310Y-108265310D01*
X111739857Y-108198641D01*
X111742203Y-108186851D01*
X111749741Y-108148952D01*
X111755500Y-108120000D01*
X111755500Y-108050000D01*
X111739857Y-107971359D01*
X111742808Y-107970772D01*
X111739237Y-107925433D01*
X111771204Y-107873263D01*
X111827731Y-107849846D01*
X111835503Y-107849540D01*
X112569498Y-107849540D01*
X112627689Y-107868447D01*
G37*
%TD.AperFunction*%
%TA.AperFunction,Conductor*%
G36*
X114055001Y-100115095D02*
G01*
X114084941Y-100135100D01*
X114162363Y-100150500D01*
X114250500Y-100150500D01*
X114308691Y-100169407D01*
X114344655Y-100218907D01*
X114349500Y-100249500D01*
X114349500Y-100337637D01*
X114364900Y-100415059D01*
X114370317Y-100423166D01*
X114384905Y-100444999D01*
X114401513Y-100503887D01*
X114384905Y-100555001D01*
X114364900Y-100584941D01*
X114349500Y-100662363D01*
X114349500Y-100837637D01*
X114364900Y-100915059D01*
X114370317Y-100923166D01*
X114384905Y-100944999D01*
X114401513Y-101003887D01*
X114384905Y-101055001D01*
X114364900Y-101084941D01*
X114349500Y-101162363D01*
X114349500Y-101337637D01*
X114364900Y-101415059D01*
X114370317Y-101423166D01*
X114384905Y-101444999D01*
X114401513Y-101503887D01*
X114384905Y-101555001D01*
X114364900Y-101584941D01*
X114349500Y-101662363D01*
X114349500Y-101837637D01*
X114364900Y-101915059D01*
X114376921Y-101933050D01*
X114384905Y-101944999D01*
X114401513Y-102003887D01*
X114384905Y-102055001D01*
X114364900Y-102084941D01*
X114349500Y-102162363D01*
X114349500Y-102337637D01*
X114364900Y-102415059D01*
X114370317Y-102423166D01*
X114384905Y-102444999D01*
X114401513Y-102503887D01*
X114384905Y-102555001D01*
X114364900Y-102584941D01*
X114349500Y-102662363D01*
X114349500Y-102837637D01*
X114364900Y-102915059D01*
X114370317Y-102923166D01*
X114384905Y-102944999D01*
X114401513Y-103003887D01*
X114384905Y-103055001D01*
X114364900Y-103084941D01*
X114349500Y-103162363D01*
X114349500Y-103337637D01*
X114364900Y-103415059D01*
X114370317Y-103423166D01*
X114384905Y-103444999D01*
X114401513Y-103503887D01*
X114384905Y-103555001D01*
X114364900Y-103584941D01*
X114349500Y-103662363D01*
X114349500Y-103837637D01*
X114364900Y-103915059D01*
X114370317Y-103923166D01*
X114384905Y-103944999D01*
X114401513Y-104003887D01*
X114384905Y-104055001D01*
X114364900Y-104084941D01*
X114349500Y-104162363D01*
X114349500Y-104337637D01*
X114364900Y-104415059D01*
X114370317Y-104423166D01*
X114384905Y-104444999D01*
X114401513Y-104503887D01*
X114384905Y-104555001D01*
X114364900Y-104584941D01*
X114349500Y-104662363D01*
X114349500Y-104837637D01*
X114364900Y-104915059D01*
X114384905Y-104944999D01*
X114401513Y-105003887D01*
X114384905Y-105055001D01*
X114364900Y-105084941D01*
X114349500Y-105162363D01*
X114349500Y-105337637D01*
X114364900Y-105415059D01*
X114370317Y-105423166D01*
X114384905Y-105444999D01*
X114401513Y-105503887D01*
X114384905Y-105555001D01*
X114364900Y-105584941D01*
X114349500Y-105662363D01*
X114349500Y-105750500D01*
X114330593Y-105808691D01*
X114281093Y-105844655D01*
X114250500Y-105849500D01*
X114162363Y-105849500D01*
X114084941Y-105864900D01*
X114076833Y-105870317D01*
X114076834Y-105870317D01*
X114055001Y-105884905D01*
X113996113Y-105901513D01*
X113944999Y-105884905D01*
X113923166Y-105870317D01*
X113923167Y-105870317D01*
X113915059Y-105864900D01*
X113837637Y-105849500D01*
X113662363Y-105849500D01*
X113584941Y-105864900D01*
X113576833Y-105870317D01*
X113576834Y-105870317D01*
X113555001Y-105884905D01*
X113496113Y-105901513D01*
X113444999Y-105884905D01*
X113423166Y-105870317D01*
X113423167Y-105870317D01*
X113415059Y-105864900D01*
X113337637Y-105849500D01*
X113162363Y-105849500D01*
X113084941Y-105864900D01*
X113076833Y-105870317D01*
X113076834Y-105870317D01*
X113055001Y-105884905D01*
X112996113Y-105901513D01*
X112944999Y-105884905D01*
X112923166Y-105870317D01*
X112923167Y-105870317D01*
X112915059Y-105864900D01*
X112837637Y-105849500D01*
X112662363Y-105849500D01*
X112584941Y-105864900D01*
X112576833Y-105870317D01*
X112576834Y-105870317D01*
X112555001Y-105884905D01*
X112496113Y-105901513D01*
X112444999Y-105884905D01*
X112423166Y-105870317D01*
X112423167Y-105870317D01*
X112415059Y-105864900D01*
X112337637Y-105849500D01*
X112162363Y-105849500D01*
X112084941Y-105864900D01*
X112076833Y-105870317D01*
X112076834Y-105870317D01*
X112055001Y-105884905D01*
X111996113Y-105901513D01*
X111944999Y-105884905D01*
X111923166Y-105870317D01*
X111923167Y-105870317D01*
X111915059Y-105864900D01*
X111837637Y-105849500D01*
X111662363Y-105849500D01*
X111584941Y-105864900D01*
X111576833Y-105870317D01*
X111576834Y-105870317D01*
X111555001Y-105884905D01*
X111496113Y-105901513D01*
X111444999Y-105884905D01*
X111423166Y-105870317D01*
X111423167Y-105870317D01*
X111415059Y-105864900D01*
X111337637Y-105849500D01*
X111162363Y-105849500D01*
X111084941Y-105864900D01*
X111076833Y-105870317D01*
X111076834Y-105870317D01*
X111055001Y-105884905D01*
X110996113Y-105901513D01*
X110944999Y-105884905D01*
X110923166Y-105870317D01*
X110923167Y-105870317D01*
X110915059Y-105864900D01*
X110837637Y-105849500D01*
X110662363Y-105849500D01*
X110584941Y-105864900D01*
X110576833Y-105870317D01*
X110576834Y-105870317D01*
X110555001Y-105884905D01*
X110496113Y-105901513D01*
X110444999Y-105884905D01*
X110423166Y-105870317D01*
X110423167Y-105870317D01*
X110415059Y-105864900D01*
X110337637Y-105849500D01*
X110162363Y-105849500D01*
X110084941Y-105864900D01*
X110076833Y-105870317D01*
X110076834Y-105870317D01*
X110055001Y-105884905D01*
X109996113Y-105901513D01*
X109944999Y-105884905D01*
X109923166Y-105870317D01*
X109923167Y-105870317D01*
X109915059Y-105864900D01*
X109837637Y-105849500D01*
X109662363Y-105849500D01*
X109584941Y-105864900D01*
X109576833Y-105870317D01*
X109576834Y-105870317D01*
X109555001Y-105884905D01*
X109496113Y-105901513D01*
X109444999Y-105884905D01*
X109423166Y-105870317D01*
X109423167Y-105870317D01*
X109415059Y-105864900D01*
X109337637Y-105849500D01*
X109162363Y-105849500D01*
X109084941Y-105864900D01*
X109076833Y-105870317D01*
X109076834Y-105870317D01*
X109055001Y-105884905D01*
X108996113Y-105901513D01*
X108944999Y-105884905D01*
X108923166Y-105870317D01*
X108923167Y-105870317D01*
X108915059Y-105864900D01*
X108837637Y-105849500D01*
X108749500Y-105849500D01*
X108691309Y-105830593D01*
X108655345Y-105781093D01*
X108650500Y-105750500D01*
X108650500Y-105662363D01*
X108635100Y-105584941D01*
X108615095Y-105555001D01*
X108598487Y-105496113D01*
X108615095Y-105444999D01*
X108629683Y-105423166D01*
X108635100Y-105415059D01*
X108650500Y-105337637D01*
X108650500Y-105162363D01*
X108635100Y-105084941D01*
X108615095Y-105055001D01*
X108598487Y-104996113D01*
X108615095Y-104944999D01*
X108635100Y-104915059D01*
X108650500Y-104837637D01*
X108650500Y-104662363D01*
X108635100Y-104584941D01*
X108615095Y-104555001D01*
X108598487Y-104496113D01*
X108615095Y-104444999D01*
X108629683Y-104423166D01*
X108635100Y-104415059D01*
X108650500Y-104337637D01*
X108650500Y-104162363D01*
X108635100Y-104084941D01*
X108615095Y-104055001D01*
X108598487Y-103996113D01*
X108615095Y-103944999D01*
X108629683Y-103923166D01*
X108635100Y-103915059D01*
X108650500Y-103837637D01*
X108650500Y-103662363D01*
X108635100Y-103584941D01*
X108615095Y-103555001D01*
X108598487Y-103496113D01*
X108615095Y-103444999D01*
X108629683Y-103423166D01*
X108635100Y-103415059D01*
X108650500Y-103337637D01*
X108650500Y-103162363D01*
X108635100Y-103084941D01*
X108615095Y-103055001D01*
X108598487Y-102996113D01*
X108615095Y-102944999D01*
X108629683Y-102923166D01*
X108635100Y-102915059D01*
X108650500Y-102837637D01*
X108650500Y-102662363D01*
X108635100Y-102584941D01*
X108615095Y-102555001D01*
X108598487Y-102496113D01*
X108615095Y-102444999D01*
X108629683Y-102423166D01*
X108635100Y-102415059D01*
X108650500Y-102337637D01*
X108650500Y-102162363D01*
X108635100Y-102084941D01*
X108615095Y-102055001D01*
X108598487Y-101996113D01*
X108615095Y-101944999D01*
X108623079Y-101933050D01*
X108635100Y-101915059D01*
X108650500Y-101837637D01*
X108650500Y-101662363D01*
X108635100Y-101584941D01*
X108615095Y-101555001D01*
X108598487Y-101496113D01*
X108615095Y-101444999D01*
X108629683Y-101423166D01*
X108635100Y-101415059D01*
X108650500Y-101337637D01*
X108650500Y-101162363D01*
X108635100Y-101084941D01*
X108615095Y-101055001D01*
X108598487Y-100996113D01*
X108615095Y-100944999D01*
X108629683Y-100923166D01*
X108635100Y-100915059D01*
X108650500Y-100837637D01*
X108650500Y-100662363D01*
X108635100Y-100584941D01*
X108615095Y-100555001D01*
X108598487Y-100496113D01*
X108615095Y-100444999D01*
X108629683Y-100423166D01*
X108635100Y-100415059D01*
X108650500Y-100337637D01*
X108650500Y-100249500D01*
X108669407Y-100191309D01*
X108718907Y-100155345D01*
X108749500Y-100150500D01*
X108837637Y-100150500D01*
X108915059Y-100135100D01*
X108944999Y-100115095D01*
X109003887Y-100098487D01*
X109055001Y-100115095D01*
X109084941Y-100135100D01*
X109162363Y-100150500D01*
X109337637Y-100150500D01*
X109415059Y-100135100D01*
X109444999Y-100115095D01*
X109503887Y-100098487D01*
X109555001Y-100115095D01*
X109584941Y-100135100D01*
X109662363Y-100150500D01*
X109837637Y-100150500D01*
X109915059Y-100135100D01*
X109944999Y-100115095D01*
X110003887Y-100098487D01*
X110055001Y-100115095D01*
X110084941Y-100135100D01*
X110162363Y-100150500D01*
X110337637Y-100150500D01*
X110415059Y-100135100D01*
X110444999Y-100115095D01*
X110503887Y-100098487D01*
X110555001Y-100115095D01*
X110584941Y-100135100D01*
X110662363Y-100150500D01*
X110837637Y-100150500D01*
X110915059Y-100135100D01*
X110944999Y-100115095D01*
X111003887Y-100098487D01*
X111055001Y-100115095D01*
X111084941Y-100135100D01*
X111162363Y-100150500D01*
X111337637Y-100150500D01*
X111415059Y-100135100D01*
X111444999Y-100115095D01*
X111503887Y-100098487D01*
X111555001Y-100115095D01*
X111584941Y-100135100D01*
X111662363Y-100150500D01*
X111837637Y-100150500D01*
X111915059Y-100135100D01*
X111944999Y-100115095D01*
X112003887Y-100098487D01*
X112055001Y-100115095D01*
X112084941Y-100135100D01*
X112162363Y-100150500D01*
X112337637Y-100150500D01*
X112415059Y-100135100D01*
X112444999Y-100115095D01*
X112503887Y-100098487D01*
X112555001Y-100115095D01*
X112584941Y-100135100D01*
X112662363Y-100150500D01*
X112837637Y-100150500D01*
X112915059Y-100135100D01*
X112944999Y-100115095D01*
X113003887Y-100098487D01*
X113055001Y-100115095D01*
X113084941Y-100135100D01*
X113162363Y-100150500D01*
X113337637Y-100150500D01*
X113415059Y-100135100D01*
X113444999Y-100115095D01*
X113503887Y-100098487D01*
X113555001Y-100115095D01*
X113584941Y-100135100D01*
X113662363Y-100150500D01*
X113837637Y-100150500D01*
X113915059Y-100135100D01*
X113944999Y-100115095D01*
X114003887Y-100098487D01*
X114055001Y-100115095D01*
G37*
%TD.AperFunction*%
%TA.AperFunction,Conductor*%
G36*
X117445945Y-95750798D02*
G01*
X117489210Y-95794063D01*
X117500000Y-95839008D01*
X117500000Y-95896919D01*
X117500069Y-95897224D01*
X117500113Y-95898013D01*
X117500103Y-95909268D01*
X117500104Y-95909271D01*
X117500094Y-95920417D01*
X117504919Y-95930466D01*
X117505320Y-95931300D01*
X117512594Y-95952131D01*
X117515279Y-95963900D01*
X117522227Y-95972619D01*
X117522631Y-95973126D01*
X117534456Y-95991976D01*
X117539565Y-96002616D01*
X117548269Y-96009577D01*
X117548271Y-96009579D01*
X117548991Y-96010154D01*
X117564580Y-96025769D01*
X117572105Y-96035212D01*
X117582145Y-96040055D01*
X117582148Y-96040057D01*
X117582738Y-96040341D01*
X117601557Y-96052191D01*
X117610778Y-96059565D01*
X117621644Y-96062064D01*
X117621647Y-96062065D01*
X117622543Y-96062271D01*
X117643359Y-96069581D01*
X117644192Y-96069983D01*
X117644195Y-96069984D01*
X117654234Y-96074826D01*
X117676631Y-96074845D01*
X117677425Y-96074891D01*
X117677899Y-96075000D01*
X118621919Y-96075000D01*
X118622224Y-96074931D01*
X118623013Y-96074887D01*
X118634268Y-96074897D01*
X118634271Y-96074896D01*
X118645417Y-96074906D01*
X118656303Y-96069679D01*
X118677123Y-96062408D01*
X118678972Y-96061986D01*
X118739911Y-96067471D01*
X118785987Y-96107728D01*
X118800000Y-96158504D01*
X118800000Y-97946418D01*
X118798228Y-97965063D01*
X118794329Y-97985395D01*
X118795763Y-98024601D01*
X118796157Y-98035375D01*
X118793067Y-98035488D01*
X118793232Y-98037213D01*
X118795457Y-98037080D01*
X118795457Y-98037082D01*
X118797360Y-98069002D01*
X118797466Y-98071202D01*
X118798553Y-98100909D01*
X118799467Y-98104335D01*
X118799689Y-98108052D01*
X118801265Y-98113421D01*
X118801266Y-98113424D01*
X118807806Y-98135697D01*
X118808467Y-98138057D01*
X118816842Y-98169434D01*
X118813845Y-98170234D01*
X118814175Y-98172146D01*
X118818164Y-98170974D01*
X118818165Y-98170975D01*
X118834816Y-98227683D01*
X118835009Y-98228619D01*
X118834443Y-98234073D01*
X118845714Y-98265419D01*
X118847537Y-98271008D01*
X118852389Y-98287532D01*
X118855099Y-98292379D01*
X118855883Y-98294245D01*
X118856604Y-98295708D01*
X118858499Y-98300976D01*
X118861526Y-98305686D01*
X118861527Y-98305688D01*
X118867700Y-98315294D01*
X118870822Y-98320497D01*
X118885250Y-98346298D01*
X118897149Y-98406315D01*
X118871499Y-98461864D01*
X118852546Y-98477785D01*
X118760744Y-98537061D01*
X118755679Y-98543486D01*
X118755678Y-98543487D01*
X118734463Y-98570399D01*
X118688473Y-98628737D01*
X118685763Y-98636455D01*
X118685761Y-98636458D01*
X118661443Y-98705706D01*
X118649794Y-98738879D01*
X118648877Y-98855612D01*
X118685821Y-98966349D01*
X118690785Y-98972854D01*
X118690786Y-98972855D01*
X118742284Y-99040333D01*
X118762558Y-99098062D01*
X118741332Y-99161685D01*
X118733245Y-99171944D01*
X118688473Y-99228737D01*
X118685763Y-99236455D01*
X118685761Y-99236458D01*
X118658837Y-99313127D01*
X118649794Y-99338879D01*
X118649730Y-99347062D01*
X118649139Y-99422315D01*
X118648877Y-99455612D01*
X118685821Y-99566349D01*
X118690785Y-99572854D01*
X118690786Y-99572855D01*
X118712519Y-99601331D01*
X118756644Y-99659148D01*
X118763448Y-99663694D01*
X118853487Y-99723857D01*
X118891366Y-99771907D01*
X118893768Y-99833045D01*
X118884808Y-99854642D01*
X118870942Y-99879337D01*
X118867903Y-99884391D01*
X118861603Y-99894193D01*
X118861601Y-99894197D01*
X118858603Y-99898862D01*
X118856717Y-99904078D01*
X118855811Y-99905911D01*
X118855182Y-99907405D01*
X118852443Y-99912283D01*
X118850867Y-99917652D01*
X118850864Y-99917658D01*
X118847645Y-99928621D01*
X118845758Y-99934387D01*
X118838278Y-99955076D01*
X118838277Y-99955081D01*
X118834488Y-99965562D01*
X118835061Y-99971175D01*
X118834844Y-99972221D01*
X118818219Y-100028841D01*
X118815264Y-100027973D01*
X118814873Y-100029664D01*
X118817014Y-100030239D01*
X118808707Y-100061145D01*
X118808093Y-100063327D01*
X118799744Y-100091763D01*
X118799527Y-100095303D01*
X118798560Y-100098899D01*
X118798355Y-100104498D01*
X118798355Y-100104500D01*
X118797507Y-100127699D01*
X118797388Y-100130137D01*
X118795397Y-100162555D01*
X118792301Y-100162365D01*
X118792008Y-100164283D01*
X118796164Y-100164435D01*
X118794336Y-100214413D01*
X118795372Y-100219865D01*
X118798261Y-100235074D01*
X118800000Y-100253551D01*
X118800000Y-100380500D01*
X118781093Y-100438691D01*
X118731593Y-100474655D01*
X118701000Y-100479500D01*
X118254500Y-100479500D01*
X118196309Y-100460593D01*
X118160345Y-100411093D01*
X118155500Y-100380500D01*
X118155500Y-99590000D01*
X118143694Y-99530648D01*
X118141760Y-99520924D01*
X118141759Y-99520922D01*
X118139857Y-99511359D01*
X118095310Y-99444690D01*
X118061824Y-99422315D01*
X118023945Y-99374265D01*
X118021543Y-99313127D01*
X118055536Y-99262253D01*
X118061824Y-99257685D01*
X118087200Y-99240729D01*
X118095310Y-99235310D01*
X118139857Y-99168641D01*
X118155500Y-99090000D01*
X118155500Y-98090000D01*
X118139857Y-98011359D01*
X118134438Y-98003249D01*
X118110970Y-97968126D01*
X118094362Y-97909237D01*
X118115540Y-97851834D01*
X118122184Y-97844357D01*
X118122551Y-97843852D01*
X118128056Y-97838347D01*
X118138658Y-97817541D01*
X118182117Y-97732246D01*
X118185653Y-97725306D01*
X118187682Y-97712500D01*
X118204281Y-97607696D01*
X118205500Y-97600000D01*
X118197530Y-97549679D01*
X118186872Y-97482389D01*
X118186872Y-97482388D01*
X118185653Y-97474694D01*
X118179423Y-97462467D01*
X118131592Y-97368592D01*
X118131591Y-97368590D01*
X118128056Y-97361653D01*
X118038347Y-97271944D01*
X118031410Y-97268409D01*
X118031408Y-97268408D01*
X117932246Y-97217883D01*
X117925306Y-97214347D01*
X117917612Y-97213128D01*
X117917611Y-97213128D01*
X117807696Y-97195719D01*
X117800000Y-97194500D01*
X117792304Y-97195719D01*
X117682389Y-97213128D01*
X117682388Y-97213128D01*
X117674694Y-97214347D01*
X117667754Y-97217883D01*
X117568592Y-97268408D01*
X117568590Y-97268409D01*
X117561653Y-97271944D01*
X117471944Y-97361653D01*
X117468409Y-97368590D01*
X117468408Y-97368592D01*
X117420577Y-97462467D01*
X117414347Y-97474694D01*
X117413128Y-97482388D01*
X117413128Y-97482389D01*
X117402470Y-97549679D01*
X117394500Y-97600000D01*
X117395719Y-97607696D01*
X117395719Y-97607697D01*
X117398641Y-97626147D01*
X117399742Y-97646462D01*
X117399735Y-97646609D01*
X117399500Y-97649004D01*
X117399500Y-97653954D01*
X117397029Y-97675073D01*
X117396975Y-97676183D01*
X117394864Y-97685077D01*
X117396097Y-97694134D01*
X117398596Y-97712500D01*
X117399500Y-97725850D01*
X117399500Y-97785500D01*
X117380593Y-97843691D01*
X117331093Y-97879655D01*
X117300500Y-97884500D01*
X117150000Y-97884500D01*
X117106200Y-97893213D01*
X117080924Y-97898240D01*
X117080922Y-97898241D01*
X117071359Y-97900143D01*
X117004690Y-97944690D01*
X116960143Y-98011359D01*
X116944500Y-98090000D01*
X116944500Y-99090000D01*
X116960143Y-99168641D01*
X117004690Y-99235310D01*
X117004710Y-99235324D01*
X117029699Y-99284368D01*
X117020128Y-99344800D01*
X116976863Y-99388065D01*
X116912604Y-99396953D01*
X116850000Y-99384500D01*
X116050000Y-99384500D01*
X116007017Y-99393050D01*
X115980924Y-99398240D01*
X115980922Y-99398241D01*
X115971359Y-99400143D01*
X115904690Y-99444690D01*
X115860143Y-99511359D01*
X115858241Y-99520922D01*
X115858240Y-99520924D01*
X115856306Y-99530648D01*
X115844500Y-99590000D01*
X115844500Y-100590000D01*
X115852556Y-100630500D01*
X115857947Y-100657599D01*
X115860143Y-100668641D01*
X115878849Y-100696636D01*
X115895457Y-100755521D01*
X115874280Y-100812925D01*
X115823407Y-100846919D01*
X115781047Y-100849417D01*
X115757698Y-100845719D01*
X115757696Y-100845719D01*
X115750000Y-100844500D01*
X115734532Y-100846950D01*
X115682849Y-100855136D01*
X115664987Y-100857965D01*
X115604555Y-100848394D01*
X115561290Y-100805129D01*
X115550500Y-100760184D01*
X115550500Y-100662363D01*
X115535100Y-100584941D01*
X115515095Y-100555001D01*
X115498487Y-100496113D01*
X115515095Y-100444999D01*
X115529683Y-100423166D01*
X115535100Y-100415059D01*
X115550500Y-100337637D01*
X115550500Y-100162363D01*
X115535100Y-100084941D01*
X115497738Y-100029025D01*
X115482424Y-100006105D01*
X115477005Y-99997995D01*
X115390059Y-99939900D01*
X115312637Y-99924500D01*
X115130911Y-99924500D01*
X115072720Y-99905593D01*
X115036756Y-99856093D01*
X115036756Y-99794907D01*
X115060907Y-99755496D01*
X115078056Y-99738347D01*
X115088756Y-99717348D01*
X115132117Y-99632246D01*
X115135653Y-99625306D01*
X115142000Y-99585237D01*
X115154281Y-99507696D01*
X115155500Y-99500000D01*
X115139661Y-99400000D01*
X115136872Y-99382389D01*
X115136872Y-99382388D01*
X115135653Y-99374694D01*
X115120421Y-99344800D01*
X115081592Y-99268592D01*
X115081591Y-99268590D01*
X115078056Y-99261653D01*
X114988347Y-99171944D01*
X114981410Y-99168409D01*
X114981408Y-99168408D01*
X114882246Y-99117883D01*
X114875306Y-99114347D01*
X114867612Y-99113128D01*
X114867611Y-99113128D01*
X114757696Y-99095719D01*
X114750000Y-99094500D01*
X114631538Y-99113263D01*
X114571106Y-99103692D01*
X114533735Y-99070483D01*
X114507424Y-99031105D01*
X114502005Y-99022995D01*
X114415059Y-98964900D01*
X114337637Y-98949500D01*
X114299500Y-98949500D01*
X114241309Y-98930593D01*
X114205345Y-98881093D01*
X114200500Y-98850500D01*
X114200500Y-98729507D01*
X114202354Y-98712721D01*
X114202669Y-98711812D01*
X114203573Y-98703322D01*
X114203627Y-98701368D01*
X114207243Y-98570399D01*
X114209107Y-98553818D01*
X114234682Y-98425237D01*
X114240316Y-98406665D01*
X114287527Y-98292686D01*
X114296676Y-98275569D01*
X114299724Y-98271008D01*
X114369512Y-98166564D01*
X114379916Y-98153524D01*
X114394787Y-98137809D01*
X114427744Y-98102981D01*
X114431641Y-98099088D01*
X114485074Y-98048603D01*
X114498053Y-98038255D01*
X114614147Y-97960683D01*
X114631257Y-97951538D01*
X114752923Y-97901143D01*
X114771483Y-97895512D01*
X114908433Y-97868271D01*
X114924931Y-97866410D01*
X114937007Y-97866068D01*
X114949480Y-97865714D01*
X114957597Y-97865817D01*
X114957706Y-97865823D01*
X114957738Y-97865823D01*
X114959678Y-97865928D01*
X114961625Y-97865880D01*
X114961628Y-97865880D01*
X115088938Y-97862739D01*
X115102243Y-97863307D01*
X115126662Y-97866003D01*
X115126666Y-97866003D01*
X115132273Y-97866622D01*
X115140752Y-97865618D01*
X115142651Y-97865240D01*
X115142659Y-97865239D01*
X115202101Y-97853415D01*
X115204287Y-97853006D01*
X115219936Y-97850257D01*
X115260417Y-97843146D01*
X115263822Y-97841407D01*
X115267829Y-97840342D01*
X115374748Y-97819074D01*
X115385519Y-97817541D01*
X115416641Y-97814846D01*
X115416645Y-97814845D01*
X115422259Y-97814359D01*
X115427620Y-97812618D01*
X115427623Y-97812617D01*
X115428546Y-97812317D01*
X115428552Y-97812315D01*
X115430380Y-97811721D01*
X115479310Y-97791453D01*
X115483662Y-97789770D01*
X115526468Y-97774359D01*
X115533429Y-97771853D01*
X115539348Y-97767409D01*
X115541470Y-97766264D01*
X115550571Y-97761936D01*
X115650814Y-97720415D01*
X115661062Y-97716817D01*
X115691060Y-97708101D01*
X115691059Y-97708101D01*
X115696481Y-97706526D01*
X115703930Y-97702354D01*
X115747947Y-97672942D01*
X115751887Y-97670441D01*
X115779272Y-97653954D01*
X115797220Y-97643149D01*
X115802159Y-97637635D01*
X115804018Y-97636097D01*
X115812122Y-97630062D01*
X115824261Y-97621951D01*
X115896425Y-97573733D01*
X115907969Y-97567096D01*
X115930051Y-97556308D01*
X115930055Y-97556306D01*
X115935122Y-97553830D01*
X115941750Y-97548446D01*
X115946914Y-97543531D01*
X115987058Y-97505320D01*
X115988686Y-97503805D01*
X116019316Y-97475934D01*
X116024833Y-97471492D01*
X116027507Y-97470019D01*
X116033862Y-97464317D01*
X116035204Y-97462907D01*
X116035215Y-97462897D01*
X116068291Y-97428162D01*
X116071730Y-97424724D01*
X116071795Y-97424663D01*
X116081084Y-97415821D01*
X116083261Y-97413749D01*
X116083266Y-97413744D01*
X116085936Y-97411202D01*
X116089548Y-97406556D01*
X116096004Y-97399058D01*
X116122469Y-97371265D01*
X116132255Y-97362282D01*
X116155885Y-97343350D01*
X116161171Y-97336645D01*
X116195869Y-97284715D01*
X116197128Y-97282878D01*
X116225602Y-97242287D01*
X116225605Y-97242282D01*
X116229854Y-97236224D01*
X116231043Y-97232551D01*
X116233152Y-97228917D01*
X116240525Y-97217883D01*
X116292756Y-97139715D01*
X116299284Y-97131020D01*
X116304253Y-97125109D01*
X116323015Y-97102788D01*
X116325748Y-97097425D01*
X116326002Y-97096927D01*
X116326008Y-97096914D01*
X116326891Y-97095181D01*
X116347155Y-97046259D01*
X116349029Y-97042019D01*
X116371567Y-96994124D01*
X116372610Y-96986791D01*
X116373300Y-96984485D01*
X116376686Y-96974963D01*
X116380305Y-96966228D01*
X116417527Y-96876366D01*
X116422236Y-96866559D01*
X116437284Y-96839187D01*
X116440001Y-96834245D01*
X116442318Y-96826028D01*
X116452649Y-96774092D01*
X116453667Y-96769540D01*
X116464636Y-96725380D01*
X116466421Y-96718194D01*
X116466014Y-96710802D01*
X116466241Y-96708403D01*
X116467704Y-96698406D01*
X116487157Y-96600607D01*
X116490619Y-96587778D01*
X116500450Y-96559146D01*
X116501328Y-96550653D01*
X116502856Y-96488234D01*
X116502935Y-96486020D01*
X116505621Y-96429065D01*
X116504661Y-96425328D01*
X116504498Y-96421127D01*
X116506086Y-96356220D01*
X116506177Y-96352521D01*
X116501269Y-96313383D01*
X116500500Y-96301065D01*
X116500500Y-95909888D01*
X116502403Y-95890572D01*
X116504569Y-95879684D01*
X116534466Y-95826301D01*
X116590032Y-95800686D01*
X116601666Y-95800000D01*
X117300000Y-95800000D01*
X117330996Y-95769004D01*
X117385513Y-95741227D01*
X117445945Y-95750798D01*
G37*
%TD.AperFunction*%
%TA.AperFunction,Conductor*%
G36*
X107167859Y-95818907D02*
G01*
X107203823Y-95868407D01*
X107203823Y-95929593D01*
X107179672Y-95969004D01*
X107151718Y-95996958D01*
X107148183Y-96003895D01*
X107148182Y-96003897D01*
X107111954Y-96075000D01*
X107090570Y-96116968D01*
X107074500Y-96218431D01*
X107074500Y-96781569D01*
X107075109Y-96785413D01*
X107075109Y-96785415D01*
X107081983Y-96828813D01*
X107090570Y-96883032D01*
X107094106Y-96889971D01*
X107094106Y-96889972D01*
X107145328Y-96990500D01*
X107151718Y-97003042D01*
X107246958Y-97098282D01*
X107253895Y-97101817D01*
X107253897Y-97101818D01*
X107268947Y-97109486D01*
X107312212Y-97152751D01*
X107321783Y-97213181D01*
X107320719Y-97219900D01*
X107320719Y-97219904D01*
X107319500Y-97227600D01*
X107320719Y-97235295D01*
X107320719Y-97235296D01*
X107326880Y-97274195D01*
X107317309Y-97334627D01*
X107274045Y-97377891D01*
X107243595Y-97393406D01*
X107243591Y-97393409D01*
X107236653Y-97396944D01*
X107146944Y-97486653D01*
X107143409Y-97493590D01*
X107143408Y-97493592D01*
X107104358Y-97570233D01*
X107089347Y-97599694D01*
X107088128Y-97607388D01*
X107088128Y-97607389D01*
X107077952Y-97671639D01*
X107074500Y-97693432D01*
X107074500Y-98306568D01*
X107075109Y-98310412D01*
X107075109Y-98310414D01*
X107081825Y-98352812D01*
X107089347Y-98400306D01*
X107092883Y-98407246D01*
X107137598Y-98495004D01*
X107146944Y-98513347D01*
X107236653Y-98603056D01*
X107243593Y-98606592D01*
X107243597Y-98606595D01*
X107294314Y-98632437D01*
X107337579Y-98675701D01*
X107347150Y-98736133D01*
X107319373Y-98790650D01*
X106713069Y-99396953D01*
X106109518Y-100000504D01*
X106055001Y-100028281D01*
X106039514Y-100029500D01*
X105273539Y-100029500D01*
X105215348Y-100010593D01*
X105200544Y-99996906D01*
X105200500Y-99996950D01*
X104968554Y-99765004D01*
X104940777Y-99710487D01*
X104950348Y-99650055D01*
X104968554Y-99624996D01*
X105200500Y-99393050D01*
X105200500Y-98726950D01*
X104968554Y-98495004D01*
X104940777Y-98440487D01*
X104950348Y-98380055D01*
X104968554Y-98354996D01*
X105200500Y-98123050D01*
X105200500Y-97456950D01*
X104833050Y-97089500D01*
X104299000Y-97089500D01*
X104240809Y-97070593D01*
X104204845Y-97021093D01*
X104200000Y-96990500D01*
X104200000Y-95899000D01*
X104218907Y-95840809D01*
X104268407Y-95804845D01*
X104299000Y-95800000D01*
X107109668Y-95800000D01*
X107167859Y-95818907D01*
G37*
%TD.AperFunction*%
%TA.AperFunction,Conductor*%
G36*
X115556525Y-95818907D02*
G01*
X115592489Y-95868407D01*
X115595431Y-95879684D01*
X115597597Y-95890572D01*
X115599500Y-95909888D01*
X115599500Y-96272651D01*
X115597627Y-96289855D01*
X115597069Y-96291481D01*
X115596191Y-96299974D01*
X115596143Y-96301917D01*
X115596143Y-96301924D01*
X115593325Y-96417097D01*
X115591453Y-96433989D01*
X115571871Y-96532434D01*
X115566239Y-96550998D01*
X115545691Y-96600607D01*
X115530447Y-96637410D01*
X115521298Y-96654526D01*
X115465539Y-96737975D01*
X115454918Y-96751244D01*
X115427320Y-96780226D01*
X115423883Y-96783663D01*
X115394233Y-96811886D01*
X115380978Y-96822493D01*
X115296034Y-96879251D01*
X115278921Y-96888398D01*
X115190900Y-96924857D01*
X115172340Y-96930488D01*
X115072128Y-96950421D01*
X115055244Y-96952293D01*
X115051780Y-96952378D01*
X115044381Y-96952283D01*
X115038329Y-96951979D01*
X115038328Y-96951979D01*
X115036380Y-96951881D01*
X115034440Y-96951936D01*
X115034433Y-96951936D01*
X114889971Y-96956036D01*
X114876299Y-96955478D01*
X114852878Y-96952892D01*
X114852873Y-96952892D01*
X114847267Y-96952273D01*
X114838788Y-96953277D01*
X114836888Y-96953655D01*
X114836875Y-96953657D01*
X114775410Y-96965883D01*
X114773587Y-96966228D01*
X114759822Y-96968699D01*
X114717509Y-96976293D01*
X114714693Y-96977745D01*
X114711559Y-96978584D01*
X114655007Y-96989833D01*
X114569070Y-97006926D01*
X114558300Y-97008459D01*
X114527182Y-97011154D01*
X114527180Y-97011154D01*
X114521561Y-97011641D01*
X114513440Y-97014280D01*
X114467362Y-97033366D01*
X114464521Y-97034543D01*
X114460170Y-97036226D01*
X114410392Y-97054147D01*
X114404469Y-97058594D01*
X114402349Y-97059738D01*
X114393222Y-97064076D01*
X114259373Y-97119517D01*
X114249111Y-97123121D01*
X114221926Y-97131020D01*
X114213697Y-97133411D01*
X114206248Y-97137582D01*
X114201776Y-97140570D01*
X114162222Y-97166999D01*
X114158285Y-97169497D01*
X114119294Y-97192972D01*
X114119291Y-97192974D01*
X114112955Y-97196789D01*
X114108021Y-97202297D01*
X114106154Y-97203842D01*
X114098052Y-97209875D01*
X113984340Y-97285855D01*
X113972472Y-97292650D01*
X113946179Y-97305375D01*
X113941786Y-97308917D01*
X113941052Y-97309508D01*
X113941044Y-97309515D01*
X113939532Y-97310734D01*
X113938105Y-97312082D01*
X113938103Y-97312084D01*
X113892584Y-97355091D01*
X113891221Y-97356355D01*
X113854537Y-97389734D01*
X113854534Y-97389738D01*
X113849064Y-97394715D01*
X113847452Y-97397441D01*
X113845238Y-97399824D01*
X113828043Y-97416071D01*
X113819560Y-97423055D01*
X113815944Y-97425062D01*
X113809607Y-97430784D01*
X113808267Y-97432200D01*
X113808264Y-97432203D01*
X113787342Y-97454312D01*
X113784737Y-97456917D01*
X113784275Y-97457424D01*
X113781591Y-97459960D01*
X113780496Y-97461357D01*
X113779221Y-97462083D01*
X113779627Y-97462467D01*
X113722988Y-97522324D01*
X113711644Y-97534312D01*
X113701633Y-97543530D01*
X113678682Y-97561917D01*
X113673396Y-97568623D01*
X113637711Y-97622027D01*
X113636714Y-97623487D01*
X113604065Y-97670344D01*
X113603057Y-97673489D01*
X113601343Y-97676454D01*
X113525219Y-97790377D01*
X113518688Y-97799075D01*
X113498592Y-97822982D01*
X113498587Y-97822989D01*
X113494962Y-97827302D01*
X113491085Y-97834909D01*
X113478283Y-97865817D01*
X113470825Y-97883822D01*
X113468939Y-97888089D01*
X113446410Y-97935963D01*
X113445368Y-97943285D01*
X113444670Y-97945618D01*
X113441287Y-97955132D01*
X113425817Y-97992482D01*
X113386082Y-98039007D01*
X113326588Y-98053292D01*
X113270059Y-98029879D01*
X113264349Y-98024601D01*
X113204496Y-97964748D01*
X113176719Y-97910231D01*
X113175500Y-97894744D01*
X113175500Y-97518431D01*
X113174891Y-97514585D01*
X113160649Y-97424663D01*
X113160649Y-97424662D01*
X113159430Y-97416968D01*
X113155008Y-97408289D01*
X113101818Y-97303897D01*
X113101817Y-97303895D01*
X113098282Y-97296958D01*
X113003042Y-97201718D01*
X112996105Y-97198183D01*
X112996103Y-97198182D01*
X112889972Y-97144106D01*
X112889971Y-97144106D01*
X112883032Y-97140570D01*
X112875338Y-97139351D01*
X112875337Y-97139351D01*
X112785415Y-97125109D01*
X112785413Y-97125109D01*
X112781569Y-97124500D01*
X112218431Y-97124500D01*
X112214587Y-97125109D01*
X112214585Y-97125109D01*
X112124663Y-97139351D01*
X112124662Y-97139351D01*
X112116968Y-97140570D01*
X112110029Y-97144106D01*
X112110028Y-97144106D01*
X112003897Y-97198182D01*
X112003895Y-97198183D01*
X111996958Y-97201718D01*
X111901718Y-97296958D01*
X111898183Y-97303895D01*
X111898182Y-97303897D01*
X111854446Y-97389734D01*
X111840570Y-97416968D01*
X111838319Y-97415821D01*
X111809415Y-97455597D01*
X111751230Y-97474500D01*
X111748770Y-97474500D01*
X111690579Y-97455593D01*
X111661681Y-97415821D01*
X111659430Y-97416968D01*
X111601818Y-97303897D01*
X111601817Y-97303895D01*
X111598282Y-97296958D01*
X111503042Y-97201718D01*
X111496105Y-97198183D01*
X111496103Y-97198182D01*
X111389972Y-97144106D01*
X111389971Y-97144106D01*
X111383032Y-97140570D01*
X111375338Y-97139351D01*
X111375337Y-97139351D01*
X111285415Y-97125109D01*
X111285413Y-97125109D01*
X111281569Y-97124500D01*
X110718431Y-97124500D01*
X110714587Y-97125109D01*
X110714585Y-97125109D01*
X110624663Y-97139351D01*
X110624662Y-97139351D01*
X110616968Y-97140570D01*
X110610029Y-97144106D01*
X110610028Y-97144106D01*
X110503897Y-97198182D01*
X110503895Y-97198183D01*
X110496958Y-97201718D01*
X110401718Y-97296958D01*
X110398183Y-97303895D01*
X110398182Y-97303897D01*
X110377508Y-97344473D01*
X110334243Y-97387738D01*
X110273811Y-97397309D01*
X110258706Y-97393683D01*
X110256250Y-97392885D01*
X110249306Y-97389347D01*
X110124000Y-97369500D01*
X110116304Y-97370719D01*
X110006389Y-97388128D01*
X110006388Y-97388128D01*
X109998694Y-97389347D01*
X109991754Y-97392883D01*
X109991748Y-97392885D01*
X109901842Y-97438695D01*
X109841410Y-97448267D01*
X109786893Y-97420490D01*
X109763347Y-97396944D01*
X109756410Y-97393409D01*
X109756408Y-97393408D01*
X109657246Y-97342883D01*
X109650306Y-97339347D01*
X109642612Y-97338128D01*
X109642611Y-97338128D01*
X109560414Y-97325109D01*
X109560412Y-97325109D01*
X109556568Y-97324500D01*
X109093432Y-97324500D01*
X109089588Y-97325109D01*
X109089586Y-97325109D01*
X109007389Y-97338128D01*
X109007388Y-97338128D01*
X108999694Y-97339347D01*
X108992754Y-97342883D01*
X108893592Y-97393408D01*
X108893590Y-97393409D01*
X108886653Y-97396944D01*
X108796944Y-97486653D01*
X108793409Y-97493590D01*
X108793408Y-97493592D01*
X108754358Y-97570233D01*
X108739347Y-97599694D01*
X108738128Y-97607388D01*
X108738128Y-97607389D01*
X108727952Y-97671639D01*
X108724500Y-97693432D01*
X108724500Y-98306568D01*
X108725109Y-98310412D01*
X108725109Y-98310414D01*
X108731825Y-98352812D01*
X108739347Y-98400306D01*
X108742883Y-98407246D01*
X108745292Y-98414660D01*
X108743713Y-98415173D01*
X108751837Y-98466468D01*
X108724059Y-98520984D01*
X108669542Y-98548761D01*
X108654056Y-98549980D01*
X108345944Y-98549980D01*
X108287753Y-98531073D01*
X108251789Y-98481573D01*
X108251789Y-98420387D01*
X108256695Y-98408543D01*
X108257116Y-98407248D01*
X108260653Y-98400306D01*
X108268176Y-98352812D01*
X108274891Y-98310414D01*
X108274891Y-98310412D01*
X108275500Y-98306568D01*
X108275500Y-97693432D01*
X108272048Y-97671639D01*
X108261872Y-97607389D01*
X108261872Y-97607388D01*
X108260653Y-97599694D01*
X108245642Y-97570233D01*
X108206592Y-97493592D01*
X108206591Y-97493590D01*
X108203056Y-97486653D01*
X108140668Y-97424265D01*
X108112891Y-97369748D01*
X108112891Y-97338776D01*
X108130500Y-97227600D01*
X108129281Y-97219904D01*
X108129281Y-97219900D01*
X108128217Y-97213181D01*
X108137789Y-97152749D01*
X108181053Y-97109486D01*
X108196103Y-97101818D01*
X108196105Y-97101817D01*
X108203042Y-97098282D01*
X108298282Y-97003042D01*
X108304673Y-96990500D01*
X108355894Y-96889972D01*
X108355894Y-96889971D01*
X108359430Y-96883032D01*
X108368018Y-96828813D01*
X108374891Y-96785415D01*
X108374891Y-96785413D01*
X108375500Y-96781569D01*
X108375500Y-96218431D01*
X108359430Y-96116968D01*
X108338046Y-96075000D01*
X108301818Y-96003897D01*
X108301817Y-96003895D01*
X108298282Y-95996958D01*
X108270328Y-95969004D01*
X108242551Y-95914487D01*
X108252122Y-95854055D01*
X108295387Y-95810790D01*
X108340332Y-95800000D01*
X115498334Y-95800000D01*
X115556525Y-95818907D01*
G37*
%TD.AperFunction*%
%TD*%
%TA.AperFunction,NonConductor*%
G36*
X122553747Y-90018907D02*
G01*
X122589711Y-90068407D01*
X122589711Y-90129593D01*
X122553747Y-90179093D01*
X122521846Y-90194445D01*
X122490246Y-90203149D01*
X122490237Y-90203152D01*
X122485069Y-90204576D01*
X122321610Y-90290758D01*
X122180471Y-90410030D01*
X122177215Y-90414289D01*
X122071494Y-90552566D01*
X122071492Y-90552569D01*
X122068236Y-90556828D01*
X121990142Y-90724302D01*
X121949832Y-90904638D01*
X121949187Y-91089424D01*
X121988237Y-91270038D01*
X122065160Y-91438053D01*
X122176367Y-91585630D01*
X122180434Y-91589115D01*
X122180435Y-91589117D01*
X122257712Y-91655351D01*
X122316671Y-91705885D01*
X122479524Y-91793206D01*
X122484685Y-91794666D01*
X122484684Y-91794666D01*
X122652172Y-91842061D01*
X122652175Y-91842061D01*
X122657329Y-91843520D01*
X122662681Y-91843838D01*
X122836438Y-91854161D01*
X122841791Y-91854479D01*
X122847087Y-91853640D01*
X122847090Y-91853640D01*
X123019008Y-91826411D01*
X123019011Y-91826410D01*
X123024303Y-91825572D01*
X123196350Y-91758147D01*
X123200808Y-91755162D01*
X123200811Y-91755161D01*
X123279622Y-91702401D01*
X123349905Y-91655351D01*
X123477804Y-91521979D01*
X123574080Y-91364254D01*
X123634240Y-91189535D01*
X123655479Y-91005972D01*
X123655500Y-91000000D01*
X123644572Y-90899409D01*
X123636122Y-90821619D01*
X123636121Y-90821614D01*
X123635543Y-90816294D01*
X123576604Y-90641159D01*
X123481431Y-90482765D01*
X123354467Y-90348504D01*
X123201633Y-90244638D01*
X123067327Y-90190920D01*
X123020321Y-90151755D01*
X123005312Y-90092439D01*
X123028034Y-90035629D01*
X123079809Y-90003025D01*
X123104094Y-90000000D01*
X123901000Y-90000000D01*
X123959191Y-90018907D01*
X123995155Y-90068407D01*
X124000000Y-90099000D01*
X124000000Y-114901000D01*
X123981093Y-114959191D01*
X123931593Y-114995155D01*
X123901000Y-115000000D01*
X120099000Y-115000000D01*
X120040809Y-114981093D01*
X120004845Y-114931593D01*
X120000000Y-114901000D01*
X120000000Y-114025613D01*
X120001957Y-114009265D01*
X120005286Y-114007741D01*
X120002667Y-113936096D01*
X120004416Y-113934687D01*
X120002359Y-113927681D01*
X120002092Y-113920381D01*
X119999985Y-113919597D01*
X119964095Y-113797364D01*
X119965583Y-113795221D01*
X119961685Y-113789156D01*
X119959654Y-113782238D01*
X119957060Y-113781959D01*
X119897592Y-113689424D01*
X120549187Y-113689424D01*
X120588237Y-113870038D01*
X120590472Y-113874919D01*
X120590472Y-113874920D01*
X120648765Y-114002244D01*
X120665160Y-114038053D01*
X120776367Y-114185630D01*
X120780434Y-114189115D01*
X120780435Y-114189117D01*
X120857712Y-114255351D01*
X120916671Y-114305885D01*
X121079524Y-114393206D01*
X121084685Y-114394666D01*
X121084684Y-114394666D01*
X121252172Y-114442061D01*
X121252175Y-114442061D01*
X121257329Y-114443520D01*
X121262681Y-114443838D01*
X121436438Y-114454161D01*
X121441791Y-114454479D01*
X121447087Y-114453640D01*
X121447090Y-114453640D01*
X121619008Y-114426411D01*
X121619011Y-114426410D01*
X121624303Y-114425572D01*
X121796350Y-114358147D01*
X121800808Y-114355162D01*
X121800811Y-114355161D01*
X121879622Y-114302401D01*
X121949905Y-114255351D01*
X122077804Y-114121979D01*
X122174080Y-113964254D01*
X122234240Y-113789535D01*
X122255479Y-113605972D01*
X122255500Y-113600000D01*
X122243705Y-113491422D01*
X122236122Y-113421619D01*
X122236121Y-113421614D01*
X122235543Y-113416294D01*
X122176604Y-113241159D01*
X122081431Y-113082765D01*
X121954467Y-112948504D01*
X121801633Y-112844638D01*
X121630061Y-112776014D01*
X121447755Y-112745834D01*
X121376246Y-112749582D01*
X121268576Y-112755224D01*
X121268572Y-112755225D01*
X121263222Y-112755505D01*
X121191944Y-112775138D01*
X121090237Y-112803152D01*
X121090233Y-112803154D01*
X121085069Y-112804576D01*
X120921610Y-112890758D01*
X120780471Y-113010030D01*
X120777215Y-113014289D01*
X120671494Y-113152566D01*
X120671492Y-113152569D01*
X120668236Y-113156828D01*
X120590142Y-113324302D01*
X120588973Y-113329533D01*
X120588972Y-113329535D01*
X120573221Y-113400000D01*
X120549832Y-113504638D01*
X120549813Y-113509996D01*
X120549813Y-113509999D01*
X120549574Y-113578623D01*
X120549187Y-113689424D01*
X119897592Y-113689424D01*
X119888207Y-113674820D01*
X119889031Y-113672346D01*
X119883583Y-113667626D01*
X119879684Y-113661558D01*
X119877116Y-113662021D01*
X119815603Y-113608720D01*
X119789322Y-113585948D01*
X119789321Y-113585947D01*
X119780868Y-113578623D01*
X119780962Y-113576016D01*
X119774403Y-113573021D01*
X119768954Y-113568299D01*
X119766621Y-113569467D01*
X119759794Y-113566349D01*
X119660939Y-113521203D01*
X119660937Y-113521203D01*
X119650776Y-113516562D01*
X119650131Y-113514034D01*
X119642994Y-113513008D01*
X119636436Y-113510013D01*
X119634527Y-113511790D01*
X119508468Y-113493666D01*
X119507137Y-113491422D01*
X119500000Y-113492448D01*
X119492863Y-113491422D01*
X119491532Y-113493666D01*
X119468442Y-113496986D01*
X119408154Y-113486551D01*
X119365513Y-113442672D01*
X119355661Y-113406760D01*
X119355466Y-113404286D01*
X119355500Y-113400000D01*
X119336333Y-113284847D01*
X119280900Y-113182112D01*
X119271273Y-113173212D01*
X119241376Y-113119829D01*
X119248568Y-113059068D01*
X119266710Y-113034503D01*
X119266231Y-113034119D01*
X119271344Y-113027736D01*
X119277443Y-113022274D01*
X119334483Y-112920421D01*
X119355456Y-112805584D01*
X119355500Y-112800000D01*
X119336333Y-112684847D01*
X119280900Y-112582112D01*
X119271273Y-112573212D01*
X119241376Y-112519829D01*
X119248568Y-112459068D01*
X119266710Y-112434503D01*
X119266231Y-112434119D01*
X119271344Y-112427736D01*
X119277443Y-112422274D01*
X119334483Y-112320421D01*
X119355456Y-112205584D01*
X119355500Y-112200000D01*
X119341361Y-112115055D01*
X119350457Y-112054551D01*
X119393380Y-112010947D01*
X119453105Y-112000809D01*
X119491532Y-112006334D01*
X119492863Y-112008578D01*
X119500000Y-112007552D01*
X119507137Y-112008578D01*
X119508468Y-112006334D01*
X119634527Y-111988210D01*
X119636436Y-111989987D01*
X119642994Y-111986992D01*
X119650131Y-111985966D01*
X119650776Y-111983438D01*
X119752327Y-111937061D01*
X119756455Y-111935176D01*
X119756456Y-111935175D01*
X119766621Y-111930533D01*
X119768954Y-111931701D01*
X119774403Y-111926979D01*
X119780962Y-111923984D01*
X119780868Y-111921377D01*
X119785894Y-111917022D01*
X119785896Y-111917021D01*
X119868325Y-111845596D01*
X119877116Y-111837979D01*
X119879684Y-111838442D01*
X119883583Y-111832374D01*
X119889031Y-111827654D01*
X119888207Y-111825180D01*
X119957060Y-111718041D01*
X119959654Y-111717762D01*
X119961685Y-111710844D01*
X119965583Y-111704779D01*
X119964095Y-111702636D01*
X119999985Y-111580403D01*
X120002092Y-111579619D01*
X120002359Y-111572319D01*
X120004416Y-111565313D01*
X120002667Y-111563904D01*
X120005286Y-111492259D01*
X120001833Y-111490678D01*
X120000000Y-111477559D01*
X120000000Y-100225613D01*
X120001957Y-100209265D01*
X120005286Y-100207741D01*
X120002667Y-100136096D01*
X120004416Y-100134687D01*
X120002359Y-100127681D01*
X120002092Y-100120381D01*
X119999985Y-100119597D01*
X119964095Y-99997364D01*
X119965583Y-99995221D01*
X119961685Y-99989156D01*
X119959654Y-99982238D01*
X119957060Y-99981959D01*
X119888207Y-99874820D01*
X119889031Y-99872346D01*
X119883583Y-99867626D01*
X119879684Y-99861558D01*
X119877116Y-99862021D01*
X119780868Y-99778623D01*
X119780962Y-99776016D01*
X119774403Y-99773021D01*
X119768954Y-99768299D01*
X119766621Y-99769467D01*
X119760571Y-99766704D01*
X119660939Y-99721203D01*
X119660937Y-99721203D01*
X119650776Y-99716562D01*
X119650131Y-99714034D01*
X119642994Y-99713008D01*
X119636436Y-99710013D01*
X119634527Y-99711790D01*
X119508468Y-99693666D01*
X119507137Y-99691422D01*
X119500000Y-99692448D01*
X119492863Y-99691422D01*
X119491532Y-99693666D01*
X119458332Y-99698439D01*
X119413622Y-99704867D01*
X119353333Y-99694433D01*
X119310691Y-99650555D01*
X119301984Y-99589993D01*
X119313157Y-99558502D01*
X119330484Y-99527561D01*
X119334483Y-99520421D01*
X119355456Y-99405584D01*
X119355500Y-99400000D01*
X119336333Y-99284847D01*
X119280900Y-99182112D01*
X119271273Y-99173212D01*
X119241376Y-99119829D01*
X119248568Y-99059068D01*
X119266710Y-99034503D01*
X119266231Y-99034119D01*
X119271344Y-99027736D01*
X119277443Y-99022274D01*
X119334483Y-98920421D01*
X119355456Y-98805584D01*
X119355500Y-98800000D01*
X119336333Y-98684847D01*
X119312190Y-98640103D01*
X119301198Y-98579916D01*
X119327683Y-98524760D01*
X119381530Y-98495705D01*
X119413405Y-98495102D01*
X119467439Y-98502870D01*
X119491532Y-98506334D01*
X119492863Y-98508578D01*
X119500000Y-98507552D01*
X119507137Y-98508578D01*
X119508468Y-98506334D01*
X119634527Y-98488210D01*
X119636436Y-98489987D01*
X119642994Y-98486992D01*
X119650131Y-98485966D01*
X119650776Y-98483438D01*
X119672016Y-98473738D01*
X119756455Y-98435176D01*
X119756456Y-98435175D01*
X119766621Y-98430533D01*
X119768954Y-98431701D01*
X119774403Y-98426979D01*
X119780962Y-98423984D01*
X119780868Y-98421377D01*
X119785894Y-98417022D01*
X119785896Y-98417021D01*
X119834054Y-98375291D01*
X119877116Y-98337979D01*
X119879684Y-98338442D01*
X119883583Y-98332374D01*
X119889031Y-98327654D01*
X119888207Y-98325180D01*
X119957060Y-98218041D01*
X119959654Y-98217762D01*
X119961685Y-98210844D01*
X119965583Y-98204779D01*
X119964095Y-98202636D01*
X119999985Y-98080403D01*
X120002092Y-98079619D01*
X120002359Y-98072319D01*
X120004416Y-98065313D01*
X120002667Y-98063904D01*
X120005286Y-97992259D01*
X120001833Y-97990678D01*
X120000000Y-97977559D01*
X120000000Y-90099000D01*
X120018907Y-90040809D01*
X120068407Y-90004845D01*
X120099000Y-90000000D01*
X122495556Y-90000000D01*
X122553747Y-90018907D01*
G37*
%TD.AperFunction*%
%TA.AperFunction,Conductor*%
%TO.N,GND*%
G36*
X105829445Y-110073143D02*
G01*
X105872710Y-110116408D01*
X105883500Y-110161353D01*
X105883500Y-111379500D01*
X105864593Y-111437691D01*
X105815093Y-111473655D01*
X105784500Y-111478500D01*
X105456000Y-111478500D01*
X105412200Y-111487213D01*
X105386924Y-111492240D01*
X105386922Y-111492241D01*
X105377359Y-111494143D01*
X105310690Y-111538690D01*
X105266143Y-111605359D01*
X105264241Y-111614922D01*
X105264240Y-111614924D01*
X105262788Y-111622226D01*
X105250500Y-111684000D01*
X105250500Y-112284000D01*
X105256367Y-112313496D01*
X105264207Y-112352907D01*
X105266143Y-112362641D01*
X105310690Y-112429310D01*
X105377359Y-112473857D01*
X105386925Y-112475760D01*
X105394387Y-112478851D01*
X105440912Y-112518589D01*
X105455500Y-112570315D01*
X105455500Y-113997685D01*
X105436593Y-114055876D01*
X105394387Y-114089149D01*
X105386925Y-114092240D01*
X105377359Y-114094143D01*
X105310690Y-114138690D01*
X105305271Y-114146800D01*
X105296811Y-114159461D01*
X105266143Y-114205359D01*
X105264241Y-114214922D01*
X105264240Y-114214924D01*
X105259213Y-114240200D01*
X105250500Y-114284000D01*
X105250500Y-114701000D01*
X105231593Y-114759191D01*
X105182093Y-114795155D01*
X105151500Y-114800000D01*
X104299000Y-114800000D01*
X104240809Y-114781093D01*
X104204845Y-114731593D01*
X104200000Y-114701000D01*
X104200000Y-111289500D01*
X104218907Y-111231309D01*
X104268407Y-111195345D01*
X104299000Y-111190500D01*
X104833050Y-111190500D01*
X105200500Y-110823050D01*
X105200500Y-110646353D01*
X105219407Y-110588162D01*
X105229496Y-110576349D01*
X105714496Y-110091349D01*
X105769013Y-110063572D01*
X105829445Y-110073143D01*
G37*
%TD.AperFunction*%
%TA.AperFunction,Conductor*%
G36*
X116945786Y-108667487D02*
G01*
X116957599Y-108677576D01*
X117370984Y-109090961D01*
X117398761Y-109145478D01*
X117399980Y-109160965D01*
X117399980Y-109648372D01*
X117399750Y-109651504D01*
X117398257Y-109655852D01*
X117398600Y-109664988D01*
X117399910Y-109699881D01*
X117399980Y-109703595D01*
X117399980Y-109727326D01*
X117400815Y-109731810D01*
X117401062Y-109734484D01*
X117401411Y-109739869D01*
X117402079Y-109757650D01*
X117402454Y-109767642D01*
X117406060Y-109776037D01*
X117406061Y-109776039D01*
X117406994Y-109778210D01*
X117413357Y-109799154D01*
X117415463Y-109810459D01*
X117420260Y-109818241D01*
X117420261Y-109818244D01*
X117429428Y-109833116D01*
X117436110Y-109845979D01*
X117446614Y-109870428D01*
X117451935Y-109876906D01*
X117455438Y-109880409D01*
X117468619Y-109897084D01*
X117469367Y-109897909D01*
X117474164Y-109905691D01*
X117481440Y-109911224D01*
X117496188Y-109922439D01*
X117506266Y-109931238D01*
X117648172Y-110073143D01*
X117770503Y-110195474D01*
X117798281Y-110249991D01*
X117799500Y-110265478D01*
X117799500Y-110833050D01*
X118166950Y-111200500D01*
X118701000Y-111200500D01*
X118759191Y-111219407D01*
X118795155Y-111268907D01*
X118800000Y-111299500D01*
X118800000Y-111446418D01*
X118798228Y-111465063D01*
X118794329Y-111485395D01*
X118795196Y-111509107D01*
X118796157Y-111535375D01*
X118793067Y-111535488D01*
X118793232Y-111537213D01*
X118795457Y-111537080D01*
X118795457Y-111537082D01*
X118797360Y-111569002D01*
X118797466Y-111571202D01*
X118798553Y-111600909D01*
X118799467Y-111604335D01*
X118799689Y-111608052D01*
X118801265Y-111613421D01*
X118801266Y-111613424D01*
X118807806Y-111635697D01*
X118808467Y-111638057D01*
X118816842Y-111669434D01*
X118813845Y-111670234D01*
X118814175Y-111672146D01*
X118818164Y-111670974D01*
X118818165Y-111670975D01*
X118834816Y-111727683D01*
X118835009Y-111728619D01*
X118834443Y-111734073D01*
X118845714Y-111765419D01*
X118847537Y-111771008D01*
X118852389Y-111787533D01*
X118851154Y-111787896D01*
X118855744Y-111842741D01*
X118824034Y-111895068D01*
X118813070Y-111903275D01*
X118760744Y-111937061D01*
X118688473Y-112028737D01*
X118685763Y-112036455D01*
X118685761Y-112036458D01*
X118654424Y-112125695D01*
X118649794Y-112138879D01*
X118649656Y-112156484D01*
X118649059Y-112232488D01*
X118648877Y-112255612D01*
X118685821Y-112366349D01*
X118690785Y-112372854D01*
X118690786Y-112372855D01*
X118742284Y-112440333D01*
X118762558Y-112498062D01*
X118741332Y-112561685D01*
X118688473Y-112628737D01*
X118685763Y-112636455D01*
X118685761Y-112636458D01*
X118652505Y-112731159D01*
X118649794Y-112738879D01*
X118648877Y-112855612D01*
X118685821Y-112966349D01*
X118690785Y-112972854D01*
X118690786Y-112972855D01*
X118742284Y-113040333D01*
X118762558Y-113098062D01*
X118741332Y-113161685D01*
X118688473Y-113228737D01*
X118685763Y-113236455D01*
X118685761Y-113236458D01*
X118652505Y-113331159D01*
X118649794Y-113338879D01*
X118648877Y-113455612D01*
X118685821Y-113566349D01*
X118756644Y-113659148D01*
X118789292Y-113680963D01*
X118827171Y-113729013D01*
X118829280Y-113791168D01*
X118818219Y-113828840D01*
X118815264Y-113827972D01*
X118814873Y-113829664D01*
X118817014Y-113830239D01*
X118808707Y-113861145D01*
X118808093Y-113863327D01*
X118799744Y-113891763D01*
X118799527Y-113895303D01*
X118798560Y-113898899D01*
X118798355Y-113904498D01*
X118798355Y-113904500D01*
X118797507Y-113927699D01*
X118797388Y-113930137D01*
X118795397Y-113962555D01*
X118792301Y-113962365D01*
X118792008Y-113964283D01*
X118796164Y-113964435D01*
X118794336Y-114014413D01*
X118795372Y-114019865D01*
X118798261Y-114035074D01*
X118800000Y-114053551D01*
X118800000Y-114701000D01*
X118781093Y-114759191D01*
X118731593Y-114795155D01*
X118701000Y-114800000D01*
X117860500Y-114800000D01*
X117802309Y-114781093D01*
X117766345Y-114731593D01*
X117761500Y-114701000D01*
X117761500Y-114284000D01*
X117752787Y-114240200D01*
X117747760Y-114214924D01*
X117747759Y-114214922D01*
X117745857Y-114205359D01*
X117715189Y-114159461D01*
X117706729Y-114146800D01*
X117701310Y-114138690D01*
X117634641Y-114094143D01*
X117625075Y-114092240D01*
X117617613Y-114089149D01*
X117571088Y-114049411D01*
X117556500Y-113997685D01*
X117556500Y-112570315D01*
X117575407Y-112512124D01*
X117617613Y-112478851D01*
X117625075Y-112475760D01*
X117634641Y-112473857D01*
X117701310Y-112429310D01*
X117745857Y-112362641D01*
X117747794Y-112352907D01*
X117755633Y-112313496D01*
X117761500Y-112284000D01*
X117761500Y-111684000D01*
X117749212Y-111622226D01*
X117747760Y-111614924D01*
X117747759Y-111614922D01*
X117745857Y-111605359D01*
X117701310Y-111538690D01*
X117634641Y-111494143D01*
X117625078Y-111492241D01*
X117625076Y-111492240D01*
X117599800Y-111487213D01*
X117556000Y-111478500D01*
X116956000Y-111478500D01*
X116912200Y-111487213D01*
X116886924Y-111492240D01*
X116886922Y-111492241D01*
X116877359Y-111494143D01*
X116810690Y-111538690D01*
X116766143Y-111605359D01*
X116764240Y-111614924D01*
X116761149Y-111622387D01*
X116721411Y-111668912D01*
X116669685Y-111683500D01*
X115886926Y-111683500D01*
X115828735Y-111664593D01*
X115792771Y-111615093D01*
X115792771Y-111553907D01*
X115825976Y-111506487D01*
X115844072Y-111492349D01*
X115844076Y-111492345D01*
X115847893Y-111489363D01*
X115851055Y-111485700D01*
X115851060Y-111485695D01*
X115979332Y-111337089D01*
X115982496Y-111333424D01*
X116005766Y-111292463D01*
X116081858Y-111158517D01*
X116081859Y-111158514D01*
X116084247Y-111154311D01*
X116091072Y-111133797D01*
X116147743Y-110963435D01*
X116147743Y-110963433D01*
X116149270Y-110958844D01*
X116154154Y-110920187D01*
X116174740Y-110757225D01*
X116175088Y-110754471D01*
X116175127Y-110751696D01*
X116175319Y-110748948D01*
X116176542Y-110749034D01*
X116194841Y-110695336D01*
X116244849Y-110660082D01*
X116306028Y-110660956D01*
X116334358Y-110676119D01*
X116397250Y-110724378D01*
X116543285Y-110784868D01*
X116700000Y-110805500D01*
X116856715Y-110784868D01*
X117002750Y-110724378D01*
X117128153Y-110628153D01*
X117224378Y-110502750D01*
X117284868Y-110356715D01*
X117305500Y-110200000D01*
X117284868Y-110043285D01*
X117224378Y-109897250D01*
X117128153Y-109771847D01*
X117002750Y-109675622D01*
X116856715Y-109615132D01*
X116700000Y-109594500D01*
X116588876Y-109609130D01*
X116528717Y-109597980D01*
X116505951Y-109580980D01*
X116148842Y-109223870D01*
X116146790Y-109221492D01*
X116144772Y-109217364D01*
X116112482Y-109187411D01*
X116109806Y-109184834D01*
X116093014Y-109168042D01*
X116089255Y-109165463D01*
X116087174Y-109163734D01*
X116083117Y-109160171D01*
X116069459Y-109147501D01*
X116069456Y-109147499D01*
X116062756Y-109141284D01*
X116052075Y-109137023D01*
X116032758Y-109126708D01*
X116023282Y-109120207D01*
X115997380Y-109114060D01*
X115983577Y-109109694D01*
X115958850Y-109099829D01*
X115950507Y-109099011D01*
X115945557Y-109099011D01*
X115924438Y-109096540D01*
X115923328Y-109096486D01*
X115914434Y-109094375D01*
X115893036Y-109097287D01*
X115887011Y-109098107D01*
X115873661Y-109099011D01*
X113889893Y-109099011D01*
X113831702Y-109080104D01*
X113795738Y-109030604D01*
X113792112Y-108984525D01*
X113805500Y-108900000D01*
X113785653Y-108774694D01*
X113785502Y-108774398D01*
X113785501Y-108716988D01*
X113821464Y-108667488D01*
X113879656Y-108648580D01*
X116887595Y-108648580D01*
X116945786Y-108667487D01*
G37*
%TD.AperFunction*%
%TA.AperFunction,Conductor*%
G36*
X114495456Y-109718918D02*
G01*
X114531420Y-109768418D01*
X114531420Y-109829604D01*
X114499299Y-109876165D01*
X114445740Y-109919228D01*
X114381505Y-109970874D01*
X114369643Y-109985011D01*
X114252202Y-110124971D01*
X114252199Y-110124975D01*
X114249093Y-110128677D01*
X114149853Y-110309194D01*
X114087565Y-110505549D01*
X114087025Y-110510361D01*
X114087025Y-110510362D01*
X114070134Y-110660956D01*
X114064603Y-110710263D01*
X114081840Y-110915538D01*
X114083173Y-110920186D01*
X114083173Y-110920187D01*
X114110400Y-111015136D01*
X114138621Y-111113555D01*
X114232782Y-111296773D01*
X114360737Y-111458212D01*
X114420542Y-111509110D01*
X114452600Y-111561221D01*
X114447906Y-111622226D01*
X114408251Y-111668821D01*
X114356376Y-111683500D01*
X113873109Y-111683500D01*
X113869977Y-111683270D01*
X113865629Y-111681777D01*
X113852205Y-111682281D01*
X113821600Y-111683430D01*
X113817886Y-111683500D01*
X113794154Y-111683500D01*
X113789670Y-111684335D01*
X113786996Y-111684582D01*
X113781611Y-111684931D01*
X113762971Y-111685631D01*
X113762970Y-111685631D01*
X113753838Y-111685974D01*
X113745443Y-111689580D01*
X113745441Y-111689581D01*
X113743270Y-111690514D01*
X113722326Y-111696877D01*
X113720832Y-111697156D01*
X113720008Y-111697309D01*
X113720007Y-111697309D01*
X113711021Y-111698983D01*
X113703239Y-111703780D01*
X113703236Y-111703781D01*
X113688364Y-111712948D01*
X113675501Y-111719630D01*
X113651052Y-111730134D01*
X113644574Y-111735454D01*
X113641069Y-111738959D01*
X113624404Y-111752131D01*
X113623568Y-111752889D01*
X113615789Y-111757684D01*
X113610257Y-111764959D01*
X113610256Y-111764960D01*
X113599047Y-111779701D01*
X113590247Y-111789781D01*
X113105425Y-112274603D01*
X113050908Y-112302380D01*
X112997052Y-112295861D01*
X112993284Y-112294277D01*
X112989023Y-112291973D01*
X112890631Y-112261516D01*
X112796859Y-112232488D01*
X112796855Y-112232487D01*
X112792238Y-112231058D01*
X112787431Y-112230553D01*
X112787427Y-112230552D01*
X112592185Y-112210032D01*
X112592183Y-112210032D01*
X112587369Y-112209526D01*
X112519372Y-112215714D01*
X112387039Y-112227757D01*
X112387036Y-112227758D01*
X112382219Y-112228196D01*
X112377577Y-112229562D01*
X112377573Y-112229563D01*
X112189250Y-112284989D01*
X112189247Y-112284990D01*
X112184603Y-112286357D01*
X112180309Y-112288602D01*
X112006344Y-112379548D01*
X112006340Y-112379551D01*
X112002047Y-112381795D01*
X111998271Y-112384831D01*
X111998268Y-112384833D01*
X111868212Y-112489401D01*
X111841505Y-112510874D01*
X111768736Y-112597597D01*
X111712202Y-112664971D01*
X111712199Y-112664975D01*
X111709093Y-112668677D01*
X111609853Y-112849194D01*
X111547565Y-113045549D01*
X111547025Y-113050361D01*
X111547025Y-113050362D01*
X111541136Y-113102870D01*
X111524603Y-113250263D01*
X111528548Y-113297240D01*
X111540809Y-113443257D01*
X111541840Y-113455538D01*
X111543173Y-113460186D01*
X111543173Y-113460187D01*
X111566536Y-113541661D01*
X111598621Y-113653555D01*
X111692782Y-113836773D01*
X111820737Y-113998212D01*
X111824417Y-114001344D01*
X111824419Y-114001346D01*
X111885760Y-114053551D01*
X111977612Y-114131723D01*
X111981835Y-114134083D01*
X111981839Y-114134086D01*
X112027243Y-114159461D01*
X112157432Y-114232221D01*
X112162030Y-114233715D01*
X112348742Y-114294382D01*
X112348745Y-114294383D01*
X112353347Y-114295878D01*
X112557895Y-114320269D01*
X112562717Y-114319898D01*
X112562720Y-114319898D01*
X112758458Y-114304837D01*
X112758463Y-114304836D01*
X112763286Y-114304465D01*
X112961695Y-114249068D01*
X112992089Y-114233715D01*
X113141244Y-114158371D01*
X113141246Y-114158370D01*
X113145565Y-114156188D01*
X113307893Y-114029363D01*
X113311055Y-114025700D01*
X113311060Y-114025695D01*
X113420341Y-113899091D01*
X113442496Y-113873424D01*
X113449472Y-113861145D01*
X113541858Y-113698517D01*
X113541859Y-113698514D01*
X113544247Y-113694311D01*
X113548688Y-113680963D01*
X113607743Y-113503435D01*
X113607743Y-113503433D01*
X113609270Y-113498844D01*
X113610133Y-113492018D01*
X113631763Y-113320792D01*
X113635088Y-113294471D01*
X113635131Y-113291440D01*
X113635461Y-113267776D01*
X113635500Y-113265000D01*
X113633584Y-113245455D01*
X113615870Y-113064796D01*
X113615869Y-113064792D01*
X113615398Y-113059986D01*
X113612493Y-113050362D01*
X113557256Y-112867412D01*
X113555858Y-112862780D01*
X113548635Y-112849194D01*
X113524757Y-112804288D01*
X113514132Y-112744032D01*
X113542165Y-112687806D01*
X113916475Y-112313496D01*
X113970992Y-112285719D01*
X113986479Y-112284500D01*
X114381932Y-112284500D01*
X114440123Y-112303407D01*
X114476087Y-112352907D01*
X114476087Y-112414093D01*
X114443966Y-112460654D01*
X114381505Y-112510874D01*
X114308736Y-112597597D01*
X114252202Y-112664971D01*
X114252199Y-112664975D01*
X114249093Y-112668677D01*
X114149853Y-112849194D01*
X114087565Y-113045549D01*
X114087025Y-113050361D01*
X114087025Y-113050362D01*
X114081136Y-113102870D01*
X114064603Y-113250263D01*
X114068548Y-113297240D01*
X114080809Y-113443257D01*
X114081840Y-113455538D01*
X114083173Y-113460186D01*
X114083173Y-113460187D01*
X114106536Y-113541661D01*
X114138621Y-113653555D01*
X114232782Y-113836773D01*
X114360737Y-113998212D01*
X114364417Y-114001344D01*
X114364419Y-114001346D01*
X114425760Y-114053551D01*
X114517612Y-114131723D01*
X114521835Y-114134083D01*
X114521839Y-114134086D01*
X114567243Y-114159461D01*
X114697432Y-114232221D01*
X114702030Y-114233715D01*
X114888742Y-114294382D01*
X114888745Y-114294383D01*
X114893347Y-114295878D01*
X115097895Y-114320269D01*
X115102717Y-114319898D01*
X115102720Y-114319898D01*
X115298458Y-114304837D01*
X115298463Y-114304836D01*
X115303286Y-114304465D01*
X115501695Y-114249068D01*
X115532089Y-114233715D01*
X115681244Y-114158371D01*
X115681246Y-114158370D01*
X115685565Y-114156188D01*
X115847893Y-114029363D01*
X115851055Y-114025700D01*
X115851060Y-114025695D01*
X115960341Y-113899091D01*
X115982496Y-113873424D01*
X115989472Y-113861145D01*
X116081858Y-113698517D01*
X116081859Y-113698514D01*
X116084247Y-113694311D01*
X116088688Y-113680963D01*
X116147743Y-113503435D01*
X116147743Y-113503433D01*
X116149270Y-113498844D01*
X116150133Y-113492018D01*
X116171763Y-113320792D01*
X116175088Y-113294471D01*
X116175131Y-113291440D01*
X116175461Y-113267776D01*
X116175500Y-113265000D01*
X116173584Y-113245455D01*
X116155870Y-113064796D01*
X116155869Y-113064792D01*
X116155398Y-113059986D01*
X116152493Y-113050362D01*
X116097256Y-112867412D01*
X116095858Y-112862780D01*
X115999148Y-112680895D01*
X115868952Y-112521259D01*
X115843447Y-112500159D01*
X115794638Y-112459781D01*
X115761853Y-112408120D01*
X115765695Y-112347056D01*
X115804696Y-112299911D01*
X115857743Y-112284500D01*
X116669685Y-112284500D01*
X116727876Y-112303407D01*
X116761149Y-112345613D01*
X116764240Y-112353075D01*
X116766143Y-112362641D01*
X116810690Y-112429310D01*
X116877359Y-112473857D01*
X116886925Y-112475760D01*
X116894387Y-112478851D01*
X116940912Y-112518589D01*
X116955500Y-112570315D01*
X116955500Y-113997685D01*
X116936593Y-114055876D01*
X116894387Y-114089149D01*
X116886925Y-114092240D01*
X116877359Y-114094143D01*
X116810690Y-114138690D01*
X116805271Y-114146800D01*
X116796811Y-114159461D01*
X116766143Y-114205359D01*
X116764241Y-114214922D01*
X116764240Y-114214924D01*
X116759213Y-114240200D01*
X116750500Y-114284000D01*
X116750500Y-114701000D01*
X116731593Y-114759191D01*
X116682093Y-114795155D01*
X116651500Y-114800000D01*
X106360500Y-114800000D01*
X106302309Y-114781093D01*
X106266345Y-114731593D01*
X106261500Y-114701000D01*
X106261500Y-114284000D01*
X106252787Y-114240200D01*
X106247760Y-114214924D01*
X106247759Y-114214922D01*
X106245857Y-114205359D01*
X106215189Y-114159461D01*
X106206729Y-114146800D01*
X106201310Y-114138690D01*
X106134641Y-114094143D01*
X106125075Y-114092240D01*
X106117613Y-114089149D01*
X106071088Y-114049411D01*
X106056500Y-113997685D01*
X106056500Y-112570315D01*
X106075407Y-112512124D01*
X106117613Y-112478851D01*
X106125075Y-112475760D01*
X106134641Y-112473857D01*
X106201310Y-112429310D01*
X106245857Y-112362641D01*
X106247760Y-112353075D01*
X106250851Y-112345613D01*
X106290589Y-112299088D01*
X106342315Y-112284500D01*
X106761932Y-112284500D01*
X106820123Y-112303407D01*
X106856087Y-112352907D01*
X106856087Y-112414093D01*
X106823966Y-112460654D01*
X106761505Y-112510874D01*
X106688736Y-112597597D01*
X106632202Y-112664971D01*
X106632199Y-112664975D01*
X106629093Y-112668677D01*
X106529853Y-112849194D01*
X106467565Y-113045549D01*
X106467025Y-113050361D01*
X106467025Y-113050362D01*
X106461136Y-113102870D01*
X106444603Y-113250263D01*
X106448548Y-113297240D01*
X106460809Y-113443257D01*
X106461840Y-113455538D01*
X106463173Y-113460186D01*
X106463173Y-113460187D01*
X106486536Y-113541661D01*
X106518621Y-113653555D01*
X106612782Y-113836773D01*
X106740737Y-113998212D01*
X106744417Y-114001344D01*
X106744419Y-114001346D01*
X106805760Y-114053551D01*
X106897612Y-114131723D01*
X106901835Y-114134083D01*
X106901839Y-114134086D01*
X106947243Y-114159461D01*
X107077432Y-114232221D01*
X107082030Y-114233715D01*
X107268742Y-114294382D01*
X107268745Y-114294383D01*
X107273347Y-114295878D01*
X107477895Y-114320269D01*
X107482717Y-114319898D01*
X107482720Y-114319898D01*
X107678458Y-114304837D01*
X107678463Y-114304836D01*
X107683286Y-114304465D01*
X107881695Y-114249068D01*
X107912089Y-114233715D01*
X108061244Y-114158371D01*
X108061246Y-114158370D01*
X108065565Y-114156188D01*
X108227893Y-114029363D01*
X108231055Y-114025700D01*
X108231060Y-114025695D01*
X108340341Y-113899091D01*
X108362496Y-113873424D01*
X108369472Y-113861145D01*
X108461858Y-113698517D01*
X108461859Y-113698514D01*
X108464247Y-113694311D01*
X108468688Y-113680963D01*
X108527743Y-113503435D01*
X108527743Y-113503433D01*
X108529270Y-113498844D01*
X108530133Y-113492018D01*
X108551763Y-113320792D01*
X108555088Y-113294471D01*
X108555131Y-113291440D01*
X108555461Y-113267776D01*
X108555500Y-113265000D01*
X108553584Y-113245455D01*
X108535870Y-113064796D01*
X108535869Y-113064792D01*
X108535398Y-113059986D01*
X108532493Y-113050362D01*
X108477256Y-112867412D01*
X108475858Y-112862780D01*
X108379148Y-112680895D01*
X108248952Y-112521259D01*
X108223447Y-112500159D01*
X108174638Y-112459781D01*
X108141853Y-112408120D01*
X108145695Y-112347056D01*
X108184696Y-112299911D01*
X108237743Y-112284500D01*
X109301932Y-112284500D01*
X109360123Y-112303407D01*
X109396087Y-112352907D01*
X109396087Y-112414093D01*
X109363966Y-112460654D01*
X109301505Y-112510874D01*
X109228736Y-112597597D01*
X109172202Y-112664971D01*
X109172199Y-112664975D01*
X109169093Y-112668677D01*
X109069853Y-112849194D01*
X109007565Y-113045549D01*
X109007025Y-113050361D01*
X109007025Y-113050362D01*
X109001136Y-113102870D01*
X108984603Y-113250263D01*
X108988548Y-113297240D01*
X109000809Y-113443257D01*
X109001840Y-113455538D01*
X109003173Y-113460186D01*
X109003173Y-113460187D01*
X109026536Y-113541661D01*
X109058621Y-113653555D01*
X109152782Y-113836773D01*
X109280737Y-113998212D01*
X109284417Y-114001344D01*
X109284419Y-114001346D01*
X109345760Y-114053551D01*
X109437612Y-114131723D01*
X109441835Y-114134083D01*
X109441839Y-114134086D01*
X109487243Y-114159461D01*
X109617432Y-114232221D01*
X109622030Y-114233715D01*
X109808742Y-114294382D01*
X109808745Y-114294383D01*
X109813347Y-114295878D01*
X110017895Y-114320269D01*
X110022717Y-114319898D01*
X110022720Y-114319898D01*
X110218458Y-114304837D01*
X110218463Y-114304836D01*
X110223286Y-114304465D01*
X110421695Y-114249068D01*
X110452089Y-114233715D01*
X110601244Y-114158371D01*
X110601246Y-114158370D01*
X110605565Y-114156188D01*
X110767893Y-114029363D01*
X110771055Y-114025700D01*
X110771060Y-114025695D01*
X110880341Y-113899091D01*
X110902496Y-113873424D01*
X110909472Y-113861145D01*
X111001858Y-113698517D01*
X111001859Y-113698514D01*
X111004247Y-113694311D01*
X111008688Y-113680963D01*
X111067743Y-113503435D01*
X111067743Y-113503433D01*
X111069270Y-113498844D01*
X111070133Y-113492018D01*
X111091763Y-113320792D01*
X111095088Y-113294471D01*
X111095131Y-113291440D01*
X111095461Y-113267776D01*
X111095500Y-113265000D01*
X111093584Y-113245455D01*
X111075870Y-113064796D01*
X111075869Y-113064792D01*
X111075398Y-113059986D01*
X111072493Y-113050362D01*
X111017256Y-112867412D01*
X111015858Y-112862780D01*
X110919148Y-112680895D01*
X110788952Y-112521259D01*
X110763447Y-112500159D01*
X110714638Y-112459781D01*
X110681853Y-112408120D01*
X110685695Y-112347056D01*
X110724696Y-112299911D01*
X110777743Y-112284500D01*
X111228892Y-112284500D01*
X111232024Y-112284730D01*
X111236372Y-112286223D01*
X111245508Y-112285880D01*
X111280401Y-112284570D01*
X111284115Y-112284500D01*
X111307846Y-112284500D01*
X111312330Y-112283665D01*
X111315004Y-112283418D01*
X111320389Y-112283069D01*
X111339029Y-112282369D01*
X111339030Y-112282369D01*
X111348162Y-112282026D01*
X111356557Y-112278420D01*
X111356559Y-112278419D01*
X111358730Y-112277486D01*
X111379674Y-112271123D01*
X111381168Y-112270844D01*
X111381992Y-112270691D01*
X111381993Y-112270691D01*
X111390979Y-112269017D01*
X111398761Y-112264220D01*
X111398764Y-112264219D01*
X111413636Y-112255052D01*
X111426499Y-112248370D01*
X111450948Y-112237866D01*
X111457426Y-112232545D01*
X111460929Y-112229042D01*
X111477604Y-112215861D01*
X111478429Y-112215113D01*
X111486211Y-112210316D01*
X111492041Y-112202650D01*
X111502956Y-112188295D01*
X111511757Y-112178215D01*
X112002057Y-111687916D01*
X112056573Y-111660139D01*
X112120358Y-111671501D01*
X112157432Y-111692221D01*
X112162030Y-111693715D01*
X112348742Y-111754382D01*
X112348745Y-111754383D01*
X112353347Y-111755878D01*
X112557895Y-111780269D01*
X112562717Y-111779898D01*
X112562720Y-111779898D01*
X112758458Y-111764837D01*
X112758463Y-111764836D01*
X112763286Y-111764465D01*
X112961695Y-111709068D01*
X112966013Y-111706887D01*
X113141244Y-111618371D01*
X113141246Y-111618370D01*
X113145565Y-111616188D01*
X113307893Y-111489363D01*
X113311055Y-111485700D01*
X113311060Y-111485695D01*
X113439332Y-111337089D01*
X113442496Y-111333424D01*
X113465766Y-111292463D01*
X113541858Y-111158517D01*
X113541859Y-111158514D01*
X113544247Y-111154311D01*
X113551072Y-111133797D01*
X113607743Y-110963435D01*
X113607743Y-110963433D01*
X113609270Y-110958844D01*
X113614154Y-110920187D01*
X113634740Y-110757225D01*
X113635088Y-110754471D01*
X113635500Y-110725000D01*
X113633584Y-110705455D01*
X113615870Y-110524796D01*
X113615869Y-110524792D01*
X113615398Y-110519986D01*
X113612493Y-110510362D01*
X113567914Y-110362712D01*
X113555858Y-110322780D01*
X113459148Y-110140895D01*
X113328952Y-109981259D01*
X113253970Y-109919228D01*
X113200860Y-109875292D01*
X113168075Y-109823631D01*
X113171917Y-109762567D01*
X113210918Y-109715423D01*
X113263965Y-109700011D01*
X114437265Y-109700011D01*
X114495456Y-109718918D01*
G37*
%TD.AperFunction*%
%TA.AperFunction,Conductor*%
G36*
X108450587Y-106906053D02*
G01*
X108497995Y-106977005D01*
X108584941Y-107035100D01*
X108662363Y-107050500D01*
X108837637Y-107050500D01*
X108915059Y-107035100D01*
X108944999Y-107015095D01*
X109003887Y-106998487D01*
X109055001Y-107015095D01*
X109084941Y-107035100D01*
X109162363Y-107050500D01*
X109337637Y-107050500D01*
X109415059Y-107035100D01*
X109444999Y-107015095D01*
X109503887Y-106998487D01*
X109555001Y-107015095D01*
X109584941Y-107035100D01*
X109662363Y-107050500D01*
X109837637Y-107050500D01*
X109883853Y-107041307D01*
X109944613Y-107048499D01*
X109989543Y-107090031D01*
X109992794Y-107096624D01*
X109993376Y-107097580D01*
X109996134Y-107104000D01*
X110001455Y-107110478D01*
X110004958Y-107113981D01*
X110018139Y-107130656D01*
X110018887Y-107131481D01*
X110023684Y-107139263D01*
X110030959Y-107144795D01*
X110030960Y-107144796D01*
X110045705Y-107156008D01*
X110055785Y-107164808D01*
X110346473Y-107455496D01*
X110374250Y-107510013D01*
X110364679Y-107570445D01*
X110321414Y-107613710D01*
X110276469Y-107624500D01*
X110018431Y-107624500D01*
X110014587Y-107625109D01*
X110014585Y-107625109D01*
X109924663Y-107639351D01*
X109924662Y-107639351D01*
X109916968Y-107640570D01*
X109910029Y-107644106D01*
X109910028Y-107644106D01*
X109803897Y-107698182D01*
X109803895Y-107698183D01*
X109796958Y-107701718D01*
X109701718Y-107796958D01*
X109698183Y-107803895D01*
X109698182Y-107803897D01*
X109662839Y-107873263D01*
X109640570Y-107916968D01*
X109624500Y-108018431D01*
X109624500Y-108581569D01*
X109640570Y-108683032D01*
X109644106Y-108689971D01*
X109644106Y-108689972D01*
X109679738Y-108759903D01*
X109701718Y-108803042D01*
X109796958Y-108898282D01*
X109803895Y-108901817D01*
X109803897Y-108901818D01*
X109910028Y-108955894D01*
X109916968Y-108959430D01*
X109924662Y-108960649D01*
X109924663Y-108960649D01*
X110014585Y-108974891D01*
X110014587Y-108974891D01*
X110018431Y-108975500D01*
X110284521Y-108975500D01*
X110342712Y-108994407D01*
X110354525Y-109004496D01*
X110925179Y-109575150D01*
X110927231Y-109577528D01*
X110929250Y-109581658D01*
X110935950Y-109587873D01*
X110961553Y-109611623D01*
X110964229Y-109614200D01*
X110981009Y-109630980D01*
X110984766Y-109633558D01*
X110986851Y-109635290D01*
X110990905Y-109638851D01*
X111004563Y-109651521D01*
X111004566Y-109651523D01*
X111011266Y-109657738D01*
X111019757Y-109661126D01*
X111019758Y-109661126D01*
X111021950Y-109662001D01*
X111041261Y-109672313D01*
X111043200Y-109673643D01*
X111050741Y-109678816D01*
X111059635Y-109680927D01*
X111059636Y-109680927D01*
X111076631Y-109684960D01*
X111090460Y-109689334D01*
X111108682Y-109696604D01*
X111108684Y-109696604D01*
X111115172Y-109699193D01*
X111123515Y-109700011D01*
X111128465Y-109700011D01*
X111149584Y-109702482D01*
X111150694Y-109702536D01*
X111159588Y-109704647D01*
X111180986Y-109701735D01*
X111187011Y-109700915D01*
X111200361Y-109700011D01*
X111897265Y-109700011D01*
X111955456Y-109718918D01*
X111991420Y-109768418D01*
X111991420Y-109829604D01*
X111959299Y-109876165D01*
X111905740Y-109919228D01*
X111841505Y-109970874D01*
X111829643Y-109985011D01*
X111712202Y-110124971D01*
X111712199Y-110124975D01*
X111709093Y-110128677D01*
X111609853Y-110309194D01*
X111547565Y-110505549D01*
X111547025Y-110510361D01*
X111547025Y-110510362D01*
X111530134Y-110660956D01*
X111524603Y-110710263D01*
X111541840Y-110915538D01*
X111543173Y-110920186D01*
X111543173Y-110920187D01*
X111570400Y-111015136D01*
X111598621Y-111113555D01*
X111600836Y-111117865D01*
X111609024Y-111133797D01*
X111618807Y-111194196D01*
X111590975Y-111249054D01*
X111385603Y-111454425D01*
X111185524Y-111654504D01*
X111131008Y-111682281D01*
X111115521Y-111683500D01*
X110806926Y-111683500D01*
X110748735Y-111664593D01*
X110712771Y-111615093D01*
X110712771Y-111553907D01*
X110745976Y-111506487D01*
X110764072Y-111492349D01*
X110764076Y-111492345D01*
X110767893Y-111489363D01*
X110771055Y-111485700D01*
X110771060Y-111485695D01*
X110899332Y-111337089D01*
X110902496Y-111333424D01*
X110925766Y-111292463D01*
X111001858Y-111158517D01*
X111001859Y-111158514D01*
X111004247Y-111154311D01*
X111011072Y-111133797D01*
X111067743Y-110963435D01*
X111067743Y-110963433D01*
X111069270Y-110958844D01*
X111074154Y-110920187D01*
X111094740Y-110757225D01*
X111095088Y-110754471D01*
X111095500Y-110725000D01*
X111093584Y-110705455D01*
X111075870Y-110524796D01*
X111075869Y-110524792D01*
X111075398Y-110519986D01*
X111072493Y-110510362D01*
X111027914Y-110362712D01*
X111015858Y-110322780D01*
X110919148Y-110140895D01*
X110788952Y-109981259D01*
X110717737Y-109922345D01*
X110633955Y-109853034D01*
X110633953Y-109853033D01*
X110630228Y-109849951D01*
X110461111Y-109758509D01*
X110453277Y-109754273D01*
X110453276Y-109754272D01*
X110449023Y-109751973D01*
X110354664Y-109722764D01*
X110256859Y-109692488D01*
X110256855Y-109692487D01*
X110252238Y-109691058D01*
X110247431Y-109690553D01*
X110247427Y-109690552D01*
X110052185Y-109670032D01*
X110052183Y-109670032D01*
X110047369Y-109669526D01*
X110007669Y-109673139D01*
X109847039Y-109687757D01*
X109847036Y-109687758D01*
X109842219Y-109688196D01*
X109837577Y-109689562D01*
X109837573Y-109689563D01*
X109649250Y-109744989D01*
X109649247Y-109744990D01*
X109644603Y-109746357D01*
X109613596Y-109762567D01*
X109466344Y-109839548D01*
X109466340Y-109839551D01*
X109462047Y-109841795D01*
X109458271Y-109844831D01*
X109458268Y-109844833D01*
X109361863Y-109922345D01*
X109301505Y-109970874D01*
X109289643Y-109985011D01*
X109172202Y-110124971D01*
X109172199Y-110124975D01*
X109169093Y-110128677D01*
X109069853Y-110309194D01*
X109007565Y-110505549D01*
X109007025Y-110510361D01*
X109007025Y-110510362D01*
X108990134Y-110660956D01*
X108984603Y-110710263D01*
X109001840Y-110915538D01*
X109003173Y-110920186D01*
X109003173Y-110920187D01*
X109030400Y-111015136D01*
X109058621Y-111113555D01*
X109152782Y-111296773D01*
X109280737Y-111458212D01*
X109340542Y-111509110D01*
X109372600Y-111561221D01*
X109367906Y-111622226D01*
X109328251Y-111668821D01*
X109276376Y-111683500D01*
X106583500Y-111683500D01*
X106525309Y-111664593D01*
X106489345Y-111615093D01*
X106484500Y-111584500D01*
X106484500Y-109960236D01*
X106503407Y-109902045D01*
X106513496Y-109890232D01*
X107053458Y-109350270D01*
X107107975Y-109322493D01*
X107168407Y-109332064D01*
X107205025Y-109368683D01*
X107206406Y-109367680D01*
X107210987Y-109373986D01*
X107214523Y-109380925D01*
X107304232Y-109470634D01*
X107311169Y-109474169D01*
X107311171Y-109474170D01*
X107402100Y-109520500D01*
X107417273Y-109528231D01*
X107424967Y-109529450D01*
X107424968Y-109529450D01*
X107534883Y-109546859D01*
X107542579Y-109548078D01*
X107550275Y-109546859D01*
X107660190Y-109529450D01*
X107660191Y-109529450D01*
X107667885Y-109528231D01*
X107683058Y-109520500D01*
X107773987Y-109474170D01*
X107773989Y-109474169D01*
X107780926Y-109470634D01*
X107870635Y-109380925D01*
X107886255Y-109350270D01*
X107924695Y-109274826D01*
X107924695Y-109274825D01*
X107928232Y-109267884D01*
X107931115Y-109249685D01*
X107939383Y-109197484D01*
X107967160Y-109142968D01*
X108144410Y-108965718D01*
X108146788Y-108963666D01*
X108150918Y-108961647D01*
X108180883Y-108929344D01*
X108183460Y-108926668D01*
X108200240Y-108909888D01*
X108202818Y-108906131D01*
X108204550Y-108904046D01*
X108208111Y-108899992D01*
X108220781Y-108886334D01*
X108220783Y-108886331D01*
X108226998Y-108879631D01*
X108230386Y-108871139D01*
X108231261Y-108868947D01*
X108241573Y-108849636D01*
X108242903Y-108847697D01*
X108242904Y-108847696D01*
X108248076Y-108840156D01*
X108254220Y-108814266D01*
X108258594Y-108800437D01*
X108265864Y-108782215D01*
X108265864Y-108782213D01*
X108268453Y-108775725D01*
X108269271Y-108767382D01*
X108269271Y-108762432D01*
X108271742Y-108741313D01*
X108271796Y-108740203D01*
X108273907Y-108731309D01*
X108270175Y-108703886D01*
X108269271Y-108690536D01*
X108269271Y-106961054D01*
X108288178Y-106902863D01*
X108337678Y-106866899D01*
X108398864Y-106866899D01*
X108450587Y-106906053D01*
G37*
%TD.AperFunction*%
%TA.AperFunction,Conductor*%
G36*
X112627689Y-107868447D02*
G01*
X112639502Y-107878536D01*
X113179752Y-108418786D01*
X113207529Y-108473303D01*
X113197958Y-108533735D01*
X113168154Y-108568632D01*
X113161653Y-108571944D01*
X113128093Y-108605504D01*
X113073576Y-108633281D01*
X113058089Y-108634500D01*
X112701554Y-108634500D01*
X112643363Y-108615593D01*
X112619239Y-108590502D01*
X112600729Y-108562800D01*
X112595310Y-108554690D01*
X112528641Y-108510143D01*
X112519078Y-108508241D01*
X112519076Y-108508240D01*
X112493800Y-108503213D01*
X112450000Y-108494500D01*
X112230000Y-108494500D01*
X112186200Y-108503213D01*
X112160924Y-108508240D01*
X112160922Y-108508241D01*
X112151359Y-108510143D01*
X112084690Y-108554690D01*
X111864476Y-108774904D01*
X111809959Y-108802681D01*
X111749527Y-108793110D01*
X111712158Y-108759903D01*
X111698012Y-108738733D01*
X111698009Y-108738729D01*
X111695310Y-108734690D01*
X111530624Y-108570004D01*
X111502847Y-108515487D01*
X111512418Y-108455055D01*
X111530624Y-108429996D01*
X111695310Y-108265310D01*
X111739857Y-108198641D01*
X111742203Y-108186851D01*
X111749741Y-108148952D01*
X111755500Y-108120000D01*
X111755500Y-108050000D01*
X111739857Y-107971359D01*
X111742808Y-107970772D01*
X111739237Y-107925433D01*
X111771204Y-107873263D01*
X111827731Y-107849846D01*
X111835503Y-107849540D01*
X112569498Y-107849540D01*
X112627689Y-107868447D01*
G37*
%TD.AperFunction*%
%TA.AperFunction,Conductor*%
G36*
X114055001Y-100115095D02*
G01*
X114084941Y-100135100D01*
X114162363Y-100150500D01*
X114250500Y-100150500D01*
X114308691Y-100169407D01*
X114344655Y-100218907D01*
X114349500Y-100249500D01*
X114349500Y-100337637D01*
X114364900Y-100415059D01*
X114370317Y-100423166D01*
X114384905Y-100444999D01*
X114401513Y-100503887D01*
X114384905Y-100555001D01*
X114364900Y-100584941D01*
X114349500Y-100662363D01*
X114349500Y-100837637D01*
X114364900Y-100915059D01*
X114370317Y-100923166D01*
X114384905Y-100944999D01*
X114401513Y-101003887D01*
X114384905Y-101055001D01*
X114364900Y-101084941D01*
X114349500Y-101162363D01*
X114349500Y-101337637D01*
X114364900Y-101415059D01*
X114370317Y-101423166D01*
X114384905Y-101444999D01*
X114401513Y-101503887D01*
X114384905Y-101555001D01*
X114364900Y-101584941D01*
X114349500Y-101662363D01*
X114349500Y-101837637D01*
X114364900Y-101915059D01*
X114376921Y-101933050D01*
X114384905Y-101944999D01*
X114401513Y-102003887D01*
X114384905Y-102055001D01*
X114364900Y-102084941D01*
X114349500Y-102162363D01*
X114349500Y-102337637D01*
X114364900Y-102415059D01*
X114370317Y-102423166D01*
X114384905Y-102444999D01*
X114401513Y-102503887D01*
X114384905Y-102555001D01*
X114364900Y-102584941D01*
X114349500Y-102662363D01*
X114349500Y-102837637D01*
X114364900Y-102915059D01*
X114370317Y-102923166D01*
X114384905Y-102944999D01*
X114401513Y-103003887D01*
X114384905Y-103055001D01*
X114364900Y-103084941D01*
X114349500Y-103162363D01*
X114349500Y-103337637D01*
X114364900Y-103415059D01*
X114370317Y-103423166D01*
X114384905Y-103444999D01*
X114401513Y-103503887D01*
X114384905Y-103555001D01*
X114364900Y-103584941D01*
X114349500Y-103662363D01*
X114349500Y-103837637D01*
X114364900Y-103915059D01*
X114370317Y-103923166D01*
X114384905Y-103944999D01*
X114401513Y-104003887D01*
X114384905Y-104055001D01*
X114364900Y-104084941D01*
X114349500Y-104162363D01*
X114349500Y-104337637D01*
X114364900Y-104415059D01*
X114370317Y-104423166D01*
X114384905Y-104444999D01*
X114401513Y-104503887D01*
X114384905Y-104555001D01*
X114364900Y-104584941D01*
X114349500Y-104662363D01*
X114349500Y-104837637D01*
X114364900Y-104915059D01*
X114384905Y-104944999D01*
X114401513Y-105003887D01*
X114384905Y-105055001D01*
X114364900Y-105084941D01*
X114349500Y-105162363D01*
X114349500Y-105337637D01*
X114364900Y-105415059D01*
X114370317Y-105423166D01*
X114384905Y-105444999D01*
X114401513Y-105503887D01*
X114384905Y-105555001D01*
X114364900Y-105584941D01*
X114349500Y-105662363D01*
X114349500Y-105750500D01*
X114330593Y-105808691D01*
X114281093Y-105844655D01*
X114250500Y-105849500D01*
X114162363Y-105849500D01*
X114084941Y-105864900D01*
X114076833Y-105870317D01*
X114076834Y-105870317D01*
X114055001Y-105884905D01*
X113996113Y-105901513D01*
X113944999Y-105884905D01*
X113923166Y-105870317D01*
X113923167Y-105870317D01*
X113915059Y-105864900D01*
X113837637Y-105849500D01*
X113662363Y-105849500D01*
X113584941Y-105864900D01*
X113576833Y-105870317D01*
X113576834Y-105870317D01*
X113555001Y-105884905D01*
X113496113Y-105901513D01*
X113444999Y-105884905D01*
X113423166Y-105870317D01*
X113423167Y-105870317D01*
X113415059Y-105864900D01*
X113337637Y-105849500D01*
X113162363Y-105849500D01*
X113084941Y-105864900D01*
X113076833Y-105870317D01*
X113076834Y-105870317D01*
X113055001Y-105884905D01*
X112996113Y-105901513D01*
X112944999Y-105884905D01*
X112923166Y-105870317D01*
X112923167Y-105870317D01*
X112915059Y-105864900D01*
X112837637Y-105849500D01*
X112662363Y-105849500D01*
X112584941Y-105864900D01*
X112576833Y-105870317D01*
X112576834Y-105870317D01*
X112555001Y-105884905D01*
X112496113Y-105901513D01*
X112444999Y-105884905D01*
X112423166Y-105870317D01*
X112423167Y-105870317D01*
X112415059Y-105864900D01*
X112337637Y-105849500D01*
X112162363Y-105849500D01*
X112084941Y-105864900D01*
X112076833Y-105870317D01*
X112076834Y-105870317D01*
X112055001Y-105884905D01*
X111996113Y-105901513D01*
X111944999Y-105884905D01*
X111923166Y-105870317D01*
X111923167Y-105870317D01*
X111915059Y-105864900D01*
X111837637Y-105849500D01*
X111662363Y-105849500D01*
X111584941Y-105864900D01*
X111576833Y-105870317D01*
X111576834Y-105870317D01*
X111555001Y-105884905D01*
X111496113Y-105901513D01*
X111444999Y-105884905D01*
X111423166Y-105870317D01*
X111423167Y-105870317D01*
X111415059Y-105864900D01*
X111337637Y-105849500D01*
X111162363Y-105849500D01*
X111084941Y-105864900D01*
X111076833Y-105870317D01*
X111076834Y-105870317D01*
X111055001Y-105884905D01*
X110996113Y-105901513D01*
X110944999Y-105884905D01*
X110923166Y-105870317D01*
X110923167Y-105870317D01*
X110915059Y-105864900D01*
X110837637Y-105849500D01*
X110662363Y-105849500D01*
X110584941Y-105864900D01*
X110576833Y-105870317D01*
X110576834Y-105870317D01*
X110555001Y-105884905D01*
X110496113Y-105901513D01*
X110444999Y-105884905D01*
X110423166Y-105870317D01*
X110423167Y-105870317D01*
X110415059Y-105864900D01*
X110337637Y-105849500D01*
X110162363Y-105849500D01*
X110084941Y-105864900D01*
X110076833Y-105870317D01*
X110076834Y-105870317D01*
X110055001Y-105884905D01*
X109996113Y-105901513D01*
X109944999Y-105884905D01*
X109923166Y-105870317D01*
X109923167Y-105870317D01*
X109915059Y-105864900D01*
X109837637Y-105849500D01*
X109662363Y-105849500D01*
X109584941Y-105864900D01*
X109576833Y-105870317D01*
X109576834Y-105870317D01*
X109555001Y-105884905D01*
X109496113Y-105901513D01*
X109444999Y-105884905D01*
X109423166Y-105870317D01*
X109423167Y-105870317D01*
X109415059Y-105864900D01*
X109337637Y-105849500D01*
X109162363Y-105849500D01*
X109084941Y-105864900D01*
X109076833Y-105870317D01*
X109076834Y-105870317D01*
X109055001Y-105884905D01*
X108996113Y-105901513D01*
X108944999Y-105884905D01*
X108923166Y-105870317D01*
X108923167Y-105870317D01*
X108915059Y-105864900D01*
X108837637Y-105849500D01*
X108749500Y-105849500D01*
X108691309Y-105830593D01*
X108655345Y-105781093D01*
X108650500Y-105750500D01*
X108650500Y-105662363D01*
X108635100Y-105584941D01*
X108615095Y-105555001D01*
X108598487Y-105496113D01*
X108615095Y-105444999D01*
X108629683Y-105423166D01*
X108635100Y-105415059D01*
X108650500Y-105337637D01*
X108650500Y-105162363D01*
X108635100Y-105084941D01*
X108615095Y-105055001D01*
X108598487Y-104996113D01*
X108615095Y-104944999D01*
X108635100Y-104915059D01*
X108650500Y-104837637D01*
X108650500Y-104662363D01*
X108635100Y-104584941D01*
X108615095Y-104555001D01*
X108598487Y-104496113D01*
X108615095Y-104444999D01*
X108629683Y-104423166D01*
X108635100Y-104415059D01*
X108650500Y-104337637D01*
X108650500Y-104162363D01*
X108635100Y-104084941D01*
X108615095Y-104055001D01*
X108598487Y-103996113D01*
X108615095Y-103944999D01*
X108629683Y-103923166D01*
X108635100Y-103915059D01*
X108650500Y-103837637D01*
X108650500Y-103662363D01*
X108635100Y-103584941D01*
X108615095Y-103555001D01*
X108598487Y-103496113D01*
X108615095Y-103444999D01*
X108629683Y-103423166D01*
X108635100Y-103415059D01*
X108650500Y-103337637D01*
X108650500Y-103162363D01*
X108635100Y-103084941D01*
X108615095Y-103055001D01*
X108598487Y-102996113D01*
X108615095Y-102944999D01*
X108629683Y-102923166D01*
X108635100Y-102915059D01*
X108650500Y-102837637D01*
X108650500Y-102662363D01*
X108635100Y-102584941D01*
X108615095Y-102555001D01*
X108598487Y-102496113D01*
X108615095Y-102444999D01*
X108629683Y-102423166D01*
X108635100Y-102415059D01*
X108650500Y-102337637D01*
X108650500Y-102162363D01*
X108635100Y-102084941D01*
X108615095Y-102055001D01*
X108598487Y-101996113D01*
X108615095Y-101944999D01*
X108623079Y-101933050D01*
X108635100Y-101915059D01*
X108650500Y-101837637D01*
X108650500Y-101662363D01*
X108635100Y-101584941D01*
X108615095Y-101555001D01*
X108598487Y-101496113D01*
X108615095Y-101444999D01*
X108629683Y-101423166D01*
X108635100Y-101415059D01*
X108650500Y-101337637D01*
X108650500Y-101162363D01*
X108635100Y-101084941D01*
X108615095Y-101055001D01*
X108598487Y-100996113D01*
X108615095Y-100944999D01*
X108629683Y-100923166D01*
X108635100Y-100915059D01*
X108650500Y-100837637D01*
X108650500Y-100662363D01*
X108635100Y-100584941D01*
X108615095Y-100555001D01*
X108598487Y-100496113D01*
X108615095Y-100444999D01*
X108629683Y-100423166D01*
X108635100Y-100415059D01*
X108650500Y-100337637D01*
X108650500Y-100249500D01*
X108669407Y-100191309D01*
X108718907Y-100155345D01*
X108749500Y-100150500D01*
X108837637Y-100150500D01*
X108915059Y-100135100D01*
X108944999Y-100115095D01*
X109003887Y-100098487D01*
X109055001Y-100115095D01*
X109084941Y-100135100D01*
X109162363Y-100150500D01*
X109337637Y-100150500D01*
X109415059Y-100135100D01*
X109444999Y-100115095D01*
X109503887Y-100098487D01*
X109555001Y-100115095D01*
X109584941Y-100135100D01*
X109662363Y-100150500D01*
X109837637Y-100150500D01*
X109915059Y-100135100D01*
X109944999Y-100115095D01*
X110003887Y-100098487D01*
X110055001Y-100115095D01*
X110084941Y-100135100D01*
X110162363Y-100150500D01*
X110337637Y-100150500D01*
X110415059Y-100135100D01*
X110444999Y-100115095D01*
X110503887Y-100098487D01*
X110555001Y-100115095D01*
X110584941Y-100135100D01*
X110662363Y-100150500D01*
X110837637Y-100150500D01*
X110915059Y-100135100D01*
X110944999Y-100115095D01*
X111003887Y-100098487D01*
X111055001Y-100115095D01*
X111084941Y-100135100D01*
X111162363Y-100150500D01*
X111337637Y-100150500D01*
X111415059Y-100135100D01*
X111444999Y-100115095D01*
X111503887Y-100098487D01*
X111555001Y-100115095D01*
X111584941Y-100135100D01*
X111662363Y-100150500D01*
X111837637Y-100150500D01*
X111915059Y-100135100D01*
X111944999Y-100115095D01*
X112003887Y-100098487D01*
X112055001Y-100115095D01*
X112084941Y-100135100D01*
X112162363Y-100150500D01*
X112337637Y-100150500D01*
X112415059Y-100135100D01*
X112444999Y-100115095D01*
X112503887Y-100098487D01*
X112555001Y-100115095D01*
X112584941Y-100135100D01*
X112662363Y-100150500D01*
X112837637Y-100150500D01*
X112915059Y-100135100D01*
X112944999Y-100115095D01*
X113003887Y-100098487D01*
X113055001Y-100115095D01*
X113084941Y-100135100D01*
X113162363Y-100150500D01*
X113337637Y-100150500D01*
X113415059Y-100135100D01*
X113444999Y-100115095D01*
X113503887Y-100098487D01*
X113555001Y-100115095D01*
X113584941Y-100135100D01*
X113662363Y-100150500D01*
X113837637Y-100150500D01*
X113915059Y-100135100D01*
X113944999Y-100115095D01*
X114003887Y-100098487D01*
X114055001Y-100115095D01*
G37*
%TD.AperFunction*%
%TA.AperFunction,Conductor*%
G36*
X117445945Y-95750798D02*
G01*
X117489210Y-95794063D01*
X117500000Y-95839008D01*
X117500000Y-95896919D01*
X117500069Y-95897224D01*
X117500113Y-95898013D01*
X117500103Y-95909268D01*
X117500104Y-95909271D01*
X117500094Y-95920417D01*
X117504919Y-95930466D01*
X117505320Y-95931300D01*
X117512594Y-95952131D01*
X117515279Y-95963900D01*
X117522227Y-95972619D01*
X117522631Y-95973126D01*
X117534456Y-95991976D01*
X117539565Y-96002616D01*
X117548269Y-96009577D01*
X117548271Y-96009579D01*
X117548991Y-96010154D01*
X117564580Y-96025769D01*
X117572105Y-96035212D01*
X117582145Y-96040055D01*
X117582148Y-96040057D01*
X117582738Y-96040341D01*
X117601557Y-96052191D01*
X117610778Y-96059565D01*
X117621644Y-96062064D01*
X117621647Y-96062065D01*
X117622543Y-96062271D01*
X117643359Y-96069581D01*
X117644192Y-96069983D01*
X117644195Y-96069984D01*
X117654234Y-96074826D01*
X117676631Y-96074845D01*
X117677425Y-96074891D01*
X117677899Y-96075000D01*
X118621919Y-96075000D01*
X118622224Y-96074931D01*
X118623013Y-96074887D01*
X118634268Y-96074897D01*
X118634271Y-96074896D01*
X118645417Y-96074906D01*
X118656303Y-96069679D01*
X118677123Y-96062408D01*
X118678972Y-96061986D01*
X118739911Y-96067471D01*
X118785987Y-96107728D01*
X118800000Y-96158504D01*
X118800000Y-97946418D01*
X118798228Y-97965063D01*
X118794329Y-97985395D01*
X118795763Y-98024601D01*
X118796157Y-98035375D01*
X118793067Y-98035488D01*
X118793232Y-98037213D01*
X118795457Y-98037080D01*
X118795457Y-98037082D01*
X118797360Y-98069002D01*
X118797466Y-98071202D01*
X118798553Y-98100909D01*
X118799467Y-98104335D01*
X118799689Y-98108052D01*
X118801265Y-98113421D01*
X118801266Y-98113424D01*
X118807806Y-98135697D01*
X118808467Y-98138057D01*
X118816842Y-98169434D01*
X118813845Y-98170234D01*
X118814175Y-98172146D01*
X118818164Y-98170974D01*
X118818165Y-98170975D01*
X118834816Y-98227683D01*
X118835009Y-98228619D01*
X118834443Y-98234073D01*
X118845714Y-98265419D01*
X118847537Y-98271008D01*
X118852389Y-98287532D01*
X118855099Y-98292379D01*
X118855883Y-98294245D01*
X118856604Y-98295708D01*
X118858499Y-98300976D01*
X118861526Y-98305686D01*
X118861527Y-98305688D01*
X118867700Y-98315294D01*
X118870822Y-98320497D01*
X118885250Y-98346298D01*
X118897149Y-98406315D01*
X118871499Y-98461864D01*
X118852546Y-98477785D01*
X118760744Y-98537061D01*
X118755679Y-98543486D01*
X118755678Y-98543487D01*
X118734463Y-98570399D01*
X118688473Y-98628737D01*
X118685763Y-98636455D01*
X118685761Y-98636458D01*
X118661443Y-98705706D01*
X118649794Y-98738879D01*
X118648877Y-98855612D01*
X118685821Y-98966349D01*
X118690785Y-98972854D01*
X118690786Y-98972855D01*
X118742284Y-99040333D01*
X118762558Y-99098062D01*
X118741332Y-99161685D01*
X118733245Y-99171944D01*
X118688473Y-99228737D01*
X118685763Y-99236455D01*
X118685761Y-99236458D01*
X118658837Y-99313127D01*
X118649794Y-99338879D01*
X118649730Y-99347062D01*
X118649139Y-99422315D01*
X118648877Y-99455612D01*
X118685821Y-99566349D01*
X118690785Y-99572854D01*
X118690786Y-99572855D01*
X118712519Y-99601331D01*
X118756644Y-99659148D01*
X118763448Y-99663694D01*
X118853487Y-99723857D01*
X118891366Y-99771907D01*
X118893768Y-99833045D01*
X118884808Y-99854642D01*
X118870942Y-99879337D01*
X118867903Y-99884391D01*
X118861603Y-99894193D01*
X118861601Y-99894197D01*
X118858603Y-99898862D01*
X118856717Y-99904078D01*
X118855811Y-99905911D01*
X118855182Y-99907405D01*
X118852443Y-99912283D01*
X118850867Y-99917652D01*
X118850864Y-99917658D01*
X118847645Y-99928621D01*
X118845758Y-99934387D01*
X118838278Y-99955076D01*
X118838277Y-99955081D01*
X118834488Y-99965562D01*
X118835061Y-99971175D01*
X118834844Y-99972221D01*
X118818219Y-100028841D01*
X118815264Y-100027973D01*
X118814873Y-100029664D01*
X118817014Y-100030239D01*
X118808707Y-100061145D01*
X118808093Y-100063327D01*
X118799744Y-100091763D01*
X118799527Y-100095303D01*
X118798560Y-100098899D01*
X118798355Y-100104498D01*
X118798355Y-100104500D01*
X118797507Y-100127699D01*
X118797388Y-100130137D01*
X118795397Y-100162555D01*
X118792301Y-100162365D01*
X118792008Y-100164283D01*
X118796164Y-100164435D01*
X118794336Y-100214413D01*
X118795372Y-100219865D01*
X118798261Y-100235074D01*
X118800000Y-100253551D01*
X118800000Y-100380500D01*
X118781093Y-100438691D01*
X118731593Y-100474655D01*
X118701000Y-100479500D01*
X118254500Y-100479500D01*
X118196309Y-100460593D01*
X118160345Y-100411093D01*
X118155500Y-100380500D01*
X118155500Y-99590000D01*
X118143694Y-99530648D01*
X118141760Y-99520924D01*
X118141759Y-99520922D01*
X118139857Y-99511359D01*
X118095310Y-99444690D01*
X118061824Y-99422315D01*
X118023945Y-99374265D01*
X118021543Y-99313127D01*
X118055536Y-99262253D01*
X118061824Y-99257685D01*
X118087200Y-99240729D01*
X118095310Y-99235310D01*
X118139857Y-99168641D01*
X118155500Y-99090000D01*
X118155500Y-98090000D01*
X118139857Y-98011359D01*
X118134438Y-98003249D01*
X118110970Y-97968126D01*
X118094362Y-97909237D01*
X118115540Y-97851834D01*
X118122184Y-97844357D01*
X118122551Y-97843852D01*
X118128056Y-97838347D01*
X118138658Y-97817541D01*
X118182117Y-97732246D01*
X118185653Y-97725306D01*
X118187682Y-97712500D01*
X118204281Y-97607696D01*
X118205500Y-97600000D01*
X118197530Y-97549679D01*
X118186872Y-97482389D01*
X118186872Y-97482388D01*
X118185653Y-97474694D01*
X118179423Y-97462467D01*
X118131592Y-97368592D01*
X118131591Y-97368590D01*
X118128056Y-97361653D01*
X118038347Y-97271944D01*
X118031410Y-97268409D01*
X118031408Y-97268408D01*
X117932246Y-97217883D01*
X117925306Y-97214347D01*
X117917612Y-97213128D01*
X117917611Y-97213128D01*
X117807696Y-97195719D01*
X117800000Y-97194500D01*
X117792304Y-97195719D01*
X117682389Y-97213128D01*
X117682388Y-97213128D01*
X117674694Y-97214347D01*
X117667754Y-97217883D01*
X117568592Y-97268408D01*
X117568590Y-97268409D01*
X117561653Y-97271944D01*
X117471944Y-97361653D01*
X117468409Y-97368590D01*
X117468408Y-97368592D01*
X117420577Y-97462467D01*
X117414347Y-97474694D01*
X117413128Y-97482388D01*
X117413128Y-97482389D01*
X117402470Y-97549679D01*
X117394500Y-97600000D01*
X117395719Y-97607696D01*
X117395719Y-97607697D01*
X117398641Y-97626147D01*
X117399742Y-97646462D01*
X117399735Y-97646609D01*
X117399500Y-97649004D01*
X117399500Y-97653954D01*
X117397029Y-97675073D01*
X117396975Y-97676183D01*
X117394864Y-97685077D01*
X117396097Y-97694134D01*
X117398596Y-97712500D01*
X117399500Y-97725850D01*
X117399500Y-97785500D01*
X117380593Y-97843691D01*
X117331093Y-97879655D01*
X117300500Y-97884500D01*
X117150000Y-97884500D01*
X117106200Y-97893213D01*
X117080924Y-97898240D01*
X117080922Y-97898241D01*
X117071359Y-97900143D01*
X117004690Y-97944690D01*
X116960143Y-98011359D01*
X116944500Y-98090000D01*
X116944500Y-99090000D01*
X116960143Y-99168641D01*
X117004690Y-99235310D01*
X117004710Y-99235324D01*
X117029699Y-99284368D01*
X117020128Y-99344800D01*
X116976863Y-99388065D01*
X116912604Y-99396953D01*
X116850000Y-99384500D01*
X116050000Y-99384500D01*
X116007017Y-99393050D01*
X115980924Y-99398240D01*
X115980922Y-99398241D01*
X115971359Y-99400143D01*
X115904690Y-99444690D01*
X115860143Y-99511359D01*
X115858241Y-99520922D01*
X115858240Y-99520924D01*
X115856306Y-99530648D01*
X115844500Y-99590000D01*
X115844500Y-100590000D01*
X115852556Y-100630500D01*
X115857947Y-100657599D01*
X115860143Y-100668641D01*
X115878849Y-100696636D01*
X115895457Y-100755521D01*
X115874280Y-100812925D01*
X115823407Y-100846919D01*
X115781047Y-100849417D01*
X115757698Y-100845719D01*
X115757696Y-100845719D01*
X115750000Y-100844500D01*
X115734532Y-100846950D01*
X115682849Y-100855136D01*
X115664987Y-100857965D01*
X115604555Y-100848394D01*
X115561290Y-100805129D01*
X115550500Y-100760184D01*
X115550500Y-100662363D01*
X115535100Y-100584941D01*
X115515095Y-100555001D01*
X115498487Y-100496113D01*
X115515095Y-100444999D01*
X115529683Y-100423166D01*
X115535100Y-100415059D01*
X115550500Y-100337637D01*
X115550500Y-100162363D01*
X115535100Y-100084941D01*
X115497738Y-100029025D01*
X115482424Y-100006105D01*
X115477005Y-99997995D01*
X115390059Y-99939900D01*
X115312637Y-99924500D01*
X115130911Y-99924500D01*
X115072720Y-99905593D01*
X115036756Y-99856093D01*
X115036756Y-99794907D01*
X115060907Y-99755496D01*
X115078056Y-99738347D01*
X115088756Y-99717348D01*
X115132117Y-99632246D01*
X115135653Y-99625306D01*
X115142000Y-99585237D01*
X115154281Y-99507696D01*
X115155500Y-99500000D01*
X115139661Y-99400000D01*
X115136872Y-99382389D01*
X115136872Y-99382388D01*
X115135653Y-99374694D01*
X115120421Y-99344800D01*
X115081592Y-99268592D01*
X115081591Y-99268590D01*
X115078056Y-99261653D01*
X114988347Y-99171944D01*
X114981410Y-99168409D01*
X114981408Y-99168408D01*
X114882246Y-99117883D01*
X114875306Y-99114347D01*
X114867612Y-99113128D01*
X114867611Y-99113128D01*
X114757696Y-99095719D01*
X114750000Y-99094500D01*
X114631538Y-99113263D01*
X114571106Y-99103692D01*
X114533735Y-99070483D01*
X114507424Y-99031105D01*
X114502005Y-99022995D01*
X114415059Y-98964900D01*
X114337637Y-98949500D01*
X114299500Y-98949500D01*
X114241309Y-98930593D01*
X114205345Y-98881093D01*
X114200500Y-98850500D01*
X114200500Y-98729507D01*
X114202354Y-98712721D01*
X114202669Y-98711812D01*
X114203573Y-98703322D01*
X114203627Y-98701368D01*
X114207243Y-98570399D01*
X114209107Y-98553818D01*
X114234682Y-98425237D01*
X114240316Y-98406665D01*
X114287527Y-98292686D01*
X114296676Y-98275569D01*
X114299724Y-98271008D01*
X114369512Y-98166564D01*
X114379916Y-98153524D01*
X114394787Y-98137809D01*
X114427744Y-98102981D01*
X114431641Y-98099088D01*
X114485074Y-98048603D01*
X114498053Y-98038255D01*
X114614147Y-97960683D01*
X114631257Y-97951538D01*
X114752923Y-97901143D01*
X114771483Y-97895512D01*
X114908433Y-97868271D01*
X114924931Y-97866410D01*
X114937007Y-97866068D01*
X114949480Y-97865714D01*
X114957597Y-97865817D01*
X114957706Y-97865823D01*
X114957738Y-97865823D01*
X114959678Y-97865928D01*
X114961625Y-97865880D01*
X114961628Y-97865880D01*
X115088938Y-97862739D01*
X115102243Y-97863307D01*
X115126662Y-97866003D01*
X115126666Y-97866003D01*
X115132273Y-97866622D01*
X115140752Y-97865618D01*
X115142651Y-97865240D01*
X115142659Y-97865239D01*
X115202101Y-97853415D01*
X115204287Y-97853006D01*
X115219936Y-97850257D01*
X115260417Y-97843146D01*
X115263822Y-97841407D01*
X115267829Y-97840342D01*
X115374748Y-97819074D01*
X115385519Y-97817541D01*
X115416641Y-97814846D01*
X115416645Y-97814845D01*
X115422259Y-97814359D01*
X115427620Y-97812618D01*
X115427623Y-97812617D01*
X115428546Y-97812317D01*
X115428552Y-97812315D01*
X115430380Y-97811721D01*
X115479310Y-97791453D01*
X115483662Y-97789770D01*
X115526468Y-97774359D01*
X115533429Y-97771853D01*
X115539348Y-97767409D01*
X115541470Y-97766264D01*
X115550571Y-97761936D01*
X115650814Y-97720415D01*
X115661062Y-97716817D01*
X115691060Y-97708101D01*
X115691059Y-97708101D01*
X115696481Y-97706526D01*
X115703930Y-97702354D01*
X115747947Y-97672942D01*
X115751887Y-97670441D01*
X115779272Y-97653954D01*
X115797220Y-97643149D01*
X115802159Y-97637635D01*
X115804018Y-97636097D01*
X115812122Y-97630062D01*
X115824261Y-97621951D01*
X115896425Y-97573733D01*
X115907969Y-97567096D01*
X115930051Y-97556308D01*
X115930055Y-97556306D01*
X115935122Y-97553830D01*
X115941750Y-97548446D01*
X115946914Y-97543531D01*
X115987058Y-97505320D01*
X115988686Y-97503805D01*
X116019316Y-97475934D01*
X116024833Y-97471492D01*
X116027507Y-97470019D01*
X116033862Y-97464317D01*
X116035204Y-97462907D01*
X116035215Y-97462897D01*
X116068291Y-97428162D01*
X116071730Y-97424724D01*
X116071795Y-97424663D01*
X116081084Y-97415821D01*
X116083261Y-97413749D01*
X116083266Y-97413744D01*
X116085936Y-97411202D01*
X116089548Y-97406556D01*
X116096004Y-97399058D01*
X116122469Y-97371265D01*
X116132255Y-97362282D01*
X116155885Y-97343350D01*
X116161171Y-97336645D01*
X116195869Y-97284715D01*
X116197128Y-97282878D01*
X116225602Y-97242287D01*
X116225605Y-97242282D01*
X116229854Y-97236224D01*
X116231043Y-97232551D01*
X116233152Y-97228917D01*
X116240525Y-97217883D01*
X116292756Y-97139715D01*
X116299284Y-97131020D01*
X116304253Y-97125109D01*
X116323015Y-97102788D01*
X116325748Y-97097425D01*
X116326002Y-97096927D01*
X116326008Y-97096914D01*
X116326891Y-97095181D01*
X116347155Y-97046259D01*
X116349029Y-97042019D01*
X116371567Y-96994124D01*
X116372610Y-96986791D01*
X116373300Y-96984485D01*
X116376686Y-96974963D01*
X116380305Y-96966228D01*
X116417527Y-96876366D01*
X116422236Y-96866559D01*
X116437284Y-96839187D01*
X116440001Y-96834245D01*
X116442318Y-96826028D01*
X116452649Y-96774092D01*
X116453667Y-96769540D01*
X116464636Y-96725380D01*
X116466421Y-96718194D01*
X116466014Y-96710802D01*
X116466241Y-96708403D01*
X116467704Y-96698406D01*
X116487157Y-96600607D01*
X116490619Y-96587778D01*
X116500450Y-96559146D01*
X116501328Y-96550653D01*
X116502856Y-96488234D01*
X116502935Y-96486020D01*
X116505621Y-96429065D01*
X116504661Y-96425328D01*
X116504498Y-96421127D01*
X116506086Y-96356220D01*
X116506177Y-96352521D01*
X116501269Y-96313383D01*
X116500500Y-96301065D01*
X116500500Y-95909888D01*
X116502403Y-95890572D01*
X116504569Y-95879684D01*
X116534466Y-95826301D01*
X116590032Y-95800686D01*
X116601666Y-95800000D01*
X117300000Y-95800000D01*
X117330996Y-95769004D01*
X117385513Y-95741227D01*
X117445945Y-95750798D01*
G37*
%TD.AperFunction*%
%TA.AperFunction,Conductor*%
G36*
X107167859Y-95818907D02*
G01*
X107203823Y-95868407D01*
X107203823Y-95929593D01*
X107179672Y-95969004D01*
X107151718Y-95996958D01*
X107148183Y-96003895D01*
X107148182Y-96003897D01*
X107111954Y-96075000D01*
X107090570Y-96116968D01*
X107074500Y-96218431D01*
X107074500Y-96781569D01*
X107075109Y-96785413D01*
X107075109Y-96785415D01*
X107081983Y-96828813D01*
X107090570Y-96883032D01*
X107094106Y-96889971D01*
X107094106Y-96889972D01*
X107145328Y-96990500D01*
X107151718Y-97003042D01*
X107246958Y-97098282D01*
X107253895Y-97101817D01*
X107253897Y-97101818D01*
X107268947Y-97109486D01*
X107312212Y-97152751D01*
X107321783Y-97213181D01*
X107320719Y-97219900D01*
X107320719Y-97219904D01*
X107319500Y-97227600D01*
X107320719Y-97235295D01*
X107320719Y-97235296D01*
X107326880Y-97274195D01*
X107317309Y-97334627D01*
X107274045Y-97377891D01*
X107243595Y-97393406D01*
X107243591Y-97393409D01*
X107236653Y-97396944D01*
X107146944Y-97486653D01*
X107143409Y-97493590D01*
X107143408Y-97493592D01*
X107104358Y-97570233D01*
X107089347Y-97599694D01*
X107088128Y-97607388D01*
X107088128Y-97607389D01*
X107077952Y-97671639D01*
X107074500Y-97693432D01*
X107074500Y-98306568D01*
X107075109Y-98310412D01*
X107075109Y-98310414D01*
X107081825Y-98352812D01*
X107089347Y-98400306D01*
X107092883Y-98407246D01*
X107137598Y-98495004D01*
X107146944Y-98513347D01*
X107236653Y-98603056D01*
X107243593Y-98606592D01*
X107243597Y-98606595D01*
X107294314Y-98632437D01*
X107337579Y-98675701D01*
X107347150Y-98736133D01*
X107319373Y-98790650D01*
X106713069Y-99396953D01*
X106109518Y-100000504D01*
X106055001Y-100028281D01*
X106039514Y-100029500D01*
X105273539Y-100029500D01*
X105215348Y-100010593D01*
X105200544Y-99996906D01*
X105200500Y-99996950D01*
X104968554Y-99765004D01*
X104940777Y-99710487D01*
X104950348Y-99650055D01*
X104968554Y-99624996D01*
X105200500Y-99393050D01*
X105200500Y-98726950D01*
X104968554Y-98495004D01*
X104940777Y-98440487D01*
X104950348Y-98380055D01*
X104968554Y-98354996D01*
X105200500Y-98123050D01*
X105200500Y-97456950D01*
X104833050Y-97089500D01*
X104299000Y-97089500D01*
X104240809Y-97070593D01*
X104204845Y-97021093D01*
X104200000Y-96990500D01*
X104200000Y-95899000D01*
X104218907Y-95840809D01*
X104268407Y-95804845D01*
X104299000Y-95800000D01*
X107109668Y-95800000D01*
X107167859Y-95818907D01*
G37*
%TD.AperFunction*%
%TA.AperFunction,Conductor*%
G36*
X115556525Y-95818907D02*
G01*
X115592489Y-95868407D01*
X115595431Y-95879684D01*
X115597597Y-95890572D01*
X115599500Y-95909888D01*
X115599500Y-96272651D01*
X115597627Y-96289855D01*
X115597069Y-96291481D01*
X115596191Y-96299974D01*
X115596143Y-96301917D01*
X115596143Y-96301924D01*
X115593325Y-96417097D01*
X115591453Y-96433989D01*
X115571871Y-96532434D01*
X115566239Y-96550998D01*
X115545691Y-96600607D01*
X115530447Y-96637410D01*
X115521298Y-96654526D01*
X115465539Y-96737975D01*
X115454918Y-96751244D01*
X115427320Y-96780226D01*
X115423883Y-96783663D01*
X115394233Y-96811886D01*
X115380978Y-96822493D01*
X115296034Y-96879251D01*
X115278921Y-96888398D01*
X115190900Y-96924857D01*
X115172340Y-96930488D01*
X115072128Y-96950421D01*
X115055244Y-96952293D01*
X115051780Y-96952378D01*
X115044381Y-96952283D01*
X115038329Y-96951979D01*
X115038328Y-96951979D01*
X115036380Y-96951881D01*
X115034440Y-96951936D01*
X115034433Y-96951936D01*
X114889971Y-96956036D01*
X114876299Y-96955478D01*
X114852878Y-96952892D01*
X114852873Y-96952892D01*
X114847267Y-96952273D01*
X114838788Y-96953277D01*
X114836888Y-96953655D01*
X114836875Y-96953657D01*
X114775410Y-96965883D01*
X114773587Y-96966228D01*
X114759822Y-96968699D01*
X114717509Y-96976293D01*
X114714693Y-96977745D01*
X114711559Y-96978584D01*
X114655007Y-96989833D01*
X114569070Y-97006926D01*
X114558300Y-97008459D01*
X114527182Y-97011154D01*
X114527180Y-97011154D01*
X114521561Y-97011641D01*
X114513440Y-97014280D01*
X114467362Y-97033366D01*
X114464521Y-97034543D01*
X114460170Y-97036226D01*
X114410392Y-97054147D01*
X114404469Y-97058594D01*
X114402349Y-97059738D01*
X114393222Y-97064076D01*
X114259373Y-97119517D01*
X114249111Y-97123121D01*
X114221926Y-97131020D01*
X114213697Y-97133411D01*
X114206248Y-97137582D01*
X114201776Y-97140570D01*
X114162222Y-97166999D01*
X114158285Y-97169497D01*
X114119294Y-97192972D01*
X114119291Y-97192974D01*
X114112955Y-97196789D01*
X114108021Y-97202297D01*
X114106154Y-97203842D01*
X114098052Y-97209875D01*
X113984340Y-97285855D01*
X113972472Y-97292650D01*
X113946179Y-97305375D01*
X113941786Y-97308917D01*
X113941052Y-97309508D01*
X113941044Y-97309515D01*
X113939532Y-97310734D01*
X113938105Y-97312082D01*
X113938103Y-97312084D01*
X113892584Y-97355091D01*
X113891221Y-97356355D01*
X113854537Y-97389734D01*
X113854534Y-97389738D01*
X113849064Y-97394715D01*
X113847452Y-97397441D01*
X113845238Y-97399824D01*
X113828043Y-97416071D01*
X113819560Y-97423055D01*
X113815944Y-97425062D01*
X113809607Y-97430784D01*
X113808267Y-97432200D01*
X113808264Y-97432203D01*
X113787342Y-97454312D01*
X113784737Y-97456917D01*
X113784275Y-97457424D01*
X113781591Y-97459960D01*
X113780496Y-97461357D01*
X113779221Y-97462083D01*
X113779627Y-97462467D01*
X113722988Y-97522324D01*
X113711644Y-97534312D01*
X113701633Y-97543530D01*
X113678682Y-97561917D01*
X113673396Y-97568623D01*
X113637711Y-97622027D01*
X113636714Y-97623487D01*
X113604065Y-97670344D01*
X113603057Y-97673489D01*
X113601343Y-97676454D01*
X113525219Y-97790377D01*
X113518688Y-97799075D01*
X113498592Y-97822982D01*
X113498587Y-97822989D01*
X113494962Y-97827302D01*
X113491085Y-97834909D01*
X113478283Y-97865817D01*
X113470825Y-97883822D01*
X113468939Y-97888089D01*
X113446410Y-97935963D01*
X113445368Y-97943285D01*
X113444670Y-97945618D01*
X113441287Y-97955132D01*
X113425817Y-97992482D01*
X113386082Y-98039007D01*
X113326588Y-98053292D01*
X113270059Y-98029879D01*
X113264349Y-98024601D01*
X113204496Y-97964748D01*
X113176719Y-97910231D01*
X113175500Y-97894744D01*
X113175500Y-97518431D01*
X113174891Y-97514585D01*
X113160649Y-97424663D01*
X113160649Y-97424662D01*
X113159430Y-97416968D01*
X113155008Y-97408289D01*
X113101818Y-97303897D01*
X113101817Y-97303895D01*
X113098282Y-97296958D01*
X113003042Y-97201718D01*
X112996105Y-97198183D01*
X112996103Y-97198182D01*
X112889972Y-97144106D01*
X112889971Y-97144106D01*
X112883032Y-97140570D01*
X112875338Y-97139351D01*
X112875337Y-97139351D01*
X112785415Y-97125109D01*
X112785413Y-97125109D01*
X112781569Y-97124500D01*
X112218431Y-97124500D01*
X112214587Y-97125109D01*
X112214585Y-97125109D01*
X112124663Y-97139351D01*
X112124662Y-97139351D01*
X112116968Y-97140570D01*
X112110029Y-97144106D01*
X112110028Y-97144106D01*
X112003897Y-97198182D01*
X112003895Y-97198183D01*
X111996958Y-97201718D01*
X111901718Y-97296958D01*
X111898183Y-97303895D01*
X111898182Y-97303897D01*
X111854446Y-97389734D01*
X111840570Y-97416968D01*
X111838319Y-97415821D01*
X111809415Y-97455597D01*
X111751230Y-97474500D01*
X111748770Y-97474500D01*
X111690579Y-97455593D01*
X111661681Y-97415821D01*
X111659430Y-97416968D01*
X111601818Y-97303897D01*
X111601817Y-97303895D01*
X111598282Y-97296958D01*
X111503042Y-97201718D01*
X111496105Y-97198183D01*
X111496103Y-97198182D01*
X111389972Y-97144106D01*
X111389971Y-97144106D01*
X111383032Y-97140570D01*
X111375338Y-97139351D01*
X111375337Y-97139351D01*
X111285415Y-97125109D01*
X111285413Y-97125109D01*
X111281569Y-97124500D01*
X110718431Y-97124500D01*
X110714587Y-97125109D01*
X110714585Y-97125109D01*
X110624663Y-97139351D01*
X110624662Y-97139351D01*
X110616968Y-97140570D01*
X110610029Y-97144106D01*
X110610028Y-97144106D01*
X110503897Y-97198182D01*
X110503895Y-97198183D01*
X110496958Y-97201718D01*
X110401718Y-97296958D01*
X110398183Y-97303895D01*
X110398182Y-97303897D01*
X110377508Y-97344473D01*
X110334243Y-97387738D01*
X110273811Y-97397309D01*
X110258706Y-97393683D01*
X110256250Y-97392885D01*
X110249306Y-97389347D01*
X110124000Y-97369500D01*
X110116304Y-97370719D01*
X110006389Y-97388128D01*
X110006388Y-97388128D01*
X109998694Y-97389347D01*
X109991754Y-97392883D01*
X109991748Y-97392885D01*
X109901842Y-97438695D01*
X109841410Y-97448267D01*
X109786893Y-97420490D01*
X109763347Y-97396944D01*
X109756410Y-97393409D01*
X109756408Y-97393408D01*
X109657246Y-97342883D01*
X109650306Y-97339347D01*
X109642612Y-97338128D01*
X109642611Y-97338128D01*
X109560414Y-97325109D01*
X109560412Y-97325109D01*
X109556568Y-97324500D01*
X109093432Y-97324500D01*
X109089588Y-97325109D01*
X109089586Y-97325109D01*
X109007389Y-97338128D01*
X109007388Y-97338128D01*
X108999694Y-97339347D01*
X108992754Y-97342883D01*
X108893592Y-97393408D01*
X108893590Y-97393409D01*
X108886653Y-97396944D01*
X108796944Y-97486653D01*
X108793409Y-97493590D01*
X108793408Y-97493592D01*
X108754358Y-97570233D01*
X108739347Y-97599694D01*
X108738128Y-97607388D01*
X108738128Y-97607389D01*
X108727952Y-97671639D01*
X108724500Y-97693432D01*
X108724500Y-98306568D01*
X108725109Y-98310412D01*
X108725109Y-98310414D01*
X108731825Y-98352812D01*
X108739347Y-98400306D01*
X108742883Y-98407246D01*
X108745292Y-98414660D01*
X108743713Y-98415173D01*
X108751837Y-98466468D01*
X108724059Y-98520984D01*
X108669542Y-98548761D01*
X108654056Y-98549980D01*
X108345944Y-98549980D01*
X108287753Y-98531073D01*
X108251789Y-98481573D01*
X108251789Y-98420387D01*
X108256695Y-98408543D01*
X108257116Y-98407248D01*
X108260653Y-98400306D01*
X108268176Y-98352812D01*
X108274891Y-98310414D01*
X108274891Y-98310412D01*
X108275500Y-98306568D01*
X108275500Y-97693432D01*
X108272048Y-97671639D01*
X108261872Y-97607389D01*
X108261872Y-97607388D01*
X108260653Y-97599694D01*
X108245642Y-97570233D01*
X108206592Y-97493592D01*
X108206591Y-97493590D01*
X108203056Y-97486653D01*
X108140668Y-97424265D01*
X108112891Y-97369748D01*
X108112891Y-97338776D01*
X108130500Y-97227600D01*
X108129281Y-97219904D01*
X108129281Y-97219900D01*
X108128217Y-97213181D01*
X108137789Y-97152749D01*
X108181053Y-97109486D01*
X108196103Y-97101818D01*
X108196105Y-97101817D01*
X108203042Y-97098282D01*
X108298282Y-97003042D01*
X108304673Y-96990500D01*
X108355894Y-96889972D01*
X108355894Y-96889971D01*
X108359430Y-96883032D01*
X108368018Y-96828813D01*
X108374891Y-96785415D01*
X108374891Y-96785413D01*
X108375500Y-96781569D01*
X108375500Y-96218431D01*
X108359430Y-96116968D01*
X108338046Y-96075000D01*
X108301818Y-96003897D01*
X108301817Y-96003895D01*
X108298282Y-95996958D01*
X108270328Y-95969004D01*
X108242551Y-95914487D01*
X108252122Y-95854055D01*
X108295387Y-95810790D01*
X108340332Y-95800000D01*
X115498334Y-95800000D01*
X115556525Y-95818907D01*
G37*
%TD.AperFunction*%
%TD*%
M02*
